<?xml version="1.0" encoding="utf-8"?>
<!-- Generator: Adobe Illustrator 27.6.1, SVG Export Plug-In . SVG Version: 6.00 Build 0)  -->
<svg version="1.1" id="Layer_1" xmlns="http://www.w3.org/2000/svg" xmlns:xlink="http://www.w3.org/1999/xlink" x="0px" y="0px"
	 viewBox="0 0 223 121" style="enable-background:new 0 0 223 121;" xml:space="preserve">
<style type="text/css">
	.st0{fill:url(#SVGID_1_);}
	.st1{fill:#FFFFFF;}
	.st2{fill:url(#SVGID_00000052822978589787882460000015870781275106823062_);}
	.st3{fill:url(#SVGID_00000015317775411529122540000016207395125940173956_);}
	.st4{fill:url(#SVGID_00000131340114719012173100000005505784845989326741_);}
	.st5{fill:url(#SVGID_00000171685236559380176900000016427006818318701958_);}
	.st6{fill:url(#SVGID_00000042717265578983195070000010540817764683280028_);}
</style>
<linearGradient id="SVGID_1_" gradientUnits="userSpaceOnUse" x1="210.5314" y1="28.395" x2="160.067" y2="10.1019" gradientTransform="matrix(1 0 0 -1 0 121.3957)">
	<stop  offset="0" style="stop-color:#D63638"/>
	<stop  offset="1" style="stop-color:#701C1D"/>
</linearGradient>
<path class="st0" d="M161.5,91.1c4.5,8.4,7.7,19.1,7.8,29.4h42.9c2.2,0,4.1-1.9,3.9-4.2c-0.8-16.2-5.2-32.2-12-45.8
	c-1-2.1-3.5-2.8-5.4-1.6l-17.4,10.3L161.5,91.1z"/>
<path class="st1" d="M201.4,110.1c0.1,0.4,0.1,0.8,0,1.2c-0.1,0.3-0.3,0.6-0.6,0.9c-0.3,0.2-0.6,0.4-1.1,0.6l-0.5,0.1l-0.9-3.3
	c-0.5,0.1-0.9,0.4-1.1,0.7c-0.2,0.3-0.2,0.7-0.1,1.2c0.1,0.3,0.2,0.6,0.3,0.8c0.1,0.2,0.3,0.4,0.5,0.7l-0.7,0.2
	c-0.2-0.2-0.3-0.4-0.4-0.7c-0.1-0.2-0.2-0.5-0.3-0.8c-0.1-0.5-0.2-0.9-0.1-1.3c0.1-0.4,0.3-0.7,0.6-1c0.3-0.3,0.7-0.5,1.3-0.7
	c0.5-0.1,1-0.2,1.4-0.1c0.4,0.1,0.8,0.2,1.1,0.5C201.1,109.4,201.3,109.7,201.4,110.1z M200.8,110.3c-0.1-0.4-0.3-0.6-0.6-0.8
	c-0.3-0.2-0.7-0.2-1.1-0.1l0.7,2.4c0.3-0.1,0.5-0.2,0.7-0.3c0.2-0.1,0.3-0.3,0.4-0.5C200.8,110.8,200.8,110.6,200.8,110.3z"/>
<path class="st1" d="M200.5,106.8c0,0.1,0,0.2,0.1,0.3c0,0.1,0,0.2,0,0.3l-0.8,0.1c0-0.1,0-0.2,0-0.3c0-0.1,0-0.2-0.1-0.3
	c-0.1-0.2-0.1-0.4-0.3-0.5c-0.1-0.1-0.3-0.3-0.4-0.4c-0.2-0.1-0.4-0.1-0.6-0.2c-0.2,0-0.4,0-0.7,0.1l-2.6,0.7l-0.2-0.9l4.8-1.3
	l0.2,0.7l-0.8,0.3l0,0c0.2,0.1,0.4,0.1,0.6,0.2c0.2,0.1,0.3,0.2,0.5,0.4C200.4,106.4,200.5,106.6,200.5,106.8z"/>
<path class="st1" d="M199,101.3c0.1,0.4,0.1,0.8,0,1.2c-0.1,0.3-0.3,0.6-0.6,0.9s-0.6,0.4-1.1,0.6l-0.5,0.1l-0.9-3.3
	c-0.5,0.1-0.9,0.4-1.1,0.7c-0.2,0.3-0.2,0.7-0.1,1.2c0.1,0.3,0.2,0.6,0.3,0.8s0.3,0.4,0.5,0.7l-0.7,0.2c-0.2-0.2-0.3-0.4-0.4-0.7
	c-0.1-0.2-0.2-0.5-0.3-0.8c-0.1-0.5-0.1-0.9-0.1-1.3c0.1-0.4,0.3-0.7,0.6-1c0.3-0.3,0.7-0.5,1.3-0.7c0.5-0.1,1-0.2,1.4-0.1
	c0.4,0.1,0.8,0.2,1.1,0.5C198.7,100.5,198.9,100.9,199,101.3z M198.3,101.5c-0.1-0.4-0.3-0.6-0.6-0.8c-0.3-0.2-0.7-0.2-1.1-0.1
	l0.7,2.4c0.3-0.1,0.5-0.2,0.7-0.3c0.2-0.1,0.3-0.3,0.4-0.5C198.4,102,198.4,101.7,198.3,101.5z"/>
<path class="st1" d="M192.5,97.2l4.3-3.1l0.3,0.9l-2.6,1.8c-0.2,0.1-0.4,0.2-0.6,0.4c-0.2,0.1-0.4,0.2-0.5,0.3l0,0
	c0.2,0,0.4,0,0.6,0c0.2,0,0.5,0,0.7,0l3.2,0.2l0.3,0.9l-5.4-0.5L192.5,97.2z"/>
<path class="st1" d="M196.3,91.6c0.1,0.4,0.1,0.8,0,1.2c-0.1,0.3-0.3,0.6-0.6,0.9c-0.3,0.2-0.6,0.4-1.1,0.6l-0.5,0.1l-0.9-3.3
	c-0.5,0.1-0.9,0.4-1.1,0.7c-0.2,0.3-0.2,0.7-0.1,1.2c0.1,0.3,0.2,0.6,0.3,0.8c0.1,0.2,0.3,0.4,0.5,0.7l-0.7,0.2
	c-0.2-0.2-0.3-0.4-0.4-0.7c-0.1-0.2-0.2-0.5-0.3-0.8c-0.1-0.5-0.1-0.9-0.1-1.3c0.1-0.4,0.3-0.7,0.6-1c0.3-0.3,0.7-0.5,1.3-0.7
	c0.5-0.1,1-0.2,1.4-0.1c0.4,0.1,0.8,0.2,1.1,0.5C196,90.8,196.2,91.1,196.3,91.6z M195.6,91.7c-0.1-0.4-0.3-0.6-0.6-0.8
	c-0.3-0.2-0.7-0.2-1.1-0.1l0.7,2.4c0.3-0.1,0.5-0.2,0.7-0.3c0.2-0.1,0.3-0.3,0.4-0.5C195.7,92.2,195.7,92,195.6,91.7z"/>
<path class="st1" d="M192.2,89.4c-0.4,0.1-0.7,0.1-1.1,0c-0.3-0.1-0.6-0.3-0.8-0.6c-0.2-0.3-0.4-0.7-0.6-1.2
	c-0.1-0.2-0.1-0.5-0.1-0.7c0-0.2-0.1-0.4-0.1-0.6c0-0.2,0-0.4,0-0.5l0.9-0.2c0,0.3,0,0.6,0,0.9c0,0.3,0.1,0.7,0.1,1
	c0.1,0.3,0.2,0.5,0.3,0.7c0.1,0.2,0.3,0.3,0.5,0.4c0.2,0.1,0.4,0.1,0.6,0c0.2-0.1,0.4-0.2,0.5-0.3c0.1-0.1,0.2-0.3,0.3-0.6
	c0.1-0.2,0.1-0.6,0.1-0.9c0-0.3,0.1-0.5,0.1-0.7c0.1-0.2,0.1-0.4,0.2-0.6c0.1-0.2,0.2-0.3,0.4-0.5c0.2-0.1,0.4-0.2,0.7-0.3
	c0.4-0.1,0.7-0.1,1,0c0.3,0.1,0.6,0.3,0.8,0.6c0.2,0.3,0.4,0.6,0.5,1c0.1,0.3,0.1,0.7,0.2,1c0,0.3,0,0.6,0,0.9l-0.8-0.1
	c0-0.3,0-0.5,0-0.8c0-0.3,0-0.5-0.1-0.8c-0.1-0.2-0.2-0.4-0.3-0.6c-0.1-0.1-0.3-0.3-0.4-0.3c-0.2-0.1-0.3-0.1-0.5,0
	c-0.2,0.1-0.4,0.2-0.5,0.3c-0.1,0.1-0.2,0.3-0.3,0.5s-0.1,0.5-0.1,0.9c0,0.4-0.1,0.8-0.2,1c-0.1,0.3-0.2,0.5-0.4,0.7
	C192.8,89.2,192.6,89.3,192.2,89.4z"/>
<linearGradient id="SVGID_00000178889384905759778500000017049919791525707657_" gradientUnits="userSpaceOnUse" x1="180.9593" y1="71.8" x2="145.6829" y2="26.4452" gradientTransform="matrix(0.9999 -1.661982e-02 -1.661982e-02 -0.9999 1.0246 124.2163)">
	<stop  offset="0" style="stop-color:#E56639"/>
	<stop  offset="1" style="stop-color:#7F3920"/>
</linearGradient>
<path style="fill:url(#SVGID_00000178889384905759778500000017049919791525707657_);" d="M161.5,91.1l20.1-11.7l16.7-10.1
	c2-1.2,2.6-3.8,1.3-5.7C191,50.9,179.1,39.2,166,31c-1.9-1.2-4.3-0.5-5.4,1.4l-1.2,2l-8.3,15.2L140,70.7c8.3,4.8,16,11.5,21.1,19.8
	L161.5,91.1z"/>
<path class="st1" d="M176.7,70.7c0.1,0.1,0.1,0.1,0.2,0.2c0.1,0.1,0.1,0.2,0.2,0.2l-0.7,0.5c0-0.1-0.1-0.1-0.1-0.2
	c-0.1-0.1-0.1-0.1-0.2-0.2c-0.1-0.1-0.3-0.2-0.5-0.3c-0.2-0.1-0.4-0.1-0.6-0.1c-0.2,0-0.4,0-0.6,0.1c-0.2,0.1-0.4,0.2-0.6,0.4
	l-1.9,1.8l-0.6-0.7l3.6-3.4l0.5,0.5l-0.6,0.7l0,0c0.2-0.1,0.4-0.1,0.6-0.1c0.2,0,0.4,0,0.6,0.1C176.3,70.5,176.5,70.6,176.7,70.7z"
	/>
<path class="st1" d="M172.2,69.9c-0.3,0.3-0.6,0.5-0.9,0.6c-0.3,0.1-0.6,0.2-0.9,0.2c-0.3,0-0.6-0.1-0.9-0.2
	c-0.3-0.1-0.6-0.3-0.8-0.6c-0.2-0.2-0.4-0.5-0.5-0.8c-0.1-0.3-0.2-0.6-0.1-0.9c0-0.3,0.1-0.6,0.3-0.9c0.2-0.3,0.4-0.6,0.7-0.9
	c0.4-0.4,0.8-0.6,1.2-0.8c0.4-0.1,0.8-0.1,1.2,0c0.4,0.1,0.8,0.3,1.1,0.7c0.3,0.3,0.5,0.7,0.6,1.1c0.1,0.4,0.1,0.8-0.1,1.2
	C172.9,69.1,172.6,69.5,172.2,69.9z M169.6,67.2c-0.3,0.3-0.5,0.5-0.6,0.8c-0.1,0.3-0.2,0.5-0.1,0.8c0,0.3,0.2,0.5,0.4,0.7
	c0.2,0.2,0.5,0.4,0.7,0.4c0.3,0,0.5,0,0.8-0.1c0.3-0.1,0.5-0.3,0.8-0.6c0.3-0.3,0.5-0.5,0.6-0.8c0.1-0.3,0.2-0.5,0.1-0.8
	c0-0.2-0.2-0.5-0.4-0.7c-0.3-0.3-0.7-0.5-1.1-0.4C170.5,66.6,170.1,66.8,169.6,67.2z"/>
<path class="st1" d="M168.3,65.8c-0.3,0.3-0.6,0.5-0.9,0.6c-0.3,0.1-0.6,0.2-0.9,0.2c-0.3,0-0.6-0.1-0.9-0.2
	c-0.3-0.1-0.6-0.3-0.8-0.6c-0.2-0.2-0.4-0.5-0.5-0.8c-0.1-0.3-0.2-0.6-0.1-0.9c0-0.3,0.1-0.6,0.3-0.9c0.2-0.3,0.4-0.6,0.7-0.9
	c0.4-0.4,0.8-0.6,1.2-0.8c0.4-0.1,0.8-0.1,1.2,0c0.4,0.1,0.8,0.3,1.1,0.7c0.3,0.3,0.5,0.7,0.6,1.1c0.1,0.4,0.1,0.8-0.1,1.2
	C169,65.1,168.7,65.4,168.3,65.8z M165.7,63.1c-0.3,0.3-0.5,0.5-0.6,0.8c-0.1,0.3-0.2,0.5-0.1,0.8c0,0.3,0.2,0.5,0.4,0.7
	c0.2,0.2,0.5,0.4,0.7,0.4c0.3,0,0.5,0,0.8-0.1c0.3-0.1,0.5-0.3,0.8-0.6c0.3-0.3,0.5-0.5,0.6-0.8c0.1-0.3,0.2-0.5,0.1-0.8
	c0-0.2-0.2-0.5-0.4-0.7c-0.3-0.3-0.7-0.5-1.1-0.4C166.6,62.5,166.1,62.7,165.7,63.1z"/>
<path class="st1" d="M165.7,57.2c0.6,0.6,0.9,1.2,0.9,1.7c0,0.5-0.2,1-0.6,1.4c-0.2,0.2-0.4,0.3-0.7,0.5c-0.2,0.1-0.5,0.2-0.8,0.1
	c-0.3,0-0.6-0.1-0.9-0.3c-0.3-0.2-0.6-0.4-1-0.8l-0.5-0.5l-1.9,1.8l-0.6-0.7l4.8-4.6L165.7,57.2z M165.1,57.6l-0.6-0.6l-1.8,1.7
	l0.5,0.5c0.3,0.3,0.5,0.5,0.8,0.6c0.2,0.1,0.5,0.2,0.7,0.1c0.2,0,0.5-0.2,0.7-0.4c0.3-0.3,0.4-0.6,0.4-0.9
	C165.7,58.4,165.5,58,165.1,57.6z"/>
<path class="st1" d="M181.2,60.1l0.7,0.7l-1.4,2.7c-0.1,0.1-0.1,0.3-0.2,0.4c-0.1,0.1-0.1,0.3-0.2,0.4c-0.1,0.1-0.1,0.2-0.2,0.3l0,0
	c0.1-0.1,0.3-0.2,0.5-0.3c0.2-0.1,0.4-0.2,0.6-0.3l2.8-1.2l0.7,0.7l-5.7,2.4c-0.3,0.1-0.6,0.2-0.9,0.3c-0.3,0-0.5,0-0.8-0.1
	c-0.3-0.1-0.5-0.2-0.7-0.5c-0.1-0.1-0.2-0.2-0.2-0.3c-0.1-0.1-0.1-0.2-0.2-0.2l0.5-0.5c0,0.1,0.1,0.1,0.1,0.2
	c0.1,0.1,0.1,0.2,0.2,0.2c0.1,0.1,0.3,0.2,0.4,0.3c0.1,0.1,0.3,0.1,0.5,0c0.2,0,0.3-0.1,0.5-0.1l0.6-0.2L181.2,60.1z"/>
<path class="st1" d="M180.7,59.5c0.1,0.1,0.1,0.1,0.2,0.2c0.1,0.1,0.1,0.2,0.2,0.2l-0.7,0.5c0-0.1-0.1-0.1-0.1-0.2
	c-0.1-0.1-0.1-0.1-0.2-0.2c-0.1-0.1-0.3-0.2-0.5-0.3c-0.2-0.1-0.4-0.1-0.6-0.1c-0.2,0-0.4,0-0.6,0.1c-0.2,0.1-0.4,0.2-0.6,0.4
	l-1.9,1.8l-0.6-0.7l3.6-3.4l0.5,0.5l-0.6,0.7l0,0c0.2-0.1,0.4-0.1,0.6-0.1c0.2,0,0.4,0,0.6,0.1C180.4,59.2,180.6,59.3,180.7,59.5z"
	/>
<path class="st1" d="M176.7,55.4c0.3,0.3,0.5,0.6,0.6,1c0.1,0.4,0.1,0.7-0.1,1.1c-0.1,0.4-0.4,0.7-0.7,1l-0.4,0.4l-2.4-2.4
	c-0.4,0.4-0.6,0.8-0.6,1.1c0,0.4,0.1,0.8,0.5,1.1c0.2,0.2,0.4,0.4,0.7,0.5c0.2,0.1,0.5,0.3,0.7,0.4l-0.6,0.5
	c-0.3-0.1-0.5-0.2-0.7-0.4c-0.2-0.1-0.4-0.3-0.7-0.6c-0.3-0.3-0.6-0.7-0.7-1.1c-0.1-0.4-0.1-0.8,0-1.2c0.1-0.4,0.4-0.8,0.8-1.2
	c0.4-0.4,0.8-0.6,1.2-0.8c0.4-0.1,0.8-0.2,1.2-0.1C176.1,54.8,176.4,55,176.7,55.4z M176.2,55.8c-0.3-0.3-0.6-0.4-0.9-0.4
	c-0.3,0-0.7,0.1-1,0.4l1.7,1.8c0.2-0.2,0.3-0.4,0.4-0.6c0.1-0.2,0.1-0.4,0.1-0.6C176.5,56.2,176.4,56,176.2,55.8z"/>
<path class="st1" d="M175.9,52.3l-6.5,2.9l-0.7-0.7l3.2-6.3l0.7,0.7l-2.1,4c-0.1,0.1-0.1,0.3-0.2,0.4c-0.1,0.1-0.2,0.3-0.3,0.4
	c-0.1,0.1-0.2,0.3-0.3,0.4c0.1-0.1,0.3-0.2,0.4-0.2c0.1-0.1,0.3-0.2,0.5-0.2c0.2-0.1,0.3-0.2,0.5-0.2l4.1-1.9L175.9,52.3z"/>
<path class="st1" d="M217.8,73.3c-0.6,0.4-1.2,0.6-1.7,0.8c-0.5,0.2-1,0.3-1.5,0.2c-0.5,0-0.9-0.1-1.3-0.4c-0.4-0.2-0.7-0.6-1-1.1
	c-0.4-0.6-0.5-1.2-0.4-1.8c0.1-0.6,0.4-1.1,0.9-1.7c0.5-0.5,1.1-1,2-1.5c0.8-0.5,1.6-0.8,2.3-1c0.7-0.2,1.3-0.1,1.9,0.1
	c0.5,0.2,1,0.6,1.4,1.3c0.4,0.6,0.5,1.2,0.4,1.8c-0.1,0.6-0.4,1.1-0.8,1.7C219.3,72.4,218.6,72.9,217.8,73.3z M215.6,69.6
	c-0.6,0.3-1.1,0.6-1.4,0.9c-0.4,0.3-0.6,0.6-0.7,0.8c-0.1,0.3-0.1,0.5,0.1,0.8c0.2,0.3,0.4,0.4,0.7,0.5c0.3,0,0.6,0,1.1-0.2
	c0.4-0.2,0.9-0.4,1.5-0.7c0.6-0.3,1.1-0.6,1.4-0.9c0.4-0.3,0.6-0.6,0.7-0.8c0.1-0.3,0.1-0.5-0.1-0.8c-0.2-0.3-0.4-0.4-0.7-0.5
	c-0.3,0-0.6,0-1.1,0.2C216.7,69,216.2,69.3,215.6,69.6z"/>
<path class="st1" d="M214.2,67.2c-0.6,0.4-1.2,0.6-1.8,0.8c-0.5,0.2-1,0.3-1.5,0.2c-0.5,0-0.9-0.1-1.3-0.4c-0.4-0.2-0.7-0.6-1-1.1
	c-0.4-0.6-0.5-1.2-0.4-1.8c0.1-0.6,0.4-1.1,0.9-1.7c0.5-0.5,1.1-1,2-1.5c0.8-0.5,1.6-0.8,2.3-1c0.7-0.2,1.3-0.1,1.9,0.1
	c0.5,0.2,1,0.6,1.4,1.3c0.4,0.6,0.5,1.2,0.4,1.8c-0.1,0.6-0.4,1.1-0.8,1.7C215.7,66.2,215.1,66.7,214.2,67.2z M212.1,63.4
	c-0.6,0.3-1.1,0.6-1.4,0.9c-0.4,0.3-0.6,0.6-0.7,0.8c-0.1,0.3-0.1,0.5,0.1,0.8c0.2,0.3,0.4,0.4,0.7,0.5c0.3,0,0.6,0,1.1-0.2
	c0.4-0.2,0.9-0.4,1.5-0.7c0.6-0.3,1.1-0.6,1.4-0.9c0.4-0.3,0.6-0.6,0.7-0.8c0.1-0.3,0.1-0.5-0.1-0.8c-0.2-0.3-0.4-0.4-0.7-0.5
	c-0.3,0-0.6,0-1.1,0.2C213.2,62.9,212.6,63.1,212.1,63.4z"/>
<path class="st1" d="M208.5,62.5l-0.5-0.9l-1.6,0.9l-0.9-1.6l1.6-0.9l-1.9-3.3l1.1-0.6l6.9,0.5l0.9,1.5l-4.8,2.8l0.5,0.9L208.5,62.5
	z M208.4,59.3l1.3-0.7c0.1-0.1,0.3-0.2,0.4-0.2c0.2-0.1,0.3-0.2,0.5-0.3c0.2-0.1,0.3-0.2,0.5-0.2c0.1-0.1,0.2-0.1,0.3-0.1l0,0
	c-0.2,0-0.4,0-0.5,0c-0.2,0-0.4,0-0.6,0l-2.9-0.2L208.4,59.3z"/>
<linearGradient id="SVGID_00000173876394969790196850000007415263987240490150_" gradientUnits="userSpaceOnUse" x1="139.1344" y1="105.0225" x2="127.1827" y2="50.6844" gradientTransform="matrix(1 0 0 -1 0 121.3957)">
	<stop  offset="0.5698" style="stop-color:#ED9A32"/>
	<stop  offset="1" style="stop-color:#87581C"/>
</linearGradient>
<path style="fill:url(#SVGID_00000173876394969790196850000007415263987240490150_);" d="M112.8,63c9.7,0.2,19.4,3.2,27.4,7.7
	L151.8,50l9.2-17.1c1.1-2,0.4-4.4-1.5-5.5c-12.8-6.8-27.4-11.1-42.7-11.9c-2.2-0.1-4,1.7-4,4V39V63z"/>
<path class="st1" d="M145,36.3c0.1,0,0.2,0,0.3,0.1c0.1,0,0.2,0.1,0.3,0.1l-0.3,0.8c-0.1,0-0.1-0.1-0.2-0.1c-0.1,0-0.2-0.1-0.3-0.1
	c-0.2,0-0.4,0-0.6,0c-0.2,0-0.4,0.1-0.5,0.2c-0.2,0.1-0.3,0.2-0.4,0.4c-0.1,0.2-0.2,0.4-0.3,0.6l-0.6,2.6l-0.9-0.2l1.1-4.9l0.7,0.2
	l-0.1,0.9l0,0c0.1-0.2,0.3-0.3,0.5-0.4c0.2-0.1,0.4-0.2,0.6-0.2C144.6,36.3,144.8,36.3,145,36.3z"/>
<path class="st1" d="M140.9,38.1c-0.1,0.4-0.2,0.7-0.4,1c-0.2,0.3-0.4,0.5-0.6,0.7c-0.2,0.2-0.5,0.3-0.8,0.3c-0.3,0.1-0.6,0-1,0
	c-0.3-0.1-0.6-0.2-0.9-0.4c-0.3-0.2-0.5-0.4-0.6-0.6c-0.2-0.3-0.3-0.6-0.3-0.9c0-0.3,0-0.7,0.1-1.1c0.1-0.5,0.3-1,0.6-1.3
	c0.3-0.3,0.6-0.6,1-0.7c0.4-0.1,0.8-0.1,1.3,0c0.5,0.1,0.8,0.3,1.1,0.5c0.3,0.3,0.5,0.6,0.6,1C141,37.1,141,37.5,140.9,38.1z
	 M137.2,37.3c-0.1,0.4-0.1,0.7-0.1,1c0,0.3,0.1,0.5,0.3,0.7c0.2,0.2,0.4,0.3,0.7,0.4c0.3,0.1,0.6,0,0.8-0.1c0.2-0.1,0.4-0.3,0.6-0.5
	c0.2-0.3,0.3-0.6,0.4-0.9c0.1-0.4,0.1-0.7,0.1-1c0-0.3-0.1-0.5-0.3-0.7c-0.2-0.2-0.4-0.3-0.7-0.4c-0.5-0.1-0.8,0-1.1,0.3
	C137.5,36.3,137.3,36.7,137.2,37.3z"/>
<path class="st1" d="M135.3,36.9c-0.1,0.4-0.2,0.7-0.4,1c-0.2,0.3-0.4,0.5-0.6,0.7c-0.2,0.2-0.5,0.3-0.8,0.3c-0.3,0.1-0.6,0-1,0
	c-0.3-0.1-0.6-0.2-0.9-0.4c-0.3-0.2-0.5-0.4-0.6-0.6c-0.2-0.3-0.3-0.6-0.3-0.9c0-0.3,0-0.7,0.1-1.1c0.1-0.5,0.3-1,0.6-1.3
	c0.3-0.3,0.6-0.6,1-0.7c0.4-0.1,0.8-0.1,1.3,0c0.5,0.1,0.8,0.3,1.1,0.5c0.3,0.3,0.5,0.6,0.6,1C135.4,35.9,135.4,36.4,135.3,36.9z
	 M131.7,36.1c-0.1,0.4-0.1,0.7-0.1,1c0,0.3,0.1,0.5,0.3,0.7c0.2,0.2,0.4,0.3,0.7,0.4c0.3,0.1,0.6,0,0.8-0.1c0.2-0.1,0.4-0.3,0.6-0.5
	c0.2-0.3,0.3-0.6,0.4-0.9c0.1-0.4,0.1-0.7,0.1-1c0-0.3-0.1-0.5-0.3-0.7c-0.2-0.2-0.4-0.3-0.7-0.4c-0.5-0.1-0.8,0-1.1,0.3
	C132,35.2,131.8,35.6,131.7,36.1z"/>
<path class="st1" d="M128.3,31.2c0.8,0.2,1.4,0.5,1.7,0.9c0.3,0.4,0.4,0.9,0.3,1.5c-0.1,0.3-0.2,0.5-0.3,0.8
	c-0.1,0.2-0.3,0.4-0.6,0.6c-0.2,0.1-0.5,0.2-0.9,0.3c-0.4,0-0.8,0-1.2-0.1l-0.7-0.2l-0.5,2.5l-0.9-0.2l1.4-6.5L128.3,31.2z M128,32
	l-0.8-0.2l-0.5,2.5l0.6,0.1c0.4,0.1,0.7,0.1,1,0.1c0.3,0,0.5-0.1,0.7-0.3c0.2-0.2,0.3-0.4,0.4-0.7c0.1-0.4,0-0.7-0.2-1
	C128.9,32.2,128.6,32.1,128,32z"/>
<path class="st1" d="M178.1,27.7c-0.4,0.6-0.7,1.1-1.1,1.6c-0.4,0.4-0.8,0.8-1.2,1c-0.4,0.2-0.8,0.3-1.3,0.3c-0.4,0-0.9-0.2-1.4-0.5
	c-0.6-0.4-1-0.8-1.2-1.3c-0.2-0.5-0.2-1.2-0.1-1.9c0.2-0.7,0.5-1.5,0.9-2.3c0.5-0.8,1-1.5,1.5-2c0.5-0.5,1.1-0.8,1.6-0.9
	c0.6-0.1,1.2,0.1,1.8,0.4c0.6,0.4,1,0.8,1.2,1.3c0.2,0.5,0.3,1.2,0.1,1.9C178.9,26.1,178.6,26.9,178.1,27.7z M174.4,25.6
	c-0.3,0.6-0.6,1.1-0.8,1.5c-0.2,0.4-0.2,0.8-0.2,1.1c0,0.3,0.2,0.5,0.5,0.7c0.3,0.2,0.5,0.2,0.8,0.1c0.3-0.1,0.6-0.3,0.8-0.7
	c0.3-0.4,0.6-0.8,0.9-1.4c0.3-0.6,0.6-1.1,0.7-1.5c0.2-0.4,0.2-0.8,0.2-1.1c0-0.3-0.2-0.5-0.5-0.7c-0.3-0.2-0.5-0.2-0.8-0.1
	c-0.3,0.1-0.5,0.3-0.8,0.7C175,24.5,174.7,25,174.4,25.6z"/>
<path class="st1" d="M172,24.2c-0.4,0.6-0.7,1.1-1.1,1.6c-0.4,0.4-0.8,0.8-1.2,1c-0.4,0.2-0.8,0.3-1.3,0.3c-0.4,0-0.9-0.2-1.4-0.5
	c-0.6-0.4-1-0.8-1.3-1.3c-0.2-0.5-0.2-1.2-0.1-1.9c0.2-0.7,0.5-1.5,0.9-2.3c0.5-0.8,1-1.5,1.5-2c0.5-0.5,1.1-0.8,1.6-0.9
	c0.6-0.1,1.2,0.1,1.8,0.4c0.6,0.4,1,0.8,1.2,1.3c0.2,0.5,0.3,1.2,0.1,1.9C172.8,22.6,172.4,23.3,172,24.2z M168.2,22
	c-0.3,0.6-0.6,1.1-0.8,1.5c-0.2,0.4-0.2,0.8-0.2,1.1c0,0.3,0.2,0.5,0.5,0.7c0.3,0.2,0.5,0.2,0.8,0.1c0.3-0.1,0.6-0.3,0.8-0.7
	c0.3-0.4,0.6-0.8,1-1.4c0.3-0.6,0.6-1.1,0.7-1.5c0.2-0.4,0.2-0.8,0.2-1.1c0-0.3-0.2-0.5-0.5-0.7c-0.3-0.2-0.5-0.2-0.8-0.1
	c-0.3,0.1-0.5,0.3-0.8,0.7C168.9,21,168.5,21.4,168.2,22z"/>
<path class="st1" d="M166.8,18.4c-0.2,0.4-0.5,0.6-0.8,0.8c-0.3,0.2-0.6,0.3-1,0.3c-0.3,0-0.7,0-1.1-0.1l0,0
	c0.6,0.4,0.9,0.9,1.1,1.4c0.1,0.5,0.1,1-0.2,1.5c-0.3,0.4-0.6,0.8-1,1c-0.4,0.2-0.9,0.3-1.5,0.3c-0.6-0.1-1.2-0.3-1.9-0.7
	c-0.4-0.2-0.8-0.5-1.1-0.8c-0.3-0.3-0.6-0.6-0.9-0.9l0.8-1.4c0.2,0.4,0.5,0.7,0.8,1c0.3,0.3,0.6,0.5,0.9,0.7c0.6,0.3,1,0.5,1.4,0.4
	c0.4-0.1,0.6-0.3,0.8-0.6c0.1-0.2,0.2-0.4,0.1-0.6c0-0.2-0.1-0.4-0.4-0.7c-0.2-0.2-0.6-0.5-1.1-0.8l-0.6-0.3l0.7-1.2l0.6,0.3
	c0.5,0.3,0.9,0.4,1.2,0.5c0.3,0.1,0.5,0,0.7-0.1c0.2-0.1,0.3-0.3,0.4-0.5c0.2-0.3,0.2-0.5,0.1-0.8c-0.1-0.3-0.3-0.5-0.7-0.7
	c-0.2-0.1-0.5-0.2-0.7-0.3c-0.2-0.1-0.5-0.1-0.7-0.1c-0.2,0-0.4,0-0.6,0l-0.1-1.5c0.4,0,0.9,0,1.4,0.1c0.5,0.1,1,0.3,1.6,0.6
	c0.8,0.5,1.3,1,1.6,1.6C167.1,17.2,167.1,17.8,166.8,18.4z"/>
<linearGradient id="SVGID_00000092447623026307923340000003529717168141845943_" gradientUnits="userSpaceOnUse" x1="83.5341" y1="105.9592" x2="96.7383" y2="50.9346" gradientTransform="matrix(1 0 0 -1 0 121.3957)">
	<stop  offset="0.2651" style="stop-color:#E4C73B"/>
	<stop  offset="1" style="stop-color:#7E6E21"/>
</linearGradient>
<path style="fill:url(#SVGID_00000092447623026307923340000003529717168141845943_);" d="M81.6,70.8c8.4-4.6,21.1-7.7,31.3-7.9
	c0,0,0-14.5,0-23.8c0-6.2,0-14.7,0-19.7c0-2.3-1.9-4.2-4.2-4c-16.4,0.8-33.7,5.2-47.6,12.1c-2.1,1-2.8,3.6-1.6,5.6l10,17L81.6,70.8z
	"/>
<path class="st1" d="M95.4,48.5c0.4-0.1,0.8-0.1,1.2,0c0.4,0.1,0.7,0.3,0.9,0.6c0.3,0.3,0.4,0.6,0.6,1.1l0.1,0.5L95,51.5
	c0.2,0.5,0.4,0.9,0.7,1.1c0.3,0.2,0.7,0.2,1.2,0.1c0.3-0.1,0.6-0.2,0.8-0.3c0.2-0.1,0.4-0.3,0.7-0.5l0.2,0.7
	c-0.2,0.2-0.4,0.3-0.7,0.4c-0.2,0.1-0.5,0.2-0.8,0.3c-0.5,0.1-0.9,0.2-1.3,0.1c-0.4-0.1-0.8-0.3-1.1-0.6c-0.3-0.3-0.5-0.7-0.7-1.3
	c-0.2-0.5-0.2-1-0.1-1.4c0.1-0.4,0.2-0.8,0.5-1.1C94.6,48.8,95,48.6,95.4,48.5z M95.6,49.2c-0.4,0.1-0.6,0.3-0.8,0.6
	c-0.1,0.3-0.2,0.7-0.1,1.1l2.4-0.7c-0.1-0.3-0.2-0.5-0.3-0.7c-0.1-0.2-0.3-0.3-0.5-0.4C96.1,49.1,95.9,49.1,95.6,49.2z"/>
<path class="st1" d="M93.1,53.8c0.1,0,0.2-0.1,0.4-0.1c0.1-0.1,0.2-0.1,0.3-0.2l0.2,0.7c-0.1,0.1-0.2,0.1-0.4,0.2
	c-0.2,0.1-0.3,0.1-0.5,0.2c-0.3,0.1-0.5,0.1-0.8,0.1c-0.2,0-0.5-0.1-0.6-0.3c-0.2-0.2-0.3-0.5-0.5-0.9l-0.8-2.7l-0.7,0.2l-0.1-0.4
	l0.6-0.5l0-1.1l0.5-0.2l0.3,1.1l1.4-0.4l0.2,0.7l-1.4,0.4l0.8,2.7c0.1,0.3,0.2,0.5,0.4,0.6C92.7,53.8,92.9,53.9,93.1,53.8z"/>
<path class="st1" d="M86.9,50.9c0.6-0.2,1.1-0.2,1.5,0c0.4,0.2,0.6,0.5,0.8,1.1l1,3.2l-0.6,0.2l-0.4-0.6l0,0
	c-0.1,0.2-0.2,0.4-0.3,0.6c-0.1,0.2-0.3,0.3-0.4,0.4c-0.2,0.1-0.4,0.2-0.7,0.3c-0.3,0.1-0.6,0.1-0.8,0.1c-0.3,0-0.5-0.1-0.7-0.3
	c-0.2-0.2-0.3-0.4-0.4-0.8c-0.1-0.5-0.1-0.9,0.2-1.3c0.3-0.4,0.8-0.7,1.6-0.9l0.8-0.3l-0.1-0.3c-0.1-0.4-0.3-0.6-0.5-0.7
	c-0.2-0.1-0.5-0.1-0.8,0c-0.2,0.1-0.5,0.2-0.7,0.3c-0.2,0.1-0.4,0.3-0.6,0.4l-0.5-0.6c0.2-0.2,0.4-0.4,0.7-0.5
	C86.3,51.2,86.6,51,86.9,50.9z M88.6,53.2l-0.7,0.2c-0.6,0.2-0.9,0.4-1.1,0.6c-0.2,0.2-0.2,0.5-0.1,0.8c0.1,0.3,0.2,0.4,0.4,0.5
	c0.2,0.1,0.4,0.1,0.7,0c0.4-0.1,0.7-0.3,0.9-0.6c0.2-0.3,0.2-0.7,0.1-1.1L88.6,53.2z"/>
<path class="st1" d="M100.9,33.8c0.1,0,0.2,0,0.3-0.1c0.1,0,0.2,0,0.3,0l0.1,0.8c-0.1,0-0.2,0-0.3,0c-0.1,0-0.2,0-0.3,0.1
	c-0.2,0.1-0.4,0.1-0.5,0.3c-0.1,0.1-0.3,0.3-0.4,0.4c-0.1,0.2-0.1,0.4-0.2,0.6c0,0.2,0,0.4,0.1,0.7l0.7,2.5l-0.9,0.3l-1.4-4.8
	l0.7-0.2l0.4,0.8l0,0c0-0.2,0.1-0.4,0.2-0.6c0.1-0.2,0.2-0.3,0.4-0.5C100.4,33.9,100.6,33.8,100.9,33.8z"/>
<path class="st1" d="M95.3,35.4c0.4-0.1,0.8-0.1,1.2,0c0.4,0.1,0.7,0.3,0.9,0.6c0.3,0.3,0.4,0.6,0.6,1.1l0.1,0.5l-3.3,0.9
	c0.2,0.5,0.4,0.9,0.7,1.1c0.3,0.2,0.7,0.2,1.2,0.1c0.3-0.1,0.6-0.2,0.8-0.3c0.2-0.1,0.4-0.3,0.7-0.5l0.2,0.7
	c-0.2,0.2-0.4,0.3-0.7,0.4c-0.2,0.1-0.5,0.2-0.8,0.3c-0.5,0.1-0.9,0.2-1.3,0.1c-0.4-0.1-0.8-0.3-1.1-0.6c-0.3-0.3-0.5-0.7-0.7-1.3
	c-0.2-0.5-0.2-1-0.1-1.4c0.1-0.4,0.2-0.8,0.5-1.1C94.5,35.7,94.9,35.5,95.3,35.4z M95.5,36c-0.4,0.1-0.6,0.3-0.8,0.6
	c-0.1,0.3-0.2,0.7-0.1,1.1l2.4-0.7c-0.1-0.3-0.2-0.5-0.3-0.7c-0.1-0.2-0.3-0.3-0.5-0.4C96,36,95.8,36,95.5,36z"/>
<path class="st1" d="M91,42c-0.6,0.2-1.1,0.1-1.6-0.2c-0.5-0.3-0.8-0.9-1.1-1.7c-0.2-0.8-0.2-1.5,0-2c0.2-0.5,0.6-0.9,1.2-1
	c0.2-0.1,0.5-0.1,0.7-0.1c0.2,0,0.4,0.1,0.6,0.1c0.2,0.1,0.3,0.2,0.5,0.3l0.1,0c0-0.1-0.1-0.2-0.2-0.4c-0.1-0.2-0.1-0.3-0.1-0.4
	l-0.5-1.8l0.9-0.3l2,6.8l-0.7,0.2l-0.3-0.6l0,0c0,0.2-0.1,0.3-0.2,0.5c-0.1,0.2-0.2,0.3-0.4,0.4C91.5,41.8,91.3,41.9,91,42z
	 M91,41.2c0.5-0.1,0.8-0.4,0.9-0.7c0.1-0.3,0.1-0.8-0.1-1.3l0-0.1c-0.2-0.6-0.4-1-0.7-1.2c-0.3-0.3-0.7-0.3-1.2-0.2
	c-0.4,0.1-0.7,0.4-0.8,0.7c-0.1,0.4-0.1,0.8,0.1,1.4c0.2,0.6,0.4,1,0.7,1.2C90.3,41.3,90.6,41.3,91,41.2z"/>
<path class="st1" d="M87.4,40.3c0.1,0.4,0.2,0.8,0.2,1.1c0,0.3-0.1,0.6-0.2,0.9c-0.1,0.3-0.3,0.5-0.6,0.7c-0.2,0.2-0.5,0.3-0.9,0.4
	c-0.3,0.1-0.6,0.1-1,0.1c-0.3,0-0.6-0.1-0.8-0.3c-0.3-0.2-0.5-0.4-0.7-0.7c-0.2-0.3-0.4-0.6-0.5-1c-0.2-0.5-0.2-1-0.1-1.4
	c0.1-0.4,0.2-0.8,0.5-1.1c0.3-0.3,0.7-0.5,1.1-0.6c0.4-0.1,0.9-0.1,1.3,0c0.4,0.1,0.7,0.3,1,0.6C87,39.4,87.3,39.8,87.4,40.3z
	 M83.8,41.3c0.1,0.4,0.2,0.7,0.4,0.9c0.2,0.2,0.4,0.4,0.6,0.5c0.2,0.1,0.5,0.1,0.8,0c0.3-0.1,0.5-0.2,0.7-0.4
	c0.2-0.2,0.2-0.4,0.3-0.7c0-0.3,0-0.6-0.1-1c-0.1-0.4-0.2-0.7-0.4-0.9c-0.2-0.2-0.4-0.4-0.6-0.5c-0.2-0.1-0.5-0.1-0.8,0
	c-0.5,0.1-0.8,0.4-0.9,0.8C83.6,40.3,83.7,40.8,83.8,41.3z"/>
<path class="st1" d="M78.6,45.4L75,40.5l0,0c0,0.1,0.1,0.3,0.2,0.5c0.1,0.2,0.1,0.4,0.2,0.6c0.1,0.2,0.1,0.4,0.2,0.6l1.1,3.8
	l-0.8,0.2L74,39.9l1.3-0.4l3.4,4.6l0,0l0.4-5.7l1.3-0.4l1.9,6.4l-0.9,0.2l-1.1-3.8c-0.1-0.2-0.1-0.4-0.2-0.6
	C80.1,40,80,39.8,80,39.6c0-0.2-0.1-0.4-0.1-0.5l0,0l-0.4,6.1L78.6,45.4z"/>
<path class="st1" d="M121.1,7.1c0,0.7,0,1.4-0.1,1.9c-0.1,0.6-0.3,1-0.5,1.4c-0.2,0.4-0.6,0.7-0.9,0.9c-0.4,0.2-0.9,0.3-1.4,0.3
	c-0.7,0-1.3-0.2-1.8-0.5c-0.5-0.4-0.8-0.9-1-1.5c-0.2-0.7-0.3-1.5-0.4-2.4c0-1,0.1-1.8,0.3-2.5c0.2-0.7,0.5-1.2,1-1.6
	c0.4-0.4,1.1-0.6,1.8-0.6c0.7,0,1.3,0.2,1.8,0.5c0.5,0.4,0.8,0.9,1,1.5C121,5.3,121.1,6.2,121.1,7.1z M116.8,7.2
	c0,0.7,0.1,1.2,0.1,1.7c0.1,0.4,0.2,0.8,0.4,1c0.2,0.2,0.4,0.3,0.7,0.3c0.3,0,0.6-0.1,0.7-0.3c0.2-0.2,0.3-0.6,0.4-1
	c0.1-0.5,0.1-1,0.1-1.7c0-0.7-0.1-1.2-0.1-1.7c-0.1-0.5-0.2-0.8-0.4-1c-0.2-0.2-0.4-0.3-0.7-0.3c-0.3,0-0.6,0.1-0.7,0.4
	c-0.2,0.2-0.3,0.6-0.4,1C116.8,5.9,116.7,6.5,116.8,7.2z"/>
<path class="st1" d="M114,7.2c0,0.7,0,1.4-0.1,1.9c-0.1,0.6-0.3,1-0.5,1.4c-0.2,0.4-0.6,0.7-0.9,0.9c-0.4,0.2-0.9,0.3-1.4,0.3
	c-0.7,0-1.3-0.2-1.8-0.5c-0.5-0.4-0.8-0.9-1-1.5c-0.2-0.7-0.3-1.5-0.4-2.4c0-1,0.1-1.8,0.3-2.5c0.2-0.7,0.5-1.2,1-1.6
	c0.4-0.4,1.1-0.6,1.8-0.6c0.7,0,1.3,0.2,1.8,0.5c0.5,0.4,0.8,0.9,1,1.5C113.8,5.4,114,6.2,114,7.2z M109.6,7.3
	c0,0.7,0.1,1.2,0.1,1.7c0.1,0.4,0.2,0.8,0.4,1c0.2,0.2,0.4,0.3,0.7,0.3c0.3,0,0.6-0.1,0.7-0.3c0.2-0.2,0.3-0.6,0.4-1
	c0.1-0.5,0.1-1,0.1-1.7c0-0.7-0.1-1.2-0.1-1.7c-0.1-0.5-0.2-0.8-0.4-1c-0.2-0.2-0.4-0.3-0.7-0.3c-0.3,0-0.6,0.1-0.7,0.4
	c-0.2,0.2-0.3,0.6-0.4,1C109.7,6,109.6,6.6,109.6,7.3z"/>
<path class="st1" d="M107,11.7l-6.2,0.1l0-1.3l2.2-2.3c0.4-0.5,0.8-0.9,1.1-1.2c0.3-0.3,0.5-0.6,0.6-0.9c0.1-0.3,0.2-0.5,0.2-0.8
	c0-0.4-0.1-0.6-0.3-0.8c-0.2-0.2-0.5-0.3-0.8-0.3c-0.3,0-0.7,0.1-1,0.2c-0.3,0.2-0.7,0.4-1,0.7l-1-1.2c0.3-0.2,0.5-0.4,0.8-0.6
	c0.3-0.2,0.6-0.4,1-0.5c0.4-0.1,0.8-0.2,1.4-0.2c0.6,0,1.1,0.1,1.5,0.3c0.4,0.2,0.8,0.5,1,0.8c0.2,0.4,0.3,0.8,0.4,1.2
	c0,0.5-0.1,0.9-0.3,1.3c-0.2,0.4-0.5,0.8-0.8,1.2c-0.4,0.4-0.8,0.8-1.3,1.3l-1.1,1.1l0,0.1l3.9,0L107,11.7z"/>
<linearGradient id="SVGID_00000130645328515489021730000004307051049581280694_" gradientUnits="userSpaceOnUse" x1="37.3288" y1="73.9525" x2="66.7764" y2="32.9819" gradientTransform="matrix(1 0 0 -1 0 121.3957)">
	<stop  offset="0" style="stop-color:#BCCC4F"/>
	<stop  offset="1" style="stop-color:#5E6628"/>
</linearGradient>
<path style="fill:url(#SVGID_00000130645328515489021730000004307051049581280694_);" d="M59.8,91.6c5.1-8.3,14.2-16.2,22.6-21.2
	L70.3,49.8l-10-17.1c-1.2-2-3.7-2.6-5.6-1.4c-13.4,8.4-26.6,20.4-35.4,33.4c-1.3,1.9-0.6,4.5,1.4,5.6L38,80.2l21.1,12.4L59.8,91.6z"
	/>
<path class="st1" d="M57.7,64l0.7-0.7l2.9,1.2c0.1,0.1,0.3,0.1,0.4,0.2c0.1,0.1,0.3,0.1,0.4,0.2c0.1,0.1,0.2,0.1,0.3,0.2l0,0
	c-0.1-0.1-0.2-0.3-0.3-0.5c-0.1-0.2-0.2-0.4-0.3-0.6l-1.4-2.7l0.7-0.7l2.7,5.5c0.2,0.3,0.3,0.6,0.3,0.9c0.1,0.3,0,0.5,0,0.8
	c-0.1,0.3-0.2,0.5-0.4,0.7c-0.1,0.1-0.2,0.2-0.3,0.3c-0.1,0.1-0.2,0.1-0.2,0.2l-0.5-0.5c0.1,0,0.1-0.1,0.2-0.1
	c0.1-0.1,0.1-0.1,0.2-0.2c0.1-0.1,0.2-0.3,0.3-0.4c0-0.2,0-0.3,0-0.5c0-0.2-0.1-0.3-0.2-0.5l-0.3-0.6L57.7,64z"/>
<path class="st1" d="M57.1,64.5c0.1-0.1,0.1-0.1,0.2-0.2c0.1-0.1,0.2-0.1,0.2-0.2l0.6,0.6c-0.1,0-0.1,0.1-0.2,0.2
	c-0.1,0.1-0.1,0.1-0.2,0.2c-0.1,0.1-0.2,0.3-0.3,0.5c-0.1,0.2-0.1,0.4-0.1,0.6c0,0.2,0.1,0.4,0.2,0.6c0.1,0.2,0.2,0.4,0.4,0.5
	l1.9,1.8l-0.6,0.7l-3.7-3.4l0.5-0.5l0.7,0.5l0,0c-0.1-0.2-0.1-0.4-0.1-0.6c0-0.2,0-0.4,0.1-0.6C56.8,64.8,56.9,64.6,57.1,64.5z"/>
<path class="st1" d="M56.5,68.9c0.3,0.3,0.5,0.6,0.7,0.9c0.2,0.3,0.3,0.6,0.3,0.9c0,0.3,0,0.6-0.1,0.9c-0.1,0.3-0.3,0.6-0.5,0.8
	c-0.2,0.2-0.5,0.4-0.8,0.6c-0.3,0.1-0.6,0.2-0.9,0.2c-0.3,0-0.6-0.1-0.9-0.2c-0.3-0.1-0.6-0.3-0.9-0.6c-0.4-0.4-0.7-0.8-0.8-1.2
	c-0.2-0.4-0.2-0.8-0.1-1.2c0.1-0.4,0.3-0.8,0.6-1.1c0.3-0.3,0.7-0.6,1.1-0.7c0.4-0.1,0.8-0.1,1.2,0C55.7,68.3,56.1,68.5,56.5,68.9z
	 M53.9,71.6c0.3,0.3,0.6,0.5,0.8,0.6c0.3,0.1,0.5,0.1,0.8,0.1c0.3,0,0.5-0.2,0.7-0.4c0.2-0.2,0.3-0.5,0.4-0.7c0-0.3,0-0.5-0.2-0.8
	c-0.1-0.3-0.3-0.5-0.6-0.8c-0.3-0.3-0.6-0.4-0.8-0.6c-0.3-0.1-0.5-0.1-0.8-0.1c-0.2,0-0.5,0.2-0.7,0.4c-0.3,0.3-0.5,0.7-0.4,1.1
	C53.2,70.8,53.5,71.2,53.9,71.6z"/>
<path class="st1" d="M53.6,74.6c0.1-0.1,0.2-0.2,0.2-0.3c0.1-0.1,0.1-0.2,0.2-0.3l0.5,0.5c0,0.1-0.1,0.2-0.2,0.4
	c-0.1,0.1-0.2,0.3-0.3,0.4c-0.2,0.2-0.4,0.3-0.6,0.4c-0.2,0.1-0.5,0.1-0.7,0.1c-0.3-0.1-0.5-0.2-0.8-0.5l-2.1-1.9l-0.5,0.5L49,73.6
	l0.3-0.8l-0.6-1l0.4-0.4l0.8,0.8l1-1.1l0.5,0.5l-1,1.1l2.1,1.9c0.2,0.2,0.4,0.3,0.6,0.3C53.3,74.9,53.5,74.8,53.6,74.6z"/>
<path class="st1" d="M61.2,52.1c-0.3,0.3-0.7,0.6-1,0.7c-0.4,0.1-0.8,0.1-1.2,0c-0.4-0.1-0.8-0.4-1.3-0.8c-0.4-0.4-0.7-0.8-0.9-1.2
	c-0.1-0.4-0.2-0.8-0.1-1.2c0.1-0.4,0.3-0.7,0.6-1.1c0.2-0.2,0.4-0.4,0.6-0.5c0.2-0.1,0.4-0.2,0.6-0.3l0.4,0.7
	c-0.2,0.1-0.3,0.2-0.5,0.3c-0.2,0.1-0.3,0.2-0.4,0.4c-0.2,0.2-0.4,0.5-0.4,0.7c0,0.2,0,0.5,0.1,0.8c0.1,0.3,0.3,0.5,0.6,0.8
	c0.3,0.3,0.6,0.4,0.8,0.6c0.3,0.1,0.5,0.1,0.8,0.1c0.2-0.1,0.5-0.2,0.7-0.4c0.2-0.2,0.3-0.4,0.4-0.6c0.1-0.2,0.2-0.4,0.2-0.6
	l0.6,0.5c0,0.2-0.1,0.4-0.2,0.6C61.5,51.7,61.4,51.9,61.2,52.1z"/>
<path class="st1" d="M53.6,52.5c0.4-0.4,0.8-0.7,1.3-0.7c0.4,0,0.8,0.1,1.3,0.5l2.5,2.3l-0.4,0.5l-0.7-0.4l0,0c0,0.2,0,0.4,0,0.6
	c0,0.2-0.1,0.4-0.2,0.6c-0.1,0.2-0.2,0.4-0.4,0.6c-0.2,0.2-0.4,0.4-0.7,0.5c-0.2,0.1-0.5,0.1-0.7,0.1c-0.3-0.1-0.5-0.2-0.8-0.4
	c-0.4-0.3-0.5-0.7-0.4-1.2c0.1-0.5,0.4-1,0.9-1.6l0.6-0.7L55.6,53c-0.3-0.3-0.6-0.4-0.8-0.4c-0.2,0-0.5,0.1-0.7,0.4
	c-0.2,0.2-0.3,0.4-0.4,0.6c-0.1,0.2-0.2,0.4-0.3,0.7l-0.7-0.2c0.1-0.3,0.2-0.5,0.3-0.8C53.2,53,53.4,52.7,53.6,52.5z M56.2,53.6
	l-0.5,0.5c-0.4,0.4-0.6,0.8-0.6,1.1c0,0.3,0.1,0.5,0.3,0.7c0.2,0.2,0.4,0.3,0.6,0.2c0.2,0,0.4-0.1,0.6-0.3c0.3-0.3,0.4-0.6,0.4-1
	c0-0.3-0.1-0.7-0.5-1L56.2,53.6z"/>
<path class="st1" d="M52.3,55.1L51.5,56l3.2,2.9L54,59.6l-3.2-2.9l-0.6,0.6L49.9,57l0.4-0.8L50,55.9c-0.3-0.3-0.5-0.6-0.6-0.8
	c-0.1-0.3-0.1-0.5,0-0.8c0.1-0.3,0.2-0.5,0.5-0.8c0.1-0.2,0.3-0.3,0.4-0.4c0.1-0.1,0.3-0.2,0.4-0.2l0.4,0.6
	c-0.1,0.1-0.2,0.1-0.3,0.2c-0.1,0.1-0.2,0.2-0.3,0.3c-0.2,0.2-0.3,0.4-0.2,0.6c0,0.2,0.2,0.4,0.4,0.7l0.3,0.2l0.8-0.9L52.3,55.1z"/>
<path class="st1" d="M52,59.6c0.2,0.2,0.4,0.5,0.4,0.7c0.1,0.3,0,0.5-0.1,0.8c-0.1,0.3-0.3,0.6-0.6,0.9c-0.2,0.3-0.5,0.5-0.7,0.6
	c-0.2,0.2-0.4,0.3-0.6,0.3l-0.6-0.5c0.2-0.1,0.5-0.2,0.7-0.4c0.3-0.2,0.5-0.3,0.7-0.5c0.3-0.3,0.4-0.5,0.4-0.7c0-0.2,0-0.4-0.2-0.5
	c-0.1-0.1-0.2-0.1-0.3-0.1c-0.1,0-0.3,0-0.5,0.1c-0.2,0.1-0.4,0.2-0.8,0.3c-0.3,0.1-0.6,0.3-0.8,0.3C48.8,61,48.6,61,48.4,61
	c-0.2,0-0.4-0.1-0.6-0.3c-0.3-0.3-0.4-0.6-0.4-1c0.1-0.4,0.3-0.8,0.7-1.2c0.2-0.2,0.4-0.4,0.7-0.6c0.2-0.2,0.5-0.3,0.7-0.4l0.3,0.7
	c-0.2,0.1-0.4,0.2-0.6,0.3c-0.2,0.1-0.4,0.3-0.6,0.4c-0.2,0.2-0.3,0.4-0.4,0.6c0,0.2,0,0.3,0.1,0.5c0.1,0.1,0.2,0.1,0.3,0.1
	c0.1,0,0.3,0,0.5-0.1c0.2-0.1,0.4-0.2,0.7-0.3c0.3-0.1,0.6-0.3,0.8-0.3c0.2-0.1,0.5-0.1,0.7-0.1C51.6,59.3,51.8,59.5,52,59.6z"/>
<path class="st1" d="M46,60.7l3.7,3.4l-0.6,0.7l-3.7-3.4L46,60.7z M44.3,59.8c0.1-0.1,0.2-0.2,0.3-0.2c0.1,0,0.3,0,0.4,0.2
	c0.1,0.1,0.2,0.3,0.2,0.4c0,0.1-0.1,0.3-0.2,0.4c-0.1,0.1-0.2,0.2-0.4,0.2c-0.1,0-0.3,0-0.4-0.2c-0.1-0.1-0.2-0.3-0.2-0.4
	C44.1,60,44.2,59.9,44.3,59.8z"/>
<path class="st1" d="M47.4,65.6c0.1-0.1,0.2-0.2,0.2-0.3c0.1-0.1,0.1-0.2,0.2-0.3l0.5,0.5c0,0.1-0.1,0.2-0.2,0.4
	c-0.1,0.1-0.2,0.3-0.3,0.4c-0.2,0.2-0.4,0.3-0.6,0.4c-0.2,0.1-0.5,0.1-0.7,0.1c-0.3-0.1-0.5-0.2-0.8-0.5l-2.1-1.9l-0.5,0.5l-0.3-0.3
	l0.3-0.8l-0.6-1l0.4-0.4l0.8,0.8l1-1.1l0.5,0.5l-1,1.1l2.1,1.9c0.2,0.2,0.4,0.3,0.6,0.3C47,65.9,47.2,65.8,47.4,65.6z"/>
<path class="st1" d="M40.6,66.3c0.4-0.4,0.8-0.7,1.3-0.7c0.4,0,0.8,0.1,1.3,0.5l2.5,2.3l-0.4,0.5l-0.7-0.4l0,0c0,0.2,0,0.4,0,0.6
	c0,0.2-0.1,0.4-0.2,0.6c-0.1,0.2-0.2,0.4-0.4,0.6c-0.2,0.2-0.4,0.4-0.7,0.5c-0.2,0.1-0.5,0.1-0.7,0.1c-0.3-0.1-0.5-0.2-0.8-0.4
	c-0.4-0.3-0.5-0.7-0.4-1.2c0.1-0.5,0.4-1,0.9-1.6l0.6-0.7l-0.2-0.2c-0.3-0.3-0.6-0.4-0.8-0.4c-0.2,0-0.5,0.1-0.7,0.4
	c-0.2,0.2-0.3,0.4-0.4,0.6c-0.1,0.2-0.2,0.4-0.3,0.7l-0.7-0.2c0.1-0.3,0.2-0.5,0.3-0.8C40.2,66.8,40.4,66.6,40.6,66.3z M43.2,67.5
	L42.7,68c-0.4,0.4-0.6,0.8-0.6,1.1c0,0.3,0.1,0.5,0.3,0.7c0.2,0.2,0.4,0.3,0.6,0.2c0.2,0,0.4-0.1,0.6-0.3c0.3-0.3,0.4-0.6,0.4-1
	c0-0.3-0.1-0.7-0.5-1L43.2,67.5z"/>
<path class="st1" d="M40.9,70.8c0.3,0.3,0.5,0.6,0.5,0.9c0.1,0.3,0,0.7-0.1,1c-0.1,0.4-0.4,0.7-0.7,1.1c-0.2,0.2-0.3,0.3-0.5,0.5
	c-0.2,0.1-0.3,0.3-0.5,0.4c-0.2,0.1-0.3,0.2-0.5,0.3l-0.6-0.6c0.2-0.1,0.5-0.3,0.8-0.4c0.3-0.2,0.6-0.4,0.8-0.7
	c0.2-0.2,0.4-0.4,0.4-0.6c0.1-0.2,0.1-0.4,0.1-0.6c0-0.2-0.1-0.3-0.3-0.5c-0.2-0.1-0.3-0.2-0.5-0.2c-0.2,0-0.4,0-0.6,0.1
	c-0.2,0.1-0.5,0.2-0.9,0.4c-0.2,0.1-0.5,0.2-0.7,0.3c-0.2,0.1-0.5,0.1-0.7,0.1c-0.2,0-0.4,0-0.6-0.1c-0.2-0.1-0.4-0.2-0.6-0.4
	c-0.3-0.2-0.4-0.5-0.5-0.8c-0.1-0.3,0-0.6,0.1-1c0.1-0.3,0.3-0.7,0.6-1c0.2-0.3,0.5-0.5,0.8-0.6c0.3-0.2,0.5-0.3,0.8-0.4l0.4,0.7
	c-0.3,0.1-0.5,0.2-0.7,0.4c-0.2,0.1-0.4,0.3-0.6,0.5c-0.2,0.2-0.3,0.4-0.4,0.6c-0.1,0.2-0.1,0.4,0,0.5c0,0.2,0.1,0.3,0.3,0.4
	c0.2,0.1,0.3,0.2,0.5,0.3c0.2,0,0.4,0,0.6-0.1c0.2-0.1,0.5-0.2,0.8-0.3c0.4-0.2,0.7-0.3,1-0.4c0.3-0.1,0.6-0.1,0.9,0
	C40.4,70.5,40.6,70.6,40.9,70.8z"/>
<path class="st1" d="M62,17.4c0.4,0.6,0.6,1.2,0.8,1.7c0.2,0.5,0.3,1,0.3,1.5c0,0.5-0.1,0.9-0.4,1.3c-0.2,0.4-0.6,0.7-1.1,1
	c-0.6,0.4-1.2,0.5-1.8,0.4c-0.6-0.1-1.1-0.4-1.7-0.8c-0.5-0.5-1-1.1-1.5-1.9c-0.5-0.8-0.8-1.6-1-2.3c-0.2-0.7-0.1-1.3,0.1-1.8
	c0.2-0.5,0.6-1,1.3-1.4c0.6-0.4,1.2-0.5,1.8-0.4c0.6,0.1,1.1,0.4,1.7,0.8C61,16,61.5,16.6,62,17.4z M58.3,19.6
	c0.3,0.6,0.7,1,0.9,1.4c0.3,0.3,0.6,0.6,0.8,0.7c0.3,0.1,0.5,0.1,0.8-0.1c0.3-0.2,0.4-0.4,0.5-0.7c0-0.3,0-0.6-0.2-1.1
	c-0.2-0.4-0.4-0.9-0.8-1.5c-0.3-0.6-0.7-1-1-1.4c-0.3-0.4-0.6-0.6-0.8-0.7c-0.3-0.1-0.5-0.1-0.8,0.1c-0.3,0.2-0.4,0.4-0.5,0.7
	c0,0.3,0,0.6,0.2,1.1C57.7,18.5,57.9,19,58.3,19.6z"/>
<path class="st1" d="M55.9,21c0.4,0.6,0.6,1.2,0.8,1.7c0.2,0.5,0.3,1,0.3,1.5c0,0.5-0.1,0.9-0.4,1.3c-0.2,0.4-0.6,0.7-1.1,1
	c-0.6,0.4-1.2,0.5-1.8,0.4c-0.6-0.1-1.1-0.4-1.7-0.8c-0.5-0.5-1-1.1-1.5-1.9c-0.5-0.8-0.8-1.6-1-2.3c-0.2-0.7-0.1-1.3,0.1-1.8
	c0.2-0.5,0.6-1,1.3-1.4c0.6-0.4,1.2-0.5,1.8-0.4c0.6,0.1,1.1,0.4,1.7,0.8C54.9,19.5,55.4,20.2,55.9,21z M52.1,23.2
	c0.3,0.6,0.7,1,0.9,1.4c0.3,0.3,0.6,0.6,0.8,0.7c0.3,0.1,0.5,0.1,0.8-0.1c0.3-0.2,0.4-0.4,0.5-0.7c0-0.3,0-0.6-0.2-1.1
	c-0.2-0.4-0.4-0.9-0.8-1.5c-0.3-0.6-0.7-1-1-1.4c-0.3-0.4-0.6-0.6-0.8-0.7c-0.3-0.1-0.5-0.1-0.8,0.1c-0.3,0.2-0.4,0.4-0.5,0.7
	c0,0.3,0,0.6,0.2,1.1C51.5,22.1,51.8,22.6,52.1,23.2z"/>
<path class="st1" d="M50.6,29.2L49,30.1l-2.6-4.4c-0.1-0.1-0.2-0.3-0.3-0.5c-0.1-0.2-0.2-0.4-0.3-0.6c-0.1-0.2-0.2-0.4-0.3-0.5
	c0,0.1,0,0.2-0.1,0.4c-0.1,0.2-0.1,0.3-0.2,0.5l-0.5,1.2l-1.4-0.5l1.3-3.4l1.3-0.8L50.6,29.2z"/>
<linearGradient id="SVGID_00000142142750276205249030000011228595781160995482_" gradientUnits="userSpaceOnUse" x1="9.5883" y1="28.1167" x2="50.0002" y2="8.2317" gradientTransform="matrix(1 0 0 -1 0 121.3957)">
	<stop  offset="0" style="stop-color:#6BCE59"/>
	<stop  offset="1" style="stop-color:#36682D"/>
</linearGradient>
<path style="fill:url(#SVGID_00000142142750276205249030000011228595781160995482_);" d="M50.8,120.4c0.2-10.1,4.1-20.5,8.8-28.7
	l-22-12.2L20.2,69.4c-2-1.2-4.5-0.5-5.6,1.6c-7,13.4-11.3,29.3-12.1,45.2c-0.1,2.3,1.8,4.2,4.1,4.2h20H50.8z"/>
<path class="st1" d="M34.4,93.2c-0.2,0.6-0.5,1-1,1.2c-0.5,0.2-1.2,0.2-2,0c-0.8-0.2-1.4-0.6-1.7-1.1c-0.3-0.5-0.4-1-0.2-1.6
	c0.1-0.2,0.2-0.5,0.3-0.6c0.1-0.2,0.3-0.3,0.4-0.4c0.1-0.1,0.3-0.2,0.5-0.2l0-0.1c-0.1,0-0.2,0-0.4-0.1c-0.2,0-0.3-0.1-0.4-0.1
	l-1.8-0.5l0.2-0.9l6.8,1.9l-0.2,0.7l-0.7,0l0,0c0.1,0.1,0.2,0.3,0.3,0.4c0.1,0.2,0.1,0.4,0.1,0.6C34.5,92.7,34.5,93,34.4,93.2z
	 M33.8,92.8c0.1-0.5,0.1-0.8-0.1-1.1c-0.2-0.3-0.6-0.5-1.1-0.6l-0.1,0c-0.6-0.2-1-0.2-1.4-0.1c-0.4,0.1-0.6,0.4-0.8,0.9
	c-0.1,0.4,0,0.8,0.2,1.1c0.3,0.3,0.7,0.5,1.2,0.7c0.6,0.2,1,0.2,1.4,0C33.4,93.5,33.6,93.2,33.8,92.8z"/>
<path class="st1" d="M31.1,95.4c0.4,0.1,0.7,0.3,1,0.5c0.3,0.2,0.5,0.4,0.7,0.7c0.2,0.3,0.3,0.5,0.3,0.8c0,0.3,0,0.6-0.1,1
	c-0.1,0.3-0.2,0.6-0.4,0.9c-0.2,0.2-0.4,0.4-0.7,0.6c-0.3,0.1-0.6,0.2-0.9,0.2c-0.3,0-0.7,0-1.1-0.1c-0.5-0.1-1-0.4-1.3-0.6
	c-0.3-0.3-0.5-0.6-0.6-1c-0.1-0.4-0.1-0.8,0-1.3c0.1-0.4,0.3-0.8,0.6-1.1c0.3-0.3,0.6-0.5,1.1-0.5C30.1,95.2,30.6,95.3,31.1,95.4z
	 M30.1,99c0.4,0.1,0.7,0.1,1,0.1c0.3,0,0.5-0.1,0.7-0.3c0.2-0.2,0.3-0.4,0.4-0.7c0.1-0.3,0.1-0.6,0-0.8c-0.1-0.2-0.3-0.4-0.5-0.6
	c-0.2-0.2-0.6-0.3-0.9-0.4c-0.4-0.1-0.7-0.1-1-0.1c-0.3,0-0.5,0.1-0.7,0.3c-0.2,0.2-0.3,0.4-0.4,0.7c-0.1,0.5-0.1,0.8,0.2,1.1
	C29.1,98.6,29.5,98.8,30.1,99z"/>
<path class="st1" d="M29.6,100.8c0.4,0.1,0.7,0.3,1,0.5c0.3,0.2,0.5,0.4,0.7,0.7c0.2,0.3,0.3,0.5,0.3,0.8c0,0.3,0,0.6-0.1,1
	c-0.1,0.3-0.2,0.6-0.4,0.9c-0.2,0.2-0.4,0.4-0.7,0.6c-0.3,0.1-0.6,0.2-0.9,0.2c-0.3,0-0.7,0-1.1-0.1c-0.5-0.1-1-0.4-1.3-0.6
	c-0.3-0.3-0.5-0.6-0.6-1c-0.1-0.4-0.1-0.8,0-1.3c0.1-0.4,0.3-0.8,0.6-1.1c0.3-0.3,0.6-0.5,1.1-0.5S29,100.7,29.6,100.8z M28.5,104.4
	c0.4,0.1,0.7,0.1,1,0.1c0.3,0,0.5-0.1,0.7-0.3c0.2-0.2,0.3-0.4,0.4-0.7c0.1-0.3,0.1-0.6,0-0.8c-0.1-0.2-0.3-0.4-0.5-0.6
	c-0.2-0.2-0.6-0.3-0.9-0.4c-0.4-0.1-0.7-0.1-1-0.1c-0.3,0-0.5,0.1-0.7,0.3c-0.2,0.2-0.3,0.4-0.4,0.7c-0.1,0.5-0.1,0.8,0.2,1.1
	C27.6,104,28,104.3,28.5,104.4z"/>
<path class="st1" d="M26.3,108.5l0.7-2.3l3.2,0.9c0,0.4,0,0.7,0,1.1c0,0.4-0.1,0.8-0.2,1.2c-0.2,0.7-0.5,1.2-0.9,1.6
	c-0.4,0.4-0.9,0.6-1.4,0.7c-0.6,0.1-1.2,0.1-1.9-0.1c-0.7-0.2-1.2-0.5-1.6-0.9c-0.4-0.4-0.7-0.9-0.8-1.4c-0.1-0.6-0.1-1.2,0.1-1.9
	c0.1-0.3,0.2-0.7,0.4-1c0.2-0.3,0.3-0.6,0.5-0.8l0.7,0.5c-0.2,0.2-0.3,0.4-0.5,0.7c-0.2,0.3-0.3,0.5-0.3,0.8c-0.1,0.5-0.2,0.9,0,1.3
	c0.1,0.4,0.3,0.8,0.7,1.1c0.3,0.3,0.7,0.5,1.3,0.7c0.5,0.1,1,0.2,1.4,0.1c0.4-0.1,0.8-0.2,1.1-0.5c0.3-0.3,0.5-0.7,0.7-1.2
	c0.1-0.3,0.1-0.5,0.1-0.7c0-0.2,0-0.4,0-0.5l-1.8-0.5l-0.4,1.4L26.3,108.5z"/>
<path class="st1" d="M12.5,57.1c0.6,0.4,1.2,0.7,1.6,1.1c0.4,0.4,0.8,0.8,1,1.2c0.2,0.4,0.3,0.8,0.3,1.3c0,0.4-0.2,0.9-0.4,1.4
	c-0.4,0.6-0.8,1-1.3,1.3c-0.5,0.2-1.2,0.3-1.9,0.1c-0.7-0.1-1.5-0.5-2.3-0.9c-0.8-0.5-1.5-1-2-1.5c-0.5-0.5-0.8-1.1-0.9-1.6
	c-0.1-0.6,0-1.2,0.4-1.8c0.3-0.6,0.8-1,1.3-1.2c0.5-0.2,1.2-0.3,1.9-0.1C10.9,56.3,11.6,56.6,12.5,57.1z M10.3,60.9
	c0.6,0.3,1.1,0.6,1.5,0.7c0.4,0.2,0.8,0.2,1.1,0.2c0.3,0,0.5-0.2,0.7-0.5c0.2-0.3,0.2-0.5,0.1-0.8c-0.1-0.3-0.3-0.5-0.7-0.8
	c-0.4-0.3-0.8-0.6-1.4-0.9C11,58.4,10.5,58.2,10,58c-0.4-0.2-0.8-0.2-1.1-0.2c-0.3,0-0.5,0.2-0.7,0.5c-0.2,0.3-0.2,0.5-0.1,0.8
	c0.1,0.3,0.3,0.5,0.7,0.8C9.3,60.2,9.8,60.6,10.3,60.9z"/>
<path class="st1" d="M6.5,65.2c0.3-0.5,0.6-0.8,1-1.1c0.4-0.3,0.8-0.4,1.3-0.4c0.5,0,1,0.1,1.5,0.4c0.6,0.3,1,0.7,1.2,1.2
	c0.3,0.5,0.4,1,0.3,1.5c0,0.6-0.3,1.2-0.6,1.9c-0.2,0.4-0.5,0.8-0.8,1.1c-0.3,0.3-0.5,0.6-0.8,0.8l-1.4-0.8c0.3-0.2,0.6-0.4,0.9-0.8
	c0.3-0.3,0.6-0.6,0.7-1c0.2-0.3,0.3-0.6,0.3-0.9c0-0.3,0-0.5-0.1-0.7c-0.1-0.2-0.3-0.4-0.6-0.6c-0.4-0.2-0.7-0.2-1.1-0.1
	c-0.3,0.1-0.7,0.5-1,1c-0.1,0.2-0.2,0.4-0.3,0.7C7,67.6,6.9,67.8,6.9,68l-0.7,0.5l-3.8-2.5l2.4-4.2l1.4,0.8l-1.6,2.7l1.4,1
	c0-0.1,0.1-0.3,0.1-0.4C6.2,65.7,6.3,65.5,6.5,65.2z"/>
</svg>
