<?xml version="1.0" encoding="utf-8"?>
<!-- Generator: Adobe Illustrator 27.6.1, SVG Export Plug-In . SVG Version: 6.00 Build 0)  -->
<svg version="1.1" id="Layer_1" xmlns="http://www.w3.org/2000/svg" xmlns:xlink="http://www.w3.org/1999/xlink" x="0px" y="0px"
	 viewBox="0 0 248 125" style="enable-background:new 0 0 248 125;" xml:space="preserve">
<style type="text/css">
	.st0{fill:url(#SVGID_1_);}
	.st1{fill:url(#SVGID_00000122703483372820977350000005112622716354182794_);}
	.st2{fill:url(#SVGID_00000101805885383652955820000015456704175691187617_);}
	.st3{fill:url(#SVGID_00000121962152590888332380000016566713488769317010_);}
	.st4{fill:url(#SVGID_00000066491971918800821020000010577260191307266713_);}
	.st5{fill:url(#SVGID_00000002357618400452027430000010513383202083825552_);}
	.st6{fill:#FFFFFF;}
</style>
<linearGradient id="SVGID_1_" gradientUnits="userSpaceOnUse" x1="202.474" y1="78.6553" x2="171.974" y2="43.1552" gradientTransform="matrix(1 0 0 -1 0 126)">
	<stop  offset="0.3907" style="stop-color:#FF0000"/>
	<stop  offset="1" style="stop-color:#990000"/>
</linearGradient>
<path class="st0" d="M177.5,95l21.4-12.2l17.7-10.1c2.1-1.2,2.8-3.8,1.5-5.8c-8.8-13.4-21.1-25.6-34.6-34.2
	c-1.9-1.2-4.5-0.6-5.7,1.3l-1.3,2.1l-9,15.5l-12,21.5c8.6,5.1,16.3,12.5,21.5,21L177.5,95z"/>
<linearGradient id="SVGID_00000167368896854210936630000001055551788556741286_" gradientUnits="userSpaceOnUse" x1="96.1795" y1="109.6745" x2="109.0594" y2="52.6745" gradientTransform="matrix(1 0 0 -1 0 126)">
	<stop  offset="0.249" style="stop-color:#E4C73B"/>
	<stop  offset="1" style="stop-color:#7E6E21"/>
</linearGradient>
<path style="fill:url(#SVGID_00000167368896854210936630000001055551788556741286_);" d="M94,73c8.6-4.7,21.5-7.9,32-8.1
	c0,0,0-14.9,0-24.5c0-6.3,0-15.1,0-20.2c0-2.4-1.9-4.3-4.3-4.2c-16.7,0.8-34.5,5.4-48.7,12.5c-2.1,1.1-2.8,3.7-1.6,5.7l10.2,17.5
	L94,73z"/>
<linearGradient id="SVGID_00000133516175443420204410000004341901736143535749_" gradientUnits="userSpaceOnUse" x1="154.1286" y1="107.1899" x2="140.1286" y2="56.1899" gradientTransform="matrix(1 0 0 -1 0 126)">
	<stop  offset="0.5613" style="stop-color:#FC8801"/>
	<stop  offset="1" style="stop-color:#965101"/>
</linearGradient>
<path style="fill:url(#SVGID_00000133516175443420204410000004341901736143535749_);" d="M126,65c10.5,0.2,20.9,3.3,29.5,8L168,51.5
	l9.9-17.8c1.1-2,0.4-4.6-1.7-5.7c-13.8-7.1-29.6-11.6-46-12.4c-2.4-0.1-4.3,1.8-4.3,4.2V40V65z"/>
<linearGradient id="SVGID_00000179617777405992322090000014796671700368364164_" gradientUnits="userSpaceOnUse" x1="46.205" y1="79.0787" x2="80.205" y2="41.0787" gradientTransform="matrix(1 0 0 -1 0 126)">
	<stop  offset="0.353" style="stop-color:#33CE19"/>
	<stop  offset="1" style="stop-color:#1A680D"/>
</linearGradient>
<path style="fill:url(#SVGID_00000179617777405992322090000014796671700368364164_);" d="M71.7,94.4c5.2-8.5,14.5-16.6,23.2-21.7
	L82.5,51.5L72.3,34c-1.2-2-3.8-2.7-5.8-1.5c-13.7,8.7-27.2,21-36.2,34.3c-1.3,2-0.6,4.6,1.4,5.8l17.7,10.1L71,95.5L71.7,94.4z"/>
<linearGradient id="SVGID_00000011720172695726754620000006006387268799881640_" gradientUnits="userSpaceOnUse" x1="20.3163" y1="29.647" x2="61.3163" y2="12.647" gradientTransform="matrix(1 0 0 -1 0 126)">
	<stop  offset="0" style="stop-color:#59E789"/>
	<stop  offset="1" style="stop-color:#32814D"/>
</linearGradient>
<path style="fill:url(#SVGID_00000011720172695726754620000006006387268799881640_);" d="M62.5,124c0.2-10.3,4.2-21,9-29.5L49,82
	L31.2,71.6c-2-1.2-4.6-0.5-5.7,1.6c-7.1,13.8-11.5,30.1-12.3,46.5c-0.1,2.4,1.8,4.3,4.2,4.3h20.5H62.5z"/>
<linearGradient id="SVGID_00000134944056451712657970000000312035699885669815_" gradientUnits="userSpaceOnUse" x1="184.0309" y1="16.1644" x2="232.0309" y2="29.6644" gradientTransform="matrix(1 0 0 -1 0 126)">
	<stop  offset="0" style="stop-color:#7D0B1B"/>
	<stop  offset="1" style="stop-color:#7D0B1B"/>
</linearGradient>
<path style="fill:url(#SVGID_00000134944056451712657970000000312035699885669815_);" d="M177.5,95c4.8,8.5,8.1,19.3,8.2,29.6H231
	c2.4,0,4.3-1.9,4.2-4.3c-0.8-16.3-5.4-32.4-12.6-46.1c-1.1-2.1-3.7-2.8-5.7-1.6L198.5,83L177.5,95z"/>
<path class="st6" d="M53.3,90.2l-0.3,0.9l-7-1.9l0.3-0.9L53.3,90.2z"/>
<path class="st6" d="M47.1,93c0.2-0.6,0.4-1,0.8-1.3c0.4-0.2,0.8-0.3,1.4-0.1l3.4,0.9l-0.2,0.6l-0.8,0l0,0c0.1,0.2,0.3,0.4,0.3,0.6
	s0.1,0.4,0.1,0.6c0,0.2,0,0.5-0.1,0.7c-0.1,0.3-0.2,0.6-0.4,0.8c-0.2,0.2-0.4,0.3-0.6,0.4c-0.3,0.1-0.6,0.1-0.9,0
	c-0.5-0.1-0.8-0.4-1-0.9c-0.2-0.5-0.1-1.1,0.1-1.9l0.2-0.9l-0.3-0.1c-0.4-0.1-0.7-0.1-0.9,0c-0.2,0.1-0.4,0.3-0.4,0.7
	c-0.1,0.3-0.1,0.5-0.1,0.8c0,0.3,0,0.5,0.1,0.7L47,94.9c-0.1-0.3-0.1-0.6-0.1-0.9C46.9,93.7,47,93.4,47.1,93z M50,92.8l-0.2,0.7
	c-0.1,0.6-0.2,1-0.1,1.3c0.1,0.3,0.3,0.5,0.6,0.5c0.3,0.1,0.5,0,0.6-0.1c0.2-0.1,0.3-0.3,0.4-0.6c0.1-0.4,0.1-0.8-0.1-1.1
	c-0.2-0.3-0.5-0.5-0.9-0.7L50,92.8z"/>
<path class="st6" d="M45.6,98.1c0.2-0.6,0.4-0.9,0.8-1.1c0.4-0.2,0.9-0.2,1.5,0l3.3,0.9l-0.3,0.9l-3.1-0.9c-0.4-0.1-0.7-0.1-0.9,0
	c-0.2,0.1-0.4,0.3-0.5,0.6c-0.1,0.5-0.1,0.8,0.1,1.1c0.2,0.3,0.6,0.5,1.1,0.6l2.7,0.8l-0.3,0.9l-3.1-0.9c-0.3-0.1-0.5-0.1-0.7-0.1
	c-0.2,0-0.4,0.1-0.5,0.2c-0.1,0.1-0.2,0.3-0.3,0.5c-0.1,0.3-0.1,0.6,0,0.8c0.1,0.2,0.2,0.4,0.5,0.6c0.2,0.2,0.5,0.3,0.9,0.4l2.6,0.7
	l-0.3,0.9l-5-1.4l0.2-0.7l0.7,0.1l0,0c-0.1-0.1-0.3-0.3-0.3-0.5c-0.1-0.2-0.1-0.4-0.1-0.6c0-0.2,0-0.4,0.1-0.6
	c0.1-0.4,0.3-0.7,0.5-0.9c0.2-0.2,0.5-0.3,0.8-0.4l0-0.1c-0.2-0.2-0.4-0.5-0.4-0.8C45.5,98.8,45.5,98.4,45.6,98.1z"/>
<path class="st6" d="M43.7,105.1c0-0.1,0.1-0.2,0.1-0.3c0-0.1,0.1-0.2,0.1-0.3l0.8,0.3c0,0.1-0.1,0.1-0.1,0.2c0,0.1-0.1,0.2-0.1,0.3
	c-0.1,0.2-0.1,0.4,0,0.6c0,0.2,0.1,0.4,0.2,0.5c0.1,0.2,0.2,0.3,0.4,0.4c0.2,0.1,0.4,0.2,0.6,0.3l2.6,0.7l-0.3,0.9l-5-1.4l0.2-0.7
	l0.9,0.1l0,0c-0.2-0.2-0.3-0.3-0.4-0.5c-0.1-0.2-0.2-0.4-0.2-0.6C43.6,105.6,43.6,105.3,43.7,105.1z"/>
<path class="st6" d="M45.2,109.5c0.4,0.1,0.8,0.3,1.1,0.5c0.3,0.2,0.5,0.4,0.7,0.7c0.2,0.3,0.3,0.6,0.3,0.9c0,0.3,0,0.7-0.1,1
	c-0.1,0.3-0.2,0.6-0.4,0.9c-0.2,0.2-0.4,0.4-0.7,0.6c-0.3,0.1-0.6,0.2-0.9,0.2c-0.4,0-0.7,0-1.1-0.1c-0.5-0.2-1-0.4-1.3-0.7
	c-0.3-0.3-0.6-0.6-0.7-1c-0.1-0.4-0.1-0.8,0-1.3c0.1-0.5,0.3-0.8,0.6-1.1c0.3-0.3,0.7-0.5,1.1-0.6C44.2,109.3,44.7,109.3,45.2,109.5
	z M44.2,113.2c0.4,0.1,0.7,0.1,1,0.1c0.3,0,0.6-0.1,0.8-0.3c0.2-0.2,0.4-0.4,0.4-0.7c0.1-0.3,0.1-0.6,0-0.8
	c-0.1-0.2-0.3-0.5-0.5-0.6c-0.2-0.2-0.6-0.3-0.9-0.4c-0.4-0.1-0.7-0.1-1-0.1c-0.3,0-0.5,0.1-0.8,0.3c-0.2,0.2-0.3,0.4-0.4,0.7
	c-0.1,0.5-0.1,0.9,0.2,1.2C43.2,112.8,43.6,113,44.2,113.2z"/>
<path class="st6" d="M40.5,116.4c0.2-0.6,0.4-1,0.8-1.2c0.4-0.2,0.9-0.3,1.5-0.1l3.2,0.9l-0.3,0.9l-3.1-0.9c-0.4-0.1-0.7-0.1-1,0
	c-0.3,0.1-0.4,0.4-0.5,0.7c-0.1,0.5-0.1,0.9,0.2,1.2c0.2,0.3,0.7,0.5,1.2,0.7l2.5,0.7l-0.3,0.9l-5-1.4l0.2-0.7l0.7,0.1l0,0
	c-0.1-0.2-0.3-0.3-0.3-0.5c-0.1-0.2-0.1-0.4-0.1-0.6C40.4,116.8,40.4,116.6,40.5,116.4z"/>
<path class="st6" d="M39.6,90.9l-2.8,0c-0.1,0-0.3,0-0.4,0c-0.2,0-0.3,0-0.5,0c-0.2,0-0.3,0-0.4,0c-0.1,0-0.2,0-0.3,0l0,0
	c0.1,0,0.2,0.1,0.3,0.1c0.1,0.1,0.2,0.1,0.4,0.2c0.1,0.1,0.3,0.1,0.4,0.2c0.1,0.1,0.3,0.1,0.4,0.2l2.4,1.5l-0.3,1l-5.4,0l0.3-0.9
	l2.8,0c0.2,0,0.4,0,0.6,0c0.2,0,0.4,0,0.6,0c0.2,0,0.3,0,0.4,0l0,0c-0.1,0-0.2-0.1-0.3-0.1c-0.1-0.1-0.2-0.1-0.3-0.2
	C37.2,93.1,37.1,93,37,93c-0.1-0.1-0.2-0.1-0.3-0.2l-2.5-1.6l0.3-1l3,0c0.1,0,0.3,0,0.5,0c0.2,0,0.3,0,0.5,0c0.2,0,0.3,0,0.4,0l0,0
	c-0.1,0-0.2-0.1-0.4-0.2c-0.2-0.1-0.3-0.2-0.5-0.3c-0.2-0.1-0.4-0.2-0.5-0.3L35,88.1l0.3-0.9l4.6,2.8L39.6,90.9z"/>
<path class="st6" d="M35.6,95.6c0.4,0.1,0.8,0.3,1.1,0.5c0.3,0.2,0.5,0.4,0.7,0.7c0.2,0.3,0.3,0.6,0.3,0.9c0,0.3,0,0.7-0.1,1
	c-0.1,0.3-0.2,0.6-0.4,0.9c-0.2,0.2-0.4,0.4-0.7,0.6c-0.3,0.1-0.6,0.2-0.9,0.2c-0.4,0-0.7,0-1.1-0.1c-0.5-0.2-1-0.4-1.3-0.7
	c-0.3-0.3-0.6-0.6-0.7-1c-0.1-0.4-0.1-0.8,0-1.3c0.1-0.5,0.3-0.8,0.6-1.1c0.3-0.3,0.7-0.5,1.1-0.6S35.1,95.4,35.6,95.6z M34.6,99.3
	c0.4,0.1,0.7,0.1,1,0.1c0.3,0,0.6-0.1,0.8-0.3c0.2-0.2,0.4-0.4,0.4-0.7c0.1-0.3,0.1-0.6,0-0.8c-0.1-0.2-0.3-0.5-0.5-0.6
	c-0.2-0.2-0.6-0.3-0.9-0.4c-0.4-0.1-0.7-0.1-1-0.1c-0.3,0-0.5,0.1-0.8,0.3c-0.2,0.2-0.3,0.4-0.4,0.7c-0.1,0.5-0.1,0.9,0.2,1.2
	C33.6,98.9,34,99.1,34.6,99.3z"/>
<path class="st6" d="M36.4,102.2l-0.3,0.9l-7-1.9l0.3-0.9L36.4,102.2z"/>
<path class="st6" d="M30.2,105c0.1-0.4,0.3-0.8,0.6-1c0.3-0.3,0.6-0.4,1-0.5c0.4-0.1,0.8,0,1.3,0.1l0.5,0.1l-0.9,3.4
	c0.5,0.1,1,0.1,1.3-0.1c0.4-0.2,0.6-0.5,0.7-1c0.1-0.3,0.1-0.6,0.1-0.9c0-0.3,0-0.5-0.1-0.8l0.8,0.2c0,0.3,0.1,0.6,0,0.8
	c0,0.3-0.1,0.6-0.2,0.9c-0.1,0.5-0.4,0.9-0.6,1.2c-0.3,0.3-0.7,0.5-1.1,0.6c-0.4,0.1-0.9,0.1-1.5-0.1c-0.5-0.2-1-0.4-1.3-0.7
	c-0.3-0.3-0.6-0.6-0.7-1C30.1,105.8,30.1,105.4,30.2,105z M30.9,105.2c-0.1,0.4-0.1,0.7,0.1,1c0.2,0.3,0.5,0.5,0.9,0.7l0.7-2.4
	c-0.3-0.1-0.5-0.1-0.8-0.1s-0.4,0.1-0.6,0.2C31.1,104.7,31,104.9,30.9,105.2z"/>
<path class="st6" d="M26.5,112.4l0.5-1.9c0.2-0.8,0.5-1.4,0.9-1.8c0.4-0.4,0.8-0.4,1.4-0.3c0.3,0.1,0.5,0.2,0.6,0.3
	c0.2,0.1,0.3,0.3,0.4,0.5c0.1,0.2,0.1,0.5,0.1,0.7l0,0c0.1-0.3,0.3-0.5,0.4-0.6c0.2-0.2,0.4-0.3,0.6-0.4c0.2-0.1,0.5,0,0.9,0
	c0.4,0.1,0.7,0.3,0.9,0.6c0.2,0.3,0.4,0.6,0.4,1c0,0.4,0,0.8-0.1,1.3l-0.6,2.3L26.5,112.4z M29.5,112.2l0.3-1.1
	c0.1-0.5,0.2-0.9,0-1.2c-0.1-0.3-0.3-0.4-0.7-0.5c-0.3-0.1-0.6,0-0.8,0.2c-0.2,0.2-0.4,0.6-0.6,1.1l-0.3,1L29.5,112.2z M30.3,112.4
	l2.3,0.6l0.4-1.3c0.2-0.5,0.2-1,0-1.2c-0.1-0.3-0.4-0.5-0.8-0.6c-0.2-0.1-0.4-0.1-0.6,0c-0.2,0.1-0.4,0.2-0.5,0.4
	c-0.1,0.2-0.3,0.5-0.4,0.9L30.3,112.4z"/>
<path class="st6" d="M73.5,53.3L72.9,54l-5.3-5l0.6-0.7L73.5,53.3z"/>
<path class="st6" d="M66.7,52.9c0.4-0.5,0.9-0.7,1.3-0.8c0.4,0,0.9,0.1,1.3,0.6l2.6,2.4l-0.5,0.5l-0.7-0.4l0,0c0,0.2,0.1,0.4,0,0.6
	c0,0.2-0.1,0.4-0.2,0.6c-0.1,0.2-0.2,0.4-0.4,0.6c-0.2,0.2-0.4,0.4-0.7,0.5c-0.2,0.1-0.5,0.1-0.8,0.1c-0.3-0.1-0.5-0.2-0.8-0.4
	c-0.4-0.4-0.5-0.8-0.5-1.3c0.1-0.5,0.4-1,0.9-1.6l0.6-0.7l-0.2-0.2c-0.3-0.3-0.6-0.4-0.8-0.4c-0.2,0-0.5,0.1-0.7,0.4
	c-0.2,0.2-0.3,0.4-0.4,0.6c-0.1,0.2-0.2,0.5-0.3,0.7l-0.7-0.2c0.1-0.3,0.2-0.5,0.3-0.8C66.2,53.4,66.4,53.2,66.7,52.9z M69.3,54.1
	l-0.5,0.5c-0.4,0.4-0.6,0.8-0.6,1.1c0,0.3,0.1,0.5,0.3,0.8c0.2,0.2,0.4,0.3,0.6,0.2c0.2,0,0.4-0.1,0.6-0.3c0.3-0.3,0.4-0.6,0.4-1
	c0-0.4-0.2-0.7-0.5-1L69.3,54.1z"/>
<path class="st6" d="M63,56.8c0.4-0.4,0.8-0.6,1.2-0.6c0.4,0,0.9,0.2,1.3,0.7l2.5,2.3l-0.6,0.7L65,57.5c-0.3-0.3-0.6-0.4-0.8-0.4
	c-0.3,0-0.5,0.1-0.7,0.3c-0.3,0.3-0.4,0.7-0.4,1c0.1,0.3,0.3,0.7,0.7,1.1l2.1,1.9l-0.6,0.7l-2.4-2.2c-0.2-0.2-0.4-0.3-0.6-0.4
	c-0.2-0.1-0.4-0.1-0.5,0c-0.2,0-0.3,0.2-0.5,0.3c-0.2,0.2-0.3,0.5-0.4,0.7c0,0.2,0,0.5,0.2,0.7c0.1,0.2,0.4,0.5,0.6,0.8l1.9,1.8
	L63,64.5L59.2,61l0.5-0.5l0.6,0.4l0,0c-0.1-0.2-0.1-0.4-0.1-0.6c0-0.2,0.1-0.4,0.2-0.6c0.1-0.2,0.2-0.4,0.4-0.5
	c0.3-0.3,0.5-0.5,0.8-0.6c0.3-0.1,0.6-0.1,0.9,0l0,0c-0.1-0.3-0.1-0.6,0-0.9C62.6,57.3,62.8,57,63,56.8z"/>
<path class="st6" d="M58.1,62.1c0.1-0.1,0.1-0.1,0.2-0.2c0.1-0.1,0.2-0.1,0.2-0.2l0.6,0.7c-0.1,0-0.1,0.1-0.2,0.2
	c-0.1,0.1-0.1,0.1-0.2,0.2c-0.1,0.1-0.2,0.3-0.3,0.5c-0.1,0.2-0.1,0.4-0.1,0.6c0,0.2,0.1,0.4,0.2,0.6c0.1,0.2,0.2,0.4,0.4,0.6l2,1.9
	l-0.6,0.7l-3.8-3.5l0.5-0.6l0.8,0.6l0,0c-0.1-0.2-0.1-0.4-0.1-0.6c0-0.2,0-0.4,0.1-0.6C57.8,62.4,57.9,62.2,58.1,62.1z"/>
<path class="st6" d="M57.4,66.6c0.3,0.3,0.6,0.6,0.7,0.9c0.2,0.3,0.3,0.6,0.3,0.9c0,0.3,0,0.6-0.1,0.9c-0.1,0.3-0.3,0.6-0.6,0.9
	c-0.2,0.3-0.5,0.4-0.8,0.6C56.6,70.9,56.3,71,56,71c-0.3,0-0.6-0.1-1-0.2c-0.3-0.1-0.6-0.4-1-0.6c-0.4-0.4-0.7-0.8-0.9-1.2
	c-0.2-0.4-0.2-0.8-0.1-1.2c0.1-0.4,0.3-0.8,0.7-1.2c0.3-0.3,0.7-0.6,1.1-0.7c0.4-0.1,0.8-0.1,1.2,0C56.6,66,57,66.2,57.4,66.6z
	 M54.8,69.4c0.3,0.3,0.6,0.5,0.9,0.6c0.3,0.1,0.5,0.2,0.8,0.1c0.3-0.1,0.5-0.2,0.7-0.4c0.2-0.2,0.4-0.5,0.4-0.7c0-0.3,0-0.5-0.2-0.8
	c-0.1-0.3-0.4-0.5-0.6-0.8c-0.3-0.3-0.6-0.5-0.8-0.6c-0.3-0.1-0.5-0.2-0.8-0.1c-0.3,0.1-0.5,0.2-0.7,0.4c-0.3,0.4-0.5,0.7-0.4,1.1
	C54.1,68.6,54.3,69,54.8,69.4z"/>
<path class="st6" d="M55,72.9l-0.8,0.8l-6.5-1.2l0,0c0.1,0.1,0.3,0.2,0.4,0.4c0.2,0.1,0.3,0.3,0.5,0.4c0.2,0.1,0.3,0.3,0.5,0.4
	l2.8,2.6L51.2,77l-5-4.7l0.8-0.8l6.5,1.2l0,0c-0.1-0.1-0.2-0.2-0.4-0.3c-0.2-0.1-0.3-0.3-0.5-0.4c-0.2-0.2-0.3-0.3-0.5-0.4l-2.8-2.6
	l0.6-0.6L55,72.9z"/>
<path class="st6" d="M106.5,35.2l0.6,1.9c0,0.2,0.1,0.3,0.1,0.5c0,0.1,0.1,0.3,0.1,0.4l0.1,0c0.1-0.2,0.1-0.4,0.3-0.5
	c0.1-0.2,0.3-0.3,0.4-0.4c0.2-0.1,0.4-0.2,0.6-0.3c0.4-0.1,0.7-0.1,1-0.1c0.3,0,0.6,0.2,0.8,0.4c0.2,0.2,0.4,0.5,0.5,1l0.9,3.2
	l-0.9,0.3l-0.9-3.1c-0.1-0.4-0.3-0.7-0.5-0.8c-0.2-0.2-0.5-0.2-0.9-0.1c-0.3,0.1-0.6,0.2-0.8,0.4c-0.2,0.2-0.3,0.4-0.3,0.7
	c0,0.3,0,0.6,0.2,1l0.7,2.5l-0.9,0.3l-2-7L106.5,35.2z"/>
<path class="st6" d="M104.7,45.8c-0.7,0.2-1.2,0.2-1.6,0.1c-0.4-0.1-0.7-0.4-0.8-0.9c-0.1-0.3-0.1-0.6,0.1-0.9
	c0.1-0.3,0.4-0.5,0.7-0.7c-0.1,0-0.3-0.1-0.4-0.2c-0.1-0.1-0.2-0.2-0.3-0.4c-0.1-0.2,0-0.4,0-0.5c0.1-0.2,0.2-0.3,0.4-0.5
	c-0.3,0-0.6-0.2-0.8-0.4c-0.2-0.2-0.4-0.5-0.5-0.8c-0.1-0.4-0.1-0.7,0-1c0.1-0.3,0.2-0.6,0.5-0.8c0.2-0.2,0.6-0.4,1-0.5
	c0.1,0,0.2,0,0.3-0.1c0.1,0,0.2,0,0.3,0c0.1,0,0.2,0,0.2,0l1.7-0.5l0.2,0.5l-0.8,0.4c0.1,0.1,0.2,0.2,0.3,0.3
	c0.1,0.1,0.2,0.3,0.2,0.5c0.1,0.5,0.1,1-0.2,1.3c-0.3,0.4-0.7,0.7-1.3,0.8c-0.1,0-0.3,0.1-0.4,0.1c-0.1,0.1-0.2,0.2-0.2,0.3
	c0,0.1,0,0.2,0,0.3c0,0.1,0.1,0.1,0.1,0.2c0.1,0,0.2,0.1,0.3,0c0.1,0,0.3,0,0.4-0.1l0.9-0.2c0.5-0.2,1-0.2,1.3,0
	c0.4,0.1,0.6,0.4,0.7,0.9c0.2,0.6,0.1,1-0.3,1.5C106.1,45.2,105.5,45.5,104.7,45.8z M104.5,45.1c0.4-0.1,0.7-0.2,0.9-0.4
	c0.2-0.2,0.4-0.3,0.5-0.5c0.1-0.2,0.1-0.4,0-0.6c-0.1-0.2-0.1-0.3-0.3-0.4c-0.1-0.1-0.3-0.1-0.4-0.1c-0.2,0-0.4,0.1-0.6,0.1
	l-0.8,0.2c-0.2,0.1-0.4,0.1-0.5,0.3c-0.1,0.1-0.2,0.2-0.3,0.4c0,0.2,0,0.3,0,0.5c0.1,0.2,0.2,0.4,0.5,0.5
	C103.8,45.2,104.1,45.2,104.5,45.1z M103.6,41.1c0.3-0.1,0.6-0.3,0.7-0.5c0.1-0.2,0.1-0.5,0-0.8c-0.1-0.4-0.3-0.6-0.5-0.7
	c-0.2-0.1-0.5-0.1-0.8-0.1c-0.3,0.1-0.5,0.3-0.7,0.5c-0.1,0.2-0.1,0.5,0,0.9c0.1,0.3,0.3,0.5,0.5,0.7
	C103,41.2,103.2,41.2,103.6,41.1z"/>
<path class="st6" d="M99.6,39.4l1.4,5l-0.9,0.3l-1.4-5L99.6,39.4z M98.6,37.7c0.1,0,0.3,0,0.4,0c0.1,0.1,0.2,0.2,0.3,0.4
	c0.1,0.2,0,0.3,0,0.5c-0.1,0.1-0.2,0.2-0.3,0.2c-0.1,0-0.3,0-0.4,0c-0.1-0.1-0.2-0.2-0.3-0.4c-0.1-0.2,0-0.3,0-0.5
	C98.4,37.8,98.5,37.7,98.6,37.7z"/>
<path class="st6" d="M98.5,45.1l-0.9,0.3l-0.9-3l-3.2,0.9l0.9,3l-0.9,0.3L91.5,40l0.9-0.3l0.8,2.7l3.2-0.9l-0.8-2.7l0.9-0.3
	L98.5,45.1z"/>
<path class="st6" d="M153,42.9l-0.4,2c0,0.2-0.1,0.3-0.1,0.5c0,0.1-0.1,0.3-0.1,0.4l0.1,0c0.1-0.2,0.3-0.3,0.5-0.4
	c0.2-0.1,0.4-0.1,0.6-0.2c0.2,0,0.4,0,0.7,0c0.4,0.1,0.7,0.2,1,0.4c0.2,0.2,0.4,0.4,0.5,0.7c0.1,0.3,0.1,0.7,0,1.1l-0.7,3.3
	l-0.9-0.2l0.7-3.2c0.1-0.4,0.1-0.7-0.1-1c-0.1-0.2-0.4-0.4-0.8-0.5c-0.3-0.1-0.6-0.1-0.9,0c-0.2,0.1-0.4,0.3-0.6,0.5s-0.3,0.6-0.3,1
	l-0.6,2.6l-0.9-0.2l1.5-7.1L153,42.9z"/>
<path class="st6" d="M146.3,51.3c-0.7-0.1-1.2-0.4-1.5-0.7c-0.3-0.3-0.4-0.7-0.3-1.1c0.1-0.3,0.2-0.6,0.5-0.7
	c0.2-0.2,0.6-0.3,0.9-0.3c-0.1-0.1-0.2-0.2-0.3-0.4c-0.1-0.1-0.1-0.3,0-0.5c0-0.2,0.1-0.3,0.3-0.4c0.1-0.1,0.3-0.2,0.6-0.3
	c-0.2-0.2-0.4-0.4-0.5-0.7c-0.1-0.3-0.1-0.6,0-0.9c0.1-0.4,0.2-0.7,0.4-0.9c0.2-0.2,0.5-0.4,0.8-0.4c0.3-0.1,0.7-0.1,1.1,0
	c0.1,0,0.2,0,0.3,0.1c0.1,0,0.2,0.1,0.3,0.1c0.1,0,0.2,0.1,0.2,0.1l1.7,0.4l-0.1,0.5l-0.9-0.1c0.1,0.1,0.1,0.3,0.1,0.5
	c0,0.2,0,0.4,0,0.5c-0.1,0.5-0.4,0.9-0.8,1.1c-0.4,0.2-0.9,0.3-1.5,0.1c-0.1,0-0.3-0.1-0.4-0.1c-0.1,0-0.3,0.1-0.4,0.2
	c-0.1,0.1-0.1,0.2-0.2,0.3c0,0.1,0,0.2,0,0.2c0,0.1,0.1,0.1,0.2,0.2c0.1,0,0.2,0.1,0.4,0.1l0.9,0.2c0.6,0.1,0.9,0.3,1.2,0.6
	s0.3,0.7,0.2,1.1c-0.1,0.6-0.4,1-1,1.2C147.9,51.5,147.2,51.5,146.3,51.3z M146.5,50.6c0.4,0.1,0.7,0.1,1,0.1c0.3,0,0.5-0.1,0.7-0.2
	c0.2-0.1,0.3-0.3,0.3-0.5c0-0.2,0-0.3,0-0.4c-0.1-0.1-0.2-0.2-0.3-0.3c-0.2-0.1-0.4-0.1-0.6-0.2l-0.8-0.2c-0.2,0-0.4-0.1-0.6,0
	c-0.2,0-0.3,0.1-0.4,0.2c-0.1,0.1-0.2,0.3-0.2,0.4c-0.1,0.3,0,0.5,0.2,0.7C145.8,50.4,146.1,50.5,146.5,50.6z M147.5,46.7
	c0.3,0.1,0.6,0,0.8-0.1c0.2-0.1,0.3-0.4,0.4-0.7c0.1-0.4,0.1-0.6-0.1-0.9c-0.1-0.2-0.4-0.4-0.7-0.4c-0.3-0.1-0.6,0-0.8,0.1
	c-0.2,0.1-0.4,0.4-0.4,0.8c-0.1,0.3,0,0.6,0.1,0.8C147,46.5,147.2,46.6,147.5,46.7z"/>
<path class="st6" d="M144.9,43.4l-1.1,5l-0.9-0.2l1.1-5L144.9,43.4z M144.8,41.4c0.1,0,0.3,0.1,0.3,0.2c0.1,0.1,0.1,0.3,0.1,0.5
	c0,0.2-0.1,0.3-0.3,0.4c-0.1,0.1-0.3,0.1-0.4,0c-0.2,0-0.3-0.1-0.4-0.2c-0.1-0.1-0.1-0.3-0.1-0.5c0-0.2,0.1-0.3,0.2-0.4
	C144.5,41.3,144.7,41.3,144.8,41.4z"/>
<path class="st6" d="M141.2,47.9l-0.9-0.2l0.7-3.1l-3.3-0.7l-0.7,3.1l-0.9-0.2l1.4-6.7l0.9,0.2l-0.6,2.8l3.3,0.7l0.6-2.8l0.9,0.2
	L141.2,47.9z"/>
<path class="st6" d="M153.8,34l1,0.2l0.4,3.1c0,0.2,0,0.3,0.1,0.5c0,0.2,0,0.3,0,0.4c0,0.1,0,0.3,0,0.4l0,0c0.1-0.1,0.2-0.3,0.3-0.5
	c0.1-0.2,0.2-0.4,0.4-0.6l1.7-2.7l1,0.2l-3.4,5.3c-0.2,0.3-0.4,0.5-0.6,0.7c-0.2,0.2-0.5,0.3-0.7,0.4c-0.3,0.1-0.5,0.1-0.9,0
	c-0.1,0-0.3-0.1-0.4-0.1c-0.1,0-0.2-0.1-0.3-0.1l0.2-0.7c0.1,0,0.1,0.1,0.2,0.1c0.1,0,0.2,0.1,0.3,0.1c0.2,0,0.4,0,0.5,0
	c0.2,0,0.3-0.1,0.4-0.2c0.1-0.1,0.2-0.3,0.4-0.4l0.4-0.5L153.8,34z"/>
<path class="st6" d="M153.1,33.8c0.1,0,0.2,0,0.3,0.1c0.1,0,0.2,0.1,0.3,0.1l-0.3,0.8c-0.1,0-0.2-0.1-0.2-0.1
	c-0.1,0-0.2-0.1-0.3-0.1c-0.2,0-0.4,0-0.6,0c-0.2,0-0.4,0.1-0.5,0.2c-0.2,0.1-0.3,0.3-0.4,0.4c-0.1,0.2-0.2,0.4-0.3,0.7l-0.6,2.7
	l-0.9-0.2l1.1-5l0.7,0.2l-0.1,0.9l0,0c0.1-0.2,0.3-0.3,0.5-0.4c0.2-0.1,0.4-0.2,0.6-0.3C152.7,33.7,152.9,33.7,153.1,33.8z"/>
<path class="st6" d="M147.3,32.5c0.4,0.1,0.8,0.3,1.1,0.5c0.3,0.3,0.5,0.6,0.6,0.9c0.1,0.4,0.1,0.8,0,1.3l-0.1,0.5l-3.4-0.7
	c-0.1,0.5-0.1,1,0.1,1.3c0.2,0.3,0.6,0.6,1,0.7c0.3,0.1,0.6,0.1,0.9,0.1c0.3,0,0.5,0,0.8-0.1l-0.2,0.8c-0.3,0.1-0.6,0.1-0.8,0.1
	c-0.3,0-0.6,0-0.9-0.1c-0.5-0.1-0.9-0.3-1.2-0.6c-0.3-0.3-0.5-0.6-0.7-1c-0.1-0.4-0.1-0.9,0-1.5c0.1-0.6,0.3-1,0.6-1.4
	c0.3-0.4,0.6-0.6,1-0.7C146.4,32.5,146.9,32.4,147.3,32.5z M147.2,33.3c-0.4-0.1-0.7,0-1,0.2c-0.3,0.2-0.5,0.5-0.6,1l2.5,0.5
	c0.1-0.3,0.1-0.5,0-0.8c0-0.2-0.1-0.4-0.3-0.6C147.6,33.4,147.4,33.3,147.2,33.3z"/>
<path class="st6" d="M144.9,30.4l-3.8,6.2l-1-0.2l-0.9-7.2l1,0.2l0.6,4.6c0,0.2,0,0.3,0.1,0.5c0,0.2,0,0.3,0,0.5c0,0.2,0,0.3,0,0.5
	c0.1-0.1,0.1-0.3,0.2-0.4c0.1-0.2,0.2-0.3,0.2-0.5c0.1-0.2,0.2-0.3,0.3-0.5l2.4-4L144.9,30.4z"/>
<path class="st6" d="M187.1,74.1c-0.2,0.2-0.5,0.4-0.8,0.4c-0.3,0-0.6,0-0.9-0.2c-0.3-0.1-0.6-0.4-0.9-0.7c-0.3-0.3-0.4-0.5-0.6-0.7
	c-0.1-0.2-0.3-0.5-0.3-0.7l0.6-0.6c0.1,0.2,0.2,0.5,0.3,0.8c0.1,0.3,0.3,0.5,0.5,0.7c0.3,0.3,0.5,0.5,0.7,0.5c0.2,0,0.4,0,0.6-0.2
	c0.1-0.1,0.1-0.2,0.2-0.3c0-0.1,0-0.3,0-0.5c-0.1-0.2-0.1-0.5-0.3-0.8c-0.1-0.3-0.2-0.6-0.3-0.9c-0.1-0.3-0.1-0.5,0-0.7
	c0-0.2,0.2-0.4,0.4-0.6c0.3-0.3,0.7-0.4,1.1-0.3c0.4,0.1,0.8,0.4,1.2,0.8c0.2,0.2,0.4,0.5,0.5,0.7c0.1,0.2,0.3,0.5,0.4,0.8l-0.7,0.3
	c-0.1-0.2-0.2-0.5-0.3-0.7c-0.1-0.2-0.3-0.4-0.4-0.6c-0.2-0.2-0.4-0.4-0.6-0.4c-0.2-0.1-0.4,0-0.5,0.1c-0.1,0.1-0.2,0.2-0.2,0.3
	c0,0.1,0,0.3,0.1,0.5c0.1,0.2,0.2,0.4,0.3,0.8c0.1,0.3,0.2,0.6,0.3,0.8c0.1,0.3,0.1,0.5,0,0.7C187.4,73.6,187.3,73.9,187.1,74.1z"/>
<path class="st6" d="M186.3,67.9l-3.7,3.6l-0.5-0.5l0.4-0.6l0,0c-0.2,0-0.4,0-0.6,0c-0.2,0-0.4-0.1-0.6-0.2
	c-0.2-0.1-0.4-0.2-0.5-0.4c-0.3-0.3-0.5-0.6-0.6-0.9c-0.1-0.3-0.1-0.6,0-0.9c0.1-0.3,0.3-0.6,0.6-0.9l2.5-2.3l0.7,0.7l-2.4,2.2
	c-0.3,0.3-0.5,0.6-0.5,0.8c0,0.3,0.1,0.5,0.3,0.8c0.2,0.3,0.5,0.4,0.7,0.5c0.3,0.1,0.5,0,0.8-0.1c0.3-0.1,0.5-0.3,0.8-0.6l1.9-1.8
	L186.3,67.9z"/>
<path class="st6" d="M180.5,65.5c-0.3,0.3-0.6,0.5-0.9,0.7c-0.3,0.1-0.6,0.2-0.9,0.2c-0.3,0-0.6-0.1-0.9-0.2
	c-0.3-0.1-0.6-0.3-0.8-0.6c-0.2-0.3-0.4-0.5-0.5-0.8c-0.1-0.3-0.2-0.6-0.1-0.9c0-0.3,0.1-0.6,0.3-0.9c0.2-0.3,0.4-0.6,0.7-0.9
	c0.4-0.4,0.8-0.7,1.2-0.8c0.4-0.1,0.8-0.1,1.2,0c0.4,0.1,0.8,0.4,1.1,0.7c0.3,0.3,0.5,0.7,0.6,1.1s0.1,0.8-0.1,1.2
	C181.2,64.7,180.9,65.1,180.5,65.5z M177.8,62.8c-0.3,0.3-0.5,0.5-0.6,0.8c-0.1,0.3-0.2,0.5-0.2,0.8c0,0.3,0.2,0.5,0.4,0.7
	c0.2,0.2,0.5,0.4,0.7,0.4c0.3,0,0.5,0,0.8-0.1c0.3-0.1,0.6-0.3,0.8-0.6c0.3-0.3,0.5-0.5,0.6-0.8c0.1-0.3,0.2-0.5,0.1-0.8
	c0-0.3-0.2-0.5-0.4-0.7c-0.3-0.4-0.7-0.5-1.1-0.4C178.7,62.1,178.3,62.4,177.8,62.8z"/>
<path class="st6" d="M203.4,69.7c0.1,0.1,0.1,0.1,0.2,0.2c0.1,0.1,0.1,0.2,0.2,0.2l-0.7,0.5c0-0.1-0.1-0.1-0.1-0.2
	c-0.1-0.1-0.1-0.1-0.2-0.2c-0.1-0.1-0.3-0.3-0.5-0.3c-0.2-0.1-0.4-0.1-0.6-0.1c-0.2,0-0.4,0-0.6,0.1c-0.2,0.1-0.4,0.2-0.6,0.4
	l-2,1.9l-0.7-0.7l3.7-3.6l0.5,0.5l-0.6,0.7l0,0c0.2-0.1,0.4-0.1,0.6-0.1c0.2,0,0.4,0,0.6,0.1C203.1,69.4,203.2,69.5,203.4,69.7z"/>
<path class="st6" d="M199.3,65.4c0.3,0.3,0.5,0.7,0.6,1c0.1,0.4,0.1,0.7-0.1,1.1s-0.4,0.7-0.7,1l-0.4,0.4l-2.4-2.5
	c-0.4,0.4-0.6,0.8-0.6,1.2c0,0.4,0.1,0.8,0.5,1.1c0.2,0.2,0.5,0.4,0.7,0.6c0.2,0.1,0.5,0.3,0.8,0.4l-0.6,0.5
	c-0.3-0.1-0.5-0.2-0.7-0.4c-0.2-0.1-0.5-0.4-0.7-0.6c-0.3-0.4-0.6-0.7-0.7-1.2c-0.1-0.4-0.1-0.8,0-1.2c0.1-0.4,0.4-0.8,0.8-1.2
	c0.4-0.4,0.8-0.7,1.3-0.8c0.4-0.1,0.8-0.2,1.2-0.1C198.6,64.8,199,65.1,199.3,65.4z M198.8,65.9c-0.3-0.3-0.6-0.4-0.9-0.4
	c-0.3,0-0.7,0.1-1.1,0.4l1.8,1.8c0.2-0.2,0.4-0.4,0.5-0.6c0.1-0.2,0.1-0.4,0.1-0.6C199.1,66.3,199,66.1,198.8,65.9z"/>
<path class="st6" d="M189.8,66.4c-0.5-0.5-0.8-1-0.8-1.4c-0.1-0.4,0.1-0.8,0.4-1.1c0.2-0.2,0.5-0.3,0.8-0.3c0.3,0,0.6,0.1,0.9,0.3
	c0-0.1-0.1-0.3,0-0.5c0-0.2,0.1-0.3,0.2-0.4c0.1-0.1,0.3-0.2,0.5-0.2c0.2,0,0.4,0,0.6,0.1c-0.1-0.3-0.1-0.6-0.1-0.9
	c0.1-0.3,0.2-0.6,0.5-0.8c0.3-0.3,0.6-0.4,0.9-0.5c0.3-0.1,0.6,0,0.9,0.1c0.3,0.1,0.6,0.3,0.9,0.6c0.1,0.1,0.1,0.1,0.2,0.2
	c0.1,0.1,0.1,0.2,0.2,0.2c0.1,0.1,0.1,0.1,0.1,0.2l1.2,1.3l-0.4,0.4l-0.7-0.6c0,0.1-0.1,0.3-0.2,0.4c-0.1,0.2-0.2,0.3-0.3,0.4
	c-0.4,0.4-0.8,0.5-1.3,0.5c-0.5,0-0.9-0.3-1.4-0.8c-0.1-0.1-0.2-0.2-0.3-0.3c-0.1,0-0.3-0.1-0.4,0c-0.1,0-0.2,0.1-0.3,0.1
	c-0.1,0.1-0.1,0.1-0.1,0.2c0,0.1,0,0.2,0.1,0.3c0.1,0.1,0.2,0.2,0.3,0.3l0.6,0.6c0.4,0.4,0.6,0.8,0.6,1.2c0,0.4-0.1,0.7-0.4,1
	c-0.4,0.4-0.9,0.5-1.5,0.4C191,67.4,190.4,67,189.8,66.4z M190.3,66c0.3,0.3,0.5,0.5,0.8,0.6c0.2,0.1,0.5,0.2,0.7,0.2
	c0.2,0,0.4-0.1,0.5-0.2c0.1-0.1,0.2-0.3,0.2-0.4c0-0.1,0-0.3-0.1-0.4c-0.1-0.1-0.2-0.3-0.4-0.5l-0.6-0.6c-0.2-0.2-0.3-0.3-0.5-0.3
	c-0.2-0.1-0.3-0.1-0.5-0.1c-0.2,0-0.3,0.1-0.4,0.2c-0.2,0.2-0.3,0.4-0.2,0.6C189.8,65.4,190,65.7,190.3,66z M193.4,63.3
	c0.2,0.3,0.5,0.4,0.7,0.4c0.3,0,0.5-0.1,0.8-0.4c0.3-0.3,0.4-0.5,0.4-0.8c0-0.3-0.1-0.5-0.3-0.8c-0.2-0.2-0.5-0.4-0.7-0.4
	c-0.3,0-0.5,0.1-0.8,0.4c-0.2,0.2-0.4,0.5-0.4,0.7C193,62.8,193.2,63.1,193.4,63.3z"/>
<path class="st6" d="M191.9,57.7c0.4,0.4,0.6,0.9,0.6,1.3c0,0.4-0.2,0.9-0.7,1.3l-2.4,2.3l-0.6-0.7l2.4-2.2c0.3-0.3,0.5-0.6,0.5-0.8
	c0-0.3-0.1-0.5-0.4-0.8c-0.4-0.4-0.7-0.5-1.1-0.5c-0.4,0.1-0.8,0.3-1.2,0.7l-1.9,1.8l-0.7-0.7l3.7-3.6l0.5,0.5l-0.4,0.6l0,0
	c0.2,0,0.4,0,0.6,0s0.4,0.1,0.6,0.2C191.5,57.4,191.7,57.5,191.9,57.7z"/>
<path class="st6" d="M187.7,53.3c0.4,0.5,0.7,0.9,0.7,1.3c0,0.4-0.2,0.8-0.6,1.3l-2.5,2.4l-0.5-0.5l0.4-0.6l0,0c-0.2,0-0.5,0-0.7,0
	c-0.2,0-0.4-0.1-0.6-0.2c-0.2-0.1-0.4-0.3-0.6-0.5c-0.2-0.2-0.4-0.5-0.5-0.7c-0.1-0.3-0.1-0.5,0-0.8c0.1-0.3,0.2-0.5,0.5-0.7
	c0.4-0.4,0.8-0.5,1.3-0.4c0.5,0.1,1,0.4,1.6,1l0.6,0.6l0.2-0.2c0.3-0.3,0.4-0.5,0.4-0.8c0-0.2-0.1-0.5-0.3-0.7
	c-0.2-0.2-0.4-0.3-0.6-0.5c-0.2-0.1-0.5-0.2-0.7-0.3l0.3-0.7c0.3,0.1,0.5,0.2,0.8,0.4C187.2,52.9,187.4,53.1,187.7,53.3z
	 M186.4,55.9l-0.5-0.5c-0.4-0.4-0.8-0.6-1.1-0.7c-0.3-0.1-0.6,0-0.8,0.2c-0.2,0.2-0.3,0.4-0.3,0.6c0,0.2,0.1,0.4,0.3,0.6
	c0.3,0.3,0.6,0.5,1,0.5c0.4,0,0.7-0.1,1-0.4L186.4,55.9z"/>
<path class="st6" d="M184.1,52.1c-0.6,0.5-1.1,0.9-1.7,1c-0.6,0.1-1.1,0.1-1.7-0.1c-0.6-0.2-1.1-0.6-1.6-1.1l-1.3-1.4l5-4.7l1.4,1.5
	c0.5,0.5,0.8,1,1,1.6c0.2,0.5,0.2,1.1,0,1.6C185,51.1,184.6,51.6,184.1,52.1z M183.4,51.4c0.4-0.4,0.7-0.8,0.9-1.2
	c0.1-0.4,0.2-0.8,0-1.2c-0.1-0.4-0.4-0.8-0.7-1.2l-0.7-0.8l-3.8,3.6l0.6,0.6c0.6,0.6,1.2,1,1.9,1C182.1,52.3,182.7,52,183.4,51.4z"
	/>
<path class="st6" d="M201.1,112.7c-0.3,0.1-0.6,0.1-0.9,0c-0.3-0.1-0.5-0.3-0.7-0.6c-0.2-0.3-0.4-0.6-0.5-1
	c-0.1-0.3-0.2-0.7-0.2-0.9c0-0.3,0-0.5,0-0.7l0.8-0.2c0,0.2-0.1,0.5-0.1,0.8c0,0.3,0,0.6,0.1,0.9c0.1,0.4,0.2,0.7,0.4,0.8
	c0.2,0.1,0.4,0.2,0.6,0.1c0.1,0,0.2-0.1,0.3-0.2c0.1-0.1,0.1-0.2,0.2-0.4c0-0.2,0.1-0.5,0.1-0.8c0-0.4,0.1-0.7,0.1-0.9
	c0.1-0.3,0.2-0.5,0.3-0.6c0.1-0.2,0.4-0.3,0.6-0.4c0.4-0.1,0.8,0,1.1,0.2c0.3,0.3,0.6,0.7,0.7,1.3c0.1,0.3,0.1,0.6,0.1,0.9
	c0,0.3,0,0.6,0,0.8l-0.8-0.1c0-0.2,0-0.5,0-0.7c0-0.2,0-0.5-0.1-0.7c-0.1-0.3-0.2-0.5-0.3-0.7c-0.1-0.1-0.3-0.2-0.5-0.1
	c-0.1,0-0.2,0.1-0.3,0.2c-0.1,0.1-0.1,0.3-0.2,0.5c0,0.2-0.1,0.5-0.1,0.8c0,0.3-0.1,0.6-0.1,0.9c-0.1,0.3-0.2,0.5-0.3,0.6
	C201.6,112.5,201.4,112.7,201.1,112.7z"/>
<path class="st6" d="M203.4,106.9l-5,1.4l-0.2-0.7l0.6-0.3l0,0c-0.2-0.1-0.4-0.1-0.5-0.3c-0.2-0.1-0.3-0.3-0.4-0.5
	c-0.1-0.2-0.2-0.4-0.3-0.6c-0.1-0.4-0.1-0.7-0.1-1c0.1-0.3,0.2-0.6,0.4-0.8c0.2-0.2,0.6-0.4,1-0.5l3.3-0.9l0.3,0.9l-3.1,0.9
	c-0.4,0.1-0.7,0.3-0.8,0.5c-0.2,0.2-0.2,0.5-0.1,0.9c0.1,0.3,0.2,0.6,0.4,0.8c0.2,0.2,0.4,0.3,0.7,0.3c0.3,0,0.6,0,1-0.1l2.6-0.7
	L203.4,106.9z"/>
<path class="st6" d="M199.4,102.1c-0.4,0.1-0.8,0.2-1.1,0.1c-0.3,0-0.7-0.1-0.9-0.2c-0.3-0.1-0.5-0.3-0.7-0.6
	c-0.2-0.3-0.3-0.6-0.4-0.9c-0.1-0.3-0.1-0.7-0.1-1c0-0.3,0.1-0.6,0.3-0.9c0.2-0.3,0.4-0.5,0.7-0.7c0.3-0.2,0.6-0.4,1.1-0.5
	c0.5-0.1,1-0.2,1.5-0.1c0.4,0.1,0.8,0.3,1.1,0.6c0.3,0.3,0.5,0.7,0.6,1.2c0.1,0.5,0.1,0.9,0,1.3c-0.1,0.4-0.3,0.8-0.7,1
	C200.3,101.7,199.9,101.9,199.4,102.1z M198.3,98.4c-0.4,0.1-0.7,0.2-0.9,0.4c-0.2,0.2-0.4,0.4-0.5,0.6c-0.1,0.2-0.1,0.5,0,0.9
	c0.1,0.3,0.2,0.6,0.4,0.7c0.2,0.2,0.5,0.3,0.8,0.3c0.3,0,0.6,0,1-0.1c0.4-0.1,0.7-0.2,0.9-0.4c0.2-0.2,0.4-0.4,0.5-0.6
	c0.1-0.2,0.1-0.5,0-0.9c-0.1-0.5-0.4-0.8-0.8-0.9C199.4,98.2,198.9,98.2,198.3,98.4z"/>
<path class="st6" d="M211.6,115.2c-0.2-0.6-0.1-1.2,0.2-1.6c0.3-0.5,0.9-0.8,1.8-1.1c0.9-0.2,1.6-0.2,2.1,0c0.5,0.2,0.9,0.7,1.1,1.3
	c0.1,0.3,0.1,0.5,0.1,0.7s-0.1,0.4-0.1,0.6c-0.1,0.2-0.2,0.3-0.3,0.5l0,0.1c0.1,0,0.2-0.1,0.4-0.2c0.2-0.1,0.3-0.1,0.4-0.1l1.9-0.5
	l0.3,0.9l-7,1.9l-0.2-0.7l0.6-0.3l0,0c-0.2-0.1-0.3-0.1-0.5-0.2c-0.2-0.1-0.3-0.2-0.4-0.4C211.8,115.7,211.7,115.4,211.6,115.2z
	 M212.4,115.2c0.1,0.5,0.4,0.8,0.7,0.9c0.3,0.1,0.8,0.1,1.3,0l0.1,0c0.6-0.2,1-0.4,1.3-0.7c0.3-0.3,0.3-0.7,0.2-1.2
	c-0.1-0.4-0.4-0.7-0.8-0.8c-0.4-0.1-0.9-0.1-1.5,0.1c-0.6,0.2-1,0.4-1.2,0.7C212.4,114.4,212.3,114.8,212.4,115.2z"/>
<path class="st6" d="M215.9,110.6c0,0.1,0,0.2,0.1,0.3c0,0.1,0,0.2,0,0.3l-0.9,0.1c0-0.1,0-0.2,0-0.3c0-0.1,0-0.2-0.1-0.3
	c-0.1-0.2-0.1-0.4-0.3-0.5c-0.1-0.2-0.3-0.3-0.4-0.4c-0.2-0.1-0.4-0.2-0.6-0.2c-0.2,0-0.5,0-0.7,0.1l-2.6,0.7l-0.3-0.9l5-1.4
	l0.2,0.7l-0.9,0.4l0,0c0.2,0.1,0.4,0.1,0.6,0.2c0.2,0.1,0.4,0.2,0.5,0.4C215.7,110.1,215.8,110.3,215.9,110.6z"/>
<path class="st6" d="M214.3,104.8c0.2,0.6,0.2,1.1,0,1.5c-0.2,0.4-0.6,0.6-1.2,0.8l-3.4,0.9l-0.2-0.7l0.7-0.4l0,0
	c-0.2-0.1-0.4-0.2-0.6-0.3c-0.2-0.1-0.3-0.3-0.4-0.4c-0.1-0.2-0.2-0.4-0.3-0.7c-0.1-0.3-0.1-0.6-0.1-0.8c0-0.3,0.2-0.5,0.3-0.7
	c0.2-0.2,0.4-0.3,0.8-0.4c0.5-0.1,0.9,0,1.3,0.3c0.4,0.3,0.7,0.9,0.9,1.6l0.3,0.8l0.3-0.1c0.4-0.1,0.6-0.3,0.8-0.5
	c0.1-0.2,0.1-0.5,0-0.8c-0.1-0.3-0.2-0.5-0.3-0.7c-0.1-0.2-0.3-0.4-0.4-0.6l0.6-0.5c0.2,0.2,0.4,0.4,0.5,0.7
	C214.1,104.2,214.2,104.5,214.3,104.8z M211.9,106.5l-0.2-0.7c-0.2-0.6-0.4-0.9-0.6-1.1c-0.2-0.2-0.5-0.2-0.8-0.2
	c-0.3,0.1-0.4,0.2-0.5,0.4c-0.1,0.2-0.1,0.4,0,0.7c0.1,0.4,0.3,0.7,0.6,0.9c0.3,0.2,0.7,0.2,1.1,0.1L211.9,106.5z"/>
<path class="st6" d="M208.4,103.2l-1-3.7l0.6-0.2l4.4,1.6l-0.7-2.5l0.7-0.2l1,3.5l-0.6,0.2l-4.4-1.6l0.7,2.6L208.4,103.2z"/>
<path class="st6" d="M211.6,95.2c0.2,0.6,0.2,1.1,0,1.5c-0.2,0.4-0.6,0.6-1.2,0.8l-3.4,0.9l-0.2-0.7l0.7-0.4l0,0
	c-0.2-0.1-0.4-0.2-0.6-0.3c-0.2-0.1-0.3-0.3-0.4-0.4c-0.1-0.2-0.2-0.4-0.3-0.7c-0.1-0.3-0.1-0.6-0.1-0.8c0-0.3,0.2-0.5,0.3-0.7
	c0.2-0.2,0.4-0.3,0.8-0.4c0.5-0.1,0.9,0,1.3,0.3c0.4,0.3,0.7,0.9,0.9,1.6l0.3,0.8l0.3-0.1c0.4-0.1,0.6-0.3,0.8-0.5
	c0.1-0.2,0.1-0.5,0-0.8c-0.1-0.3-0.2-0.5-0.3-0.7c-0.1-0.2-0.3-0.4-0.4-0.6l0.6-0.5c0.2,0.2,0.4,0.4,0.5,0.7
	C211.4,94.5,211.5,94.9,211.6,95.2z M209.2,96.8l-0.2-0.7c-0.2-0.6-0.4-0.9-0.6-1.1c-0.2-0.2-0.5-0.2-0.8-0.2
	c-0.3,0.1-0.4,0.2-0.5,0.4c-0.1,0.2-0.1,0.4,0,0.7c0.1,0.4,0.3,0.7,0.6,0.9c0.3,0.2,0.7,0.2,1.1,0.1L209.2,96.8z"/>
<path class="st6" d="M205.6,93l-0.3-0.9l3.1-0.8l-0.9-3.3l-3.1,0.8l-0.3-0.9l6.6-1.8L211,87l-2.8,0.8l0.9,3.3l2.8-0.8l0.3,0.9
	L205.6,93z"/>
<g>
	<g>
		<path class="st6" d="M26.2,46.7c0.3,0.2,0.4,0.3,0.6,0.5c0.1,0.2,0.2,0.5,0.2,0.7c0,0.2,0,0.5-0.1,0.8l0,0c0.3-0.4,0.7-0.7,1-0.8
			c0.4-0.1,0.7,0,1.1,0.2c0.3,0.2,0.6,0.4,0.7,0.7c0.2,0.3,0.2,0.7,0.2,1.1c0,0.4-0.2,0.9-0.5,1.4c-0.2,0.3-0.4,0.6-0.6,0.8
			c-0.2,0.2-0.4,0.4-0.7,0.6l-1-0.6c0.3-0.2,0.5-0.4,0.7-0.6c0.2-0.2,0.4-0.4,0.5-0.7c0.2-0.4,0.3-0.8,0.3-1c0-0.3-0.2-0.5-0.5-0.6
			c-0.2-0.1-0.3-0.1-0.5-0.1c-0.2,0-0.3,0.1-0.5,0.3c-0.2,0.2-0.4,0.4-0.6,0.8l-0.2,0.4l-0.9-0.5l0.3-0.4c0.2-0.3,0.3-0.6,0.4-0.8
			c0-0.2,0-0.4-0.1-0.5c-0.1-0.1-0.2-0.2-0.3-0.3c-0.2-0.1-0.4-0.1-0.6-0.1c-0.2,0.1-0.4,0.2-0.5,0.5c-0.1,0.2-0.2,0.4-0.2,0.5
			c0,0.2-0.1,0.3-0.1,0.5c0,0.2,0,0.3,0,0.4l-1.1,0.1c0-0.3,0-0.6,0.1-1c0.1-0.4,0.2-0.7,0.5-1.1c0.3-0.6,0.7-1,1.1-1.2
			C25.3,46.4,25.8,46.5,26.2,46.7z"/>
		<path class="st6" d="M22.6,52.7c0.3-0.5,0.6-0.8,1-0.9c0.4-0.1,0.9,0,1.4,0.3l2.8,1.6L27.1,55l-2.5-1.5c-0.3-0.2-0.6-0.3-0.8-0.2
			c-0.2,0-0.4,0.1-0.5,0.3c-0.2,0.3-0.2,0.6-0.1,0.8c0.1,0.3,0.4,0.5,0.8,0.7l2.1,1.3l-0.7,1.2l-2.5-1.5c-0.2-0.1-0.4-0.2-0.5-0.2
			c-0.2,0-0.3,0-0.4,0c-0.1,0.1-0.2,0.2-0.3,0.3c-0.1,0.2-0.2,0.4-0.1,0.6c0,0.2,0.1,0.4,0.3,0.5c0.2,0.2,0.4,0.3,0.7,0.5l2,1.2
			L24,60.2l-4.2-2.5l0.5-0.9l0.6,0.2l0-0.1c-0.1-0.2-0.2-0.3-0.2-0.5c0-0.2,0-0.4,0.1-0.5c0-0.2,0.1-0.4,0.2-0.5
			c0.2-0.3,0.4-0.5,0.6-0.7c0.2-0.2,0.5-0.2,0.8-0.2l0.1-0.1c-0.1-0.3-0.2-0.5-0.2-0.8C22.4,53.2,22.5,53,22.6,52.7z"/>
		<path class="st6" d="M18.1,57.6l4.3,5.3l-0.6,1l-4.3-5.3L18.1,57.6z"/>
		<path class="st6" d="M22.1,67.7c-0.3,0.6-0.7,1-1.1,1.2c-0.4,0.2-0.8,0.2-1.1,0c-0.3-0.2-0.4-0.4-0.5-0.6c-0.1-0.3-0.1-0.6,0-0.9
			c-0.1,0.1-0.3,0.1-0.4,0.2c-0.2,0-0.3,0-0.4-0.1c-0.2-0.1-0.3-0.2-0.3-0.4c-0.1-0.2-0.1-0.4-0.1-0.6c-0.2,0.2-0.5,0.3-0.8,0.3
			c-0.3,0-0.6-0.1-0.9-0.2c-0.3-0.2-0.5-0.4-0.7-0.7c-0.1-0.3-0.2-0.6-0.1-0.9c0-0.3,0.2-0.7,0.4-1c0-0.1,0.1-0.2,0.2-0.3
			c0.1-0.1,0.1-0.2,0.2-0.3c0.1-0.1,0.1-0.1,0.1-0.2l0.9-1.5l0.6,0.3l-0.2,0.8c0.1,0,0.3,0,0.4,0s0.2,0.1,0.4,0.2
			c0.5,0.3,0.7,0.6,0.8,1.1c0.1,0.5-0.1,1-0.4,1.5c-0.1,0.1-0.2,0.2-0.3,0.4c0,0.1,0,0.2,0.1,0.2s0.1,0.1,0.1,0.1c0.1,0,0.1,0,0.2,0
			c0.1,0,0.1-0.1,0.2-0.2c0.1-0.1,0.2-0.2,0.2-0.3l0.4-0.7c0.3-0.5,0.6-0.8,0.9-0.9c0.3-0.1,0.7-0.1,1.1,0.2
			c0.5,0.3,0.8,0.7,0.8,1.3C22.8,66.2,22.6,66.9,22.1,67.7z M21.4,67.2c0.2-0.3,0.3-0.5,0.3-0.8c0.1-0.2,0.1-0.4,0.1-0.6
			c0-0.2-0.1-0.3-0.2-0.4c-0.1-0.1-0.2-0.1-0.3-0.1c-0.1,0-0.2,0.1-0.3,0.2c-0.1,0.1-0.2,0.3-0.3,0.5l-0.4,0.6
			c-0.1,0.1-0.1,0.3-0.2,0.4c0,0.1,0,0.3,0,0.4c0,0.1,0.1,0.2,0.2,0.3c0.2,0.1,0.3,0.1,0.5,0C21.1,67.6,21.2,67.5,21.4,67.2z
			 M18.3,65.1c0.1-0.2,0.2-0.4,0.1-0.6c-0.1-0.2-0.2-0.3-0.5-0.5c-0.3-0.2-0.5-0.2-0.7-0.2c-0.2,0-0.3,0.1-0.5,0.4
			c-0.1,0.2-0.2,0.4-0.1,0.6c0.1,0.2,0.2,0.3,0.5,0.5c0.2,0.1,0.4,0.2,0.6,0.2C18,65.4,18.2,65.3,18.3,65.1z"/>
		<path class="st6" d="M13.7,67.9c0.3-0.5,0.6-0.8,1-0.9c0.4-0.1,0.9,0,1.4,0.3l2.8,1.6l-0.7,1.2l-2.5-1.5c-0.3-0.2-0.6-0.3-0.8-0.2
			c-0.2,0-0.4,0.1-0.5,0.3c-0.2,0.3-0.2,0.6-0.1,0.8c0.1,0.3,0.4,0.5,0.8,0.7l2.1,1.3l-0.7,1.2l-2.5-1.5c-0.2-0.1-0.4-0.2-0.5-0.2
			c-0.2,0-0.3,0-0.4,0c-0.1,0.1-0.2,0.2-0.3,0.3c-0.1,0.2-0.2,0.4-0.1,0.6c0,0.2,0.1,0.4,0.3,0.5c0.2,0.2,0.4,0.3,0.7,0.5l2,1.2
			L15,75.4l-4.2-2.5l0.5-0.9l0.6,0.2l0-0.1c-0.1-0.2-0.2-0.3-0.2-0.5c0-0.2,0-0.4,0.1-0.5c0-0.2,0.1-0.4,0.2-0.5
			c0.2-0.3,0.4-0.5,0.6-0.7c0.2-0.2,0.5-0.2,0.8-0.2l0.1-0.1c-0.1-0.3-0.2-0.5-0.2-0.8C13.4,68.4,13.5,68.2,13.7,67.9z"/>
	</g>
	<path class="st6" d="M14.5,77.1l-1,1.7L9,76c-0.1-0.1-0.3-0.2-0.5-0.3c-0.2-0.1-0.4-0.2-0.6-0.4c-0.2-0.1-0.4-0.2-0.5-0.3
		c0,0.1,0.1,0.2,0.1,0.4c0,0.2,0.1,0.4,0.1,0.5l0.2,1.3l-1.5,0.2l-0.5-3.7l0.8-1.4L14.5,77.1z"/>
</g>
<g>
	<g>
		<path class="st6" d="M80.5,9.6c0.2,0.3,0.2,0.5,0.2,0.8c0,0.2,0,0.5-0.2,0.7c-0.1,0.2-0.3,0.4-0.4,0.6l0,0
			c0.5-0.2,0.9-0.3,1.2-0.2c0.4,0.1,0.7,0.3,0.9,0.7c0.2,0.3,0.3,0.7,0.3,1c0,0.3-0.1,0.7-0.4,1c-0.2,0.3-0.6,0.7-1.1,1
			c-0.3,0.2-0.6,0.3-0.9,0.4c-0.3,0.1-0.6,0.2-0.9,0.2l-0.6-1c0.3,0,0.6-0.1,0.9-0.2c0.3-0.1,0.6-0.2,0.8-0.3
			c0.4-0.3,0.7-0.5,0.7-0.7c0.1-0.2,0-0.5-0.1-0.8c-0.1-0.2-0.2-0.3-0.4-0.3c-0.1-0.1-0.3-0.1-0.6,0c-0.2,0.1-0.5,0.2-0.8,0.4
			l-0.4,0.3l-0.5-0.9l0.4-0.3c0.3-0.2,0.6-0.4,0.7-0.6c0.1-0.2,0.2-0.3,0.2-0.5c0-0.2,0-0.3-0.1-0.4c-0.1-0.2-0.3-0.3-0.5-0.3
			c-0.2,0-0.4,0-0.7,0.2c-0.2,0.1-0.3,0.2-0.4,0.4c-0.1,0.1-0.2,0.3-0.3,0.4c-0.1,0.1-0.1,0.3-0.2,0.4l-1-0.5
			c0.1-0.3,0.3-0.6,0.5-0.8c0.2-0.3,0.5-0.5,0.9-0.8c0.6-0.3,1.1-0.5,1.6-0.5C79.9,9,80.3,9.2,80.5,9.6z"/>
		<path class="st6" d="M74.6,13.2c0.5-0.3,0.9-0.4,1.3-0.3c0.4,0.1,0.8,0.4,1.1,0.9l1.7,2.7l-1.1,0.7L76,14.9
			c-0.2-0.3-0.4-0.5-0.6-0.6c-0.2-0.1-0.4-0.1-0.6,0.1c-0.3,0.2-0.5,0.4-0.4,0.7c0,0.3,0.1,0.6,0.4,1l1.3,2.1l-1.1,0.7l-1.5-2.4
			c-0.1-0.2-0.2-0.4-0.4-0.5c-0.1-0.1-0.3-0.2-0.4-0.2c-0.1,0-0.3,0-0.4,0.1c-0.2,0.1-0.3,0.3-0.4,0.5c-0.1,0.2,0,0.4,0,0.6
			c0.1,0.2,0.2,0.5,0.4,0.8l1.2,2l-1.1,0.7l-2.6-4.2l0.9-0.5l0.5,0.4l0.1,0c0-0.2,0-0.4,0.1-0.5c0.1-0.2,0.2-0.3,0.3-0.5
			c0.1-0.1,0.3-0.3,0.4-0.4c0.3-0.2,0.6-0.3,0.9-0.3c0.3,0,0.5,0,0.8,0.2l0.1-0.1c0-0.3,0.1-0.6,0.2-0.8
			C74.1,13.6,74.3,13.4,74.6,13.2z"/>
		<path class="st6" d="M68.3,15.4l1.3,6.7l-1,0.6L67.2,16L68.3,15.4z"/>
		<path class="st6" d="M67.1,26.2c-0.6,0.4-1.1,0.5-1.5,0.5c-0.4,0-0.8-0.2-1-0.6c-0.2-0.3-0.2-0.5-0.2-0.8c0.1-0.3,0.2-0.5,0.5-0.8
			c-0.1,0-0.3,0-0.5-0.1c-0.2-0.1-0.3-0.2-0.4-0.3c-0.1-0.2-0.1-0.3-0.1-0.5c0-0.2,0.1-0.4,0.2-0.6c-0.3,0-0.5,0-0.8-0.1
			c-0.3-0.1-0.5-0.3-0.6-0.6c-0.2-0.3-0.3-0.6-0.3-0.9c0-0.3,0.1-0.6,0.3-0.8c0.2-0.3,0.5-0.5,0.8-0.7c0.1,0,0.2-0.1,0.3-0.1
			c0.1-0.1,0.2-0.1,0.3-0.1c0.1,0,0.2-0.1,0.2-0.1l1.5-0.9l0.4,0.6l-0.6,0.6c0.1,0.1,0.2,0.1,0.3,0.2c0.1,0.1,0.2,0.2,0.2,0.3
			c0.3,0.5,0.3,0.9,0.2,1.3c-0.2,0.4-0.5,0.8-1.1,1.2C65.1,22.9,65,23,64.9,23c0,0.1,0,0.2,0,0.2c0,0.1,0,0.1,0.1,0.2
			c0,0.1,0.1,0.1,0.2,0.1c0.1,0,0.2,0,0.3,0c0.1,0,0.2-0.1,0.4-0.2l0.7-0.4c0.5-0.3,0.9-0.4,1.2-0.3c0.4,0,0.7,0.3,0.9,0.6
			c0.3,0.5,0.3,1,0.1,1.5C68.3,25.2,67.8,25.7,67.1,26.2z M66.7,25.4c0.3-0.2,0.5-0.3,0.7-0.5c0.2-0.2,0.3-0.3,0.3-0.5
			c0-0.2,0-0.3,0-0.4c-0.1-0.1-0.1-0.2-0.2-0.2c-0.1,0-0.2,0-0.4,0c-0.1,0-0.3,0.1-0.5,0.3l-0.6,0.4c-0.1,0.1-0.3,0.2-0.3,0.3
			c-0.1,0.1-0.1,0.2-0.1,0.3c0,0.1,0,0.2,0.1,0.3c0.1,0.2,0.2,0.2,0.5,0.2C66.2,25.7,66.4,25.6,66.7,25.4z M64.9,22.1
			c0.2-0.1,0.3-0.3,0.4-0.5c0-0.2,0-0.4-0.2-0.6c-0.2-0.3-0.3-0.4-0.5-0.5c-0.2-0.1-0.4,0-0.6,0.1c-0.2,0.1-0.3,0.3-0.4,0.5
			c0,0.2,0,0.4,0.2,0.7c0.1,0.2,0.3,0.4,0.5,0.4C64.5,22.3,64.7,22.2,64.9,22.1z"/>
		<path class="st6" d="M59.5,22.4c0.5-0.3,0.9-0.4,1.3-0.3c0.4,0.1,0.8,0.4,1.1,0.9l1.7,2.7l-1.1,0.7l-1.5-2.4
			c-0.2-0.3-0.4-0.5-0.6-0.6c-0.2-0.1-0.4-0.1-0.6,0.1c-0.3,0.2-0.5,0.4-0.4,0.7c0,0.3,0.1,0.6,0.4,1l1.3,2.1l-1.1,0.7l-1.5-2.4
			c-0.1-0.2-0.2-0.4-0.4-0.5c-0.1-0.1-0.3-0.2-0.4-0.2c-0.1,0-0.3,0-0.4,0.1c-0.2,0.1-0.3,0.3-0.4,0.5c-0.1,0.2,0,0.4,0,0.6
			c0.1,0.2,0.2,0.5,0.4,0.8l1.2,2l-1.1,0.7l-2.6-4.2l0.9-0.5l0.5,0.4l0.1,0c0-0.2,0-0.4,0.1-0.5c0.1-0.2,0.2-0.3,0.3-0.5
			c0.1-0.1,0.3-0.3,0.4-0.4c0.3-0.2,0.6-0.3,0.9-0.3c0.3,0,0.5,0,0.8,0.2l0.1-0.1c0-0.3,0.1-0.6,0.2-0.8
			C59,22.8,59.3,22.6,59.5,22.4z"/>
	</g>
	<path class="st6" d="M55.4,30.5L50,33.9l-0.7-1.1l0.7-3.2c0.1-0.6,0.3-1.2,0.3-1.6c0.1-0.4,0.1-0.8,0.1-1.1c0-0.3-0.1-0.6-0.3-0.8
		c-0.2-0.3-0.4-0.5-0.7-0.5c-0.3-0.1-0.5,0-0.8,0.2c-0.3,0.2-0.6,0.4-0.8,0.7c-0.2,0.3-0.4,0.7-0.5,1.1l-1.5-0.5
		c0.1-0.3,0.2-0.7,0.4-1c0.1-0.3,0.4-0.6,0.6-0.9c0.3-0.3,0.6-0.6,1.1-0.9c0.5-0.3,1-0.5,1.5-0.5c0.5,0,0.9,0,1.3,0.2
		c0.4,0.2,0.7,0.5,1,0.9c0.3,0.4,0.4,0.9,0.5,1.3c0,0.5,0,1-0.1,1.5c-0.1,0.5-0.3,1.2-0.5,1.9l-0.4,1.6l0,0.1l3.4-2.1L55.4,30.5z"/>
</g>
<g>
	<g>
		<path class="st6" d="M148.3,5c0,0.3-0.1,0.6-0.2,0.8c-0.1,0.2-0.3,0.4-0.5,0.5c-0.2,0.1-0.4,0.2-0.7,0.3v0
			c0.5,0.1,0.9,0.2,1.2,0.5c0.3,0.3,0.4,0.6,0.4,1c0,0.4-0.1,0.7-0.3,1c-0.2,0.3-0.5,0.5-0.8,0.7c-0.4,0.2-0.9,0.3-1.5,0.3
			c-0.4,0-0.7,0-1-0.1c-0.3-0.1-0.6-0.1-0.9-0.3l0-1.2c0.3,0.1,0.6,0.2,0.9,0.3c0.3,0.1,0.6,0.1,0.8,0.1c0.5,0,0.8-0.1,1-0.2
			c0.2-0.2,0.3-0.4,0.3-0.7c0-0.2,0-0.3-0.1-0.5c-0.1-0.1-0.2-0.2-0.5-0.3c-0.2-0.1-0.5-0.1-0.9-0.1l-0.5,0l0-1l0.5,0
			c0.4,0,0.7,0,0.9-0.1c0.2-0.1,0.3-0.2,0.4-0.3c0.1-0.1,0.1-0.3,0.1-0.4c0-0.2-0.1-0.4-0.2-0.5c-0.1-0.1-0.4-0.2-0.7-0.2
			c-0.2,0-0.4,0-0.6,0.1c-0.2,0-0.3,0.1-0.5,0.2c-0.1,0.1-0.3,0.1-0.4,0.2l-0.6-0.9c0.3-0.2,0.5-0.3,0.9-0.5
			c0.3-0.1,0.7-0.2,1.2-0.2c0.7,0,1.2,0.1,1.6,0.4S148.3,4.5,148.3,5z"/>
		<path class="st6" d="M141.3,4.9c0.6,0,1,0.1,1.3,0.4c0.3,0.3,0.4,0.7,0.4,1.4l0,3.2l-1.3,0l0-2.9c0-0.4-0.1-0.6-0.2-0.8
			c-0.1-0.2-0.3-0.3-0.6-0.3c-0.4,0-0.6,0.1-0.8,0.4C140,6.6,140,7,140,7.5l0,2.5l-1.3,0l0-2.9c0-0.2,0-0.4-0.1-0.6
			c-0.1-0.2-0.1-0.3-0.2-0.4S138.1,6,137.9,6c-0.2,0-0.4,0.1-0.6,0.2c-0.1,0.1-0.2,0.3-0.3,0.5c-0.1,0.2-0.1,0.5-0.1,0.9l0,2.3
			l-1.3,0l0-4.9l1,0l0.2,0.6l0.1,0c0.1-0.2,0.2-0.3,0.4-0.4c0.2-0.1,0.3-0.2,0.5-0.2c0.2,0,0.4-0.1,0.6-0.1c0.4,0,0.7,0.1,0.9,0.2
			c0.3,0.1,0.4,0.3,0.6,0.5l0.1,0c0.1-0.3,0.4-0.4,0.6-0.5C140.8,5,141.1,4.9,141.3,4.9z"/>
		<path class="st6" d="M134.8,3.5l-2.4,6.4l-1.2,0l2.4-6.4L134.8,3.5z"/>
		<path class="st6" d="M128.2,12.1c-0.7,0-1.2-0.1-1.6-0.4c-0.4-0.2-0.5-0.6-0.5-1c0-0.3,0.1-0.5,0.3-0.7c0.2-0.2,0.5-0.3,0.8-0.4
			c-0.1-0.1-0.3-0.2-0.4-0.3c-0.1-0.1-0.2-0.3-0.2-0.4c0-0.2,0.1-0.3,0.2-0.5c0.1-0.1,0.3-0.2,0.5-0.4c-0.3-0.1-0.5-0.3-0.6-0.5
			c-0.1-0.2-0.2-0.5-0.2-0.9c0-0.4,0.1-0.7,0.2-0.9c0.2-0.3,0.4-0.4,0.7-0.6c0.3-0.1,0.7-0.2,1.1-0.2c0.1,0,0.2,0,0.3,0
			c0.1,0,0.2,0,0.3,0c0.1,0,0.2,0,0.2,0l1.7,0l0,0.7l-0.8,0.2c0.1,0.1,0.1,0.2,0.2,0.3c0,0.1,0.1,0.3,0.1,0.4c0,0.5-0.2,0.9-0.6,1.2
			c-0.4,0.3-0.9,0.4-1.5,0.4c-0.2,0-0.3,0-0.4,0c-0.1,0.1-0.1,0.1-0.2,0.2c0,0.1-0.1,0.1-0.1,0.2c0,0.1,0,0.1,0.1,0.2
			c0.1,0,0.1,0.1,0.2,0.1c0.1,0,0.2,0,0.4,0l0.8,0c0.5,0,0.9,0.1,1.2,0.4c0.3,0.2,0.4,0.6,0.4,1c0,0.6-0.2,1-0.7,1.3
			C129.8,11.9,129.1,12.1,128.2,12.1z M128.2,11.2c0.3,0,0.6,0,0.8-0.1c0.2-0.1,0.4-0.1,0.5-0.3c0.1-0.1,0.2-0.2,0.2-0.4
			c0-0.1,0-0.2-0.1-0.3c-0.1-0.1-0.2-0.1-0.3-0.2c-0.1,0-0.3,0-0.6,0l-0.7,0c-0.2,0-0.3,0-0.4,0.1c-0.1,0.1-0.2,0.1-0.3,0.2
			c-0.1,0.1-0.1,0.2-0.1,0.3c0,0.2,0.1,0.3,0.3,0.4C127.7,11.1,127.9,11.2,128.2,11.2z M128.5,7.5c0.3,0,0.4-0.1,0.6-0.2
			c0.1-0.2,0.2-0.4,0.2-0.6c0-0.3-0.1-0.5-0.2-0.7c-0.1-0.1-0.3-0.2-0.5-0.2c-0.2,0-0.4,0.1-0.6,0.2c-0.1,0.1-0.2,0.4-0.2,0.7
			c0,0.3,0.1,0.5,0.2,0.6C128,7.4,128.2,7.5,128.5,7.5z"/>
		<path class="st6" d="M123.7,4.9c0.6,0,1,0.1,1.3,0.4c0.3,0.3,0.4,0.7,0.4,1.4l0,3.2l-1.3,0l0-2.9c0-0.4-0.1-0.6-0.2-0.8
			C123.7,6,123.5,6,123.3,6c-0.4,0-0.6,0.1-0.8,0.4c-0.2,0.3-0.2,0.6-0.2,1.1l0,2.5l-1.3,0l0-2.9c0-0.2,0-0.4-0.1-0.6
			c-0.1-0.2-0.1-0.3-0.2-0.4c-0.1-0.1-0.2-0.1-0.4-0.1c-0.2,0-0.4,0.1-0.6,0.2c-0.1,0.1-0.2,0.3-0.3,0.5c-0.1,0.2-0.1,0.5-0.1,0.9
			l0,2.3l-1.3,0l0-4.9l1,0l0.2,0.6l0.1,0c0.1-0.2,0.2-0.3,0.4-0.4c0.2-0.1,0.3-0.2,0.5-0.2c0.2,0,0.4-0.1,0.6-0.1
			c0.4,0,0.7,0.1,0.9,0.2c0.3,0.1,0.4,0.3,0.6,0.5l0.1,0c0.1-0.3,0.4-0.4,0.6-0.5C123.1,4.9,123.4,4.9,123.7,4.9z"/>
	</g>
	<g>
		<path class="st6" d="M115.9,5.6c0,0.7-0.1,1.4-0.2,2c-0.1,0.6-0.3,1.1-0.6,1.5c-0.3,0.4-0.6,0.7-1,0.9c-0.4,0.2-0.9,0.3-1.5,0.3
			c-0.7,0-1.3-0.2-1.8-0.6c-0.5-0.4-0.8-0.9-1-1.6c-0.2-0.7-0.3-1.5-0.3-2.5c0-1,0.1-1.8,0.3-2.5c0.2-0.7,0.5-1.2,1-1.6
			c0.5-0.4,1.1-0.6,1.9-0.6c0.7,0,1.3,0.2,1.8,0.6c0.5,0.4,0.8,0.9,1.1,1.6C115.8,3.8,115.9,4.6,115.9,5.6z M111.5,5.6
			c0,0.7,0,1.3,0.1,1.7c0.1,0.5,0.2,0.8,0.4,1c0.2,0.2,0.4,0.4,0.8,0.4c0.3,0,0.6-0.1,0.8-0.3c0.2-0.2,0.3-0.6,0.4-1
			c0.1-0.5,0.1-1,0.1-1.7c0-0.7,0-1.3-0.1-1.7c-0.1-0.5-0.2-0.8-0.4-1.1c-0.2-0.2-0.4-0.4-0.8-0.4c-0.3,0-0.6,0.1-0.8,0.4
			c-0.2,0.2-0.3,0.6-0.4,1C111.5,4.3,111.5,4.9,111.5,5.6z"/>
		<path class="st6" d="M108,10.1l-1.9,0l0-5.3c0-0.1,0-0.3,0-0.5c0-0.2,0-0.4,0-0.7c0-0.2,0-0.4,0-0.6c0,0.1-0.1,0.1-0.3,0.3
			c-0.1,0.1-0.3,0.2-0.4,0.3l-1.1,0.8l-0.9-1.2l2.9-2.3l1.6,0L108,10.1z"/>
	</g>
</g>
<g>
	<g>
		<path class="st6" d="M210.2,30c-0.1,0.3-0.3,0.5-0.5,0.6c-0.2,0.1-0.4,0.2-0.7,0.2c-0.2,0-0.5,0-0.8-0.1l0,0
			c0.4,0.3,0.7,0.6,0.8,1c0.1,0.3,0.1,0.7-0.1,1.1c-0.2,0.3-0.4,0.6-0.7,0.8c-0.3,0.2-0.7,0.3-1.1,0.2c-0.4,0-0.9-0.2-1.4-0.4
			c-0.3-0.2-0.6-0.3-0.8-0.5c-0.2-0.2-0.5-0.4-0.6-0.6l0.5-1c0.2,0.3,0.4,0.5,0.6,0.7c0.2,0.2,0.5,0.4,0.7,0.5
			c0.4,0.2,0.8,0.3,1,0.2c0.3-0.1,0.4-0.2,0.6-0.5c0.1-0.2,0.1-0.3,0.1-0.5c0-0.2-0.1-0.3-0.3-0.5c-0.2-0.2-0.4-0.3-0.8-0.5
			l-0.4-0.2l0.5-0.9l0.4,0.2c0.4,0.2,0.6,0.3,0.9,0.3c0.2,0,0.4,0,0.5-0.1c0.1-0.1,0.2-0.2,0.3-0.3c0.1-0.2,0.1-0.4,0.1-0.6
			c-0.1-0.2-0.2-0.3-0.5-0.5c-0.2-0.1-0.4-0.2-0.5-0.2c-0.2,0-0.3,0-0.5,0c-0.2,0-0.3,0-0.4,0l-0.1-1.1c0.3,0,0.6,0,1,0
			c0.4,0,0.7,0.2,1.2,0.4c0.6,0.3,1,0.7,1.2,1.1C210.4,29.1,210.4,29.6,210.2,30z"/>
		<path class="st6" d="M204,26.8c0.5,0.3,0.8,0.6,0.9,1c0.1,0.4,0,0.9-0.2,1.4l-1.5,2.8l-1.2-0.6l1.3-2.6c0.2-0.3,0.2-0.6,0.2-0.8
			c0-0.2-0.1-0.4-0.4-0.5c-0.3-0.2-0.6-0.2-0.8,0c-0.2,0.2-0.5,0.4-0.7,0.9l-1.1,2.2l-1.2-0.6l1.3-2.6c0.1-0.2,0.2-0.4,0.2-0.6
			c0-0.2,0-0.3-0.1-0.4c-0.1-0.1-0.2-0.2-0.3-0.3c-0.2-0.1-0.4-0.1-0.6-0.1c-0.2,0-0.4,0.2-0.5,0.3c-0.2,0.2-0.3,0.4-0.5,0.7
			l-1.1,2.1l-1.2-0.6l2.2-4.4l0.9,0.5l-0.1,0.6l0.1,0c0.2-0.1,0.3-0.2,0.5-0.2c0.2,0,0.4,0,0.6,0c0.2,0,0.4,0.1,0.5,0.2
			c0.3,0.2,0.6,0.4,0.7,0.6c0.2,0.2,0.3,0.5,0.3,0.8l0.1,0.1c0.2-0.2,0.5-0.2,0.8-0.2C203.5,26.6,203.7,26.7,204,26.8z"/>
		<path class="st6" d="M198.8,22.5l-5.1,4.6l-1.1-0.6l5.1-4.6L198.8,22.5z"/>
		<path class="st6" d="M189,27.1c-0.6-0.3-1-0.7-1.2-1c-0.2-0.4-0.2-0.8,0-1.1c0.1-0.3,0.3-0.4,0.6-0.5c0.3-0.1,0.6-0.1,0.9,0
			c-0.1-0.1-0.2-0.3-0.2-0.4c0-0.2,0-0.3,0.1-0.4c0.1-0.2,0.2-0.3,0.4-0.3c0.2-0.1,0.3-0.1,0.6-0.1c-0.2-0.2-0.3-0.5-0.3-0.8
			c0-0.3,0-0.6,0.2-0.9c0.2-0.3,0.4-0.6,0.6-0.7c0.3-0.2,0.5-0.2,0.9-0.2c0.3,0,0.7,0.1,1.1,0.3c0.1,0,0.2,0.1,0.3,0.2
			c0.1,0.1,0.2,0.1,0.3,0.2c0.1,0.1,0.1,0.1,0.2,0.1l1.5,0.8l-0.3,0.6l-0.8-0.2c0,0.1,0,0.3,0,0.4c0,0.1-0.1,0.2-0.1,0.4
			c-0.2,0.5-0.6,0.8-1.1,0.8c-0.5,0.1-1,0-1.6-0.3c-0.1-0.1-0.3-0.2-0.4-0.2c-0.1,0-0.2,0-0.2,0.1c-0.1,0-0.1,0.1-0.1,0.1
			c0,0.1,0,0.1,0,0.2c0,0.1,0.1,0.1,0.2,0.2c0.1,0.1,0.2,0.1,0.4,0.2l0.7,0.4c0.5,0.2,0.8,0.5,0.9,0.9c0.1,0.3,0.1,0.7-0.1,1.1
			c-0.3,0.5-0.7,0.8-1.3,0.9C190.5,27.7,189.8,27.6,189,27.1z M189.5,26.4c0.3,0.1,0.5,0.2,0.8,0.3c0.2,0.1,0.4,0.1,0.6,0
			c0.2,0,0.3-0.1,0.3-0.3c0.1-0.1,0.1-0.2,0-0.3c0-0.1-0.1-0.2-0.2-0.3c-0.1-0.1-0.3-0.2-0.5-0.3l-0.6-0.3c-0.1-0.1-0.3-0.1-0.4-0.1
			c-0.1,0-0.3,0-0.4,0.1c-0.1,0.1-0.2,0.1-0.3,0.2c-0.1,0.2-0.1,0.3,0,0.5C189,26.1,189.2,26.2,189.5,26.4z M191.4,23.2
			c0.2,0.1,0.4,0.1,0.6,0c0.2-0.1,0.3-0.2,0.4-0.5c0.1-0.3,0.2-0.5,0.1-0.7c0-0.2-0.2-0.3-0.4-0.4c-0.2-0.1-0.4-0.1-0.6-0.1
			c-0.2,0.1-0.3,0.2-0.5,0.5c-0.1,0.2-0.2,0.5-0.1,0.6C191,22.9,191.2,23.1,191.4,23.2z"/>
		<path class="st6" d="M188.3,18.7c0.5,0.3,0.8,0.6,0.9,1c0.1,0.4,0,0.9-0.2,1.4l-1.5,2.8l-1.2-0.6l1.3-2.6c0.2-0.3,0.2-0.6,0.2-0.8
			c0-0.2-0.1-0.4-0.4-0.5c-0.3-0.2-0.6-0.2-0.8,0c-0.2,0.2-0.5,0.4-0.7,0.9l-1.1,2.2l-1.2-0.6l1.3-2.6c0.1-0.2,0.2-0.4,0.2-0.6
			c0-0.2,0-0.3-0.1-0.4c-0.1-0.1-0.2-0.2-0.3-0.3c-0.2-0.1-0.4-0.1-0.6-0.1c-0.2,0-0.4,0.2-0.5,0.3c-0.2,0.2-0.3,0.4-0.5,0.7
			l-1.1,2.1l-1.2-0.6l2.2-4.4l0.9,0.5l-0.1,0.6l0.1,0c0.2-0.1,0.3-0.2,0.5-0.2c0.2,0,0.4,0,0.6,0c0.2,0,0.4,0.1,0.5,0.2
			c0.3,0.2,0.6,0.4,0.7,0.6c0.2,0.2,0.3,0.5,0.3,0.7l0.1,0.1c0.2-0.2,0.5-0.2,0.8-0.2C187.8,18.5,188,18.6,188.3,18.7z"/>
	</g>
	<g>
		<path class="st6" d="M181.1,16c-0.3,0.7-0.7,1.2-1.1,1.7c-0.4,0.5-0.8,0.8-1.2,1.1c-0.4,0.2-0.8,0.4-1.3,0.4
			c-0.5,0-0.9-0.1-1.5-0.4c-0.7-0.3-1.1-0.8-1.4-1.3c-0.2-0.5-0.3-1.2-0.2-1.9c0.1-0.7,0.4-1.5,0.9-2.4c0.5-0.9,0.9-1.6,1.4-2.1
			c0.5-0.5,1.1-0.9,1.6-1c0.6-0.1,1.2,0,1.9,0.4c0.6,0.3,1.1,0.8,1.3,1.3c0.3,0.5,0.3,1.2,0.2,1.9C181.8,14.3,181.5,15.1,181.1,16z
			 M177.1,13.9c-0.3,0.6-0.6,1.2-0.7,1.6c-0.1,0.4-0.2,0.8-0.1,1.1c0.1,0.3,0.2,0.5,0.5,0.7c0.3,0.1,0.6,0.2,0.8,0
			c0.3-0.1,0.6-0.4,0.8-0.7c0.3-0.4,0.6-0.9,0.9-1.5c0.3-0.6,0.5-1.2,0.7-1.6c0.1-0.5,0.2-0.8,0.1-1.1c-0.1-0.3-0.2-0.5-0.5-0.7
			c-0.3-0.1-0.6-0.2-0.8,0c-0.3,0.1-0.5,0.4-0.8,0.8C177.7,12.8,177.4,13.3,177.1,13.9z"/>
		<path class="st6" d="M172.5,16.7l-5.7-2.9l0.6-1.2l3.1-1c0.6-0.2,1.1-0.4,1.5-0.5c0.4-0.2,0.7-0.3,0.9-0.5
			c0.2-0.2,0.4-0.4,0.6-0.7c0.2-0.3,0.2-0.6,0.1-0.9c-0.1-0.3-0.3-0.5-0.6-0.6c-0.3-0.2-0.7-0.2-1-0.3c-0.4,0-0.8,0-1.2,0.1
			l-0.4-1.6c0.3-0.1,0.7-0.1,1-0.2c0.4,0,0.7,0,1.1,0c0.4,0.1,0.9,0.2,1.3,0.5c0.5,0.3,0.9,0.6,1.2,1c0.3,0.4,0.4,0.8,0.5,1.2
			c0,0.4-0.1,0.9-0.3,1.3c-0.2,0.4-0.5,0.8-0.9,1.1c-0.4,0.3-0.8,0.5-1.3,0.7c-0.5,0.2-1.1,0.4-1.8,0.6l-1.6,0.4l0,0.1l3.5,1.8
			L172.5,16.7z"/>
	</g>
</g>
<g>
	<g>
		<path class="st6" d="M227.8,59.3l-0.6-1l-1.7,1l-1-1.7l1.7-1l-2-3.5l1.2-0.7l7.4,0.7l0.9,1.6l-5.2,2.9l0.6,1L227.8,59.3z
			 M227.7,55.9l1.4-0.8c0.1-0.1,0.3-0.2,0.5-0.3c0.2-0.1,0.4-0.2,0.6-0.3c0.2-0.1,0.3-0.2,0.5-0.2c0.1-0.1,0.3-0.1,0.3-0.1l0,0
			c-0.2,0-0.4,0-0.6,0c-0.2,0-0.4,0-0.6,0l-3.1-0.2L227.7,55.9z"/>
		<path class="st6" d="M228.6,49.6c-0.4,0.2-0.8,0.3-1.1,0.3c-0.4,0-0.7-0.1-1-0.3c-0.3-0.2-0.6-0.4-0.9-0.7l0,0
			c0.3,0.7,0.4,1.3,0.2,1.9c-0.1,0.5-0.5,0.9-1,1.2c-0.5,0.3-1,0.4-1.5,0.4c-0.5,0-1-0.2-1.5-0.6c-0.5-0.4-1-0.9-1.4-1.7
			c-0.3-0.5-0.5-0.9-0.6-1.3c-0.1-0.4-0.2-0.9-0.3-1.3l1.5-0.8c0,0.5,0.1,0.9,0.2,1.3c0.1,0.4,0.3,0.8,0.5,1.2
			c0.4,0.6,0.7,1,1.1,1.1c0.4,0.1,0.7,0.1,1.1-0.1c0.2-0.1,0.4-0.3,0.5-0.5c0.1-0.2,0.1-0.5,0-0.8c-0.1-0.3-0.3-0.8-0.5-1.3
			l-0.4-0.6l1.3-0.7l0.4,0.6c0.3,0.5,0.5,0.9,0.8,1.1c0.2,0.2,0.5,0.3,0.7,0.3c0.2,0,0.4-0.1,0.7-0.2c0.3-0.2,0.5-0.4,0.5-0.7
			c0.1-0.3,0-0.6-0.3-1c-0.1-0.3-0.3-0.5-0.5-0.7c-0.2-0.2-0.4-0.3-0.6-0.5c-0.2-0.1-0.4-0.2-0.5-0.3l0.8-1.5
			c0.4,0.2,0.8,0.5,1.2,0.8c0.4,0.4,0.8,0.8,1.1,1.4c0.5,0.9,0.7,1.6,0.6,2.3C229.5,48.7,229.2,49.2,228.6,49.6z"/>
	</g>
	<g>
		<path class="st6" d="M244.7,87.3c-0.3,0.1-0.5,0.2-0.8,0.2c-0.2,0-0.5-0.1-0.7-0.2c-0.2-0.1-0.4-0.3-0.6-0.5l0,0
			c0.2,0.5,0.2,0.9,0.1,1.3c-0.1,0.4-0.4,0.6-0.7,0.8c-0.3,0.2-0.7,0.2-1,0.2c-0.3,0-0.7-0.2-1-0.5c-0.3-0.3-0.6-0.7-0.9-1.2
			c-0.2-0.3-0.3-0.6-0.4-0.9c-0.1-0.3-0.1-0.6-0.1-0.9l1-0.5c0,0.3,0,0.6,0.1,0.9c0.1,0.3,0.2,0.6,0.3,0.8c0.2,0.4,0.4,0.7,0.7,0.8
			c0.2,0.1,0.5,0.1,0.8,0c0.2-0.1,0.3-0.2,0.3-0.3c0.1-0.1,0.1-0.3,0-0.5c0-0.2-0.1-0.5-0.3-0.9l-0.2-0.4l0.9-0.5l0.2,0.4
			c0.2,0.4,0.3,0.6,0.5,0.8c0.2,0.2,0.3,0.2,0.5,0.2c0.2,0,0.3,0,0.5-0.1c0.2-0.1,0.3-0.2,0.4-0.4c0.1-0.2,0-0.4-0.1-0.7
			c-0.1-0.2-0.2-0.3-0.3-0.5c-0.1-0.1-0.2-0.2-0.4-0.3c-0.1-0.1-0.2-0.2-0.3-0.2l0.6-1c0.3,0.1,0.5,0.3,0.8,0.6
			c0.3,0.3,0.5,0.6,0.7,1c0.3,0.6,0.4,1.1,0.3,1.6C245.4,86.8,245.1,87.1,244.7,87.3z"/>
		<path class="st6" d="M241.6,81c0.2,0.5,0.3,0.9,0.2,1.3c-0.1,0.4-0.5,0.7-1,1l-2.9,1.4l-0.6-1.2l2.6-1.2c0.3-0.2,0.5-0.3,0.6-0.5
			c0.1-0.2,0.1-0.4,0-0.6c-0.2-0.3-0.4-0.5-0.7-0.5c-0.3,0-0.7,0.1-1.1,0.3l-2.2,1.1l-0.6-1.2l2.6-1.2c0.2-0.1,0.4-0.2,0.5-0.3
			c0.1-0.1,0.2-0.2,0.2-0.4c0-0.1,0-0.3-0.1-0.4c-0.1-0.2-0.3-0.4-0.4-0.4c-0.2-0.1-0.4-0.1-0.6,0c-0.2,0.1-0.5,0.2-0.8,0.3l-2.1,1
			l-0.6-1.2l4.4-2.1l0.4,0.9l-0.5,0.4l0,0.1c0.2,0,0.4,0.1,0.5,0.2c0.2,0.1,0.3,0.2,0.4,0.3c0.1,0.1,0.2,0.3,0.3,0.5
			c0.2,0.3,0.2,0.6,0.2,0.9c0,0.3-0.1,0.5-0.2,0.8l0.1,0.1c0.3,0,0.5,0.1,0.8,0.3C241.3,80.5,241.5,80.8,241.6,81z"/>
		<path class="st6" d="M240.1,74.5l-6.8,0.6l-0.5-1.1l6.8-0.6L240.1,74.5z"/>
		<path class="st6" d="M229.5,72.3c-0.3-0.6-0.4-1.1-0.4-1.6c0.1-0.4,0.3-0.7,0.7-0.9c0.3-0.1,0.5-0.2,0.8-0.1
			c0.3,0.1,0.5,0.3,0.7,0.5c0-0.1,0-0.3,0.1-0.4c0.1-0.2,0.2-0.3,0.3-0.3c0.2-0.1,0.3-0.1,0.5-0.1c0.2,0,0.3,0.1,0.5,0.3
			c0-0.3,0.1-0.5,0.2-0.8c0.2-0.2,0.4-0.4,0.7-0.6c0.3-0.2,0.6-0.2,0.9-0.2c0.3,0,0.6,0.2,0.8,0.4c0.3,0.2,0.5,0.5,0.7,0.9
			c0,0.1,0.1,0.2,0.1,0.3c0,0.1,0.1,0.2,0.1,0.3c0,0.1,0.1,0.2,0.1,0.2l0.7,1.5l-0.6,0.3l-0.5-0.6c-0.1,0.1-0.1,0.2-0.2,0.3
			s-0.2,0.2-0.3,0.2c-0.5,0.2-0.9,0.2-1.4,0c-0.4-0.2-0.8-0.6-1.1-1.2c-0.1-0.1-0.1-0.3-0.2-0.4c-0.1,0-0.1-0.1-0.2-0.1
			c-0.1,0-0.1,0-0.2,0c-0.1,0-0.1,0.1-0.1,0.1c0,0.1,0,0.2,0,0.3c0,0.1,0.1,0.2,0.2,0.4l0.4,0.8c0.2,0.5,0.3,0.9,0.2,1.3
			c-0.1,0.4-0.3,0.6-0.7,0.8c-0.5,0.2-1,0.2-1.5-0.1C230.3,73.7,229.9,73.1,229.5,72.3z M230.3,72c0.1,0.3,0.3,0.5,0.4,0.7
			c0.2,0.2,0.3,0.3,0.5,0.4c0.2,0.1,0.3,0.1,0.4,0c0.1-0.1,0.2-0.1,0.2-0.2c0-0.1,0-0.2,0-0.4c0-0.1-0.1-0.3-0.2-0.5l-0.3-0.6
			c-0.1-0.1-0.2-0.3-0.3-0.4c-0.1-0.1-0.2-0.2-0.3-0.2c-0.1,0-0.2,0-0.4,0c-0.2,0.1-0.3,0.2-0.3,0.4C230.1,71.4,230.1,71.7,230.3,72
			z M233.7,70.6c0.1,0.2,0.3,0.4,0.5,0.4c0.2,0,0.4,0,0.6-0.1c0.3-0.1,0.4-0.3,0.5-0.5c0.1-0.2,0.1-0.4,0-0.6
			c-0.1-0.2-0.3-0.4-0.4-0.4c-0.2,0-0.4,0-0.7,0.1c-0.2,0.1-0.4,0.3-0.5,0.4C233.6,70.1,233.6,70.3,233.7,70.6z"/>
		<path class="st6" d="M234,65.1c0.2,0.5,0.3,0.9,0.2,1.3c-0.1,0.4-0.5,0.7-1,1l-2.9,1.4l-0.6-1.2l2.6-1.2c0.3-0.2,0.5-0.3,0.6-0.5
			c0.1-0.2,0.1-0.4,0-0.6c-0.2-0.3-0.4-0.5-0.7-0.5c-0.3,0-0.7,0.1-1.1,0.3l-2.2,1.1l-0.6-1.2l2.6-1.2c0.2-0.1,0.4-0.2,0.5-0.3
			c0.1-0.1,0.2-0.2,0.2-0.4c0-0.1,0-0.3-0.1-0.4c-0.1-0.2-0.3-0.4-0.4-0.4c-0.2-0.1-0.4-0.1-0.6,0c-0.2,0.1-0.5,0.2-0.8,0.3l-2.1,1
			l-0.6-1.2l4.4-2.1l0.4,0.9l-0.5,0.4l0,0.1c0.2,0,0.4,0.1,0.5,0.2c0.2,0.1,0.3,0.2,0.4,0.3c0.1,0.1,0.2,0.3,0.3,0.5
			c0.2,0.3,0.2,0.6,0.2,0.9c0,0.3-0.1,0.5-0.2,0.8l0.1,0.1c0.3,0,0.5,0.1,0.8,0.3C233.7,64.7,233.8,64.9,234,65.1z"/>
	</g>
</g>
</svg>
