<svg width="248" height="125" viewBox="0 0 248 125" fill="none" xmlns="http://www.w3.org/2000/svg">
<path d="M177.499 95L198.94 82.7651L216.623 72.6752C218.686 71.4976 219.387 68.8507 218.085 66.8633C209.314 53.4761 197.027 41.2745 183.482 32.6281C181.561 31.4015 179.031 32.0211 177.807 33.9443L176.499 36L167.499 51.5L155.499 73C164.144 78.1305 171.808 85.4557 176.999 94L177.499 95Z" fill="url(#paint0_linear_615_679)"/>
<path d="M93.9997 72.9999C102.557 68.2887 115.549 65.0977 126 64.9315C126 64.9315 126 50.0202 126 40.4658C126 34.1187 126 25.4077 126 20.2745C126 17.9173 124.078 16.0092 121.724 16.122C104.983 16.9242 87.212 21.5108 73.0558 28.5952C70.9339 29.6571 70.2223 32.2959 71.4192 34.3448L81.62 51.8075L93.9997 72.9999Z" fill="url(#paint1_linear_615_679)"/>
<path d="M125.999 65C136.449 65.1661 146.942 68.2888 155.499 73L167.999 51.5L177.935 33.6985C179.075 31.655 178.349 29.0666 176.266 27.9999C162.452 20.9256 146.699 16.4178 130.277 15.6223C127.922 15.5083 125.999 17.4219 125.999 19.7791V40V65Z" fill="url(#paint2_linear_615_679)"/>
<path d="M71.7192 94.4257C76.9104 85.8815 86.2337 77.821 94.879 72.6905L82.4994 51.5L72.259 33.9712C71.0775 31.9488 68.4777 31.2601 66.4977 32.5114C52.7878 41.1757 39.2752 53.4699 30.3157 66.8457C28.9932 68.82 29.6951 71.4675 31.759 72.6453L49.4406 82.7348L70.9994 95.5L71.7192 94.4257Z" fill="url(#paint3_linear_615_679)"/>
<path d="M62.5097 124C62.6778 113.672 66.7323 102.957 71.4993 94.5L48.9993 81.9999L31.1884 71.6448C29.1545 70.4623 26.5393 71.1565 25.4589 73.2463C18.3379 87.0196 13.9107 103.387 13.122 119.722C13.0083 122.077 14.9217 124 17.2792 124H37.7545H62.5097Z" fill="url(#paint4_linear_615_679)"/>
<path d="M177.499 95C182.266 103.457 185.569 114.295 185.737 124.624H230.967C233.325 124.624 235.239 122.7 235.12 120.346C234.301 104.043 229.687 87.9389 222.526 74.2058C221.446 72.1343 218.857 71.4331 216.825 72.5872L198.499 83L177.499 95Z" fill="url(#paint5_linear_615_679)"/>
<path d="M53.3147 90.1681L53.0587 91.0796L46.0303 89.1327L46.2862 88.2212L53.3147 90.1681Z" fill="white"/>
<path d="M47.0548 93.0253C47.2271 92.4116 47.4929 91.9908 47.8523 91.7629C48.2086 91.5341 48.6804 91.501 49.2676 91.6637L52.6328 92.5959L52.4503 93.2457L51.6782 93.2215L51.668 93.2576C51.8099 93.446 51.9199 93.6321 51.9981 93.8159C52.0763 93.9997 52.1177 94.1992 52.1221 94.4144C52.1274 94.6267 52.0904 94.8742 52.011 95.157C51.9265 95.4578 51.7971 95.7105 51.6228 95.9152C51.4485 96.1198 51.234 96.2597 50.9791 96.3351C50.7221 96.4065 50.425 96.3956 50.0877 96.3021C49.5818 96.162 49.2524 95.8616 49.0994 95.4009C48.9463 94.9403 48.9685 94.3125 49.1657 93.5177L49.3703 92.6503L49.0903 92.5727C48.7018 92.4651 48.4033 92.4764 48.1947 92.6067C47.9869 92.734 47.8395 92.9525 47.7525 93.2624C47.6807 93.5181 47.6495 93.7737 47.6589 94.0292C47.6653 94.2839 47.6893 94.5337 47.7308 94.7787L46.9902 94.8848C46.9357 94.6168 46.9096 94.3226 46.9119 94.0022C46.9151 93.6789 46.9627 93.3532 47.0548 93.0253ZM49.964 92.8245L49.8005 93.5282C49.6602 94.1086 49.643 94.5399 49.7487 94.8221C49.8523 95.1005 50.0562 95.2818 50.3603 95.366C50.6253 95.4394 50.8419 95.4135 51.0102 95.2883C51.1784 95.163 51.2993 94.9695 51.3728 94.7078C51.486 94.3047 51.466 93.9425 51.3128 93.6212C51.1574 93.2961 50.8569 93.0718 50.4112 92.9483L49.964 92.8245Z" fill="white"/>
<path d="M45.6224 98.1098C45.777 97.5592 46.0381 97.1841 46.4057 96.9844C46.7712 96.7809 47.2702 96.7667 47.9025 96.9418L51.1593 97.844L50.9071 98.742L47.7633 97.8711C47.3718 97.7627 47.0554 97.7626 46.8141 97.8708C46.5736 97.976 46.4085 98.1881 46.319 98.507C46.1923 98.9582 46.2376 99.3226 46.4551 99.6001C46.6703 99.8737 47.0415 100.084 47.5684 100.229L50.2786 100.98L50.0252 101.883L46.8814 101.012C46.6194 100.939 46.3924 100.915 46.2005 100.94C46.0056 100.964 45.8446 101.034 45.7176 101.152C45.5905 101.269 45.4966 101.436 45.4358 101.652C45.3488 101.962 45.3468 102.229 45.43 102.453C45.5109 102.673 45.6706 102.862 45.9089 103.019C46.1481 103.172 46.4574 103.302 46.8368 103.407L49.398 104.116L49.1433 105.023L44.1655 103.645L44.367 102.927L45.0903 102.986L45.1043 102.937C44.9605 102.79 44.8525 102.626 44.7803 102.443C44.709 102.258 44.6709 102.065 44.6661 101.862C44.6582 101.659 44.6834 101.454 44.7417 101.246C44.8465 100.873 45.0025 100.577 45.2098 100.359C45.4171 100.141 45.6762 100.01 45.987 99.9665L46.0035 99.9079C45.7682 99.6708 45.6236 99.3941 45.5697 99.0776C45.5136 98.7573 45.5311 98.4347 45.6224 98.1098Z" fill="white"/>
<path d="M43.6569 105.109C43.6823 105.018 43.7158 104.922 43.7574 104.82C43.796 104.718 43.8334 104.631 43.8695 104.56L44.6876 104.888C44.6493 104.956 44.6106 105.036 44.5715 105.129C44.5332 105.219 44.5027 105.304 44.4799 105.385C44.4258 105.578 44.4105 105.771 44.4337 105.966C44.457 106.16 44.5193 106.343 44.6207 106.514C44.719 106.684 44.857 106.834 45.0346 106.964C45.2092 107.093 45.423 107.193 45.676 107.263L48.3094 107.993L48.0534 108.904L43.0757 107.525L43.281 106.794L44.2103 106.935L44.2217 106.894C44.0697 106.742 43.9387 106.573 43.8287 106.387C43.7195 106.198 43.6479 105.996 43.6138 105.783C43.5775 105.565 43.5919 105.34 43.6569 105.109Z" fill="white"/>
<path d="M45.202 109.471C45.6116 109.585 45.9622 109.74 46.254 109.938C46.5437 110.132 46.7712 110.362 46.9366 110.628C47.0998 110.89 47.2 111.181 47.2372 111.499C47.2714 111.817 47.2378 112.156 47.1364 112.517C47.0418 112.854 46.8976 113.148 46.7037 113.399C46.5077 113.646 46.2711 113.842 45.9938 113.985C45.7135 114.128 45.3982 114.211 45.0477 114.234C44.6942 114.256 44.3127 114.21 43.9032 114.097C43.3581 113.946 42.9206 113.724 42.5905 113.432C42.2574 113.138 42.0401 112.791 41.9385 112.39C41.8347 111.985 41.8504 111.542 41.9856 111.061C42.114 110.604 42.3276 110.23 42.6266 109.94C42.9255 109.65 43.2932 109.461 43.7297 109.375C44.1662 109.288 44.657 109.32 45.202 109.471ZM44.1642 113.167C44.5467 113.273 44.8899 113.316 45.194 113.297C45.4959 113.273 45.7489 113.181 45.9531 113.021C46.1581 112.857 46.3058 112.614 46.3962 112.292C46.4849 111.976 46.4842 111.696 46.3941 111.45C46.3039 111.205 46.1354 110.996 45.8884 110.824C45.6384 110.651 45.3221 110.511 44.9397 110.405C44.5603 110.3 44.2215 110.258 43.9235 110.28C43.6254 110.301 43.3754 110.394 43.1734 110.558C42.9723 110.72 42.8261 110.963 42.7349 111.288C42.6014 111.763 42.663 112.156 42.9197 112.467C43.1742 112.775 43.5891 113.008 44.1642 113.167Z" fill="white"/>
<path d="M40.4835 116.408C40.6448 115.834 40.9131 115.433 41.2884 115.206C41.6645 114.976 42.1717 114.95 42.8101 115.127L46.0533 116.025L45.8012 116.923L42.6799 116.059C42.2824 115.948 41.9598 115.953 41.7121 116.073C41.4613 116.191 41.2852 116.431 41.1839 116.792C41.0394 117.306 41.0901 117.709 41.336 118.001C41.5827 118.29 41.9951 118.515 42.5733 118.675L45.1118 119.378L44.8571 120.285L39.8794 118.906L40.0809 118.189L40.8178 118.252L40.8317 118.202C40.6866 118.048 40.5782 117.874 40.5063 117.679C40.4345 117.484 40.3979 117.279 40.3964 117.065C40.3928 116.847 40.4218 116.628 40.4835 116.408Z" fill="white"/>
<path d="M39.5841 90.9453L36.7694 90.9827C36.6427 90.9832 36.5031 90.9835 36.3506 90.9834C36.1989 90.9803 36.0472 90.9772 35.8955 90.9741C35.7439 90.971 35.6036 90.9678 35.4747 90.9645C35.3436 90.9574 35.2383 90.9509 35.1588 90.9451L35.1487 90.9812C35.2197 91.0171 35.3132 91.0657 35.4291 91.1269C35.5419 91.1874 35.6656 91.2557 35.8 91.3318C35.9322 91.4041 36.0651 91.4798 36.1987 91.559C36.3331 91.6351 36.4539 91.7075 36.5612 91.7761L38.9265 93.2873L38.6451 94.2891L33.2842 94.2923L33.5439 93.3673L36.3416 93.4078C36.5289 93.4111 36.7219 93.4175 36.9204 93.4271C37.1189 93.4367 37.3052 93.4494 37.4793 93.4652C37.6534 93.481 37.8012 93.4976 37.9229 93.5151L37.933 93.479C37.859 93.4423 37.7677 93.3975 37.6591 93.3448C37.5485 93.2882 37.4337 93.2288 37.3148 93.1667C37.1929 93.1038 37.076 93.0406 36.964 92.9771C36.8528 92.9107 36.7559 92.8514 36.6731 92.7993L34.1534 91.1967L34.4297 90.213L37.4074 90.1672C37.5508 90.1648 37.7113 90.1655 37.8888 90.1693C38.0632 90.1722 38.2349 90.1792 38.4037 90.1903C38.5726 90.2014 38.716 90.2168 38.8338 90.2365L38.8439 90.2004C38.7449 90.16 38.6188 90.1007 38.4655 90.0226C38.3121 89.9445 38.1465 89.8581 37.9686 89.7634C37.7877 89.6679 37.6137 89.571 37.4465 89.4729L35.0341 88.0605L35.2901 87.1489L39.873 89.9164L39.5841 90.9453Z" fill="white"/>
<path d="M35.6024 95.5716C36.0119 95.6851 36.3626 95.8406 36.6544 96.0382C36.944 96.2319 37.1716 96.4619 37.337 96.7282C37.5002 96.9906 37.6004 97.281 37.6376 97.5993C37.6718 97.9168 37.6382 98.2561 37.5368 98.6171C37.4422 98.954 37.298 99.248 37.1041 99.4991C36.9081 99.7464 36.6715 99.9418 36.3942 100.086C36.1139 100.228 35.7985 100.311 35.4481 100.334C35.0946 100.356 34.7131 100.31 34.3036 100.197C33.7585 100.046 33.321 99.8243 32.9909 99.5319C32.6578 99.2386 32.4405 98.8914 32.3389 98.4904C32.2351 98.0855 32.2508 97.6424 32.386 97.1611C32.5144 96.7038 32.728 96.3302 33.0269 96.0401C33.3259 95.75 33.6936 95.5617 34.1301 95.4751C34.5666 95.3885 35.0573 95.4207 35.6024 95.5716ZM34.5646 99.2674C34.947 99.3734 35.2903 99.4166 35.5944 99.3971C35.8963 99.3737 36.1493 99.2817 36.3535 99.121C36.5585 98.9573 36.7062 98.7145 36.7966 98.3926C36.8853 98.0767 36.8846 97.796 36.7944 97.5506C36.7043 97.3052 36.5358 97.0963 36.2888 96.9242C36.0388 96.7512 35.7225 96.6117 35.3401 96.5058C34.9607 96.4006 34.6219 96.3587 34.3239 96.3799C34.0258 96.4011 33.7758 96.4939 33.5738 96.6585C33.3727 96.82 33.2265 97.0632 33.1352 97.3881C33.0018 97.8634 33.0634 98.2566 33.3201 98.5677C33.5746 98.8749 33.9894 99.1081 34.5646 99.2674Z" fill="white"/>
<path d="M36.4465 102.152L36.1906 103.064L29.1621 101.117L29.4181 100.206L36.4465 102.152Z" fill="white"/>
<path d="M30.1924 104.972C30.314 104.539 30.5117 104.193 30.7854 103.935C31.0561 103.676 31.3833 103.511 31.7671 103.439C32.1508 103.367 32.5715 103.394 33.0292 103.521L33.5442 103.664L32.5964 107.039C33.1319 107.178 33.5799 107.154 33.9403 106.969C34.2977 106.782 34.5436 106.45 34.6779 105.972C34.7666 105.656 34.8155 105.366 34.8245 105.103C34.8335 104.839 34.8165 104.559 34.7734 104.262L35.5368 104.473C35.5811 104.755 35.5934 105.029 35.5736 105.296C35.5577 105.56 35.5007 105.867 35.4028 106.216C35.2676 106.698 35.0525 107.094 34.7576 107.404C34.4635 107.712 34.0999 107.914 33.6669 108.012C33.2309 108.108 32.7358 108.08 32.1818 107.926C31.6337 107.774 31.1912 107.553 30.8543 107.262C30.5143 106.97 30.2873 106.628 30.1733 106.236C30.0593 105.845 30.0657 105.424 30.1924 104.972ZM30.8958 105.172C30.7927 105.539 30.8304 105.867 31.0088 106.157C31.1841 106.445 31.4892 106.671 31.9239 106.833L32.6107 104.387C32.3358 104.315 32.0826 104.291 31.8512 104.318C31.6198 104.345 31.4213 104.428 31.2557 104.567C31.0909 104.702 30.9709 104.904 30.8958 105.172Z" fill="white"/>
<path d="M26.4941 112.393L27.0283 110.491C27.2627 109.656 27.5618 109.062 27.9258 108.709C28.2897 108.355 28.7696 108.261 29.3654 108.426C29.6199 108.496 29.8344 108.605 30.009 108.754C30.1836 108.902 30.3119 109.083 30.3941 109.296C30.4763 109.509 30.5052 109.75 30.4809 110.021L30.5258 110.033C30.6463 109.777 30.7944 109.56 30.9699 109.383C31.1455 109.206 31.3579 109.087 31.607 109.027C31.854 108.963 32.1452 108.978 32.4806 109.071C32.8818 109.182 33.1966 109.371 33.4252 109.637C33.6507 109.903 33.7881 110.229 33.8374 110.617C33.8845 111.001 33.8413 111.43 33.7077 111.906L33.0602 114.212L26.4941 112.393ZM29.5145 112.239L29.8357 111.095C29.9844 110.565 30.0005 110.175 29.8839 109.923C29.7674 109.672 29.5429 109.5 29.2106 109.408C28.8663 109.312 28.5852 109.365 28.3675 109.566C28.1468 109.766 27.9625 110.129 27.8147 110.656L27.5249 111.688L29.5145 112.239ZM30.2735 112.449L32.5415 113.077L32.893 111.825C33.045 111.284 33.0458 110.873 32.8954 110.593C32.7458 110.31 32.4914 110.118 32.1321 110.019C31.9045 109.956 31.6956 109.953 31.5054 110.01C31.313 110.063 31.1419 110.189 30.9921 110.39C30.8422 110.59 30.714 110.88 30.6073 111.26L30.2735 112.449Z" fill="white"/>
<path d="M73.5393 53.2617L72.8907 53.9515L67.5439 48.9915L68.1925 48.3017L73.5393 53.2617Z" fill="white"/>
<path d="M66.6564 52.9118C67.0931 52.4474 67.5237 52.197 67.9484 52.1604C68.3707 52.1218 68.8053 52.3096 69.252 52.724L71.812 55.0988L71.3496 55.5905L70.6746 55.2137L70.6489 55.241C70.6879 55.4732 70.6997 55.6888 70.6843 55.8876C70.669 56.0864 70.6135 56.2822 70.5181 56.475C70.4248 56.6654 70.2775 56.8677 70.0763 57.0817C69.8623 57.3093 69.6305 57.4737 69.3811 57.5747C69.1317 57.6758 68.8763 57.701 68.6151 57.6505C68.3536 57.5955 68.0947 57.449 67.8381 57.211C67.4532 56.854 67.2992 56.4362 67.376 55.9576C67.4528 55.4791 67.7625 54.9331 68.305 54.3197L68.8875 53.6454L68.6745 53.4477C68.3789 53.1736 68.1084 53.0462 67.8628 53.0656C67.6194 53.0828 67.3875 53.2086 67.167 53.443C66.9851 53.6365 66.8393 53.8486 66.7296 54.0793C66.6176 54.3079 66.5235 54.5403 66.4473 54.7764L65.7401 54.5296C65.8154 54.267 65.9281 53.9943 66.0782 53.7116C66.2303 53.4266 66.4231 53.16 66.6564 52.9118ZM69.3347 54.073L68.8643 54.6211C68.4715 55.0708 68.2569 55.445 68.2205 55.7437C68.184 56.038 68.2814 56.2925 68.5128 56.5071C68.7144 56.6941 68.9189 56.7709 69.1262 56.7373C69.3336 56.7038 69.5304 56.588 69.7166 56.39C70.0034 56.0849 70.153 55.7548 70.1652 55.3997C70.1774 55.0401 70.0139 54.7031 69.6749 54.3885L69.3347 54.073Z" fill="white"/>
<path d="M63.0345 56.7571C63.4262 56.3405 63.8316 56.1283 64.2506 56.1206C64.6694 56.1085 65.1193 56.3256 65.6004 56.7719L68.078 59.0702L67.439 59.7497L65.0474 57.5311C64.7496 57.2548 64.4684 57.1091 64.2039 57.0939C63.9416 57.0764 63.697 57.1883 63.4701 57.4296C63.149 57.7711 63.021 58.1148 63.0861 58.4607C63.151 58.8022 63.3839 59.1589 63.7848 59.5308L65.8465 61.4434L65.2044 62.1264L62.8127 59.9077C62.6134 59.7229 62.4228 59.5972 62.2409 59.5307C62.0566 59.4621 61.881 59.4504 61.714 59.4958C61.5469 59.5412 61.3863 59.6458 61.2322 59.8097C61.0118 60.0442 60.8867 60.2798 60.8571 60.5166C60.8273 60.749 60.8821 60.9894 61.0215 61.2381C61.163 61.4844 61.3781 61.7415 61.6667 62.0092L63.6151 63.8166L62.9697 64.503L59.183 60.9902L59.6935 60.4473L60.3089 60.8328L60.3442 60.7952C60.2843 60.5989 60.2643 60.4035 60.2843 60.2089C60.3064 60.0121 60.362 59.8229 60.4512 59.6414C60.5381 59.4577 60.6554 59.2874 60.8031 59.1303C61.0685 58.848 61.3437 58.6579 61.6288 58.5601C61.9138 58.4622 62.2045 58.4655 62.5009 58.5699L62.5426 58.5256C62.443 58.2073 62.4423 57.8955 62.5406 57.5903C62.6387 57.2807 62.8034 57.0029 63.0345 56.7571Z" fill="white"/>
<path d="M58.0542 62.0533C58.1184 61.985 58.1926 61.9153 58.2767 61.8441C58.3584 61.7708 58.4318 61.711 58.4968 61.6647L59.0719 62.3325C59.0068 62.3744 58.9354 62.4275 58.8578 62.4919C58.7823 62.5539 58.7156 62.6157 58.6578 62.6772C58.5208 62.8229 58.4177 62.9872 58.3486 63.1703C58.2794 63.3533 58.2504 63.5438 58.2616 63.7417C58.2705 63.9375 58.3238 64.134 58.4215 64.3311C58.5169 64.5262 58.6608 64.713 58.8532 64.8915L60.8566 66.7499L60.208 67.4396L56.4213 63.9269L56.9414 63.3737L57.7023 63.9261L57.7312 63.8953C57.6665 63.6904 57.6283 63.4802 57.6165 63.2647C57.6068 63.0469 57.6362 62.8354 57.7046 62.6304C57.7729 62.421 57.8894 62.2286 58.0542 62.0533Z" fill="white"/>
<path d="M57.4122 66.6296C57.7238 66.9186 57.9636 67.2178 58.1316 67.5271C58.2995 67.832 58.3955 68.1405 58.4195 68.4526C58.4433 68.7603 58.3982 69.0637 58.2842 69.3628C58.1679 69.6598 57.9813 69.9449 57.7245 70.2181C57.4847 70.4731 57.2207 70.6672 56.9325 70.8004C56.6441 70.9292 56.3435 70.9935 56.0307 70.9932C55.7156 70.9907 55.3971 70.919 55.075 70.7779C54.7507 70.6348 54.4328 70.4187 54.1212 70.1297C53.7066 69.745 53.4202 69.3472 53.2619 68.9362C53.1014 68.523 53.0686 68.1154 53.1636 67.7133C53.2584 67.3069 53.4771 66.9215 53.8195 66.5573C54.1449 66.2113 54.5074 65.9786 54.907 65.8591C55.3067 65.7397 55.7204 65.7421 56.1484 65.8663C56.5763 65.9905 56.9976 66.2449 57.4122 66.6296ZM54.7826 69.4262C55.0736 69.6961 55.3587 69.8924 55.6379 70.0151C55.917 70.1333 56.1844 70.1683 56.4401 70.1199C56.6979 70.0692 56.9413 69.9221 57.1703 69.6785C57.3951 69.4394 57.5241 69.1905 57.5574 68.9315C57.5907 68.6726 57.5374 68.41 57.3974 68.1438C57.2551 67.8754 57.0385 67.6063 56.7476 67.3364C56.4589 67.0687 56.1773 66.8756 55.9026 66.7572C55.628 66.6387 55.3629 66.6059 55.1074 66.6587C54.854 66.7093 54.6117 66.8574 54.3805 67.1033C54.0423 67.463 53.9155 67.8397 53.9999 68.2334C54.0842 68.6227 54.3451 69.0203 54.7826 69.4262Z" fill="white"/>
<path d="M55.0425 72.9339L54.2526 73.774L47.7055 72.5401L47.6798 72.5674C47.81 72.6753 47.9538 72.7938 48.1112 72.9228C48.2664 73.0497 48.4274 73.1864 48.5944 73.3327C48.7612 73.4746 48.9281 73.6209 49.0952 73.7717L51.851 76.3282L51.2474 76.9701L46.2236 72.3098L47.007 71.4766L53.5239 72.7016L53.5464 72.6777C53.4413 72.5887 53.3111 72.4786 53.1558 72.3473C53.0005 72.216 52.8371 72.0773 52.6658 71.9311C52.4942 71.7805 52.334 71.6361 52.1851 71.498L49.4086 68.9224L50.0187 68.2736L55.0425 72.9339Z" fill="white"/>
<path d="M106.533 35.2292L107.095 37.1549C107.14 37.3079 107.179 37.4592 107.213 37.6088C107.247 37.7583 107.272 37.8844 107.289 37.9868L107.343 37.9712C107.398 37.767 107.485 37.5858 107.605 37.4278C107.727 37.2658 107.877 37.1283 108.055 37.0151C108.236 36.898 108.436 36.808 108.655 36.7449C109.043 36.6333 109.388 36.6021 109.692 36.6511C109.996 36.7002 110.256 36.8383 110.472 37.0655C110.688 37.2897 110.857 37.6133 110.98 38.0362L111.923 41.2668L111.027 41.5248L110.119 38.4158C110.004 38.0198 109.83 37.7479 109.598 37.6001C109.365 37.4492 109.069 37.4257 108.708 37.5294C108.366 37.628 108.113 37.7757 107.949 37.9724C107.784 38.1662 107.697 38.4076 107.687 38.6966C107.677 38.9857 107.728 39.3222 107.84 39.7061L108.576 42.2303L107.671 42.4909L105.628 35.4898L106.533 35.2292Z" fill="white"/>
<path d="M104.659 45.7576C103.996 45.9486 103.45 45.9741 103.021 45.834C102.596 45.693 102.32 45.4051 102.193 44.9701C102.103 44.6612 102.124 44.3706 102.256 44.0985C102.389 43.8293 102.62 43.6067 102.95 43.4305C102.8 43.4086 102.659 43.3499 102.527 43.2546C102.398 43.1554 102.31 43.0278 102.264 42.8719C102.211 42.6889 102.216 42.5167 102.28 42.3553C102.345 42.1901 102.463 42.0147 102.634 41.829C102.341 41.7963 102.079 41.6783 101.847 41.4751C101.614 41.269 101.449 40.9979 101.351 40.662C101.247 40.305 101.233 39.979 101.31 39.6838C101.389 39.3877 101.552 39.1326 101.799 38.9185C102.046 38.7044 102.373 38.5386 102.782 38.421C102.872 38.3951 102.966 38.3728 103.065 38.3541C103.163 38.3324 103.257 38.3166 103.349 38.3065C103.44 38.2964 103.515 38.2911 103.574 38.2905L105.285 37.7978L105.442 38.3332L104.598 38.7224C104.718 38.8113 104.828 38.9259 104.928 39.0664C105.028 39.2068 105.104 39.37 105.159 39.5559C105.306 40.0599 105.25 40.5085 104.99 40.9019C104.733 41.2914 104.301 41.5735 103.694 41.7481C103.552 41.7858 103.406 41.8148 103.256 41.8353C103.148 41.9475 103.075 42.0581 103.035 42.1671C102.995 42.2731 102.991 42.3831 103.024 42.4971C103.049 42.584 103.099 42.6463 103.171 42.6839C103.247 42.7206 103.345 42.7365 103.464 42.7315C103.582 42.7235 103.72 42.6966 103.879 42.6508L104.744 42.4018C105.285 42.2462 105.732 42.2409 106.087 42.3858C106.442 42.5308 106.683 42.8223 106.811 43.2602C106.973 43.8151 106.87 44.3083 106.501 44.7397C106.132 45.171 105.518 45.5103 104.659 45.7576ZM104.498 45.0871C104.885 44.9756 105.196 44.8436 105.432 44.6913C105.67 44.5381 105.835 44.3705 105.925 44.1885C106.015 44.0064 106.031 43.8164 105.973 43.6185C105.921 43.4385 105.837 43.3131 105.722 43.2421C105.611 43.1734 105.466 43.1467 105.288 43.1621C105.111 43.1775 104.899 43.2207 104.652 43.2915L103.833 43.5275C103.622 43.5881 103.449 43.6738 103.312 43.7847C103.175 43.8957 103.081 44.0252 103.03 44.1732C102.98 44.3243 102.981 44.4913 103.035 44.6743C103.107 44.9232 103.269 45.083 103.521 45.1536C103.776 45.2234 104.101 45.2012 104.498 45.0871ZM103.555 41.12C103.888 41.0241 104.112 40.8653 104.226 40.6438C104.34 40.4193 104.349 40.1435 104.253 39.8166C104.151 39.4656 103.99 39.2259 103.77 39.0973C103.55 38.9687 103.275 38.952 102.945 39.0471C102.624 39.1396 102.404 39.302 102.286 39.5342C102.171 39.7626 102.164 40.0508 102.265 40.3987C102.359 40.7197 102.517 40.944 102.74 41.0717C102.962 41.1964 103.233 41.2125 103.555 41.12Z" fill="white"/>
<path d="M99.6166 39.4349L101.064 44.3932L100.158 44.6539L98.7112 39.6955L99.6166 39.4349ZM98.6231 37.687C98.7672 37.6455 98.9026 37.6521 99.0292 37.7067C99.1588 37.7604 99.2512 37.8817 99.3063 38.0707C99.3615 38.2597 99.3492 38.4128 99.2695 38.5301C99.1919 38.6434 99.081 38.7209 98.9369 38.7624C98.7898 38.8047 98.6529 38.7986 98.5263 38.744C98.4018 38.6856 98.312 38.5618 98.2568 38.3729C98.2017 38.1839 98.2114 38.0331 98.286 37.9206C98.3636 37.8072 98.4759 37.7294 98.6231 37.687Z" fill="white"/>
<path d="M98.5003 45.1311L97.577 45.3969L96.6906 42.3598L93.4431 43.2947L94.3295 46.3318L93.4061 46.5977L91.4863 40.0195L92.4097 39.7537L93.2107 42.4983L96.4582 41.5634L95.6572 38.8188L96.5805 38.5529L98.5003 45.1311Z" fill="white"/>
<path d="M152.969 42.9035L152.545 44.8643C152.511 45.0201 152.473 45.1718 152.432 45.3195C152.39 45.4672 152.353 45.5902 152.319 45.6884L152.374 45.7001C152.519 45.5456 152.682 45.4268 152.863 45.3438C153.048 45.2583 153.246 45.2076 153.457 45.1917C153.672 45.1734 153.891 45.1878 154.114 45.2351C154.509 45.3186 154.828 45.4533 155.072 45.6392C155.317 45.8251 155.48 46.0689 155.562 46.3705C155.644 46.6691 155.639 47.0337 155.546 47.4643L154.835 50.7537L153.922 50.5604L154.606 47.3947C154.694 46.9916 154.67 46.6704 154.537 46.4313C154.404 46.1891 154.154 46.0292 153.787 45.9515C153.438 45.8776 153.145 45.889 152.907 45.9854C152.669 46.0788 152.477 46.2505 152.33 46.5005C152.183 46.7505 152.068 47.071 151.983 47.4619L151.428 50.032L150.506 49.8368L152.047 42.7083L152.969 42.9035Z" fill="white"/>
<path d="M146.296 51.3022C145.62 51.1591 145.127 50.9253 144.817 50.6009C144.51 50.2771 144.404 49.8937 144.5 49.4509C144.568 49.1363 144.725 48.8901 144.971 48.7123C145.217 48.5375 145.527 48.4498 145.901 48.4492C145.779 48.3597 145.683 48.2419 145.613 48.096C145.546 47.9476 145.529 47.794 145.564 47.6352C145.604 47.4489 145.69 47.2996 145.823 47.1872C145.96 47.0724 146.148 46.9732 146.386 46.8896C146.144 46.7233 145.97 46.4963 145.862 46.2085C145.756 45.9176 145.739 45.6011 145.813 45.2591C145.892 44.8956 146.035 44.6018 146.244 44.3776C146.455 44.1541 146.72 44.0059 147.04 43.933C147.359 43.8601 147.727 43.8677 148.143 43.9558C148.234 43.9752 148.328 43.9999 148.424 44.0297C148.52 44.0566 148.611 44.087 148.697 44.1211C148.782 44.1551 148.851 44.1856 148.902 44.2125L150.645 44.5816L150.527 45.1268L149.599 45.0739C149.662 45.2087 149.704 45.3614 149.725 45.5318C149.746 45.7023 149.735 45.8822 149.695 46.0716C149.584 46.5847 149.32 46.9537 148.904 47.1785C148.491 47.401 147.976 47.4468 147.359 47.316C147.216 47.2825 147.073 47.2395 146.931 47.1871C146.783 47.2356 146.666 47.2985 146.579 47.3759C146.492 47.4502 146.437 47.5454 146.411 47.6615C146.392 47.7501 146.406 47.828 146.452 47.8953C146.501 47.9632 146.579 48.0229 146.687 48.0743C146.794 48.1227 146.929 48.1641 147.091 48.1984L147.972 48.3849C148.522 48.5014 148.919 48.7068 149.162 49.0011C149.405 49.2954 149.479 49.6655 149.382 50.1114C149.26 50.6764 148.934 51.0625 148.403 51.2695C147.873 51.4765 147.17 51.4874 146.296 51.3022ZM146.474 50.6355C146.868 50.719 147.205 50.749 147.485 50.7252C147.768 50.7022 147.993 50.6316 148.159 50.5134C148.325 50.3953 148.43 50.2355 148.474 50.0339C148.513 49.8507 148.499 49.7008 148.432 49.5843C148.367 49.4715 148.252 49.3801 148.088 49.3103C147.924 49.2404 147.717 49.1789 147.466 49.1258L146.632 48.9491C146.418 48.9037 146.224 48.8978 146.051 48.9314C145.877 48.9649 145.733 49.0349 145.617 49.1413C145.5 49.2508 145.422 49.3987 145.382 49.585C145.327 49.8385 145.394 50.0554 145.582 50.2358C145.773 50.4168 146.07 50.55 146.474 50.6355ZM147.536 46.6971C147.875 46.769 148.148 46.7341 148.354 46.5926C148.561 46.448 148.701 46.2093 148.773 45.8764C148.85 45.519 148.823 45.2321 148.69 45.0157C148.558 44.7992 148.324 44.6553 147.988 44.5841C147.661 44.5148 147.39 44.5549 147.175 44.7043C146.964 44.8513 146.821 45.1019 146.744 45.4562C146.674 45.783 146.706 46.055 146.841 46.2721C146.977 46.4861 147.209 46.6278 147.536 46.6971Z" fill="white"/>
<path d="M144.871 43.3634L143.78 48.412L142.858 48.2168L143.949 43.1681L144.871 43.3634ZM144.83 41.3568C144.976 41.3879 145.093 41.4572 145.178 41.5647C145.267 41.6729 145.29 41.8232 145.248 42.0156C145.207 42.208 145.123 42.3372 144.997 42.4031C144.874 42.4666 144.74 42.4828 144.593 42.4517C144.443 42.42 144.326 42.3504 144.24 42.2429C144.159 42.1329 144.138 41.9817 144.18 41.7893C144.222 41.5969 144.302 41.4686 144.421 41.4045C144.544 41.341 144.68 41.3251 144.83 41.3568Z" fill="white"/>
<path d="M141.17 47.8593L140.23 47.6602L140.898 44.5678L137.592 43.8675L136.924 46.9599L135.984 46.7608L137.432 40.0629L138.372 40.262L137.768 43.0566L141.074 43.7569L141.678 40.9623L142.618 41.1614L141.17 47.8593Z" fill="white"/>
<path d="M153.839 34.019L154.834 34.2297L155.278 37.3662C155.301 37.5275 155.32 37.6848 155.334 37.838C155.353 37.9889 155.364 38.1351 155.369 38.2766C155.377 38.4157 155.378 38.5516 155.372 38.6844L155.404 38.6912C155.474 38.5432 155.567 38.3649 155.683 38.1562C155.798 37.9475 155.92 37.737 156.049 37.5248L157.704 34.8378L158.695 35.0476L155.267 40.3485C155.078 40.644 154.873 40.8881 154.653 41.0809C154.434 41.2774 154.196 41.4121 153.937 41.4851C153.678 41.5611 153.389 41.5654 153.071 41.4981C152.924 41.467 152.797 41.4303 152.687 41.3881C152.581 41.3495 152.49 41.3111 152.415 41.2729L152.573 40.5399C152.637 40.5694 152.715 40.6003 152.807 40.6326C152.903 40.6655 153.002 40.693 153.106 40.715C153.299 40.7558 153.472 40.7526 153.626 40.7054C153.783 40.6618 153.925 40.5817 154.052 40.465C154.183 40.3489 154.301 40.2064 154.408 40.0374L154.766 39.4904L153.839 34.019Z" fill="white"/>
<path d="M153.12 33.771C153.211 33.7904 153.309 33.8175 153.414 33.8524C153.519 33.8842 153.608 33.9159 153.681 33.9474L153.4 34.7837C153.33 34.7498 153.248 34.7164 153.153 34.6835C153.061 34.6512 152.973 34.6263 152.891 34.6088C152.695 34.5674 152.501 34.5645 152.307 34.6003C152.114 34.636 151.935 34.7099 151.77 34.8219C151.606 34.9308 151.464 35.078 151.344 35.2634C151.225 35.4457 151.137 35.6652 151.082 35.9217L150.505 38.5926L149.579 38.3964L150.67 33.3478L151.412 33.5052L151.325 34.4402L151.367 34.4489C151.51 34.2877 151.672 34.1462 151.852 34.0246C152.034 33.9036 152.232 33.8192 152.443 33.7715C152.659 33.7213 152.884 33.7211 153.12 33.771Z" fill="white"/>
<path d="M147.325 32.5433C147.765 32.6365 148.122 32.8112 148.396 33.0672C148.671 33.3202 148.855 33.6356 148.949 34.0133C149.043 34.3909 149.04 34.8119 148.94 35.2761L148.827 35.7984L145.397 35.0719C145.29 35.6144 145.339 36.0593 145.545 36.4064C145.752 36.7505 146.099 36.974 146.585 37.077C146.906 37.145 147.198 37.175 147.462 37.167C147.726 37.159 148.005 37.1239 148.3 37.0618L148.133 37.836C147.854 37.8983 147.58 37.9283 147.312 37.9258C147.047 37.927 146.737 37.8901 146.382 37.815C145.893 37.7114 145.485 37.5227 145.157 37.2488C144.832 36.9757 144.609 36.6265 144.487 36.2013C144.365 35.7731 144.365 35.278 144.486 34.7161C144.606 34.1602 144.802 33.705 145.074 33.3505C145.346 32.993 145.675 32.7448 146.06 32.6059C146.445 32.467 146.866 32.4462 147.325 32.5433ZM147.166 33.257C146.793 33.178 146.467 33.2367 146.188 33.4331C145.909 33.6265 145.701 33.945 145.564 34.3886L148.049 34.915C148.106 34.6364 148.115 34.3827 148.075 34.1538C148.035 33.925 147.94 33.7325 147.792 33.5765C147.647 33.4211 147.438 33.3146 147.166 33.257Z" fill="white"/>
<path d="M144.891 30.399L141.068 36.5938L140.092 36.3869L139.164 29.1859L140.136 29.3918L140.696 34.0139C140.718 34.1752 140.736 34.345 140.749 34.5234C140.762 34.6987 140.772 34.8733 140.779 35.0473C140.786 35.2213 140.789 35.3799 140.787 35.5232C140.844 35.3916 140.91 35.2475 140.986 35.091C141.064 34.9351 141.147 34.7787 141.236 34.6218C141.325 34.4617 141.412 34.3109 141.496 34.1692L143.91 30.1911L144.891 30.399Z" fill="white"/>
<path d="M187.069 74.0524C186.826 74.2824 186.564 74.4173 186.281 74.457C186.003 74.4968 185.714 74.4438 185.413 74.2981C185.113 74.1523 184.811 73.9217 184.508 73.6063C184.257 73.345 184.061 73.1004 183.92 72.8724C183.776 72.6466 183.668 72.4217 183.596 72.1975L184.201 71.6235C184.28 71.8632 184.393 72.1202 184.539 72.3945C184.686 72.6689 184.859 72.9097 185.058 73.1169C185.338 73.4075 185.585 73.573 185.802 73.6133C186.02 73.6558 186.209 73.6018 186.368 73.4513C186.461 73.3632 186.517 73.2599 186.538 73.1414C186.561 73.0208 186.544 72.8618 186.489 72.6645C186.438 72.4673 186.343 72.2041 186.205 71.8749C186.07 71.5502 185.968 71.2593 185.899 71.0022C185.832 70.7473 185.822 70.5136 185.869 70.301C185.916 70.0885 186.044 69.8833 186.252 69.6855C186.577 69.3781 186.947 69.2721 187.364 69.3677C187.785 69.4634 188.2 69.723 188.607 70.1466C188.823 70.3719 189.004 70.6051 189.149 70.8464C189.297 71.0899 189.417 71.3416 189.511 71.6015L188.773 71.8817C188.687 71.6528 188.585 71.4313 188.465 71.217C188.348 71.0007 188.204 70.8035 188.033 70.6255C187.81 70.3935 187.602 70.251 187.408 70.198C187.216 70.1473 187.055 70.1843 186.923 70.309C186.821 70.4057 186.763 70.5145 186.749 70.6353C186.737 70.7584 186.764 70.9187 186.828 71.1162C186.894 71.3116 186.994 71.5661 187.126 71.8798C187.259 72.189 187.357 72.4699 187.422 72.7225C187.49 72.9774 187.5 73.2133 187.453 73.4303C187.405 73.6472 187.278 73.8546 187.069 74.0524Z" fill="white"/>
<path d="M186.291 67.8726L182.543 71.4264L182.02 70.8823L182.443 70.3007L182.407 70.2636C182.204 70.3095 182.001 70.3125 181.798 70.2725C181.595 70.2326 181.399 70.1575 181.211 70.0475C181.023 69.9374 180.848 69.7978 180.685 69.6289C180.41 69.3427 180.224 69.0543 180.127 68.7635C180.031 68.4749 180.034 68.1842 180.134 67.8914C180.238 67.5987 180.449 67.3018 180.766 67.0009L183.219 64.6757L183.875 65.3583L181.518 67.5932C181.216 67.8791 181.052 68.1572 181.026 68.4276C181.002 68.7001 181.118 68.9693 181.373 69.2352C181.622 69.4942 181.87 69.6509 182.117 69.7051C182.369 69.7594 182.625 69.7257 182.885 69.604C183.149 69.4824 183.425 69.285 183.713 69.012L185.635 67.1899L186.291 67.8726Z" fill="white"/>
<path d="M180.478 65.5371C180.169 65.8295 179.855 66.0502 179.534 66.1991C179.218 66.3482 178.903 66.4256 178.588 66.4315C178.277 66.4375 177.975 66.3754 177.68 66.2453C177.389 66.1129 177.113 65.9116 176.853 65.6413C176.61 65.3889 176.43 65.116 176.313 64.8226C176.2 64.5292 176.153 64.2274 176.171 63.9173C176.192 63.605 176.282 63.2932 176.442 62.982C176.605 62.6686 176.84 62.3657 177.149 62.0733C177.559 61.6842 177.975 61.4229 178.398 61.2896C178.822 61.1541 179.234 61.1449 179.632 61.2621C180.035 61.3794 180.41 61.6183 180.757 61.9787C181.086 62.3212 181.299 62.694 181.396 63.0971C181.493 63.5002 181.467 63.9104 181.317 64.3276C181.168 64.7448 180.888 65.148 180.478 65.5371ZM177.818 62.7695C177.53 63.0425 177.316 63.314 177.177 63.5839C177.042 63.8538 176.991 64.117 177.025 64.3733C177.061 64.6318 177.195 64.8816 177.427 65.1227C177.654 65.3592 177.897 65.5014 178.156 65.5493C178.414 65.5971 178.681 65.5593 178.957 65.4357C179.234 65.31 179.517 65.1107 179.805 64.8376C180.091 64.5667 180.301 64.2985 180.436 64.0329C180.571 63.7673 180.619 63.5063 180.581 63.2499C180.545 62.9958 180.41 62.7471 180.176 62.5038C179.834 62.1478 179.462 62.0004 179.062 62.0616C178.665 62.1229 178.251 62.3588 177.818 62.7695Z" fill="white"/>
<path d="M203.406 69.6715C203.471 69.7391 203.537 69.8166 203.603 69.904C203.672 69.9893 203.728 70.0655 203.771 70.1326L203.067 70.6647C203.029 70.5977 202.979 70.5239 202.919 70.4432C202.861 70.3647 202.803 70.2951 202.744 70.2343C202.606 70.0901 202.446 69.9785 202.266 69.8994C202.086 69.8203 201.897 69.7807 201.697 69.7805C201.5 69.7781 201.299 69.8197 201.095 69.9052C200.894 69.9887 200.698 70.1207 200.507 70.3013L198.524 72.1814L197.868 71.4987L201.617 67.9449L202.143 68.4924L201.544 69.2152L201.573 69.2456C201.783 69.1933 201.996 69.1674 202.213 69.168C202.433 69.1709 202.644 69.2122 202.846 69.2917C203.053 69.3714 203.239 69.498 203.406 69.6715Z" fill="white"/>
<path d="M199.301 65.4C199.613 65.7244 199.81 66.0693 199.892 66.4347C199.977 66.7978 199.952 67.1618 199.817 67.5265C199.682 67.8912 199.442 68.2369 199.098 68.5637L198.71 68.9314L196.28 66.4036C195.885 66.7909 195.676 67.1858 195.651 67.5883C195.628 67.9886 195.789 68.3679 196.133 68.7261C196.361 68.9627 196.586 69.1518 196.809 69.2936C197.032 69.4353 197.282 69.5634 197.561 69.6778L196.987 70.2228C196.721 70.1175 196.478 69.9885 196.257 69.8358C196.037 69.6875 195.801 69.4827 195.55 69.2214C195.203 68.8609 194.971 68.4756 194.855 68.0654C194.74 67.6574 194.752 67.2436 194.89 66.8239C195.031 66.4021 195.31 65.9934 195.727 65.5978C196.14 65.2065 196.558 64.9409 196.983 64.801C197.41 64.659 197.822 64.6388 198.218 64.7405C198.615 64.8422 198.976 65.0621 199.301 65.4ZM198.767 65.8997C198.503 65.6249 198.2 65.4901 197.858 65.4954C197.519 65.4985 197.167 65.6445 196.804 65.9334L198.564 67.765C198.768 67.5671 198.918 67.3624 199.014 67.151C199.11 66.9396 199.14 66.7277 199.105 66.5155C199.072 66.3055 198.96 66.1002 198.767 65.8997Z" fill="white"/>
<path d="M189.771 66.401C189.292 65.9031 189.016 65.4331 188.942 64.9909C188.87 64.5509 188.999 64.175 189.327 63.8633C189.561 63.6418 189.83 63.5269 190.134 63.5186C190.435 63.5124 190.741 63.6142 191.051 63.824C191.001 63.6819 190.988 63.5307 191.012 63.3705C191.04 63.2103 191.113 63.0744 191.231 62.9626C191.369 62.8314 191.525 62.7569 191.699 62.7389C191.876 62.721 192.088 62.7446 192.332 62.8098C192.226 62.5364 192.209 62.2507 192.282 61.9529C192.358 61.6529 192.523 61.3825 192.777 61.1417C193.047 60.8859 193.331 60.724 193.63 60.656C193.931 60.5903 194.234 60.6172 194.539 60.7366C194.845 60.8561 195.145 61.069 195.439 61.3754C195.504 61.4429 195.568 61.516 195.63 61.5946C195.695 61.6709 195.753 61.7472 195.805 61.8233C195.856 61.8994 195.896 61.963 195.923 62.0143L197.158 63.2985L196.753 63.6823L196.014 63.1166C195.991 63.2637 195.94 63.4134 195.861 63.5657C195.782 63.7181 195.672 63.8609 195.531 63.9942C195.151 64.3554 194.724 64.5118 194.253 64.4634C193.786 64.4151 193.334 64.1634 192.897 63.7083C192.797 63.6003 192.704 63.4847 192.616 63.3615C192.466 63.3183 192.333 63.3043 192.217 63.3192C192.104 63.332 192.004 63.3792 191.918 63.4609C191.852 63.5233 191.82 63.5952 191.82 63.6767C191.822 63.7604 191.853 63.8537 191.913 63.9564C191.975 64.0569 192.064 64.1669 192.178 64.2863L192.802 64.9351C193.192 65.3407 193.404 65.7333 193.44 66.1129C193.475 66.4926 193.328 66.8394 192.997 67.1533C192.577 67.551 192.089 67.6861 191.533 67.5587C190.978 67.4313 190.39 67.0454 189.771 66.401ZM190.293 65.9506C190.573 66.2413 190.835 66.4555 191.08 66.5933C191.328 66.7335 191.553 66.8015 191.757 66.7974C191.962 66.7933 192.138 66.7204 192.288 66.5785C192.424 66.4495 192.497 66.3179 192.507 66.1838C192.516 66.054 192.473 65.9143 192.377 65.7645C192.281 65.6147 192.144 65.4474 191.966 65.2626L191.375 64.6476C191.223 64.4899 191.066 64.3761 190.904 64.3063C190.741 64.2364 190.582 64.2129 190.426 64.2357C190.268 64.2607 190.12 64.3387 189.982 64.4699C189.794 64.6483 189.727 64.8648 189.781 65.1194C189.837 65.3762 190.008 65.6533 190.293 65.9506ZM193.392 63.2969C193.633 63.547 193.878 63.6716 194.129 63.6708C194.381 63.6679 194.631 63.5493 194.879 63.3149C195.144 63.0634 195.283 62.8111 195.295 62.5581C195.308 62.3051 195.195 62.0547 194.957 61.8069C194.725 61.5658 194.479 61.4467 194.217 61.4494C193.959 61.4522 193.699 61.5783 193.436 61.8277C193.194 62.0578 193.067 62.3004 193.057 62.5557C193.049 62.8088 193.16 63.0559 193.392 63.2969Z" fill="white"/>
<path d="M191.87 57.6681C192.283 58.0984 192.492 58.5316 192.495 58.9678C192.5 59.4063 192.262 59.8534 191.782 60.3092L189.34 62.6246L188.693 61.9521L191.044 59.7237C191.343 59.44 191.505 59.1618 191.529 58.8892C191.555 58.6145 191.438 58.342 191.178 58.0716C190.808 57.6864 190.434 57.5246 190.055 57.5863C189.679 57.6502 189.273 57.8886 188.838 58.3014L186.926 60.1138L186.274 59.4345L190.022 55.8807L190.538 56.418L190.105 57.0159L190.141 57.0531C190.348 57.0072 190.555 57.0032 190.76 57.041C190.965 57.0788 191.161 57.1516 191.347 57.2595C191.537 57.3674 191.712 57.5036 191.87 57.6681Z" fill="white"/>
<path d="M187.676 53.312C188.118 53.7716 188.345 54.213 188.357 54.6361C188.372 55.0572 188.158 55.4773 187.716 55.8965L185.182 58.2991L184.714 57.8124L185.132 57.1647L185.106 57.1376C184.87 57.163 184.653 57.1623 184.454 57.1357C184.255 57.1091 184.061 57.0429 183.873 56.9372C183.687 56.8337 183.492 56.6761 183.288 56.4644C183.072 56.2391 182.92 55.9999 182.833 55.7468C182.745 55.4936 182.735 55.239 182.801 54.9828C182.871 54.7267 183.033 54.4783 183.287 54.2375C183.668 53.8763 184.097 53.7475 184.573 53.8511C185.05 53.9547 185.581 54.293 186.166 54.8661L186.811 55.4823L187.022 55.2824C187.314 55.0051 187.458 54.7441 187.452 54.4995C187.449 54.2571 187.336 54.0199 187.113 53.7879C186.929 53.5964 186.724 53.4396 186.498 53.3177C186.275 53.1935 186.047 53.0869 185.814 52.9978L186.103 52.3107C186.362 52.4004 186.63 52.5278 186.905 52.6928C187.183 52.86 187.44 53.0664 187.676 53.312ZM186.355 55.9013L185.831 55.4034C185.402 54.9882 185.038 54.754 184.74 54.7008C184.446 54.6477 184.185 54.7297 183.956 54.9469C183.756 55.1361 183.667 55.3344 183.689 55.542C183.711 55.7495 183.816 55.9513 184.004 56.1473C184.294 56.4492 184.618 56.6164 184.974 56.6489C185.335 56.6815 185.683 56.5387 186.018 56.2205L186.355 55.9013Z" fill="white"/>
<path d="M184.069 52.1015C183.509 52.6326 182.942 52.974 182.368 53.1259C181.797 53.2756 181.229 53.2459 180.664 53.0367C180.103 52.8277 179.557 52.446 179.024 51.8918L177.722 50.5367L182.694 45.822L184.143 47.3291C184.628 47.8338 184.954 48.3579 185.121 48.9014C185.29 49.4427 185.29 49.9857 185.12 50.5302C184.952 51.0725 184.602 51.5963 184.069 52.1015ZM183.35 51.3943C183.776 50.9901 184.062 50.5882 184.206 50.1885C184.351 49.7888 184.362 49.3926 184.24 48.9999C184.121 48.605 183.876 48.215 183.506 47.8298L182.775 47.0694L178.979 50.6684L179.593 51.307C180.206 51.9446 180.826 52.2696 181.453 52.282C182.08 52.2943 182.713 51.9984 183.35 51.3943Z" fill="white"/>
<path d="M201.111 112.727C200.789 112.815 200.494 112.81 200.227 112.711C199.963 112.614 199.734 112.431 199.539 112.16C199.344 111.889 199.189 111.543 199.072 111.121C198.975 110.772 198.919 110.464 198.903 110.196C198.885 109.929 198.897 109.679 198.94 109.447L199.744 109.228C199.7 109.476 199.677 109.756 199.675 110.068C199.674 110.379 199.712 110.673 199.788 110.95C199.896 111.339 200.035 111.602 200.206 111.74C200.378 111.881 200.569 111.923 200.781 111.865C200.904 111.831 201.003 111.767 201.077 111.672C201.155 111.577 201.216 111.429 201.261 111.229C201.31 111.031 201.352 110.754 201.386 110.398C201.422 110.048 201.471 109.743 201.532 109.483C201.594 109.227 201.696 109.016 201.838 108.851C201.981 108.685 202.19 108.565 202.468 108.489C202.899 108.372 203.275 108.454 203.596 108.735C203.921 109.019 204.162 109.444 204.318 110.01C204.402 110.311 204.45 110.603 204.463 110.884C204.477 111.169 204.463 111.448 204.422 111.721L203.64 111.619C203.674 111.377 203.689 111.133 203.686 110.887C203.686 110.641 203.653 110.399 203.587 110.161C203.501 109.851 203.386 109.627 203.24 109.488C203.096 109.353 202.936 109.309 202.761 109.357C202.626 109.394 202.523 109.462 202.453 109.562C202.385 109.665 202.331 109.819 202.294 110.023C202.26 110.227 202.226 110.499 202.194 110.838C202.163 111.173 202.117 111.468 202.054 111.721C201.992 111.978 201.889 112.191 201.744 112.36C201.6 112.529 201.389 112.651 201.111 112.727Z" fill="white"/>
<path d="M203.363 106.909L198.38 108.269L198.179 107.542L198.827 107.229L198.813 107.179C198.613 107.124 198.433 107.03 198.273 106.899C198.114 106.767 197.978 106.609 197.864 106.423C197.751 106.236 197.664 106.03 197.601 105.805C197.495 105.422 197.469 105.08 197.521 104.777C197.574 104.477 197.714 104.222 197.941 104.011C198.172 103.802 198.498 103.64 198.921 103.525L202.181 102.635L202.433 103.548L199.3 104.403C198.899 104.513 198.622 104.68 198.471 104.906C198.32 105.135 198.294 105.427 198.393 105.783C198.488 106.129 198.632 106.385 198.824 106.549C199.019 106.716 199.26 106.808 199.546 106.823C199.836 106.841 200.173 106.798 200.556 106.694L203.111 105.996L203.363 106.909Z" fill="white"/>
<path d="M199.363 102.098C198.953 102.21 198.571 102.255 198.219 102.235C197.87 102.217 197.556 102.136 197.276 101.992C197 101.85 196.764 101.652 196.567 101.398C196.374 101.144 196.227 100.835 196.127 100.474C196.033 100.137 196.005 99.8109 196.041 99.4965C196.081 99.1844 196.183 98.8959 196.346 98.631C196.513 98.3653 196.74 98.1332 197.029 97.9345C197.321 97.7351 197.671 97.5794 198.081 97.4675C198.627 97.3186 199.117 97.2852 199.552 97.3675C199.989 97.4489 200.355 97.6356 200.65 97.9276C200.949 98.2218 201.165 98.6099 201.298 99.0917C201.425 99.5495 201.435 99.9791 201.329 100.381C201.223 100.782 201.005 101.131 200.675 101.429C200.346 101.726 199.908 101.949 199.363 102.098ZM198.339 98.3981C197.956 98.5026 197.639 98.6408 197.389 98.8129C197.142 98.9872 196.973 99.1953 196.881 99.4374C196.79 99.6825 196.789 99.9662 196.878 100.288C196.965 100.605 197.111 100.845 197.316 101.009C197.52 101.174 197.773 101.267 198.074 101.288C198.378 101.309 198.721 101.267 199.104 101.163C199.484 101.059 199.796 100.922 200.041 100.752C200.285 100.581 200.452 100.374 200.54 100.13C200.628 99.8883 200.628 99.605 200.538 99.2797C200.406 98.8039 200.15 98.4982 199.769 98.3625C199.391 98.2291 198.915 98.2409 198.339 98.3981Z" fill="white"/>
<path d="M211.61 115.186C211.442 114.578 211.523 114.033 211.853 113.551C212.184 113.072 212.773 112.717 213.62 112.485C214.476 112.252 215.174 112.259 215.713 112.507C216.255 112.757 216.611 113.188 216.78 113.8C216.851 114.056 216.878 114.289 216.862 114.501C216.846 114.713 216.8 114.903 216.724 115.073C216.649 115.246 216.552 115.399 216.433 115.532L216.448 115.586C216.537 115.545 216.664 115.494 216.829 115.433C216.993 115.372 217.139 115.324 217.265 115.29L219.16 114.773L219.411 115.681L212.375 117.601L212.177 116.883L212.827 116.545L212.816 116.504C212.646 116.453 212.482 116.374 212.322 116.265C212.166 116.159 212.026 116.017 211.903 115.84C211.78 115.666 211.683 115.448 211.61 115.186ZM212.41 115.196C212.546 115.687 212.784 115.995 213.123 116.119C213.463 116.247 213.912 116.236 214.471 116.087L214.611 116.048C215.205 115.886 215.633 115.664 215.895 115.382C216.161 115.102 216.223 114.703 216.08 114.185C215.963 113.763 215.709 113.491 215.318 113.368C214.931 113.244 214.444 113.261 213.86 113.421C213.281 113.579 212.864 113.808 212.61 114.107C212.359 114.406 212.292 114.769 212.41 115.196Z" fill="white"/>
<path d="M215.885 110.565C215.91 110.655 215.931 110.755 215.948 110.864C215.968 110.972 215.981 111.065 215.987 111.145L215.115 111.28C215.113 111.203 215.105 111.115 215.09 111.015C215.077 110.919 215.059 110.83 215.036 110.748C214.983 110.555 214.896 110.382 214.775 110.227C214.654 110.072 214.506 109.947 214.331 109.852C214.159 109.757 213.963 109.699 213.743 109.678C213.526 109.656 213.291 109.679 213.038 109.749L210.402 110.468L210.149 109.556L215.132 108.196L215.335 108.927L214.465 109.281L214.476 109.322C214.685 109.375 214.885 109.453 215.076 109.557C215.268 109.663 215.433 109.799 215.573 109.965C215.717 110.133 215.821 110.333 215.885 110.565Z" fill="white"/>
<path d="M214.291 104.82C214.461 105.435 214.451 105.931 214.261 106.31C214.074 106.689 213.686 106.958 213.099 107.118L209.73 108.038L209.55 107.387L210.225 107.014L210.215 106.977C209.995 106.888 209.805 106.785 209.642 106.667C209.48 106.55 209.341 106.4 209.226 106.217C209.112 106.038 209.015 105.807 208.937 105.524C208.854 105.223 208.834 104.94 208.877 104.675C208.921 104.411 209.032 104.181 209.212 103.986C209.395 103.794 209.656 103.651 209.993 103.559C210.5 103.421 210.938 103.51 211.308 103.827C211.677 104.144 211.984 104.694 212.226 105.476L212.5 106.325L212.78 106.248C213.169 106.142 213.419 105.98 213.53 105.762C213.643 105.546 213.656 105.284 213.57 104.973C213.499 104.717 213.394 104.482 213.253 104.268C213.116 104.053 212.966 103.851 212.804 103.662L213.384 103.193C213.569 103.395 213.744 103.633 213.908 103.909C214.073 104.188 214.2 104.492 214.291 104.82ZM211.9 106.479L211.676 105.791C211.496 105.222 211.287 104.843 211.05 104.655C210.818 104.469 210.549 104.418 210.244 104.501C209.979 104.574 209.807 104.707 209.727 104.9C209.648 105.093 209.644 105.321 209.717 105.583C209.829 105.986 210.033 106.287 210.331 106.484C210.633 106.684 211.006 106.722 211.453 106.601L211.9 106.479Z" fill="white"/>
<path d="M208.386 103.182L207.361 99.4773L207.94 99.3194L212.363 100.93L211.683 98.4724L212.389 98.2799L213.351 101.758L212.709 101.934L208.355 100.348L209.087 102.99L208.386 103.182Z" fill="white"/>
<path d="M211.624 95.1801C211.794 95.7945 211.784 96.2912 211.594 96.6702C211.407 97.0485 211.019 97.3178 210.432 97.4782L207.063 98.3977L206.883 97.7472L207.558 97.3735L207.548 97.3374C207.328 97.2482 207.138 97.1448 206.975 97.0272C206.813 96.9095 206.674 96.7595 206.559 96.5772C206.445 96.3979 206.348 96.1667 206.27 95.8836C206.187 95.5824 206.167 95.2996 206.21 95.0351C206.254 94.7706 206.365 94.5409 206.545 94.3462C206.728 94.1536 206.989 94.0112 207.326 93.9191C207.833 93.7808 208.271 93.8702 208.641 94.1871C209.01 94.504 209.317 95.0537 209.559 95.8362L209.833 96.6846L210.113 96.6081C210.502 96.5019 210.752 96.3397 210.863 96.1214C210.976 95.9062 210.989 95.6434 210.903 95.3332C210.832 95.0773 210.727 94.8421 210.586 94.6278C210.449 94.4126 210.299 94.2106 210.137 94.0217L210.717 93.5524C210.902 93.7544 211.077 93.9934 211.241 94.2693C211.406 94.5483 211.533 94.8519 211.624 95.1801ZM209.233 96.8385L209.009 96.1514C208.829 95.582 208.62 95.2032 208.384 95.0152C208.151 94.8294 207.882 94.7781 207.577 94.8612C207.312 94.9336 207.14 95.0664 207.06 95.2598C206.981 95.4531 206.977 95.6808 207.05 95.9428C207.162 96.3464 207.366 96.6468 207.664 96.8441C207.966 97.0436 208.339 97.0824 208.786 96.9606L209.233 96.8385Z" fill="white"/>
<path d="M205.568 92.9949L205.311 92.0688L208.363 91.2358L207.462 87.9787L204.41 88.8118L204.154 87.8857L210.765 86.0814L211.021 87.0075L208.263 87.7603L209.164 91.0173L211.922 90.2645L212.178 91.1905L205.568 92.9949Z" fill="white"/>
<path d="M26.9159 43.7436C27.1784 43.8802 27.3774 44.0531 27.5129 44.2623C27.6484 44.4715 27.7286 44.7015 27.7534 44.9521C27.7795 45.2002 27.761 45.4548 27.6978 45.7158L27.7212 45.728C28.0164 45.3003 28.3373 45.0264 28.6838 44.9062C29.0317 44.7834 29.3928 44.8193 29.7671 45.0141C30.0997 45.1871 30.3547 45.4238 30.532 45.7241C30.7107 46.0219 30.7875 46.3789 30.7624 46.7951C30.7374 47.2114 30.5863 47.686 30.309 48.2188C30.1454 48.5332 29.9666 48.8134 29.7727 49.0592C29.5827 49.3038 29.3735 49.5186 29.1451 49.7037L28.1198 49.1702C28.3717 48.9908 28.5997 48.7842 28.804 48.5503C29.0056 48.315 29.1666 48.0818 29.287 47.8505C29.5115 47.419 29.5943 47.079 29.5354 46.8304C29.4752 46.5779 29.31 46.3813 29.0397 46.2406C28.8812 46.1581 28.7264 46.1288 28.5753 46.1526C28.4242 46.1763 28.268 46.2734 28.1067 46.4438C27.9468 46.6116 27.7742 46.8735 27.5889 47.2295L27.3638 47.6622L26.4399 47.1815L26.6691 46.741C26.8516 46.3902 26.9577 46.1069 26.9874 45.8911C27.0158 45.6714 26.9898 45.4994 26.9092 45.3749C26.8274 45.2465 26.7125 45.1437 26.5643 45.0666C26.3616 44.9612 26.1706 44.9411 25.9914 45.0063C25.8121 45.0716 25.6468 45.2497 25.4953 45.5408C25.4007 45.7227 25.3375 45.9012 25.3059 46.0763C25.273 46.2474 25.2579 46.4097 25.2607 46.563C25.2608 46.7151 25.2672 46.8521 25.2796 46.9742L24.1592 47.0996C24.1143 46.7922 24.1164 46.4614 24.1653 46.1071C24.2156 45.7502 24.349 45.3638 24.5653 44.948C24.8709 44.3606 25.2312 43.9569 25.6462 43.7369C26.0612 43.5169 26.4844 43.5191 26.9159 43.7436Z" fill="white"/>
<path d="M23.6837 49.9184C23.9406 49.4246 24.262 49.1179 24.6479 48.9983C25.0325 48.8748 25.5042 48.9584 26.063 49.2491L28.9049 50.7278L28.2843 51.9207L25.7386 50.5962C25.4267 50.4339 25.1638 50.3648 24.9498 50.3889C24.7358 50.413 24.5707 50.5367 24.4544 50.7603C24.2908 51.0747 24.2876 51.3571 24.4447 51.6073C24.5992 51.8561 24.8857 52.0894 25.3042 52.3071L27.4912 53.445L26.8725 54.634L24.3269 53.3095C24.119 53.2013 23.9327 53.1341 23.768 53.1079C23.6033 53.0816 23.4608 53.0983 23.3406 53.158C23.2204 53.2176 23.1211 53.3228 23.0427 53.4736C22.9277 53.6945 22.893 53.8977 22.9385 54.0832C22.9828 54.2647 23.0986 54.4389 23.2859 54.6057C23.4719 54.7686 23.7196 54.9305 24.0289 55.0914L26.0795 56.1583L25.4608 57.3473L21.1024 55.0796L21.575 54.1713L22.2156 54.3015L22.2501 54.2352C22.1453 54.0684 22.0807 53.8944 22.0561 53.7132C22.0328 53.5294 22.041 53.3454 22.0807 53.1613C22.1203 52.9771 22.1834 52.8019 22.27 52.6356C22.4363 52.3159 22.6289 52.0727 22.8478 51.9058C23.068 51.7364 23.3184 51.6487 23.5989 51.6428L23.6537 51.5375C23.4978 51.2913 23.4307 51.0235 23.4524 50.7343C23.4754 50.4424 23.5525 50.1705 23.6837 49.9184Z" fill="white"/>
<path d="M19.4163 55.0446L24.0104 60.1347L23.4485 61.2145L18.8545 56.1245L19.4163 55.0446Z" fill="white"/>
<path d="M23.9765 64.8829C23.6601 65.4911 23.3115 65.9008 22.9307 66.1122C22.5539 66.3224 22.1744 66.328 21.7924 66.1293C21.5299 65.9927 21.3529 65.7966 21.2614 65.5409C21.1698 65.2852 21.1688 64.9792 21.2584 64.6229C21.1429 64.718 21.003 64.7806 20.8387 64.8107C20.6718 64.8395 20.5221 64.8194 20.3896 64.7504C20.2233 64.6639 20.1105 64.5442 20.0514 64.3912C19.9897 64.2369 19.9529 64.0411 19.941 63.8037C19.7232 63.981 19.47 64.0804 19.1814 64.102C18.8941 64.121 18.6023 64.0534 18.3061 63.8992C17.989 63.7342 17.7558 63.5254 17.6066 63.2727C17.4561 63.0161 17.3913 62.7248 17.4123 62.3989C17.4346 62.0703 17.5452 61.715 17.744 61.333C17.7859 61.2524 17.8398 61.1616 17.9056 61.0604C17.9714 60.9593 18.0338 60.8679 18.0928 60.7863C18.1531 60.7021 18.1953 60.6464 18.2193 60.6193L19.0104 59.0989L19.6146 59.4133L19.4351 60.1868C19.5637 60.1744 19.6907 60.1811 19.8161 60.2067C19.9415 60.2323 20.0653 60.2769 20.1874 60.3404C20.6552 60.5838 20.9352 60.9375 21.0273 61.4016C21.1182 61.8617 21.0128 62.3815 20.7113 62.9611C20.6318 63.0948 20.5538 63.2193 20.4773 63.3347C20.4929 63.4188 20.5186 63.49 20.5544 63.5482C20.5902 63.6064 20.6366 63.6504 20.6938 63.6802C20.751 63.7099 20.8112 63.7116 20.8745 63.6851C20.9366 63.6546 21.0031 63.5967 21.0739 63.5114C21.1435 63.4221 21.2161 63.3047 21.2919 63.1591L21.6772 62.4184C21.926 61.9402 22.218 61.6298 22.5531 61.4871C22.8896 61.3418 23.2567 61.3726 23.6543 61.5795C24.1637 61.8446 24.4479 62.2632 24.5068 62.8355C24.5671 63.4052 24.3903 64.0876 23.9765 64.8829ZM23.2271 64.4286C23.3745 64.1453 23.4737 63.8881 23.5246 63.657C23.5794 63.4246 23.5858 63.2282 23.5439 63.0676C23.5045 62.9084 23.4173 62.7937 23.2821 62.7234C23.173 62.6666 23.069 62.6538 22.9702 62.6849C22.8754 62.7149 22.7812 62.788 22.6876 62.9045C22.5953 63.0183 22.4971 63.1753 22.393 63.3754L22.0725 63.9913C21.9968 64.1369 21.9519 64.2803 21.9378 64.4216C21.9251 64.5603 21.9428 64.685 21.9908 64.7959C22.0414 64.9081 22.1226 64.9933 22.2343 65.0514C22.3981 65.1366 22.5673 65.1256 22.742 65.0183C22.918 64.9084 23.0797 64.7119 23.2271 64.4286ZM20.0206 62.5175C20.1369 62.294 20.1533 62.0945 20.0696 61.9188C19.9859 61.7432 19.8259 61.5939 19.5894 61.4708C19.3269 61.3342 19.1022 61.2867 18.9155 61.3283C18.7275 61.3659 18.5774 61.4925 18.4652 61.7082C18.3516 61.9265 18.3327 62.1248 18.4084 62.3029C18.4816 62.4796 18.6494 62.6363 18.9119 62.7729C19.1484 62.8959 19.3632 62.94 19.5564 62.9051C19.751 62.8676 19.9057 62.7384 20.0206 62.5175Z" fill="white"/>
<path d="M15.5372 65.5745C15.7942 65.0807 16.1155 64.774 16.5014 64.6544C16.886 64.5309 17.3577 64.6145 17.9165 64.9052L20.7585 66.3839L20.1378 67.5768L17.5921 66.2523C17.2802 66.09 17.0173 66.0209 16.8033 66.045C16.5894 66.0691 16.4242 66.1928 16.3079 66.4164C16.1443 66.7308 16.1411 67.0132 16.2982 67.2633C16.4528 67.5122 16.7393 67.7455 17.1577 67.9632L19.3447 69.1011L18.7261 70.2901L16.1804 68.9656C15.9725 68.8574 15.7862 68.7902 15.6215 68.764C15.4568 68.7377 15.3144 68.7544 15.1942 68.8141C15.0739 68.8737 14.9746 68.9789 14.8962 69.1297C14.7813 69.3506 14.7465 69.5538 14.792 69.7393C14.8363 69.9208 14.9521 70.095 15.1394 70.2618C15.3255 70.4247 15.5731 70.5866 15.8824 70.7475L17.933 71.8144L17.3143 73.0034L12.9559 70.7357L13.4285 69.8274L14.0691 69.9576L14.1036 69.8913C13.9988 69.7245 13.9342 69.5505 13.9096 69.3693C13.8863 69.1855 13.8945 69.0015 13.9342 68.8174C13.9738 68.6332 14.0369 68.458 14.1235 68.2917C14.2898 67.972 14.4824 67.7288 14.7013 67.5619C14.9216 67.3925 15.1719 67.3048 15.4525 67.2989L15.5072 67.1936C15.3513 66.9474 15.2842 66.6796 15.3059 66.3904C15.329 66.0985 15.4061 65.8266 15.5372 65.5745Z" fill="white"/>
<path d="M16.0501 75.4345L15.1587 77.1475L10.4685 74.7073C10.3392 74.64 10.1812 74.5554 9.99465 74.4536C9.80439 74.35 9.61138 74.2425 9.41565 74.1313C9.21621 74.0181 9.03711 73.9155 8.87833 73.8235C8.90523 73.8892 8.94512 74.0156 8.99801 74.2028C9.04912 74.3844 9.093 74.5528 9.12963 74.7081L9.39347 76.0288L7.9325 76.3184L7.21212 72.6255L7.94478 71.2173L16.0501 75.4345Z" fill="white"/>
<path d="M9.53052 82.2225L8.14453 81.5013L9.69351 78.5242L11.0795 79.2454L9.53052 82.2225Z" fill="white"/>
<path d="M7.43377 82.0964C8.08796 82.4368 8.645 82.7924 9.1049 83.1632C9.56672 83.5303 9.91823 83.9198 10.1594 84.3318C10.4026 84.7401 10.5242 85.1744 10.5242 85.6346C10.5242 86.0949 10.3896 86.5838 10.1204 87.1012C9.78197 87.7517 9.33963 88.2002 8.79339 88.4467C8.24345 88.6913 7.6061 88.7518 6.88134 88.6283C6.15287 88.5029 5.35437 88.2143 4.48581 87.7624C3.60987 87.3066 2.90854 86.8267 2.38185 86.3225C1.85338 85.8127 1.53051 85.2643 1.41325 84.6773C1.29599 84.0903 1.41716 83.4512 1.77676 82.76C2.11329 82.1132 2.55652 81.6676 3.10645 81.423C3.65462 81.1728 4.29389 81.1086 5.02428 81.2303C5.75097 81.35 6.55413 81.6388 7.43377 82.0964ZM5.37135 86.0604C5.98858 86.3815 6.52148 86.6165 6.97004 86.7654C7.41683 86.9086 7.78602 86.9527 8.0776 86.8978C8.36919 86.8429 8.58998 86.6713 8.73998 86.383C8.88805 86.0984 8.90275 85.8219 8.78408 85.5535C8.66364 85.2795 8.41657 85.0007 8.04285 84.717C7.66544 84.4314 7.16627 84.1271 6.54535 83.804C5.92812 83.4828 5.39426 83.2497 4.94378 83.1045C4.49329 82.9594 4.12129 82.9161 3.82778 82.9748C3.5325 83.0278 3.31082 83.1966 3.16275 83.4812C3.01276 83.7695 3.00079 84.0497 3.12685 84.3219C3.24921 84.5923 3.4991 84.8702 3.87651 85.1558C4.25584 85.4377 4.75413 85.7392 5.37135 86.0604Z" fill="white"/>
<path d="M84.8372 8.69356C84.9784 8.9536 85.0467 9.20824 85.042 9.45748C85.0373 9.70672 84.9751 9.94216 84.8554 10.1638C84.7383 10.3841 84.5806 10.5847 84.3822 10.7658L84.3948 10.789C84.8787 10.5996 85.2979 10.552 85.6524 10.6462C86.0095 10.739 86.2887 10.9708 86.49 11.3416C86.6689 11.6711 86.7479 12.0099 86.7268 12.3581C86.7084 12.7048 86.5724 13.0437 86.3187 13.3747C86.0651 13.7058 85.6744 14.0146 85.1466 14.3012C84.835 14.4703 84.5301 14.6025 84.2318 14.6978C83.9375 14.7943 83.6439 14.8553 83.3512 14.8809L82.7997 13.8652C83.1088 13.8574 83.4134 13.8137 83.7136 13.7341C84.0123 13.6519 84.2763 13.5486 84.5054 13.4242C84.9328 13.1921 85.1916 12.9566 85.2819 12.7176C85.3733 12.4746 85.3463 12.2192 85.2009 11.9514C85.1157 11.7944 85.0038 11.6834 84.8652 11.6186C84.7267 11.5538 84.5429 11.5469 84.3139 11.5979C84.0875 11.6475 83.7979 11.7681 83.4452 11.9596L83.0165 12.1923L82.5196 11.2771L82.956 11.0401C83.3035 10.8514 83.55 10.6759 83.6953 10.5137C83.8417 10.3475 83.9164 10.1903 83.9192 10.0421C83.9233 9.88986 83.8854 9.74038 83.8058 9.59362C83.6967 9.3928 83.5497 9.26929 83.3646 9.22311C83.1795 9.17692 82.9427 9.23211 82.6544 9.38867C82.4742 9.48653 82.322 9.59917 82.1978 9.72659C82.0748 9.85004 81.9716 9.9761 81.8881 10.1048C81.8032 10.2309 81.7318 10.348 81.6738 10.4561L80.6749 9.93337C80.8097 9.65352 80.9964 9.38044 81.2352 9.11412C81.4765 8.8464 81.8032 8.60071 82.2151 8.37704C82.797 8.06112 83.3215 7.92804 83.7885 7.97781C84.2556 8.02758 84.6052 8.26616 84.8372 8.69356Z" fill="white"/>
<path d="M78.7036 12.0037C79.1928 11.7381 79.6308 11.6637 80.0175 11.7804C80.4054 11.8932 80.7497 12.2263 81.0502 12.7799L82.5788 15.5953L81.397 16.2369L80.0278 13.715C79.86 13.4061 79.6808 13.2017 79.4899 13.102C79.2991 13.0022 79.093 13.0125 78.8715 13.1327C78.56 13.3018 78.3994 13.5341 78.3897 13.8294C78.3786 14.1221 78.4856 14.4757 78.7107 14.8902L79.887 17.0568L78.7091 17.6963L77.3398 15.1744C77.228 14.9685 77.1112 14.8086 76.9893 14.6947C76.8675 14.5808 76.7401 14.515 76.6071 14.4972C76.4741 14.4794 76.3329 14.511 76.1836 14.5921C75.9647 14.7109 75.8223 14.86 75.7562 15.0392C75.6914 15.2144 75.6899 15.4235 75.7519 15.6666C75.815 15.9057 75.9297 16.1784 76.0961 16.4848L77.199 18.5162L76.0211 19.1558L73.6768 14.838L74.5767 14.3495L75.0349 14.8158L75.1005 14.7801C75.107 14.5833 75.1507 14.4028 75.2317 14.2388C75.3153 14.0735 75.425 13.9256 75.5608 13.7951C75.6967 13.6647 75.847 13.5547 76.0118 13.4653C76.3285 13.2933 76.6242 13.1994 76.899 13.1836C77.1763 13.1664 77.4329 13.2337 77.6688 13.3857L77.773 13.3291C77.7816 13.0378 77.8757 12.7783 78.0555 12.5507C78.2378 12.3217 78.4539 12.1393 78.7036 12.0037Z" fill="white"/>
<path d="M72.2996 13.8659L73.2604 20.655L72.1906 21.2358L71.2298 14.4468L72.2996 13.8659Z" fill="white"/>
<path d="M70.5764 24.5723C69.974 24.8994 69.4558 25.0441 69.0219 25.0063C68.592 24.9697 68.2743 24.7621 68.0688 24.3837C67.9276 24.1236 67.8906 23.862 67.9577 23.5989C68.0249 23.3357 68.1952 23.0816 68.4688 22.8363C68.3198 22.8506 68.1688 22.8242 68.0158 22.7573C67.8614 22.6877 67.7485 22.5873 67.6772 22.456C67.5878 22.2913 67.5613 22.1289 67.5979 21.9691C67.633 21.8066 67.7121 21.6237 67.835 21.4203C67.5553 21.4455 67.2898 21.3863 67.0385 21.2427C66.7897 21.0977 66.5857 20.8785 66.4263 20.585C66.2558 20.2709 66.1793 19.9673 66.197 19.6744C66.2158 19.3775 66.325 19.0998 66.5248 18.8414C66.727 18.5815 67.0174 18.3488 67.3959 18.1434C67.4757 18.1 67.5712 18.0548 67.6823 18.0078C67.7935 17.9608 67.8963 17.92 67.9909 17.8853C68.088 17.8493 68.1541 17.8267 68.1892 17.8177L69.6953 16.9999L70.0204 17.5985L69.4389 18.1392C69.5524 18.201 69.6539 18.2775 69.7435 18.3689C69.8332 18.4602 69.9108 18.5664 69.9765 18.6874C70.2281 19.1509 70.2623 19.6007 70.0791 20.0368C69.8971 20.469 69.519 20.841 68.9448 21.1527C68.8042 21.2191 68.6698 21.2787 68.5418 21.3315C68.5078 21.41 68.4893 21.4834 68.4864 21.5517C68.4834 21.62 68.4973 21.6824 68.5281 21.739C68.5588 21.7957 68.6079 21.8307 68.6752 21.8442C68.7437 21.8537 68.8311 21.8429 68.9376 21.8117C69.0452 21.7766 69.1711 21.72 69.3153 21.6417L70.0491 21.2433C70.5228 20.9861 70.9385 20.892 71.2961 20.9612C71.6563 21.029 71.9433 21.2599 72.1572 21.6538C72.4312 22.1585 72.4325 22.6644 72.1613 23.1718C71.8926 23.6777 71.3643 24.1445 70.5764 24.5723ZM70.2094 23.7765C70.49 23.6241 70.7161 23.4664 70.8875 23.3033C71.063 23.1414 71.1782 22.9821 71.2332 22.8256C71.2896 22.6716 71.2815 22.5277 71.2088 22.3938C71.1501 22.2856 71.0711 22.2169 70.9718 22.1874C70.8764 22.1592 70.7574 22.1672 70.6147 22.2113C70.4745 22.2541 70.3053 22.3292 70.1071 22.4369L69.4969 22.7682C69.3527 22.8465 69.2353 22.9402 69.1446 23.0495C69.0565 23.1573 69.0013 23.2706 68.9791 23.3894C68.9583 23.5107 68.9779 23.6267 69.038 23.7374C69.1261 23.8996 69.2725 23.9851 69.4773 23.9939C69.6847 24.0013 69.9287 23.9289 70.2094 23.7765ZM68.6205 20.3988C68.8419 20.2785 68.967 20.1223 68.9959 19.9299C69.0248 19.7375 68.9757 19.5242 68.8485 19.2899C68.7073 19.0298 68.5477 18.8648 68.3696 18.7948C68.1928 18.7208 67.9975 18.7418 67.7838 18.8578C67.5675 18.9753 67.441 19.129 67.4041 19.319C67.3659 19.5064 67.4174 19.7302 67.5586 19.9902C67.6858 20.2245 67.8392 20.3812 68.0189 20.4604C68.2011 20.5381 68.4016 20.5176 68.6205 20.3988Z" fill="white"/>
<path d="M63.1939 20.4247C63.683 20.1591 64.121 20.0847 64.5077 20.2014C64.8957 20.3142 65.2399 20.6473 65.5404 21.2009L67.0691 24.0163L65.8873 24.6579L64.518 22.136C64.3503 21.8271 64.171 21.6227 63.9802 21.523C63.7893 21.4232 63.5832 21.4335 63.3618 21.5537C63.0502 21.7228 62.8896 21.9551 62.8799 22.2503C62.8688 22.5431 62.9758 22.8967 63.2009 23.3112L64.3772 25.4778L63.1993 26.1173L61.8301 23.5954C61.7182 23.3895 61.6014 23.2295 61.4796 23.1157C61.3577 23.0018 61.2303 22.936 61.0973 22.9182C60.9643 22.9004 60.8231 22.932 60.6738 23.0131C60.455 23.1319 60.3125 23.2809 60.2465 23.4601C60.1816 23.6354 60.1801 23.8445 60.2421 24.0876C60.3052 24.3267 60.42 24.5994 60.5863 24.9058L61.6893 26.9372L60.5114 27.5767L58.1671 23.259L59.0669 22.7705L59.5251 23.2367L59.5908 23.2011C59.5972 23.0042 59.641 22.8238 59.7219 22.6598C59.8055 22.4945 59.9152 22.3465 60.0511 22.2161C60.1869 22.0857 60.3373 21.9757 60.502 21.8863C60.8187 21.7143 61.1144 21.6204 61.3892 21.6046C61.6666 21.5874 61.9231 21.6547 62.159 21.8067L62.2633 21.7501C62.2718 21.4588 62.3659 21.1993 62.5457 20.9717C62.7281 20.7426 62.9441 20.5603 63.1939 20.4247Z" fill="white"/>
<path d="M59.5201 28.115L53.9071 31.1626L53.266 29.9817L54.1753 26.8498C54.3551 26.2117 54.4921 25.6869 54.5863 25.2755C54.6822 24.8584 54.7225 24.5046 54.7071 24.2143C54.6953 23.922 54.6179 23.6441 54.4748 23.3805C54.3018 23.0619 54.0829 22.8726 53.818 22.8126C53.5548 22.7469 53.2749 22.7946 52.9783 22.9556C52.6671 23.1246 52.4038 23.36 52.1884 23.6618C51.973 23.9637 51.7776 24.3329 51.6022 24.7694L50.0861 24.1775C50.2094 23.8545 50.3515 23.5356 50.5124 23.2207C50.677 22.9038 50.9007 22.5998 51.1835 22.3087C51.4681 22.012 51.8502 21.7334 52.3298 21.473C52.857 21.1868 53.3609 21.0364 53.8414 21.0221C54.3256 21.0057 54.7597 21.1066 55.1436 21.3249C55.5256 21.5394 55.8289 21.8535 56.0535 22.2673C56.2941 22.7103 56.4259 23.1626 56.4489 23.6242C56.472 24.0857 56.4125 24.5874 56.2704 25.1291C56.1321 25.6688 55.945 26.2848 55.7092 26.9769L55.2045 28.5096L55.2463 28.5865L58.7448 26.687L59.5201 28.115Z" fill="white"/>
<path d="M48.9027 30.8646L48.1572 29.4915L51.1065 27.8902L51.852 29.2633L48.9027 30.8646Z" fill="white"/>
<path d="M48.0416 34.3473L46.3445 35.2687L43.8218 30.6223C43.7522 30.4942 43.6686 30.3357 43.5709 30.147C43.4711 29.9546 43.3713 29.7576 43.2712 29.5559C43.1692 29.3505 43.0782 29.1653 42.998 29.0003C42.9836 29.0697 42.9459 29.1968 42.885 29.3816C42.8258 29.5607 42.768 29.7248 42.7115 29.874L42.1914 31.1164L40.8184 30.5392L42.287 27.0751L43.682 26.3177L48.0416 34.3473Z" fill="white"/>
<path d="M153.364 5.69591C153.363 5.99181 153.301 6.24801 153.177 6.4645C153.054 6.68099 152.886 6.85782 152.675 6.995C152.467 7.13218 152.232 7.23267 151.971 7.29648L151.971 7.32285C152.487 7.38858 152.877 7.54775 153.143 7.80036C153.412 8.05298 153.546 8.39022 153.545 8.81209C153.544 9.18709 153.451 9.52231 153.266 9.81776C153.083 10.1132 152.802 10.3454 152.42 10.5144C152.039 10.6834 151.548 10.7671 150.948 10.7656C150.593 10.7648 150.262 10.7347 149.955 10.6753C149.65 10.6189 149.363 10.5317 149.094 10.4139L149.097 9.25813C149.372 9.39944 149.66 9.50708 149.962 9.58107C150.263 9.65213 150.544 9.68798 150.805 9.68863C151.292 9.68983 151.632 9.60717 151.825 9.44066C152.022 9.27122 152.121 9.03416 152.122 8.72947C152.122 8.55076 152.077 8.39977 151.986 8.2765C151.896 8.15323 151.738 8.05909 151.512 7.99408C151.29 7.92908 150.978 7.89608 150.577 7.89509L150.089 7.89388L150.091 6.85238L150.588 6.85361C150.984 6.85459 151.284 6.81871 151.489 6.74597C151.697 6.67031 151.838 6.56812 151.912 6.4394C151.988 6.30775 152.027 6.15843 152.027 5.99144C152.028 5.76292 151.958 5.58404 151.818 5.45479C151.677 5.32553 151.443 5.2605 151.115 5.25969C150.91 5.25918 150.722 5.28509 150.552 5.3374C150.385 5.38679 150.234 5.44794 150.099 5.52085C149.964 5.59083 149.845 5.65939 149.743 5.72652L149.117 4.78893C149.369 4.60791 149.664 4.45776 150.001 4.33848C150.341 4.2192 150.746 4.16014 151.214 4.1613C151.876 4.16294 152.401 4.29753 152.787 4.56509C153.173 4.83265 153.365 5.20959 153.364 5.69591Z" fill="white"/>
<path d="M146.395 5.66111C146.952 5.66249 147.372 5.80708 147.655 6.09489C147.942 6.37978 148.084 6.83717 148.082 7.46705L148.075 10.6706L146.73 10.6673L146.737 7.79771C146.738 7.44614 146.678 7.18086 146.559 7.00185C146.439 6.82285 146.253 6.73303 146.001 6.73241C145.647 6.73153 145.394 6.85835 145.244 7.11286C145.094 7.36445 145.019 7.72608 145.018 8.19775L145.012 10.6631L143.671 10.6598L143.678 7.79015C143.679 7.55577 143.653 7.35942 143.601 7.20109C143.548 7.04275 143.468 6.9239 143.36 6.84453C143.252 6.76516 143.113 6.72527 142.943 6.72485C142.694 6.72423 142.497 6.78674 142.353 6.91236C142.212 7.03506 142.111 7.21791 142.049 7.46092C141.99 7.70101 141.96 7.99537 141.959 8.344L141.953 10.6555L140.613 10.6522L140.625 5.73914L141.649 5.74167L141.827 6.37053L141.902 6.37071C142.002 6.20104 142.127 6.06365 142.277 5.95855C142.429 5.85346 142.596 5.77624 142.778 5.72688C142.96 5.67752 143.145 5.65308 143.332 5.65354C143.692 5.65443 143.997 5.71378 144.246 5.83158C144.497 5.94939 144.69 6.13151 144.824 6.37794L144.943 6.37823C145.09 6.12664 145.297 5.94404 145.564 5.83045C145.834 5.71685 146.111 5.66041 146.395 5.66111Z" fill="white"/>
<path d="M139.881 4.22557L137.47 10.6444L136.253 10.6414L138.664 4.22256L139.881 4.22557Z" fill="white"/>
<path d="M133.238 12.7961C132.552 12.7944 132.028 12.673 131.665 12.4319C131.306 12.1937 131.126 11.8592 131.127 11.4286C131.128 11.1327 131.221 10.8853 131.406 10.6866C131.591 10.4878 131.862 10.3464 132.22 10.2623C132.082 10.2034 131.963 10.1079 131.86 9.97579C131.758 9.84077 131.707 9.69855 131.708 9.54914C131.708 9.36164 131.763 9.2065 131.871 9.08372C131.98 8.95802 132.137 8.83536 132.342 8.71575C132.085 8.60378 131.88 8.42456 131.729 8.17809C131.58 7.93163 131.506 7.64141 131.507 7.30743C131.507 6.95001 131.586 6.64698 131.742 6.39834C131.901 6.14677 132.13 5.95545 132.429 5.82435C132.731 5.69326 133.097 5.62825 133.528 5.62931C133.619 5.62954 133.724 5.63566 133.844 5.64767C133.964 5.65969 134.074 5.67314 134.174 5.68804C134.276 5.70294 134.345 5.71483 134.38 5.7237L136.094 5.72794L136.092 6.40909L135.323 6.60494C135.393 6.71351 135.445 6.82937 135.48 6.9525C135.515 7.07563 135.532 7.20605 135.532 7.34374C135.531 7.87108 135.345 8.28225 134.975 8.57723C134.608 8.8693 134.098 9.01452 133.445 9.01291C133.29 9.00373 133.143 8.99165 133.005 8.97666C132.938 9.02923 132.886 9.08477 132.851 9.14327C132.816 9.20178 132.798 9.26326 132.798 9.32771C132.798 9.39217 132.824 9.44643 132.877 9.49051C132.932 9.53166 133.014 9.56409 133.123 9.58779C133.234 9.60858 133.371 9.61917 133.536 9.61958L134.37 9.62164C134.91 9.62297 135.319 9.73971 135.6 9.97185C135.884 10.204 136.025 10.5442 136.024 10.9924C136.022 11.5666 135.781 12.0114 135.3 12.3266C134.822 12.6418 134.134 12.7983 133.238 12.7961ZM133.297 11.9217C133.616 11.9225 133.89 11.8924 134.119 11.8315C134.351 11.7735 134.528 11.6889 134.651 11.5779C134.775 11.4698 134.836 11.3396 134.837 11.1873C134.837 11.0642 134.801 10.966 134.728 10.8925C134.658 10.8221 134.549 10.772 134.403 10.7423C134.259 10.7127 134.075 10.6976 133.849 10.697L133.155 10.6953C132.991 10.6949 132.843 10.7209 132.711 10.7733C132.582 10.8257 132.479 10.8987 132.403 10.9923C132.326 11.0888 132.288 11.2 132.288 11.326C132.287 11.5105 132.375 11.6558 132.55 11.7617C132.729 11.8676 132.978 11.9209 133.297 11.9217ZM133.521 8.19571C133.773 8.19633 133.958 8.11915 134.076 7.96417C134.193 7.80919 134.252 7.59839 134.253 7.33179C134.254 7.03589 134.193 6.81455 134.07 6.66776C133.95 6.51805 133.769 6.4429 133.526 6.4423C133.28 6.44169 133.095 6.51594 132.972 6.66505C132.848 6.81123 132.786 7.03227 132.785 7.32816C132.785 7.59477 132.844 7.80585 132.964 7.96142C133.087 8.117 133.272 8.19509 133.521 8.19571Z" fill="white"/>
<path d="M128.747 5.61747C129.303 5.61885 129.723 5.76344 130.007 6.05125C130.293 6.33614 130.436 6.79353 130.434 7.42341L130.426 10.627L129.081 10.6237L129.088 7.75407C129.089 7.4025 129.03 7.13722 128.91 6.95821C128.791 6.77921 128.605 6.68939 128.353 6.68877C127.998 6.68789 127.746 6.81471 127.596 7.06922C127.446 7.32081 127.37 7.68244 127.369 8.15411L127.363 10.6194L126.023 10.6161L126.03 7.74651C126.03 7.51213 126.005 7.31578 125.952 7.15745C125.9 6.99911 125.82 6.88026 125.711 6.80089C125.603 6.72152 125.464 6.68163 125.294 6.68121C125.045 6.68059 124.849 6.7431 124.705 6.86872C124.564 6.99142 124.462 7.17427 124.4 7.41728C124.341 7.65737 124.311 7.95173 124.31 8.30036L124.305 10.6119L122.964 10.6086L122.976 5.6955L124 5.69803L124.179 6.32689L124.254 6.32707C124.354 6.1574 124.478 6.02001 124.628 5.91491C124.781 5.80982 124.948 5.7326 125.13 5.68324C125.311 5.63388 125.496 5.60944 125.684 5.6099C126.044 5.61079 126.348 5.67014 126.597 5.78794C126.849 5.90575 127.042 6.08787 127.176 6.3343L127.295 6.33459C127.442 6.083 127.649 5.9004 127.916 5.78681C128.185 5.67321 128.462 5.61677 128.747 5.61747Z" fill="white"/>
<path d="M121.797 6.03732C121.795 6.77476 121.735 7.43289 121.617 8.01171C121.503 8.59055 121.319 9.08172 121.064 9.48523C120.813 9.88874 120.483 10.1962 120.074 10.4077C119.665 10.6192 119.169 10.7242 118.586 10.7227C117.853 10.7209 117.251 10.534 116.781 10.1621C116.311 9.78595 115.965 9.24764 115.741 8.54715C115.518 7.84249 115.408 7.00061 115.41 6.02153C115.413 5.03412 115.517 4.1907 115.723 3.49126C115.933 2.78767 116.272 2.24897 116.739 1.87516C117.207 1.50134 117.83 1.3154 118.609 1.31733C119.338 1.31913 119.938 1.50809 120.408 1.88422C120.882 2.2562 121.232 2.79452 121.46 3.49919C121.687 4.1997 121.8 5.04574 121.797 6.03732ZM117.329 6.02628C117.327 6.72205 117.363 7.30334 117.437 7.77015C117.515 8.23281 117.645 8.58102 117.828 8.81478C118.011 9.04855 118.265 9.16583 118.59 9.16664C118.91 9.16743 119.163 9.05348 119.347 8.82479C119.535 8.59194 119.669 8.24438 119.749 7.78212C119.83 7.31569 119.871 6.7325 119.872 6.03256C119.874 5.33679 119.836 4.75549 119.758 4.28867C119.68 3.82185 119.547 3.47155 119.361 3.23778C119.178 2.99984 118.926 2.88048 118.605 2.87969C118.28 2.87889 118.026 2.997 117.842 3.23402C117.658 3.46688 117.526 3.81653 117.446 4.28296C117.369 4.7494 117.331 5.3305 117.329 6.02628Z" fill="white"/>
<path d="M112.899 10.5837L110.968 10.5789L110.981 5.29188C110.981 5.14606 110.984 4.96691 110.988 4.75444C110.993 4.5378 111 4.31701 111.009 4.09205C111.018 3.86292 111.027 3.65671 111.035 3.47341C110.989 3.52746 110.895 3.62097 110.753 3.75394C110.616 3.88276 110.486 3.99909 110.365 4.10295L109.313 4.94403L108.385 3.77933L111.334 1.44307L112.921 1.44699L112.899 10.5837Z" fill="white"/>
<path d="M103.875 7.91161L103.879 6.34924L107.235 6.35754L107.231 7.9199L103.875 7.91161Z" fill="white"/>
<path d="M103.062 10.5594L96.6749 10.5436L96.6783 9.19997L98.9775 6.88709C99.4412 6.41328 99.813 6.01839 100.093 5.70245C100.377 5.38234 100.582 5.0912 100.707 4.82904C100.837 4.56688 100.903 4.28581 100.903 3.98584C100.904 3.62337 100.803 3.35231 100.599 3.17265C100.4 2.98884 100.131 2.89652 99.7936 2.89569C99.4395 2.89481 99.0955 2.9752 98.7618 3.13687C98.4281 3.29853 98.0797 3.5289 97.7165 3.82798L96.6696 2.58174C96.9327 2.35741 97.2102 2.14561 97.5024 1.94635C97.7987 1.7471 98.1407 1.58754 98.5285 1.46768C98.9204 1.34365 99.3893 1.28232 99.9351 1.28367C100.535 1.28515 101.049 1.39475 101.478 1.61245C101.911 1.83017 102.243 2.1268 102.476 2.50235C102.708 2.87373 102.824 3.29481 102.822 3.7656C102.821 4.26972 102.72 4.72985 102.519 5.14599C102.318 5.56212 102.025 5.97387 101.641 6.38122C101.261 6.78858 100.802 7.23949 100.263 7.73395L99.0852 8.8372L99.085 8.92469L103.066 8.93453L103.062 10.5594Z" fill="white"/>
<path d="M245.886 82.9216C245.633 83.0745 245.381 83.1543 245.132 83.161C244.883 83.1676 244.645 83.1162 244.418 83.0068C244.193 82.8998 243.985 82.7514 243.795 82.5615L243.773 82.5751C243.984 83.0498 244.05 83.4665 243.972 83.8249C243.896 84.1858 243.677 84.4753 243.316 84.6933C242.995 84.887 242.66 84.9813 242.311 84.9762C241.964 84.9736 241.619 84.8531 241.277 84.6148C240.935 84.3765 240.609 84.0003 240.298 83.4861C240.115 83.1826 239.969 82.884 239.86 82.5903C239.751 82.3007 239.676 82.0102 239.637 81.7189L240.627 81.1218C240.649 81.4302 240.706 81.7325 240.799 82.0287C240.895 82.3234 241.01 82.5824 241.145 82.8056C241.396 83.222 241.644 83.4698 241.886 83.5491C242.133 83.6294 242.387 83.5908 242.648 83.4334C242.801 83.341 242.907 83.2242 242.965 83.0828C243.024 82.9415 243.022 82.7576 242.961 82.5312C242.901 82.3072 242.767 82.0235 242.56 81.6798L242.308 81.2622L243.2 80.7241L243.456 81.1492C243.661 81.4878 243.847 81.726 244.016 81.8638C244.188 82.0025 244.349 82.0699 244.497 82.066C244.649 82.0631 244.797 82.0185 244.94 81.9322C245.135 81.8142 245.252 81.6616 245.29 81.4746C245.328 81.2876 245.262 81.0537 245.092 80.7727C244.986 80.5971 244.867 80.4502 244.734 80.332C244.605 80.2148 244.474 80.1174 244.342 80.0398C244.212 79.9608 244.092 79.8948 243.981 79.8418L244.458 78.8201C244.744 78.942 245.025 79.1161 245.302 79.3425C245.58 79.5714 245.841 79.8865 246.083 80.2879C246.425 80.8547 246.582 81.3726 246.553 81.8415C246.525 82.3103 246.302 82.6704 245.886 82.9216Z" fill="white"/>
<path d="M242.3 76.9453C242.587 77.4218 242.682 77.856 242.583 78.2476C242.488 78.6403 242.17 78.9993 241.631 79.3248L238.888 80.98L238.194 79.8287L240.65 78.346C240.951 78.1643 241.147 77.9759 241.238 77.7808C241.329 77.5856 241.31 77.3801 241.179 77.1644C240.996 76.8609 240.757 76.711 240.462 76.7148C240.169 76.7171 239.82 76.84 239.416 77.0837L237.306 78.3575L236.613 77.21L239.07 75.7273C239.271 75.6062 239.425 75.4822 239.533 75.3553C239.642 75.2284 239.702 75.0981 239.713 74.9645C239.725 74.8308 239.687 74.6912 239.599 74.5457C239.471 74.3325 239.315 74.197 239.133 74.1392C238.955 74.0824 238.746 74.0904 238.506 74.1634C238.27 74.2373 238.003 74.3644 237.704 74.5445L235.725 75.7388L235.033 74.5913L239.239 72.0528L239.768 72.9294L239.323 73.4084L239.362 73.4724C239.559 73.4698 239.741 73.5053 239.909 73.5787C240.078 73.6547 240.23 73.7575 240.367 73.8873C240.503 74.0171 240.62 74.1623 240.717 74.3228C240.903 74.6313 241.01 74.9225 241.039 75.1962C241.069 75.4725 241.013 75.7319 240.872 75.9744L240.933 76.076C241.225 76.0712 241.488 76.1535 241.724 76.3227C241.961 76.4944 242.153 76.7019 242.3 76.9453Z" fill="white"/>
<path d="M240.148 70.6321L233.409 71.9011L232.78 70.8589L239.519 69.5899L240.148 70.6321Z" fill="white"/>
<path d="M229.374 69.3987C229.02 68.8117 228.852 68.3007 228.87 67.8655C228.887 67.4344 229.08 67.1076 229.449 66.885C229.702 66.7322 229.962 66.6833 230.228 66.7384C230.494 66.7935 230.755 66.9521 231.013 67.2142C230.992 67.066 231.011 66.914 231.071 66.7581C231.133 66.6006 231.229 66.4833 231.356 66.4061C231.517 66.3093 231.678 66.2754 231.839 66.3047C232.003 66.3324 232.19 66.403 232.398 66.5165C232.36 66.2383 232.407 65.9703 232.539 65.7128C232.673 65.4577 232.883 65.2439 233.169 65.0713C233.475 64.8866 233.774 64.7964 234.068 64.8007C234.365 64.806 234.648 64.9025 234.915 65.0902C235.184 65.2804 235.429 65.5599 235.652 65.9287C235.699 66.0064 235.748 66.0997 235.8 66.2086C235.852 66.3175 235.898 66.4184 235.937 66.5113C235.977 66.6066 236.003 66.6716 236.013 66.7063L236.899 68.1736L236.316 68.5256L235.749 67.9693C235.693 68.0855 235.621 68.1905 235.534 68.2841C235.446 68.3778 235.344 68.4602 235.226 68.5314C234.774 68.8038 234.327 68.8585 233.883 68.6953C233.443 68.5332 233.054 68.1724 232.716 67.613C232.643 67.4756 232.578 67.3441 232.519 67.2186C232.439 67.1882 232.365 67.173 232.297 67.1732C232.228 67.1734 232.167 67.1901 232.111 67.2234C232.056 67.2567 232.024 67.3073 232.013 67.3752C232.007 67.444 232.022 67.5309 232.058 67.6358C232.097 67.7417 232.16 67.8649 232.245 68.0054L232.676 68.7203C232.955 69.1818 233.067 69.5928 233.015 69.9531C232.963 70.316 232.746 70.6133 232.362 70.8449C231.87 71.1416 231.365 71.166 230.846 70.9181C230.328 70.6727 229.838 70.1662 229.374 69.3987ZM230.153 68.9958C230.318 69.2692 230.486 69.4878 230.656 69.6517C230.826 69.8195 230.99 69.9274 231.149 69.9752C231.306 70.0246 231.449 70.0099 231.58 69.9312C231.685 69.8676 231.75 69.7855 231.775 69.685C231.799 69.5885 231.785 69.4699 231.735 69.3294C231.686 69.1913 231.603 69.0257 231.486 68.8326L231.128 68.2381C231.043 68.0976 230.944 67.9846 230.83 67.899C230.719 67.8158 230.603 67.7659 230.483 67.7491C230.361 67.7339 230.246 67.7588 230.138 67.8239C229.98 67.9192 229.902 68.0694 229.902 68.2744C229.904 68.4819 229.988 68.7223 230.153 68.9958ZM233.455 67.2547C233.585 67.4704 233.747 67.5883 233.94 67.6084C234.134 67.6285 234.344 67.5697 234.573 67.4319C234.826 67.2791 234.984 67.1121 235.045 66.9311C235.111 66.751 235.081 66.5569 234.956 66.3487C234.829 66.138 234.669 66.0186 234.478 65.9904C234.289 65.9608 234.068 66.0224 233.814 66.1753C233.586 66.313 233.436 66.4734 233.366 66.6565C233.296 66.8421 233.326 67.0415 233.455 67.2547Z" fill="white"/>
<path d="M233.181 61.8351C233.469 62.3116 233.563 62.7458 233.464 63.1374C233.369 63.5301 233.052 63.8891 232.513 64.2146L229.77 65.8698L229.075 64.7185L231.532 63.2358C231.833 63.0541 232.029 62.8657 232.12 62.6706C232.211 62.4754 232.192 62.2699 232.061 62.0542C231.878 61.7507 231.639 61.6008 231.343 61.6046C231.051 61.6069 230.702 61.7298 230.298 61.9736L228.188 63.2473L227.495 62.0998L229.952 60.6171C230.153 60.496 230.307 60.372 230.415 60.2451C230.523 60.1182 230.583 59.9879 230.595 59.8543C230.607 59.7206 230.569 59.581 230.481 59.4355C230.352 59.2223 230.197 59.0868 230.015 59.029C229.837 58.9722 229.628 58.9802 229.388 59.0532C229.152 59.1271 228.885 59.2542 228.586 59.4343L226.607 60.6286L225.915 59.4811L230.121 56.9426L230.65 57.8192L230.205 58.2982L230.244 58.3622C230.441 58.3596 230.623 58.3951 230.791 58.4685C230.96 58.5445 231.112 58.6473 231.249 58.7771C231.385 58.9069 231.502 59.0521 231.599 59.2126C231.785 59.5211 231.892 59.8123 231.921 60.086C231.95 60.3623 231.895 60.6217 231.754 60.8642L231.815 60.9658C232.107 60.961 232.37 61.0433 232.606 61.2125C232.843 61.3842 233.035 61.5917 233.181 61.8351Z" fill="white"/>
<path d="M227.593 55.1938L228.472 56.6499L227.648 57.1471L226.769 55.691L225.321 56.5652L224.823 55.7412L226.272 54.867L225.393 53.4109L226.217 52.9137L227.096 54.3698L228.563 53.4843L229.061 54.3082L227.593 55.1938Z" fill="white"/>
<path d="M223.951 53.6498L223.551 52.9876L222.411 53.6755L221.726 52.5393L222.866 51.8513L221.449 49.5035L222.258 49.0153L227.265 49.2836L227.912 50.356L224.454 52.4426L224.854 53.1048L223.951 53.6498ZM223.769 51.3063L224.702 50.7432C224.79 50.6903 224.894 50.6287 225.016 50.5585C225.14 50.4909 225.263 50.4233 225.387 50.3556C225.51 50.288 225.62 50.2287 225.716 50.1777C225.815 50.1277 225.885 50.0926 225.924 50.0724L225.906 50.0423C225.774 50.0567 225.644 50.0671 225.514 50.0734C225.387 50.0783 225.249 50.0774 225.102 50.0707L222.969 49.9819L223.769 51.3063Z" fill="white"/>
<path d="M224.216 47.0124C223.963 47.1653 223.711 47.245 223.462 47.2517C223.213 47.2584 222.975 47.207 222.748 47.0975C222.523 46.9906 222.315 46.8421 222.125 46.6522L222.103 46.6658C222.314 47.1406 222.381 47.5572 222.303 47.9156C222.226 48.2766 222.007 48.566 221.646 48.784C221.325 48.9778 220.99 49.0721 220.641 49.0669C220.294 49.0643 219.949 48.9438 219.607 48.7055C219.265 48.4673 218.939 48.091 218.628 47.5768C218.445 47.2733 218.299 46.9747 218.19 46.6811C218.081 46.3914 218.006 46.101 217.967 45.8097L218.957 45.2125C218.979 45.5209 219.036 45.8233 219.13 46.1195C219.225 46.4141 219.341 46.6731 219.475 46.8963C219.727 47.3127 219.974 47.5606 220.216 47.6398C220.463 47.7201 220.717 47.6815 220.978 47.5241C221.131 47.4317 221.237 47.3149 221.295 47.1736C221.354 47.0322 221.352 46.8484 221.291 46.6219C221.231 46.398 221.097 46.1142 220.89 45.7705L220.638 45.3529L221.53 44.8148L221.786 45.2399C221.991 45.5786 222.177 45.8167 222.346 45.9545C222.518 46.0932 222.679 46.1606 222.827 46.1567C222.979 46.1538 223.127 46.1093 223.27 46.023C223.466 45.9049 223.582 45.7524 223.62 45.5654C223.658 45.3784 223.592 45.1444 223.422 44.8635C223.316 44.6879 223.197 44.541 223.064 44.4227C222.935 44.3055 222.804 44.2081 222.672 44.1306C222.542 44.0515 222.422 43.9855 222.311 43.9325L222.788 42.9108C223.074 43.0327 223.355 43.2068 223.632 43.4332C223.91 43.6621 224.171 43.9773 224.413 44.3786C224.755 44.9455 224.912 45.4633 224.883 45.9322C224.855 46.401 224.632 46.7611 224.216 47.0124Z" fill="white"/>
<path d="M215.124 36.6954C214.974 36.9502 214.79 37.1397 214.574 37.2639C214.358 37.388 214.124 37.4557 213.872 37.4671C213.623 37.4799 213.37 37.4478 213.113 37.3708L213.099 37.3935C213.511 37.7111 213.767 38.0462 213.868 38.3987C213.972 38.7526 213.917 39.1113 213.703 39.4746C213.512 39.7975 213.262 40.0395 212.953 40.2005C212.646 40.3629 212.285 40.4205 211.871 40.3732C211.457 40.326 210.991 40.1497 210.474 39.8444C210.168 39.6641 209.898 39.4706 209.663 39.2638C209.429 39.061 209.226 38.8406 209.053 38.6026L209.641 37.6074C209.806 37.8685 210.001 38.1072 210.223 38.3237C210.447 38.5377 210.672 38.7109 210.896 38.8435C211.315 39.0907 211.65 39.1916 211.901 39.146C212.157 39.0995 212.362 38.945 212.517 38.6827C212.608 38.5288 212.645 38.3757 212.63 38.2236C212.614 38.0715 212.525 37.9103 212.364 37.7401C212.205 37.5715 211.953 37.3851 211.607 37.1811L211.187 36.9331L211.716 36.0362L212.144 36.2886C212.485 36.4897 212.762 36.6108 212.976 36.652C213.194 36.6921 213.367 36.6753 213.495 36.6015C213.628 36.5267 213.737 36.4174 213.822 36.2736C213.938 36.0768 213.968 35.8872 213.913 35.7047C213.857 35.5222 213.688 35.3476 213.405 35.1808C213.229 35.0765 213.054 35.0039 212.881 34.9629C212.712 34.9209 212.55 34.8972 212.397 34.8918C212.245 34.8838 212.108 34.8828 211.986 34.8887L211.92 33.7632C212.23 33.7348 212.56 33.7546 212.911 33.8224C213.265 33.8917 213.643 34.0455 214.047 34.2838C214.617 34.6204 215.001 35.0018 215.199 35.428C215.396 35.8541 215.371 36.2766 215.124 36.6954Z" fill="white"/>
<path d="M209.131 33.1372C209.61 33.4201 209.899 33.7575 209.998 34.1492C210.101 34.5399 209.992 35.0064 209.672 35.5488L208.043 38.3076L206.885 37.624L208.344 35.1528C208.523 34.8501 208.606 34.5912 208.593 34.3763C208.581 34.1613 208.466 33.9898 208.249 33.8617C207.944 33.6815 207.662 33.6632 207.404 33.8067C207.147 33.9477 206.899 34.2213 206.659 34.6275L205.406 36.7505L204.252 36.0692L205.71 33.598C205.829 33.3962 205.907 33.2137 205.942 33.0507C205.977 32.8876 205.967 32.7445 205.914 32.6213C205.861 32.4981 205.761 32.3932 205.615 32.3069C205.401 32.1803 205.2 32.1347 205.012 32.1702C204.828 32.2047 204.648 32.311 204.472 32.4891C204.299 32.6662 204.124 32.9049 203.947 33.2051L202.772 35.1957L201.618 34.5143L204.115 30.2834L204.997 30.8039L204.833 31.4367L204.897 31.4747C205.069 31.379 205.246 31.3237 205.429 31.3088C205.613 31.2954 205.797 31.3135 205.978 31.3629C206.16 31.4124 206.332 31.4848 206.493 31.5801C206.804 31.7633 207.036 31.9686 207.191 32.1961C207.348 32.4251 207.423 32.6798 207.414 32.9603L207.516 33.0206C207.77 32.8781 208.041 32.8254 208.329 32.8625C208.619 32.9012 208.886 32.9927 209.131 33.1372Z" fill="white"/>
<path d="M204.24 28.6018L198.911 32.917L197.863 32.2982L203.191 27.983L204.24 28.6018Z" fill="white"/>
<path d="M194.172 32.6298C193.581 32.2813 193.191 31.9113 193 31.5198C192.81 31.1322 192.825 30.753 193.044 30.3821C193.194 30.1273 193.4 29.9611 193.66 29.8833C193.92 29.8056 194.226 29.821 194.577 29.9295C194.488 29.8091 194.433 29.666 194.412 29.5004C194.392 29.3322 194.42 29.1838 194.496 29.0551C194.591 28.8936 194.717 28.7875 194.873 28.7366C195.03 28.6832 195.228 28.6569 195.465 28.6578C195.3 28.4308 195.214 28.1727 195.208 27.8833C195.204 27.5954 195.288 27.3077 195.457 27.0201C195.639 26.7123 195.86 26.4906 196.12 26.3551C196.385 26.2186 196.679 26.1695 197.003 26.2079C197.33 26.2477 197.679 26.3771 198.05 26.5961C198.128 26.6422 198.216 26.7009 198.314 26.7721C198.411 26.8432 198.499 26.9104 198.577 26.9737C198.658 27.0384 198.711 27.0835 198.737 27.1089L200.213 27.9802L199.867 28.5668L199.104 28.3461C199.11 28.4752 199.096 28.6017 199.064 28.7255C199.032 28.8493 198.98 28.9705 198.91 29.0891C198.642 29.5432 198.274 29.8039 197.806 29.871C197.342 29.9372 196.828 29.8042 196.266 29.472C196.136 29.3855 196.016 29.301 195.905 29.2184C195.82 29.2295 195.748 29.2514 195.688 29.284C195.628 29.3166 195.581 29.3606 195.548 29.4161C195.516 29.4716 195.511 29.5317 195.534 29.5964C195.561 29.66 195.615 29.7294 195.697 29.8047C195.782 29.879 195.895 29.9578 196.037 30.0412L196.756 30.4657C197.22 30.7397 197.514 31.0478 197.639 31.3901C197.766 31.7339 197.716 32.0988 197.488 32.4848C197.196 32.9793 196.762 33.2406 196.188 33.2689C195.616 33.2986 194.944 33.0856 194.172 32.6298ZM194.666 31.9058C194.941 32.0681 195.192 32.1809 195.42 32.2441C195.649 32.3113 195.845 32.3282 196.008 32.2949C196.169 32.2641 196.288 32.1831 196.365 32.0519C196.428 31.946 196.446 31.8428 196.42 31.7425C196.396 31.6462 196.328 31.5482 196.216 31.4485C196.108 31.3503 195.956 31.2439 195.762 31.1292L195.164 30.7762C195.023 30.6928 194.882 30.6403 194.741 30.6187C194.604 30.5986 194.478 30.6096 194.365 30.6516C194.25 30.6961 194.161 30.7726 194.097 30.8811C194.003 31.04 194.005 31.2096 194.103 31.3898C194.203 31.5714 194.391 31.7435 194.666 31.9058ZM196.745 28.8061C196.962 28.9342 197.161 28.9612 197.341 28.887C197.52 28.8129 197.678 28.661 197.814 28.4315C197.964 28.1766 198.024 27.9549 197.992 27.7662C197.965 27.5765 197.846 27.4198 197.637 27.2962C197.425 27.1711 197.228 27.1416 197.046 27.2077C196.866 27.2713 196.7 27.4305 196.55 27.6853C196.414 27.9149 196.359 28.1271 196.383 28.3218C196.41 28.5181 196.531 28.6795 196.745 28.8061Z" fill="white"/>
<path d="M193.933 24.1655C194.412 24.4485 194.701 24.7858 194.8 25.1775C194.903 25.5682 194.794 26.0348 194.474 26.5772L192.845 29.336L191.687 28.6524L193.146 26.1812C193.325 25.8784 193.408 25.6196 193.395 25.4046C193.383 25.1897 193.268 25.0182 193.051 24.8901C192.746 24.7099 192.464 24.6915 192.206 24.8351C191.949 24.9761 191.701 25.2497 191.461 25.6559L190.207 27.7789L189.053 27.0975L190.512 24.6263C190.631 24.4245 190.708 24.2421 190.743 24.079C190.778 23.916 190.769 23.7728 190.716 23.6496C190.663 23.5264 190.563 23.4216 190.417 23.3352C190.202 23.2086 190.001 23.1631 189.814 23.1986C189.63 23.2331 189.45 23.3394 189.273 23.5175C189.101 23.6946 188.926 23.9332 188.749 24.2335L187.574 26.224L186.419 25.5427L188.917 21.3118L189.799 21.8323L189.634 22.465L189.699 22.503C189.871 22.4073 190.048 22.352 190.23 22.3372C190.415 22.3238 190.598 22.3418 190.78 22.3913C190.962 22.4407 191.134 22.5131 191.295 22.6084C191.605 22.7916 191.838 22.997 191.993 23.2245C192.15 23.4535 192.224 23.7082 192.215 23.9886L192.318 24.0489C192.572 23.9064 192.843 23.8537 193.13 23.8909C193.421 23.9295 193.688 24.0211 193.933 24.1655Z" fill="white"/>
<path d="M186.588 23.4434L185.641 22.8842L184.679 24.5149L183.053 23.5554L184.016 21.9248L180.658 19.9424L181.341 18.7853L187.79 15.7414L189.323 16.6468L186.404 21.5926L187.351 22.1517L186.588 23.4434ZM184.778 20.6332L185.566 19.2985C185.64 19.1729 185.73 19.0251 185.835 18.855C185.944 18.687 186.053 18.519 186.162 18.3511C186.271 18.1831 186.368 18.0348 186.453 17.9063C186.545 17.7763 186.608 17.6855 186.643 17.6338L186.6 17.6084C186.445 17.7152 186.289 17.8164 186.131 17.9118C185.975 18.0037 185.802 18.0953 185.613 18.1867L182.884 19.5149L184.778 20.6332Z" fill="white"/>
<path d="M182.439 14.9565C182.225 15.3189 181.965 15.5883 181.657 15.7649C181.35 15.9414 181.017 16.0377 180.659 16.0539C180.305 16.0721 179.945 16.0265 179.579 15.9169L179.56 15.9492C180.145 16.4009 180.51 16.8774 180.654 17.3787C180.802 17.8821 180.723 18.3921 180.418 18.9087C180.147 19.368 179.792 19.7121 179.352 19.941C178.915 20.1721 178.403 20.254 177.813 20.1867C177.224 20.1195 176.562 19.8688 175.826 19.4346C175.392 19.1783 175.008 18.9031 174.673 18.609C174.341 18.3205 174.051 18.0071 173.806 17.6688L174.642 16.2534C174.877 16.6247 175.153 16.9642 175.47 17.2721C175.789 17.5763 176.108 17.8227 176.427 18.0112C177.023 18.3628 177.499 18.5062 177.857 18.4415C178.22 18.3753 178.512 18.1557 178.732 17.7825C178.861 17.5637 178.915 17.3461 178.892 17.1297C178.87 16.9134 178.744 16.6842 178.514 16.4422C178.288 16.2023 177.929 15.9373 177.438 15.6471L176.841 15.2945L177.593 14.019L178.202 14.378C178.686 14.6639 179.08 14.8362 179.384 14.8947C179.694 14.9518 179.94 14.9279 180.123 14.823C180.312 14.7166 180.467 14.5612 180.587 14.3567C180.753 14.0768 180.796 13.8071 180.717 13.5476C180.638 13.2881 180.397 13.0397 179.995 12.8025C179.744 12.6542 179.495 12.551 179.249 12.4927C179.009 12.433 178.779 12.3992 178.561 12.3915C178.346 12.3802 178.151 12.3787 177.976 12.3871L177.883 10.7865C178.323 10.7462 178.793 10.7743 179.292 10.8708C179.795 10.9693 180.334 11.1881 180.908 11.5269C181.719 12.0056 182.265 12.548 182.545 13.154C182.826 13.7601 182.791 14.3609 182.439 14.9565Z" fill="white"/>
<path d="M171.322 13.5536L172.116 12.2082L175.006 13.9142L174.212 15.2596L171.322 13.5536Z" fill="white"/>
<path d="M171.561 11.4662C171.186 12.1013 170.801 12.6385 170.406 13.0779C170.015 13.5194 169.607 13.8496 169.183 14.0684C168.762 14.2893 168.322 14.3875 167.862 14.3629C167.403 14.3384 166.922 14.1778 166.419 13.8813C165.788 13.5085 165.364 13.0428 165.147 12.4842C164.932 11.9219 164.906 11.2823 165.068 10.5651C165.232 9.84443 165.563 9.06251 166.061 8.21938C166.563 7.36906 167.079 6.69442 167.611 6.19545C168.148 5.69501 168.713 5.40194 169.306 5.31625C169.898 5.23056 170.53 5.38574 171.201 5.7818C171.829 6.15245 172.25 6.61888 172.465 7.18112C172.685 7.74188 172.715 8.38368 172.555 9.1065C172.396 9.82574 172.065 10.6123 171.561 11.4662ZM167.713 9.1947C167.359 9.79386 167.096 10.3134 166.923 10.7534C166.756 11.1919 166.693 11.5582 166.732 11.8523C166.771 12.1464 166.931 12.376 167.21 12.5412C167.487 12.7043 167.762 12.7338 168.036 12.6297C168.316 12.524 168.608 12.2922 168.911 11.9342C169.217 11.5726 169.547 11.0905 169.903 10.4877C170.257 9.88855 170.518 9.36793 170.687 8.92585C170.856 8.48378 170.919 8.11463 170.877 7.8184C170.839 7.5207 170.683 7.29031 170.406 7.12723C170.127 6.96203 169.847 6.93509 169.569 7.0464C169.292 7.15413 169.001 7.38879 168.696 7.75038C168.394 8.1141 168.067 8.59553 167.713 9.1947Z" fill="white"/>
<path d="M162.973 11.7023L157.473 8.45544L158.156 7.29837L161.31 6.46769C161.95 6.29377 162.47 6.14143 162.872 6.01066C163.279 5.87842 163.603 5.73105 163.844 5.56856C164.088 5.40818 164.287 5.19883 164.439 4.94051C164.624 4.62837 164.673 4.34327 164.589 4.08522C164.51 3.82569 164.325 3.61015 164.034 3.4386C163.729 3.25857 163.392 3.1538 163.022 3.12429C162.653 3.09477 162.236 3.11705 161.771 3.19111L161.499 1.58642C161.84 1.52611 162.186 1.48397 162.539 1.46002C162.895 1.43818 163.271 1.47372 163.666 1.56664C164.067 1.6581 164.502 1.84255 164.972 2.12C165.489 2.42499 165.877 2.77984 166.136 3.18456C166.399 3.59139 166.536 4.01557 166.546 4.45708C166.559 4.895 166.445 5.31667 166.206 5.72209C165.95 6.15622 165.63 6.50184 165.246 6.75896C164.862 7.01608 164.401 7.22301 163.863 7.37977C163.329 7.53864 162.705 7.69494 161.99 7.84867L160.416 8.20397L160.371 8.27931L163.799 10.303L162.973 11.7023Z" fill="white"/>
<defs>
<linearGradient id="paint0_linear_615_679" x1="197.999" y1="43.5" x2="167.499" y2="79" gradientUnits="userSpaceOnUse">
<stop offset="0.390715" stop-color="#FF0000"/>
<stop offset="1" stop-color="#990000"/>
</linearGradient>
<linearGradient id="paint1_linear_615_679" x1="97.6201" y1="16" x2="110.5" y2="73" gradientUnits="userSpaceOnUse">
<stop offset="0.24902" stop-color="#E4C73B"/>
<stop offset="1" stop-color="#7E6E21"/>
</linearGradient>
<linearGradient id="paint2_linear_615_679" x1="152.999" y1="18.5" x2="138.999" y2="69.5" gradientUnits="userSpaceOnUse">
<stop offset="0.56132" stop-color="#FC8801"/>
<stop offset="1" stop-color="#965101"/>
</linearGradient>
<linearGradient id="paint3_linear_615_679" x1="44.9994" y1="48" x2="78.9994" y2="86" gradientUnits="userSpaceOnUse">
<stop offset="0.352981" stop-color="#33CE19"/>
<stop offset="1" stop-color="#1A680D"/>
</linearGradient>
<linearGradient id="paint4_linear_615_679" x1="21.4993" y1="93.5" x2="62.4993" y2="110.5" gradientUnits="userSpaceOnUse">
<stop stop-color="#59E789"/>
<stop offset="1" stop-color="#32814D"/>
</linearGradient>
<linearGradient id="paint5_linear_615_679" x1="184.499" y1="111.5" x2="232.499" y2="98" gradientUnits="userSpaceOnUse">
<stop stop-color="#7D0B1B"/>
<stop offset="1" stop-color="#7D0B1B"/>
</linearGradient>
</defs>
</svg>
