<svg width="238" height="125" viewBox="0 0 238 125" fill="none" xmlns="http://www.w3.org/2000/svg">
<path d="M172.5 95L193.941 82.7651L211.624 72.6752C213.687 71.4976 214.388 68.8507 213.086 66.8633C204.315 53.4761 192.028 41.2745 178.483 32.6281C176.562 31.4015 174.032 32.0211 172.808 33.9443L171.5 36L162.5 51.5L150.5 73C159.145 78.1305 166.809 85.4557 172 94L172.5 95Z" fill="#DB170B"/>
<path d="M89.0007 72.9999C97.5579 68.2887 110.55 65.0977 121.001 64.9315C121.001 64.9315 121.001 50.0202 121.001 40.4658C121.001 34.1187 121.001 25.4077 121.001 20.2745C121.001 17.9173 119.079 16.0092 116.725 16.122C99.9841 16.9242 82.2129 21.5108 68.0568 28.5952C65.9349 29.6571 65.2233 32.2959 66.4202 34.3448L76.621 51.8075L89.0007 72.9999Z" fill="url(#paint0_linear_615_711)"/>
<path d="M121 65C131.45 65.1661 141.943 68.2888 150.5 73L163 51.5L172.936 33.6985C174.076 31.655 173.35 29.0666 171.267 27.9999C157.453 20.9256 141.7 16.4178 125.278 15.6223C122.923 15.5083 121 17.4219 121 19.7791V40V65Z" fill="url(#paint1_linear_615_711)"/>
<path d="M66.7202 94.4257C71.9114 85.8815 81.2347 77.821 89.88 72.6905L77.5004 51.5L67.26 33.9712C66.0785 31.9488 63.4787 31.2601 61.4986 32.5114C47.7888 41.1757 34.2762 53.4699 25.3167 66.8457C23.9942 68.82 24.6961 71.4675 26.76 72.6453L44.4416 82.7348L66.0004 95.5L66.7202 94.4257Z" fill="url(#paint2_linear_615_711)"/>
<path d="M57.5107 124C57.6788 113.672 61.7333 102.957 66.5002 94.5L44.0002 81.9999L26.1894 71.6448C24.1555 70.4623 21.5403 71.1565 20.4598 73.2463C13.3389 87.0196 8.91167 103.387 8.12298 119.722C8.00929 122.077 9.92265 124 12.2802 124H32.7555H57.5107Z" fill="url(#paint3_linear_615_711)"/>
<path d="M172.5 94.9999C177.267 103.457 180.57 114.295 180.738 124.624H225.968C228.326 124.624 230.24 122.7 230.121 120.346C229.302 104.043 224.688 87.9388 217.527 74.2058C216.447 72.1343 213.858 71.4331 211.826 72.5872L193.5 82.9999L172.5 94.9999Z" fill="#7D0B1B"/>
<path d="M48.3157 90.1681L48.0597 91.0796L41.0312 89.1327L41.2872 88.2212L48.3157 90.1681Z" fill="white"/>
<path d="M42.0557 93.0253C42.2281 92.4116 42.4939 91.9908 42.8533 91.7629C43.2096 91.5341 43.6814 91.501 44.2686 91.6637L47.6338 92.5959L47.4513 93.2457L46.6792 93.2215L46.669 93.2576C46.8108 93.446 46.9209 93.6321 46.9991 93.8159C47.0773 93.9997 47.1186 94.1992 47.1231 94.4144C47.1284 94.6267 47.0914 94.8742 47.012 95.157C46.9275 95.4578 46.7981 95.7105 46.6238 95.9152C46.4495 96.1198 46.2349 96.2597 45.9801 96.3351C45.7231 96.4065 45.426 96.3956 45.0887 96.3021C44.5828 96.162 44.2533 95.8616 44.1003 95.4009C43.9473 94.9403 43.9694 94.3125 44.1667 93.5177L44.3713 92.6503L44.0912 92.5727C43.7028 92.4651 43.4042 92.4764 43.1956 92.6067C42.9879 92.734 42.8405 92.9525 42.7535 93.2624C42.6817 93.5181 42.6505 93.7737 42.6599 94.0292C42.6663 94.2839 42.6902 94.5337 42.7318 94.7787L41.9912 94.8848C41.9367 94.6168 41.9105 94.3226 41.9129 94.0022C41.916 93.6789 41.9637 93.3532 42.0557 93.0253ZM44.965 92.8245L44.8015 93.5282C44.6612 94.1086 44.644 94.5399 44.7497 94.8221C44.8533 95.1005 45.0572 95.2818 45.3613 95.366C45.6263 95.4394 45.8429 95.4135 46.0112 95.2883C46.1794 95.163 46.3003 94.9695 46.3738 94.7078C46.487 94.3047 46.467 93.9425 46.3138 93.6212C46.1584 93.2961 45.8579 93.0718 45.4122 92.9483L44.965 92.8245Z" fill="white"/>
<path d="M40.6234 98.1098C40.7779 97.5592 41.0391 97.1841 41.4067 96.9844C41.7722 96.7809 42.2711 96.7667 42.9035 96.9418L46.1603 97.844L45.9081 98.742L42.7643 97.8711C42.3728 97.7627 42.0564 97.7626 41.815 97.8708C41.5745 97.976 41.4095 98.1881 41.32 98.507C41.1932 98.9582 41.2386 99.3226 41.456 99.6001C41.6713 99.8737 42.0424 100.084 42.5694 100.229L45.2796 100.98L45.0262 101.883L41.8823 101.012C41.6204 100.939 41.3934 100.915 41.2015 100.94C41.0066 100.964 40.8456 101.034 40.7185 101.152C40.5915 101.269 40.4976 101.436 40.4368 101.652C40.3497 101.962 40.3478 102.229 40.4309 102.453C40.5119 102.673 40.6716 102.862 40.9099 103.019C41.1491 103.172 41.4584 103.302 41.8378 103.407L44.3989 104.116L44.1443 105.023L39.1665 103.645L39.368 102.927L40.0913 102.986L40.1053 102.937C39.9615 102.79 39.8535 102.626 39.7813 102.443C39.71 102.258 39.6719 102.065 39.667 101.862C39.6592 101.659 39.6844 101.454 39.7427 101.246C39.8474 100.873 40.0035 100.577 40.2108 100.359C40.4181 100.141 40.6772 100.01 40.988 99.9665L41.0045 99.9079C40.7692 99.6708 40.6246 99.3941 40.5707 99.0776C40.5146 98.7573 40.5321 98.4347 40.6234 98.1098Z" fill="white"/>
<path d="M38.6579 105.109C38.6833 105.018 38.7167 104.922 38.7583 104.82C38.7969 104.718 38.8343 104.631 38.8705 104.56L39.6886 104.888C39.6502 104.956 39.6115 105.036 39.5725 105.129C39.5342 105.219 39.5037 105.304 39.4809 105.385C39.4268 105.578 39.4114 105.771 39.4347 105.966C39.458 106.16 39.5203 106.343 39.6216 106.514C39.72 106.684 39.858 106.834 40.0356 106.964C40.2102 107.093 40.424 107.193 40.677 107.263L43.3104 107.993L43.0544 108.904L38.0767 107.525L38.2819 106.794L39.2112 106.935L39.2226 106.894C39.0707 106.742 38.9397 106.573 38.8297 106.387C38.7205 106.198 38.6489 105.996 38.6148 105.783C38.5785 105.565 38.5929 105.34 38.6579 105.109Z" fill="white"/>
<path d="M40.203 109.471C40.6125 109.585 40.9632 109.74 41.255 109.938C41.5446 110.132 41.7722 110.362 41.9375 110.628C42.1008 110.89 42.201 111.181 42.2382 111.499C42.2724 111.817 42.2388 112.156 42.1374 112.517C42.0428 112.854 41.8985 113.148 41.7047 113.399C41.5087 113.646 41.2721 113.842 40.9948 113.985C40.7145 114.128 40.3991 114.211 40.0487 114.234C39.6952 114.256 39.3137 114.21 38.9042 114.097C38.3591 113.946 37.9216 113.724 37.5915 113.432C37.2584 113.138 37.0411 112.791 36.9395 112.39C36.8357 111.985 36.8514 111.542 36.9866 111.061C37.115 110.604 37.3286 110.23 37.6275 109.94C37.9264 109.65 38.2941 109.461 38.7307 109.375C39.1672 109.288 39.6579 109.32 40.203 109.471ZM39.1652 113.167C39.5476 113.273 39.8909 113.316 40.195 113.297C40.4969 113.273 40.7499 113.181 40.9541 113.021C41.1591 112.857 41.3068 112.614 41.3971 112.292C41.4858 111.976 41.4851 111.696 41.395 111.45C41.3049 111.205 41.1364 110.996 40.8894 110.824C40.6394 110.651 40.3231 110.511 39.9407 110.405C39.5613 110.3 39.2225 110.258 38.9245 110.28C38.6264 110.301 38.3764 110.394 38.1744 110.558C37.9733 110.72 37.8271 110.963 37.7358 111.288C37.6024 111.763 37.664 112.156 37.9207 112.467C38.1752 112.775 38.59 113.008 39.1652 113.167Z" fill="white"/>
<path d="M35.4844 116.408C35.6458 115.834 35.9141 115.433 36.2893 115.206C36.6654 114.976 37.1727 114.95 37.8111 115.127L41.0543 116.025L40.8021 116.923L37.6809 116.059C37.2834 115.948 36.9608 115.953 36.713 116.073C36.4623 116.191 36.2862 116.431 36.1848 116.792C36.0404 117.306 36.0911 117.709 36.3369 118.001C36.5836 118.29 36.9961 118.515 37.5743 118.675L40.1128 119.378L39.8581 120.285L34.8804 118.906L35.0819 118.189L35.8187 118.252L35.8327 118.202C35.6876 118.048 35.5791 117.874 35.5073 117.679C35.4355 117.484 35.3988 117.279 35.3974 117.065C35.3937 116.847 35.4228 116.628 35.4844 116.408Z" fill="white"/>
<path d="M34.5851 90.9453L31.7704 90.9827C31.6437 90.9832 31.504 90.9835 31.3515 90.9834C31.1999 90.9803 31.0482 90.9772 30.8965 90.9741C30.7449 90.971 30.6046 90.9678 30.4757 90.9645C30.3446 90.9574 30.2393 90.9509 30.1598 90.9451L30.1497 90.9812C30.2207 91.0171 30.3142 91.0657 30.43 91.1269C30.5429 91.1874 30.6665 91.2557 30.8009 91.3318C30.9332 91.4041 31.0661 91.4798 31.1996 91.559C31.334 91.6351 31.4549 91.7075 31.5622 91.7761L33.9274 93.2873L33.6461 94.2891L28.2852 94.2923L28.5449 93.3673L31.3426 93.4078C31.5299 93.4111 31.7228 93.4175 31.9214 93.4271C32.1199 93.4367 32.3062 93.4494 32.4803 93.4652C32.6543 93.481 32.8022 93.4976 32.9239 93.5151L32.934 93.479C32.8599 93.4423 32.7686 93.3975 32.6601 93.3448C32.5494 93.2882 32.4347 93.2288 32.3158 93.1667C32.1939 93.1038 32.077 93.0406 31.9649 92.9771C31.8538 92.9107 31.7568 92.8514 31.6741 92.7993L29.1544 91.1967L29.4307 90.213L32.4083 90.1672C32.5518 90.1648 32.7123 90.1655 32.8897 90.1693C33.0642 90.1722 33.2358 90.1792 33.4047 90.1903C33.5736 90.2014 33.717 90.2168 33.8348 90.2365L33.8449 90.2004C33.7459 90.16 33.6197 90.1007 33.4664 90.0226C33.3131 89.9445 33.1475 89.8581 32.9696 89.7634C32.7887 89.6679 32.6147 89.571 32.4475 89.4729L30.0351 88.0605L30.291 87.1489L34.874 89.9164L34.5851 90.9453Z" fill="white"/>
<path d="M30.6034 95.5716C31.0129 95.6851 31.3636 95.8406 31.6554 96.0382C31.945 96.2319 32.1725 96.4619 32.3379 96.7282C32.5012 96.9906 32.6014 97.281 32.6386 97.5993C32.6727 97.9168 32.6391 98.2561 32.5378 98.6171C32.4432 98.954 32.2989 99.248 32.1051 99.4991C31.9091 99.7464 31.6725 99.9418 31.3952 100.086C31.1149 100.228 30.7995 100.311 30.4491 100.334C30.0956 100.356 29.7141 100.31 29.3046 100.197C28.7595 100.046 28.3219 99.8243 27.9919 99.5319C27.6588 99.2386 27.4415 98.8914 27.3399 98.4904C27.2361 98.0855 27.2518 97.6424 27.387 97.1611C27.5154 96.7038 27.729 96.3302 28.0279 96.0401C28.3268 95.75 28.6945 95.5617 29.131 95.4751C29.5675 95.3885 30.0583 95.4207 30.6034 95.5716ZM29.5656 99.2674C29.948 99.3734 30.2913 99.4166 30.5954 99.3971C30.8973 99.3737 31.1503 99.2817 31.3545 99.121C31.5595 98.9573 31.7071 98.7145 31.7975 98.3926C31.8862 98.0767 31.8855 97.796 31.7954 97.5506C31.7053 97.3052 31.5368 97.0963 31.2898 96.9242C31.0397 96.7512 30.7235 96.6117 30.3411 96.5058C29.9616 96.4006 29.6229 96.3587 29.3249 96.3799C29.0268 96.4011 28.7768 96.4939 28.5748 96.6585C28.3736 96.82 28.2275 97.0632 28.1362 97.3881C28.0028 97.8634 28.0644 98.2566 28.3211 98.5677C28.5756 98.8749 28.9904 99.1081 29.5656 99.2674Z" fill="white"/>
<path d="M31.4475 102.152L31.1915 103.064L24.1631 101.117L24.419 100.206L31.4475 102.152Z" fill="white"/>
<path d="M25.1934 104.972C25.315 104.539 25.5127 104.193 25.7864 103.935C26.0571 103.676 26.3843 103.511 26.768 103.439C27.1518 103.367 27.5725 103.394 28.0302 103.521L28.5452 103.664L27.5973 107.039C28.1329 107.178 28.5809 107.154 28.9413 106.969C29.2987 106.782 29.5445 106.45 29.6789 105.972C29.7676 105.656 29.8164 105.366 29.8255 105.103C29.8345 104.839 29.8175 104.559 29.7744 104.262L30.5378 104.473C30.5821 104.755 30.5943 105.029 30.5746 105.296C30.5587 105.56 30.5017 105.867 30.4037 106.216C30.2686 106.698 30.0535 107.094 29.7586 107.404C29.4645 107.712 29.1009 107.914 28.6679 108.012C28.2319 108.108 27.7368 108.08 27.1827 107.926C26.6347 107.774 26.1922 107.553 25.8552 107.262C25.5153 106.97 25.2883 106.628 25.1743 106.236C25.0603 105.845 25.0666 105.424 25.1934 104.972ZM25.8967 105.172C25.7937 105.539 25.8313 105.867 26.0097 106.157C26.1851 106.445 26.4902 106.671 26.9249 106.833L27.6116 104.387C27.3368 104.315 27.0836 104.291 26.8522 104.318C26.6207 104.345 26.4222 104.428 26.2566 104.567C26.0919 104.702 25.9719 104.904 25.8967 105.172Z" fill="white"/>
<path d="M21.4951 112.393L22.0293 110.491C22.2636 109.656 22.5628 109.062 22.9267 108.709C23.2907 108.355 23.7706 108.261 24.3664 108.426C24.6209 108.496 24.8354 108.605 25.01 108.754C25.1845 108.902 25.3129 109.083 25.3951 109.296C25.4773 109.509 25.5062 109.75 25.4819 110.021L25.5268 110.033C25.6473 109.777 25.7953 109.56 25.9709 109.383C26.1465 109.206 26.3588 109.087 26.608 109.027C26.855 108.963 27.1462 108.978 27.4815 109.071C27.8827 109.182 28.1976 109.371 28.4261 109.637C28.6517 109.903 28.7891 110.229 28.8384 110.617C28.8855 111.001 28.8423 111.43 28.7087 111.906L28.0611 114.212L21.4951 112.393ZM24.5154 112.239L24.8367 111.095C24.9854 110.565 25.0014 110.175 24.8849 109.923C24.7683 109.672 24.5439 109.5 24.2116 109.408C23.8672 109.312 23.5862 109.365 23.3685 109.566C23.1477 109.766 22.9635 110.129 22.8156 110.656L22.5259 111.688L24.5154 112.239ZM25.2744 112.449L27.5424 113.077L27.894 111.825C28.046 111.284 28.0468 110.873 27.8964 110.593C27.7468 110.31 27.4923 110.118 27.133 110.019C26.9055 109.956 26.6966 109.953 26.5064 110.01C26.314 110.063 26.1429 110.189 25.993 110.39C25.8432 110.59 25.715 110.88 25.6083 111.26L25.2744 112.449Z" fill="white"/>
<path d="M68.5403 53.2617L67.8917 53.9515L62.5449 48.9915L63.1935 48.3017L68.5403 53.2617Z" fill="white"/>
<path d="M61.6574 52.9118C62.094 52.4474 62.5247 52.197 62.9494 52.1604C63.3717 52.1218 63.8063 52.3096 64.253 52.724L66.813 55.0988L66.3506 55.5905L65.6756 55.2137L65.6499 55.241C65.6889 55.4732 65.7007 55.6888 65.6853 55.8876C65.6699 56.0864 65.6145 56.2822 65.5191 56.475C65.4257 56.6654 65.2785 56.8677 65.0773 57.0817C64.8632 57.3093 64.6315 57.4737 64.3821 57.5747C64.1326 57.6758 63.8773 57.701 63.616 57.6505C63.3546 57.5955 63.0956 57.449 62.8391 57.211C62.4542 56.854 62.3002 56.4362 62.377 55.9576C62.4538 55.4791 62.7635 54.9331 63.3059 54.3197L63.8885 53.6454L63.6754 53.4477C63.3799 53.1736 63.1094 53.0462 62.8638 53.0656C62.6204 53.0828 62.3885 53.2086 62.168 53.443C61.986 53.6365 61.8402 53.8486 61.7305 54.0793C61.6186 54.3079 61.5245 54.5403 61.4482 54.7764L60.7411 54.5296C60.8164 54.267 60.9291 53.9943 61.0791 53.7116C61.2313 53.4266 61.4241 53.16 61.6574 52.9118ZM64.3356 54.073L63.8653 54.6211C63.4725 55.0708 63.2579 55.445 63.2215 55.7437C63.185 56.038 63.2824 56.2925 63.5138 56.5071C63.7154 56.6941 63.9198 56.7709 64.1272 56.7373C64.3346 56.7038 64.5314 56.588 64.7176 56.39C65.0044 56.0849 65.154 55.7548 65.1662 55.3997C65.1783 55.0401 65.0149 54.7031 64.6758 54.3885L64.3356 54.073Z" fill="white"/>
<path d="M58.0355 56.7571C58.4272 56.3405 58.8326 56.1283 59.2515 56.1206C59.6704 56.1085 60.1203 56.3256 60.6014 56.7719L63.0789 59.0702L62.44 59.7497L60.0484 57.5311C59.7506 57.2548 59.4694 57.1091 59.2049 57.0939C58.9426 57.0764 58.698 57.1883 58.4711 57.4296C58.15 57.7711 58.022 58.1148 58.087 58.4607C58.1519 58.8022 58.3848 59.1589 58.7857 59.5308L60.8475 61.4434L60.2054 62.1264L57.8137 59.9077C57.6144 59.7229 57.4238 59.5972 57.2418 59.5307C57.0576 59.4621 56.882 59.4504 56.7149 59.4958C56.5479 59.5412 56.3873 59.6458 56.2332 59.8097C56.0127 60.0442 55.8877 60.2798 55.8581 60.5166C55.8283 60.749 55.8831 60.9894 56.0225 61.2381C56.164 61.4844 56.3791 61.7415 56.6677 62.0092L58.6161 63.8166L57.9707 64.503L54.184 60.9902L54.6945 60.4473L55.3099 60.8328L55.3452 60.7952C55.2853 60.5989 55.2653 60.4035 55.2852 60.2089C55.3074 60.0121 55.363 59.8229 55.4522 59.6414C55.5391 59.4577 55.6564 59.2874 55.8041 59.1303C56.0695 58.848 56.3447 58.6579 56.6297 58.5601C56.9148 58.4622 57.2055 58.4655 57.5018 58.5699L57.5436 58.5256C57.444 58.2073 57.4433 57.8955 57.5416 57.5903C57.6397 57.2807 57.8043 57.0029 58.0355 56.7571Z" fill="white"/>
<path d="M53.0552 62.0533C53.1194 61.985 53.1935 61.9153 53.2776 61.8441C53.3594 61.7708 53.4328 61.711 53.4978 61.6647L54.0729 62.3325C54.0078 62.3744 53.9364 62.4275 53.8588 62.4919C53.7832 62.5539 53.7166 62.6157 53.6588 62.6772C53.5218 62.8229 53.4187 62.9872 53.3495 63.1703C53.2804 63.3533 53.2514 63.5438 53.2626 63.7417C53.2715 63.9375 53.3248 64.134 53.4225 64.3311C53.5179 64.5262 53.6618 64.713 53.8542 64.8915L55.8575 66.7499L55.209 67.4396L51.4222 63.9269L51.9424 63.3737L52.7032 63.9261L52.7321 63.8953C52.6675 63.6904 52.6292 63.4802 52.6174 63.2647C52.6078 63.0469 52.6372 62.8354 52.7056 62.6304C52.7738 62.421 52.8904 62.2286 53.0552 62.0533Z" fill="white"/>
<path d="M52.4132 66.6296C52.7247 66.9186 52.9645 67.2178 53.1326 67.5271C53.3005 67.832 53.3965 68.1405 53.4204 68.4526C53.4442 68.7603 53.3992 69.0637 53.2852 69.3628C53.1689 69.6598 52.9823 69.9449 52.7254 70.2181C52.4857 70.4731 52.2217 70.6672 51.9334 70.8004C51.645 70.9292 51.3444 70.9935 51.0317 70.9932C50.7166 70.9907 50.398 70.919 50.076 70.7779C49.7517 70.6348 49.4338 70.4187 49.1222 70.1297C48.7076 69.745 48.4211 69.3472 48.2629 68.9362C48.1024 68.523 48.0696 68.1154 48.1646 67.7133C48.2594 67.3069 48.478 66.9215 48.8205 66.5573C49.1459 66.2113 49.5084 65.9786 49.908 65.8591C50.3076 65.7397 50.7214 65.7421 51.1493 65.8663C51.5773 65.9905 51.9985 66.2449 52.4132 66.6296ZM49.7836 69.4262C50.0746 69.6961 50.3596 69.8924 50.6389 70.0151C50.918 70.1333 51.1854 70.1683 51.441 70.1199C51.6988 70.0692 51.9423 69.9221 52.1713 69.6785C52.396 69.4394 52.5251 69.1905 52.5584 68.9315C52.5917 68.6726 52.5383 68.41 52.3984 68.1438C52.2561 67.8754 52.0395 67.6063 51.7486 67.3364C51.4599 67.0687 51.1783 66.8756 50.9036 66.7572C50.6289 66.6387 50.3638 66.6059 50.1083 66.6587C49.855 66.7093 49.6127 66.8574 49.3815 67.1033C49.0433 67.463 48.9164 67.8397 49.0009 68.2334C49.0852 68.6227 49.3461 69.0203 49.7836 69.4262Z" fill="white"/>
<path d="M50.0435 72.9339L49.2536 73.774L42.7065 72.5401L42.6808 72.5674C42.8109 72.6753 42.9547 72.7938 43.1122 72.9228C43.2674 73.0497 43.4284 73.1864 43.5954 73.3327C43.7621 73.4746 43.9291 73.6209 44.0961 73.7717L46.852 76.3282L46.2484 76.9701L41.2246 72.3098L42.008 71.4766L48.5249 72.7016L48.5474 72.6777C48.4423 72.5887 48.3121 72.4786 48.1568 72.3473C48.0014 72.216 47.8381 72.0773 47.6667 71.9311C47.4952 71.7805 47.335 71.6361 47.1861 71.498L44.4096 68.9224L45.0197 68.2736L50.0435 72.9339Z" fill="white"/>
<path d="M101.533 35.2292L102.095 37.1549C102.14 37.3079 102.179 37.4592 102.213 37.6088C102.247 37.7583 102.272 37.8844 102.289 37.9868L102.343 37.9712C102.398 37.767 102.485 37.5858 102.605 37.4278C102.727 37.2658 102.877 37.1283 103.055 37.0151C103.236 36.898 103.436 36.808 103.655 36.7449C104.043 36.6333 104.388 36.6021 104.692 36.6511C104.996 36.7002 105.256 36.8383 105.472 37.0655C105.688 37.2897 105.857 37.6133 105.98 38.0362L106.923 41.2668L106.027 41.5248L105.119 38.4158C105.004 38.0198 104.83 37.7479 104.598 37.6001C104.365 37.4492 104.069 37.4257 103.708 37.5294C103.366 37.628 103.113 37.7757 102.949 37.9724C102.784 38.1662 102.697 38.4076 102.687 38.6966C102.677 38.9857 102.728 39.3222 102.84 39.7061L103.576 42.2303L102.671 42.4909L100.628 35.4898L101.533 35.2292Z" fill="white"/>
<path d="M99.6592 45.7576C98.9956 45.9486 98.4497 45.9741 98.0214 45.834C97.5962 45.693 97.3201 45.4051 97.1932 44.9701C97.103 44.6612 97.124 44.3706 97.2561 44.0985C97.3892 43.8293 97.6204 43.6067 97.9498 43.4305C97.8002 43.4086 97.6594 43.3499 97.5274 43.2546C97.3976 43.1554 97.3099 43.0278 97.2643 42.8719C97.2109 42.6889 97.216 42.5167 97.2796 42.3553C97.3453 42.1901 97.4634 42.0147 97.6338 41.829C97.341 41.7963 97.0788 41.6783 96.847 41.4751C96.6143 41.269 96.4489 40.9979 96.3509 40.662C96.2467 40.305 96.2329 39.979 96.3095 39.6838C96.3891 39.3877 96.5523 39.1326 96.799 38.9185C97.0458 38.7044 97.3733 38.5386 97.7817 38.421C97.8718 38.3951 97.9662 38.3728 98.0649 38.3541C98.1627 38.3324 98.2574 38.3166 98.3489 38.3065C98.4403 38.2964 98.5153 38.2911 98.5737 38.2905L100.285 37.7978L100.442 38.3332L99.5981 38.7224C99.7184 38.8113 99.8284 38.9259 99.928 39.0664C100.028 39.2068 100.104 39.37 100.159 39.5559C100.306 40.0599 100.25 40.5085 99.9901 40.9019C99.7327 41.2914 99.3007 41.5735 98.6941 41.7481C98.5521 41.7858 98.406 41.8148 98.2557 41.8353C98.1485 41.9475 98.075 42.0581 98.0352 42.1671C97.9945 42.2731 97.9908 42.3831 98.0241 42.4971C98.0495 42.584 98.0986 42.6463 98.1714 42.6839C98.2472 42.7206 98.3446 42.7365 98.4636 42.7315C98.5817 42.7235 98.7203 42.6966 98.8794 42.6508L99.7442 42.4018C100.285 42.2462 100.732 42.2409 101.087 42.3858C101.442 42.5308 101.683 42.8223 101.811 43.2602C101.973 43.8151 101.87 44.3083 101.501 44.7397C101.132 45.171 100.518 45.5103 99.6592 45.7576ZM99.4977 45.0871C99.885 44.9756 100.196 44.8436 100.432 44.6913C100.67 44.5381 100.835 44.3705 100.925 44.1885C101.015 44.0064 101.031 43.8164 100.973 43.6185C100.921 43.4385 100.837 43.3131 100.722 43.2421C100.611 43.1734 100.466 43.1467 100.288 43.1621C100.111 43.1775 99.8986 43.2207 99.6524 43.2915L98.8326 43.5275C98.6224 43.5881 98.4489 43.6738 98.312 43.7847C98.1751 43.8957 98.0811 44.0252 98.0299 44.1732C97.9796 44.3243 97.9811 44.4913 98.0345 44.6743C98.1072 44.9232 98.2693 45.083 98.5211 45.1536C98.7758 45.2234 99.1013 45.2012 99.4977 45.0871ZM98.5548 41.12C98.8881 41.0241 99.1119 40.8653 99.2263 40.6438C99.3398 40.4193 99.3488 40.1435 99.2534 39.8166C99.151 39.4656 98.9899 39.2259 98.7701 39.0973C98.5503 38.9687 98.2752 38.952 97.9449 39.0471C97.6236 39.1396 97.4041 39.302 97.2863 39.5342C97.1707 39.7626 97.1637 40.0508 97.2652 40.3987C97.3589 40.7197 97.5171 40.944 97.7399 41.0717C97.9619 41.1964 98.2335 41.2125 98.5548 41.12Z" fill="white"/>
<path d="M94.6166 39.4349L96.0636 44.3932L95.1583 44.6539L93.7112 39.6955L94.6166 39.4349ZM93.6231 37.687C93.7672 37.6455 93.9026 37.6521 94.0292 37.7067C94.1588 37.7604 94.2512 37.8817 94.3063 38.0707C94.3615 38.2597 94.3492 38.4128 94.2695 38.5301C94.1919 38.6434 94.081 38.7209 93.9369 38.7624C93.7898 38.8047 93.6529 38.7986 93.5263 38.744C93.4018 38.6856 93.312 38.5618 93.2568 38.3729C93.2017 38.1839 93.2114 38.0331 93.286 37.9206C93.3636 37.8072 93.4759 37.7294 93.6231 37.687Z" fill="white"/>
<path d="M93.5003 45.1311L92.577 45.3969L91.6906 42.3598L88.4431 43.2947L89.3295 46.3318L88.4061 46.5977L86.4863 40.0195L87.4097 39.7537L88.2107 42.4983L91.4582 41.5634L90.6572 38.8188L91.5805 38.5529L93.5003 45.1311Z" fill="white"/>
<path d="M147.97 42.9035L147.546 44.8643C147.512 45.0201 147.474 45.1718 147.433 45.3195C147.391 45.4672 147.354 45.5902 147.32 45.6884L147.375 45.7001C147.52 45.5456 147.683 45.4268 147.864 45.3438C148.049 45.2583 148.247 45.2076 148.458 45.1917C148.673 45.1734 148.892 45.1878 149.115 45.2351C149.51 45.3186 149.829 45.4533 150.073 45.6392C150.318 45.8251 150.481 46.0689 150.563 46.3705C150.645 46.6691 150.64 47.0337 150.547 47.4643L149.836 50.7537L148.923 50.5604L149.607 47.3947C149.695 46.9916 149.671 46.6704 149.538 46.4313C149.404 46.1891 149.155 46.0292 148.788 45.9515C148.439 45.8776 148.146 45.889 147.908 45.9854C147.67 46.0788 147.478 46.2505 147.331 46.5005C147.184 46.7505 147.069 47.071 146.984 47.4619L146.429 50.032L145.507 49.8368L147.048 42.7083L147.97 42.9035Z" fill="white"/>
<path d="M141.297 51.3022C140.621 51.1591 140.128 50.9253 139.818 50.6009C139.511 50.2771 139.405 49.8937 139.501 49.4509C139.569 49.1363 139.726 48.8901 139.972 48.7123C140.218 48.5375 140.528 48.4498 140.902 48.4492C140.78 48.3597 140.684 48.2419 140.614 48.096C140.547 47.9476 140.53 47.794 140.565 47.6352C140.605 47.4489 140.691 47.2996 140.824 47.1872C140.961 47.0724 141.149 46.9732 141.387 46.8896C141.145 46.7233 140.971 46.4963 140.863 46.2085C140.757 45.9176 140.74 45.6011 140.814 45.2591C140.893 44.8956 141.036 44.6018 141.245 44.3776C141.456 44.1541 141.721 44.0059 142.041 43.933C142.36 43.8601 142.728 43.8677 143.144 43.9558C143.235 43.9752 143.329 43.9999 143.425 44.0297C143.521 44.0566 143.612 44.087 143.698 44.1211C143.783 44.1551 143.852 44.1856 143.903 44.2125L145.646 44.5816L145.528 45.1268L144.599 45.0739C144.663 45.2087 144.705 45.3614 144.726 45.5318C144.747 45.7023 144.736 45.8822 144.696 46.0716C144.585 46.5847 144.321 46.9537 143.905 47.1785C143.492 47.401 142.977 47.4468 142.36 47.316C142.217 47.2825 142.074 47.2395 141.932 47.1871C141.784 47.2356 141.667 47.2985 141.58 47.3759C141.493 47.4502 141.437 47.5454 141.412 47.6615C141.393 47.7501 141.407 47.828 141.453 47.8953C141.502 47.9632 141.58 48.0229 141.688 48.0743C141.795 48.1227 141.93 48.1641 142.092 48.1984L142.973 48.3849C143.523 48.5014 143.92 48.7068 144.163 49.0011C144.406 49.2954 144.48 49.6655 144.383 50.1114C144.261 50.6764 143.935 51.0625 143.404 51.2695C142.874 51.4765 142.171 51.4874 141.297 51.3022ZM141.475 50.6355C141.869 50.719 142.206 50.749 142.486 50.7252C142.769 50.7022 142.994 50.6316 143.16 50.5134C143.326 50.3953 143.431 50.2355 143.475 50.0339C143.514 49.8507 143.5 49.7008 143.433 49.5843C143.368 49.4715 143.253 49.3801 143.089 49.3103C142.925 49.2404 142.718 49.1789 142.467 49.1258L141.633 48.9491C141.419 48.9037 141.225 48.8978 141.052 48.9314C140.878 48.9649 140.734 49.0349 140.618 49.1413C140.501 49.2508 140.423 49.3987 140.383 49.585C140.328 49.8385 140.395 50.0554 140.583 50.2358C140.774 50.4168 141.071 50.55 141.475 50.6355ZM142.537 46.6971C142.876 46.769 143.149 46.7341 143.355 46.5926C143.562 46.448 143.702 46.2093 143.774 45.8764C143.851 45.519 143.824 45.2321 143.691 45.0157C143.559 44.7992 143.325 44.6553 142.989 44.5841C142.662 44.5148 142.391 44.5549 142.176 44.7043C141.965 44.8513 141.822 45.1019 141.745 45.4562C141.675 45.783 141.707 46.055 141.842 46.2721C141.978 46.4861 142.21 46.6278 142.537 46.6971Z" fill="white"/>
<path d="M139.872 43.3633L138.781 48.412L137.859 48.2167L138.95 43.1681L139.872 43.3633ZM139.831 41.3568C139.977 41.3879 140.094 41.4572 140.179 41.5647C140.268 41.6729 140.291 41.8232 140.249 42.0156C140.208 42.208 140.124 42.3372 139.998 42.4031C139.875 42.4666 139.741 42.4828 139.594 42.4517C139.444 42.42 139.327 42.3504 139.241 42.2428C139.159 42.1329 139.139 41.9817 139.181 41.7893C139.223 41.5969 139.303 41.4686 139.422 41.4044C139.545 41.3409 139.681 41.325 139.831 41.3568Z" fill="white"/>
<path d="M136.171 47.8593L135.231 47.6602L135.899 44.5678L132.593 43.8675L131.925 46.9599L130.985 46.7608L132.433 40.0629L133.373 40.262L132.769 43.0566L136.075 43.7569L136.679 40.9623L137.619 41.1614L136.171 47.8593Z" fill="white"/>
<path d="M148.84 34.019L149.835 34.2297L150.279 37.3662C150.302 37.5275 150.321 37.6848 150.335 37.838C150.354 37.9889 150.365 38.1351 150.37 38.2766C150.378 38.4157 150.379 38.5516 150.373 38.6844L150.405 38.6912C150.475 38.5432 150.568 38.3649 150.684 38.1562C150.799 37.9475 150.921 37.737 151.05 37.5248L152.705 34.8378L153.696 35.0476L150.267 40.3485C150.079 40.644 149.874 40.8881 149.654 41.0809C149.435 41.2774 149.197 41.4121 148.938 41.4851C148.679 41.5611 148.39 41.5654 148.072 41.4981C147.925 41.467 147.797 41.4303 147.688 41.3881C147.582 41.3495 147.491 41.3111 147.416 41.2729L147.574 40.5399C147.638 40.5694 147.716 40.6003 147.808 40.6326C147.904 40.6655 148.003 40.693 148.107 40.715C148.3 40.7558 148.473 40.7526 148.627 40.7054C148.784 40.6618 148.926 40.5817 149.053 40.465C149.184 40.3489 149.302 40.2064 149.409 40.0374L149.767 39.4904L148.84 34.019Z" fill="white"/>
<path d="M148.121 33.771C148.212 33.7904 148.31 33.8175 148.415 33.8524C148.52 33.8842 148.609 33.9159 148.682 33.9474L148.401 34.7837C148.331 34.7498 148.249 34.7164 148.154 34.6835C148.062 34.6512 147.974 34.6263 147.892 34.6088C147.696 34.5674 147.502 34.5645 147.308 34.6003C147.115 34.636 146.936 34.7099 146.771 34.8219C146.607 34.9308 146.465 35.078 146.345 35.2634C146.226 35.4457 146.138 35.6652 146.083 35.9217L145.506 38.5926L144.579 38.3964L145.671 33.3478L146.413 33.5052L146.326 34.4402L146.368 34.4489C146.511 34.2877 146.673 34.1462 146.853 34.0246C147.035 33.9036 147.233 33.8192 147.444 33.7715C147.66 33.7213 147.885 33.7211 148.121 33.771Z" fill="white"/>
<path d="M142.326 32.5433C142.766 32.6365 143.123 32.8112 143.397 33.0672C143.672 33.3202 143.856 33.6356 143.95 34.0133C144.044 34.3909 144.041 34.8119 143.941 35.2761L143.828 35.7984L140.398 35.0719C140.29 35.6144 140.34 36.0593 140.546 36.4064C140.753 36.7505 141.1 36.974 141.586 37.077C141.907 37.145 142.199 37.175 142.463 37.167C142.727 37.159 143.006 37.1239 143.301 37.0618L143.133 37.836C142.855 37.8983 142.581 37.9283 142.313 37.9258C142.048 37.927 141.738 37.8901 141.383 37.815C140.894 37.7114 140.485 37.5227 140.158 37.2488C139.833 36.9757 139.61 36.6265 139.488 36.2013C139.366 35.7731 139.366 35.278 139.487 34.7161C139.607 34.1602 139.803 33.705 140.075 33.3505C140.347 32.993 140.676 32.7448 141.061 32.6059C141.445 32.467 141.867 32.4462 142.326 32.5433ZM142.167 33.257C141.794 33.178 141.468 33.2367 141.189 33.4331C140.91 33.6265 140.702 33.945 140.565 34.3886L143.05 34.915C143.107 34.6364 143.116 34.3827 143.076 34.1538C143.036 33.925 142.941 33.7325 142.793 33.5765C142.647 33.4211 142.439 33.3146 142.167 33.257Z" fill="white"/>
<path d="M139.892 30.399L136.069 36.5938L135.093 36.3869L134.165 29.1859L135.137 29.3918L135.697 34.0139C135.719 34.1752 135.737 34.345 135.75 34.5234C135.763 34.6987 135.773 34.8733 135.78 35.0473C135.787 35.2213 135.79 35.3799 135.788 35.5232C135.845 35.3916 135.911 35.2475 135.987 35.091C136.065 34.9351 136.148 34.7787 136.237 34.6218C136.326 34.4617 136.412 34.3109 136.497 34.1692L138.911 30.1911L139.892 30.399Z" fill="white"/>
<path d="M182.069 74.0524C181.826 74.2824 181.564 74.4173 181.281 74.457C181.003 74.4968 180.714 74.4438 180.413 74.2981C180.113 74.1523 179.811 73.9217 179.508 73.6063C179.257 73.345 179.061 73.1004 178.92 72.8724C178.776 72.6466 178.668 72.4217 178.596 72.1975L179.201 71.6235C179.28 71.8632 179.393 72.1202 179.539 72.3945C179.686 72.6689 179.859 72.9097 180.058 73.1169C180.338 73.4075 180.585 73.573 180.802 73.6133C181.02 73.6558 181.209 73.6018 181.368 73.4513C181.461 73.3632 181.517 73.2599 181.538 73.1414C181.561 73.0208 181.544 72.8618 181.489 72.6645C181.438 72.4673 181.343 72.2041 181.205 71.8749C181.07 71.5502 180.968 71.2593 180.899 71.0022C180.832 70.7473 180.822 70.5136 180.869 70.301C180.916 70.0885 181.044 69.8833 181.252 69.6855C181.577 69.3781 181.947 69.2721 182.364 69.3677C182.785 69.4634 183.2 69.723 183.607 70.1466C183.823 70.3719 184.004 70.6051 184.149 70.8464C184.297 71.0899 184.417 71.3416 184.511 71.6015L183.773 71.8817C183.687 71.6528 183.585 71.4313 183.465 71.217C183.348 71.0007 183.204 70.8035 183.033 70.6255C182.81 70.3935 182.602 70.251 182.408 70.198C182.216 70.1473 182.055 70.1843 181.923 70.309C181.821 70.4057 181.763 70.5145 181.749 70.6353C181.737 70.7584 181.764 70.9187 181.828 71.1162C181.894 71.3116 181.994 71.5661 182.126 71.8798C182.259 72.189 182.357 72.4699 182.422 72.7225C182.49 72.9774 182.5 73.2133 182.453 73.4303C182.405 73.6472 182.278 73.8546 182.069 74.0524Z" fill="white"/>
<path d="M181.291 67.8726L177.543 71.4264L177.02 70.8823L177.443 70.3007L177.407 70.2636C177.204 70.3095 177.001 70.3125 176.798 70.2725C176.595 70.2326 176.399 70.1575 176.211 70.0475C176.023 69.9374 175.848 69.7978 175.685 69.6289C175.41 69.3427 175.224 69.0543 175.127 68.7635C175.031 68.4749 175.034 68.1842 175.134 67.8914C175.238 67.5987 175.449 67.3018 175.766 67.0009L178.219 64.6757L178.875 65.3583L176.518 67.5932C176.216 67.8791 176.052 68.1572 176.026 68.4276C176.002 68.7001 176.118 68.9693 176.373 69.2352C176.622 69.4942 176.87 69.6509 177.117 69.7051C177.369 69.7594 177.625 69.7257 177.885 69.604C178.149 69.4824 178.425 69.285 178.713 69.012L180.635 67.1899L181.291 67.8726Z" fill="white"/>
<path d="M175.478 65.5371C175.169 65.8295 174.855 66.0502 174.534 66.1991C174.218 66.3482 173.903 66.4256 173.588 66.4315C173.277 66.4375 172.975 66.3754 172.68 66.2453C172.389 66.1129 172.113 65.9116 171.853 65.6413C171.61 65.3889 171.43 65.116 171.313 64.8226C171.2 64.5292 171.153 64.2274 171.171 63.9173C171.192 63.605 171.282 63.2932 171.442 62.982C171.605 62.6686 171.84 62.3657 172.149 62.0733C172.559 61.6842 172.975 61.4229 173.398 61.2896C173.822 61.1541 174.234 61.1449 174.632 61.2621C175.035 61.3794 175.41 61.6183 175.757 61.9787C176.086 62.3212 176.299 62.694 176.396 63.0971C176.493 63.5002 176.467 63.9104 176.317 64.3276C176.168 64.7448 175.888 65.148 175.478 65.5371ZM172.818 62.7695C172.53 63.0425 172.316 63.314 172.177 63.5839C172.042 63.8538 171.991 64.117 172.025 64.3733C172.061 64.6318 172.195 64.8816 172.427 65.1227C172.654 65.3592 172.897 65.5014 173.156 65.5493C173.414 65.5971 173.681 65.5593 173.957 65.4357C174.234 65.31 174.517 65.1107 174.805 64.8376C175.091 64.5667 175.301 64.2985 175.436 64.0329C175.571 63.7673 175.619 63.5063 175.581 63.2499C175.545 62.9958 175.41 62.7471 175.176 62.5038C174.834 62.1478 174.462 62.0004 174.062 62.0616C173.665 62.1229 173.251 62.3588 172.818 62.7695Z" fill="white"/>
<path d="M198.406 69.6715C198.471 69.7391 198.537 69.8166 198.603 69.904C198.672 69.9893 198.728 70.0655 198.771 70.1326L198.067 70.6647C198.029 70.5977 197.979 70.5239 197.919 70.4432C197.861 70.3647 197.803 70.2951 197.744 70.2343C197.606 70.0901 197.446 69.9785 197.266 69.8994C197.086 69.8203 196.897 69.7807 196.697 69.7805C196.5 69.7781 196.299 69.8197 196.095 69.9052C195.894 69.9887 195.698 70.1207 195.507 70.3013L193.524 72.1814L192.868 71.4987L196.617 67.9449L197.143 68.4924L196.544 69.2152L196.573 69.2456C196.783 69.1933 196.996 69.1674 197.213 69.168C197.433 69.1709 197.644 69.2122 197.846 69.2917C198.053 69.3714 198.239 69.498 198.406 69.6715Z" fill="white"/>
<path d="M194.301 65.4C194.613 65.7244 194.81 66.0693 194.892 66.4347C194.977 66.7978 194.952 67.1618 194.817 67.5265C194.682 67.8912 194.442 68.2369 194.098 68.5637L193.71 68.9314L191.28 66.4036C190.885 66.7909 190.676 67.1858 190.651 67.5883C190.628 67.9886 190.789 68.3679 191.133 68.7261C191.361 68.9627 191.586 69.1518 191.809 69.2936C192.032 69.4353 192.282 69.5634 192.561 69.6778L191.987 70.2228C191.721 70.1175 191.478 69.9885 191.257 69.8358C191.037 69.6875 190.801 69.4827 190.55 69.2214C190.203 68.8609 189.971 68.4756 189.855 68.0654C189.74 67.6574 189.752 67.2436 189.89 66.8239C190.031 66.4021 190.31 65.9934 190.727 65.5978C191.14 65.2065 191.558 64.9409 191.983 64.801C192.41 64.659 192.822 64.6388 193.218 64.7405C193.615 64.8422 193.976 65.0621 194.301 65.4ZM193.767 65.8997C193.503 65.6249 193.2 65.4901 192.858 65.4954C192.519 65.4985 192.167 65.6445 191.804 65.9334L193.564 67.765C193.768 67.5671 193.918 67.3624 194.014 67.151C194.11 66.9396 194.14 66.7277 194.105 66.5155C194.072 66.3055 193.96 66.1002 193.767 65.8997Z" fill="white"/>
<path d="M184.771 66.401C184.292 65.9031 184.016 65.4331 183.942 64.9909C183.87 64.5509 183.999 64.175 184.327 63.8633C184.561 63.6418 184.83 63.5269 185.134 63.5186C185.435 63.5124 185.741 63.6142 186.051 63.824C186.001 63.6819 185.988 63.5307 186.012 63.3705C186.04 63.2103 186.113 63.0744 186.231 62.9626C186.369 62.8314 186.525 62.7569 186.699 62.7389C186.876 62.721 187.088 62.7446 187.332 62.8098C187.226 62.5364 187.209 62.2507 187.282 61.9529C187.358 61.6529 187.523 61.3825 187.777 61.1417C188.047 60.8859 188.331 60.724 188.63 60.656C188.931 60.5903 189.234 60.6172 189.539 60.7366C189.845 60.8561 190.145 61.069 190.439 61.3754C190.504 61.4429 190.568 61.516 190.63 61.5946C190.695 61.6709 190.753 61.7472 190.805 61.8233C190.856 61.8994 190.896 61.963 190.923 62.0143L192.158 63.2985L191.753 63.6823L191.014 63.1166C190.991 63.2637 190.94 63.4134 190.861 63.5657C190.782 63.7181 190.672 63.8609 190.531 63.9942C190.151 64.3554 189.724 64.5118 189.253 64.4634C188.786 64.4151 188.334 64.1634 187.897 63.7083C187.797 63.6003 187.704 63.4847 187.616 63.3615C187.466 63.3183 187.333 63.3043 187.217 63.3192C187.104 63.332 187.004 63.3792 186.918 63.4609C186.852 63.5233 186.82 63.5952 186.82 63.6767C186.822 63.7604 186.853 63.8537 186.913 63.9564C186.975 64.0569 187.064 64.1669 187.178 64.2863L187.802 64.9351C188.192 65.3407 188.404 65.7333 188.44 66.1129C188.475 66.4926 188.328 66.8394 187.997 67.1533C187.577 67.551 187.089 67.6861 186.533 67.5587C185.978 67.4313 185.39 67.0454 184.771 66.401ZM185.293 65.9506C185.573 66.2413 185.835 66.4555 186.08 66.5933C186.328 66.7335 186.553 66.8015 186.757 66.7974C186.962 66.7933 187.138 66.7204 187.288 66.5785C187.424 66.4495 187.497 66.3179 187.507 66.1838C187.516 66.054 187.473 65.9143 187.377 65.7645C187.281 65.6147 187.144 65.4474 186.966 65.2626L186.375 64.6476C186.223 64.4899 186.066 64.3761 185.904 64.3063C185.741 64.2364 185.582 64.2129 185.426 64.2357C185.268 64.2607 185.12 64.3387 184.982 64.4699C184.794 64.6483 184.727 64.8648 184.781 65.1194C184.837 65.3762 185.008 65.6533 185.293 65.9506ZM188.392 63.2969C188.633 63.547 188.878 63.6716 189.129 63.6708C189.381 63.6679 189.631 63.5493 189.879 63.3149C190.144 63.0634 190.283 62.8111 190.295 62.5581C190.308 62.3051 190.195 62.0547 189.957 61.8069C189.725 61.5658 189.479 61.4467 189.217 61.4494C188.959 61.4522 188.699 61.5783 188.436 61.8277C188.194 62.0578 188.067 62.3004 188.057 62.5557C188.049 62.8088 188.16 63.0559 188.392 63.2969Z" fill="white"/>
<path d="M186.87 57.6681C187.283 58.0984 187.492 58.5316 187.495 58.9678C187.5 59.4063 187.262 59.8534 186.782 60.3092L184.34 62.6246L183.693 61.9521L186.044 59.7237C186.343 59.44 186.505 59.1618 186.529 58.8892C186.555 58.6145 186.438 58.342 186.178 58.0716C185.808 57.6864 185.434 57.5246 185.055 57.5863C184.679 57.6502 184.273 57.8886 183.838 58.3014L181.926 60.1138L181.274 59.4345L185.022 55.8807L185.538 56.418L185.105 57.0159L185.141 57.0531C185.348 57.0072 185.555 57.0032 185.76 57.041C185.965 57.0788 186.161 57.1516 186.347 57.2595C186.537 57.3674 186.712 57.5036 186.87 57.6681Z" fill="white"/>
<path d="M182.676 53.312C183.118 53.7716 183.345 54.213 183.357 54.6361C183.372 55.0572 183.158 55.4773 182.716 55.8965L180.182 58.2991L179.714 57.8124L180.132 57.1647L180.106 57.1376C179.87 57.163 179.653 57.1623 179.454 57.1357C179.255 57.1091 179.061 57.0429 178.873 56.9372C178.687 56.8337 178.492 56.6761 178.288 56.4644C178.072 56.2391 177.92 55.9999 177.833 55.7468C177.745 55.4936 177.735 55.239 177.801 54.9828C177.871 54.7267 178.033 54.4783 178.287 54.2375C178.668 53.8763 179.097 53.7475 179.573 53.8511C180.05 53.9547 180.581 54.293 181.166 54.8661L181.811 55.4823L182.022 55.2824C182.314 55.0051 182.458 54.7441 182.452 54.4995C182.449 54.2571 182.336 54.0199 182.113 53.7879C181.929 53.5964 181.724 53.4396 181.498 53.3177C181.275 53.1935 181.047 53.0869 180.814 52.9978L181.103 52.3107C181.362 52.4004 181.63 52.5278 181.905 52.6928C182.183 52.86 182.44 53.0664 182.676 53.312ZM181.355 55.9013L180.831 55.4034C180.402 54.9882 180.038 54.754 179.74 54.7008C179.446 54.6477 179.185 54.7297 178.956 54.9469C178.756 55.1361 178.667 55.3344 178.689 55.542C178.711 55.7495 178.816 55.9513 179.004 56.1473C179.294 56.4492 179.618 56.6164 179.974 56.6489C180.335 56.6815 180.683 56.5387 181.018 56.2205L181.355 55.9013Z" fill="white"/>
<path d="M179.069 52.1015C178.509 52.6326 177.942 52.974 177.368 53.1259C176.797 53.2756 176.229 53.2459 175.664 53.0367C175.103 52.8277 174.557 52.446 174.024 51.8918L172.722 50.5367L177.694 45.822L179.143 47.3291C179.628 47.8338 179.954 48.3579 180.121 48.9014C180.29 49.4427 180.29 49.9857 180.12 50.5302C179.952 51.0725 179.602 51.5963 179.069 52.1015ZM178.35 51.3943C178.776 50.9901 179.062 50.5882 179.206 50.1885C179.351 49.7888 179.362 49.3926 179.24 48.9999C179.121 48.605 178.876 48.215 178.506 47.8298L177.775 47.0694L173.979 50.6684L174.593 51.307C175.206 51.9446 175.826 52.2696 176.453 52.282C177.08 52.2943 177.713 51.9984 178.35 51.3943Z" fill="white"/>
<path d="M196.112 112.727C195.79 112.815 195.495 112.81 195.228 112.711C194.964 112.614 194.735 112.431 194.54 112.16C194.345 111.889 194.19 111.543 194.073 111.121C193.976 110.772 193.92 110.464 193.904 110.196C193.886 109.929 193.898 109.679 193.941 109.447L194.745 109.228C194.701 109.476 194.678 109.756 194.676 110.068C194.675 110.379 194.713 110.673 194.789 110.95C194.897 111.339 195.036 111.602 195.207 111.74C195.379 111.881 195.57 111.923 195.781 111.865C195.905 111.831 196.004 111.767 196.078 111.672C196.156 111.577 196.217 111.429 196.262 111.229C196.311 111.031 196.353 110.754 196.387 110.398C196.423 110.048 196.472 109.743 196.533 109.483C196.595 109.227 196.697 109.016 196.839 108.851C196.982 108.685 197.191 108.565 197.469 108.489C197.9 108.372 198.276 108.454 198.597 108.735C198.922 109.019 199.163 109.444 199.319 110.01C199.403 110.311 199.451 110.603 199.464 110.884C199.478 111.169 199.464 111.448 199.423 111.721L198.641 111.619C198.674 111.377 198.69 111.133 198.687 110.887C198.687 110.641 198.654 110.399 198.588 110.161C198.502 109.851 198.386 109.627 198.241 109.488C198.097 109.353 197.937 109.309 197.762 109.357C197.627 109.394 197.524 109.462 197.454 109.562C197.386 109.665 197.332 109.819 197.295 110.023C197.261 110.227 197.227 110.499 197.195 110.838C197.164 111.173 197.118 111.468 197.055 111.721C196.993 111.978 196.89 112.191 196.745 112.36C196.601 112.529 196.39 112.651 196.112 112.727Z" fill="white"/>
<path d="M198.364 106.909L193.381 108.269L193.18 107.542L193.828 107.229L193.814 107.179C193.614 107.124 193.434 107.03 193.274 106.899C193.115 106.767 192.978 106.609 192.865 106.423C192.752 106.236 192.664 106.03 192.602 105.805C192.496 105.422 192.469 105.08 192.522 104.777C192.575 104.477 192.715 104.222 192.942 104.011C193.173 103.802 193.499 103.64 193.921 103.525L197.182 102.635L197.434 103.548L194.301 104.403C193.9 104.513 193.623 104.68 193.472 104.906C193.321 105.135 193.295 105.427 193.394 105.783C193.489 106.129 193.633 106.385 193.825 106.549C194.02 106.716 194.261 106.808 194.547 106.823C194.837 106.841 195.174 106.798 195.557 106.694L198.112 105.996L198.364 106.909Z" fill="white"/>
<path d="M194.364 102.098C193.954 102.21 193.572 102.255 193.22 102.235C192.871 102.217 192.557 102.136 192.277 101.992C192.001 101.85 191.765 101.652 191.568 101.398C191.375 101.144 191.228 100.835 191.128 100.474C191.034 100.137 191.006 99.8109 191.042 99.4965C191.082 99.1844 191.184 98.8959 191.347 98.631C191.514 98.3653 191.741 98.1332 192.03 97.9345C192.322 97.7351 192.672 97.5794 193.082 97.4675C193.628 97.3186 194.118 97.2852 194.553 97.3675C194.99 97.4489 195.356 97.6356 195.651 97.9276C195.95 98.2218 196.166 98.6099 196.299 99.0917C196.426 99.5495 196.436 99.9791 196.33 100.381C196.224 100.782 196.006 101.131 195.676 101.429C195.347 101.726 194.909 101.949 194.364 102.098ZM193.34 98.3981C192.957 98.5026 192.64 98.6408 192.39 98.8129C192.143 98.9872 191.973 99.1953 191.882 99.4374C191.791 99.6825 191.79 99.9662 191.879 100.288C191.966 100.605 192.112 100.845 192.317 101.009C192.521 101.174 192.774 101.267 193.075 101.288C193.379 101.309 193.722 101.267 194.105 101.163C194.485 101.059 194.797 100.922 195.042 100.752C195.286 100.581 195.452 100.374 195.541 100.13C195.629 99.8883 195.629 99.605 195.539 99.2797C195.407 98.8039 195.151 98.4982 194.77 98.3625C194.392 98.2291 193.916 98.2409 193.34 98.3981Z" fill="white"/>
<path d="M206.611 115.186C206.443 114.578 206.524 114.033 206.854 113.551C207.185 113.072 207.774 112.717 208.621 112.485C209.477 112.252 210.175 112.259 210.713 112.507C211.256 112.757 211.612 113.188 211.781 113.8C211.852 114.056 211.879 114.289 211.863 114.501C211.847 114.713 211.801 114.903 211.725 115.073C211.65 115.246 211.553 115.399 211.434 115.532L211.449 115.586C211.538 115.545 211.665 115.494 211.83 115.433C211.994 115.372 212.14 115.324 212.266 115.29L214.161 114.773L214.412 115.681L207.376 117.601L207.178 116.883L207.828 116.545L207.817 116.504C207.647 116.453 207.483 116.374 207.323 116.265C207.167 116.159 207.027 116.017 206.904 115.84C206.781 115.666 206.684 115.448 206.611 115.186ZM207.411 115.196C207.547 115.687 207.785 115.995 208.124 116.119C208.464 116.247 208.913 116.236 209.472 116.087L209.612 116.048C210.206 115.886 210.634 115.664 210.896 115.382C211.162 115.102 211.224 114.703 211.081 114.185C210.964 113.763 210.71 113.491 210.319 113.368C209.932 113.244 209.445 113.261 208.861 113.421C208.282 113.579 207.865 113.808 207.611 114.107C207.36 114.406 207.293 114.769 207.411 115.196Z" fill="white"/>
<path d="M210.886 110.565C210.911 110.655 210.932 110.755 210.949 110.864C210.969 110.972 210.982 111.065 210.988 111.145L210.116 111.28C210.114 111.203 210.106 111.115 210.091 111.015C210.078 110.919 210.06 110.83 210.037 110.748C209.984 110.555 209.897 110.382 209.776 110.227C209.655 110.072 209.507 109.947 209.332 109.852C209.16 109.757 208.964 109.699 208.744 109.678C208.527 109.656 208.292 109.679 208.039 109.749L205.403 110.468L205.15 109.556L210.133 108.196L210.336 108.927L209.466 109.281L209.477 109.322C209.686 109.375 209.886 109.453 210.077 109.557C210.269 109.663 210.434 109.799 210.574 109.965C210.718 110.133 210.822 110.333 210.886 110.565Z" fill="white"/>
<path d="M209.292 104.82C209.462 105.435 209.452 105.931 209.262 106.31C209.075 106.689 208.687 106.958 208.1 107.118L204.731 108.038L204.551 107.387L205.226 107.014L205.216 106.977C204.996 106.888 204.806 106.785 204.643 106.667C204.481 106.55 204.342 106.4 204.227 106.217C204.113 106.038 204.016 105.807 203.938 105.524C203.855 105.223 203.835 104.94 203.878 104.675C203.922 104.411 204.033 104.181 204.213 103.986C204.396 103.794 204.657 103.651 204.994 103.559C205.501 103.421 205.939 103.51 206.309 103.827C206.678 104.144 206.985 104.694 207.227 105.476L207.501 106.325L207.781 106.248C208.17 106.142 208.42 105.98 208.531 105.762C208.644 105.546 208.657 105.284 208.571 104.973C208.5 104.717 208.395 104.482 208.254 104.268C208.117 104.053 207.967 103.851 207.805 103.662L208.385 103.193C208.57 103.395 208.745 103.633 208.909 103.909C209.074 104.188 209.201 104.492 209.292 104.82ZM206.901 106.479L206.677 105.791C206.497 105.222 206.288 104.843 206.051 104.655C205.819 104.469 205.55 104.418 205.245 104.501C204.98 104.574 204.808 104.707 204.728 104.9C204.649 105.093 204.645 105.321 204.718 105.583C204.83 105.986 205.034 106.287 205.332 106.484C205.634 106.684 206.007 106.722 206.454 106.601L206.901 106.479Z" fill="white"/>
<path d="M203.387 103.182L202.362 99.4773L202.941 99.3194L207.364 100.93L206.684 98.4724L207.39 98.2799L208.352 101.758L207.71 101.934L203.356 100.348L204.088 102.99L203.387 103.182Z" fill="white"/>
<path d="M206.625 95.1801C206.795 95.7945 206.785 96.2912 206.595 96.6702C206.408 97.0485 206.02 97.3178 205.433 97.4782L202.064 98.3977L201.884 97.7472L202.559 97.3735L202.549 97.3374C202.329 97.2482 202.139 97.1448 201.976 97.0272C201.814 96.9095 201.675 96.7595 201.56 96.5772C201.446 96.3979 201.349 96.1667 201.271 95.8836C201.188 95.5824 201.168 95.2996 201.211 95.0351C201.255 94.7706 201.366 94.5409 201.546 94.3462C201.729 94.1536 201.99 94.0112 202.327 93.9191C202.834 93.7808 203.272 93.8702 203.642 94.1871C204.011 94.504 204.318 95.0537 204.56 95.8362L204.834 96.6846L205.114 96.6081C205.503 96.5019 205.753 96.3397 205.864 96.1214C205.977 95.9062 205.99 95.6434 205.904 95.3332C205.833 95.0773 205.728 94.8421 205.587 94.6278C205.45 94.4126 205.3 94.2106 205.138 94.0217L205.718 93.5524C205.903 93.7544 206.078 93.9934 206.242 94.2693C206.407 94.5483 206.534 94.8519 206.625 95.1801ZM204.234 96.8385L204.01 96.1514C203.83 95.582 203.621 95.2032 203.384 95.0152C203.152 94.8294 202.883 94.7781 202.578 94.8612C202.313 94.9336 202.141 95.0664 202.061 95.2598C201.982 95.4531 201.978 95.6808 202.051 95.9428C202.163 96.3464 202.367 96.6468 202.665 96.8441C202.967 97.0436 203.34 97.0824 203.787 96.9606L204.234 96.8385Z" fill="white"/>
<path d="M200.569 92.9949L200.312 92.0688L203.364 91.2358L202.463 87.9787L199.411 88.8118L199.155 87.8857L205.766 86.0814L206.022 87.0075L203.264 87.7603L204.165 91.0173L206.923 90.2645L207.179 91.1905L200.569 92.9949Z" fill="white"/>
<path d="M142.821 4.02024C142.824 4.42159 142.705 4.7637 142.463 5.04657C142.222 5.32943 141.882 5.52506 141.443 5.63346L141.443 5.65982C141.962 5.72082 142.356 5.8764 142.624 6.12657C142.892 6.37382 143.028 6.70983 143.031 7.13463C143.035 7.75278 142.814 8.2362 142.368 8.58488C141.922 8.93063 141.283 9.10628 140.451 9.11182C139.754 9.11647 139.135 9.00487 138.594 8.77702L138.587 7.62129C138.837 7.7456 139.111 7.84631 139.411 7.92342C139.71 8.00053 140.006 8.03811 140.299 8.03615C140.747 8.03317 141.078 7.95479 141.291 7.80103C141.503 7.64726 141.609 7.40192 141.607 7.06502C141.605 6.76327 141.48 6.55022 141.233 6.42589C140.986 6.30156 140.593 6.24119 140.054 6.24478L139.566 6.24803L139.559 5.20655L140.056 5.20324C140.554 5.19992 140.917 5.13305 141.145 5.00262C141.375 4.86925 141.489 4.64436 141.487 4.32796C141.484 3.84164 141.178 3.60051 140.568 3.60457C140.357 3.60598 140.142 3.64257 139.923 3.71435C139.707 3.7861 139.466 3.90929 139.2 4.08391L138.566 3.15209C139.149 2.72632 139.846 2.51073 140.658 2.50532C141.323 2.50089 141.848 2.63216 142.234 2.89913C142.622 3.16607 142.818 3.53978 142.821 4.02024Z" fill="white"/>
<path d="M134.514 9.0635L133.174 9.07243L133.155 6.20287C133.152 5.84838 133.091 5.58365 132.969 5.40868C132.851 5.23075 132.664 5.14264 132.409 5.14434C132.067 5.14662 131.818 5.27425 131.665 5.52723C131.511 5.78022 131.436 6.19528 131.44 6.77241L131.456 9.08388L130.115 9.09282L130.083 4.17984L131.107 4.17301L131.291 4.80022L131.366 4.79972C131.496 4.57326 131.685 4.39621 131.933 4.26858C132.182 4.13802 132.467 4.07166 132.789 4.06952C133.524 4.06462 134.024 4.30153 134.288 4.78025L134.407 4.77946C134.537 4.55007 134.729 4.37154 134.983 4.24386C135.24 4.11617 135.53 4.05125 135.852 4.04911C136.409 4.0454 136.83 4.18615 137.116 4.47136C137.405 4.75362 137.552 5.20968 137.556 5.83955L137.577 9.04309L136.232 9.05205L136.213 6.18249C136.211 5.828 136.149 5.56327 136.028 5.3883C135.909 5.21037 135.723 5.12226 135.468 5.12395C135.14 5.12614 134.895 5.24496 134.732 5.48043C134.572 5.71587 134.494 6.08847 134.498 6.59822L134.514 9.0635Z" fill="white"/>
<path d="M129.325 2.67313L126.973 9.11376L125.756 9.12187L128.108 2.68124L129.325 2.67313Z" fill="white"/>
<path d="M125.552 4.21001L125.556 4.89114L124.789 5.09402C124.931 5.3128 125.003 5.55842 125.004 5.83088C125.008 6.35821 124.826 6.77105 124.459 7.0694C124.095 7.36481 123.586 7.51468 122.933 7.51904L122.691 7.50746L122.493 7.48681C122.356 7.59319 122.288 7.71084 122.289 7.83974C122.29 8.0331 122.537 8.12813 123.029 8.12485L123.864 8.11929C124.403 8.1157 124.814 8.22868 125.097 8.45825C125.382 8.6878 125.527 9.02669 125.53 9.47492C125.534 10.0491 125.296 10.496 124.818 10.8156C124.343 11.1352 123.657 11.298 122.76 11.304C122.075 11.3085 121.549 11.1919 121.185 10.9541C120.823 10.7192 120.64 10.3864 120.637 9.95577C120.635 9.65988 120.726 9.41171 120.909 9.21127C121.092 9.01082 121.362 8.86693 121.719 8.77959C121.581 8.72192 121.461 8.6275 121.357 8.49635C121.254 8.36228 121.201 8.22053 121.2 8.07112C121.199 7.88362 121.252 7.72799 121.36 7.60423C121.468 7.47753 121.623 7.35344 121.828 7.23196C121.569 7.12235 121.363 6.94501 121.209 6.69994C121.058 6.45485 120.981 6.16531 120.979 5.83133C120.975 5.29521 121.147 4.87951 121.494 4.58423C121.84 4.28894 122.337 4.13914 122.985 4.13483C123.123 4.13391 123.285 4.14601 123.473 4.17112C123.663 4.19329 123.785 4.21006 123.838 4.22143L125.552 4.21001ZM121.797 9.84258C121.798 10.0271 121.887 10.1716 122.063 10.2759C122.243 10.3801 122.492 10.4312 122.811 10.4291C123.292 10.4259 123.668 10.3575 123.939 10.2238C124.211 10.0902 124.346 9.90909 124.345 9.68058C124.343 9.49601 124.262 9.36911 124.1 9.29987C123.939 9.23063 123.689 9.19714 123.353 9.19938L122.658 9.20401C122.412 9.20565 122.206 9.26415 122.04 9.37952C121.876 9.4978 121.795 9.65215 121.797 9.84258ZM122.258 5.84039C122.26 6.10699 122.321 6.31752 122.442 6.47199C122.566 6.62644 122.753 6.70283 123.002 6.70117C123.254 6.6995 123.438 6.62063 123.554 6.46458C123.67 6.30853 123.727 6.09721 123.726 5.83061C123.722 5.23883 123.477 4.94455 122.99 4.9478C122.498 4.95108 122.254 5.24861 122.258 5.84039Z" fill="white"/>
<path d="M116.694 7.13874C116.697 7.49322 116.763 7.75939 116.893 7.93724C117.023 8.11216 117.226 8.1987 117.501 8.19686C117.87 8.1944 118.138 8.06664 118.303 7.81358C118.468 7.55759 118.549 7.1425 118.545 6.56829L118.53 4.25682L119.87 4.24789L119.903 9.16086L118.888 9.16763L118.694 8.50972L118.628 8.51016C118.507 8.76 118.359 8.94849 118.184 9.07564C118.009 9.19985 117.793 9.26282 117.535 9.26454C117.353 9.26575 117.186 9.23317 117.033 9.1668C116.88 9.10044 116.757 9.00311 116.662 8.87483L116.686 9.24822L116.713 9.93799L116.722 11.3442L115.382 11.3531L115.335 4.27811L116.675 4.26918L116.694 7.13874Z" fill="white"/>
<path d="M114.18 4.70502C114.19 6.27467 113.94 7.43826 113.428 8.19578C112.921 8.95328 112.133 9.3356 111.063 9.34272C110.026 9.34963 109.241 8.96551 108.707 8.19036C108.177 7.41518 107.907 6.26736 107.897 4.74689C107.887 3.16085 108.135 1.99113 108.642 1.23773C109.149 0.480233 109.936 0.0979332 111.001 0.0908325C112.038 0.0839231 112.824 0.472143 113.358 1.25549C113.896 2.03881 114.17 3.18866 114.18 4.70502ZM109.784 4.73431C109.792 5.83676 109.891 6.6271 110.083 7.10534C110.279 7.57946 110.602 7.81502 111.053 7.81201C111.495 7.80906 111.814 7.56513 112.007 7.08022C112.201 6.59531 112.294 5.80779 112.286 4.71764C112.279 3.6152 112.173 2.8249 111.969 2.34674C111.769 1.86445 111.45 1.62477 111.012 1.62769C110.565 1.63067 110.247 1.8746 110.057 2.35948C109.868 2.84026 109.777 3.63187 109.784 4.73431Z" fill="white"/>
<path d="M106.986 4.75294C106.997 6.32258 106.746 7.48617 106.235 8.2437C105.728 9.0012 104.939 9.38351 103.87 9.39064C102.833 9.39755 102.047 9.01342 101.514 8.23827C100.984 7.46309 100.714 6.31527 100.704 4.7948C100.693 3.20877 100.942 2.03905 101.449 1.28565C101.956 0.528146 102.742 0.145846 103.808 0.138745C104.845 0.131836 105.63 0.520055 106.164 1.3034C106.702 2.08673 106.976 3.23657 106.986 4.75294ZM102.591 4.78223C102.598 5.88467 102.698 6.67501 102.89 7.15325C103.085 7.62737 103.409 7.86293 103.859 7.85992C104.302 7.85698 104.62 7.61305 104.814 7.12814C105.007 6.64323 105.1 5.8557 105.093 4.76555C105.086 3.66311 104.98 2.87281 104.776 2.39465C104.576 1.91236 104.257 1.67268 103.818 1.6756C103.372 1.67858 103.054 1.92251 102.864 2.40739C102.675 2.88818 102.584 3.67979 102.591 4.78223Z" fill="white"/>
<path d="M96.823 3.57269C97.6919 3.5669 98.384 3.80615 98.8996 4.29043C99.4192 4.77469 99.6819 5.44099 99.6875 6.28933C99.6942 7.29341 99.3899 8.068 98.7747 8.6131C98.1594 9.1582 97.276 9.43459 96.1244 9.44226C95.1244 9.44892 94.316 9.29242 93.6991 8.97275L93.6881 7.33139C94.013 7.50136 94.391 7.64024 94.8221 7.74802C95.2531 7.85171 95.6613 7.90227 96.0465 7.8997C97.2063 7.89198 97.7831 7.41271 97.7767 6.46191C97.7707 5.55618 97.1673 5.10732 95.9665 5.11532C95.7493 5.11677 95.5097 5.14091 95.2477 5.18774C94.9856 5.23047 94.7728 5.27697 94.6092 5.32724L93.8504 4.92655L94.158 0.344459L99.0329 0.311974L99.0436 1.9226L95.8347 1.94399L95.6805 3.70941L95.8953 3.66494C96.1449 3.6059 96.4542 3.57515 96.823 3.57269Z" fill="white"/>
<path d="M77.6525 6.51374C77.8667 6.85312 77.9462 7.20662 77.8907 7.57426C77.8352 7.94189 77.6499 8.28761 77.3346 8.6114L77.3487 8.6337C77.8216 8.41135 78.238 8.33553 78.5979 8.40624C78.9563 8.47447 79.2489 8.68819 79.4757 9.04738C79.8057 9.57008 79.8735 10.0972 79.679 10.6289C79.483 11.158 79.0332 11.6447 78.3297 12.0889C77.7401 12.4611 77.1556 12.6933 76.5763 12.7854L75.9592 11.8081C76.2371 11.7817 76.5234 11.7222 76.8183 11.6295C77.1132 11.5369 77.3846 11.4123 77.6323 11.2559C78.0113 11.0166 78.2506 10.7755 78.3501 10.5325C78.4496 10.2895 78.4094 10.0255 78.2295 9.74065C78.0684 9.4855 77.8502 9.37035 77.5748 9.39522C77.2995 9.42008 76.9339 9.57641 76.4781 9.8642L76.0656 10.1246L75.5096 9.24397L75.9295 8.97886C76.3506 8.71296 76.6234 8.46451 76.7478 8.23352C76.8731 7.99848 76.8513 7.74719 76.6824 7.47965C76.4227 7.06843 76.0353 7.02548 75.52 7.35082C75.3417 7.46343 75.1784 7.60812 75.0301 7.78488C74.8843 7.96008 74.7449 8.19192 74.6117 8.48041L73.5806 8.02444C73.8508 7.3549 74.329 6.8035 75.0152 6.37024C75.5776 6.01519 76.0929 5.84917 76.5614 5.87217C77.0322 5.89362 77.3959 6.10747 77.6525 6.51374Z" fill="white"/>
<path d="M73.2629 15.1842L72.1296 15.8998L70.5975 13.4734C70.4083 13.1736 70.216 12.9815 70.0205 12.897C69.826 12.8084 69.621 12.8322 69.4055 12.9683C69.1157 13.1513 68.9724 13.3907 68.9756 13.6867C68.9788 13.9826 69.1345 14.3746 69.4426 14.8626L70.6767 16.8171L69.5434 17.5327L66.9204 13.3784L67.7862 12.8318L68.274 13.2669L68.3372 13.2271C68.3282 12.9659 68.3954 12.7156 68.5387 12.4762C68.6804 12.2342 68.8876 12.0272 69.1601 11.8552C69.7818 11.4626 70.3312 11.3998 70.8082 11.6669L70.9085 11.6035C70.898 11.3399 70.9669 11.0868 71.1151 10.8442C71.2659 10.6 71.4775 10.3919 71.75 10.2199C72.2207 9.9227 72.6528 9.81964 73.0464 9.91069C73.4408 9.9977 73.8062 10.3075 74.1425 10.8401L75.8529 13.549L74.7158 14.2669L73.1838 11.8404C72.9945 11.5407 72.8022 11.3486 72.6068 11.2641C72.4123 11.1755 72.2073 11.1993 71.9917 11.3354C71.7143 11.5105 71.5688 11.741 71.5552 12.0268C71.5441 12.311 71.6746 12.6686 71.9467 13.0996L73.2629 15.1842Z" fill="white"/>
<path d="M65.4812 12.499L66.8861 19.2102L65.8568 19.8601L64.4519 13.1489L65.4812 12.499Z" fill="white"/>
<path d="M63.0886 15.7973L63.4522 16.3733L62.9075 16.9511C63.1438 17.0618 63.3346 17.2323 63.4801 17.4627C63.7616 17.9086 63.8253 18.3552 63.6711 18.8025C63.5179 19.2457 63.1651 19.6417 62.6126 19.9905L62.4012 20.1084L62.2223 20.1954C62.1622 20.3581 62.1665 20.4939 62.2353 20.6029C62.3386 20.7664 62.5983 20.7168 63.0144 20.454L63.7204 20.0083C64.1763 19.7205 64.5848 19.5993 64.9462 19.6449C65.3101 19.6889 65.6117 19.9004 65.851 20.2794C66.1575 20.7649 66.1921 21.2697 65.9548 21.7938C65.7199 22.3163 65.2235 22.8168 64.4655 23.2954C63.8858 23.6614 63.3782 23.8398 62.9428 23.8307C62.5114 23.8224 62.1808 23.6362 61.9508 23.272C61.7929 23.0218 61.7387 22.7632 61.7884 22.4962C61.8381 22.2293 61.9914 21.9644 62.2483 21.7018C62.1006 21.7257 61.9482 21.7094 61.7911 21.6526C61.6324 21.5934 61.5132 21.5006 61.4335 21.3743C61.3334 21.2158 61.2963 21.0555 61.3222 20.8936C61.3466 20.7292 61.4135 20.5415 61.5228 20.3304C61.2453 20.374 60.9765 20.3323 60.7163 20.2056C60.4586 20.0773 60.2406 19.8719 60.0623 19.5895C59.776 19.1362 59.7021 18.6926 59.8405 18.2587C59.9789 17.8249 60.3218 17.4351 60.8693 17.0894C60.9857 17.0159 61.1302 16.9403 61.3028 16.8625C61.4764 16.7806 61.5886 16.7306 61.6394 16.7123L63.0886 15.7973ZM62.8755 22.5635C62.974 22.7195 63.1258 22.7952 63.3307 22.7906C63.5381 22.7843 63.7769 22.696 64.0469 22.5255C64.4531 22.269 64.7363 22.0122 64.8963 21.7553C65.0563 21.4984 65.0753 21.2733 64.9533 21.0801C64.8547 20.924 64.7186 20.8593 64.5448 20.8858C64.371 20.9124 64.1417 21.0156 63.8568 21.1955L63.2697 21.5662C63.0616 21.6976 62.9174 21.8561 62.8372 22.0419C62.7611 22.2286 62.7738 22.4024 62.8755 22.5635ZM61.153 18.9216C61.2953 19.1471 61.4587 19.2933 61.6432 19.3605C61.8301 19.4261 62.0289 19.3924 62.2394 19.2595C62.4525 19.125 62.5671 18.9608 62.5833 18.7669C62.5995 18.5731 62.5364 18.3634 62.3941 18.138C62.0781 17.6376 61.7145 17.5172 61.3033 17.7769C60.8871 18.0396 60.837 18.4212 61.153 18.9216Z" fill="white"/>
<path d="M57.1146 22.963C57.3038 23.2627 57.5007 23.4537 57.7051 23.536C57.9079 23.6158 58.1258 23.5822 58.3586 23.4352C58.6708 23.2381 58.8302 22.9885 58.8369 22.6863C58.842 22.3816 58.6913 21.9865 58.3847 21.501L57.1506 19.5465L58.284 18.8309L60.907 22.9852L60.0486 23.5271L59.5369 23.0707L59.4812 23.1058C59.5101 23.3821 59.4838 23.6204 59.4025 23.8208C59.3195 24.0187 59.169 24.1864 58.9511 24.3241C58.7975 24.4211 58.6383 24.4817 58.4735 24.5061C58.3087 24.5304 58.1523 24.5131 58.0042 24.4542L58.2222 24.7583L58.6091 25.33L59.3599 26.519L58.2265 27.2346L54.4492 21.2521L55.5825 20.5365L57.1146 22.963Z" fill="white"/>
<path d="M53.6944 22.2249C54.5324 23.5521 54.9344 24.6724 54.9004 25.5857C54.8698 26.4969 54.4023 27.238 53.4978 27.8091C52.621 28.3627 51.7513 28.4514 50.8885 28.0752C50.0292 27.6968 49.1937 26.8648 48.3819 25.5791C47.5351 24.238 47.1281 23.1136 47.1609 22.2059C47.1915 21.2948 47.6573 20.5548 48.5583 19.9859C49.435 19.4323 50.307 19.3471 51.1741 19.7302C52.0447 20.1111 52.8848 20.9426 53.6944 22.2249ZM49.9777 24.5715C50.5663 25.5037 51.0683 26.1222 51.4837 26.427C51.9004 26.7262 52.2994 26.7554 52.6806 26.5147C53.0548 26.2784 53.196 25.9033 53.1042 25.3894C53.0123 24.8754 52.6754 24.1575 52.0934 23.2357C51.5048 22.3035 50.9976 21.6883 50.5718 21.3901C50.1473 21.0862 49.7496 21.0513 49.3788 21.2854C49.0011 21.5239 48.8599 21.899 48.9552 22.4108C49.0483 22.9191 49.3891 23.6393 49.9777 24.5715Z" fill="white"/>
<path d="M47.6124 26.0648C48.4504 27.3921 48.8524 28.5124 48.8183 29.4257C48.7878 30.3369 48.3202 31.078 47.4158 31.6491C46.539 32.2026 45.6692 32.2913 44.8065 31.9152C43.9472 31.5368 43.1116 30.7048 42.2999 29.4191C41.4531 28.078 41.0461 26.9536 41.0789 26.0459C41.1094 25.1348 41.5752 24.3948 42.4762 23.8259C43.353 23.2723 44.2249 23.1871 45.0921 23.5702C45.9627 23.9511 46.8028 24.7826 47.6124 26.0648ZM43.8957 28.4115C44.4843 29.3437 44.9863 29.9622 45.4017 30.267C45.8184 30.5662 46.2173 30.5954 46.5985 30.3547C46.9728 30.1184 47.114 29.7433 47.0222 29.2294C46.9303 28.7154 46.5934 27.9975 46.0113 27.0757C45.4228 26.1435 44.9156 25.5283 44.4898 25.2301C44.0652 24.9262 43.6676 24.8913 43.2968 25.1254C42.919 25.3639 42.7778 25.739 42.8731 26.2508C42.9663 26.7591 43.3071 27.4793 43.8957 28.4115Z" fill="white"/>
<path d="M43.1485 31.9951L42.2336 32.5728L43.2281 34.1478L41.6582 35.139L40.6638 33.5639L37.4201 35.612L36.7145 34.4944L36.9482 27.4835L38.4297 26.5481L41.4459 31.3252L42.3608 30.7476L43.1485 31.9951ZM39.8761 32.3164L39.0621 31.0273C38.9265 30.8124 38.7382 30.495 38.4973 30.0752C38.2565 29.6553 38.1205 29.4092 38.0893 29.3368L38.0477 29.363C38.0989 29.7282 38.1197 30.1028 38.1102 30.4868L38.0463 33.4717L39.8761 32.3164Z" fill="white"/>
<path d="M235.985 85.8325C235.63 86.0181 235.271 86.0682 234.909 85.9826C234.547 85.8971 234.218 85.6839 233.921 85.343L233.898 85.3552C234.08 85.8448 234.122 86.2661 234.021 86.619C233.924 86.9705 233.687 87.2445 233.31 87.4409C232.762 87.7268 232.231 87.751 231.717 87.5134C231.206 87.2745 230.758 86.7862 230.373 86.0485C230.051 85.4303 229.868 84.8286 229.824 84.2437L230.848 83.7092C230.852 83.9882 230.888 84.2785 230.956 84.58C231.024 84.8816 231.125 85.1622 231.261 85.422C231.468 85.8194 231.689 86.0777 231.923 86.1969C232.157 86.3161 232.423 86.2977 232.722 86.1419C232.989 86.0024 233.122 85.7944 233.12 85.5179C233.118 85.2415 232.992 84.8643 232.743 84.3863L232.517 83.9538L233.441 83.4722L233.67 83.9125C233.901 84.354 234.126 84.6463 234.346 84.7893C234.57 84.9336 234.822 84.9325 235.103 84.7862C235.534 84.5613 235.609 84.1787 235.327 83.6384C235.229 83.4514 235.098 83.2767 234.934 83.1144C234.772 82.9547 234.552 82.7966 234.276 82.6402L234.815 81.6501C235.46 81.9746 235.97 82.4965 236.346 83.2161C236.653 83.8057 236.776 84.333 236.715 84.7979C236.654 85.2655 236.411 85.6103 235.985 85.8325Z" fill="white"/>
<path d="M227.706 80.7438L227.086 79.5554L229.63 78.2283C229.945 78.0644 230.152 77.8885 230.252 77.7007C230.356 77.5142 230.35 77.3079 230.232 77.0819C230.073 76.778 229.846 76.6155 229.551 76.5943C229.256 76.5732 228.852 76.6961 228.341 76.963L226.291 78.0319L225.671 76.8435L230.028 74.5715L230.501 75.4793L230.027 75.9297L230.062 75.9959C230.323 76.0085 230.567 76.096 230.794 76.2586C231.023 76.4198 231.212 76.6432 231.361 76.9289C231.701 77.5809 231.719 78.1336 231.413 78.587L231.468 78.6922C231.732 78.7034 231.978 78.7929 232.208 78.9606C232.439 79.131 232.629 79.359 232.778 79.6447C233.035 80.1383 233.102 80.5774 232.979 80.9621C232.86 81.3481 232.521 81.6868 231.963 81.9781L229.122 83.4596L228.5 82.2673L231.045 80.9402C231.359 80.7763 231.566 80.6004 231.667 80.4126C231.771 80.2261 231.764 80.0198 231.646 79.7938C231.494 79.5029 231.277 79.3389 230.993 79.3018C230.711 79.2673 230.344 79.368 229.892 79.6037L227.706 80.7438Z" fill="white"/>
<path d="M231.022 73.21L224.218 74.0576L223.655 72.9783L230.459 72.1307L231.022 73.21Z" fill="white"/>
<path d="M227.932 70.5543L227.328 70.8693L226.797 70.2789C226.667 70.5052 226.482 70.6813 226.24 70.8073C225.773 71.0512 225.322 71.0779 224.889 70.8874C224.46 70.6982 224.095 70.314 223.792 69.7347L223.692 69.5143L223.62 69.3288C223.463 69.2555 223.327 69.2487 223.213 69.3083C223.042 69.3977 223.07 69.6606 223.297 70.097L223.684 70.8373C223.933 71.3153 224.02 71.7325 223.945 72.0889C223.871 72.4479 223.635 72.731 223.238 72.9383C222.729 73.2038 222.223 73.1968 221.72 72.9171C221.219 72.64 220.761 72.104 220.346 71.3092C220.029 70.7013 219.893 70.1808 219.938 69.7476C219.982 69.3184 220.195 69.0042 220.577 68.805C220.839 68.6682 221.101 68.6355 221.363 68.707C221.625 68.7786 221.876 68.9531 222.117 69.2307C222.105 69.0816 222.134 68.931 222.204 68.7791C222.276 68.6259 222.378 68.5147 222.51 68.4456C222.677 68.3589 222.839 68.3352 222.999 68.3744C223.16 68.4122 223.342 68.4943 223.543 68.6206C223.523 68.3405 223.586 68.076 223.734 67.8272C223.883 67.5809 224.106 67.3805 224.402 67.226C224.877 66.9781 225.326 66.941 225.747 67.1146C226.168 67.2882 226.528 67.6621 226.827 68.2361C226.891 68.3582 226.954 68.5085 227.018 68.6869C227.085 68.8666 227.126 68.9825 227.14 69.0347L227.932 70.5543ZM221.207 69.7849C221.043 69.8702 220.955 70.0152 220.943 70.2199C220.932 70.4271 221 70.6723 221.148 70.9554C221.37 71.3814 221.603 71.6847 221.846 71.8653C222.088 72.0459 222.311 72.0834 222.514 71.9777C222.677 71.8924 222.753 71.762 222.741 71.5866C222.729 71.4112 222.645 71.1742 222.489 70.8755L222.168 70.2598C222.054 70.0416 221.908 69.8849 221.729 69.7897C221.55 69.6984 221.375 69.6968 221.207 69.7849ZM224.978 68.368C224.741 68.4913 224.582 68.6421 224.5 68.8204C224.419 69.0013 224.437 69.2022 224.552 69.423C224.668 69.6464 224.822 69.7741 225.014 69.8062C225.206 69.8383 225.42 69.7927 225.657 69.6694C226.181 69.3957 226.331 69.0433 226.106 68.6121C225.879 68.1757 225.503 68.0943 224.978 68.368Z" fill="white"/>
<path d="M221.283 64.0107C220.968 64.1746 220.762 64.3551 220.663 64.552C220.567 64.7476 220.582 64.9675 220.709 65.2116C220.88 65.5389 221.116 65.7183 221.416 65.7499C221.72 65.7801 222.126 65.6624 222.635 65.3969L224.684 64.3279L225.304 65.5163L220.948 67.7884L220.479 66.8883L220.976 66.4159L220.945 66.3575C220.668 66.3635 220.432 66.3178 220.239 66.2202C220.049 66.1212 219.894 65.9574 219.775 65.7288C219.691 65.5678 219.644 65.4042 219.633 65.2379C219.622 65.0717 219.652 64.9172 219.723 64.7745L219.402 64.9667L218.801 65.3052L217.554 65.9556L216.934 64.7672L223.207 61.4952L223.827 62.6836L221.283 64.0107Z" fill="white"/>
<path d="M222.3 60.6623C220.908 61.3882 219.758 61.6966 218.851 61.5875C217.945 61.482 217.245 60.955 216.751 60.0066C216.271 59.0873 216.254 58.2132 216.7 57.3843C217.148 56.5591 218.046 55.7949 219.394 55.0917C220.8 54.3582 221.954 54.0452 222.856 54.1525C223.762 54.258 224.461 54.7832 224.954 55.7279C225.433 56.6473 225.446 57.5233 224.993 58.356C224.542 59.1923 223.644 59.961 222.3 60.6623ZM220.267 56.7651C219.289 57.2749 218.632 57.7243 218.294 58.1132C217.961 58.5038 217.899 58.899 218.108 59.2987C218.312 59.6912 218.675 59.8628 219.194 59.8136C219.714 59.7643 220.457 59.4876 221.424 58.9835C222.401 58.4737 223.056 58.0188 223.389 57.619C223.726 57.221 223.794 56.8275 223.591 56.4387C223.385 56.0426 223.022 55.871 222.504 55.9239C221.99 55.9748 221.244 56.2552 220.267 56.7651Z" fill="white"/>
<path d="M218.709 51.0806C219.111 51.851 219.214 52.576 219.019 53.2558C218.825 53.9392 218.352 54.4771 217.6 54.8694C216.71 55.3338 215.882 55.4167 215.116 55.1182C214.35 54.8196 213.701 54.1598 213.168 53.1387C212.706 52.2521 212.476 51.4614 212.479 50.7666L213.934 50.0075C213.931 50.3742 213.98 50.7739 214.081 51.2066C214.186 51.6374 214.327 52.0236 214.505 52.3652C215.041 53.3935 215.731 53.6879 216.574 53.2482C217.377 52.8293 217.501 52.0875 216.946 51.0228C216.845 50.8302 216.714 50.6281 216.553 50.4163C216.396 50.2027 216.257 50.0346 216.138 49.912L216.148 49.0539L220.365 47.2357L222.619 51.5581L221.191 52.303L219.707 49.4577L218.066 50.1265L218.204 50.2974C218.37 50.4925 218.539 50.7536 218.709 51.0806Z" fill="white"/>
<path d="M218.286 42.9956C218.684 43.7587 218.829 44.4638 218.723 45.1108C218.622 45.7596 218.278 46.2376 217.689 46.5446C217.282 46.7569 216.86 46.8338 216.423 46.7753C215.989 46.7149 215.516 46.4993 215.004 46.1286C214.995 46.8914 214.883 47.4927 214.669 47.9327C214.46 48.3743 214.149 48.7032 213.734 48.9193C213.08 49.2604 212.42 49.2791 211.753 48.9752C211.09 48.6694 210.54 48.0986 210.104 47.2629C209.649 46.3908 209.477 45.6091 209.588 44.918C209.699 44.2268 210.094 43.704 210.774 43.3496C211.228 43.1127 211.694 43.0222 212.172 43.0782C212.651 43.1378 213.165 43.3646 213.712 43.7585C213.762 43.1546 213.899 42.6674 214.122 42.2969C214.344 41.9265 214.65 41.6399 215.039 41.4371C215.609 41.1395 216.194 41.135 216.793 41.4235C217.392 41.7121 217.889 42.2361 218.286 42.9956ZM211.685 44.8573C211.373 45.0203 211.186 45.2563 211.125 45.5653C211.065 45.8743 211.133 46.2178 211.33 46.5957C211.548 47.0136 211.8 47.2797 212.086 47.3939C212.376 47.5063 212.668 47.4857 212.962 47.3322C213.206 47.2052 213.379 46.9832 213.481 46.6661C213.59 46.3508 213.643 45.8999 213.642 45.3133C212.883 44.725 212.23 44.573 211.685 44.8573ZM217.048 43.6272C216.898 43.3401 216.702 43.1464 216.461 43.0461C216.224 42.9474 215.983 42.9626 215.735 43.0915C215.517 43.2052 215.357 43.3766 215.255 43.6056C215.158 43.8364 215.114 44.1827 215.124 44.6445C215.477 44.9134 215.778 45.0733 216.026 45.124C216.274 45.1747 216.513 45.1404 216.742 45.021C216.993 44.8902 217.143 44.6961 217.194 44.4386C217.244 44.1811 217.196 43.9106 217.048 43.6272Z" fill="white"/>
<path d="M201.428 33.1999C201.224 33.5456 200.945 33.7777 200.593 33.8963C200.241 34.0149 199.848 34.0079 199.416 33.8753L199.403 33.898C199.817 34.2171 200.074 34.5529 200.176 34.9054C200.279 35.2554 200.222 35.6133 200.007 35.9791C199.692 36.5114 199.254 36.8125 198.693 36.8823C198.132 36.9497 197.494 36.7718 196.777 36.3489C196.177 35.9944 195.703 35.5805 195.357 35.1072L195.944 34.1119C196.095 34.347 196.279 34.5745 196.496 34.7945C196.713 35.0146 196.948 35.199 197.2 35.348C197.586 35.5758 197.91 35.6785 198.171 35.6561C198.433 35.6336 198.649 35.4773 198.821 35.1872C198.974 34.9273 198.977 34.6806 198.829 34.447C198.681 34.2134 198.375 33.9596 197.911 33.6856L197.491 33.4376L198.02 32.5407L198.448 32.7931C198.877 33.0463 199.222 33.1755 199.485 33.1807C199.751 33.1848 199.964 33.0506 200.125 32.7781C200.373 32.3593 200.234 31.9951 199.709 31.6853C199.527 31.578 199.324 31.4989 199.099 31.4477C198.877 31.398 198.607 31.3799 198.289 31.3932L198.224 30.2677C198.943 30.2022 199.652 30.3758 200.351 30.7883C200.923 31.1264 201.307 31.5091 201.5 31.9363C201.696 32.365 201.672 32.7862 201.428 33.1999Z" fill="white"/>
<path d="M191.709 33.2551L190.555 32.5737L192.014 30.1025C192.194 29.7973 192.277 29.5384 192.263 29.326C192.253 29.1125 192.138 28.941 191.919 28.8114C191.624 28.6372 191.345 28.6191 191.083 28.7571C190.822 28.8951 190.544 29.2127 190.251 29.7097L189.076 31.7002L187.921 31.0189L190.419 26.788L191.301 27.3085L191.136 27.9412L191.201 27.9792C191.429 27.852 191.682 27.7974 191.961 27.8155C192.241 27.8311 192.519 27.9208 192.797 28.0846C193.43 28.4584 193.737 28.9185 193.717 29.4648L193.819 29.5251C194.049 29.3954 194.306 29.341 194.589 29.3621C194.875 29.3847 195.157 29.4779 195.435 29.6417C195.914 29.9247 196.203 30.262 196.302 30.6537C196.405 31.0444 196.296 31.511 195.976 32.0534L194.347 34.8122L193.189 34.1286L194.648 31.6574C194.828 31.3521 194.911 31.0933 194.897 30.8808C194.887 30.6674 194.772 30.4958 194.553 30.3663C194.27 30.1995 193.999 30.1753 193.738 30.2937C193.48 30.4136 193.222 30.6931 192.963 31.1321L191.709 33.2551Z" fill="white"/>
<path d="M190.544 25.1064L185.216 29.4215L184.168 28.8027L189.496 24.4875L190.544 25.1064Z" fill="white"/>
<path d="M186.518 24.4847L186.172 25.0713L185.409 24.8507C185.418 25.1114 185.354 25.359 185.215 25.5937C184.947 26.0478 184.579 26.3084 184.111 26.3756C183.646 26.4417 183.133 26.3087 182.57 25.9766L182.369 25.8424L182.21 25.7229C182.037 25.7437 181.919 25.8097 181.853 25.9207C181.755 26.0872 181.918 26.2955 182.341 26.5457L183.06 26.9702C183.525 27.2442 183.819 27.5524 183.944 27.8947C184.071 28.2384 184.02 28.6033 183.792 28.9893C183.5 29.4838 183.067 29.7452 182.493 29.7734C181.921 29.8031 181.248 29.5901 180.476 29.1344C179.886 28.7859 179.496 28.4159 179.305 28.0243C179.115 27.6368 179.13 27.2576 179.349 26.8867C179.499 26.6319 179.704 26.4656 179.965 26.3879C180.225 26.3101 180.53 26.3255 180.881 26.4341C180.793 26.3136 180.738 26.1706 180.716 26.0049C180.697 25.8367 180.725 25.6883 180.801 25.5596C180.896 25.3982 181.022 25.292 181.177 25.2412C181.335 25.1878 181.532 25.1615 181.77 25.1623C181.605 24.9354 181.519 24.6772 181.513 24.3879C181.509 24.1 181.592 23.8122 181.762 23.5246C182.035 23.0629 182.395 22.7946 182.845 22.7195C183.294 22.6444 183.797 22.7715 184.355 23.1006C184.473 23.1706 184.607 23.2646 184.755 23.3827C184.907 23.4996 185.002 23.5766 185.042 23.6135L186.518 24.4847ZM180.401 27.3856C180.308 27.5446 180.31 27.7141 180.407 27.8943C180.508 28.076 180.695 28.248 180.97 28.4103C181.384 28.6546 181.742 28.7892 182.043 28.8142C182.345 28.8392 182.554 28.7532 182.67 28.5565C182.764 28.3975 182.759 28.2468 182.656 28.1044C182.553 27.9619 182.357 27.805 182.067 27.6338L181.469 27.2808C181.257 27.1557 181.05 27.0999 180.848 27.1134C180.647 27.1309 180.498 27.2216 180.401 27.3856ZM182.854 24.1899C182.719 24.4194 182.663 24.6316 182.688 24.8264C182.715 25.0227 182.836 25.1841 183.05 25.3107C183.267 25.4388 183.465 25.4657 183.645 25.3916C183.825 25.3175 183.983 25.1656 184.118 24.936C184.419 24.4264 184.36 24.048 183.941 23.8007C183.518 23.5505 183.155 23.6802 182.854 24.1899Z" fill="white"/>
<path d="M177.414 22.4432C177.234 22.7485 177.154 23.0109 177.174 23.2303C177.196 23.4472 177.325 23.6256 177.562 23.7656C177.88 23.9533 178.175 23.9811 178.447 23.849C178.72 23.7144 179.003 23.3999 179.295 22.9054L180.47 20.9148L181.624 21.5962L179.127 25.8271L178.252 25.311L178.425 24.6473L178.368 24.6138C178.135 24.7657 177.911 24.8512 177.696 24.8703C177.482 24.8869 177.264 24.8297 177.042 24.6986C176.886 24.6063 176.759 24.4924 176.662 24.3569C176.565 24.2215 176.509 24.0744 176.494 23.9157L176.323 24.2486L175.991 24.8539L175.276 26.0649L174.122 25.3835L177.719 19.2907L178.873 19.9721L177.414 22.4432Z" fill="white"/>
<path d="M176.508 19.063C175.71 20.4148 174.897 21.2841 174.069 21.6709C173.245 22.0599 172.372 21.9825 171.451 21.4387C170.558 20.9116 170.082 20.1784 170.022 19.2391C169.966 18.3018 170.325 17.1785 171.098 15.8691C171.904 14.5033 172.718 13.6276 173.541 13.2422C174.365 12.8532 175.236 12.9296 176.154 13.4713C177.047 13.9984 177.521 14.7352 177.576 15.6815C177.635 16.63 177.279 17.7572 176.508 19.063ZM172.723 16.8285C172.163 17.7779 171.842 18.507 171.76 19.0158C171.684 19.5231 171.841 19.8913 172.229 20.1205C172.61 20.3455 173.008 20.2998 173.423 19.9834C173.839 19.6669 174.323 19.0393 174.878 18.1005C175.438 17.1511 175.754 16.4189 175.825 15.9039C175.901 15.3874 175.75 15.0177 175.373 14.7948C174.988 14.5677 174.59 14.6134 174.178 14.932C173.768 15.247 173.283 15.8792 172.723 16.8285Z" fill="white"/>
<path d="M168.397 12.8256C169.145 13.2673 169.616 13.8284 169.809 14.5088C170.006 15.1913 169.889 15.8978 169.458 16.6284C168.947 17.4931 168.288 18.001 167.48 18.1523C166.672 18.3036 165.772 18.0865 164.781 17.501C163.919 16.9927 163.306 16.4428 162.942 15.8515L163.776 14.438C163.967 14.7508 164.22 15.0643 164.534 15.3783C164.851 15.6889 165.175 15.942 165.507 16.1379C166.506 16.7275 167.247 16.6129 167.73 15.7941C168.19 15.0141 167.904 14.3189 166.869 13.7085C166.682 13.598 166.464 13.4956 166.216 13.4011C165.969 13.303 165.763 13.2335 165.596 13.1925L165.151 12.4587L167.771 8.68658L171.969 11.1648L171.15 12.5518L168.387 10.9205L167.347 12.3555L167.554 12.4278C167.799 12.5055 168.08 12.6381 168.397 12.8256Z" fill="white"/>
<path d="M158.356 9.13238C159.26 7.60065 160.256 6.65132 161.343 6.28437C162.434 5.91951 163.626 6.11835 164.918 6.88088C165.359 7.14131 165.689 7.37196 165.908 7.57282L165.136 8.88043C164.864 8.62442 164.574 8.40578 164.267 8.22452C163.706 7.89326 163.197 7.70712 162.741 7.6661C162.288 7.62716 161.875 7.72148 161.503 7.94907C161.131 8.17665 160.748 8.58636 160.356 9.17818L160.425 9.2188C161.129 8.82508 161.865 8.85531 162.634 9.3095C163.326 9.71785 163.74 10.2547 163.875 10.9201C164.011 11.5854 163.852 12.3011 163.4 13.0669C162.913 13.8928 162.293 14.41 161.542 14.6185C160.793 14.8234 160.005 14.6822 159.179 14.1946C158.608 13.8571 158.186 13.43 157.916 12.9132C157.648 12.3985 157.548 11.8182 157.615 11.1725C157.686 10.5289 157.933 9.84883 158.356 9.13238ZM159.92 12.8683C160.269 13.0745 160.606 13.1164 160.931 12.9939C161.257 12.8679 161.549 12.5878 161.805 12.1537C162.028 11.776 162.115 11.4275 162.065 11.108C162.022 10.7871 161.823 10.5225 161.47 10.3142C161.138 10.1183 160.791 10.0582 160.427 10.1339C160.067 10.2117 159.803 10.3936 159.634 10.6794C159.386 11.0994 159.286 11.5187 159.334 11.9373C159.386 12.3579 159.581 12.6683 159.92 12.8683Z" fill="white"/>
<path d="M27.2794 41.7872C27.5412 41.925 27.7395 42.0988 27.874 42.3086C28.0086 42.5184 28.0877 42.7487 28.1114 42.9995C28.1364 43.2477 28.1167 43.5022 28.0524 43.763L28.0757 43.7752C28.3728 43.3489 28.6949 43.0764 29.042 42.9578C29.3905 42.8366 29.7514 42.8742 30.1248 43.0706C30.4567 43.2452 30.7106 43.483 30.8865 43.7841C31.0638 44.0826 31.139 44.44 31.1121 44.8562C31.0851 45.2723 30.9318 45.7462 30.6522 46.2777C30.4872 46.5914 30.3071 46.8708 30.112 47.1158C29.9209 47.3595 29.7108 47.5733 29.4816 47.7573L28.4587 47.2192C28.7114 47.041 28.9404 46.8354 29.1457 46.6024C29.3484 46.3681 29.5105 46.1355 29.6319 45.9048C29.8583 45.4744 29.9426 45.1347 29.8848 44.8859C29.8258 44.633 29.6615 44.4357 29.3919 44.2938C29.2337 44.2106 29.079 44.1806 28.9279 44.2037C28.7767 44.2268 28.6201 44.3231 28.458 44.4928C28.2973 44.6598 28.1235 44.9209 27.9366 45.2761L27.7095 45.7078L26.7878 45.2229L27.019 44.7835C27.2031 44.4334 27.3105 44.1506 27.3412 43.935C27.3706 43.7155 27.3453 43.5433 27.2654 43.4184C27.1841 43.2897 27.0696 43.1864 26.9219 43.1086C26.7196 43.0022 26.5287 42.9813 26.3492 43.0457C26.1696 43.1101 26.0034 43.2876 25.8507 43.578C25.7552 43.7594 25.6912 43.9377 25.6588 44.1126C25.6251 44.2836 25.6093 44.4457 25.6114 44.5991C25.6109 44.7511 25.6166 44.8882 25.6285 45.0103L24.5075 45.1307C24.464 44.8231 24.4676 44.4923 24.5182 44.1382C24.5701 43.7815 24.7052 43.3957 24.9234 42.9809C25.2317 42.3949 25.5938 41.9929 26.0098 41.7747C26.4258 41.5566 26.849 41.5608 27.2794 41.7872Z" fill="white"/>
<path d="M24.0194 47.9473C24.2786 47.4546 24.6013 47.1494 24.9878 47.0316C25.3729 46.9098 25.8442 46.9955 26.4017 47.2888L29.2369 48.7803L28.6108 49.9704L26.0712 48.6344C25.7601 48.4707 25.4974 48.4004 25.2834 48.4235C25.0693 48.4466 24.9036 48.5697 24.7863 48.7926C24.6212 49.1064 24.6167 49.3887 24.7727 49.6396C24.9261 49.8891 25.2116 50.1237 25.629 50.3433L27.8108 51.4911L27.1868 52.6773L24.6472 51.3413C24.4397 51.2321 24.2538 51.1641 24.0892 51.1371C23.9246 51.1101 23.7821 51.1262 23.6616 51.1853C23.5412 51.2444 23.4414 51.3491 23.3623 51.4995C23.2463 51.7199 23.2107 51.9229 23.2553 52.1086C23.2988 52.2904 23.4137 52.4651 23.6003 52.6327C23.7856 52.7964 24.0326 52.9595 24.3411 53.1218L26.3868 54.198L25.7628 55.3842L21.4147 53.0967L21.8914 52.1906L22.5314 52.3237L22.5662 52.2576C22.4622 52.0903 22.3983 51.916 22.3745 51.7347C22.3521 51.5507 22.3612 51.3668 22.4017 51.1829C22.4422 50.9989 22.506 50.824 22.5933 50.658C22.7611 50.3391 22.9548 50.0967 23.1745 49.9309C23.3955 49.7625 23.6463 49.6759 23.9268 49.6713L23.9821 49.5662C23.8273 49.3193 23.7614 49.0513 23.7844 48.7621C23.8088 48.4704 23.8871 48.1988 24.0194 47.9473Z" fill="white"/>
<path d="M19.7287 53.0541L24.2996 58.1649L23.7329 59.2422L19.1619 54.1314L19.7287 53.0541Z" fill="white"/>
<path d="M24.2454 62.913C23.9262 63.5197 23.5757 63.9279 23.194 64.1375C22.8162 64.3459 22.4367 64.3499 22.0556 64.1494C21.7937 64.0116 21.6176 63.8147 21.5272 63.5586C21.4368 63.3025 21.4373 62.9965 21.5285 62.6406C21.4125 62.7352 21.2723 62.7972 21.1079 62.8266C20.9409 62.8546 20.7913 62.8338 20.659 62.7642C20.4931 62.6769 20.3809 62.5567 20.3225 62.4034C20.2615 62.2489 20.2255 62.0529 20.2147 61.8154C19.9962 61.9918 19.7425 62.0901 19.4538 62.1103C19.1664 62.128 18.875 62.059 18.5794 61.9036C18.2631 61.7371 18.0309 61.5273 17.8828 61.2739C17.7334 61.0166 17.67 60.725 17.6925 60.3992C17.7163 60.0707 17.8284 59.7159 18.0289 59.3348C18.0712 59.2544 18.1255 59.1638 18.1918 59.063C18.2581 58.9621 18.3209 58.871 18.3803 58.7897C18.441 58.7058 18.4834 58.6503 18.5075 58.6233L19.3055 57.1065L19.9083 57.4236L19.7253 58.1963C19.8539 58.1845 19.9809 58.1917 20.1062 58.2179C20.2314 58.2441 20.355 58.2892 20.4769 58.3533C20.9436 58.5989 21.2219 58.9538 21.3119 59.4183C21.4007 59.8788 21.293 60.3981 20.9888 60.9763C20.9088 61.1097 20.8302 61.2338 20.7531 61.3489C20.7684 61.4331 20.7938 61.5044 20.8293 61.5628C20.8648 61.6211 20.9111 61.6653 20.9681 61.6954C21.0251 61.7254 21.0854 61.7273 21.1488 61.7011C21.211 61.6709 21.2778 61.6133 21.349 61.5283C21.4189 61.4393 21.4921 61.3222 21.5685 61.177L21.9573 60.4381C22.2082 59.961 22.5016 59.6519 22.8374 59.5107C23.1745 59.367 23.5414 59.3995 23.9381 59.6081C24.4463 59.8755 24.7286 60.2954 24.7849 60.868C24.8426 61.4379 24.6627 62.1196 24.2454 62.913ZM23.498 62.4552C23.6467 62.1726 23.747 61.9159 23.7989 61.685C23.8548 61.4529 23.8622 61.2565 23.8209 61.0957C23.7823 60.9364 23.6956 60.8212 23.5607 60.7503C23.4518 60.693 23.3479 60.6797 23.249 60.7104C23.154 60.7399 23.0595 60.8127 22.9654 60.9287C22.8726 61.0421 22.7737 61.1986 22.6687 61.3983L22.3454 62.0128C22.269 62.1579 22.2235 62.3012 22.2088 62.4424C22.1954 62.581 22.2125 62.7059 22.26 62.8169C22.3101 62.9294 22.3909 63.0149 22.5024 63.0735C22.6657 63.1595 22.835 63.1492 23.0102 63.0427C23.1867 62.9337 23.3493 62.7379 23.498 62.4552ZM20.3002 60.5297C20.4175 60.3067 20.4348 60.1072 20.3519 59.9312C20.269 59.7552 20.1096 59.6051 19.8737 59.481C19.6118 59.3432 19.3874 59.2947 19.2005 59.3354C19.0123 59.3721 18.8617 59.4981 18.7484 59.7133C18.6339 59.9311 18.6141 60.1292 18.689 60.3077C18.7614 60.4848 18.9285 60.6422 19.1903 60.78C19.4263 60.9041 19.6409 60.9492 19.8343 60.9152C20.029 60.8785 20.1843 60.75 20.3002 60.5297Z" fill="white"/>
<path d="M16.6593 62.1352L21.0074 64.4227L20.5348 65.3211L19.8635 65.1814L19.8328 65.2397C19.9411 65.3861 20.02 65.5319 20.0695 65.6771C20.1189 65.8222 20.1368 65.9674 20.1234 66.1126C20.1099 66.2578 20.0629 66.4069 19.9824 66.5598C19.8992 66.718 19.7937 66.8462 19.6659 66.9445C19.5368 67.0388 19.3947 67.0981 19.2396 67.1224L19.2273 67.1458C19.2858 67.1666 19.3735 67.2045 19.4903 67.2593C19.6045 67.3128 19.7246 67.3709 19.8504 67.4338C19.9801 67.4955 20.093 67.5515 20.1889 67.602L21.4335 68.2567L20.8094 69.4429L14.5479 66.1489L15.1719 64.9627L17.7115 66.2987C18.0227 66.4624 18.2873 66.5288 18.5055 66.4979C18.7237 66.467 18.8969 66.3297 19.0251 66.086C19.1492 65.8501 19.1923 65.636 19.1543 65.4439C19.1151 65.2478 19.0042 65.0654 18.8216 64.8965C18.6364 64.7262 18.3896 64.5599 18.081 64.3976L16.0353 63.3214L16.6593 62.1352Z" fill="white"/>
<path d="M14.3741 67.3798C15.0161 67.7175 15.5624 68.0698 16.0132 68.4366C16.4658 68.7997 16.8099 69.1845 17.0453 69.5908C17.2826 69.9935 17.4003 70.4213 17.3983 70.8741C17.3963 71.3268 17.2617 71.8071 16.9946 72.3149C16.6587 72.9533 16.2216 73.3925 15.6832 73.6325C15.1411 73.8706 14.5139 73.9274 13.8015 73.8027C13.0855 73.676 12.3013 73.3885 11.4489 72.9401C10.5893 72.4879 9.90156 72.0126 9.38571 71.5144C8.86814 71.0105 8.55299 70.4696 8.44026 69.8917C8.32753 69.3137 8.44957 68.6856 8.80639 68.0073C9.14031 67.3726 9.5783 66.9361 10.1204 66.698C10.6607 66.4543 11.2898 66.394 12.0078 66.517C12.7221 66.6381 13.5108 66.9257 14.3741 67.3798ZM12.3276 71.2699C12.9333 71.5885 13.4565 71.822 13.8971 71.9705C14.3359 72.1134 14.6989 72.1584 14.986 72.1057C15.273 72.053 15.491 71.8851 15.6398 71.6022C15.7868 71.3229 15.8025 71.051 15.6869 70.7865C15.5697 70.5164 15.3279 70.241 14.9615 69.9603C14.5915 69.6777 14.1019 69.3761 13.4925 69.0555C12.8868 68.7369 12.3627 68.5051 11.9202 68.3603C11.4777 68.2155 11.112 68.1713 10.823 68.2277C10.5323 68.2785 10.3135 68.4436 10.1666 68.7229C10.0177 69.0058 10.0047 69.2814 10.1275 69.5498C10.2466 69.8162 10.4912 70.0907 10.8612 70.3734C11.2331 70.6524 11.7219 70.9512 12.3276 71.2699Z" fill="white"/>
<path d="M11.0196 73.7562C11.6616 74.0939 12.2079 74.4462 12.6587 74.813C13.1113 75.1761 13.4554 75.5609 13.6908 75.9672C13.9281 76.37 14.0458 76.7977 14.0438 77.2505C14.0418 77.7032 13.9072 78.1835 13.6401 78.6913C13.3042 79.3297 12.8671 79.7689 12.3287 80.0089C11.7866 80.247 11.1594 80.3038 10.447 80.1791C9.73099 80.0525 8.9468 79.7649 8.09443 79.3165C7.23481 78.8643 6.54707 78.389 6.03122 77.8908C5.51365 77.3869 5.19849 76.846 5.08577 76.2681C4.97304 75.6901 5.09508 75.062 5.4519 74.3837C5.78582 73.749 6.22381 73.3125 6.76587 73.0744C7.3062 72.8307 7.93533 72.7704 8.65326 72.8934C9.36756 73.0145 10.1563 73.3021 11.0196 73.7562ZM8.97312 77.6463C9.57884 77.9649 10.102 78.1985 10.5426 78.3469C10.9814 78.4898 11.3444 78.5348 11.6315 78.4821C11.9186 78.4294 12.1365 78.2615 12.2853 77.9786C12.4323 77.6993 12.448 77.4274 12.3324 77.1629C12.2152 76.8928 11.9734 76.6174 11.607 76.3367C11.237 76.0541 10.7474 75.7525 10.138 75.4319C9.5323 75.1133 9.0082 74.8815 8.56571 74.7367C8.12322 74.5919 7.75748 74.5477 7.4685 74.6041C7.1778 74.6549 6.95899 74.82 6.81206 75.0993C6.66323 75.3822 6.6502 75.6578 6.77299 75.9262C6.89215 76.1926 7.13672 76.4672 7.5067 76.7498C7.87859 77.0288 8.36739 77.3276 8.97312 77.6463Z" fill="white"/>
<path d="M5.32695 79.2429C5.69329 79.4356 5.97059 79.6788 6.15885 79.9723C6.34712 80.2658 6.45779 80.588 6.49088 80.9389C6.52588 81.2861 6.49836 81.6421 6.40834 82.0069L6.44098 82.024C6.85661 81.4276 7.3072 81.0465 7.79277 80.8805C8.28025 80.7109 8.78514 80.7635 9.30744 81.0383C9.77171 81.2825 10.1269 81.6152 10.373 82.0365C10.6211 82.4541 10.7262 82.954 10.6886 83.5361C10.6509 84.1183 10.4364 84.7812 10.0453 85.5248C9.8144 85.9636 9.56251 86.3544 9.28961 86.6971C9.02225 87.0381 8.72826 87.3372 8.40763 87.5946L6.97674 86.8419C7.3302 86.5925 7.65054 86.3049 7.93776 85.979C8.22134 85.6512 8.44805 85.3259 8.61787 85.0031C8.93462 84.401 9.05259 83.9259 8.97178 83.5777C8.88925 83.224 8.65938 82.948 8.28216 82.7495C8.06091 82.6331 7.84454 82.5911 7.63305 82.6234C7.42156 82.6557 7.20245 82.7905 6.97573 83.0278C6.75092 83.2615 6.50781 83.6267 6.24639 84.1237L5.92869 84.7276L4.63926 84.0492L4.96269 83.4344C5.22028 82.9448 5.37053 82.5492 5.41342 82.2476C5.45459 81.9404 5.41923 81.6995 5.30734 81.5249C5.19373 81.3447 5.03356 81.2003 4.82681 81.0915C4.5439 80.9427 4.27685 80.9133 4.02567 81.0035C3.77449 81.0936 3.54204 81.3418 3.32833 81.748C3.19476 82.0019 3.10529 82.2512 3.05991 82.496C3.0128 82.7351 2.9907 82.962 2.99361 83.1766C2.99288 83.3892 3.00084 83.5809 3.01748 83.7518L1.44933 83.9201C1.38855 83.4899 1.39352 83.0271 1.46425 82.5318C1.53688 82.0328 1.72584 81.4931 2.03114 80.9128C2.46238 80.0931 2.96896 79.5306 3.5509 79.2255C4.13284 78.9204 4.72486 78.9262 5.32695 79.2429Z" fill="white"/>
<defs>
<linearGradient id="paint0_linear_615_711" x1="92.621" y1="16" x2="106.501" y2="68.5" gradientUnits="userSpaceOnUse">
<stop stop-color="#E4C73B"/>
<stop offset="1" stop-color="#7E6E21"/>
</linearGradient>
<linearGradient id="paint1_linear_615_711" x1="147.237" y1="15.6175" x2="134.5" y2="67.5" gradientUnits="userSpaceOnUse">
<stop offset="0.672552" stop-color="#E55400"/>
<stop offset="1" stop-color="#7F2F00"/>
</linearGradient>
<linearGradient id="paint2_linear_615_711" x1="46" y1="50.5" x2="76" y2="95" gradientUnits="userSpaceOnUse">
<stop stop-color="#33CE19"/>
<stop offset="1" stop-color="#1A680D"/>
</linearGradient>
<linearGradient id="paint3_linear_615_711" x1="17.5002" y1="90" x2="58.5002" y2="108.5" gradientUnits="userSpaceOnUse">
<stop stop-color="#59E789"/>
<stop offset="0.705094" stop-color="#32814D"/>
</linearGradient>
</defs>
</svg>
