<svg width="230" height="123" viewBox="0 0 230 123" fill="none" xmlns="http://www.w3.org/2000/svg">
<path d="M168.5 93C173.267 101.457 176.07 111.795 176.238 122.124H221.468C223.826 122.124 225.739 120.2 225.629 117.845C224.867 101.607 220.619 85.8754 213.524 72.2079C212.448 70.1345 209.858 69.4332 207.826 70.5873L189.5 81L168.5 93Z" fill="url(#paint0_linear_615_242)"/>
<path d="M195.975 110.377C196.095 110.811 196.104 111.208 196.003 111.57C195.905 111.93 195.71 112.239 195.418 112.497C195.127 112.755 194.752 112.946 194.293 113.071L193.778 113.212L192.843 109.833C192.312 109.988 191.94 110.236 191.727 110.58C191.517 110.922 191.478 111.333 191.611 111.811C191.698 112.128 191.806 112.401 191.935 112.632C192.063 112.862 192.223 113.094 192.414 113.327L191.65 113.535C191.466 113.317 191.314 113.088 191.192 112.849C191.069 112.614 190.959 112.321 190.862 111.972C190.729 111.49 190.708 111.041 190.8 110.624C190.893 110.21 191.1 109.85 191.421 109.546C191.745 109.24 192.185 109.012 192.739 108.86C193.288 108.711 193.782 108.675 194.222 108.752C194.665 108.829 195.036 109.006 195.337 109.283C195.637 109.561 195.85 109.926 195.975 110.377ZM195.268 110.565C195.167 110.198 194.964 109.936 194.662 109.779C194.362 109.621 193.983 109.583 193.526 109.666L194.204 112.114C194.477 112.036 194.706 111.927 194.891 111.786C195.076 111.645 195.203 111.472 195.273 111.269C195.344 111.068 195.342 110.833 195.268 110.565Z" fill="white"/>
<path d="M189.346 106.142L193.806 102.89L194.072 103.852L191.395 105.724C191.218 105.847 191.023 105.973 190.809 106.103C190.596 106.235 190.418 106.334 190.274 106.4L190.282 106.431C190.444 106.419 190.651 106.418 190.904 106.427C191.156 106.436 191.387 106.447 191.599 106.461L194.862 106.707L195.129 107.674L189.621 107.136L189.346 106.142Z" fill="white"/>
<path d="M193.591 102.113L188.608 103.473L188.357 102.565L193.34 101.205L193.591 102.113ZM195.353 101.151C195.393 101.295 195.385 101.43 195.329 101.556C195.274 101.684 195.151 101.774 194.961 101.826C194.771 101.878 194.618 101.863 194.501 101.782C194.389 101.702 194.312 101.59 194.272 101.446C194.231 101.298 194.239 101.162 194.295 101.036C194.355 100.913 194.48 100.825 194.67 100.774C194.86 100.722 195.011 100.734 195.123 100.81C195.235 100.89 195.312 101.003 195.353 101.151Z" fill="white"/>
<path d="M189.423 101.006C189.1 101.094 188.805 101.088 188.538 100.989C188.275 100.893 188.046 100.709 187.851 100.439C187.656 100.168 187.5 99.8217 187.384 99.4001C187.287 99.0508 187.231 98.7422 187.215 98.4744C187.196 98.2075 187.208 97.958 187.251 97.7261L188.056 97.5064C188.011 97.755 187.988 98.035 187.987 98.3463C187.985 98.6577 188.023 98.9519 188.1 99.2289C188.207 99.6174 188.347 99.8806 188.518 100.019C188.69 100.159 188.881 100.201 189.092 100.144C189.216 100.11 189.315 100.046 189.389 99.9508C189.466 99.8552 189.527 99.7073 189.572 99.5072C189.621 99.3092 189.663 99.0322 189.698 98.6762C189.734 98.3263 189.782 98.0215 189.843 97.7619C189.905 97.5053 190.007 97.2944 190.15 97.1292C190.292 96.9641 190.502 96.8436 190.779 96.7679C191.21 96.6503 191.586 96.7323 191.908 97.0139C192.232 97.2977 192.473 97.7227 192.63 98.2888C192.713 98.59 192.761 98.8813 192.774 99.1628C192.788 99.4473 192.775 99.7263 192.734 99.9999L191.952 99.8975C191.985 99.6552 192 99.4113 191.997 99.166C191.997 98.9198 191.964 98.6778 191.898 98.4399C191.813 98.1297 191.697 97.9054 191.552 97.7669C191.407 97.6314 191.248 97.5875 191.073 97.6352C190.937 97.6723 190.834 97.7408 190.765 97.8407C190.696 97.9437 190.643 98.0975 190.606 98.3021C190.571 98.5058 190.538 98.7773 190.505 99.1166C190.475 99.452 190.428 99.7465 190.365 100C190.303 100.257 190.2 100.469 190.056 100.638C189.911 100.807 189.7 100.93 189.423 101.006Z" fill="white"/>
<path d="M188.189 96.5424C187.866 96.6304 187.571 96.6251 187.304 96.5263C187.04 96.4298 186.811 96.2462 186.617 95.9754C186.422 95.7047 186.266 95.3586 186.149 94.9369C186.053 94.5876 185.996 94.279 185.981 94.0112C185.962 93.7443 185.974 93.4948 186.017 93.2629L186.822 93.0432C186.777 93.2919 186.754 93.5718 186.752 93.8832C186.751 94.1945 186.789 94.4887 186.865 94.7658C186.973 95.1543 187.112 95.4175 187.283 95.5554C187.455 95.6963 187.647 95.738 187.858 95.6804C187.981 95.6467 188.08 95.5824 188.154 95.4877C188.232 95.3921 188.293 95.2442 188.338 95.044C188.387 94.846 188.429 94.569 188.463 94.213C188.499 93.8631 188.548 93.5583 188.609 93.2987C188.671 93.0421 188.773 92.8312 188.915 92.6661C189.058 92.5009 189.268 92.3805 189.545 92.3048C189.976 92.1871 190.352 92.2691 190.673 92.5507C190.998 92.8345 191.239 93.2595 191.395 93.8257C191.479 94.1268 191.527 94.4181 191.54 94.6996C191.554 94.9841 191.54 95.2631 191.499 95.5367L190.717 95.4344C190.751 95.192 190.766 94.9482 190.763 94.7028C190.763 94.4567 190.73 94.2146 190.664 93.9767C190.578 93.6665 190.463 93.4422 190.317 93.3037C190.173 93.1682 190.013 93.1244 189.838 93.1721C189.703 93.2091 189.6 93.2776 189.531 93.3776C189.462 93.4806 189.409 93.6343 189.371 93.8389C189.337 94.0426 189.303 94.3141 189.271 94.6534C189.24 94.9888 189.194 95.2833 189.131 95.5369C189.069 95.7935 188.966 96.0063 188.821 96.1753C188.677 96.3443 188.466 96.4667 188.189 96.5424Z" fill="white"/>
<path d="M207.468 110.666C207.588 111.099 207.597 111.497 207.496 111.858C207.398 112.218 207.203 112.527 206.912 112.785C206.62 113.043 206.245 113.234 205.787 113.36L205.271 113.5L204.336 110.121C203.805 110.276 203.433 110.525 203.22 110.868C203.01 111.21 202.971 111.621 203.104 112.1C203.191 112.416 203.299 112.689 203.428 112.92C203.557 113.15 203.716 113.382 203.907 113.615L203.143 113.824C202.959 113.605 202.807 113.376 202.686 113.137C202.562 112.902 202.452 112.61 202.355 112.26C202.222 111.778 202.202 111.329 202.294 110.912C202.387 110.498 202.594 110.139 202.915 109.834C203.239 109.529 203.678 109.3 204.233 109.149C204.781 108.999 205.275 108.963 205.715 109.04C206.158 109.117 206.529 109.294 206.83 109.572C207.13 109.849 207.343 110.214 207.468 110.666ZM206.761 110.854C206.66 110.486 206.457 110.224 206.155 110.067C205.855 109.909 205.476 109.872 205.02 109.954L205.697 112.403C205.97 112.325 206.2 112.215 206.384 112.074C206.569 111.933 206.696 111.761 206.766 111.557C206.837 111.356 206.836 111.122 206.761 110.854Z" fill="white"/>
<path d="M206.515 107.223C206.54 107.314 206.561 107.413 206.578 107.522C206.598 107.63 206.611 107.724 206.617 107.803L205.745 107.939C205.743 107.862 205.735 107.773 205.72 107.674C205.707 107.577 205.688 107.488 205.666 107.407C205.613 107.214 205.526 107.04 205.405 106.885C205.284 106.73 205.136 106.605 204.961 106.511C204.789 106.415 204.593 106.357 204.373 106.336C204.156 106.314 203.921 106.338 203.668 106.407L201.032 107.126L200.779 106.214L205.762 104.854L205.965 105.586L205.095 105.94L205.106 105.98C205.315 106.033 205.515 106.112 205.706 106.215C205.897 106.322 206.063 106.458 206.203 106.624C206.347 106.792 206.451 106.992 206.515 107.223Z" fill="white"/>
<path d="M204.951 101.568C205.118 102.173 205.037 102.715 204.705 103.194C204.378 103.675 203.788 104.033 202.935 104.265C202.368 104.42 201.869 104.466 201.436 104.402C201.007 104.341 200.652 104.186 200.368 103.936C200.089 103.688 199.893 103.361 199.781 102.955C199.71 102.699 199.681 102.465 199.694 102.254C199.71 102.043 199.755 101.852 199.828 101.683C199.905 101.517 199.995 101.369 200.099 101.24L200.083 101.181C199.969 101.225 199.835 101.275 199.681 101.33C199.532 101.387 199.395 101.432 199.272 101.466L197.237 102.021L196.984 101.109L204.183 99.1439L204.389 99.8893L203.709 100.206L203.721 100.251C203.895 100.304 204.06 100.382 204.218 100.485C204.38 100.59 204.525 100.73 204.651 100.906C204.778 101.082 204.878 101.303 204.951 101.568ZM204.143 101.565C204.054 101.246 203.92 101.007 203.74 100.849C203.564 100.693 203.34 100.603 203.068 100.58C202.797 100.56 202.473 100.599 202.098 100.695L201.953 100.734C201.555 100.843 201.231 100.977 200.98 101.136C200.732 101.294 200.563 101.491 200.472 101.726C200.384 101.961 200.387 102.243 200.478 102.575C200.557 102.858 200.698 103.072 200.904 103.216C201.11 103.364 201.366 103.445 201.671 103.459C201.977 103.476 202.316 103.434 202.687 103.332C203.25 103.178 203.663 102.954 203.925 102.659C204.19 102.363 204.263 101.998 204.143 101.565Z" fill="white"/>
<path d="M203.371 95.8577C203.538 96.4631 203.456 97.0052 203.125 97.4843C202.798 97.9655 202.208 98.3226 201.355 98.5554C200.788 98.7101 200.289 98.7558 199.856 98.6924C199.427 98.6313 199.072 98.4758 198.788 98.2259C198.509 97.9782 198.313 97.6511 198.201 97.2445C198.13 96.9886 198.101 96.7551 198.114 96.5443C198.13 96.3326 198.175 96.1423 198.248 95.9733C198.325 95.8066 198.415 95.6588 198.519 95.5301L198.503 95.4713C198.389 95.5155 198.255 95.5649 198.101 95.6198C197.952 95.6768 197.815 95.7222 197.692 95.7559L195.657 96.3113L195.404 95.3988L202.603 93.434L202.809 94.1794L202.128 94.4963L202.141 94.5415C202.315 94.5945 202.48 94.6724 202.638 94.775C202.8 94.8798 202.945 95.0202 203.071 95.1962C203.198 95.3722 203.297 95.5927 203.371 95.8577ZM202.563 95.8548C202.474 95.5356 202.34 95.2969 202.16 95.1387C201.984 94.9827 201.76 94.8932 201.488 94.8704C201.217 94.8505 200.893 94.8886 200.518 94.9846L200.373 95.0241C199.975 95.1327 199.651 95.2666 199.4 95.4258C199.152 95.5841 198.982 95.7809 198.892 96.0162C198.804 96.2506 198.806 96.5335 198.898 96.8647C198.976 97.1478 199.118 97.3617 199.324 97.5065C199.53 97.6543 199.786 97.7351 200.091 97.7489C200.397 97.7657 200.736 97.7236 201.106 97.6224C201.67 97.4685 202.083 97.2441 202.345 96.9491C202.61 96.6532 202.683 96.2885 202.563 95.8548Z" fill="white"/>
<path d="M200.567 92.5613C200.057 92.7003 199.575 92.7623 199.12 92.7472C198.668 92.7312 198.256 92.6364 197.884 92.4627C197.516 92.2911 197.197 92.0364 196.929 91.6983C196.661 91.3633 196.457 90.9413 196.316 90.4323C196.172 89.9143 196.129 89.4404 196.185 89.0105C196.242 88.5836 196.386 88.2025 196.618 87.8673C196.849 87.532 197.157 87.244 197.541 87.0031C197.926 86.7653 198.373 86.5768 198.882 86.4378C199.56 86.2526 200.185 86.202 200.756 86.2858C201.327 86.3696 201.816 86.6006 202.222 86.9789C202.632 87.3593 202.933 87.8958 203.125 88.5885C203.31 89.2571 203.324 89.8555 203.169 90.3837C203.014 90.912 202.713 91.3601 202.267 91.728C201.824 92.0951 201.257 92.3729 200.567 92.5613ZM199.142 87.4115C198.605 87.5579 198.161 87.7584 197.81 88.0129C197.463 88.2697 197.225 88.5808 197.096 88.9464C196.971 89.3142 196.975 89.7375 197.107 90.2164C197.241 90.7012 197.456 91.0685 197.752 91.318C198.051 91.5668 198.415 91.7104 198.844 91.7488C199.276 91.7864 199.76 91.732 200.297 91.5855C201.111 91.3634 201.701 91.0241 202.067 90.5678C202.437 90.1106 202.523 89.5237 202.324 88.8069C202.191 88.3251 201.976 87.9578 201.679 87.7052C201.385 87.4518 201.023 87.3029 200.593 87.2585C200.165 87.2132 199.681 87.2642 199.142 87.4115Z" fill="white"/>
<path d="M168.5 93L189.941 80.7651L207.624 70.6752C209.687 69.4976 210.388 66.8507 209.086 64.8633C200.315 51.4761 188.028 39.2745 174.483 30.6281C172.562 29.4015 170.032 30.0211 168.808 31.9443L167.5 34L158.5 49.5L146.5 71C155.145 76.1305 162.809 83.4557 168 92L168.5 93Z" fill="url(#paint1_linear_615_242)"/>
<path d="M189.153 65.6363L189.858 66.3696L188.458 69.2081C188.386 69.354 188.313 69.4944 188.239 69.6292C188.169 69.7642 188.096 69.8913 188.021 70.0107C187.949 70.1302 187.873 70.243 187.793 70.349L187.816 70.3727C187.957 70.2901 188.135 70.1951 188.348 70.0877C188.561 69.9803 188.781 69.8753 189.007 69.7726L191.891 68.485L192.593 69.215L186.768 71.6633C186.445 71.8012 186.138 71.8877 185.847 71.9227C185.556 71.9622 185.282 71.9394 185.027 71.8541C184.77 71.7711 184.528 71.6124 184.303 71.3781C184.199 71.2699 184.114 71.1677 184.047 71.0715C183.981 70.9796 183.927 70.8969 183.887 70.8233L184.431 70.3073C184.467 70.3676 184.515 70.437 184.573 70.5154C184.633 70.5961 184.7 70.6747 184.773 70.7513C184.91 70.8933 185.055 70.9881 185.209 71.0357C185.363 71.0877 185.526 71.1014 185.697 71.0768C185.871 71.0544 186.049 71.0034 186.233 70.924L186.838 70.6737L189.153 65.6363Z" fill="white"/>
<path d="M181.643 68.6038C181.164 68.1059 180.888 67.6358 180.814 67.1936C180.742 66.7536 180.871 66.3777 181.199 66.066C181.433 65.8446 181.702 65.7297 182.006 65.7213C182.308 65.7151 182.613 65.8169 182.923 66.0268C182.874 65.8846 182.86 65.7334 182.884 65.5732C182.912 65.4131 182.985 65.2771 183.103 65.1653C183.241 65.0342 183.397 64.9596 183.571 64.9416C183.749 64.9237 183.96 64.9473 184.204 65.0125C184.098 64.7391 184.081 64.4535 184.154 64.1556C184.23 63.8556 184.395 63.5852 184.649 63.3444C184.919 63.0886 185.203 62.9267 185.502 62.8588C185.803 62.7931 186.106 62.8199 186.411 62.9394C186.717 63.0588 187.017 63.2717 187.311 63.5781C187.376 63.6457 187.44 63.7187 187.503 63.7973C187.567 63.8737 187.625 63.9499 187.677 64.026C187.728 64.1021 187.768 64.1658 187.795 64.2171L189.03 65.5012L188.625 65.885L187.886 65.3194C187.863 65.4664 187.812 65.6161 187.733 65.7684C187.654 65.9208 187.544 66.0636 187.404 66.1969C187.023 66.5581 186.597 66.7145 186.125 66.6661C185.658 66.6178 185.206 66.3661 184.769 65.911C184.67 65.803 184.576 65.6874 184.488 65.5642C184.338 65.5211 184.205 65.507 184.089 65.5219C183.976 65.5347 183.876 65.5819 183.79 65.6636C183.724 65.726 183.692 65.7979 183.692 65.8794C183.694 65.9632 183.726 66.0564 183.785 66.1591C183.847 66.2597 183.936 66.3696 184.05 66.489L184.674 67.1379C185.064 67.5434 185.276 67.936 185.312 68.3157C185.347 68.6953 185.2 69.0421 184.869 69.356C184.449 69.7537 183.961 69.8889 183.406 69.7614C182.85 69.634 182.262 69.2481 181.643 68.6038ZM182.166 68.1534C182.445 68.444 182.707 68.6582 182.952 68.7961C183.2 68.9362 183.425 69.0042 183.629 69.0001C183.834 68.9961 184.01 68.9231 184.16 68.7812C184.296 68.6522 184.369 68.5206 184.379 68.3865C184.389 68.2568 184.345 68.117 184.249 67.9672C184.153 67.8174 184.016 67.6501 183.838 67.4654L183.247 66.8503C183.095 66.6926 182.938 66.5788 182.776 66.509C182.613 66.4391 182.454 66.4156 182.299 66.4384C182.14 66.4634 181.992 66.5415 181.854 66.6726C181.666 66.851 181.599 67.0675 181.653 67.3221C181.709 67.5789 181.88 67.856 182.166 68.1534ZM185.264 65.4996C185.505 65.7497 185.75 65.8744 186.001 65.8736C186.254 65.8706 186.504 65.752 186.751 65.5177C187.016 65.2661 187.155 65.0138 187.167 64.7608C187.18 64.5078 187.067 64.2574 186.829 64.0096C186.597 63.7685 186.351 63.6494 186.089 63.6521C185.832 63.6549 185.571 63.7811 185.308 64.0304C185.066 64.2605 184.939 64.5031 184.929 64.7584C184.921 65.0115 185.033 65.2586 185.264 65.4996Z" fill="white"/>
<path d="M177.992 64.8054C177.514 64.3075 177.238 63.8374 177.164 63.3952C177.092 62.9552 177.22 62.5794 177.549 62.2676C177.783 62.0462 178.051 61.9313 178.355 61.9229C178.657 61.9167 178.963 62.0185 179.273 62.2284C179.223 62.0863 179.21 61.9351 179.234 61.7748C179.262 61.6147 179.335 61.4787 179.453 61.3669C179.591 61.2358 179.747 61.1612 179.92 61.1432C180.098 61.1253 180.309 61.149 180.554 61.2141C180.447 60.9407 180.431 60.6551 180.504 60.3572C180.58 60.0573 180.745 59.7869 180.999 59.5461C181.268 59.2902 181.553 59.1283 181.851 59.0604C182.152 58.9947 182.456 59.0216 182.761 59.141C183.067 59.2604 183.367 59.4733 183.661 59.7797C183.726 59.8473 183.79 59.9204 183.852 59.9989C183.917 60.0753 183.975 60.1515 184.026 60.2276C184.078 60.3037 184.117 60.3674 184.145 60.4187L185.379 61.7029L184.975 62.0866L184.236 61.521C184.213 61.668 184.161 61.8177 184.082 61.9701C184.004 62.1224 183.894 62.2652 183.753 62.3985C183.372 62.7597 182.946 62.9161 182.475 62.8677C182.008 62.8194 181.556 62.5678 181.119 62.1127C181.019 62.0046 180.925 61.889 180.837 61.7658C180.687 61.7227 180.555 61.7086 180.439 61.7235C180.326 61.7363 180.226 61.7836 180.14 61.8653C180.074 61.9276 180.041 61.9995 180.042 62.081C180.044 62.1648 180.075 62.258 180.135 62.3607C180.197 62.4613 180.285 62.5713 180.4 62.6907L181.024 63.3395C181.413 63.745 181.626 64.1376 181.662 64.5173C181.697 64.897 181.549 65.2437 181.218 65.5576C180.799 65.9554 180.311 66.0905 179.755 65.9631C179.199 65.8356 178.612 65.4497 177.992 64.8054ZM178.515 64.355C178.794 64.6456 179.057 64.8599 179.302 64.9977C179.549 65.1378 179.775 65.2058 179.979 65.2018C180.183 65.1977 180.36 65.1247 180.51 64.9828C180.646 64.8538 180.719 64.7223 180.728 64.5881C180.738 64.4584 180.695 64.3186 180.599 64.1688C180.502 64.019 180.365 63.8517 180.188 63.667L179.597 63.052C179.445 62.8943 179.288 62.7805 179.126 62.7106C178.963 62.6408 178.804 62.6173 178.648 62.6401C178.49 62.665 178.342 62.7431 178.204 62.8742C178.015 63.0527 177.948 63.2692 178.002 63.5237C178.058 63.7805 178.229 64.0576 178.515 64.355ZM181.614 61.7013C181.854 61.9513 182.1 62.076 182.35 62.0752C182.603 62.0723 182.853 61.9536 183.1 61.7193C183.366 61.4678 183.505 61.2155 183.517 60.9625C183.53 60.7095 183.417 60.4591 183.179 60.2112C182.947 59.9702 182.7 59.851 182.438 59.8537C182.181 59.8566 181.921 59.9827 181.658 60.2321C181.415 60.4621 181.289 60.7048 181.278 60.96C181.27 61.2131 181.382 61.4602 181.614 61.7013Z" fill="white"/>
<path d="M181.283 57.4481L177.535 61.0019L177.012 60.4579L177.435 59.8763L177.399 59.8391C177.196 59.8851 176.993 59.8881 176.79 59.8481C176.587 59.8081 176.392 59.7331 176.203 59.623C176.015 59.5129 175.84 59.3734 175.678 59.2044C175.403 58.9183 175.216 58.6298 175.119 58.339C175.024 58.0505 175.026 57.7598 175.126 57.467C175.23 57.1743 175.441 56.8774 175.759 56.5764L178.211 54.2513L178.867 54.9339L176.51 57.1687C176.208 57.4547 176.044 57.7328 176.018 58.0031C175.994 58.2757 176.11 58.5449 176.365 58.8107C176.614 59.0698 176.862 59.2264 177.109 59.2806C177.361 59.3349 177.617 59.3012 177.877 59.1795C178.141 59.0579 178.418 58.8606 178.706 58.5876L180.627 56.7655L181.283 57.4481Z" fill="white"/>
<path d="M170.591 53.7769L173.386 48.1823L173.36 48.1552C173.273 48.2501 173.16 48.3708 173.019 48.5174C172.882 48.664 172.73 48.8212 172.562 48.9891C172.398 49.1571 172.234 49.3196 172.068 49.4765L169.133 52.2596L168.522 51.6243L173.495 46.9095L174.453 47.9064L171.809 53.2105L171.831 53.2341L177.324 50.8938L178.276 51.8839L173.303 56.5987L172.66 55.9295L175.636 53.1078C175.786 52.9659 175.944 52.8209 176.109 52.6727C176.276 52.5225 176.436 52.3819 176.588 52.2511C176.744 52.1203 176.873 52.0132 176.974 51.9296L176.945 51.8992L171.16 54.3683L170.591 53.7769Z" fill="white"/>
<path d="M225.375 66.6931C225.731 67.3148 225.785 67.9108 225.535 68.4811C225.286 69.0514 224.769 69.5614 223.985 70.0109C223.2 70.4605 222.5 70.6598 221.885 70.6089C221.27 70.558 220.774 70.2036 220.397 69.5457C220.047 68.9348 220.001 68.344 220.26 67.7731C220.519 67.2023 221.04 66.6921 221.825 66.2425C222.609 65.793 223.303 65.5921 223.907 65.6399C224.513 65.6914 225.002 66.0424 225.375 66.6931ZM224.248 67.3534C224.146 67.1762 223.96 67.1103 223.688 67.1556C223.416 67.2009 223.053 67.3541 222.597 67.6151C222.142 67.8762 221.824 68.1135 221.644 68.3271C221.464 68.5408 221.424 68.7362 221.526 68.9133C221.627 69.0904 221.814 69.1563 222.086 69.111C222.363 69.0673 222.732 68.9139 223.191 68.6508C223.646 68.3897 223.961 68.1516 224.135 67.9364C224.312 67.7248 224.349 67.5305 224.248 67.3534ZM228.487 72.3865L218.039 72.5323L217.293 71.2309L227.741 71.0852L228.487 72.3865ZM225.39 74.0601C225.747 74.6818 225.8 75.2778 225.551 75.8481C225.301 76.4185 224.784 76.9284 224 77.3779C223.219 77.8254 222.521 78.0237 221.906 77.9728C221.291 77.9219 220.795 77.5675 220.418 76.9096C220.068 76.2987 220.022 75.7079 220.281 75.137C220.54 74.5662 221.06 74.057 221.84 73.6096C222.625 73.16 223.319 72.9591 223.922 73.007C224.528 73.0584 225.017 73.4094 225.39 74.0601ZM224.263 74.7204C224.162 74.5433 223.975 74.4773 223.703 74.5227C223.432 74.568 223.068 74.7211 222.613 74.9821C222.157 75.2432 221.839 75.4805 221.659 75.6942C221.479 75.9078 221.44 76.1032 221.541 76.2803C221.643 76.4575 221.83 76.5234 222.101 76.4781C222.379 76.4343 222.747 76.2809 223.206 76.0178C223.662 75.7567 223.977 75.5186 224.151 75.3034C224.327 75.0919 224.365 74.8975 224.263 74.7204Z" fill="white"/>
<path d="M219.794 66.4056C219.154 66.7722 218.554 67.049 217.993 67.2357C217.435 67.4261 216.917 67.5115 216.44 67.4919C215.965 67.476 215.534 67.3437 215.147 67.0951C214.759 66.8465 214.421 66.4692 214.131 65.9631C213.766 65.327 213.627 64.7124 213.715 64.1196C213.806 63.5247 214.1 62.9556 214.595 62.4124C215.094 61.8671 215.768 61.351 216.618 60.8642C217.474 60.3732 218.257 60.0422 218.966 59.8713C219.68 59.7019 220.316 59.7265 220.874 59.9449C221.431 60.1633 221.903 60.6104 222.291 61.2864C222.653 61.919 222.789 62.5327 222.698 63.1276C222.612 63.7241 222.321 64.2968 221.824 64.8457C221.331 65.3926 220.654 65.9125 219.794 66.4056ZM217.572 62.5287C216.968 62.8747 216.482 63.1962 216.115 63.4933C215.753 63.792 215.516 64.0788 215.405 64.3539C215.294 64.6289 215.319 64.9074 215.481 65.1894C215.64 65.4677 215.865 65.6294 216.155 65.6746C216.451 65.7212 216.819 65.6639 217.259 65.5026C217.703 65.3393 218.229 65.0836 218.837 64.7356C219.44 64.3896 219.925 64.0663 220.29 63.7655C220.656 63.4648 220.893 63.1752 221.002 62.8965C221.117 62.6193 221.095 62.3416 220.935 62.0633C220.774 61.7813 220.544 61.6199 220.247 61.5789C219.954 61.5359 219.585 61.596 219.14 61.7594C218.698 61.9263 218.175 62.1828 217.572 62.5287Z" fill="white"/>
<path d="M216.738 59.7292C216.283 59.9902 215.811 60.2148 215.324 60.403C214.838 60.5948 214.349 60.7215 213.856 60.7831C213.367 60.8427 212.882 60.8105 212.403 60.6865C211.928 60.5605 211.47 60.3159 211.032 59.9527C210.593 59.5894 210.185 59.0788 209.808 58.4209C209.719 58.2655 209.622 58.0788 209.516 57.8609C209.407 57.645 209.325 57.4611 209.272 57.3093L210.617 56.5386C210.663 56.7039 210.722 56.8741 210.794 57.0492C210.869 57.2223 210.954 57.3919 211.05 57.5582C211.429 58.2197 211.826 58.6693 212.24 58.907C212.657 59.1483 213.093 59.2346 213.548 59.1658C214.006 59.1006 214.485 58.939 214.985 58.681L214.948 58.616C214.714 58.6106 214.485 58.576 214.262 58.5122C214.043 58.45 213.83 58.3324 213.62 58.1595C213.414 57.9846 213.214 57.7273 213.019 57.3875C212.76 56.9356 212.632 56.4857 212.634 56.0377C212.643 55.5912 212.78 55.169 213.047 54.7713C213.319 54.3751 213.721 54.0248 214.252 53.7202C214.827 53.3908 215.381 53.2175 215.914 53.2003C216.452 53.1847 216.948 53.3161 217.4 53.5945C217.853 53.873 218.236 54.287 218.551 54.8364C218.783 55.2413 218.929 55.6594 218.989 56.0908C219.053 56.5202 219.017 56.9486 218.883 57.3762C218.751 57.8073 218.509 58.2223 218.156 58.6212C217.804 59.0201 217.331 59.3894 216.738 59.7292ZM217.225 55.6396C217.039 55.3143 216.774 55.1128 216.432 55.0352C216.09 54.9576 215.68 55.0556 215.203 55.329C214.82 55.5486 214.567 55.8112 214.445 56.1168C214.322 56.4223 214.364 56.7558 214.571 57.1173C214.714 57.3667 214.893 57.5525 215.107 57.6747C215.325 57.7949 215.546 57.8579 215.77 57.8638C216 57.8713 216.203 57.8243 216.381 57.7227C216.565 57.6171 216.733 57.4872 216.885 57.333C217.036 57.1788 217.157 57.0086 217.248 56.8225C217.338 56.6363 217.385 56.4414 217.388 56.2378C217.393 56.0378 217.339 55.8384 217.225 55.6396Z" fill="white"/>
<path d="M117 63C127.45 63.1661 137.943 66.2888 146.5 71L159 49.5L168.936 31.6985C170.076 29.655 169.35 27.0666 167.267 25.9999C153.453 18.9256 137.7 14.4178 121.278 13.6223C118.923 13.5083 117 15.4219 117 17.7791V38V63Z" fill="#BABABA"/>
<path d="M149.322 37.3477L150.295 37.6433L150.468 40.8063C150.477 40.9689 150.482 41.1273 150.484 41.2812C150.489 41.4331 150.488 41.5797 150.48 41.7211C150.477 41.8604 150.466 41.996 150.448 42.1277L150.48 42.1373C150.563 41.9959 150.67 41.8262 150.803 41.6282C150.936 41.4302 151.076 41.231 151.223 41.0306L153.103 38.496L154.072 38.7903L150.2 43.7766C149.987 44.0547 149.762 44.2803 149.525 44.4534C149.291 44.6304 149.042 44.7441 148.778 44.7945C148.513 44.848 148.225 44.8274 147.914 44.733C147.77 44.6894 147.646 44.6418 147.541 44.5903C147.438 44.5427 147.351 44.4966 147.279 44.4521L147.5 43.7355C147.562 43.7704 147.637 43.8079 147.726 43.848C147.818 43.889 147.914 43.9249 148.016 43.9558C148.204 44.013 148.377 44.0247 148.535 43.9909C148.695 43.961 148.843 43.8934 148.98 43.7881C149.12 43.6837 149.251 43.5519 149.372 43.3927L149.775 42.8786L149.322 37.3477Z" fill="white"/>
<path d="M146.554 34.2829L145.477 37.7767C145.435 37.914 145.381 38.069 145.314 38.2415C145.252 38.412 145.194 38.569 145.14 38.7126L145.171 38.7222C145.267 38.6535 145.395 38.5632 145.554 38.4514C145.715 38.3405 145.857 38.2479 145.978 38.1736L148.076 36.969L149.116 37.285L146.481 38.8015L147.734 42.2632L146.666 41.939L145.697 39.1806L144.937 39.528L144.406 41.2525L143.509 40.98L145.657 34.0105L146.554 34.2829Z" fill="white"/>
<path d="M140.983 40.3108C140.529 40.1728 140.159 39.9609 139.874 39.6753C139.59 39.3896 139.411 39.0315 139.337 38.601C139.268 38.1685 139.322 37.6655 139.498 37.0922C139.682 36.495 139.933 36.0372 140.25 35.7188C140.568 35.3974 140.932 35.1992 141.341 35.1243C141.753 35.0502 142.187 35.0826 142.645 35.2216C142.914 35.3033 143.157 35.4065 143.374 35.531C143.593 35.6565 143.77 35.7837 143.903 35.9124L143.409 36.5608C143.262 36.4442 143.099 36.3311 142.92 36.2213C142.745 36.1124 142.57 36.0316 142.397 35.9789C142.08 35.8827 141.795 35.8729 141.543 35.9497C141.294 36.0244 141.076 36.1802 140.888 36.4172C140.701 36.6541 140.546 36.9697 140.425 37.3639C140.307 37.7461 140.258 38.0855 140.278 38.3822C140.301 38.6767 140.392 38.9231 140.55 39.1213C140.711 39.3204 140.943 39.4658 141.245 39.5576C141.511 39.6384 141.759 39.6812 141.99 39.6859C142.22 39.6907 142.44 39.674 142.648 39.636L142.403 40.4288C142.2 40.4716 141.987 40.4852 141.763 40.4694C141.539 40.4536 141.279 40.4008 140.983 40.3108Z" fill="white"/>
<path d="M139.008 34.2145L137.486 39.1505L136.585 38.8767L138.106 33.9407L139.008 34.2145ZM139.139 32.2119C139.283 32.2555 139.393 32.3345 139.468 32.449C139.547 32.5644 139.558 32.7162 139.5 32.9043C139.442 33.0924 139.347 33.2139 139.216 33.2687C139.088 33.3214 138.953 33.326 138.809 33.2824C138.663 33.2379 138.552 33.1584 138.476 33.0439C138.404 32.9273 138.397 32.775 138.455 32.5869C138.513 32.3988 138.604 32.2779 138.728 32.2242C138.856 32.1715 138.993 32.1674 139.139 32.2119Z" fill="white"/>
<path d="M135.051 37.7104C135.179 37.7495 135.313 37.7785 135.451 37.7976C135.59 37.8136 135.712 37.8183 135.819 37.8115L135.607 38.5013C135.491 38.5152 135.344 38.5112 135.164 38.4893C134.986 38.4713 134.809 38.4355 134.633 38.3819C134.364 38.3002 134.135 38.1799 133.945 38.021C133.755 37.8622 133.629 37.6508 133.566 37.3869C133.507 37.1239 133.538 36.7938 133.661 36.3966L134.52 33.6106L133.833 33.4022L133.962 32.9856L134.782 32.8721L135.429 31.9028L135.985 32.0717L135.64 33.1915L137.07 33.6261L136.856 34.3203L135.425 33.8858L134.571 36.6584C134.485 36.9361 134.487 37.1636 134.576 37.3409C134.668 37.5191 134.827 37.6423 135.051 37.7104Z" fill="white"/>
<path d="M132.49 35.7079C132.37 36.0961 132.17 36.3995 131.89 36.6182C131.614 36.8348 131.279 36.9631 130.884 37.0032C130.489 37.0432 130.051 36.9902 129.569 36.844C129.327 36.7704 129.1 36.6866 128.887 36.5925C128.676 36.5023 128.483 36.4047 128.31 36.2997C128.136 36.1947 127.984 36.0833 127.854 35.9653L128.122 35.0963C128.338 35.2732 128.596 35.456 128.894 35.6445C129.193 35.8301 129.517 35.9756 129.863 36.0809C130.165 36.1727 130.43 36.2091 130.659 36.1902C130.891 36.1693 131.082 36.1 131.233 35.9825C131.383 35.865 131.491 35.7017 131.555 35.4927C131.62 35.2837 131.623 35.0935 131.564 34.9223C131.507 34.7481 131.386 34.5677 131.202 34.381C131.02 34.1953 130.772 33.9812 130.458 33.7388C130.237 33.5738 130.043 33.4037 129.874 33.2285C129.707 33.0503 129.572 32.8638 129.468 32.6691C129.368 32.4753 129.308 32.2661 129.289 32.0415C129.271 31.8139 129.302 31.5688 129.383 31.306C129.495 30.9447 129.678 30.6624 129.934 30.4592C130.192 30.2569 130.502 30.1371 130.863 30.0999C131.226 30.0597 131.618 30.1036 132.039 30.2317C132.386 30.337 132.698 30.4695 132.976 30.629C133.257 30.7894 133.515 30.9706 133.75 31.1727L133.224 31.8456C133.002 31.6639 132.773 31.5011 132.536 31.3574C132.299 31.2136 132.043 31.0999 131.768 31.0163C131.514 30.9391 131.287 30.9111 131.088 30.9321C130.891 30.9541 130.725 31.0197 130.59 31.1289C130.458 31.239 130.363 31.3882 130.305 31.5763C130.24 31.7883 130.233 31.979 130.286 32.1484C130.338 32.3178 130.45 32.4906 130.621 32.6667C130.793 32.8429 131.025 33.0455 131.317 33.2747C131.646 33.5316 131.916 33.7801 132.127 34.0204C132.34 34.2616 132.481 34.5165 132.548 34.7852C132.616 35.0539 132.596 35.3615 132.49 35.7079Z" fill="white"/>
<path d="M181.542 19.6066C182.163 19.9649 182.508 20.4533 182.58 21.0716C182.651 21.69 182.46 22.3907 182.008 23.1737C181.556 23.9566 181.052 24.4807 180.494 24.7459C179.937 25.0111 179.33 24.9542 178.674 24.575C178.064 24.223 177.727 23.7352 177.664 23.1117C177.6 22.4882 177.795 21.7849 178.247 21.002C178.699 20.219 179.198 19.6964 179.744 19.4343C180.293 19.1742 180.893 19.2317 181.542 19.6066ZM180.9 20.744C180.723 20.642 180.528 20.6788 180.316 20.8546C180.104 21.0304 179.867 21.3456 179.604 21.8002C179.342 22.2549 179.187 22.6198 179.138 22.895C179.09 23.1702 179.154 23.3589 179.331 23.461C179.508 23.563 179.702 23.5262 179.915 23.3504C180.132 23.1731 180.374 22.8553 180.638 22.3971C180.901 21.9424 181.053 21.5783 181.096 21.3046C181.142 21.0329 181.077 20.8461 180.9 20.744ZM187.094 22.9638L178.137 28.3422L176.838 27.5923L185.795 22.2138L187.094 22.9638ZM185.259 25.9671C185.88 26.3254 186.226 26.8137 186.297 27.4321C186.368 28.0505 186.178 28.7512 185.726 29.5341C185.276 30.3135 184.772 30.8358 184.215 31.101C183.658 31.3662 183.051 31.3092 182.394 30.9301C181.784 30.578 181.448 30.0902 181.384 29.4667C181.321 28.8432 181.514 28.1418 181.964 27.3624C182.416 26.5795 182.915 26.0569 183.461 25.7947C184.01 25.5347 184.61 25.5921 185.259 25.9671ZM184.617 27.1045C184.44 27.0024 184.246 27.0393 184.034 27.2151C183.821 27.3908 183.584 27.7061 183.322 28.1607C183.059 28.6153 182.904 28.9802 182.856 29.2555C182.807 29.5307 182.872 29.7193 183.048 29.8214C183.225 29.9235 183.42 29.8866 183.632 29.7108C183.85 29.5335 184.091 29.2157 184.355 28.7575C184.618 28.3029 184.77 27.9387 184.813 27.665C184.859 27.3934 184.794 27.2066 184.617 27.1045Z" fill="white"/>
<path d="M176.573 22.1642C176.204 22.8029 175.824 23.3438 175.434 23.787C175.047 24.2323 174.642 24.5664 174.22 24.7893C173.801 25.0143 173.362 25.1167 172.902 25.0966C172.443 25.0765 171.96 24.9206 171.455 24.6289C170.82 24.2623 170.391 23.8007 170.169 23.2442C169.949 22.6841 169.916 22.0447 170.071 21.326C170.228 20.6038 170.552 19.8187 171.041 18.9708C171.535 18.1156 172.045 17.436 172.572 16.9319C173.105 16.4263 173.667 16.1278 174.258 16.0364C174.85 15.945 175.483 16.094 176.158 16.4836C176.789 16.8481 177.215 17.3105 177.435 17.8706C177.661 18.4292 177.697 19.0707 177.544 19.795C177.392 20.5158 177.068 21.3055 176.573 22.1642ZM172.703 19.93C172.355 20.5326 172.097 21.0547 171.929 21.4963C171.766 21.9364 171.706 22.3033 171.748 22.597C171.79 22.8907 171.952 23.1188 172.233 23.2813C172.511 23.4417 172.786 23.4685 173.06 23.3617C173.339 23.2534 173.628 23.0188 173.928 22.6579C174.23 22.2933 174.556 21.808 174.906 21.2018C175.254 20.5993 175.51 20.0761 175.675 19.6324C175.839 19.1887 175.899 18.819 175.853 18.5232C175.813 18.2259 175.654 17.997 175.376 17.8366C175.095 17.6741 174.816 17.6499 174.538 17.7639C174.263 17.8743 173.974 18.1118 173.672 18.4763C173.374 18.8429 173.051 19.3275 172.703 19.93Z" fill="white"/>
<path d="M169.813 12.8493C170.268 13.1118 170.646 13.4238 170.947 13.7853C171.252 14.1489 171.437 14.5399 171.504 14.9583C171.572 15.373 171.483 15.7933 171.238 16.219C171.054 16.5366 170.831 16.7779 170.567 16.9431C170.307 17.1105 170.018 17.2229 169.701 17.2804C169.386 17.3343 169.055 17.3498 168.707 17.3271C168.903 17.6375 169.07 17.9649 169.208 18.3091C169.348 18.6498 169.422 18.9976 169.428 19.3527C169.439 19.7098 169.343 20.0634 169.141 20.4134C168.887 20.8536 168.548 21.1683 168.126 21.3577C167.707 21.5434 167.238 21.6049 166.721 21.5421C166.204 21.4793 165.671 21.2896 165.123 20.973C164.531 20.6314 164.077 20.256 163.76 19.8468C163.443 19.4377 163.267 19.0136 163.231 18.5748C163.198 18.1322 163.309 17.6909 163.563 17.2507C163.771 16.8899 164.019 16.6145 164.307 16.4246C164.598 16.2368 164.914 16.1139 165.256 16.056C165.599 15.9945 165.949 15.9753 166.306 15.9986C166.157 15.7153 166.039 15.4236 165.953 15.1235C165.87 14.8254 165.84 14.5222 165.865 14.2138C165.892 13.9075 165.997 13.5974 166.178 13.2835C166.42 12.8649 166.739 12.5826 167.136 12.4366C167.537 12.2927 167.971 12.2618 168.438 12.344C168.907 12.4225 169.366 12.591 169.813 12.8493ZM165.167 18.047C165.002 18.332 164.967 18.6267 165.061 18.9309C165.16 19.2337 165.41 19.5007 165.811 19.7319C166.225 19.9715 166.587 20.0622 166.895 20.0042C167.204 19.9425 167.444 19.7655 167.612 19.4733C167.729 19.2712 167.772 19.0601 167.74 18.8398C167.712 18.6216 167.644 18.4019 167.536 18.1808C167.43 17.956 167.317 17.7392 167.197 17.5304L167.095 17.3703C166.803 17.3416 166.534 17.3422 166.285 17.3721C166.041 17.4041 165.823 17.4732 165.632 17.5793C165.441 17.6854 165.286 17.8413 165.167 18.047ZM169.096 14.0662C168.822 13.9079 168.554 13.847 168.292 13.8835C168.031 13.9201 167.826 14.0665 167.678 14.3227C167.574 14.5031 167.525 14.6868 167.533 14.8739C167.546 15.0595 167.596 15.2445 167.682 15.4288C167.771 15.6153 167.878 15.8018 168.001 15.9884C168.213 16.0048 168.419 16.006 168.619 15.9919C168.82 15.9778 169.005 15.9282 169.174 15.8432C169.344 15.7582 169.483 15.62 169.594 15.4288C169.742 15.1726 169.764 14.9211 169.662 14.6741C169.562 14.4292 169.374 14.2266 169.096 14.0662Z" fill="white"/>
<path d="M85.0007 70.9999C93.5579 66.2887 106.55 63.0977 117.001 62.9315C117.001 62.9315 117.001 48.0202 117.001 38.4657C117.001 32.1187 117.001 23.4077 117.001 18.2744C117.001 15.9172 115.079 14.0092 112.725 14.122C95.9841 14.9241 78.2129 19.5108 64.0568 26.5952C61.9349 27.6571 61.2233 30.2959 62.4202 32.3447L72.621 49.8074L85.0007 70.9999Z" fill="url(#paint2_linear_615_242)"/>
<path d="M101.828 48.3905C102.26 48.266 102.658 48.2522 103.022 48.3491C103.384 48.4431 103.697 48.6343 103.96 48.9227C104.224 49.2111 104.422 49.5832 104.555 50.0392L104.704 50.5521L101.335 51.5221C101.499 52.0504 101.755 52.419 102.102 52.6279C102.449 52.8338 102.861 52.868 103.338 52.7306C103.654 52.6398 103.926 52.529 104.154 52.3981C104.383 52.2672 104.612 52.1052 104.843 51.9122L105.065 52.6726C104.849 52.8583 104.622 53.013 104.385 53.1366C104.151 53.2623 103.86 53.3754 103.512 53.4756C103.031 53.614 102.582 53.6394 102.162 53.5521C101.746 53.4638 101.382 53.2612 101.072 52.9442C100.76 52.6241 100.524 52.1881 100.363 51.6362C100.204 51.0903 100.159 50.5975 100.229 50.1578C100.299 49.7151 100.47 49.3423 100.743 49.0394C101.016 48.7365 101.377 48.5202 101.828 48.3905ZM102.028 49.0937C101.662 49.1992 101.402 49.4039 101.25 49.7078C101.097 50.0087 101.066 50.3868 101.156 50.842L103.598 50.1391C103.515 49.867 103.401 49.6396 103.257 49.4568C103.112 49.2741 102.938 49.1488 102.732 49.0811C102.53 49.0126 102.295 49.0167 102.028 49.0937Z" fill="white"/>
<path d="M99.8144 54.4425L98.9046 54.7044L96.8613 47.7034L97.7712 47.4414L99.8144 54.4425Z" fill="white"/>
<path d="M92.0733 49.0818L92.5749 50.8006C92.6327 50.9985 92.6832 51.1937 92.7263 51.3862C92.7724 51.5777 92.8059 51.7258 92.8266 51.8304L92.8717 51.8174C92.9438 51.5626 93.0811 51.3247 93.2835 51.1038C93.4881 50.8791 93.7856 50.7105 94.1759 50.5981C94.7795 50.4244 95.326 50.5012 95.8154 50.8285C96.3039 51.1528 96.6716 51.738 96.9184 52.5839C97.0813 53.1418 97.1346 53.6369 97.0785 54.0693C97.0254 54.5008 96.8757 54.8577 96.6293 55.14C96.3859 55.4214 96.0601 55.6209 95.6517 55.7384C95.2643 55.85 94.93 55.8698 94.6486 55.798C94.3664 55.7232 94.1288 55.6062 93.9359 55.4472L93.8683 55.4666L93.8823 56.1503L93.2112 56.3435L91.168 49.3424L92.0733 49.0818ZM94.1899 51.3989C93.8626 51.4931 93.6202 51.6328 93.4626 51.818C93.3081 52.0023 93.2269 52.2371 93.219 52.5222C93.2111 52.8074 93.2634 53.1484 93.3759 53.5452L93.3956 53.6127C93.5672 54.2006 93.7946 54.6229 94.0778 54.8795C94.361 55.1362 94.7549 55.1919 95.2594 55.0466C95.6737 54.9273 95.9411 54.678 96.0615 54.2987C96.1849 53.9185 96.1604 53.4329 95.988 52.842C95.8129 52.2421 95.5745 51.8213 95.2729 51.5797C94.9713 51.3381 94.6103 51.2779 94.1899 51.3989Z" fill="white"/>
<path d="M88.3972 52.2619C89.0098 52.0855 89.5075 52.0902 89.8905 52.2758C90.2725 52.4585 90.5489 52.8422 90.7196 53.4272L91.6979 56.7792L91.0493 56.966L90.6635 56.2966L90.6275 56.307C90.5419 56.5267 90.4416 56.7182 90.3264 56.8814C90.2113 57.0446 90.0634 57.1848 89.8827 57.3018C89.7051 57.418 89.4751 57.5167 89.1928 57.598C88.8926 57.6844 88.6096 57.7074 88.3438 57.6668C88.0781 57.6263 87.8462 57.5174 87.648 57.3404C87.452 57.1594 87.3049 56.901 87.2069 56.565C87.0598 56.0611 87.1419 55.6229 87.4531 55.2504C87.7643 54.8779 88.3097 54.5664 89.0895 54.316L89.9347 54.0336L89.8533 53.7546C89.7404 53.3677 89.5736 53.1198 89.3531 53.0109C89.1355 52.9012 88.8721 52.8909 88.5628 52.9799C88.3076 53.0534 88.0738 53.1614 87.8615 53.3038C87.6483 53.4432 87.4485 53.595 87.262 53.7593L86.782 53.1853C86.9812 52.9979 87.2177 52.8209 87.4913 52.6544C87.7679 52.4869 88.0699 52.3561 88.3972 52.2619ZM90.0991 54.6301L89.4146 54.8613C88.8472 55.0474 88.4714 55.2597 88.287 55.4981C88.1048 55.7326 88.058 56.0014 88.1464 56.3043C88.2234 56.5683 88.3595 56.7389 88.5545 56.816C88.7495 56.8932 88.9777 56.8942 89.2389 56.819C89.6413 56.7031 89.9388 56.4955 90.1313 56.1962C90.326 55.893 90.3586 55.5195 90.2291 55.0755L90.0991 54.6301Z" fill="white"/>
<path d="M109.568 36.3684C109.697 36.3312 109.824 36.2831 109.95 36.2241C110.076 36.162 110.181 36.0992 110.267 36.0355L110.469 36.7284C110.38 36.8028 110.254 36.8796 110.092 36.9589C109.933 37.0403 109.765 37.1065 109.588 37.1575C109.318 37.2353 109.06 37.2593 108.813 37.2294C108.567 37.1995 108.345 37.0911 108.147 36.9042C107.952 36.7164 107.797 36.423 107.68 36.0241L106.864 33.2255L106.174 33.4239L106.052 33.0054L106.676 32.465L106.683 31.302L107.242 31.1413L107.57 32.2661L109.007 31.8524L109.21 32.5499L107.773 32.9635L108.586 35.7486C108.668 36.0276 108.795 36.2171 108.967 36.317C109.142 36.4161 109.343 36.4332 109.568 36.3684Z" fill="white"/>
<path d="M105.067 32.8893C105.157 32.8634 105.256 32.8413 105.365 32.823C105.473 32.8018 105.566 32.7878 105.646 32.7812L105.797 33.6498C105.719 33.6526 105.631 33.6618 105.531 33.6775C105.435 33.6923 105.346 33.7113 105.265 33.7347C105.073 33.79 104.9 33.8787 104.747 34.0009C104.594 34.123 104.471 34.2721 104.379 34.4481C104.287 34.6211 104.232 34.8174 104.214 35.037C104.196 35.2536 104.224 35.4879 104.297 35.7398L105.063 38.363L104.153 38.6249L102.706 33.6666L103.436 33.4565L103.805 34.3208L103.846 34.3091C103.895 34.0997 103.97 33.8993 104.07 33.7078C104.174 33.5155 104.307 33.3486 104.471 33.2072C104.637 33.0618 104.836 32.9559 105.067 32.8893Z" fill="white"/>
<path d="M102.17 36.4986C102.289 36.9065 102.341 37.2865 102.327 37.6386C102.314 37.9868 102.238 38.3013 102.099 38.582C101.962 38.8589 101.767 39.0969 101.516 39.2961C101.264 39.4922 100.958 39.6421 100.598 39.7458C100.262 39.8427 99.9356 39.8747 99.6201 39.842C99.3067 39.8054 99.016 39.707 98.7479 39.5468C98.4789 39.3836 98.2425 39.1591 98.0386 38.8731C97.8338 38.5841 97.6719 38.2357 97.5528 37.8277C97.3944 37.2848 97.3527 36.796 97.4276 36.3615C97.5018 35.9239 97.6826 35.5565 97.9701 35.2591C98.2598 34.9578 98.6449 34.738 99.1253 34.5997C99.5817 34.4683 100.012 34.4534 100.416 34.555C100.82 34.6565 101.174 34.8701 101.477 35.1957C101.78 35.5214 102.011 35.9556 102.17 36.4986ZM98.4807 37.5606C98.5919 37.9415 98.7358 38.2562 98.9124 38.5045C99.0912 38.7489 99.3026 38.9156 99.5467 39.0047C99.7937 39.0929 100.078 39.0907 100.399 38.9982C100.715 38.9075 100.953 38.7592 101.114 38.5534C101.275 38.3477 101.364 38.0945 101.381 37.7938C101.396 37.4902 101.348 37.1479 101.237 36.767C101.127 36.389 100.984 36.0789 100.809 35.8366C100.635 35.5943 100.424 35.4306 100.178 35.3454C99.9346 35.2593 99.6509 35.263 99.3266 35.3563C98.8521 35.4929 98.5502 35.7522 98.4208 36.1341C98.2935 36.5122 98.3135 36.9877 98.4807 37.5606Z" fill="white"/>
<path d="M96.4367 36.2274L95.216 36.5788L96.4596 40.8398L95.5542 41.1004L94.3107 36.8395L93.4684 37.082L93.3411 36.6455L94.1032 36.1286L94.0034 35.7866C93.8818 35.3697 93.8487 35.0166 93.9043 34.7275C93.959 34.4353 94.0894 34.1962 94.2955 34.0101C94.5046 33.823 94.7818 33.6798 95.1271 33.5804C95.3343 33.5208 95.5287 33.4843 95.7104 33.471C95.895 33.4569 96.057 33.4541 96.1962 33.4628L96.1642 34.2232C96.0525 34.2196 95.9297 34.2224 95.7957 34.2317C95.6608 34.238 95.5228 34.2615 95.3817 34.3022C95.1204 34.3774 94.9512 34.5171 94.8742 34.7214C94.8001 34.9248 94.8125 35.196 94.9114 35.535L95.0125 35.8814L96.2331 35.53L96.4367 36.2274Z" fill="white"/>
<path d="M90.6851 37.0298C91.2346 36.8716 91.691 36.8963 92.0543 37.1039C92.4198 37.3076 92.6944 37.7244 92.8782 38.3543L93.825 41.5984L92.9287 41.8564L92.0147 38.7248C91.9009 38.3349 91.7345 38.0657 91.5154 37.9175C91.2994 37.7683 91.0322 37.7395 90.7139 37.8312C90.2635 37.9609 89.9775 38.1911 89.856 38.522C89.7366 38.849 89.7535 39.275 89.9067 39.7999L90.6946 42.4996L89.7938 42.7589L88.8798 39.6273C88.8037 39.3664 88.7046 39.1608 88.5826 39.0106C88.4598 38.8573 88.3151 38.7575 88.1486 38.7112C87.9821 38.6648 87.7907 38.6728 87.5745 38.735C87.2652 38.824 87.0372 38.9629 86.8904 39.1514C86.7458 39.3362 86.6695 39.5711 86.6616 39.8563C86.6567 40.1406 86.7094 40.4717 86.8197 40.8497L87.5642 43.4008L86.6589 43.6615L85.2118 38.7031L85.928 38.4969L86.2582 39.1432L86.3077 39.129C86.3569 38.9295 86.44 38.7511 86.5568 38.5939C86.6767 38.4358 86.8214 38.3015 86.991 38.1909C87.1596 38.0773 87.3475 37.9907 87.5547 37.931C87.9271 37.8238 88.2606 37.801 88.5552 37.8625C88.8498 37.924 89.0975 38.0754 89.2981 38.3168L89.3567 38.3C89.4344 37.9752 89.5936 37.7066 89.8344 37.4942C90.0772 37.278 90.3608 37.1232 90.6851 37.0298Z" fill="white"/>
<path d="M84.6755 41.5351C84.7945 41.943 84.8468 42.323 84.8324 42.6751C84.8201 43.0233 84.7442 43.3378 84.6048 43.6185C84.4675 43.8954 84.2733 44.1334 84.0222 44.3326C83.7702 44.5287 83.4641 44.6786 83.1037 44.7823C82.7674 44.8791 82.4415 44.9112 82.126 44.8785C81.8126 44.8419 81.5218 44.7435 81.2537 44.5833C80.9848 44.4201 80.7483 44.1956 80.5444 43.9096C80.3397 43.6206 80.1778 43.2722 80.0587 42.8642C79.9002 42.3213 79.8585 41.8325 79.9335 41.398C80.0076 40.9604 80.1885 40.593 80.476 40.2956C80.7657 39.9943 81.1507 39.7745 81.6312 39.6362C82.0876 39.5048 82.5178 39.4899 82.9218 39.5915C83.3257 39.693 83.6794 39.9066 83.9827 40.2322C84.2861 40.5578 84.517 40.9921 84.6755 41.5351ZM80.9865 42.5971C81.0977 42.978 81.2416 43.2927 81.4183 43.541C81.597 43.7854 81.8084 43.9521 82.0525 44.0412C82.2996 44.1294 82.5838 44.1272 82.9051 44.0347C83.2204 43.944 83.4587 43.7957 83.62 43.5899C83.7812 43.3842 83.8701 43.131 83.8865 42.8303C83.9021 42.5267 83.8543 42.1844 83.7431 41.8035C83.6328 41.4255 83.4902 41.1154 83.3153 40.8731C83.1404 40.6308 82.9299 40.4671 82.6837 40.3819C82.4405 40.2958 82.1567 40.2994 81.8324 40.3928C81.358 40.5294 81.0561 40.7887 80.9267 41.1706C80.7994 41.5487 80.8193 42.0242 80.9865 42.5971Z" fill="white"/>
<path d="M76.4445 40.2322C76.1052 40.3298 75.8179 40.4776 75.5826 40.6754C75.3495 40.8693 75.1732 41.107 75.0535 41.3886C74.933 41.6672 74.8696 41.9797 74.8633 42.3262C74.857 42.6727 74.9121 43.0454 75.0285 43.4443C75.1835 43.9753 75.3955 44.4117 75.6645 44.7537C75.9366 45.0949 76.2624 45.3246 76.642 45.4429C77.0216 45.5613 77.4531 45.5508 77.9365 45.4117C78.2248 45.3287 78.4921 45.2241 78.7385 45.0979C78.987 44.9678 79.2296 44.8232 79.4663 44.664L79.6974 45.4559C79.4732 45.6245 79.2325 45.7702 78.9754 45.893C78.7222 46.0179 78.4154 46.1322 78.0551 46.236C77.3824 46.4296 76.7817 46.4514 76.2529 46.3012C75.7271 46.1502 75.281 45.8543 74.9147 45.4134C74.5476 44.9696 74.2638 44.4042 74.0633 43.7173C73.918 43.2194 73.8544 42.7451 73.8726 42.2944C73.8899 41.8407 73.9885 41.4254 74.1682 41.0485C74.347 40.6686 74.6064 40.3419 74.9465 40.0684C75.2887 39.791 75.7136 39.5793 76.221 39.4332C76.5514 39.3381 76.8832 39.2816 77.2165 39.2636C77.5519 39.2419 77.8701 39.2559 78.1711 39.3058L78.0533 40.1738C77.8052 40.1379 77.5441 40.1188 77.27 40.1164C76.9989 40.1132 76.7237 40.1518 76.4445 40.2322Z" fill="white"/>
<path d="M120.207 0.952654C120.923 0.9435 121.47 1.18651 121.847 1.68169C122.224 2.17687 122.419 2.87647 122.43 3.78049C122.442 4.68451 122.276 5.39287 121.932 5.90559C121.589 6.41831 121.038 6.67951 120.28 6.6892C119.576 6.69819 119.037 6.45091 118.664 5.94734C118.291 5.44378 118.099 4.73999 118.087 3.83597C118.076 2.93195 118.238 2.2278 118.573 1.72352C118.912 1.21919 119.457 0.962233 120.207 0.952654ZM120.236 2.25853C120.032 2.26113 119.883 2.3922 119.791 2.65171C119.698 2.91122 119.655 3.30344 119.662 3.82835C119.669 4.35326 119.722 4.74634 119.821 5.00757C119.92 5.2688 120.072 5.39811 120.276 5.3955C120.48 5.3929 120.628 5.26184 120.721 5.00232C120.818 4.73859 120.862 4.34218 120.856 3.8131C120.849 3.28819 120.794 2.89723 120.691 2.64021C120.592 2.38315 120.44 2.25592 120.236 2.25853ZM126.695 1.00102L121.744 10.2017L120.244 10.2209L125.195 1.02018L126.695 1.00102ZM126.652 4.5203C127.369 4.51115 127.916 4.75416 128.293 5.24934C128.67 5.74452 128.864 6.44412 128.876 7.34814C128.887 8.24799 128.721 8.95427 128.378 9.46699C128.034 9.97971 127.484 10.2409 126.725 10.2506C126.021 10.2596 125.483 10.0123 125.11 9.50874C124.737 9.00518 124.544 8.30347 124.533 7.40362C124.521 6.4996 124.683 5.79545 125.018 5.29117C125.358 4.78684 125.902 4.52988 126.652 4.5203ZM126.681 5.82618C126.477 5.82878 126.329 5.95984 126.236 6.21936C126.144 6.47887 126.101 6.87109 126.108 7.396C126.114 7.92091 126.167 8.31398 126.267 8.57522C126.366 8.83645 126.517 8.96576 126.721 8.96315C126.926 8.96055 127.074 8.82949 127.166 8.56997C127.263 8.30624 127.308 7.90983 127.301 7.38075C127.295 6.85584 127.24 6.46488 127.136 6.20786C127.037 5.9508 126.886 5.82357 126.681 5.82618Z" fill="white"/>
<path d="M114.214 4.46045C114.772 4.45331 115.269 4.55321 115.705 4.76014C116.146 4.96702 116.493 5.27508 116.748 5.68432C117.004 6.09355 117.135 6.60021 117.143 7.20427C117.151 7.8625 117.021 8.43291 116.752 8.91551C116.488 9.39389 116.086 9.7636 115.548 10.0246C115.013 10.2856 114.344 10.4213 113.54 10.4315C113.061 10.4377 112.609 10.4018 112.183 10.3239C111.761 10.2501 111.391 10.1319 111.072 9.96932L111.051 8.30085C111.369 8.46344 111.75 8.60024 112.193 8.71125C112.641 8.81803 113.06 8.86892 113.452 8.86392C113.835 8.85903 114.157 8.80491 114.418 8.70157C114.679 8.59407 114.875 8.43324 115.006 8.21907C115.141 8.00068 115.206 7.72485 115.202 7.39157C115.196 6.94581 115.041 6.60612 114.738 6.37249C114.436 6.13886 113.974 6.02601 113.353 6.03394C113.115 6.03698 112.868 6.06305 112.61 6.11218C112.357 6.16125 112.145 6.20979 111.975 6.2578L111.201 5.85519L111.485 1.19532L116.44 1.13202L116.461 2.76925L113.199 2.81092L113.053 4.60652C113.195 4.57555 113.348 4.54442 113.515 4.51313C113.681 4.48184 113.914 4.46428 114.214 4.46045Z" fill="white"/>
<path d="M103.528 6.55317C103.522 6.02825 103.553 5.50911 103.621 4.99574C103.694 4.47815 103.823 3.99108 104.009 3.53454C104.194 3.07384 104.458 2.66631 104.799 2.31195C105.141 1.95342 105.576 1.67077 106.107 1.46399C106.638 1.25305 107.282 1.14273 108.04 1.13305C108.22 1.13076 108.428 1.13643 108.666 1.15006C108.907 1.15947 109.108 1.17983 109.266 1.21113L109.286 2.75463C109.119 2.71926 108.94 2.69239 108.748 2.67401C108.56 2.65141 108.372 2.6413 108.185 2.6437C107.427 2.65338 106.841 2.7817 106.427 3.02865C106.018 3.27554 105.73 3.61463 105.565 4.04591C105.404 4.47296 105.312 4.96997 105.29 5.53691L105.372 5.53587C105.486 5.33025 105.629 5.14717 105.802 4.98663C105.979 4.82603 106.194 4.69828 106.447 4.60339C106.7 4.50432 106.997 4.45261 107.339 4.44824C107.872 4.44143 108.336 4.55009 108.731 4.77422C109.125 4.99418 109.431 5.31735 109.649 5.74373C109.867 6.17011 109.98 6.69158 109.988 7.30815C109.996 7.96637 109.877 8.53457 109.629 9.01273C109.381 9.4909 109.025 9.86003 108.562 10.1201C108.102 10.376 107.554 10.508 106.917 10.5161C106.45 10.5221 106.014 10.4485 105.608 10.2953C105.201 10.138 104.844 9.89677 104.536 9.57154C104.227 9.24631 103.985 8.83483 103.807 8.3371C103.63 7.8352 103.537 7.24055 103.528 6.55317ZM106.859 8.97311C107.238 8.96827 107.545 8.83518 107.779 8.57386C108.013 8.31253 108.127 7.90692 108.12 7.35701C108.114 6.91125 108.006 6.56264 107.794 6.31118C107.587 6.05549 107.275 5.93031 106.858 5.93563C106.575 5.93925 106.326 6.00702 106.111 6.13893C105.9 6.26662 105.737 6.42912 105.623 6.62641C105.509 6.81953 105.453 7.01816 105.456 7.22229C105.458 7.43476 105.49 7.64477 105.551 7.85232C105.612 8.05988 105.702 8.24831 105.821 8.41762C105.94 8.58694 106.085 8.72258 106.257 8.82455C106.434 8.92646 106.634 8.97598 106.859 8.97311Z" fill="white"/>
<path d="M62.7202 92.4257C67.9114 83.8814 77.2347 75.8209 85.88 70.6904L73.5004 49.4999L63.26 31.9712C62.0785 29.9487 59.4787 29.2601 57.4986 30.5114C43.7888 39.1757 30.2762 51.4699 21.3167 64.8456C19.9942 66.82 20.6961 69.4675 22.76 70.6452L40.4416 80.7348L62.0004 93.4999L62.7202 92.4257Z" fill="url(#paint3_linear_615_242)"/>
<path d="M54.6484 58.2967L55.3305 57.5422L58.2873 58.7096C58.4393 58.7698 58.5858 58.8314 58.7268 58.8944C58.8676 58.953 59.0008 59.0153 59.1265 59.0813C59.2519 59.1429 59.3709 59.2093 59.4835 59.2804L59.5056 59.256C59.4118 59.1222 59.3028 58.9538 59.1787 58.751C59.0545 58.5482 58.9322 58.3386 58.8118 58.1224L57.2981 55.3656L57.9771 54.6146L60.8815 60.1942C61.0446 60.503 61.1549 60.8003 61.2125 61.0861C61.2745 61.3717 61.2725 61.6441 61.2065 61.9035C61.1429 62.1649 61.0021 62.4162 60.7842 62.6572C60.6836 62.7685 60.5875 62.8608 60.496 62.9341C60.4089 63.0071 60.33 63.0665 60.2592 63.1122L59.6995 62.613C59.7572 62.5725 59.8232 62.5204 59.8975 62.4568C59.9739 62.391 60.0477 62.3187 60.119 62.2398C60.251 62.0938 60.335 61.9426 60.371 61.7863C60.4114 61.6298 60.4127 61.4676 60.3748 61.2999C60.339 61.1298 60.2742 60.9569 60.1804 60.7811L59.8828 60.2017L54.6484 58.2967Z" fill="white"/>
<path d="M54.0721 58.7941C54.135 58.7246 54.2078 58.6534 54.2904 58.5806C54.3708 58.5057 54.443 58.4445 54.507 58.3969L55.0951 59.0533C55.0309 59.0965 54.9605 59.151 54.8841 59.2168C54.8098 59.2804 54.7444 59.3434 54.6878 59.406C54.5537 59.5544 54.4539 59.7207 54.3883 59.9051C54.3228 60.0894 54.2975 60.2805 54.3126 60.4781C54.3253 60.6737 54.3825 60.8691 54.484 61.0643C54.5832 61.2575 54.7307 61.4414 54.9266 61.6161L56.966 63.4349L56.3311 64.1372L52.4762 60.6993L52.9854 60.136L53.757 60.6734L53.7852 60.6421C53.7166 60.4385 53.6742 60.2291 53.6582 60.0138C53.6443 59.7963 53.6695 59.5843 53.7339 59.3779C53.798 59.1672 53.9108 58.9726 54.0721 58.7941Z" fill="white"/>
<path d="M52.7978 62.8388C53.3738 63.3525 53.76 63.8874 53.9565 64.4436C54.1506 64.9977 54.1643 65.5626 53.9977 66.1383C53.8308 66.7097 53.4896 67.2804 52.9742 67.8507L51.7138 69.2449L46.5996 64.6839L48.0015 63.1332C48.4708 62.6139 48.9719 62.2507 49.5047 62.0434C50.0352 61.834 50.5802 61.7926 51.1398 61.919C51.6971 62.0434 52.2498 62.35 52.7978 62.8388ZM52.143 63.605C51.7046 63.214 51.2792 62.9624 50.8669 62.85C50.4545 62.7377 50.056 62.7569 49.6711 62.9077C49.2839 63.0565 48.9112 63.329 48.5528 63.7254L47.8456 64.5077L51.7494 67.9893L52.3435 67.3322C52.9365 66.6762 53.2152 66.0371 53.1795 65.4149C53.1438 64.7928 52.7983 64.1895 52.143 63.605Z" fill="white"/>
<path d="M57.0047 15.2576C57.624 14.8969 58.2196 14.8393 58.7916 15.0847C59.3637 15.3302 59.8772 15.8435 60.3322 16.6247C60.7872 17.406 60.9914 18.1043 60.9447 18.7197C60.8981 19.335 60.5472 19.8335 59.8919 20.2151C59.2835 20.5695 58.693 20.6193 58.1203 20.3646C57.5477 20.1098 57.0339 19.5919 56.5789 18.8106C56.1239 18.0293 55.9182 17.3367 55.9618 16.7328C56.0091 16.1267 56.3567 15.635 57.0047 15.2576ZM57.6729 16.3799C57.4965 16.4827 57.4318 16.6698 57.479 16.9412C57.5262 17.2127 57.6819 17.5752 57.9461 18.0288C58.2103 18.4825 58.4498 18.7986 58.6647 18.9772C58.8796 19.1558 59.0753 19.1937 59.2517 19.0909C59.4281 18.9882 59.4927 18.8011 59.4455 18.5297C59.3999 18.2525 59.2439 17.8853 58.9776 17.4281C58.7134 16.9745 58.4731 16.6612 58.2567 16.4883C58.0439 16.3133 57.8493 16.2772 57.6729 16.3799ZM62.6764 12.1063L62.8948 22.5524L61.5987 23.3072L61.3803 12.8612L62.6764 12.1063ZM64.3715 15.1908C64.9907 14.8302 65.5864 14.7725 66.1584 15.018C66.7304 15.2634 67.2439 15.7767 67.6989 16.558C68.1518 17.3356 68.355 18.0321 68.3083 18.6475C68.2617 19.2629 67.9108 19.7613 67.2555 20.1429C66.6471 20.4973 66.0566 20.5471 65.4839 20.2924C64.9113 20.0377 64.3986 19.5215 63.9457 18.7438C63.4907 17.9626 63.285 17.27 63.3286 16.666C63.3758 16.0599 63.7234 15.5682 64.3715 15.1908ZM65.0396 16.3132C64.8632 16.4159 64.7986 16.603 64.8458 16.8745C64.893 17.1459 65.0487 17.5084 65.3128 17.9621C65.577 18.4157 65.8166 18.7318 66.0315 18.9104C66.2464 19.089 66.442 19.1269 66.6184 19.0242C66.7949 18.9214 66.8595 18.7343 66.8123 18.4629C66.7666 18.1858 66.6106 17.8186 66.3443 17.3613C66.0801 16.9077 65.8398 16.5944 65.6234 16.4216C65.4106 16.2466 65.216 16.2104 65.0396 16.3132Z" fill="white"/>
<path d="M56.7558 20.8409C57.127 21.4781 57.4078 22.0763 57.5985 22.6355C57.7927 23.1925 57.8817 23.7096 57.8655 24.1867C57.8529 24.6618 57.7236 25.0938 57.4777 25.4829C57.2318 25.872 56.8569 26.2133 56.3528 26.5069C55.7192 26.8759 55.1056 27.0187 54.5122 26.9352C53.9167 26.8481 53.3456 26.5587 52.7989 26.0671C52.2501 25.5719 51.7294 24.9013 51.2366 24.0552C50.7397 23.2019 50.4033 22.4215 50.2275 21.7139C50.0532 21.0007 50.0733 20.3646 50.2878 19.8057C50.5023 19.2469 50.9462 18.7714 51.6194 18.3793C52.2495 18.0124 52.8623 17.8725 53.4578 17.9595C54.0548 18.0409 54.6295 18.3282 55.1819 18.8213C55.7322 19.3108 56.2568 19.984 56.7558 20.8409ZM52.8946 23.0896C53.2447 23.6909 53.5696 24.1743 53.8693 24.5397C54.1704 24.8995 54.4589 25.1341 54.7347 25.2435C55.0105 25.3528 55.2889 25.3257 55.5697 25.1622C55.8469 25.0007 56.0071 24.7749 56.0502 24.4846C56.0947 24.1886 56.0349 23.8209 55.8705 23.3815C55.7041 22.9384 55.4448 22.4144 55.0925 21.8096C54.7424 21.2083 54.4157 20.726 54.1124 20.3626C53.8092 19.9992 53.5179 19.7639 53.2384 19.6567C52.9605 19.5437 52.6829 19.5679 52.4057 19.7294C52.1249 19.8929 51.965 20.1235 51.9261 20.4209C51.8851 20.7148 51.9479 21.0833 52.1143 21.5263C52.2843 21.9673 52.5444 22.4884 52.8946 23.0896Z" fill="white"/>
<path d="M47.1854 24.9466C47.6679 24.6657 48.1498 24.508 48.6311 24.4735C49.1161 24.437 49.5704 24.534 49.994 24.7646C50.4176 24.9953 50.7814 25.3716 51.0854 25.8936C51.4167 26.4625 51.5841 27.0231 51.5876 27.5755C51.5926 28.1222 51.425 28.6417 51.0849 29.1339C50.7484 29.624 50.2327 30.0713 49.5378 30.476C49.1238 30.7171 48.7122 30.9086 48.303 31.0505C47.8996 31.1939 47.5191 31.2732 47.1616 31.2886L46.3219 29.8467C46.6794 29.8313 47.0783 29.7629 47.5186 29.6415C47.9604 29.5143 48.3506 29.3522 48.689 29.1551C49.0202 28.9622 49.2741 28.7565 49.4506 28.538C49.625 28.3159 49.7163 28.0795 49.7246 27.8288C49.7344 27.5724 49.6554 27.3002 49.4876 27.0122C49.2633 26.6269 48.9618 26.4072 48.583 26.3529C48.2043 26.2987 47.7467 26.4278 47.2103 26.7402C47.005 26.8597 46.8024 27.0043 46.6022 27.1739C46.4057 27.3414 46.2451 27.4879 46.1206 27.6135L45.2487 27.6439L43.2027 23.4476L47.4852 20.9536L48.3092 22.3685L45.4902 24.0102L46.247 25.645C46.3547 25.5485 46.4733 25.4458 46.6026 25.3367C46.7319 25.2276 46.9262 25.0976 47.1854 24.9466Z" fill="white"/>
<path d="M53.5107 122C53.6788 111.672 57.7333 100.957 62.5002 92.5L40.0002 79.9999L22.1894 69.6448C20.1555 68.4623 17.5403 69.1565 16.4598 71.2463C9.3389 85.0196 4.91167 101.387 4.12298 117.722C4.00929 120.077 5.92265 122 8.2802 122H28.7555H53.5107Z" fill="#EFCC97"/>
<path d="M35.1729 100.316L35.4478 99.337L38.6126 99.0756C38.7754 99.0623 38.9339 99.0527 39.0881 99.0468C39.2401 99.0371 39.387 99.034 39.5288 99.0376C39.6684 99.0374 39.8045 99.0442 39.9368 99.0582L39.9457 99.0266C39.8023 98.948 39.6299 98.8451 39.4287 98.718C39.2274 98.591 39.0249 98.457 38.821 98.3163L36.2411 96.5122L36.5148 95.5374L41.594 99.2595C41.8772 99.4644 42.1081 99.6824 42.2867 99.9134C42.4691 100.142 42.5884 100.388 42.6446 100.65C42.7039 100.913 42.6896 101.2 42.6018 101.513C42.5612 101.658 42.5163 101.783 42.467 101.889C42.4215 101.993 42.3772 102.082 42.3342 102.154L41.6115 101.954C41.6451 101.892 41.681 101.816 41.7193 101.726C41.7584 101.633 41.7923 101.535 41.821 101.433C41.8742 101.244 41.8822 101.071 41.8449 100.915C41.8115 100.756 41.7405 100.61 41.6321 100.476C41.5244 100.339 41.3896 100.213 41.2275 100.097L40.7036 99.7083L35.1729 100.316Z" fill="white"/>
<path d="M34.8786 101.018C34.904 100.928 34.9374 100.831 34.9791 100.729C35.0177 100.627 35.055 100.54 35.0912 100.469L35.9093 100.797C35.8709 100.865 35.8322 100.945 35.7932 101.038C35.7549 101.128 35.7244 101.213 35.7016 101.294C35.6475 101.487 35.6321 101.68 35.6554 101.875C35.6787 102.069 35.741 102.252 35.8424 102.423C35.9407 102.593 36.0787 102.743 36.2563 102.873C36.4309 103.002 36.6447 103.102 36.8977 103.172L39.5311 103.902L39.2751 104.813L34.2974 103.434L34.5026 102.703L35.4319 102.844L35.4433 102.803C35.2914 102.651 35.1604 102.482 35.0504 102.296C34.9412 102.107 34.8696 101.905 34.8355 101.692C34.7992 101.474 34.8136 101.249 34.8786 101.018Z" fill="white"/>
<path d="M35.5359 105.212C36.2797 105.418 36.8631 105.727 37.2861 106.14C37.7061 106.551 37.9695 107.052 38.0763 107.643C38.181 108.229 38.1294 108.893 37.9216 109.633L37.4134 111.442L30.8096 109.613L31.3747 107.6C31.5639 106.926 31.8509 106.379 32.2355 105.957C32.6171 105.534 33.0864 105.255 33.6434 105.121C34.1974 104.986 34.8282 105.016 35.5359 105.212ZM35.2906 106.19C34.7244 106.033 34.2319 105.996 33.813 106.077C33.3941 106.159 33.0459 106.353 32.7686 106.659C32.4882 106.964 32.2758 107.373 32.1314 107.888L31.8463 108.903L36.8872 110.299L37.1267 109.447C37.3658 108.595 37.3311 107.898 37.0226 107.356C36.7141 106.813 36.1367 106.424 35.2906 106.19Z" fill="white"/>
<path d="M23.8135 92.6853L24.0884 91.706L27.2533 91.4446C27.416 91.4314 27.5745 91.4218 27.7287 91.4158C27.8807 91.4061 28.0277 91.403 28.1694 91.4066C28.3091 91.4064 28.4451 91.4133 28.5775 91.4272L28.5863 91.3956C28.4429 91.317 28.2706 91.2141 28.0693 91.0871C27.8681 90.96 27.6655 90.8261 27.4616 90.6853L24.8817 88.8812L25.1554 87.9065L30.2346 91.6285C30.5179 91.8334 30.7488 92.0514 30.9273 92.2824C31.1097 92.5113 31.229 92.7567 31.2853 93.0187C31.3445 93.2815 31.3302 93.5694 31.2424 93.8823C31.2018 94.0267 31.1569 94.152 31.1076 94.2583C31.0621 94.3625 31.0179 94.4507 30.9748 94.5231L30.2521 94.3229C30.2857 94.2609 30.3217 94.1849 30.3599 94.095C30.399 94.0021 30.4329 93.9045 30.4616 93.8022C30.5148 93.6126 30.5228 93.4398 30.4855 93.2835C30.4521 93.1251 30.3812 92.979 30.2727 92.8452C30.1651 92.7084 30.0302 92.5819 29.8681 92.4656L29.3442 92.0774L23.8135 92.6853Z" fill="white"/>
<path d="M23.5183 93.3868C23.5436 93.2965 23.5771 93.2004 23.6187 93.0985C23.6573 92.9957 23.6947 92.9088 23.7309 92.8377L24.5489 93.1665C24.5106 93.2337 24.4719 93.3137 24.4328 93.4067C24.3946 93.4966 24.3641 93.5822 24.3412 93.6634C24.2872 93.8559 24.2718 94.0494 24.2951 94.2439C24.3183 94.4385 24.3806 94.6211 24.482 94.7918C24.5803 94.9617 24.7183 95.1118 24.896 95.2421C25.0706 95.3715 25.2844 95.4713 25.5373 95.5413L28.1707 96.2708L27.9148 97.1823L22.937 95.8035L23.1423 95.0724L24.0716 95.2131L24.083 95.1725C23.931 95.0202 23.8001 94.851 23.69 94.6648C23.5809 94.4757 23.5092 94.2743 23.4751 94.0606C23.4388 93.843 23.4532 93.6184 23.5183 93.3868Z" fill="white"/>
<path d="M21.917 99.0907C22.0386 98.6575 22.2363 98.3118 22.51 98.0536C22.7807 97.7947 23.1079 97.6292 23.4917 97.5571C23.8754 97.4851 24.2961 97.5125 24.7539 97.6393L25.2688 97.7819L24.321 101.157C24.8565 101.296 25.3045 101.272 25.6649 101.087C26.0223 100.901 26.2682 100.568 26.4025 100.09C26.4912 99.7741 26.5401 99.4845 26.5491 99.2211C26.5582 98.9578 26.5411 98.6774 26.498 98.3802L27.2614 98.5916C27.3057 98.873 27.318 99.1472 27.2982 99.4141C27.2823 99.6788 27.2254 99.9856 27.1274 100.335C26.9922 100.816 26.7771 101.212 26.4822 101.523C26.1881 101.83 25.8245 102.033 25.3915 102.13C24.9555 102.226 24.4604 102.198 23.9064 102.044C23.3583 101.893 22.9158 101.671 22.5789 101.38C22.2389 101.088 22.0119 100.746 21.8979 100.355C21.7839 99.9633 21.7903 99.5419 21.917 99.0907ZM22.6204 99.2904C22.5173 99.6574 22.555 99.9856 22.7334 100.275C22.9088 100.563 23.2138 100.789 23.6485 100.952L24.3353 98.5058C24.0604 98.4329 23.8073 98.4097 23.5758 98.4364C23.3444 98.4631 23.1459 98.5459 22.9803 98.6849C22.8155 98.8208 22.6956 99.0226 22.6204 99.2904Z" fill="white"/>
<path d="M19.6159 101.391L25.5633 105.558L25.2934 106.519L18.0332 107.027L18.3018 106.07L22.9596 105.78C23.1224 105.767 23.2934 105.759 23.4725 105.757C23.6486 105.754 23.8239 105.753 23.9983 105.756C24.1728 105.759 24.3316 105.766 24.4747 105.776C24.3468 105.712 24.207 105.637 24.0554 105.553C23.9046 105.466 23.7536 105.374 23.6023 105.277C23.448 105.179 23.3028 105.084 23.1666 104.991L19.3447 102.357L19.6159 101.391Z" fill="white"/>
<path d="M8.7101 57.3693C9.06264 56.7454 9.54776 56.395 10.1654 56.3182C10.7831 56.2413 11.4855 56.4253 12.2727 56.87C13.0598 57.3148 13.5885 57.8146 13.8589 58.3693C14.1292 58.9241 14.0779 59.5315 13.7049 60.1917C13.3585 60.8047 12.8738 61.1458 12.2509 61.2149C11.628 61.284 10.923 61.0962 10.1359 60.6515C9.34879 60.2067 8.82163 59.7126 8.55443 59.1692C8.28928 58.6222 8.34117 58.0222 8.7101 57.3693ZM9.8534 58.001C9.75297 58.1787 9.79163 58.3729 9.96938 58.5834C10.1471 58.7939 10.4645 59.0282 10.9216 59.2865C11.3786 59.5448 11.7449 59.6967 12.0206 59.7424C12.2963 59.7881 12.4843 59.7221 12.5847 59.5444C12.6852 59.3666 12.6465 59.1725 12.4688 58.962C12.2894 58.7458 11.9694 58.5076 11.5088 58.2473C11.0517 57.989 10.6862 57.8399 10.4121 57.7999C10.1401 57.7562 9.95384 57.8233 9.8534 58.001ZM12.0157 51.7862L17.4769 60.6937L16.739 61.9995L11.2778 53.092L12.0157 51.7862ZM15.0358 53.5933C15.3884 52.9694 15.8735 52.619 16.4912 52.5422C17.1089 52.4653 17.8113 52.6492 18.5984 53.094C19.3819 53.5367 19.9088 54.0355 20.1792 54.5902C20.4495 55.145 20.3982 55.7524 20.0252 56.4126C19.6788 57.0256 19.1941 57.3667 18.5712 57.4358C17.9483 57.505 17.2451 57.3182 16.4617 56.8755C15.6745 56.4307 15.1474 55.9366 14.8802 55.3932C14.615 54.8462 14.6669 54.2462 15.0358 53.5933ZM16.1791 54.225C16.0787 54.4027 16.1174 54.5968 16.2951 54.8074C16.4729 55.0179 16.7903 55.2522 17.2473 55.5105C17.7043 55.7687 18.0707 55.9207 18.3463 55.9664C18.622 56.0121 18.8101 55.9461 18.9105 55.7684C19.0109 55.5906 18.9723 55.3965 18.7945 55.186C18.6152 54.9698 18.2952 54.7316 17.8345 54.4713C17.3775 54.213 17.0119 54.0639 16.7378 54.0239C16.4658 53.9802 16.2796 54.0473 16.1791 54.225Z" fill="white"/>
<path d="M11.3139 62.3147C11.9559 62.6775 12.5003 63.0521 12.9471 63.4386C13.396 63.8214 13.7338 64.2229 13.9606 64.6429C14.1895 65.0594 14.296 65.4976 14.2801 65.9576C14.2642 66.4176 14.1128 66.9015 13.8259 67.4094C13.4651 68.0478 13.0076 68.4807 12.4531 68.7082C11.8951 68.9336 11.256 68.972 10.5359 68.8236C9.81224 68.6731 9.02419 68.357 8.17178 67.8753C7.31212 67.3895 6.62781 66.8856 6.11886 66.3635C5.60834 65.8358 5.30462 65.2766 5.20773 64.6858C5.11084 64.0951 5.25403 63.4606 5.63731 62.7823C5.996 62.1475 6.45438 61.7174 7.01244 61.492C7.56893 61.2609 8.21004 61.2188 8.93578 61.3657C9.65789 61.5106 10.4506 61.8269 11.3139 62.3147ZM9.11564 66.2049C9.7214 66.5472 10.2459 66.8005 10.689 66.9648C11.1306 67.1234 11.498 67.1803 11.7913 67.1354C12.0846 67.0906 12.3112 66.9268 12.4711 66.6438C12.6289 66.3645 12.6532 66.0887 12.5439 65.8164C12.433 65.5384 12.1957 65.2512 11.832 64.9547C11.4647 64.6562 10.9763 64.3348 10.367 63.9905C9.7612 63.6482 9.23572 63.3967 8.79052 63.2361C8.34532 63.0755 7.97504 63.0194 7.67968 63.0678C7.38274 63.1106 7.15536 63.2716 6.99754 63.5509C6.83767 63.8338 6.81602 64.1135 6.93259 64.3899C7.04553 64.6643 7.28566 64.9508 7.65297 65.2492C8.02233 65.5441 8.50989 65.8627 9.11564 66.2049Z" fill="white"/>
<path d="M5.36185 67.716C5.72821 67.923 6.00255 68.1785 6.18488 68.4825C6.36722 68.7865 6.46984 69.1173 6.49275 69.4748C6.5177 69.8287 6.47887 70.1896 6.37625 70.5575L6.4089 70.5759C6.84944 69.9826 7.31894 69.6091 7.8174 69.4552C8.31791 69.2978 8.82933 69.3667 9.35166 69.6618C9.81595 69.9242 10.1667 70.2731 10.4039 70.7086C10.6432 71.1405 10.7348 71.6517 10.6787 72.2421C10.6227 72.8326 10.3846 73.4996 9.96437 74.2432C9.71637 74.6821 9.44848 75.0714 9.16073 75.4113C8.87865 75.7496 8.57078 76.0446 8.23712 76.2963L6.80616 75.4878C7.17293 75.2452 7.50722 74.9627 7.80901 74.6403C8.10718 74.3159 8.34747 73.9923 8.52989 73.6695C8.87013 73.0673 9.00452 72.5882 8.93304 72.2319C8.85998 71.87 8.63483 71.5825 8.2576 71.3693C8.03633 71.2443 7.81776 71.195 7.60188 71.2213C7.38599 71.2477 7.15924 71.378 6.92161 71.6122C6.68604 71.8428 6.42785 72.2065 6.14705 72.7035L5.80579 73.3074L4.51629 72.5787L4.86371 71.9639C5.14041 71.4742 5.30516 71.0768 5.35795 70.7717C5.40916 70.4608 5.38059 70.215 5.27223 70.0341C5.1623 69.8476 5.00395 69.6959 4.7972 69.5791C4.51427 69.4192 4.24381 69.3812 3.98583 69.4652C3.72785 69.5491 3.48408 69.7942 3.25452 70.2004C3.11104 70.4543 3.01251 70.7049 2.95892 70.9522C2.90376 71.1938 2.87437 71.4236 2.87077 71.6417C2.86354 71.8578 2.86577 72.0529 2.87746 72.227L1.2789 72.3501C1.23028 71.9111 1.24946 71.441 1.33645 70.9399C1.42549 70.4351 1.63398 69.8925 1.96193 69.3121C2.42515 68.4923 2.95707 67.9363 3.55771 67.644C4.15834 67.3518 4.75972 67.3757 5.36185 67.716Z" fill="white"/>
<defs>
<linearGradient id="paint0_linear_615_242" x1="211" y1="75" x2="175.5" y2="107.5" gradientUnits="userSpaceOnUse">
<stop stop-color="#636261"/>
<stop offset="1" stop-color="#C9C7C5" stop-opacity="0"/>
</linearGradient>
<linearGradient id="paint1_linear_615_242" x1="189.5" y1="37.5" x2="158" y2="79.5" gradientUnits="userSpaceOnUse">
<stop stop-color="#989898"/>
<stop offset="0.5" stop-color="#BFBFBF"/>
<stop offset="1" stop-color="#2A2929"/>
</linearGradient>
<linearGradient id="paint2_linear_615_242" x1="86.0007" y1="14" x2="101.501" y2="69" gradientUnits="userSpaceOnUse">
<stop offset="0.226053" stop-color="#20B553"/>
<stop offset="1" stop-color="#0E4F24"/>
</linearGradient>
<linearGradient id="paint3_linear_615_242" x1="38.5004" y1="34.9999" x2="77.5004" y2="87.4999" gradientUnits="userSpaceOnUse">
<stop offset="0.262724" stop-color="#E3D100"/>
<stop offset="1" stop-color="#7D7300"/>
</linearGradient>
</defs>
</svg>
