<svg width="244" height="127" viewBox="0 0 244 127" fill="none" xmlns="http://www.w3.org/2000/svg">
<path d="M177.5 96.9999L198.941 84.7651L216.624 74.6751C218.687 73.4975 219.388 70.8507 218.086 68.8633C209.315 55.4761 197.028 43.2745 183.483 34.628C181.562 33.4015 179.032 34.0211 177.808 35.9443L176.5 37.9999L167.5 53.4999L155.5 74.9999C164.145 80.1304 171.809 87.4557 177 95.9999L177.5 96.9999Z" fill="url(#paint0_linear_615_1205)"/>
<path d="M94.0007 74.9999C102.558 70.2887 115.55 67.0976 126.001 66.9315C126.001 66.9315 126.001 52.0202 126.001 42.4657C126.001 36.1187 126.001 27.4077 126.001 22.2744C126.001 19.9172 124.079 18.0091 121.725 18.1219C104.984 18.9241 87.2129 23.5108 73.0568 30.5952C70.9349 31.6571 70.2233 34.2959 71.4202 36.3447L81.621 53.8074L94.0007 74.9999Z" fill="url(#paint1_linear_615_1205)"/>
<path d="M126 66.9999C136.45 67.166 146.943 70.2887 155.5 74.9999L168 53.4999L177.936 35.6984C179.076 33.6549 178.35 31.0666 176.267 29.9999C162.453 22.9255 146.7 18.4178 130.278 17.6223C127.923 17.5082 126 19.4218 126 21.779V41.9999V66.9999Z" fill="url(#paint2_linear_615_1205)"/>
<path d="M71.7202 96.4257C76.9114 87.8815 86.2347 79.821 94.88 74.6905L82.5004 53.5L72.26 35.9712C71.0785 33.9488 68.4787 33.2601 66.4986 34.5114C52.7888 43.1757 39.2762 55.4699 30.3167 68.8457C28.9942 70.82 29.6961 73.4675 31.76 74.6453L49.4416 84.7348L71.0004 97.5L71.7202 96.4257Z" fill="url(#paint3_linear_615_1205)"/>
<path d="M62.5107 126C62.6788 115.672 66.7333 104.957 71.5002 96.4998L49.0002 83.9998L31.1894 73.6447C29.1555 72.4622 26.5403 73.1563 25.4598 75.2462C18.3389 89.0195 13.9117 105.387 13.123 121.722C13.0093 124.077 14.9227 126 17.2802 126H37.7555H62.5107Z" fill="url(#paint4_linear_615_1205)"/>
<path d="M177.5 96.9999C182.267 105.457 185.57 116.295 185.738 126.624H230.968C233.326 126.624 235.24 124.7 235.121 122.346C234.302 106.043 229.688 89.9388 222.527 76.2058C221.447 74.1343 218.858 73.4331 216.826 74.5872L198.5 84.9999L177.5 96.9999Z" fill="url(#paint5_linear_615_1205)"/>
<path d="M34.3774 96.9474C34.5295 96.4059 34.7864 96.0369 35.148 95.8404C35.5075 95.6402 35.9983 95.6262 36.6204 95.7986L39.8241 96.686L39.576 97.5694L36.4834 96.7127C36.0984 96.606 35.7871 96.6059 35.5497 96.7124C35.3131 96.8159 35.1508 97.0245 35.0627 97.3382C34.938 97.7821 34.9826 98.1405 35.1965 98.4134C35.4083 98.6826 35.7734 98.889 36.2918 99.0326L38.9578 99.7711L38.7085 100.659L35.6159 99.8022C35.3582 99.7308 35.1349 99.7073 34.9461 99.7315C34.7544 99.755 34.596 99.8243 34.4711 99.9396C34.3461 100.055 34.2537 100.219 34.1939 100.432C34.1083 100.737 34.1064 101 34.1882 101.22C34.2678 101.437 34.4248 101.622 34.6593 101.776C34.8946 101.928 35.1988 102.055 35.5721 102.158L38.0915 102.856L37.8409 103.748L32.9443 102.392L33.1425 101.686L33.8541 101.745L33.8678 101.696C33.7264 101.551 33.6201 101.39 33.5491 101.21C33.4789 101.028 33.4415 100.838 33.4367 100.639C33.429 100.439 33.4538 100.237 33.5111 100.033C33.6142 99.6656 33.7677 99.3748 33.9716 99.1602C34.1755 98.9455 34.4304 98.8168 34.7361 98.7739L34.7523 98.7162C34.5209 98.483 34.3786 98.2108 34.3256 97.8995C34.2704 97.5844 34.2877 97.267 34.3774 96.9474Z" fill="white"/>
<path d="M32.5174 103.915L37.4139 105.271L37.1634 106.163L32.2668 104.807L32.5174 103.915ZM30.5411 103.841C30.581 103.699 30.6565 103.589 30.7677 103.511C30.8797 103.431 31.0291 103.416 31.2157 103.468C31.4023 103.52 31.524 103.609 31.5808 103.736C31.6355 103.86 31.6429 103.993 31.603 104.135C31.5623 104.28 31.4864 104.391 31.3752 104.469C31.2618 104.543 31.1119 104.554 30.9252 104.502C30.7386 104.45 30.6176 104.364 30.562 104.244C30.5073 104.12 30.5004 103.986 30.5411 103.841Z" fill="white"/>
<path d="M33.4852 106.556C34.2169 106.758 34.7908 107.062 35.2069 107.468C35.62 107.873 35.8791 108.365 35.9842 108.946C36.0871 109.523 36.0364 110.176 35.832 110.904L35.3321 112.684L28.8359 110.885L29.3919 108.905C29.578 108.242 29.8603 107.703 30.2386 107.288C30.614 106.872 31.0757 106.598 31.6236 106.466C32.1685 106.333 32.7891 106.363 33.4852 106.556ZM33.2439 107.517C32.687 107.363 32.2025 107.326 31.7904 107.407C31.3783 107.487 31.0358 107.678 30.763 107.978C30.4872 108.278 30.2783 108.681 30.1362 109.187L29.8557 110.186L34.8145 111.56L35.0501 110.721C35.2853 109.883 35.2511 109.198 34.9476 108.664C34.6442 108.13 34.0763 107.748 33.2439 107.517Z" fill="white"/>
<path d="M109.16 52.2065C109.586 52.0841 109.977 52.0705 110.335 52.1659C110.692 52.2583 111 52.4463 111.258 52.73C111.517 53.0137 111.712 53.3798 111.843 53.8283L111.99 54.3329L108.676 55.2871C108.838 55.8068 109.089 56.1694 109.431 56.3749C109.772 56.5774 110.177 56.6111 110.647 56.4758C110.957 56.3865 111.224 56.2775 111.449 56.1488C111.674 56.02 111.9 55.8607 112.126 55.6708L112.345 56.4188C112.132 56.6015 111.909 56.7537 111.676 56.8753C111.446 56.9989 111.16 57.1101 110.817 57.2088C110.345 57.3448 109.902 57.3699 109.49 57.2839C109.08 57.1971 108.722 56.9978 108.417 56.686C108.11 56.3711 107.878 55.9423 107.72 55.3993C107.563 54.8623 107.519 54.3775 107.588 53.945C107.656 53.5096 107.825 53.1428 108.093 52.8449C108.362 52.5469 108.717 52.3341 109.16 52.2065ZM109.358 52.8983C108.997 53.002 108.742 53.2034 108.592 53.5024C108.442 53.7984 108.411 54.1703 108.5 54.6181L110.902 53.9267C110.82 53.659 110.709 53.4353 110.566 53.2555C110.424 53.0757 110.252 52.9525 110.05 52.8859C109.851 52.8185 109.62 52.8226 109.358 52.8983Z" fill="white"/>
<path d="M106.801 57.5831C106.928 57.5465 107.053 57.4992 107.177 57.4411C107.3 57.3801 107.404 57.3183 107.488 57.2557L107.687 57.9373C107.599 58.0105 107.476 58.086 107.316 58.164C107.16 58.2441 106.995 58.3092 106.821 58.3594C106.555 58.4359 106.301 58.4595 106.058 58.4301C105.816 58.4007 105.598 58.2941 105.403 58.1102C105.212 57.9255 105.058 57.6369 104.944 57.2444L104.14 54.4914L103.463 54.6866L103.342 54.275L103.956 53.7433L103.963 52.5994L104.512 52.4412L104.835 53.5477L106.249 53.1408L106.449 53.8268L105.036 54.2338L105.835 56.9735C105.915 57.2479 106.04 57.4343 106.21 57.5326C106.382 57.63 106.579 57.6469 106.801 57.5831Z" fill="white"/>
<path d="M100.549 54.6908C101.151 54.5173 101.641 54.5219 102.018 54.7045C102.394 54.8841 102.666 55.2617 102.833 55.8371L103.796 59.1345L103.158 59.3181L102.778 58.6597L102.743 58.6699C102.659 58.8861 102.56 59.0744 102.447 59.235C102.333 59.3955 102.188 59.5334 102.01 59.6485C101.835 59.7628 101.609 59.8599 101.332 59.9399C101.036 60.0249 100.758 60.0475 100.496 60.0076C100.235 59.9677 100.007 59.8607 99.8119 59.6865C99.6191 59.5085 99.4744 59.2543 99.378 58.9238C99.2333 58.4281 99.314 57.997 99.6201 57.6306C99.9263 57.2642 100.463 56.9578 101.23 56.7114L102.061 56.4336L101.981 56.1592C101.87 55.7785 101.706 55.5347 101.489 55.4276C101.275 55.3197 101.016 55.3095 100.712 55.3971C100.461 55.4694 100.231 55.5756 100.022 55.7157C99.8122 55.8529 99.6156 56.0022 99.4322 56.1638L98.9601 55.5992C99.156 55.4148 99.3886 55.2407 99.6577 55.0769C99.9299 54.9122 100.227 54.7835 100.549 54.6908ZM102.223 57.0204L101.55 57.2478C100.992 57.4309 100.622 57.6397 100.441 57.8742C100.261 58.1049 100.215 58.3693 100.302 58.6673C100.378 58.927 100.512 59.0948 100.704 59.1707C100.895 59.2466 101.12 59.2475 101.377 59.1735C101.773 59.0596 102.065 58.8554 102.255 58.561C102.446 58.2627 102.478 57.8953 102.351 57.4586L102.223 57.0204Z" fill="white"/>
<path d="M114.33 36.1496C114.418 36.1241 114.516 36.1024 114.623 36.0844C114.729 36.0635 114.821 36.0498 114.899 36.0433L115.048 36.8977C114.972 36.9004 114.885 36.9095 114.787 36.9249C114.692 36.9395 114.604 36.9582 114.524 36.9812C114.335 37.0356 114.165 37.1229 114.015 37.243C113.864 37.3632 113.744 37.5098 113.653 37.683C113.562 37.8532 113.508 38.0463 113.491 38.2623C113.473 38.4753 113.5 38.7058 113.573 38.9536L114.326 41.534L113.431 41.7917L112.007 36.9142L112.725 36.7076L113.088 37.5577L113.128 37.5462C113.177 37.3403 113.251 37.1431 113.35 36.9548C113.451 36.7656 113.583 36.6014 113.744 36.4623C113.907 36.3193 114.102 36.2151 114.33 36.1496Z" fill="white"/>
<path d="M108.73 37.7619C109.155 37.6395 109.547 37.6259 109.904 37.7213C110.261 37.8137 110.569 38.0017 110.828 38.2855C111.087 38.5692 111.282 38.9353 111.412 39.3838L111.56 39.8883L108.246 40.8425C108.407 41.3622 108.658 41.7248 109 41.9303C109.341 42.1328 109.746 42.1665 110.216 42.0313C110.526 41.942 110.794 41.833 111.019 41.7042C111.244 41.5755 111.469 41.4161 111.696 41.2262L111.914 41.9742C111.701 42.1569 111.479 42.3091 111.245 42.4307C111.015 42.5544 110.729 42.6655 110.387 42.7642C109.914 42.9002 109.471 42.9253 109.059 42.8394C108.649 42.7526 108.292 42.5532 107.986 42.2414C107.68 41.9266 107.447 41.4977 107.289 40.9548C107.132 40.4177 107.088 39.933 107.157 39.5005C107.226 39.065 107.394 38.6983 107.663 38.4003C107.931 38.1023 108.287 37.8895 108.73 37.7619ZM108.927 38.4537C108.567 38.5574 108.311 38.7588 108.162 39.0578C108.011 39.3538 107.98 39.7257 108.07 40.1735L110.471 39.4821C110.39 39.2144 110.278 38.9907 110.136 38.8109C109.994 38.6311 109.822 38.5079 109.62 38.4413C109.421 38.3739 109.19 38.378 108.927 38.4537Z" fill="white"/>
<path d="M104.378 44.4941C103.782 44.6659 103.243 44.5922 102.763 44.2732C102.285 43.9533 101.925 43.3788 101.683 42.5496C101.439 41.7116 101.434 41.0268 101.67 40.4952C101.907 39.9598 102.326 39.6058 102.925 39.4332C103.177 39.3609 103.406 39.3315 103.615 39.3449C103.824 39.3584 104.013 39.4016 104.182 39.4746C104.353 39.5467 104.505 39.6405 104.638 39.7557L104.691 39.7404C104.65 39.6532 104.598 39.5291 104.535 39.3681C104.472 39.2071 104.422 39.0647 104.386 38.9407L103.845 37.0862L104.735 36.8298L106.745 43.7168L106.041 43.9196L105.697 43.2845L105.657 43.296C105.61 43.4631 105.534 43.6257 105.429 43.7837C105.327 43.9379 105.19 44.0765 105.018 44.1997C104.849 44.322 104.635 44.4201 104.378 44.4941ZM104.375 43.7083C104.856 43.5697 105.156 43.3332 105.272 42.9988C105.392 42.6636 105.374 42.2227 105.218 41.676L105.178 41.5387C105.008 40.9575 104.782 40.5395 104.5 40.285C104.219 40.0266 103.825 39.9706 103.317 40.1169C102.904 40.2359 102.639 40.4879 102.524 40.8729C102.408 41.2549 102.434 41.7321 102.601 42.3045C102.766 42.8711 102.999 43.2776 103.298 43.5241C103.596 43.7676 103.955 43.829 104.375 43.7083Z" fill="white"/>
<path d="M100.714 42.7998C100.831 43.2011 100.883 43.5749 100.868 43.9213C100.856 44.2638 100.782 44.5731 100.644 44.8493C100.509 45.1217 100.318 45.3558 100.071 45.5517C99.8235 45.7446 99.5223 45.8921 99.1679 45.9941C98.837 46.0894 98.5164 46.1209 98.2061 46.0887C97.8978 46.0527 97.6118 45.9559 97.348 45.7984C97.0835 45.6378 96.8509 45.4169 96.6503 45.1356C96.4489 44.8514 96.2896 44.5086 96.1725 44.1073C96.0166 43.5732 95.9756 43.0924 96.0493 42.665C96.1223 42.2346 96.3001 41.8731 96.583 41.5805C96.8679 41.2842 97.2467 41.068 97.7193 40.9319C98.1683 40.8027 98.5915 40.788 98.9889 40.8879C99.3862 40.9878 99.7341 41.1979 100.033 41.5182C100.331 41.8385 100.558 42.2657 100.714 42.7998ZM97.0852 43.8445C97.1946 44.2193 97.3361 44.5287 97.5099 44.773C97.6857 45.0134 97.8937 45.1775 98.1338 45.2651C98.3769 45.3518 98.6564 45.3497 98.9725 45.2587C99.2826 45.1694 99.517 45.0236 99.6757 44.8212C99.8343 44.6188 99.9218 44.3697 99.9379 44.074C99.9532 43.7753 99.9062 43.4386 99.7968 43.0638C99.6883 42.6921 99.548 42.387 99.376 42.1486C99.204 41.9103 98.9969 41.7492 98.7547 41.6654C98.5154 41.5808 98.2363 41.5843 97.9173 41.6762C97.4506 41.8106 97.1536 42.0656 97.0263 42.4413C96.9011 42.8132 96.9207 43.2809 97.0852 43.8445Z" fill="white"/>
<path d="M91.8359 48.0089L88.1918 43.027L88.1563 43.0372C88.2005 43.1557 88.255 43.3095 88.3198 43.4988C88.3868 43.6842 88.4559 43.8882 88.5272 44.1107C88.6007 44.3295 88.6688 44.5466 88.7317 44.762L89.8465 48.5816L89.0135 48.8215L87.125 42.3506L88.4321 41.9743L91.889 46.6934L91.92 46.6844L92.3488 40.8467L93.647 40.4729L95.5355 46.9438L94.6582 47.1964L93.528 43.3236C93.4711 43.1288 93.4151 42.9258 93.3599 42.7146C93.3038 42.5005 93.2526 42.2977 93.2063 42.1063C93.1622 41.9111 93.1265 41.7503 93.0991 41.6238L93.0593 41.6353L92.6112 47.7857L91.8359 48.0089Z" fill="white"/>
<path d="M160.17 45.9656C160.3 45.993 160.433 46.0102 160.569 46.0172C160.707 46.0212 160.828 46.0153 160.932 45.9997L160.782 46.6937C160.67 46.7171 160.525 46.7257 160.347 46.7194C160.171 46.7168 159.995 46.6967 159.818 46.6591C159.547 46.6018 159.312 46.5033 159.113 46.3637C158.913 46.224 158.772 46.0275 158.688 45.7742C158.607 45.5215 158.61 45.1953 158.697 44.7957L159.302 41.9926L158.612 41.8464L158.703 41.4273L159.497 41.2467L160.049 40.2419L160.608 40.3604L160.365 41.4871L161.803 41.7919L161.653 42.4904L160.214 42.1856L159.611 44.9752C159.55 45.2546 159.571 45.4774 159.674 45.6437C159.779 45.8105 159.945 45.9178 160.17 45.9656Z" fill="white"/>
<path d="M154.948 38.2001L154.531 40.1289C154.498 40.2822 154.461 40.4314 154.42 40.5767C154.379 40.722 154.342 40.843 154.308 40.9396L154.363 40.9511C154.505 40.7991 154.666 40.6823 154.844 40.6006C155.026 40.5165 155.22 40.4667 155.428 40.451C155.64 40.4329 155.855 40.4472 156.075 40.4937C156.463 40.5758 156.777 40.7083 157.017 40.8912C157.257 41.0741 157.418 41.3139 157.498 41.6106C157.58 41.9043 157.574 42.2629 157.483 42.6865L156.783 45.9223L155.886 45.7322L156.559 42.6181C156.645 42.2215 156.622 41.9056 156.49 41.6704C156.359 41.4321 156.113 41.2748 155.753 41.1983C155.41 41.1257 155.121 41.1369 154.887 41.2318C154.653 41.3236 154.464 41.4926 154.32 41.7385C154.175 41.9844 154.062 42.2996 153.979 42.6842L153.432 45.2124L152.525 45.0204L154.041 38.0081L154.948 38.2001Z" fill="white"/>
<path d="M148.383 46.4616C147.719 46.3209 147.234 46.0909 146.929 45.7718C146.627 45.4532 146.522 45.0762 146.617 44.6405C146.684 44.3311 146.838 44.0889 147.08 43.914C147.322 43.742 147.627 43.6558 147.995 43.6552C147.875 43.5671 147.781 43.4513 147.711 43.3077C147.645 43.1618 147.629 43.0107 147.663 42.8545C147.703 42.6712 147.788 42.5243 147.919 42.4137C148.053 42.3008 148.238 42.2033 148.473 42.121C148.234 41.9575 148.062 41.7341 147.957 41.451C147.852 41.1649 147.836 40.8535 147.909 40.517C147.986 40.1595 148.127 39.8705 148.332 39.65C148.54 39.4301 148.801 39.2843 149.115 39.2126C149.429 39.1409 149.791 39.1484 150.2 39.235C150.29 39.2541 150.383 39.2784 150.477 39.3078C150.572 39.3342 150.661 39.3641 150.745 39.3976C150.829 39.4311 150.896 39.4611 150.947 39.4876L152.661 39.8506L152.545 40.3869L151.632 40.3349C151.695 40.4675 151.736 40.6177 151.757 40.7854C151.777 40.9531 151.767 41.1301 151.727 41.3163C151.618 41.8211 151.358 42.184 150.949 42.4052C150.543 42.624 150.036 42.6691 149.429 42.5404C149.288 42.5075 149.148 42.4652 149.008 42.4136C148.863 42.4613 148.747 42.5233 148.662 42.5994C148.577 42.6725 148.522 42.7661 148.497 42.8803C148.478 42.9674 148.492 43.0441 148.537 43.1103C148.585 43.1771 148.662 43.2358 148.768 43.2864C148.874 43.334 149.007 43.3747 149.166 43.4085L150.032 43.5919C150.573 43.7065 150.964 43.9086 151.203 44.1981C151.442 44.4876 151.515 44.8516 151.42 45.2903C151.3 45.8461 150.979 46.2258 150.456 46.4295C149.934 46.6331 149.243 46.6438 148.383 46.4616ZM148.558 45.8059C148.946 45.888 149.278 45.9174 149.553 45.8941C149.832 45.8714 150.053 45.802 150.216 45.6858C150.38 45.5696 150.483 45.4123 150.526 45.2141C150.565 45.0338 150.551 44.8863 150.485 44.7717C150.421 44.6608 150.308 44.5709 150.147 44.5022C149.985 44.4335 149.781 44.373 149.535 44.3208L148.714 44.1469C148.503 44.1023 148.313 44.0965 148.142 44.1295C147.972 44.1624 147.829 44.2313 147.715 44.336C147.601 44.4437 147.524 44.5892 147.484 44.7725C147.43 45.0218 147.496 45.2352 147.681 45.4127C147.869 45.5907 148.161 45.7218 148.558 45.8059ZM149.603 41.9316C149.937 42.0023 150.205 41.9681 150.408 41.8289C150.612 41.6866 150.749 41.4518 150.82 41.1243C150.896 40.7728 150.869 40.4905 150.739 40.2776C150.609 40.0647 150.378 39.9232 150.048 39.8531C149.726 39.785 149.459 39.8244 149.248 39.9713C149.041 40.1159 148.9 40.3625 148.824 40.711C148.755 41.0325 148.787 41.3 148.92 41.5136C149.054 41.7241 149.281 41.8635 149.603 41.9316Z" fill="white"/>
<path d="M146.982 38.6523L145.908 43.6186L145.002 43.4266L146.075 38.4603L146.982 38.6523ZM146.941 36.6785C147.086 36.709 147.2 36.7772 147.284 36.883C147.371 36.9894 147.394 37.1373 147.353 37.3265C147.312 37.5158 147.23 37.6429 147.106 37.7077C146.985 37.7702 146.853 37.7861 146.708 37.7555C146.561 37.7243 146.445 37.6558 146.361 37.5501C146.281 37.4419 146.261 37.2932 146.302 37.1039C146.343 36.9146 146.422 36.7884 146.54 36.7253C146.66 36.6629 146.794 36.6472 146.941 36.6785Z" fill="white"/>
<path d="M144.605 38.055C144.696 38.0741 144.792 38.1008 144.895 38.1351C144.998 38.1664 145.086 38.1975 145.158 38.2285L144.881 39.0511C144.812 39.0178 144.732 38.985 144.638 38.9526C144.547 38.9208 144.461 38.8963 144.38 38.8791C144.188 38.8384 143.996 38.8356 143.806 38.8707C143.617 38.9059 143.44 38.9786 143.278 39.0887C143.117 39.1959 142.977 39.3407 142.859 39.5231C142.742 39.7024 142.656 39.9183 142.601 40.1707L142.033 42.798L141.122 42.605L142.195 37.6387L142.926 37.7935L142.841 38.7132L142.881 38.7218C143.022 38.5632 143.181 38.4241 143.358 38.3045C143.538 38.1855 143.732 38.1024 143.94 38.0554C144.152 38.0061 144.374 38.0059 144.605 38.055Z" fill="white"/>
<path d="M136.633 34.7637L138.545 35.1688C139.384 35.3465 139.989 35.6034 140.36 35.9396C140.731 36.2758 140.851 36.7428 140.722 37.3407C140.667 37.5961 140.571 37.8145 140.434 37.9961C140.298 38.1776 140.126 38.3157 139.92 38.4103C139.714 38.5049 139.477 38.5489 139.208 38.5422L139.198 38.5872C139.459 38.6896 139.682 38.8217 139.867 38.9835C140.052 39.1452 140.182 39.347 140.255 39.5888C140.332 39.8282 140.335 40.1162 140.262 40.4527C140.175 40.8553 140.006 41.1777 139.756 41.42C139.506 41.6593 139.191 41.8156 138.81 41.8889C138.433 41.9599 138.005 41.9447 137.527 41.8434L135.209 41.3524L136.633 34.7637ZM136.958 37.7311L138.109 37.9747C138.641 38.0875 139.028 38.0784 139.27 37.9474C139.512 37.8165 139.67 37.5843 139.742 37.2508C139.816 36.9053 139.748 36.6316 139.537 36.4298C139.326 36.225 138.957 36.0665 138.427 35.9544L137.39 35.7347L136.958 37.7311ZM136.794 38.4927L136.302 40.7686L137.56 41.0351C138.105 41.1504 138.511 41.125 138.78 40.9588C139.051 40.7933 139.226 40.5302 139.304 40.1697C139.353 39.9414 139.345 39.7352 139.277 39.5514C139.214 39.3651 139.079 39.2045 138.872 39.0696C138.665 38.9347 138.371 38.8268 137.989 38.7459L136.794 38.4927Z" fill="white"/>
<path d="M190.579 79.3924C190.67 79.4877 190.771 79.5767 190.88 79.6594C190.992 79.74 191.095 79.803 191.19 79.8486L190.675 80.3371C190.569 80.2935 190.444 80.2191 190.3 80.1139C190.156 80.0131 190.022 79.8973 189.896 79.7665C189.704 79.567 189.565 79.3536 189.479 79.1263C189.393 78.899 189.386 78.6572 189.46 78.4011C189.536 78.1472 189.722 77.8796 190.018 77.5983L192.1 75.6252L191.611 75.1166L191.922 74.8215L192.681 75.1187L193.704 74.5997L194.1 75.0119L193.264 75.805L194.283 76.8654L193.764 77.3571L192.745 76.2967L190.674 78.2603C190.466 78.457 190.358 78.6527 190.349 78.8475C190.343 79.0445 190.419 79.2261 190.579 79.3924Z" fill="white"/>
<path d="M190.632 70.0466L189.2 71.4043C189.087 71.5122 188.972 71.6146 188.856 71.7116C188.741 71.8086 188.642 71.8875 188.559 71.9484L188.598 71.9883C188.802 71.9432 189 71.937 189.194 71.9697C189.392 72.0024 189.581 72.0708 189.762 72.1746C189.947 72.2786 190.117 72.4115 190.273 72.5732C190.547 72.8591 190.733 73.1451 190.829 73.4312C190.925 73.7172 190.922 74.0053 190.822 74.2955C190.723 74.5836 190.517 74.8767 190.202 75.1749L187.8 77.4526L187.164 76.7911L189.476 74.599C189.771 74.3198 189.93 74.0462 189.953 73.7781C189.979 73.5079 189.865 73.2398 189.609 72.9738C189.366 72.7212 189.121 72.5682 188.874 72.5147C188.628 72.4592 188.377 72.4924 188.119 72.6142C187.861 72.736 187.589 72.9323 187.303 73.203L185.426 74.9827L184.784 74.3145L189.99 69.3784L190.632 70.0466Z" fill="white"/>
<path d="M180.543 73.176C180.072 72.6862 179.801 72.2238 179.728 71.7888C179.657 71.356 179.784 70.9863 180.107 70.6796C180.337 70.4618 180.601 70.3488 180.9 70.3405C181.197 70.3344 181.498 70.4346 181.803 70.641C181.754 70.5012 181.741 70.3525 181.764 70.1949C181.792 70.0373 181.864 69.9036 181.98 69.7936C182.116 69.6646 182.269 69.5913 182.44 69.5736C182.614 69.556 182.822 69.5792 183.063 69.6433C182.958 69.3743 182.942 69.0934 183.014 68.8004C183.088 68.5053 183.25 68.2393 183.5 68.0024C183.766 67.7508 184.045 67.5915 184.339 67.5247C184.635 67.4601 184.933 67.4865 185.234 67.604C185.534 67.7214 185.83 67.9309 186.119 68.2323C186.183 68.2988 186.246 68.3706 186.307 68.4479C186.371 68.523 186.428 68.598 186.479 68.6729C186.529 68.7477 186.568 68.8104 186.595 68.8608L187.81 70.1241L187.411 70.5016L186.685 69.9452C186.662 70.0898 186.611 70.2371 186.534 70.3869C186.456 70.5368 186.348 70.6773 186.21 70.8084C185.835 71.1637 185.416 71.3175 184.952 71.2699C184.493 71.2224 184.049 70.9749 183.618 70.5272C183.52 70.4209 183.428 70.3072 183.342 70.186C183.194 70.1436 183.064 70.1297 182.95 70.1444C182.838 70.157 182.74 70.2035 182.655 70.2838C182.591 70.3452 182.559 70.4159 182.559 70.4961C182.561 70.5785 182.592 70.6702 182.651 70.7712C182.712 70.8701 182.799 70.9783 182.911 71.0958L183.525 71.734C183.908 72.1329 184.117 72.5191 184.152 72.8926C184.187 73.2661 184.042 73.6072 183.716 73.916C183.304 74.3072 182.824 74.4402 182.277 74.3148C181.73 74.1894 181.152 73.8098 180.543 73.176ZM181.057 72.733C181.332 73.0188 181.59 73.2296 181.831 73.3652C182.075 73.503 182.297 73.5699 182.497 73.5659C182.698 73.5619 182.872 73.4901 183.019 73.3505C183.153 73.2236 183.225 73.0942 183.235 72.9623C183.244 72.8347 183.201 72.6972 183.107 72.5498C183.012 72.4024 182.877 72.2379 182.703 72.0562L182.121 71.4512C181.972 71.296 181.818 71.1841 181.658 71.1154C181.498 71.0467 181.341 71.0236 181.188 71.046C181.033 71.0705 180.887 71.1473 180.751 71.2763C180.566 71.4519 180.5 71.6648 180.553 71.9152C180.608 72.1679 180.776 72.4404 181.057 72.733ZM184.105 70.1225C184.342 70.3685 184.583 70.4911 184.83 70.4903C185.079 70.4875 185.325 70.3707 185.568 70.1402C185.829 69.8928 185.965 69.6446 185.978 69.3957C185.99 69.1469 185.879 68.9005 185.645 68.6568C185.417 68.4196 185.174 68.3024 184.917 68.3051C184.664 68.3079 184.408 68.4319 184.149 68.6773C183.91 68.9035 183.786 69.1422 183.776 69.3933C183.768 69.6423 183.878 69.8854 184.105 70.1225Z" fill="white"/>
<path d="M183.784 65.9419L180.097 69.4377L179.455 68.7695L183.142 65.2737L183.784 65.9419ZM184.863 64.2899C184.965 64.3963 185.021 64.5168 185.031 64.6513C185.043 64.7881 184.979 64.9231 184.838 65.0563C184.698 65.1896 184.558 65.2481 184.419 65.2318C184.284 65.2157 184.165 65.1545 184.063 65.0481C183.959 64.9395 183.902 64.8179 183.892 64.6833C183.886 64.5489 183.953 64.415 184.094 64.2818C184.235 64.1486 184.371 64.0889 184.504 64.1028C184.639 64.119 184.758 64.1813 184.863 64.2899Z" fill="white"/>
<path d="M182.154 64.1134C182.218 64.1799 182.283 64.2561 182.349 64.3422C182.416 64.4261 182.471 64.501 182.513 64.567L181.821 65.0904C181.783 65.0245 181.734 64.9519 181.675 64.8725C181.618 64.7954 181.561 64.7269 181.503 64.667C181.367 64.5252 181.21 64.4154 181.033 64.3376C180.856 64.2598 180.669 64.2208 180.473 64.2206C180.279 64.2183 180.082 64.2592 179.881 64.3434C179.683 64.4254 179.49 64.5553 179.303 64.7329L177.352 66.5824L176.707 65.9109L180.394 62.415L180.912 62.9535L180.322 63.6646L180.351 63.6945C180.557 63.643 180.767 63.6175 180.981 63.6182C181.197 63.621 181.405 63.6616 181.603 63.7399C181.807 63.8182 181.99 63.9428 182.154 64.1134Z" fill="white"/>
<path d="M177.41 56.9148L178.765 58.3243C179.359 58.9426 179.715 59.4947 179.832 59.9806C179.95 60.4665 179.787 60.9198 179.343 61.3407C179.153 61.5205 178.951 61.6468 178.735 61.7198C178.52 61.7928 178.3 61.8105 178.076 61.7728C177.852 61.7351 177.631 61.6379 177.412 61.4811L177.379 61.5128C177.537 61.744 177.647 61.9784 177.709 62.216C177.771 62.4536 177.765 62.6929 177.689 62.9338C177.618 63.1748 177.458 63.4138 177.208 63.6506C176.909 63.934 176.588 64.1053 176.244 64.1645C175.902 64.2215 175.553 64.1734 175.197 64.0199C174.845 63.8666 174.499 63.6137 174.161 63.2613L172.518 61.5527L177.41 56.9148ZM176.007 59.5472L176.822 60.3949C177.199 60.7872 177.525 60.9973 177.799 61.0253C178.073 61.0534 178.334 60.95 178.582 60.7153C178.838 60.4721 178.936 60.2078 178.875 59.9226C178.816 59.6352 178.599 59.2965 178.224 58.9065L177.49 58.1419L176.007 59.5472ZM175.442 60.0833L173.752 61.6853L174.644 62.6128C175.029 63.0139 175.38 63.2214 175.696 63.2352C176.014 63.2513 176.307 63.1324 176.575 62.8787C176.744 62.7179 176.853 62.5428 176.901 62.3532C176.953 62.1638 176.932 61.9553 176.837 61.7277C176.742 61.5002 176.559 61.2457 176.289 60.9643L175.442 60.0833Z" fill="white"/>
<path d="M195.827 64.0413L196.52 64.7626L195.143 67.5549C195.072 67.6984 195.001 67.8365 194.928 67.9691C194.859 68.1019 194.788 68.227 194.713 68.3444C194.642 68.4619 194.568 68.5729 194.489 68.6772L194.511 68.7005C194.651 68.6192 194.825 68.5258 195.035 68.4201C195.245 68.3145 195.461 68.2112 195.684 68.1102L198.521 66.8436L199.211 67.5616L193.481 69.97C193.163 70.1057 192.861 70.1907 192.575 70.2252C192.288 70.2641 192.019 70.2416 191.768 70.1577C191.515 70.076 191.277 69.9199 191.056 69.6894C190.954 69.5831 190.87 69.4825 190.804 69.3879C190.739 69.2975 190.686 69.2161 190.647 69.1437L191.182 68.6361C191.218 68.6954 191.264 68.7637 191.321 68.8409C191.38 68.9202 191.446 68.9976 191.519 69.0729C191.653 69.2126 191.796 69.3058 191.947 69.3527C192.099 69.4038 192.259 69.4173 192.427 69.3931C192.598 69.371 192.774 69.3209 192.954 69.2428L193.549 68.9966L195.827 64.0413Z" fill="white"/>
<path d="M195.38 63.4428C195.444 63.5092 195.509 63.5855 195.574 63.6715C195.642 63.7554 195.697 63.8304 195.739 63.8964L195.046 64.4198C195.009 64.3539 194.96 64.2813 194.901 64.2019C194.844 64.1247 194.786 64.0562 194.729 63.9964C194.593 63.8546 194.436 63.7447 194.259 63.667C194.082 63.5892 193.895 63.5502 193.699 63.55C193.505 63.5476 193.307 63.5885 193.107 63.6727C192.909 63.7548 192.716 63.8846 192.528 64.0623L190.578 65.9117L189.932 65.2402L193.62 61.7444L194.137 62.2829L193.548 62.9939L193.577 63.0239C193.783 62.9723 193.993 62.9469 194.207 62.9475C194.423 62.9503 194.63 62.9909 194.829 63.0692C195.032 63.1476 195.216 63.2721 195.38 63.4428Z" fill="white"/>
<path d="M191.341 59.2408C191.648 59.5599 191.842 59.8992 191.923 60.2586C192.006 60.6158 191.981 60.9739 191.849 61.3326C191.716 61.6914 191.48 62.0315 191.141 62.3529L190.76 62.7146L188.37 60.228C187.981 60.609 187.775 60.9975 187.75 61.3934C187.728 61.7872 187.886 62.1603 188.225 62.5127C188.449 62.7454 188.67 62.9314 188.89 63.0709C189.109 63.2103 189.356 63.3363 189.63 63.4488L189.065 63.9849C188.803 63.8814 188.564 63.7545 188.347 63.6043C188.13 63.4584 187.898 63.2569 187.651 62.9999C187.31 62.6453 187.082 62.2662 186.967 61.8627C186.855 61.4614 186.866 61.0544 187.002 60.6415C187.141 60.2266 187.415 59.8245 187.825 59.4354C188.231 59.0505 188.643 58.7892 189.061 58.6516C189.481 58.5118 189.886 58.492 190.276 58.5921C190.667 58.6921 191.022 58.9084 191.341 59.2408ZM190.816 59.7324C190.556 59.462 190.258 59.3294 189.922 59.3346C189.588 59.3377 189.242 59.4813 188.884 59.7655L190.616 61.5672C190.817 61.3726 190.965 61.1712 191.059 60.9633C191.153 60.7553 191.183 60.5469 191.149 60.3381C191.116 60.1315 191.005 59.9296 190.816 59.7324Z" fill="white"/>
<path d="M190.549 56.1544L184.002 59.0703L183.322 58.3623L186.559 52.0024L187.236 52.7072L185.129 56.7695C185.058 56.913 184.978 57.0607 184.89 57.2124C184.803 57.3621 184.715 57.5096 184.624 57.6548C184.534 57.8 184.448 57.9302 184.367 58.0453C184.486 57.9701 184.62 57.8898 184.768 57.8044C184.918 57.7212 185.073 57.6403 185.232 57.5616C185.393 57.4809 185.547 57.4065 185.695 57.3384L189.865 55.443L190.549 56.1544Z" fill="white"/>
<path d="M13.8371 67.2619C14.4907 67.5765 15.0493 67.909 15.5129 68.2595C15.9782 68.6063 16.3357 68.9785 16.5855 69.3762C16.8371 69.7702 16.9699 70.1935 16.984 70.646C16.9982 71.0986 16.8808 71.5833 16.632 72.1003C16.3191 72.7503 15.8979 73.2048 15.3684 73.4639C14.8352 73.7212 14.2104 73.8003 13.494 73.701C12.7739 73.6001 11.98 73.3407 11.1122 72.923C10.237 72.5017 9.5327 72.0513 8.9994 71.5717C8.46419 71.0867 8.12994 70.5574 7.99667 69.9838C7.8634 69.4102 7.96296 68.7781 8.29536 68.0876C8.60643 67.4413 9.02857 66.9895 9.56178 66.7322C10.0931 66.4694 10.7197 66.3867 11.4415 66.484C12.1597 66.5795 12.9582 66.8388 13.8371 67.2619ZM11.9307 71.2224C12.5474 71.5193 13.0786 71.734 13.5242 71.8666C13.9678 71.9938 14.3322 72.0259 14.6172 71.9629C14.9022 71.9 15.114 71.7245 15.2527 71.4364C15.3896 71.1521 15.3955 70.8798 15.2706 70.6195C15.1438 70.3538 14.8924 70.0872 14.5162 69.8198C14.1364 69.5505 13.6363 69.2666 13.0159 68.9679C12.3992 68.6711 11.8671 68.4582 11.4198 68.3293C10.9724 68.2004 10.6053 68.1692 10.3185 68.2359C10.0298 68.297 9.81704 68.4698 9.68018 68.7541C9.54153 69.0422 9.53834 69.3181 9.67063 69.5819C9.79921 69.8439 10.0534 70.1096 10.4332 70.3788C10.8148 70.6444 11.314 70.9256 11.9307 71.2224Z" fill="white"/>
<path d="M10.7121 73.7538C11.3657 74.0684 11.9243 74.401 12.3879 74.7514C12.8532 75.0982 13.2107 75.4705 13.4605 75.8681C13.7121 76.2621 13.8449 76.6854 13.859 77.138C13.8732 77.5905 13.7558 78.0753 13.507 78.5923C13.1941 79.2422 12.7729 79.6967 12.2434 79.9558C11.7102 80.2132 11.0854 80.2922 10.369 80.193C9.64892 80.092 8.85497 79.8326 7.98716 79.4149C7.11195 78.9937 6.4077 78.5432 5.8744 78.0637C5.33919 77.5786 5.00494 77.0493 4.87167 76.4757C4.7384 75.9021 4.83796 75.2701 5.17036 74.5795C5.48143 73.9333 5.90357 73.4815 6.43679 73.2242C6.96809 72.9614 7.59467 72.8786 8.31652 72.9759C9.03468 73.0715 9.83321 73.3307 10.7121 73.7538ZM8.80571 77.7144C9.42241 78.0112 9.95356 78.226 10.3992 78.3586C10.8428 78.4857 11.2072 78.5178 11.4922 78.4549C11.7772 78.3919 11.989 78.2164 12.1277 77.9284C12.2646 77.644 12.2705 77.3717 12.1456 77.1115C12.0188 76.8458 11.7674 76.5792 11.3912 76.3117C11.0114 76.0425 10.5113 75.7585 9.89089 75.4599C9.27419 75.163 8.74215 74.9502 8.29478 74.8212C7.8474 74.6923 7.48032 74.6612 7.19354 74.7278C6.90483 74.789 6.69204 74.9617 6.55518 75.2461C6.41653 75.5341 6.41334 75.8101 6.54563 76.0739C6.67421 76.3359 6.92842 76.6015 7.30825 76.8708C7.68985 77.1363 8.189 77.4175 8.80571 77.7144Z" fill="white"/>
<path d="M10.97 83.5797L10.1461 85.2913L5.45985 83.0356C5.3306 82.9734 5.17269 82.8951 4.98613 82.8008C4.79588 82.7046 4.60283 82.6049 4.40697 82.5015C4.20742 82.3964 4.02818 82.301 3.86925 82.2154C3.8977 82.2791 3.9408 82.4022 3.99853 82.5847C4.05435 82.7616 4.10265 82.9259 4.14342 83.0774L4.44328 84.368L3.0157 84.6974L2.1943 81.0885L2.87154 79.6815L10.97 83.5797Z" fill="white"/>
<path d="M22.0054 55.9059L19.1354 56.1161L19.8763 54.7883L21.7072 54.7179L20.81 53.1151L21.5509 51.7874L22.8705 54.3555L25.8776 54.1162L25.1346 55.4478L23.1616 55.5295L24.126 57.2553L23.385 58.583L22.0054 55.9059Z" fill="white"/>
<path d="M18.7304 56.8415L23.0207 59.2355L22.5197 60.1335L21.8831 59.9846L21.8488 60.046C21.9433 60.2195 21.998 60.401 22.013 60.5905C22.028 60.7801 22.0109 60.9701 21.9616 61.1607C21.9123 61.3513 21.8376 61.5361 21.7377 61.7152C21.5664 62.0222 21.3635 62.2595 21.129 62.4273C20.8919 62.5936 20.6226 62.6764 20.3209 62.6759C20.0207 62.6727 19.6864 62.5684 19.318 62.3628L16.5205 60.8018L17.1736 59.6313L19.6795 61.0296C19.9865 61.201 20.2487 61.2751 20.4662 61.2522C20.6836 61.2293 20.8594 61.0976 20.9936 60.8571C21.1264 60.6192 21.1769 60.4024 21.1451 60.2069C21.1108 60.0099 21.0037 59.826 20.8239 59.6552C20.6429 59.4805 20.4003 59.3081 20.0958 59.1383L18.0773 58.0119L18.7304 56.8415Z" fill="white"/>
<path d="M18.3956 67.5245L12.7852 64.3938L13.449 63.2042L18.077 65.7867L19.3468 63.511L20.3292 64.0592L18.3956 67.5245Z" fill="white"/>
<path d="M65.3154 17.7819C65.7177 18.3855 66.029 18.9562 66.2495 19.4938C66.4734 20.0292 66.5915 20.5317 66.604 21.0011C66.6198 21.4683 66.5186 21.9002 66.3003 22.2969C66.082 22.6936 65.7341 23.051 65.2567 23.3692C64.6565 23.7693 64.0625 23.946 63.4749 23.8993C62.8849 23.8492 62.3069 23.599 61.7409 23.1488C61.1726 22.6952 60.6214 22.0677 60.0873 21.2663C59.5486 20.458 59.1719 19.7117 58.9571 19.0274C58.7435 18.3374 58.7254 17.7117 58.9028 17.1502C59.0802 16.5887 59.4878 16.0954 60.1255 15.6704C60.7223 15.2726 61.3157 15.0988 61.9056 15.1489C62.4967 15.1933 63.0781 15.4411 63.6498 15.8925C64.2192 16.3404 64.7744 16.9702 65.3154 17.7819ZM61.6578 20.2196C62.0373 20.7891 62.3851 21.2444 62.7011 21.5855C63.0182 21.9208 63.3154 22.134 63.5927 22.225C63.8701 22.3159 64.1417 22.2728 64.4077 22.0955C64.6703 21.9205 64.8142 21.6892 64.8392 21.4016C64.8654 21.1083 64.7847 20.7508 64.5972 20.3291C64.4074 19.9039 64.1216 19.4049 63.7398 18.832C63.3602 18.2624 63.0107 17.8083 62.6914 17.4695C62.372 17.1307 62.0719 16.917 61.7912 16.8283C61.5116 16.7339 61.2405 16.7742 60.9779 16.9493C60.7119 17.1266 60.5686 17.3624 60.5481 17.6568C60.5253 17.9478 60.6088 18.3059 60.7986 18.731C60.9918 19.1539 61.2782 19.6501 61.6578 20.2196Z" fill="white"/>
<path d="M59.3202 21.7777C59.7226 22.3814 60.0339 22.952 60.2544 23.4897C60.4782 24.0251 60.5964 24.5275 60.6088 24.997C60.6247 25.4642 60.5235 25.8961 60.3052 26.2928C60.0869 26.6894 59.739 27.0469 59.2616 27.3651C58.6613 27.7651 58.0674 27.9418 57.4797 27.8951C56.8898 27.845 56.3118 27.5949 55.7458 27.1447C55.1775 26.6911 54.6263 26.0636 54.0922 25.2621C53.5535 24.4539 53.1768 23.7076 52.962 23.0233C52.7484 22.3333 52.7303 21.7075 52.9077 21.146C53.0851 20.5845 53.4927 20.0913 54.1304 19.6662C54.7272 19.2685 55.3206 19.0946 55.9105 19.1447C56.5016 19.1891 57.083 19.437 57.6547 19.8883C58.2241 20.3363 58.7793 20.9661 59.3202 21.7777ZM55.6626 24.2154C56.0422 24.785 56.39 25.2403 56.7059 25.5813C57.023 25.9167 57.3203 26.1298 57.5976 26.2208C57.8749 26.3118 58.1466 26.2686 58.4126 26.0913C58.6752 25.9163 58.819 25.685 58.8441 25.3974C58.8703 25.1042 58.7896 24.7467 58.6021 24.3249C58.4123 23.8998 58.1265 23.4008 57.7447 22.8278C57.3651 22.2583 57.0156 21.8041 56.6962 21.4654C56.3769 21.1266 56.0768 20.9129 55.7961 20.8242C55.5165 20.7298 55.2453 20.7701 54.9828 20.9451C54.7167 21.1224 54.5735 21.3582 54.553 21.6526C54.5302 21.9436 54.6137 22.3017 54.8035 22.7268C54.9967 23.1497 55.2831 23.6459 55.6626 24.2154Z" fill="white"/>
<path d="M50.1669 26.3785C50.6238 26.0739 51.0876 25.8904 51.5582 25.8279C52.0322 25.7632 52.4841 25.8315 52.9137 26.0327C53.3433 26.234 53.7229 26.5818 54.0525 27.0763C54.4116 27.6152 54.6094 28.1557 54.6457 28.6979C54.6831 29.2344 54.5495 29.7544 54.2448 30.258C53.9435 30.7592 53.4638 31.2292 52.8056 31.6678C52.4134 31.9292 52.0206 32.1417 51.6273 32.3054C51.2397 32.4701 50.8708 32.5707 50.5207 32.607L49.6104 31.2412C49.9605 31.2048 50.3481 31.114 50.7733 30.9685C51.1995 30.8174 51.573 30.635 51.8935 30.4213C52.2073 30.2122 52.4443 29.9952 52.6046 29.7701C52.7626 29.5417 52.8383 29.3041 52.8315 29.0574C52.8258 28.8051 52.7321 28.5425 52.5502 28.2697C52.307 27.9048 51.9979 27.7069 51.6228 27.6762C51.2477 27.6455 50.8061 27.7994 50.2979 28.1381C50.1035 28.2677 49.9131 28.4217 49.7267 28.6001C49.5436 28.7763 49.3947 28.9297 49.2799 29.0604L48.4257 29.1421L46.167 25.1435L50.2236 22.4399L51.1169 23.7801L48.4466 25.5599L49.287 27.1201C49.387 27.0189 49.4973 26.9109 49.6178 26.7962C49.7383 26.6814 49.9213 26.5421 50.1669 26.3785Z" fill="white"/>
<path d="M78.4973 13.6597L76.0903 12.0825L77.4856 11.4783L78.9824 12.535L79.2438 10.7169L80.6391 10.1127L80.1265 12.9542L82.6601 14.5915L81.2607 15.1975L79.6442 14.0634L79.3614 16.02L77.9661 16.6242L78.4973 13.6597Z" fill="white"/>
<path d="M75.3277 12.4126L77.2801 16.9211L76.3365 17.3298L75.9214 16.8247L75.8569 16.8526C75.8265 17.0478 75.7596 17.2252 75.6563 17.3848C75.5531 17.5445 75.424 17.685 75.269 17.8064C75.1141 17.9278 74.9425 18.0292 74.7543 18.1107C74.4317 18.2504 74.1263 18.3156 73.8381 18.3063C73.5488 18.2943 73.2845 18.1965 73.0453 18.0127C72.8088 17.8278 72.6067 17.5418 72.4391 17.1546L71.166 14.2148L72.396 13.6822L73.5363 16.3155C73.676 16.6381 73.8392 16.8564 74.0258 16.9703C74.2124 17.0843 74.4321 17.0865 74.6848 16.9771C74.9348 16.8688 75.1066 16.7274 75.2002 16.5528C75.2927 16.3754 75.3194 16.1643 75.2804 15.9194C75.2429 15.6707 75.1549 15.3864 75.0163 15.0664L74.0977 12.9453L75.3277 12.4126Z" fill="white"/>
<path d="M68.5697 20.6931L66.0166 14.7974L67.2667 14.256L69.3728 19.1194L71.7642 18.0838L72.2112 19.1162L68.5697 20.6931Z" fill="white"/>
<path d="M132.399 5.50936C132.403 6.23476 132.349 6.8826 132.237 7.45289C132.129 8.02316 131.952 8.50774 131.704 8.90663C131.46 9.3055 131.138 9.61053 130.738 9.82172C130.337 10.0329 129.85 10.1401 129.276 10.1432C128.555 10.1471 127.962 9.96791 127.497 9.60567C127.031 9.23934 126.686 8.71251 126.461 8.02519C126.236 7.33377 126.121 6.50651 126.116 5.5434C126.111 4.5721 126.207 3.74165 126.404 3.05204C126.605 2.35832 126.934 1.82578 127.391 1.45445C127.848 1.08311 128.46 0.895365 129.226 0.891212C129.943 0.887325 130.534 1.06855 131 1.43489C131.469 1.79711 131.818 2.32392 132.047 3.01531C132.276 3.70261 132.393 4.53395 132.399 5.50936ZM128.003 5.53318C128.007 6.2176 128.047 6.78911 128.123 7.24772C128.204 7.70222 128.334 8.04373 128.516 8.27225C128.698 8.50078 128.948 8.61418 129.268 8.61245C129.583 8.61074 129.831 8.49669 130.01 8.27031C130.193 8.0398 130.322 7.69688 130.398 7.24154C130.473 6.78211 130.509 6.20813 130.505 5.51962C130.502 4.8352 130.46 4.26369 130.379 3.8051C130.299 3.34651 130.166 3.00296 129.98 2.77446C129.799 2.54183 129.55 2.42637 129.234 2.42808C128.915 2.42981 128.665 2.54797 128.486 2.78255C128.307 3.01304 128.18 3.358 128.105 3.81743C128.033 4.27684 128 4.84876 128.003 5.53318Z" fill="white"/>
<path d="M125.194 5.54842C125.198 6.27382 125.144 6.92167 125.032 7.49195C124.924 8.06222 124.747 8.5468 124.499 8.94569C124.255 9.34456 123.933 9.64959 123.532 9.86078C123.132 10.072 122.645 10.1791 122.071 10.1822C121.35 10.1861 120.757 10.007 120.292 9.64474C119.826 9.2784 119.481 8.75157 119.256 8.06425C119.031 7.37283 118.916 6.54557 118.911 5.58247C118.906 4.61116 119.002 3.78071 119.199 3.0911C119.4 2.39738 119.729 1.86485 120.186 1.49351C120.643 1.12217 121.255 0.934428 122.021 0.930274C122.738 0.926388 123.329 1.10761 123.794 1.47395C124.264 1.83617 124.613 2.36298 124.842 3.05437C125.071 3.74167 125.188 4.57302 125.194 5.54842ZM120.798 5.57224C120.802 6.25666 120.842 6.82817 120.918 7.28679C120.998 7.74128 121.129 8.08279 121.311 8.31132C121.493 8.53985 121.743 8.65324 122.063 8.65151C122.378 8.6498 122.626 8.53575 122.805 8.30937C122.988 8.07886 123.117 7.73594 123.193 7.28061C123.268 6.82117 123.304 6.2472 123.3 5.55868C123.296 4.87426 123.254 4.30276 123.174 3.84417C123.094 3.38558 122.961 3.04203 122.775 2.81352C122.593 2.58089 122.345 2.46543 122.029 2.46715C121.71 2.46888 121.46 2.58703 121.281 2.82162C121.102 3.0521 120.975 3.39706 120.899 3.85649C120.828 4.3159 120.794 4.88782 120.798 5.57224Z" fill="white"/>
<path d="M117.989 5.58748C117.993 6.31288 117.94 6.96073 117.828 7.53102C117.72 8.10128 117.543 8.58586 117.295 8.98476C117.051 9.38363 116.729 9.68866 116.328 9.89985C115.928 10.111 115.441 10.2182 114.867 10.2213C114.146 10.2252 113.552 10.046 113.087 9.6838C112.622 9.31746 112.277 8.79063 112.052 8.10331C111.827 7.4119 111.712 6.58463 111.707 5.62153C111.701 4.65023 111.797 3.81977 111.994 3.13017C112.196 2.43644 112.525 1.90391 112.982 1.53257C113.439 1.16124 114.05 0.97349 114.817 0.969337C115.534 0.96545 116.125 1.14668 116.59 1.51302C117.06 1.87523 117.409 2.40204 117.638 3.09344C117.867 3.78073 117.984 4.61208 117.989 5.58748ZM113.594 5.6113C113.598 6.29572 113.638 6.86724 113.714 7.32585C113.794 7.78034 113.925 8.12185 114.107 8.35038C114.288 8.57891 114.539 8.69231 114.859 8.69057C115.174 8.68886 115.422 8.57482 115.601 8.34843C115.784 8.11793 115.913 7.77501 115.989 7.31967C116.064 6.86024 116.1 6.28626 116.096 5.59774C116.092 4.91332 116.05 4.34182 115.97 3.88323C115.89 3.42464 115.757 3.08109 115.571 2.85258C115.389 2.61996 115.141 2.5045 114.825 2.50621C114.506 2.50794 114.256 2.6261 114.077 2.86068C113.898 3.09116 113.771 3.43612 113.695 3.89555C113.624 4.35497 113.59 4.92688 113.594 5.6113Z" fill="white"/>
<path d="M110.858 10.1201L104.575 10.1542L104.568 8.83247L106.812 6.53953C107.264 6.06986 107.627 5.67854 107.899 5.36558C108.176 5.0485 108.376 4.76053 108.497 4.50166C108.623 4.24278 108.685 3.9658 108.683 3.67072C108.681 3.31417 108.58 3.04832 108.378 2.87318C108.18 2.69392 107.915 2.60519 107.583 2.60699C107.235 2.60888 106.897 2.69063 106.57 2.85224C106.243 3.01385 105.902 3.24316 105.547 3.54017L104.508 2.32242C104.765 2.09971 105.036 1.88922 105.322 1.69095C105.612 1.49265 105.947 1.33304 106.328 1.21213C106.712 1.08709 107.173 1.02312 107.71 1.02021C108.3 1.01701 108.807 1.12082 109.23 1.33165C109.658 1.54245 109.987 1.83165 110.218 2.19926C110.45 2.56277 110.567 2.97607 110.569 3.43918C110.572 3.93508 110.476 4.38848 110.282 4.79938C110.087 5.21027 109.803 5.61756 109.428 6.02124C109.057 6.4249 108.608 6.87201 108.082 7.36258L106.933 8.45694L106.933 8.54301L110.849 8.52179L110.858 10.1201Z" fill="white"/>
<path d="M145.702 8.33L144.483 5.72345L145.988 5.94238L146.706 7.62784L147.884 6.21826L149.388 6.43719L147.459 8.58563L148.755 11.3098L147.246 11.0903L146.466 9.27601L145.198 10.7922L143.693 10.5733L145.702 8.33Z" fill="white"/>
<path d="M143.661 5.60392L142.953 10.4658L141.936 10.3178L141.848 9.66994L141.778 9.65982C141.65 9.80988 141.5 9.92571 141.328 10.0073C141.156 10.0889 140.973 10.1406 140.777 10.1625C140.581 10.1844 140.382 10.1805 140.179 10.151C139.831 10.1004 139.537 9.99541 139.297 9.8361C139.057 9.6739 138.884 9.45178 138.777 9.16977C138.673 8.88817 138.651 8.53864 138.712 8.12116L139.173 4.95093L140.499 5.14392L140.086 7.98364C140.035 8.33154 140.06 8.60299 140.159 8.79797C140.257 8.99296 140.443 9.11028 140.716 9.14993C140.985 9.18916 141.206 9.15907 141.377 9.05967C141.549 8.95736 141.683 8.79177 141.778 8.5629C141.877 8.33155 141.951 8.04337 142.002 7.69837L142.334 5.41094L143.661 5.60392Z" fill="white"/>
<path d="M133.56 9.09907L134.485 2.74121L135.833 2.93736L135.07 8.18194L137.649 8.55716L137.487 9.67044L133.56 9.09907Z" fill="white"/>
<path d="M199.763 30.7769C199.337 31.3639 198.91 31.8541 198.482 32.2477C198.058 32.6436 197.628 32.9289 197.192 33.1037C196.76 33.2809 196.319 33.336 195.872 33.2691C195.424 33.2022 194.968 33.0002 194.503 32.663C193.92 32.2392 193.548 31.7436 193.387 31.1763C193.229 30.6057 193.263 29.9769 193.489 29.2897C193.717 28.5992 194.114 27.8643 194.68 27.085C195.25 26.2991 195.819 25.6866 196.386 25.2475C196.959 24.8075 197.54 24.5731 198.128 24.5444C198.716 24.5157 199.32 24.7265 199.94 25.1768C200.521 25.5983 200.89 26.0943 201.048 26.6649C201.211 27.2346 201.181 27.8658 200.956 28.5587C200.734 29.2483 200.336 29.9877 199.763 30.7769ZM196.207 28.1941C195.804 28.7479 195.498 29.2321 195.288 29.6469C195.084 30.0607 194.987 30.4135 194.998 30.7052C195.009 30.9968 195.144 31.2366 195.403 31.4244C195.658 31.6099 195.925 31.6644 196.204 31.588C196.488 31.5106 196.795 31.3108 197.125 30.9885C197.458 30.6628 197.827 30.2214 198.231 29.6643C198.633 29.1105 198.938 28.625 199.145 28.2079C199.351 27.7907 199.447 27.4351 199.433 27.141C199.424 26.846 199.292 26.6058 199.037 26.4204C198.778 26.2325 198.507 26.1801 198.224 26.2632C197.944 26.3429 197.637 26.5456 197.304 26.8713C196.975 27.1993 196.609 27.6403 196.207 28.1941Z" fill="white"/>
<path d="M193.933 26.5431C193.507 27.13 193.08 27.6203 192.652 28.0138C192.228 28.4097 191.798 28.695 191.362 28.8698C190.929 29.047 190.489 29.1021 190.042 29.0352C189.594 28.9683 189.138 28.7663 188.673 28.4291C188.09 28.0053 187.718 27.5097 187.557 26.9424C187.399 26.3719 187.433 25.743 187.659 25.0558C187.887 24.3653 188.284 23.6305 188.849 22.8512C189.42 22.0652 189.989 21.4527 190.556 21.0136C191.129 20.5736 191.71 20.3392 192.298 20.3105C192.886 20.2818 193.49 20.4926 194.11 20.9429C194.69 21.3644 195.06 21.8604 195.218 22.431C195.381 23.0007 195.351 23.632 195.126 24.3248C194.904 25.0144 194.506 25.7538 193.933 26.5431ZM190.377 23.9602C189.974 24.514 189.668 24.9983 189.458 25.413C189.254 25.8269 189.157 26.1796 189.168 26.4713C189.179 26.763 189.314 27.0027 189.573 27.1906C189.828 27.376 190.095 27.4305 190.373 27.3541C190.658 27.2768 190.965 27.0769 191.295 26.7546C191.628 26.4289 191.996 25.9875 192.401 25.4304C192.803 24.8766 193.108 24.3912 193.314 23.974C193.521 23.5568 193.617 23.2012 193.603 22.9071C193.594 22.6121 193.462 22.3719 193.207 22.1865C192.948 21.9986 192.677 21.9462 192.394 22.0293C192.113 22.109 191.807 22.3117 191.474 22.6374C191.145 22.9654 190.779 23.4064 190.377 23.9602Z" fill="white"/>
<path d="M188.103 22.3094C187.677 22.8964 187.25 23.3866 186.822 23.7801C186.398 24.1761 185.968 24.4614 185.532 24.6362C185.099 24.8133 184.659 24.8685 184.211 24.8016C183.764 24.7347 183.308 24.5327 182.843 24.1955C182.26 23.7716 181.888 23.2761 181.727 22.7088C181.569 22.1382 181.603 21.5093 181.829 20.8222C182.057 20.1317 182.453 19.3968 183.019 18.6175C183.59 17.8316 184.159 17.2191 184.726 16.78C185.299 16.3399 185.879 16.1056 186.468 16.0768C187.056 16.0481 187.66 16.2589 188.28 16.7093C188.86 17.1307 189.23 17.6268 189.387 18.1973C189.551 18.767 189.521 19.3983 189.296 20.0912C189.074 20.7808 188.676 21.5202 188.103 22.3094ZM184.546 19.7265C184.144 20.2803 183.838 20.7646 183.628 21.1794C183.424 21.5932 183.327 21.946 183.338 22.2376C183.349 22.5293 183.484 22.7691 183.743 22.9569C183.998 23.1424 184.265 23.1969 184.543 23.1204C184.827 23.0431 185.135 22.8433 185.465 22.5209C185.798 22.1953 186.166 21.7539 186.571 21.1968C186.973 20.643 187.278 20.1575 187.484 19.7403C187.691 19.3232 187.787 18.9676 187.773 18.6735C187.764 18.3785 187.632 18.1383 187.377 17.9528C187.118 17.765 186.847 17.7126 186.564 17.7957C186.283 17.8754 185.977 18.0781 185.644 18.4037C185.314 18.7318 184.949 19.1727 184.546 19.7265Z" fill="white"/>
<path d="M182.274 18.0755C181.848 18.6625 181.421 19.1527 180.993 19.5462C180.569 19.9422 180.139 20.2275 179.703 20.4023C179.27 20.5794 178.83 20.6346 178.382 20.5677C177.935 20.5008 177.478 20.2988 177.014 19.9616C176.431 19.5378 176.059 19.0422 175.898 18.4749C175.74 17.9043 175.774 17.2755 175.999 16.5883C176.227 15.8978 176.624 15.1629 177.19 14.3836C177.761 13.5977 178.33 12.9852 178.897 12.5461C179.47 12.1061 180.05 11.8717 180.639 11.843C181.227 11.8142 181.831 12.025 182.451 12.4754C183.031 12.8968 183.4 13.3929 183.558 13.9635C183.722 14.5331 183.692 15.1644 183.467 15.8573C183.245 16.5469 182.847 17.2863 182.274 18.0755ZM178.717 15.4926C178.315 16.0464 178.009 16.5307 177.799 16.9455C177.595 17.3593 177.498 17.7121 177.509 18.0038C177.52 18.2954 177.655 18.5352 177.914 18.723C178.169 18.9085 178.436 18.963 178.714 18.8866C178.998 18.8092 179.306 18.6094 179.636 18.2871C179.969 17.9614 180.337 17.52 180.742 16.9629C181.144 16.4091 181.449 15.9236 181.655 15.5065C181.862 15.0893 181.958 14.7337 181.944 14.4396C181.935 14.1446 181.803 13.9044 181.548 13.719C181.289 13.5311 181.018 13.4787 180.735 13.5618C180.454 13.6415 180.148 13.8442 179.815 14.1699C179.485 14.4979 179.12 14.9388 178.717 15.4926Z" fill="white"/>
<path d="M172.559 16.5749L171.022 15.4587L174.078 11.2505C174.163 11.1344 174.268 10.993 174.394 10.8263C174.523 10.6563 174.655 10.4841 174.792 10.3099C174.931 10.1323 175.057 9.97298 175.169 9.83189C175.102 9.84851 174.973 9.86894 174.783 9.89317C174.599 9.9165 174.429 9.93469 174.272 9.94776L172.949 10.0124L172.88 8.54893L176.577 8.38505L177.841 9.3026L172.559 16.5749Z" fill="white"/>
<path d="M208.928 41.3009L209.636 38.5119L210.662 39.6348L210.149 41.3939L211.953 41.0498L212.979 42.1727L210.125 42.6121L209.4 45.5405L208.372 44.4143L208.919 42.5168L206.977 42.8857L205.952 41.7627L208.928 41.3009Z" fill="white"/>
<path d="M209.076 37.8984L205.448 41.2109L204.755 40.4515L205.097 39.8947L205.05 39.8428C204.855 39.8775 204.666 39.872 204.481 39.8263C204.297 39.7805 204.122 39.7041 203.957 39.5971C203.791 39.49 203.64 39.3608 203.501 39.2093C203.264 38.9497 203.103 38.6821 203.019 38.4066C202.936 38.1291 202.942 37.8473 203.038 37.5614C203.136 37.2776 203.341 36.9935 203.653 36.709L206.019 34.5491L206.922 35.5389L204.803 37.4737C204.543 37.7108 204.39 37.936 204.343 38.1496C204.296 38.3631 204.365 38.5715 204.551 38.7749C204.735 38.9761 204.924 39.0926 205.12 39.1243C205.317 39.1541 205.526 39.1107 205.745 38.9941C205.968 38.8778 206.208 38.7021 206.465 38.467L208.173 36.9085L209.076 37.8984Z" fill="white"/>
<path d="M199.048 34.2007L203.793 29.8689L204.711 30.875L200.797 34.4483L202.554 36.3728L201.724 37.1313L199.048 34.2007Z" fill="white"/>
<path d="M238.48 83.8823C237.82 84.1832 237.207 84.3996 236.641 84.5315C236.076 84.6672 235.562 84.7037 235.096 84.6412C234.632 84.5823 234.222 84.4136 233.865 84.1348C233.508 83.8561 233.211 83.4557 232.973 82.9336C232.674 82.2773 232.594 81.6628 232.734 81.0901C232.877 80.5157 233.216 79.985 233.751 79.498C234.29 79.0093 234.997 78.5651 235.873 78.1656C236.757 77.7626 237.554 77.5097 238.264 77.4068C238.979 77.3059 239.599 77.3878 240.126 77.6525C240.652 77.9171 241.074 78.3981 241.391 79.0954C241.689 79.748 241.766 80.3615 241.623 80.9359C241.484 81.5124 241.147 82.0468 240.61 82.5392C240.077 83.0299 239.367 83.4776 238.48 83.8823ZM236.656 79.8828C236.033 80.1668 235.528 80.4375 235.141 80.695C234.76 80.9546 234.502 81.2141 234.368 81.4733C234.234 81.7326 234.233 82.0077 234.366 82.2986C234.497 82.5857 234.702 82.7646 234.982 82.8351C235.267 82.9077 235.633 82.8851 236.079 82.7672C236.529 82.6477 237.068 82.4451 237.694 82.1594C238.317 81.8755 238.821 81.6029 239.206 81.3416C239.592 81.0804 239.85 80.8182 239.983 80.5552C240.121 80.2942 240.124 80.0201 239.993 79.733C239.86 79.4421 239.65 79.2631 239.363 79.1959C239.079 79.1271 238.713 79.1524 238.263 79.272C237.814 79.3953 237.279 79.5989 236.656 79.8828Z" fill="white"/>
<path d="M235.49 77.3264C234.83 77.6273 234.217 77.8437 233.651 77.9756C233.087 78.1113 232.572 78.1478 232.107 78.0853C231.643 78.0264 231.233 77.8577 230.876 77.5789C230.519 77.3002 230.222 76.8998 229.984 76.3777C229.685 75.7214 229.605 75.1069 229.745 74.5342C229.888 73.9598 230.227 73.4291 230.762 72.9421C231.3 72.4533 232.008 72.0092 232.884 71.6097C233.768 71.2067 234.565 70.9538 235.274 70.8509C235.99 70.75 236.61 70.8319 237.136 71.0965C237.662 71.3612 238.084 71.8422 238.402 72.5395C238.7 73.1921 238.777 73.8056 238.633 74.38C238.495 74.9564 238.158 75.4909 237.621 75.9833C237.088 76.474 236.378 76.9217 235.49 77.3264ZM233.667 73.3269C233.044 73.6109 232.539 73.8816 232.152 74.1391C231.771 74.3987 231.513 74.6581 231.379 74.9174C231.245 75.1767 231.244 75.4518 231.377 75.7427C231.508 76.0298 231.713 76.2087 231.993 76.2792C232.278 76.3518 232.644 76.3292 233.09 76.2113C233.54 76.0918 234.078 75.8892 234.705 75.6035C235.328 75.3196 235.832 75.047 236.217 74.7857C236.602 74.5245 236.861 74.2623 236.994 73.9993C237.131 73.7383 237.135 73.4642 237.004 73.1771C236.871 72.8862 236.661 72.7072 236.374 72.64C236.09 72.5712 235.723 72.5965 235.273 72.7161C234.825 72.8394 234.29 73.043 233.667 73.3269Z" fill="white"/>
<path d="M232.502 70.7707C231.842 71.0716 231.229 71.2881 230.663 71.42C230.099 71.5556 229.584 71.5922 229.119 71.5296C228.655 71.4708 228.245 71.302 227.888 71.0232C227.531 70.7445 227.234 70.3441 226.996 69.822C226.696 69.1657 226.617 68.5512 226.756 67.9785C226.9 67.4041 227.239 66.8734 227.774 66.3864C228.312 65.8977 229.019 65.4536 229.896 65.054C230.779 64.6511 231.576 64.3981 232.286 64.2952C233.001 64.1944 233.622 64.2762 234.148 64.5409C234.674 64.8055 235.096 65.2865 235.414 65.9839C235.711 66.6364 235.788 67.2499 235.645 67.8243C235.507 68.4008 235.17 68.9352 234.633 69.4276C234.1 69.9184 233.39 70.3661 232.502 70.7707ZM230.679 66.7713C230.056 67.0552 229.551 67.3259 229.164 67.5835C228.782 67.843 228.524 68.1025 228.39 68.3618C228.256 68.6211 228.256 68.8961 228.388 69.187C228.519 69.4741 228.725 69.653 229.005 69.7236C229.29 69.7962 229.656 69.7735 230.102 69.6557C230.552 69.5361 231.09 69.3335 231.717 69.0479C232.339 68.7639 232.843 68.4913 233.229 68.2301C233.614 67.9688 233.873 67.7066 234.005 67.4436C234.143 67.1826 234.146 66.9086 234.016 66.6214C233.883 66.3306 233.673 66.1515 233.386 66.0844C233.102 66.0155 232.735 66.0408 232.285 66.1604C231.837 66.2837 231.301 66.4873 230.679 66.7713Z" fill="white"/>
<path d="M229.419 61.0012C229.647 61.5009 229.754 61.988 229.741 62.4626C229.729 62.9408 229.59 63.376 229.322 63.7681C229.055 64.1601 228.651 64.4794 228.111 64.7259C227.521 64.9946 226.956 65.1036 226.415 65.053C225.88 65.0044 225.387 64.7896 224.939 64.4085C224.492 64.0312 224.105 63.4827 223.777 62.763C223.581 62.3341 223.434 61.9125 223.335 61.4981C223.234 61.0892 223.194 60.709 223.214 60.3576L224.707 59.6767C224.687 60.0281 224.715 60.4252 224.791 60.8681C224.872 61.313 224.993 61.7108 225.153 62.0613C225.309 62.4044 225.485 62.673 225.682 62.8671C225.882 63.0595 226.105 63.1721 226.349 63.2047C226.599 63.2393 226.874 63.1886 227.172 63.0526C227.571 62.8707 227.816 62.597 227.906 62.2316C227.996 61.8662 227.914 61.4057 227.661 60.8501C227.564 60.6375 227.442 60.425 227.296 60.2125C227.151 60.0037 227.023 59.8322 226.913 59.6981L226.968 58.8417L231.276 57.2494L233.298 61.6852L231.833 62.3533L230.501 59.4335L228.827 60.0144C228.911 60.1292 229 60.2553 229.094 60.3926C229.188 60.5298 229.297 60.7327 229.419 61.0012Z" fill="white"/>
<path d="M222.455 59.5683L219.849 53.8516L221.051 53.3033L224.062 54.41C224.676 54.6301 225.182 54.8004 225.579 54.9211C225.982 55.0437 226.326 55.1074 226.612 55.1122C226.9 55.1207 227.178 55.0637 227.446 54.9413C227.771 54.7934 227.972 54.5915 228.049 54.3357C228.131 54.0819 228.103 53.804 227.966 53.5019C227.821 53.1849 227.608 52.9104 227.327 52.6784C227.045 52.4464 226.696 52.2294 226.28 52.0274L226.965 50.5801C227.273 50.7233 227.576 50.8845 227.874 51.064C228.174 51.2471 228.457 51.4874 228.723 51.7849C228.995 52.0845 229.242 52.4785 229.465 52.967C229.71 53.504 229.823 54.0087 229.804 54.4812C229.787 54.9575 229.658 55.3765 229.418 55.7384C229.181 56.0985 228.852 56.3746 228.431 56.5668C227.98 56.7725 227.527 56.8709 227.072 56.8619C226.618 56.8529 226.129 56.7602 225.608 56.5837C225.087 56.411 224.496 56.1853 223.833 55.9065L222.363 55.3063L222.285 55.342L223.909 58.9052L222.455 59.5683Z" fill="white"/>
<path d="M240.344 97.8447L242.323 95.7554L242.67 97.2357L241.365 98.5215L243.108 99.101L243.455 100.581L240.75 99.5732L238.689 101.776L238.341 100.292L239.743 98.902L237.868 98.2768L237.521 96.7965L240.344 97.8447Z" fill="white"/>
<path d="M242.134 94.947L237.351 96.0694L237.116 95.0683L237.686 94.7493L237.67 94.6808C237.484 94.6163 237.321 94.5191 237.182 94.3892C237.043 94.2592 236.928 94.1073 236.836 93.9332C236.744 93.7592 236.674 93.5724 236.628 93.3727C236.547 93.0305 236.537 92.7184 236.597 92.4364C236.66 92.1538 236.804 91.911 237.027 91.7082C237.251 91.5082 237.568 91.36 237.979 91.2636L241.098 90.5317L241.404 91.8366L238.61 92.4922C238.268 92.5725 238.024 92.6944 237.879 92.8579C237.734 93.0214 237.693 93.2372 237.755 93.5053C237.818 93.7705 237.926 93.9647 238.082 94.0877C238.24 94.2101 238.443 94.2738 238.691 94.2788C238.942 94.286 239.238 94.2498 239.577 94.1702L241.828 93.6421L242.134 94.947Z" fill="white"/>
<path d="M235.182 86.8281L241.437 85.3604L241.748 86.6866L236.588 87.8974L237.183 90.4344L236.088 90.6915L235.182 86.8281Z" fill="white"/>
<path d="M67.1571 62.0568L64.763 60.6607C64.6558 60.5969 64.5379 60.5263 64.4092 60.4488C64.2828 60.3693 64.1564 60.2898 64.03 60.2102C63.9036 60.1307 63.7869 60.0569 63.6798 59.9887C63.5728 59.9163 63.4872 59.8574 63.4231 59.8122L63.3962 59.8374C63.4379 59.9037 63.492 59.9919 63.5586 60.1022C63.6231 60.2103 63.6927 60.3304 63.7674 60.4626C63.8422 60.5905 63.9158 60.7216 63.9883 60.8559C64.0629 60.9881 64.1281 61.1103 64.1837 61.2224L65.4109 63.693L64.6639 64.3928L60.1387 61.6765L60.8284 61.0303L63.1685 62.4833C63.3249 62.5811 63.4844 62.6843 63.647 62.7931C63.8097 62.9018 63.9604 63.007 64.0993 63.1086C64.2381 63.2101 64.3544 63.2991 64.4482 63.3756L64.4751 63.3503C64.4313 63.2819 64.377 63.1979 64.3123 63.0985C64.2477 62.9948 64.181 62.8867 64.1123 62.7741C64.0415 62.6594 63.9749 62.5469 63.9127 62.4368C63.8527 62.3245 63.801 62.2255 63.7577 62.1397L62.4468 59.5139L63.1802 58.8267L65.7161 60.2984C65.8384 60.3692 65.9734 60.4511 66.1213 60.5443C66.267 60.6352 66.4082 60.7282 66.5451 60.8232C66.682 60.9182 66.7951 61.0039 66.8845 61.0802L66.9114 61.055C66.8484 60.9708 66.7721 60.8569 66.6825 60.7135C66.5929 60.57 66.4971 60.4133 66.3951 60.2435C66.2911 60.0714 66.1935 59.9017 66.1024 59.7343L64.7851 57.3229L65.4648 56.6861L67.9242 61.3381L67.1571 62.0568Z" fill="white"/>
<path d="M61.4437 63.9281C61.7316 64.2312 61.9484 64.5399 62.0942 64.854C62.24 65.1638 62.315 65.4727 62.3191 65.7805C62.3234 66.084 62.2602 66.3791 62.1297 66.6657C61.997 66.95 61.7961 67.2183 61.5269 67.4705C61.2757 67.7059 61.0045 67.88 60.7132 67.9929C60.422 68.1014 60.1229 68.1458 59.8159 68.126C59.5067 68.1039 59.1985 68.0137 58.8911 67.8552C58.5816 67.6945 58.2829 67.4625 57.9951 67.1594C57.612 66.756 57.3555 66.3476 57.2258 65.9342C57.0939 65.5186 57.0871 65.1164 57.2053 64.7276C57.3237 64.3345 57.5623 63.9698 57.9212 63.6336C58.2622 63.3141 58.6325 63.1082 59.0323 63.0158C59.4321 62.9235 59.8381 62.9516 60.2505 63.1001C60.6629 63.2487 61.0606 63.5247 61.4437 63.9281ZM58.6882 66.51C58.957 66.7931 59.2247 67.0035 59.4912 67.1413C59.7578 67.2748 60.0181 67.3257 60.2721 67.2941C60.5284 67.2604 60.7765 67.1311 61.0165 66.9062C61.252 66.6856 61.3942 66.4492 61.443 66.197C61.4918 65.9449 61.4558 65.6838 61.335 65.4137C61.212 65.1414 61.0161 64.8637 60.7473 64.5807C60.4806 64.2998 60.2161 64.0928 59.9538 63.9594C59.6915 63.8261 59.4333 63.7774 59.1792 63.8133C58.9273 63.8471 58.6802 63.9775 58.438 64.2045C58.0836 64.5366 57.9356 64.8985 57.994 65.2903C58.0525 65.6777 58.2839 66.0843 58.6882 66.51Z" fill="white"/>
<path d="M56.3694 72.1764L51.7275 67.2886L52.4173 66.6423L56.494 70.9351L58.6305 68.9333L59.1957 69.5284L56.3694 72.1764Z" fill="white"/>
<path d="M214.629 120.263C214.73 120.694 214.724 121.085 214.611 121.436C214.5 121.787 214.297 122.083 214 122.325C213.703 122.567 213.327 122.741 212.872 122.846L212.36 122.964L211.572 119.607C211.044 119.738 210.668 119.968 210.446 120.298C210.226 120.626 210.172 121.028 210.284 121.504C210.357 121.818 210.453 122.091 210.571 122.322C210.688 122.554 210.836 122.788 211.015 123.024L210.256 123.2C210.084 122.978 209.942 122.747 209.833 122.507C209.72 122.271 209.623 121.98 209.542 121.633C209.43 121.154 209.427 120.711 209.533 120.305C209.641 119.902 209.858 119.556 210.185 119.269C210.516 118.982 210.956 118.774 211.507 118.647C212.052 118.521 212.54 118.504 212.969 118.598C213.401 118.69 213.759 118.879 214.044 119.163C214.329 119.448 214.524 119.814 214.629 120.263ZM213.927 120.421C213.841 120.055 213.653 119.79 213.361 119.624C213.073 119.457 212.702 119.405 212.25 119.469L212.821 121.902C213.093 121.836 213.322 121.737 213.509 121.606C213.696 121.474 213.828 121.309 213.905 121.112C213.982 120.917 213.99 120.687 213.927 120.421Z" fill="white"/>
<path d="M213.431 115.159C213.56 115.707 213.513 116.153 213.291 116.498C213.072 116.845 212.649 117.091 212.02 117.236L208.781 117.985L208.571 117.092L211.698 116.369C212.087 116.279 212.36 116.131 212.517 115.924C212.674 115.721 212.716 115.46 212.641 115.143C212.536 114.694 212.323 114.401 212.004 114.264C211.688 114.128 211.268 114.121 210.744 114.242L208.048 114.865L207.838 113.968L210.964 113.245C211.225 113.185 211.432 113.099 211.586 112.988C211.743 112.876 211.848 112.74 211.902 112.579C211.956 112.418 211.957 112.23 211.907 112.015C211.834 111.706 211.709 111.475 211.531 111.321C211.356 111.169 211.129 111.081 210.848 111.057C210.569 111.037 210.24 111.07 209.863 111.157L207.316 111.746L207.104 110.844L212.055 109.699L212.222 110.413L211.57 110.701L211.582 110.751C211.775 110.81 211.947 110.901 212.096 111.024C212.245 111.151 212.37 111.3 212.471 111.472C212.574 111.644 212.65 111.833 212.699 112.04C212.786 112.411 212.792 112.739 212.717 113.025C212.642 113.31 212.481 113.545 212.233 113.728L212.247 113.786C212.563 113.88 212.819 114.052 213.016 114.299C213.217 114.549 213.355 114.836 213.431 115.159Z" fill="white"/>
<path d="M211.371 106.384C211.472 106.815 211.466 107.206 211.353 107.557C211.243 107.908 211.039 108.204 210.742 108.446C210.445 108.688 210.069 108.862 209.614 108.967L209.102 109.085L208.314 105.728C207.786 105.859 207.411 106.09 207.188 106.419C206.968 106.747 206.914 107.149 207.026 107.625C207.1 107.939 207.195 108.212 207.313 108.444C207.43 108.675 207.578 108.909 207.757 109.145L206.998 109.321C206.826 109.099 206.685 108.868 206.575 108.628C206.463 108.392 206.366 108.101 206.284 107.754C206.172 107.275 206.169 106.832 206.276 106.426C206.383 106.023 206.6 105.677 206.928 105.39C207.258 105.103 207.699 104.895 208.25 104.768C208.795 104.642 209.282 104.626 209.711 104.719C210.143 104.811 210.502 105 210.786 105.284C211.071 105.569 211.266 105.935 211.371 106.384ZM210.669 106.542C210.584 106.177 210.395 105.911 210.103 105.745C209.815 105.578 209.444 105.527 208.992 105.59L209.563 108.023C209.835 107.957 210.064 107.858 210.251 107.727C210.438 107.595 210.57 107.431 210.647 107.233C210.724 107.038 210.732 106.808 210.669 106.542Z" fill="white"/>
<path d="M210.567 102.964C210.588 103.053 210.605 103.152 210.618 103.26C210.633 103.366 210.643 103.459 210.645 103.537L209.783 103.637C209.784 103.561 209.779 103.474 209.769 103.375C209.759 103.28 209.745 103.192 209.726 103.111C209.681 102.919 209.602 102.745 209.489 102.588C209.377 102.431 209.236 102.303 209.067 102.203C208.902 102.102 208.711 102.038 208.496 102.009C208.284 101.979 208.052 101.993 207.8 102.051L205.181 102.656L204.968 101.75L209.919 100.605L210.09 101.333L209.221 101.647L209.23 101.687C209.434 101.748 209.628 101.832 209.811 101.941C209.995 102.053 210.153 102.193 210.284 102.362C210.419 102.533 210.513 102.733 210.567 102.964Z" fill="white"/>
<path d="M205.205 99.8685C205.235 99.9971 205.276 100.125 205.328 100.252C205.383 100.378 205.439 100.485 205.498 100.572L204.806 100.732C204.737 100.641 204.668 100.513 204.598 100.349C204.525 100.189 204.469 100.021 204.427 99.8447C204.364 99.5753 204.353 99.3207 204.395 99.0808C204.436 98.8409 204.554 98.6292 204.747 98.4456C204.942 98.265 205.238 98.1287 205.637 98.0367L208.431 97.3909L208.269 96.7042L208.687 96.6076L209.188 97.249L210.332 97.3206L210.463 97.8772L209.34 98.1367L209.676 99.5686L208.98 99.7295L208.644 98.2976L205.863 98.9403C205.584 99.0046 205.392 99.1186 205.285 99.2821C205.179 99.4486 205.152 99.644 205.205 99.8685Z" fill="white"/>
<path d="M205.799 93.906L207.822 91.6687L208.063 92.6966L206.525 94.3345L208.634 95.1294L208.873 96.1483L206.061 95.0236L203.944 97.3822L203.703 96.3543L205.334 94.6096L203.091 93.7509L202.852 92.732L205.799 93.906Z" fill="white"/>
<path d="M202.688 92.0362L201.823 88.3511L208.391 86.8333L209.256 90.5184L208.465 90.7011L207.816 87.9361L205.862 88.3878L206.472 90.9867L205.69 91.1673L205.08 88.5684L202.834 89.0875L203.483 91.8525L202.688 92.0362Z" fill="white"/>
<defs>
<linearGradient id="paint0_linear_615_1205" x1="201" y1="52.9999" x2="169" y2="84.4999" gradientUnits="userSpaceOnUse">
<stop offset="0.420469" stop-color="#FB8801"/>
<stop offset="1" stop-color="#955101"/>
</linearGradient>
<linearGradient id="paint1_linear_615_1205" x1="97.621" y1="17.9999" x2="112.001" y2="71.4999" gradientUnits="userSpaceOnUse">
<stop offset="0.222654" stop-color="#1EE2E2"/>
<stop offset="1" stop-color="#107C7C"/>
</linearGradient>
<linearGradient id="paint2_linear_615_1205" x1="153" y1="17.4999" x2="138.5" y2="69.4999" gradientUnits="userSpaceOnUse">
<stop offset="0.54379" stop-color="#EAC737"/>
<stop offset="1" stop-color="#84701F"/>
</linearGradient>
<linearGradient id="paint3_linear_615_1205" x1="46.5004" y1="55" x2="85.5004" y2="90" gradientUnits="userSpaceOnUse">
<stop stop-color="#BCB6F7"/>
<stop offset="1" stop-color="#6E6B91"/>
</linearGradient>
<linearGradient id="paint4_linear_615_1205" x1="22.5002" y1="96.4998" x2="72.0002" y2="113" gradientUnits="userSpaceOnUse">
<stop stop-color="#999696"/>
<stop offset="1" stop-color="#333232"/>
</linearGradient>
<linearGradient id="paint5_linear_615_1205" x1="230" y1="90.4999" x2="185" y2="107" gradientUnits="userSpaceOnUse">
<stop stop-color="#F70000"/>
<stop offset="1" stop-color="#910000"/>
</linearGradient>
</defs>
</svg>
