<?xml version="1.0" encoding="utf-8"?>
<!-- Generator: Adobe Illustrator 27.6.1, SVG Export Plug-In . SVG Version: 6.00 Build 0)  -->
<svg version="1.1" id="Layer_1" xmlns="http://www.w3.org/2000/svg" xmlns:xlink="http://www.w3.org/1999/xlink" x="0px" y="0px"
	 viewBox="0 0 223 121" style="enable-background:new 0 0 223 121;" xml:space="preserve">
<style type="text/css">
	.st0{fill:url(#SVGID_1_);}
	.st1{fill:url(#SVGID_00000078743966766844134460000000496672114557384322_);}
	.st2{fill:url(#SVGID_00000065061862777524067140000006971604284003466624_);}
	.st3{fill:url(#SVGID_00000114757593105974071040000007384836795128117164_);}
	.st4{fill:url(#SVGID_00000144310660871389254710000002311757076216793479_);}
	.st5{fill:url(#SVGID_00000039854719920595258050000010105191588740958101_);}
	.st6{fill:#FFFFFF;}
</style>
<linearGradient id="SVGID_1_" gradientUnits="userSpaceOnUse" x1="180.3708" y1="70.3301" x2="150.8241" y2="41.2451" gradientTransform="matrix(1 0 0 -1 0 122)">
	<stop  offset="0.4205" style="stop-color:#FB8801"/>
	<stop  offset="1" style="stop-color:#955101"/>
</linearGradient>
<path class="st0" d="M159.3,92.9l19.8-11.3l16.3-9.3c1.9-1.1,2.6-3.5,1.3-5.4c-8.1-12.4-19.4-23.6-32-31.6c-1.8-1.1-4.1-0.6-5.2,1.2
	l-1.2,1.9l-8.3,14.3L139,72.6c8,4.7,15.1,11.5,19.9,19.4L159.3,92.9z"/>
<linearGradient id="SVGID_00000119810414226049334470000015465809628568535440_" gradientUnits="userSpaceOnUse" x1="83.8831" y1="101.4793" x2="97.1607" y2="52.0809" gradientTransform="matrix(1 0 0 -1 0 122)">
	<stop  offset="0.2227" style="stop-color:#1EE2E2"/>
	<stop  offset="1" style="stop-color:#107C7C"/>
</linearGradient>
<path style="fill:url(#SVGID_00000119810414226049334470000015465809628568535440_);" d="M82.2,72.7c7.9-4.4,19.9-7.3,29.5-7.4
	c0,0,0-13.8,0-22.6c0-5.9,0-13.9,0-18.6c0-2.2-1.8-3.9-3.9-3.8c-15.5,0.7-31.9,5-44.9,11.5c-2,1-2.6,3.4-1.5,5.3l9.4,16.1L82.2,72.7
	z"/>
<linearGradient id="SVGID_00000122699024987475819340000000204787078257640841_" gradientUnits="userSpaceOnUse" x1="138.4827" y1="101.9582" x2="125.0944" y2="53.9448" gradientTransform="matrix(1 0 0 -1 0 122)">
	<stop  offset="0.5438" style="stop-color:#EAC737"/>
	<stop  offset="1" style="stop-color:#84701F"/>
</linearGradient>
<path style="fill:url(#SVGID_00000122699024987475819340000000204787078257640841_);" d="M111.8,65.2c9.6,0.2,19.3,3,27.2,7.4
	l11.5-19.9l9.2-16.4c1.1-1.9,0.4-4.3-1.5-5.3c-12.8-6.5-27.3-10.7-42.5-11.4c-2.2-0.1-4,1.7-4,3.8v18.7V65.2z"/>
<linearGradient id="SVGID_00000159456893366749404510000001613403859098315144_" gradientUnits="userSpaceOnUse" x1="40.3168" y1="70.6118" x2="76.5781" y2="38.0696" gradientTransform="matrix(1 0 0 -1 0 122)">
	<stop  offset="0" style="stop-color:#BCB6F7"/>
	<stop  offset="1" style="stop-color:#6E6B91"/>
</linearGradient>
<path style="fill:url(#SVGID_00000159456893366749404510000001613403859098315144_);" d="M62.2,92.5C67,84.5,75,77.1,83,72.2
	L71.5,52.4L62,36c-1.1-1.9-3.5-2.5-5.3-1.4C44,42.7,31.4,54.2,23.1,66.8c-1.2,1.9-0.6,4.3,1.3,5.4l16.4,9.5l20.7,12L62.2,92.5z"/>
<linearGradient id="SVGID_00000145056148382945325510000008519544780754621374_" gradientUnits="userSpaceOnUse" x1="16.3979" y1="26.6878" x2="61.6331" y2="11.6092" gradientTransform="matrix(1 0 0 -1 0 122)">
	<stop  offset="0" style="stop-color:#999696"/>
	<stop  offset="1" style="stop-color:#333232"/>
</linearGradient>
<path style="fill:url(#SVGID_00000145056148382945325510000008519544780754621374_);" d="M53.7,120.1c0.2-9.5,3.8-19.3,8.2-27.1
	L41.4,81.5L25.1,72c-1.9-1.1-4.2-0.4-5.2,1.5c-6.5,12.6-10.5,27.6-11.3,42.6c-0.1,2.2,1.6,3.9,3.8,3.9h18.7H53.7z"/>
<linearGradient id="SVGID_00000014614300389986769150000009560495298104938900_" gradientUnits="userSpaceOnUse" x1="210.1363" y1="28.5997" x2="168.5863" y2="13.3646" gradientTransform="matrix(1 0 0 -1 0 122)">
	<stop  offset="0" style="stop-color:#F70000"/>
	<stop  offset="1" style="stop-color:#910000"/>
</linearGradient>
<path style="fill:url(#SVGID_00000014614300389986769150000009560495298104938900_);" d="M159.3,92.9c4.4,7.8,7.5,17.8,7.6,27.4
	h41.8c2.2,0,3.9-1.8,3.8-4c-0.8-15.1-5-29.9-11.6-42.6c-1-1.9-3.4-2.6-5.3-1.5l-16.9,9.6L159.3,92.9z"/>
<path class="st6" d="M29.8,93.2c0.1-0.5,0.4-0.8,0.7-1c0.3-0.2,0.8-0.2,1.4,0l3,0.8l-0.2,0.8L31.8,93c-0.4-0.1-0.6-0.1-0.9,0
	c-0.2,0.1-0.4,0.3-0.4,0.6c-0.1,0.4-0.1,0.7,0.1,1c0.2,0.2,0.5,0.4,1,0.6l2.5,0.7l-0.2,0.8L31,95.9c-0.2-0.1-0.4-0.1-0.6-0.1
	c-0.2,0-0.3,0.1-0.4,0.2c-0.1,0.1-0.2,0.3-0.3,0.5c-0.1,0.3-0.1,0.5,0,0.7c0.1,0.2,0.2,0.4,0.4,0.5c0.2,0.1,0.5,0.3,0.8,0.4l2.3,0.6
	L33,99.5l-4.5-1.3l0.2-0.7l0.7,0.1l0,0c-0.1-0.1-0.2-0.3-0.3-0.4C29,97,29,96.8,29,96.6c0-0.2,0-0.4,0.1-0.6
	c0.1-0.3,0.2-0.6,0.4-0.8c0.2-0.2,0.4-0.3,0.7-0.4l0-0.1c-0.2-0.2-0.3-0.5-0.4-0.8C29.7,93.8,29.8,93.5,29.8,93.2z"/>
<path class="st6" d="M28.1,99.7l4.5,1.3l-0.2,0.8l-4.5-1.3L28.1,99.7z M26.3,99.6c0-0.1,0.1-0.2,0.2-0.3c0.1-0.1,0.2-0.1,0.4,0
	c0.2,0,0.3,0.1,0.3,0.2c0.1,0.1,0.1,0.2,0,0.4c0,0.1-0.1,0.2-0.2,0.3c-0.1,0.1-0.2,0.1-0.4,0c-0.2,0-0.3-0.1-0.3-0.2
	C26.3,99.8,26.3,99.7,26.3,99.6z"/>
<path class="st6" d="M29,102.1c0.7,0.2,1.2,0.5,1.6,0.8c0.4,0.4,0.6,0.8,0.7,1.4c0.1,0.5,0,1.1-0.1,1.8l-0.5,1.6l-6-1.7l0.5-1.8
	c0.2-0.6,0.4-1.1,0.8-1.5c0.3-0.4,0.8-0.6,1.3-0.8C27.8,101.9,28.4,101.9,29,102.1z M28.8,103c-0.5-0.1-1-0.2-1.3-0.1
	c-0.4,0.1-0.7,0.3-0.9,0.5c-0.3,0.3-0.4,0.6-0.6,1.1l-0.3,0.9l4.6,1.3l0.2-0.8c0.2-0.8,0.2-1.4-0.1-1.9
	C30.1,103.6,29.6,103.2,28.8,103z"/>
<path class="st6" d="M98.9,51.9c0.4-0.1,0.8-0.1,1.1,0c0.3,0.1,0.6,0.3,0.9,0.5c0.2,0.3,0.4,0.6,0.5,1l0.1,0.5l-3.1,0.9
	c0.1,0.5,0.4,0.8,0.7,1c0.3,0.2,0.7,0.2,1.1,0.1c0.3-0.1,0.5-0.2,0.7-0.3c0.2-0.1,0.4-0.3,0.6-0.4l0.2,0.7c-0.2,0.2-0.4,0.3-0.6,0.4
	c-0.2,0.1-0.5,0.2-0.8,0.3c-0.4,0.1-0.8,0.1-1.2,0.1c-0.4-0.1-0.7-0.3-1-0.6c-0.3-0.3-0.5-0.7-0.6-1.2c-0.1-0.5-0.2-0.9-0.1-1.3
	c0.1-0.4,0.2-0.7,0.5-1C98.1,52.2,98.5,52,98.9,51.9z M99.1,52.6c-0.3,0.1-0.6,0.3-0.7,0.6c-0.1,0.3-0.2,0.6-0.1,1l2.2-0.6
	c-0.1-0.2-0.2-0.5-0.3-0.6c-0.1-0.2-0.3-0.3-0.5-0.3C99.5,52.5,99.3,52.5,99.1,52.6z"/>
<path class="st6" d="M96.7,56.9c0.1,0,0.2-0.1,0.3-0.1c0.1-0.1,0.2-0.1,0.3-0.2l0.2,0.6c-0.1,0.1-0.2,0.1-0.3,0.2
	c-0.1,0.1-0.3,0.1-0.5,0.2c-0.2,0.1-0.5,0.1-0.7,0.1c-0.2,0-0.4-0.1-0.6-0.3c-0.2-0.2-0.3-0.4-0.4-0.8L94.2,54l-0.6,0.2l-0.1-0.4
	l0.6-0.5l0-1.1l0.5-0.1l0.3,1l1.3-0.4l0.2,0.6l-1.3,0.4l0.7,2.5c0.1,0.3,0.2,0.4,0.3,0.5C96.3,56.9,96.5,56.9,96.7,56.9z"/>
<path class="st6" d="M90.9,54.2c0.6-0.2,1-0.2,1.4,0c0.3,0.2,0.6,0.5,0.8,1l0.9,3l-0.6,0.2L93,57.9l0,0c-0.1,0.2-0.2,0.4-0.3,0.5
	c-0.1,0.1-0.2,0.3-0.4,0.4c-0.2,0.1-0.4,0.2-0.6,0.3c-0.3,0.1-0.5,0.1-0.8,0.1c-0.2,0-0.5-0.1-0.6-0.3c-0.2-0.2-0.3-0.4-0.4-0.7
	c-0.1-0.5-0.1-0.9,0.2-1.2c0.3-0.3,0.8-0.6,1.5-0.8l0.8-0.3l-0.1-0.3c-0.1-0.4-0.3-0.6-0.5-0.7c-0.2-0.1-0.4-0.1-0.7,0
	c-0.2,0.1-0.4,0.2-0.6,0.3c-0.2,0.1-0.4,0.3-0.5,0.4L89.5,55c0.2-0.2,0.4-0.3,0.6-0.5C90.4,54.4,90.6,54.3,90.9,54.2z M92.5,56.4
	l-0.6,0.2c-0.5,0.2-0.9,0.4-1,0.6c-0.2,0.2-0.2,0.5-0.1,0.7c0.1,0.2,0.2,0.4,0.4,0.5c0.2,0.1,0.4,0.1,0.6,0c0.4-0.1,0.6-0.3,0.8-0.6
	c0.2-0.3,0.2-0.6,0.1-1L92.5,56.4z"/>
<path class="st6" d="M103.7,37.1c0.1,0,0.2,0,0.3-0.1c0.1,0,0.2,0,0.3,0l0.1,0.8c-0.1,0-0.2,0-0.2,0c-0.1,0-0.2,0-0.2,0.1
	c-0.2,0.1-0.3,0.1-0.5,0.2c-0.1,0.1-0.3,0.2-0.3,0.4c-0.1,0.2-0.1,0.3-0.1,0.5c0,0.2,0,0.4,0.1,0.6l0.7,2.4l-0.8,0.2l-1.3-4.5
	l0.7-0.2l0.3,0.8l0,0c0-0.2,0.1-0.4,0.2-0.5c0.1-0.2,0.2-0.3,0.4-0.5C103.3,37.2,103.4,37.1,103.7,37.1z"/>
<path class="st6" d="M98.5,38.6c0.4-0.1,0.8-0.1,1.1,0c0.3,0.1,0.6,0.3,0.9,0.5c0.2,0.3,0.4,0.6,0.5,1l0.1,0.5L98,41.4
	c0.1,0.5,0.4,0.8,0.7,1c0.3,0.2,0.7,0.2,1.1,0.1c0.3-0.1,0.5-0.2,0.7-0.3c0.2-0.1,0.4-0.3,0.6-0.4l0.2,0.7c-0.2,0.2-0.4,0.3-0.6,0.4
	c-0.2,0.1-0.5,0.2-0.8,0.3c-0.4,0.1-0.8,0.1-1.2,0.1c-0.4-0.1-0.7-0.3-1-0.6c-0.3-0.3-0.5-0.7-0.6-1.2C97,41,97,40.6,97,40.2
	c0.1-0.4,0.2-0.7,0.5-1C97.7,38.9,98.1,38.7,98.5,38.6z M98.7,39.2c-0.3,0.1-0.6,0.3-0.7,0.6c-0.1,0.3-0.2,0.6-0.1,1l2.2-0.6
	c-0.1-0.2-0.2-0.5-0.3-0.6c-0.1-0.2-0.3-0.3-0.5-0.3C99.1,39.1,98.9,39.1,98.7,39.2z"/>
<path class="st6" d="M94.5,44.8c-0.6,0.2-1,0.1-1.5-0.2c-0.4-0.3-0.8-0.8-1-1.6c-0.2-0.8-0.2-1.4,0-1.9c0.2-0.5,0.6-0.8,1.2-1
	c0.2-0.1,0.4-0.1,0.6-0.1c0.2,0,0.4,0.1,0.5,0.1c0.2,0.1,0.3,0.2,0.4,0.3l0,0c0-0.1-0.1-0.2-0.1-0.3c-0.1-0.1-0.1-0.3-0.1-0.4L94,38
	l0.8-0.2l1.9,6.4L96,44.3l-0.3-0.6l0,0c0,0.2-0.1,0.3-0.2,0.5c-0.1,0.1-0.2,0.3-0.4,0.4C94.9,44.6,94.7,44.7,94.5,44.8z M94.5,44.1
	c0.4-0.1,0.7-0.3,0.8-0.7c0.1-0.3,0.1-0.7,0-1.2l0-0.1c-0.2-0.5-0.4-0.9-0.6-1.2c-0.3-0.2-0.6-0.3-1.1-0.2c-0.4,0.1-0.6,0.3-0.7,0.7
	c-0.1,0.4-0.1,0.8,0.1,1.3c0.2,0.5,0.4,0.9,0.6,1.1C93.7,44.1,94.1,44.2,94.5,44.1z"/>
<path class="st6" d="M91.1,43.2c0.1,0.4,0.2,0.7,0.1,1c0,0.3-0.1,0.6-0.2,0.9c-0.1,0.3-0.3,0.5-0.5,0.6c-0.2,0.2-0.5,0.3-0.8,0.4
	c-0.3,0.1-0.6,0.1-0.9,0.1c-0.3,0-0.5-0.1-0.8-0.3c-0.2-0.1-0.5-0.4-0.6-0.6c-0.2-0.3-0.3-0.6-0.4-0.9c-0.1-0.5-0.2-0.9-0.1-1.3
	c0.1-0.4,0.2-0.7,0.5-1c0.3-0.3,0.6-0.5,1-0.6c0.4-0.1,0.8-0.1,1.2,0c0.4,0.1,0.7,0.3,1,0.6C90.7,42.3,90.9,42.7,91.1,43.2z
	 M87.7,44.2c0.1,0.3,0.2,0.6,0.4,0.9c0.2,0.2,0.4,0.4,0.6,0.5c0.2,0.1,0.5,0.1,0.8,0c0.3-0.1,0.5-0.2,0.6-0.4
	c0.1-0.2,0.2-0.4,0.2-0.7c0-0.3,0-0.6-0.1-0.9c-0.1-0.3-0.2-0.6-0.4-0.8c-0.2-0.2-0.4-0.4-0.6-0.4c-0.2-0.1-0.5-0.1-0.8,0
	c-0.4,0.1-0.7,0.4-0.8,0.7C87.6,43.2,87.6,43.7,87.7,44.2z"/>
<path class="st6" d="M82.9,48l-3.4-4.6l0,0c0,0.1,0.1,0.3,0.2,0.4c0.1,0.2,0.1,0.4,0.2,0.6c0.1,0.2,0.1,0.4,0.2,0.6l1,3.5l-0.8,0.2
	l-1.7-6l1.2-0.3l3.2,4.4l0,0l0.4-5.4l1.2-0.3l1.7,6l-0.8,0.2l-1-3.6c-0.1-0.2-0.1-0.4-0.2-0.6c-0.1-0.2-0.1-0.4-0.1-0.6
	c0-0.2-0.1-0.3-0.1-0.4l0,0l-0.4,5.7L82.9,48z"/>
<path class="st6" d="M146,46.2c0.1,0,0.2,0,0.4,0c0.1,0,0.2,0,0.3,0l-0.1,0.6c-0.1,0-0.2,0-0.4,0c-0.2,0-0.3,0-0.5-0.1
	c-0.3-0.1-0.5-0.1-0.7-0.3c-0.2-0.1-0.3-0.3-0.4-0.5c-0.1-0.2-0.1-0.5,0-0.9l0.6-2.6l-0.6-0.1l0.1-0.4l0.7-0.2l0.5-0.9l0.5,0.1
	l-0.2,1l1.3,0.3l-0.1,0.6l-1.3-0.3l-0.6,2.6c-0.1,0.3,0,0.5,0.1,0.6C145.6,46,145.8,46.1,146,46.2z"/>
<path class="st6" d="M141.2,39l-0.4,1.8c0,0.1-0.1,0.3-0.1,0.4c0,0.1-0.1,0.2-0.1,0.3l0.1,0c0.1-0.1,0.3-0.2,0.4-0.3
	c0.2-0.1,0.3-0.1,0.5-0.1c0.2,0,0.4,0,0.6,0c0.4,0.1,0.6,0.2,0.9,0.4c0.2,0.2,0.4,0.4,0.4,0.7c0.1,0.3,0.1,0.6,0,1l-0.6,3l-0.8-0.2
	l0.6-2.9c0.1-0.4,0.1-0.7-0.1-0.9c-0.1-0.2-0.3-0.4-0.7-0.4c-0.3-0.1-0.6-0.1-0.8,0c-0.2,0.1-0.4,0.2-0.5,0.5
	c-0.1,0.2-0.2,0.5-0.3,0.9l-0.5,2.3l-0.8-0.2l1.4-6.5L141.2,39z"/>
<path class="st6" d="M135.1,46.6c-0.6-0.1-1.1-0.3-1.3-0.6c-0.3-0.3-0.4-0.6-0.3-1c0.1-0.3,0.2-0.5,0.4-0.7c0.2-0.2,0.5-0.2,0.8-0.2
	c-0.1-0.1-0.2-0.2-0.3-0.3c-0.1-0.1-0.1-0.3,0-0.4c0-0.2,0.1-0.3,0.2-0.4c0.1-0.1,0.3-0.2,0.5-0.3c-0.2-0.2-0.4-0.4-0.5-0.6
	c-0.1-0.3-0.1-0.6,0-0.9c0.1-0.3,0.2-0.6,0.4-0.8c0.2-0.2,0.4-0.3,0.7-0.4s0.6-0.1,1,0c0.1,0,0.2,0,0.3,0.1c0.1,0,0.2,0.1,0.2,0.1
	c0.1,0,0.1,0.1,0.2,0.1l1.6,0.3l-0.1,0.5l-0.8,0c0.1,0.1,0.1,0.3,0.1,0.4c0,0.2,0,0.3,0,0.5c-0.1,0.5-0.3,0.8-0.7,1
	c-0.4,0.2-0.8,0.2-1.4,0.1c-0.1,0-0.3-0.1-0.4-0.1c-0.1,0-0.2,0.1-0.3,0.2c-0.1,0.1-0.1,0.2-0.2,0.3c0,0.1,0,0.2,0,0.2
	c0,0.1,0.1,0.1,0.2,0.2c0.1,0,0.2,0.1,0.4,0.1l0.8,0.2c0.5,0.1,0.9,0.3,1.1,0.6c0.2,0.3,0.3,0.6,0.2,1c-0.1,0.5-0.4,0.9-0.9,1.1
	C136.5,46.8,135.9,46.8,135.1,46.6z M135.3,46c0.4,0.1,0.7,0.1,0.9,0.1c0.3,0,0.5-0.1,0.6-0.2c0.2-0.1,0.2-0.3,0.3-0.4
	c0-0.2,0-0.3,0-0.4c-0.1-0.1-0.2-0.2-0.3-0.2c-0.1-0.1-0.3-0.1-0.6-0.2l-0.8-0.2c-0.2,0-0.4,0-0.5,0c-0.2,0-0.3,0.1-0.4,0.2
	c-0.1,0.1-0.2,0.2-0.2,0.4c0,0.2,0,0.4,0.2,0.6C134.6,45.8,134.9,45.9,135.3,46z M136.2,42.4c0.3,0.1,0.6,0,0.7-0.1
	c0.2-0.1,0.3-0.3,0.4-0.7c0.1-0.3,0-0.6-0.1-0.8c-0.1-0.2-0.3-0.3-0.6-0.4c-0.3-0.1-0.5,0-0.7,0.1c-0.2,0.1-0.3,0.4-0.4,0.7
	c-0.1,0.3,0,0.5,0.1,0.7C135.7,42.2,135.9,42.4,136.2,42.4z"/>
<path class="st6" d="M133.8,39.4l-1,4.6l-0.8-0.2l1-4.6L133.8,39.4z M133.8,37.6c0.1,0,0.2,0.1,0.3,0.2c0.1,0.1,0.1,0.2,0.1,0.4
	c0,0.2-0.1,0.3-0.2,0.4c-0.1,0.1-0.2,0.1-0.4,0c-0.1,0-0.2-0.1-0.3-0.2c-0.1-0.1-0.1-0.2-0.1-0.4c0-0.2,0.1-0.3,0.2-0.3
	C133.5,37.6,133.6,37.5,133.8,37.6z"/>
<path class="st6" d="M131.6,38.8c0.1,0,0.2,0,0.3,0.1c0.1,0,0.2,0.1,0.2,0.1l-0.3,0.8c-0.1,0-0.1-0.1-0.2-0.1
	c-0.1,0-0.2-0.1-0.2-0.1c-0.2,0-0.4,0-0.5,0c-0.2,0-0.3,0.1-0.5,0.2c-0.1,0.1-0.3,0.2-0.4,0.4c-0.1,0.2-0.2,0.4-0.2,0.6l-0.5,2.4
	l-0.8-0.2l1-4.6l0.7,0.1l-0.1,0.8l0,0c0.1-0.1,0.3-0.3,0.4-0.4c0.2-0.1,0.3-0.2,0.5-0.2C131.2,38.8,131.4,38.8,131.6,38.8z"/>
<path class="st6" d="M124.2,35.8l1.8,0.4c0.8,0.2,1.3,0.4,1.7,0.7c0.3,0.3,0.5,0.7,0.3,1.3c-0.1,0.2-0.1,0.4-0.3,0.6
	c-0.1,0.2-0.3,0.3-0.5,0.4c-0.2,0.1-0.4,0.1-0.7,0.1l0,0c0.2,0.1,0.4,0.2,0.6,0.4c0.2,0.1,0.3,0.3,0.4,0.6c0.1,0.2,0.1,0.5,0,0.8
	c-0.1,0.4-0.2,0.7-0.5,0.9c-0.2,0.2-0.5,0.4-0.9,0.4c-0.3,0.1-0.7,0.1-1.2,0l-2.1-0.5L124.2,35.8z M124.5,38.5l1.1,0.2
	c0.5,0.1,0.8,0.1,1.1,0c0.2-0.1,0.4-0.3,0.4-0.6c0.1-0.3,0-0.6-0.2-0.8c-0.2-0.2-0.5-0.3-1-0.4l-1-0.2L124.5,38.5z M124.4,39.3
	l-0.5,2.1l1.2,0.2c0.5,0.1,0.9,0.1,1.1-0.1c0.3-0.2,0.4-0.4,0.5-0.7c0-0.2,0-0.4,0-0.6c-0.1-0.2-0.2-0.3-0.4-0.4s-0.5-0.2-0.8-0.3
	L124.4,39.3z"/>
<path class="st6" d="M174.1,77c0.1,0.1,0.2,0.2,0.3,0.2c0.1,0.1,0.2,0.1,0.3,0.2l-0.5,0.5c-0.1,0-0.2-0.1-0.3-0.2
	c-0.1-0.1-0.3-0.2-0.4-0.3c-0.2-0.2-0.3-0.4-0.4-0.6s-0.1-0.4,0-0.7c0.1-0.2,0.2-0.5,0.5-0.7l1.9-1.8l-0.5-0.5l0.3-0.3l0.7,0.3
	l0.9-0.5l0.4,0.4l-0.8,0.7l0.9,1l-0.5,0.5l-0.9-1l-1.9,1.8c-0.2,0.2-0.3,0.4-0.3,0.5C173.8,76.7,173.9,76.9,174.1,77z"/>
<path class="st6" d="M174.1,68.4l-1.3,1.3c-0.1,0.1-0.2,0.2-0.3,0.3c-0.1,0.1-0.2,0.2-0.3,0.2l0,0c0.2,0,0.4,0,0.6,0
	c0.2,0,0.4,0.1,0.5,0.2c0.2,0.1,0.3,0.2,0.5,0.4c0.3,0.3,0.4,0.5,0.5,0.8c0.1,0.3,0.1,0.5,0,0.8c-0.1,0.3-0.3,0.5-0.6,0.8l-2.2,2.1
	l-0.6-0.6l2.1-2c0.3-0.3,0.4-0.5,0.4-0.8c0-0.2-0.1-0.5-0.3-0.7c-0.2-0.2-0.5-0.4-0.7-0.4c-0.2-0.1-0.5,0-0.7,0.1
	c-0.2,0.1-0.5,0.3-0.8,0.5l-1.7,1.6l-0.6-0.6l4.8-4.6L174.1,68.4z"/>
<path class="st6" d="M164.8,71.3c-0.4-0.5-0.7-0.9-0.8-1.3c-0.1-0.4,0.1-0.7,0.3-1c0.2-0.2,0.5-0.3,0.7-0.3c0.3,0,0.6,0.1,0.8,0.3
	c0-0.1-0.1-0.3,0-0.4c0-0.1,0.1-0.3,0.2-0.4c0.1-0.1,0.3-0.2,0.4-0.2c0.2,0,0.4,0,0.6,0.1c-0.1-0.2-0.1-0.5,0-0.8
	c0.1-0.3,0.2-0.5,0.4-0.7c0.2-0.2,0.5-0.4,0.8-0.4c0.3-0.1,0.5,0,0.8,0.1c0.3,0.1,0.6,0.3,0.8,0.6c0.1,0.1,0.1,0.1,0.2,0.2
	c0.1,0.1,0.1,0.1,0.2,0.2c0,0.1,0.1,0.1,0.1,0.2l1.1,1.2l-0.4,0.3l-0.7-0.5c0,0.1-0.1,0.3-0.1,0.4c-0.1,0.1-0.2,0.3-0.3,0.4
	c-0.3,0.3-0.7,0.5-1.2,0.4c-0.4,0-0.8-0.3-1.2-0.7c-0.1-0.1-0.2-0.2-0.3-0.3c-0.1,0-0.3-0.1-0.4,0c-0.1,0-0.2,0.1-0.3,0.1
	c-0.1,0.1-0.1,0.1-0.1,0.2c0,0.1,0,0.2,0.1,0.3c0.1,0.1,0.1,0.2,0.2,0.3l0.6,0.6c0.4,0.4,0.5,0.7,0.6,1.1c0,0.3-0.1,0.7-0.4,0.9
	c-0.4,0.4-0.8,0.5-1.3,0.4C165.9,72.2,165.4,71.9,164.8,71.3z M165.3,70.9c0.3,0.3,0.5,0.5,0.7,0.6c0.2,0.1,0.4,0.2,0.6,0.2
	c0.2,0,0.3-0.1,0.5-0.2c0.1-0.1,0.2-0.2,0.2-0.4c0-0.1,0-0.2-0.1-0.4c-0.1-0.1-0.2-0.3-0.4-0.5l-0.5-0.6c-0.1-0.1-0.3-0.2-0.4-0.3
	c-0.1-0.1-0.3-0.1-0.4-0.1c-0.1,0-0.3,0.1-0.4,0.2c-0.2,0.2-0.2,0.4-0.2,0.6C164.9,70.3,165,70.6,165.3,70.9z M168.1,68.5
	c0.2,0.2,0.4,0.3,0.7,0.3c0.2,0,0.5-0.1,0.7-0.3c0.2-0.2,0.4-0.5,0.4-0.7c0-0.2-0.1-0.5-0.3-0.7c-0.2-0.2-0.4-0.3-0.7-0.3
	c-0.2,0-0.5,0.1-0.7,0.3c-0.2,0.2-0.3,0.4-0.3,0.7C167.8,68,167.9,68.2,168.1,68.5z"/>
<path class="st6" d="M167.8,64.6l-3.4,3.2l-0.6-0.6l3.4-3.2L167.8,64.6z M168.8,63.1c0.1,0.1,0.1,0.2,0.2,0.3c0,0.1,0,0.3-0.2,0.4
	c-0.1,0.1-0.3,0.2-0.4,0.2c-0.1,0-0.2-0.1-0.3-0.2c-0.1-0.1-0.1-0.2-0.2-0.3c0-0.1,0.1-0.2,0.2-0.4c0.1-0.1,0.3-0.2,0.4-0.2
	C168.6,62.9,168.7,63,168.8,63.1z"/>
<path class="st6" d="M166.3,62.9c0.1,0.1,0.1,0.1,0.2,0.2c0.1,0.1,0.1,0.1,0.2,0.2l-0.6,0.5c0-0.1-0.1-0.1-0.1-0.2
	c-0.1-0.1-0.1-0.1-0.2-0.2c-0.1-0.1-0.3-0.2-0.4-0.3c-0.2-0.1-0.3-0.1-0.5-0.1c-0.2,0-0.4,0-0.5,0.1c-0.2,0.1-0.4,0.2-0.5,0.4
	l-1.8,1.7l-0.6-0.6l3.4-3.2l0.5,0.5l-0.5,0.7l0,0c0.2,0,0.4-0.1,0.6-0.1c0.2,0,0.4,0,0.6,0.1C166,62.6,166.1,62.8,166.3,62.9z"/>
<path class="st6" d="M161.9,56.3l1.3,1.3c0.5,0.6,0.9,1.1,1,1.5c0.1,0.4,0,0.9-0.5,1.3c-0.2,0.2-0.4,0.3-0.6,0.4
	c-0.2,0.1-0.4,0.1-0.6,0c-0.2,0-0.4-0.1-0.6-0.3l0,0c0.1,0.2,0.2,0.4,0.3,0.6c0.1,0.2,0.1,0.4,0,0.7c-0.1,0.2-0.2,0.4-0.4,0.7
	c-0.3,0.3-0.6,0.4-0.9,0.5c-0.3,0.1-0.6,0-1-0.1c-0.3-0.1-0.6-0.4-1-0.7l-1.5-1.6L161.9,56.3z M160.6,58.7l0.8,0.8
	c0.3,0.4,0.6,0.6,0.9,0.6c0.3,0,0.5-0.1,0.7-0.3c0.2-0.2,0.3-0.5,0.3-0.7c-0.1-0.3-0.3-0.6-0.6-0.9l-0.7-0.7L160.6,58.7z
	 M160.1,59.2l-1.6,1.5l0.8,0.9c0.4,0.4,0.7,0.6,1,0.6c0.3,0,0.6-0.1,0.8-0.3c0.2-0.1,0.3-0.3,0.3-0.5c0-0.2,0-0.4-0.1-0.6
	c-0.1-0.2-0.3-0.4-0.5-0.7L160.1,59.2z"/>
<path class="st6" d="M178.9,62.8l0.6,0.7l-1.3,2.6c-0.1,0.1-0.1,0.3-0.2,0.4c-0.1,0.1-0.1,0.2-0.2,0.3c-0.1,0.1-0.1,0.2-0.2,0.3l0,0
	c0.1-0.1,0.3-0.2,0.5-0.3c0.2-0.1,0.4-0.2,0.6-0.3l2.6-1.2l0.6,0.7l-5.3,2.2c-0.3,0.1-0.6,0.2-0.8,0.2c-0.3,0-0.5,0-0.7-0.1
	c-0.2-0.1-0.5-0.2-0.7-0.4c-0.1-0.1-0.2-0.2-0.2-0.3c-0.1-0.1-0.1-0.2-0.1-0.2l0.5-0.5c0,0.1,0.1,0.1,0.1,0.2
	c0.1,0.1,0.1,0.1,0.2,0.2c0.1,0.1,0.3,0.2,0.4,0.3c0.1,0,0.3,0.1,0.4,0c0.2,0,0.3-0.1,0.5-0.1l0.5-0.2L178.9,62.8z"/>
<path class="st6" d="M178.5,62.3c0.1,0.1,0.1,0.1,0.2,0.2c0.1,0.1,0.1,0.1,0.2,0.2l-0.6,0.5c0-0.1-0.1-0.1-0.1-0.2
	c-0.1-0.1-0.1-0.1-0.2-0.2c-0.1-0.1-0.3-0.2-0.4-0.3c-0.2-0.1-0.3-0.1-0.5-0.1c-0.2,0-0.4,0-0.5,0.1c-0.2,0.1-0.4,0.2-0.5,0.4
	l-1.8,1.7l-0.6-0.6l3.4-3.2l0.5,0.5l-0.5,0.7l0,0c0.2,0,0.4-0.1,0.6-0.1c0.2,0,0.4,0,0.6,0.1C178.2,62,178.3,62.1,178.5,62.3z"/>
<path class="st6" d="M174.8,58.4c0.3,0.3,0.5,0.6,0.5,0.9c0.1,0.3,0.1,0.7-0.1,1c-0.1,0.3-0.3,0.6-0.7,0.9l-0.4,0.3l-2.2-2.3
	c-0.4,0.4-0.5,0.7-0.6,1.1c0,0.4,0.1,0.7,0.4,1c0.2,0.2,0.4,0.4,0.6,0.5c0.2,0.1,0.4,0.2,0.7,0.3l-0.5,0.5c-0.2-0.1-0.5-0.2-0.7-0.4
	c-0.2-0.1-0.4-0.3-0.6-0.6c-0.3-0.3-0.5-0.7-0.6-1.1c-0.1-0.4-0.1-0.7,0-1.1c0.1-0.4,0.4-0.8,0.8-1.1c0.4-0.4,0.8-0.6,1.1-0.7
	c0.4-0.1,0.8-0.1,1.1-0.1C174.1,57.9,174.5,58.1,174.8,58.4z M174.3,58.9c-0.2-0.2-0.5-0.4-0.8-0.4c-0.3,0-0.6,0.1-1,0.4l1.6,1.7
	c0.2-0.2,0.3-0.4,0.4-0.6c0.1-0.2,0.1-0.4,0.1-0.6C174.6,59.2,174.5,59,174.3,58.9z"/>
<path class="st6" d="M174,55.6l-6,2.7l-0.6-0.7l3-5.9l0.6,0.7l-1.9,3.8c-0.1,0.1-0.1,0.3-0.2,0.4c-0.1,0.1-0.2,0.3-0.2,0.4
	c-0.1,0.1-0.2,0.3-0.2,0.4c0.1-0.1,0.2-0.1,0.4-0.2c0.1-0.1,0.3-0.2,0.4-0.2c0.1-0.1,0.3-0.1,0.4-0.2l3.9-1.8L174,55.6z"/>
<path class="st6" d="M10.9,65.8c0.6,0.3,1.1,0.6,1.5,0.9c0.4,0.3,0.8,0.7,1,1c0.2,0.4,0.4,0.8,0.4,1.2c0,0.4-0.1,0.9-0.3,1.3
	c-0.3,0.6-0.7,1-1.2,1.3c-0.5,0.2-1.1,0.3-1.7,0.2c-0.7-0.1-1.4-0.3-2.2-0.7c-0.8-0.4-1.5-0.8-2-1.2c-0.5-0.4-0.8-0.9-0.9-1.5
	s0-1.1,0.3-1.8c0.3-0.6,0.7-1,1.2-1.3C7.4,65.1,8,65,8.7,65.1C9.3,65.2,10.1,65.4,10.9,65.8z M9.1,69.5c0.6,0.3,1.1,0.5,1.5,0.6
	c0.4,0.1,0.7,0.1,1,0.1c0.3-0.1,0.5-0.2,0.6-0.5c0.1-0.3,0.1-0.5,0-0.8c-0.1-0.2-0.3-0.5-0.7-0.7c-0.4-0.2-0.8-0.5-1.4-0.8
	c-0.6-0.3-1.1-0.5-1.5-0.6c-0.4-0.1-0.8-0.1-1-0.1c-0.3,0.1-0.5,0.2-0.6,0.5c-0.1,0.3-0.1,0.5,0,0.8c0.1,0.2,0.4,0.5,0.7,0.7
	C8.1,68.9,8.5,69.2,9.1,69.5z"/>
<path class="st6" d="M8,71.8c0.6,0.3,1.1,0.6,1.5,0.9c0.4,0.3,0.8,0.7,1,1c0.2,0.4,0.4,0.8,0.4,1.2c0,0.4-0.1,0.9-0.3,1.3
	c-0.3,0.6-0.7,1-1.2,1.3c-0.5,0.2-1.1,0.3-1.7,0.2C7,77.7,6.3,77.4,5.5,77c-0.8-0.4-1.5-0.8-2-1.2c-0.5-0.4-0.8-0.9-0.9-1.5
	c-0.1-0.5,0-1.1,0.3-1.8c0.3-0.6,0.7-1,1.2-1.3c0.5-0.2,1.1-0.3,1.7-0.2C6.4,71.2,7.2,71.4,8,71.8z M6.2,75.5
	c0.6,0.3,1.1,0.5,1.5,0.6c0.4,0.1,0.7,0.1,1,0.1c0.3-0.1,0.5-0.2,0.6-0.5c0.1-0.3,0.1-0.5,0-0.8c-0.1-0.2-0.3-0.5-0.7-0.7
	c-0.4-0.2-0.8-0.5-1.4-0.8c-0.6-0.3-1.1-0.5-1.5-0.6c-0.4-0.1-0.8-0.1-1-0.1c-0.3,0.1-0.5,0.2-0.6,0.5C4,73.5,4,73.7,4.1,74
	c0.1,0.2,0.4,0.5,0.7,0.7C5.2,74.9,5.7,75.2,6.2,75.5z"/>
<path class="st6" d="M8.2,80.9l-0.8,1.6l-4.3-2.1c-0.1-0.1-0.3-0.1-0.4-0.2c-0.2-0.1-0.4-0.2-0.5-0.3c-0.2-0.1-0.3-0.2-0.5-0.3
	c0,0.1,0.1,0.2,0.1,0.3c0.1,0.2,0.1,0.3,0.1,0.5l0.3,1.2l-1.3,0.3l-0.8-3.3l0.6-1.3L8.2,80.9z"/>
<path class="st6" d="M18.4,55.3l-2.6,0.2l0.7-1.2l1.7-0.1l-0.8-1.5l0.7-1.2l1.2,2.4l2.8-0.2l-0.7,1.2L19.5,55l0.9,1.6l-0.7,1.2
	L18.4,55.3z"/>
<path class="st6" d="M15.4,56.2l4,2.2l-0.5,0.8l-0.6-0.1l0,0.1c0.1,0.2,0.1,0.3,0.2,0.5c0,0.2,0,0.4,0,0.5c0,0.2-0.1,0.3-0.2,0.5
	c-0.2,0.3-0.3,0.5-0.6,0.7c-0.2,0.2-0.5,0.2-0.7,0.2c-0.3,0-0.6-0.1-0.9-0.3l-2.6-1.4l0.6-1.1l2.3,1.3c0.3,0.2,0.5,0.2,0.7,0.2
	c0.2,0,0.4-0.1,0.5-0.4c0.1-0.2,0.2-0.4,0.1-0.6c0-0.2-0.1-0.4-0.3-0.5c-0.2-0.2-0.4-0.3-0.7-0.5l-1.9-1L15.4,56.2z"/>
<path class="st6" d="M15.1,66.1l-5.2-2.9l0.6-1.1l4.3,2.4l1.2-2.1l0.9,0.5L15.1,66.1z"/>
<path class="st6" d="M58.4,20.1c0.4,0.6,0.7,1.1,0.9,1.6c0.2,0.5,0.3,1,0.3,1.4c0,0.4-0.1,0.8-0.3,1.2c-0.2,0.4-0.5,0.7-1,1
	c-0.6,0.4-1.1,0.5-1.6,0.5c-0.5,0-1.1-0.3-1.6-0.7c-0.5-0.4-1-1-1.5-1.7c-0.5-0.7-0.8-1.4-1-2.1c-0.2-0.6-0.2-1.2-0.1-1.7
	c0.2-0.5,0.5-1,1.1-1.4c0.6-0.4,1.1-0.5,1.6-0.5c0.5,0,1.1,0.3,1.6,0.7C57.4,18.8,57.9,19.4,58.4,20.1z M55,22.4
	c0.4,0.5,0.7,0.9,1,1.3c0.3,0.3,0.6,0.5,0.8,0.6c0.3,0.1,0.5,0,0.8-0.1c0.2-0.2,0.4-0.4,0.4-0.6c0-0.3-0.1-0.6-0.2-1
	c-0.2-0.4-0.4-0.9-0.8-1.4c-0.4-0.5-0.7-0.9-1-1.3c-0.3-0.3-0.6-0.5-0.8-0.6c-0.3-0.1-0.5,0-0.8,0.1C54.1,19.5,54,19.7,54,20
	c0,0.3,0.1,0.6,0.2,1C54.4,21.4,54.7,21.9,55,22.4z"/>
<path class="st6" d="M52.9,23.8c0.4,0.6,0.7,1.1,0.9,1.6c0.2,0.5,0.3,1,0.3,1.4c0,0.4-0.1,0.8-0.3,1.2c-0.2,0.4-0.5,0.7-1,1
	c-0.6,0.4-1.1,0.5-1.6,0.5c-0.5,0-1.1-0.3-1.6-0.7c-0.5-0.4-1-1-1.5-1.7c-0.5-0.7-0.8-1.4-1-2.1c-0.2-0.6-0.2-1.2-0.1-1.7
	s0.5-1,1.1-1.4c0.6-0.4,1.1-0.5,1.6-0.5c0.5,0,1.1,0.3,1.6,0.7C51.9,22.5,52.4,23.1,52.9,23.8z M49.5,26.1c0.4,0.5,0.7,0.9,1,1.3
	c0.3,0.3,0.6,0.5,0.8,0.6c0.3,0.1,0.5,0,0.8-0.1c0.2-0.2,0.4-0.4,0.4-0.6c0-0.3-0.1-0.6-0.2-1c-0.2-0.4-0.4-0.9-0.8-1.4
	c-0.4-0.5-0.7-0.9-1-1.3c-0.3-0.3-0.6-0.5-0.8-0.6c-0.3-0.1-0.5,0-0.8,0.1c-0.2,0.2-0.4,0.4-0.4,0.7c0,0.3,0.1,0.6,0.2,1
	C48.9,25.1,49.1,25.5,49.5,26.1z"/>
<path class="st6" d="M44.4,28.1c0.4-0.3,0.9-0.5,1.3-0.5c0.4-0.1,0.9,0,1.3,0.2c0.4,0.2,0.7,0.5,1.1,1c0.3,0.5,0.5,1,0.5,1.5
	c0,0.5-0.1,1-0.4,1.4c-0.3,0.5-0.7,0.9-1.3,1.3c-0.4,0.2-0.7,0.4-1.1,0.6c-0.4,0.2-0.7,0.2-1,0.3l-0.8-1.3c0.3,0,0.7-0.1,1.1-0.3
	c0.4-0.1,0.7-0.3,1-0.5c0.3-0.2,0.5-0.4,0.7-0.6c0.1-0.2,0.2-0.4,0.2-0.7c0-0.2-0.1-0.5-0.3-0.7c-0.2-0.3-0.5-0.5-0.9-0.5
	c-0.3,0-0.8,0.1-1.2,0.4c-0.2,0.1-0.4,0.3-0.5,0.4c-0.2,0.2-0.3,0.3-0.4,0.4l-0.8,0.1l-2.1-3.7l3.7-2.5l0.8,1.2l-2.5,1.6l0.8,1.4
	c0.1-0.1,0.2-0.2,0.3-0.3C44,28.3,44.2,28.2,44.4,28.1z"/>
<path class="st6" d="M70.6,16.3l-2.2-1.5l1.3-0.6l1.4,1l0.2-1.7l1.3-0.6l-0.5,2.6l2.3,1.5l-1.3,0.6l-1.5-1l-0.3,1.8l-1.3,0.6
	L70.6,16.3z"/>
<path class="st6" d="M67.6,15.2l1.8,4.2l-0.9,0.4l-0.4-0.5l-0.1,0c0,0.2-0.1,0.3-0.2,0.5c-0.1,0.1-0.2,0.3-0.4,0.4
	c-0.1,0.1-0.3,0.2-0.5,0.3c-0.3,0.1-0.6,0.2-0.8,0.2c-0.3,0-0.5-0.1-0.7-0.3c-0.2-0.2-0.4-0.4-0.6-0.8l-1.2-2.7l1.1-0.5l1.1,2.4
	c0.1,0.3,0.3,0.5,0.5,0.6c0.2,0.1,0.4,0.1,0.6,0c0.2-0.1,0.4-0.2,0.5-0.4c0.1-0.2,0.1-0.4,0.1-0.6c0-0.2-0.1-0.5-0.2-0.8l-0.8-2
	L67.6,15.2z"/>
<path class="st6" d="M61.4,22.8L59,17.4l1.2-0.5l1.9,4.5l2.2-1l0.4,1L61.4,22.8z"/>
<path class="st6" d="M120.3,8.8c0,0.7,0,1.3-0.1,1.8c-0.1,0.5-0.3,1-0.5,1.3c-0.2,0.4-0.5,0.6-0.9,0.8c-0.4,0.2-0.8,0.3-1.3,0.3
	c-0.7,0-1.2-0.2-1.6-0.5c-0.4-0.3-0.7-0.8-1-1.5c-0.2-0.6-0.3-1.4-0.3-2.3c0-0.9,0.1-1.7,0.3-2.3c0.2-0.6,0.5-1.1,0.9-1.5
	c0.4-0.3,1-0.5,1.7-0.5c0.7,0,1.2,0.2,1.6,0.5c0.4,0.3,0.8,0.8,1,1.5C120.2,7.1,120.3,7.9,120.3,8.8z M116.3,8.8
	c0,0.6,0,1.2,0.1,1.6c0.1,0.4,0.2,0.7,0.4,0.9c0.2,0.2,0.4,0.3,0.7,0.3c0.3,0,0.5-0.1,0.7-0.3c0.2-0.2,0.3-0.5,0.4-0.9
	c0.1-0.4,0.1-1,0.1-1.6c0-0.6,0-1.2-0.1-1.6c-0.1-0.4-0.2-0.7-0.4-1c-0.2-0.2-0.4-0.3-0.7-0.3c-0.3,0-0.5,0.1-0.7,0.3
	c-0.2,0.2-0.3,0.5-0.4,1C116.3,7.7,116.3,8.2,116.3,8.8z"/>
<path class="st6" d="M113.7,8.8c0,0.7,0,1.3-0.1,1.8c-0.1,0.5-0.3,1-0.5,1.3c-0.2,0.4-0.5,0.6-0.9,0.8c-0.4,0.2-0.8,0.3-1.3,0.3
	c-0.7,0-1.2-0.2-1.6-0.5c-0.4-0.3-0.7-0.8-1-1.5c-0.2-0.6-0.3-1.4-0.3-2.3c0-0.9,0.1-1.7,0.3-2.3c0.2-0.6,0.5-1.1,0.9-1.5
	c0.4-0.3,1-0.5,1.7-0.5c0.7,0,1.2,0.2,1.6,0.5c0.4,0.3,0.8,0.8,1,1.5C113.6,7.2,113.7,7.9,113.7,8.8z M109.6,8.9
	c0,0.6,0,1.2,0.1,1.6c0.1,0.4,0.2,0.7,0.4,0.9c0.2,0.2,0.4,0.3,0.7,0.3c0.3,0,0.5-0.1,0.7-0.3c0.2-0.2,0.3-0.5,0.4-0.9
	c0.1-0.4,0.1-1,0.1-1.6c0-0.6,0-1.2-0.1-1.6c-0.1-0.4-0.2-0.7-0.4-1c-0.2-0.2-0.4-0.3-0.7-0.3c-0.3,0-0.5,0.1-0.7,0.3
	c-0.2,0.2-0.3,0.5-0.4,1C109.7,7.7,109.6,8.2,109.6,8.9z"/>
<path class="st6" d="M107,8.9c0,0.7,0,1.3-0.1,1.8c-0.1,0.5-0.3,1-0.5,1.3c-0.2,0.4-0.5,0.6-0.9,0.8c-0.4,0.2-0.8,0.3-1.3,0.3
	c-0.7,0-1.2-0.2-1.6-0.5c-0.4-0.3-0.7-0.8-1-1.5c-0.2-0.6-0.3-1.4-0.3-2.3c0-0.9,0.1-1.7,0.3-2.3c0.2-0.6,0.5-1.1,0.9-1.5
	c0.4-0.3,1-0.5,1.7-0.5c0.7,0,1.2,0.2,1.6,0.5c0.4,0.3,0.8,0.8,1,1.5C106.9,7.2,107,8,107,8.9z M103,8.9c0,0.6,0,1.2,0.1,1.6
	c0.1,0.4,0.2,0.7,0.4,0.9c0.2,0.2,0.4,0.3,0.7,0.3c0.3,0,0.5-0.1,0.7-0.3c0.2-0.2,0.3-0.5,0.4-0.9c0.1-0.4,0.1-1,0.1-1.6
	c0-0.6,0-1.2-0.1-1.6s-0.2-0.7-0.4-1c-0.2-0.2-0.4-0.3-0.7-0.3c-0.3,0-0.5,0.1-0.7,0.3c-0.2,0.2-0.3,0.5-0.4,1
	C103,7.7,103,8.3,103,8.9z"/>
<path class="st6" d="M100.5,13.1l-5.8,0l0-1.2l2.1-2.1c0.4-0.4,0.8-0.8,1-1.1c0.3-0.3,0.4-0.6,0.6-0.8c0.1-0.2,0.2-0.5,0.2-0.8
	c0-0.3-0.1-0.6-0.3-0.7c-0.2-0.2-0.4-0.2-0.7-0.2c-0.3,0-0.6,0.1-0.9,0.2S95.9,6.7,95.5,7l-1-1.1c0.2-0.2,0.5-0.4,0.8-0.6
	c0.3-0.2,0.6-0.3,0.9-0.4c0.4-0.1,0.8-0.2,1.3-0.2c0.5,0,1,0.1,1.4,0.3c0.4,0.2,0.7,0.5,0.9,0.8c0.2,0.3,0.3,0.7,0.3,1.1
	c0,0.5-0.1,0.9-0.3,1.3c-0.2,0.4-0.4,0.8-0.8,1.1c-0.3,0.4-0.8,0.8-1.2,1.2l-1.1,1v0.1l3.6,0L100.5,13.1z"/>
<path class="st6" d="M132.6,11.4L131.5,9l1.4,0.2l0.7,1.6l1.1-1.3l1.4,0.2l-1.8,2l1.2,2.5L134,14l-0.7-1.7l-1.2,1.4l-1.4-0.2
	L132.6,11.4z"/>
<path class="st6" d="M130.7,8.9l-0.7,4.5l-0.9-0.1l-0.1-0.6l-0.1,0c-0.1,0.1-0.3,0.2-0.4,0.3c-0.2,0.1-0.3,0.1-0.5,0.1
	c-0.2,0-0.4,0-0.6,0c-0.3,0-0.6-0.1-0.8-0.3c-0.2-0.1-0.4-0.4-0.5-0.6c-0.1-0.3-0.1-0.6-0.1-1l0.4-2.9l1.2,0.2l-0.4,2.6
	c0,0.3,0,0.6,0.1,0.8c0.1,0.2,0.3,0.3,0.5,0.3c0.2,0,0.5,0,0.6-0.1c0.2-0.1,0.3-0.2,0.4-0.5c0.1-0.2,0.2-0.5,0.2-0.8l0.3-2.1
	L130.7,8.9z"/>
<path class="st6" d="M121.4,12.1l0.9-5.9l1.2,0.2l-0.7,4.8l2.4,0.3l-0.1,1L121.4,12.1z"/>
<path class="st6" d="M182.5,32.1c-0.4,0.5-0.8,1-1.2,1.4c-0.4,0.4-0.8,0.6-1.2,0.8c-0.4,0.2-0.8,0.2-1.2,0.2
	c-0.4-0.1-0.8-0.2-1.3-0.6c-0.5-0.4-0.9-0.8-1-1.4c-0.1-0.5-0.1-1.1,0.1-1.7c0.2-0.6,0.6-1.3,1.1-2c0.5-0.7,1.1-1.3,1.6-1.7
	c0.5-0.4,1.1-0.6,1.6-0.6c0.5,0,1.1,0.2,1.7,0.6c0.5,0.4,0.9,0.8,1,1.4c0.2,0.5,0.1,1.1-0.1,1.7C183.4,30.7,183.1,31.4,182.5,32.1z
	 M179.3,29.7c-0.4,0.5-0.7,1-0.8,1.3c-0.2,0.4-0.3,0.7-0.3,1c0,0.3,0.1,0.5,0.4,0.7c0.2,0.2,0.5,0.2,0.7,0.2
	c0.3-0.1,0.5-0.3,0.9-0.6c0.3-0.3,0.6-0.7,1-1.2c0.4-0.5,0.7-1,0.8-1.3c0.2-0.4,0.3-0.7,0.3-1c0-0.3-0.1-0.5-0.4-0.7
	c-0.2-0.2-0.5-0.2-0.8-0.1c-0.3,0.1-0.5,0.3-0.8,0.6C180,28.8,179.6,29.2,179.3,29.7z"/>
<path class="st6" d="M177.2,28.2c-0.4,0.5-0.8,1-1.2,1.4c-0.4,0.4-0.8,0.6-1.2,0.8c-0.4,0.2-0.8,0.2-1.2,0.2
	c-0.4-0.1-0.8-0.2-1.3-0.6c-0.5-0.4-0.9-0.8-1-1.4c-0.1-0.5-0.1-1.1,0.1-1.7c0.2-0.6,0.6-1.3,1.1-2c0.5-0.7,1.1-1.3,1.6-1.7
	c0.5-0.4,1.1-0.6,1.6-0.6s1.1,0.2,1.7,0.6c0.5,0.4,0.9,0.8,1,1.4c0.2,0.5,0.1,1.1-0.1,1.7C178.1,26.8,177.7,27.5,177.2,28.2z
	 M173.9,25.8c-0.4,0.5-0.7,1-0.8,1.3c-0.2,0.4-0.3,0.7-0.3,1c0,0.3,0.1,0.5,0.4,0.7c0.2,0.2,0.5,0.2,0.7,0.2
	c0.3-0.1,0.5-0.3,0.9-0.6c0.3-0.3,0.6-0.7,1-1.2c0.4-0.5,0.7-1,0.8-1.3c0.2-0.4,0.3-0.7,0.3-1c0-0.3-0.1-0.5-0.4-0.7
	c-0.2-0.2-0.5-0.2-0.8-0.1c-0.3,0.1-0.5,0.3-0.8,0.6C174.6,24.9,174.2,25.3,173.9,25.8z"/>
<path class="st6" d="M171.8,24.3c-0.4,0.5-0.8,1-1.2,1.4c-0.4,0.4-0.8,0.6-1.2,0.8c-0.4,0.2-0.8,0.2-1.2,0.2
	c-0.4-0.1-0.8-0.2-1.3-0.6c-0.5-0.4-0.9-0.8-1-1.4c-0.1-0.5-0.1-1.1,0.1-1.7c0.2-0.6,0.6-1.3,1.1-2c0.5-0.7,1.1-1.3,1.6-1.7
	c0.5-0.4,1.1-0.6,1.6-0.6c0.5,0,1.1,0.2,1.7,0.6c0.5,0.4,0.9,0.8,1,1.4c0.2,0.5,0.1,1.1-0.1,1.7C172.7,22.9,172.3,23.6,171.8,24.3z
	 M168.5,21.9c-0.4,0.5-0.7,1-0.8,1.3c-0.2,0.4-0.3,0.7-0.3,1c0,0.3,0.1,0.5,0.4,0.7c0.2,0.2,0.5,0.2,0.7,0.2
	c0.3-0.1,0.5-0.3,0.9-0.6c0.3-0.3,0.6-0.7,1-1.2c0.4-0.5,0.7-1,0.8-1.3c0.2-0.4,0.3-0.7,0.3-1c0-0.3-0.1-0.5-0.4-0.7
	c-0.2-0.2-0.5-0.2-0.8-0.1c-0.3,0.1-0.5,0.3-0.8,0.6C169.2,21,168.9,21.4,168.5,21.9z"/>
<path class="st6" d="M166.4,20.4c-0.4,0.5-0.8,1-1.2,1.4c-0.4,0.4-0.8,0.6-1.2,0.8c-0.4,0.2-0.8,0.2-1.2,0.2
	c-0.4-0.1-0.8-0.2-1.3-0.6c-0.5-0.4-0.9-0.8-1-1.4c-0.1-0.5-0.1-1.1,0.1-1.7c0.2-0.6,0.6-1.3,1.1-2c0.5-0.7,1.1-1.3,1.6-1.7
	c0.5-0.4,1.1-0.6,1.6-0.6c0.5,0,1.1,0.2,1.7,0.6c0.5,0.4,0.9,0.8,1,1.4c0.2,0.5,0.1,1.1-0.1,1.7C167.3,19,166.9,19.7,166.4,20.4z
	 M163.1,18c-0.4,0.5-0.7,1-0.8,1.3c-0.2,0.4-0.3,0.7-0.3,1c0,0.3,0.1,0.5,0.4,0.7c0.2,0.2,0.5,0.2,0.7,0.2c0.3-0.1,0.5-0.3,0.9-0.6
	c0.3-0.3,0.6-0.7,1-1.2c0.4-0.5,0.7-1,0.8-1.3c0.2-0.4,0.3-0.7,0.3-1c0-0.3-0.1-0.5-0.4-0.7c-0.2-0.2-0.5-0.2-0.8-0.1
	c-0.3,0.1-0.5,0.3-0.8,0.6C163.8,17.1,163.5,17.5,163.1,18z"/>
<path class="st6" d="M157.4,19l-1.4-1l2.8-3.9c0.1-0.1,0.2-0.2,0.3-0.4c0.1-0.2,0.2-0.3,0.4-0.5c0.1-0.2,0.2-0.3,0.3-0.4
	c-0.1,0-0.2,0-0.4,0.1c-0.2,0-0.3,0-0.5,0.1l-1.2,0.1l-0.1-1.4l3.4-0.2l1.2,0.8L157.4,19z"/>
<path class="st6" d="M191,41.8l0.7-2.6l0.9,1l-0.5,1.6l1.7-0.3l0.9,1l-2.6,0.4l-0.7,2.7l-0.9-1L191,43l-1.8,0.3l-0.9-1L191,41.8z"/>
<path class="st6" d="M191.1,38.7l-3.3,3.1l-0.6-0.7l0.3-0.5l0,0c-0.2,0-0.4,0-0.5,0c-0.2,0-0.3-0.1-0.5-0.2
	c-0.2-0.1-0.3-0.2-0.4-0.4c-0.2-0.2-0.4-0.5-0.4-0.7c-0.1-0.3-0.1-0.5,0-0.8c0.1-0.3,0.3-0.5,0.6-0.8l2.2-2l0.8,0.9l-2,1.8
	c-0.2,0.2-0.4,0.4-0.4,0.6c0,0.2,0,0.4,0.2,0.6c0.2,0.2,0.3,0.3,0.5,0.3c0.2,0,0.4,0,0.6-0.1c0.2-0.1,0.4-0.3,0.7-0.5l1.6-1.4
	L191.1,38.7z"/>
<path class="st6" d="M181.9,35.3l4.4-4l0.8,0.9l-3.6,3.3l1.6,1.8l-0.8,0.7L181.9,35.3z"/>
<path class="st6" d="M218.3,81.2c-0.6,0.3-1.2,0.5-1.7,0.6c-0.5,0.1-1,0.2-1.4,0.1c-0.4-0.1-0.8-0.2-1.1-0.5
	c-0.3-0.3-0.6-0.6-0.8-1.1c-0.3-0.6-0.3-1.2-0.2-1.7c0.1-0.5,0.4-1,0.9-1.5c0.5-0.5,1.2-0.9,2-1.2c0.8-0.4,1.6-0.6,2.2-0.7
	c0.7-0.1,1.2,0,1.7,0.2c0.5,0.2,0.9,0.7,1.2,1.3c0.3,0.6,0.3,1.2,0.2,1.7c-0.1,0.5-0.4,1-0.9,1.5C219.8,80.4,219.1,80.8,218.3,81.2z
	 M216.6,77.5c-0.6,0.3-1,0.5-1.4,0.7c-0.4,0.2-0.6,0.5-0.7,0.7c-0.1,0.2-0.1,0.5,0,0.8c0.1,0.3,0.3,0.4,0.6,0.5c0.3,0.1,0.6,0,1-0.1
	c0.4-0.1,0.9-0.3,1.5-0.6c0.6-0.3,1-0.5,1.4-0.8c0.4-0.2,0.6-0.5,0.7-0.7c0.1-0.2,0.1-0.5,0-0.8c-0.1-0.3-0.3-0.4-0.6-0.5
	c-0.3-0.1-0.6,0-1,0.1C217.7,77,217.2,77.2,216.6,77.5z"/>
<path class="st6" d="M215.5,75.1c-0.6,0.3-1.2,0.5-1.7,0.6c-0.5,0.1-1,0.2-1.4,0.1c-0.4-0.1-0.8-0.2-1.1-0.5
	c-0.3-0.3-0.6-0.6-0.8-1.1c-0.3-0.6-0.3-1.2-0.2-1.7c0.1-0.5,0.4-1,0.9-1.5c0.5-0.5,1.2-0.9,2-1.2c0.8-0.4,1.6-0.6,2.2-0.7
	c0.7-0.1,1.2,0,1.7,0.2c0.5,0.2,0.9,0.7,1.2,1.3c0.3,0.6,0.3,1.2,0.2,1.7c-0.1,0.5-0.4,1-0.9,1.5C217,74.3,216.3,74.7,215.5,75.1z
	 M213.8,71.4c-0.6,0.3-1,0.5-1.4,0.7c-0.4,0.2-0.6,0.5-0.7,0.7c-0.1,0.2-0.1,0.5,0,0.8c0.1,0.3,0.3,0.4,0.6,0.5c0.3,0.1,0.6,0,1-0.1
	c0.4-0.1,0.9-0.3,1.5-0.6c0.6-0.3,1-0.5,1.4-0.8c0.4-0.2,0.6-0.5,0.7-0.7c0.1-0.2,0.1-0.5,0-0.8c-0.1-0.3-0.3-0.4-0.6-0.5
	c-0.3-0.1-0.6,0-1,0.1C214.9,71,214.4,71.2,213.8,71.4z"/>
<path class="st6" d="M212.8,69.1c-0.6,0.3-1.2,0.5-1.7,0.6c-0.5,0.1-1,0.2-1.4,0.1c-0.4-0.1-0.8-0.2-1.1-0.5
	c-0.3-0.3-0.6-0.6-0.8-1.1c-0.3-0.6-0.3-1.2-0.2-1.7c0.1-0.5,0.4-1,0.9-1.5c0.5-0.5,1.1-0.9,2-1.2c0.8-0.4,1.6-0.6,2.2-0.7
	c0.7-0.1,1.2,0,1.7,0.2c0.5,0.2,0.9,0.7,1.2,1.3c0.3,0.6,0.3,1.2,0.2,1.7c-0.1,0.5-0.4,1-0.9,1.5C214.2,68.3,213.6,68.7,212.8,69.1z
	 M211.1,65.4c-0.6,0.3-1,0.5-1.4,0.7c-0.4,0.2-0.6,0.5-0.7,0.7c-0.1,0.2-0.1,0.5,0,0.8c0.1,0.3,0.3,0.4,0.6,0.5c0.3,0.1,0.6,0,1-0.1
	c0.4-0.1,0.9-0.3,1.5-0.6c0.6-0.3,1-0.5,1.4-0.8c0.4-0.2,0.6-0.5,0.7-0.7c0.1-0.2,0.1-0.5,0-0.8c-0.1-0.3-0.3-0.4-0.6-0.5
	c-0.3-0.1-0.6,0-1,0.1C212.2,64.9,211.7,65.1,211.1,65.4z"/>
<path class="st6" d="M209.9,60c0.2,0.5,0.3,0.9,0.3,1.3c0,0.4-0.1,0.8-0.4,1.2c-0.2,0.4-0.6,0.7-1.1,0.9c-0.5,0.2-1.1,0.3-1.6,0.3
	c-0.5,0-0.9-0.2-1.4-0.6c-0.4-0.3-0.8-0.9-1.1-1.5c-0.2-0.4-0.3-0.8-0.4-1.2c-0.1-0.4-0.1-0.7-0.1-1.1l1.4-0.6c0,0.3,0,0.7,0.1,1.1
	c0.1,0.4,0.2,0.8,0.3,1.1c0.1,0.3,0.3,0.6,0.5,0.7c0.2,0.2,0.4,0.3,0.6,0.3c0.2,0,0.5,0,0.8-0.1c0.4-0.2,0.6-0.4,0.7-0.8
	c0.1-0.3,0-0.8-0.2-1.3c-0.1-0.2-0.2-0.4-0.3-0.6c-0.1-0.2-0.3-0.4-0.4-0.5l0.1-0.8l4-1.5l1.9,4.1l-1.4,0.6l-1.2-2.7l-1.5,0.5
	c0.1,0.1,0.2,0.2,0.2,0.3C209.7,59.6,209.8,59.8,209.9,60z"/>
<path class="st6" d="M203.5,58.7l-2.4-5.3l1.1-0.5l2.8,1c0.6,0.2,1,0.4,1.4,0.5c0.4,0.1,0.7,0.2,1,0.2c0.3,0,0.5,0,0.8-0.2
	c0.3-0.1,0.5-0.3,0.6-0.6c0.1-0.2,0-0.5-0.1-0.8c-0.1-0.3-0.3-0.5-0.6-0.8c-0.3-0.2-0.6-0.4-1-0.6l0.6-1.3c0.3,0.1,0.6,0.3,0.8,0.4
	c0.3,0.2,0.5,0.4,0.8,0.7c0.3,0.3,0.5,0.6,0.7,1.1c0.2,0.5,0.3,1,0.3,1.4c0,0.4-0.1,0.8-0.4,1.2c-0.2,0.3-0.5,0.6-0.9,0.8
	c-0.4,0.2-0.8,0.3-1.3,0.3c-0.4,0-0.9-0.1-1.4-0.3c-0.5-0.2-1-0.4-1.6-0.6l-1.4-0.6l-0.1,0l1.5,3.3L203.5,58.7z"/>
<path class="st6" d="M220,94.1l1.8-1.9l0.3,1.4l-1.2,1.2l1.6,0.5l0.3,1.4l-2.5-0.9l-1.9,2l-0.3-1.4l1.3-1.3l-1.7-0.6l-0.3-1.4
	L220,94.1z"/>
<path class="st6" d="M221.7,91.4l-4.4,1l-0.2-0.9l0.5-0.3l0-0.1c-0.2-0.1-0.3-0.1-0.5-0.3c-0.1-0.1-0.2-0.3-0.3-0.4
	c-0.1-0.2-0.1-0.3-0.2-0.5c-0.1-0.3-0.1-0.6,0-0.9c0.1-0.3,0.2-0.5,0.4-0.7c0.2-0.2,0.5-0.3,0.9-0.4l2.9-0.7l0.3,1.2l-2.6,0.6
	c-0.3,0.1-0.5,0.2-0.7,0.3c-0.1,0.2-0.2,0.4-0.1,0.6c0.1,0.2,0.2,0.4,0.3,0.5c0.1,0.1,0.3,0.2,0.6,0.2c0.2,0,0.5,0,0.8-0.1l2.1-0.5
	L221.7,91.4z"/>
<path class="st6" d="M215.2,83.9l5.8-1.4l0.3,1.2l-4.8,1.1l0.5,2.3l-1,0.2L215.2,83.9z"/>
<path class="st6" d="M60.1,61l-2.2-1.3c-0.1-0.1-0.2-0.1-0.3-0.2c-0.1-0.1-0.2-0.1-0.4-0.2c-0.1-0.1-0.2-0.1-0.3-0.2
	c-0.1-0.1-0.2-0.1-0.2-0.2l0,0c0,0.1,0.1,0.1,0.1,0.2c0.1,0.1,0.1,0.2,0.2,0.3c0.1,0.1,0.1,0.2,0.2,0.4c0.1,0.1,0.1,0.2,0.2,0.3
	l1.1,2.3l-0.7,0.6l-4.2-2.5l0.6-0.6l2.2,1.3c0.1,0.1,0.3,0.2,0.4,0.3c0.2,0.1,0.3,0.2,0.4,0.3c0.1,0.1,0.2,0.2,0.3,0.2l0,0
	c0-0.1-0.1-0.1-0.2-0.2c-0.1-0.1-0.1-0.2-0.2-0.3c-0.1-0.1-0.1-0.2-0.2-0.3C57,61.3,57,61.2,57,61.1l-1.2-2.4l0.7-0.6l2.3,1.4
	c0.1,0.1,0.2,0.1,0.4,0.2c0.1,0.1,0.3,0.2,0.4,0.3c0.1,0.1,0.2,0.2,0.3,0.2l0,0c-0.1-0.1-0.1-0.2-0.2-0.3c-0.1-0.1-0.2-0.3-0.3-0.4
	c-0.1-0.2-0.2-0.3-0.3-0.5l-1.2-2.2l0.6-0.6l2.3,4.3L60.1,61z"/>
<path class="st6" d="M54.8,62.7c0.3,0.3,0.5,0.6,0.6,0.9c0.1,0.3,0.2,0.6,0.2,0.9c0,0.3-0.1,0.6-0.2,0.8c-0.1,0.3-0.3,0.5-0.6,0.7
	c-0.2,0.2-0.5,0.4-0.8,0.5c-0.3,0.1-0.5,0.1-0.8,0.1c-0.3,0-0.6-0.1-0.9-0.3c-0.3-0.1-0.6-0.4-0.8-0.6c-0.4-0.4-0.6-0.7-0.7-1.1
	c-0.1-0.4-0.1-0.8,0-1.1c0.1-0.4,0.3-0.7,0.7-1c0.3-0.3,0.7-0.5,1-0.6c0.4-0.1,0.7-0.1,1.1,0.1C54.1,62.1,54.5,62.4,54.8,62.7z
	 M52.3,65.1c0.2,0.3,0.5,0.5,0.7,0.6c0.2,0.1,0.5,0.2,0.7,0.1c0.2,0,0.5-0.2,0.7-0.4c0.2-0.2,0.3-0.4,0.4-0.7c0-0.2,0-0.5-0.1-0.7
	c-0.1-0.3-0.3-0.5-0.5-0.8c-0.2-0.3-0.5-0.5-0.7-0.6c-0.2-0.1-0.5-0.2-0.7-0.1c-0.2,0-0.5,0.2-0.7,0.4c-0.3,0.3-0.5,0.6-0.4,1
	C51.7,64.4,51.9,64.7,52.3,65.1z"/>
<path class="st6" d="M50.1,70.4l-4.3-4.5l0.6-0.6l3.8,4l2-1.8l0.5,0.5L50.1,70.4z"/>
<path class="st6" d="M196.3,114.8c0.1,0.4,0.1,0.8,0,1.1c-0.1,0.3-0.3,0.6-0.6,0.8c-0.3,0.2-0.6,0.4-1,0.5l-0.5,0.1l-0.7-3.1
	c-0.5,0.1-0.8,0.3-1,0.6c-0.2,0.3-0.3,0.7-0.1,1.1c0.1,0.3,0.2,0.5,0.3,0.8c0.1,0.2,0.2,0.4,0.4,0.6l-0.7,0.2
	c-0.2-0.2-0.3-0.4-0.4-0.6c-0.1-0.2-0.2-0.5-0.3-0.8c-0.1-0.4-0.1-0.9,0-1.2c0.1-0.4,0.3-0.7,0.6-1c0.3-0.3,0.7-0.5,1.2-0.6
	c0.5-0.1,1-0.1,1.3,0c0.4,0.1,0.7,0.3,1,0.5C196,114,196.2,114.3,196.3,114.8z M195.6,114.9c-0.1-0.3-0.3-0.6-0.5-0.7
	c-0.3-0.2-0.6-0.2-1-0.1l0.5,2.2c0.3-0.1,0.5-0.2,0.6-0.3c0.2-0.1,0.3-0.3,0.4-0.5C195.7,115.4,195.7,115.1,195.6,114.9z"/>
<path class="st6" d="M195.2,110c0.1,0.5,0.1,0.9-0.1,1.2c-0.2,0.3-0.6,0.5-1.2,0.7l-3,0.7l-0.2-0.8l2.9-0.7c0.4-0.1,0.6-0.2,0.8-0.4
	c0.1-0.2,0.2-0.4,0.1-0.7c-0.1-0.4-0.3-0.7-0.6-0.8c-0.3-0.1-0.7-0.1-1.2,0l-2.5,0.6l-0.2-0.8l2.9-0.7c0.2-0.1,0.4-0.1,0.6-0.2
	c0.1-0.1,0.2-0.2,0.3-0.4c0-0.1,0.1-0.3,0-0.5c-0.1-0.3-0.2-0.5-0.3-0.6c-0.2-0.1-0.4-0.2-0.6-0.2c-0.3,0-0.6,0-0.9,0.1l-2.4,0.5
	l-0.2-0.8l4.6-1.1l0.2,0.7l-0.6,0.3l0,0c0.2,0.1,0.3,0.1,0.5,0.3c0.1,0.1,0.3,0.3,0.3,0.4c0.1,0.2,0.2,0.3,0.2,0.5
	c0.1,0.3,0.1,0.6,0,0.9c-0.1,0.3-0.2,0.5-0.4,0.6l0,0.1c0.3,0.1,0.5,0.2,0.7,0.5C195,109.5,195.1,109.7,195.2,110z"/>
<path class="st6" d="M193.3,101.9c0.1,0.4,0.1,0.8,0,1.1c-0.1,0.3-0.3,0.6-0.6,0.8c-0.3,0.2-0.6,0.4-1,0.5l-0.5,0.1l-0.7-3.1
	c-0.5,0.1-0.8,0.3-1,0.6c-0.2,0.3-0.3,0.7-0.1,1.1c0.1,0.3,0.2,0.5,0.3,0.8c0.1,0.2,0.2,0.4,0.4,0.6l-0.7,0.2
	c-0.2-0.2-0.3-0.4-0.4-0.6c-0.1-0.2-0.2-0.5-0.3-0.8c-0.1-0.4-0.1-0.9,0-1.2c0.1-0.4,0.3-0.7,0.6-1c0.3-0.3,0.7-0.5,1.2-0.6
	c0.5-0.1,1-0.1,1.3,0c0.4,0.1,0.7,0.3,1,0.5C193,101.2,193.2,101.5,193.3,101.9z M192.6,102.1c-0.1-0.3-0.3-0.6-0.5-0.7
	c-0.3-0.2-0.6-0.2-1-0.1l0.5,2.2c0.3-0.1,0.5-0.2,0.6-0.3c0.2-0.1,0.3-0.3,0.4-0.5C192.7,102.5,192.7,102.3,192.6,102.1z"/>
<path class="st6" d="M192.5,98.8c0,0.1,0,0.2,0,0.3c0,0.1,0,0.2,0,0.3l-0.8,0.1c0-0.1,0-0.2,0-0.2c0-0.1,0-0.2,0-0.2
	c0-0.2-0.1-0.3-0.2-0.5c-0.1-0.1-0.2-0.3-0.4-0.4c-0.2-0.1-0.3-0.2-0.5-0.2c-0.2,0-0.4,0-0.6,0l-2.4,0.6l-0.2-0.8l4.6-1.1l0.2,0.7
	l-0.8,0.3l0,0c0.2,0.1,0.4,0.1,0.5,0.2c0.2,0.1,0.3,0.2,0.4,0.4C192.4,98.4,192.5,98.6,192.5,98.8z"/>
<path class="st6" d="M187.6,95.9c0,0.1,0.1,0.2,0.1,0.4c0.1,0.1,0.1,0.2,0.2,0.3l-0.6,0.1c-0.1-0.1-0.1-0.2-0.2-0.4
	c-0.1-0.1-0.1-0.3-0.2-0.5c-0.1-0.2-0.1-0.5,0-0.7c0-0.2,0.1-0.4,0.3-0.6c0.2-0.2,0.5-0.3,0.8-0.4l2.6-0.6l-0.1-0.6l0.4-0.1l0.5,0.6
	l1.1,0.1l0.1,0.5l-1,0.2l0.3,1.3l-0.6,0.1l-0.3-1.3l-2.6,0.6c-0.3,0.1-0.4,0.2-0.5,0.3C187.5,95.5,187.5,95.7,187.6,95.9z"/>
<path class="st6" d="M188.1,90.4l1.9-2.1l0.2,0.9l-1.4,1.5l1.9,0.7l0.2,0.9l-2.6-1l-2,2.2l-0.2-0.9l1.5-1.6l-2.1-0.8l-0.2-0.9
	L188.1,90.4z"/>
<path class="st6" d="M185.2,88.7l-0.8-3.4l6.1-1.4l0.8,3.4l-0.7,0.2l-0.6-2.6l-1.8,0.4l0.6,2.4l-0.7,0.2l-0.6-2.4l-2.1,0.5l0.6,2.6
	L185.2,88.7z"/>
</svg>
