<svg width="233" height="128" viewBox="0 0 233 128" fill="none" xmlns="http://www.w3.org/2000/svg">
<path d="M167.5 98.0001L188.941 85.7652L206.624 75.6752C208.687 74.4977 209.388 71.8508 208.086 69.8634C199.315 56.4762 187.028 44.2746 173.483 35.6282C171.562 34.4016 169.032 35.0212 167.808 36.9444L166.5 39.0001L157.5 54.5001L145.5 76.0001C154.145 81.1306 161.809 88.4558 167 97.0001L167.5 98.0001Z" fill="#830D1D"/>
<path d="M84.0007 76C92.5579 71.2888 105.55 68.0977 116.001 67.9316C116.001 67.9316 116.001 53.0203 116.001 43.4658C116.001 37.1188 116.001 28.4078 116.001 23.2745C116.001 20.9173 114.079 19.0092 111.725 19.1221C94.9841 19.9242 77.2129 24.5109 63.0568 31.5953C60.9349 32.6572 60.2233 35.296 61.4202 37.3448L71.621 54.8075L84.0007 76Z" fill="#FB8801"/>
<path d="M116 68C126.45 68.1662 136.943 71.2888 145.5 76L158 54.5L167.936 36.6986C169.076 34.655 168.35 32.0667 166.267 31C152.453 23.9257 136.7 19.4179 120.278 18.6224C117.923 18.5084 116 20.4219 116 22.7791V43V68Z" fill="url(#paint0_linear_615_970)"/>
<path d="M61.7202 97.4257C66.9114 88.8815 76.2347 80.821 84.88 75.6905L72.5004 54.5L62.26 36.9712C61.0785 34.9488 58.4787 34.2601 56.4986 35.5114C42.7888 44.1757 29.2762 56.4699 20.3167 69.8457C18.9942 71.82 19.6961 74.4675 21.76 75.6453L39.4416 85.7348L61.0004 98.5L61.7202 97.4257Z" fill="#E4C73B"/>
<path d="M52.5107 127C52.6788 116.672 56.7333 105.957 61.5002 97.5001L39.0002 85L21.1894 74.6449C19.1555 73.4624 16.5403 74.1566 15.4598 76.2464C8.3389 90.0198 3.91167 106.387 3.12298 122.722C3.00929 125.077 4.92265 127 7.2802 127H27.7555H52.5107Z" fill="#2FC016"/>
<path d="M167.5 98C172.267 106.457 175.57 117.296 175.738 127.624H220.968C223.326 127.624 225.24 125.701 225.121 123.346C224.302 107.043 219.688 90.9389 212.527 77.2059C211.447 75.1344 208.858 74.4332 206.826 75.5873L188.5 86.0001L167.5 98Z" fill="#010101"/>
<path d="M32.0367 93.4492C32.073 93.3198 32.0992 93.186 32.1153 93.0478C32.1284 92.9088 32.1304 92.7861 32.1213 92.6798L32.8169 92.8725C32.8333 92.9873 32.8325 93.1346 32.8145 93.3144C32.8003 93.4921 32.7683 93.6697 32.7185 93.8472C32.6424 94.1179 32.5269 94.3502 32.3719 94.5439C32.2169 94.7377 32.0079 94.8694 31.7448 94.9393C31.4827 95.0061 31.1513 94.984 30.7508 94.873L27.9412 94.0948L27.7474 94.7852L27.3273 94.6688L27.1958 93.8542L26.2107 93.236L26.3678 92.6765L27.4971 92.9893L27.9013 91.5498L28.6014 91.7437L28.1972 93.1832L30.9932 93.9577C31.2733 94.0353 31.5011 94.0271 31.6768 93.9331C31.8534 93.8361 31.9733 93.6748 32.0367 93.4492Z" fill="white"/>
<path d="M26.1982 97.2693C26.3199 96.8361 26.5176 96.4904 26.7913 96.2323C27.062 95.9733 27.3892 95.8078 27.7729 95.7358C28.1567 95.6637 28.5774 95.6911 29.0351 95.8179L29.55 95.9606L28.6022 99.336C29.1378 99.4746 29.5857 99.4511 29.9462 99.2656C30.3036 99.0793 30.5494 98.747 30.6837 98.2687C30.7724 97.9528 30.8213 97.6632 30.8304 97.3998C30.8394 97.1364 30.8224 96.8561 30.7793 96.5588L31.5426 96.7703C31.587 97.0517 31.5992 97.3258 31.5795 97.5927C31.5636 97.8574 31.5066 98.1643 31.4086 98.5132C31.2734 98.9946 31.0584 99.3905 30.7635 99.7012C30.4694 100.009 30.1058 100.211 29.6728 100.309C29.2368 100.405 28.7417 100.376 28.1876 100.223C27.6395 100.071 27.1971 99.8497 26.8601 99.5586C26.5202 99.2666 26.2932 98.9249 26.1792 98.5334C26.0652 98.142 26.0715 97.7206 26.1982 97.2693ZM26.9016 97.469C26.7986 97.8361 26.8362 98.1642 27.0146 98.4536C27.19 98.7421 27.495 98.9677 27.9297 99.1302L28.6165 96.6844C28.3417 96.6115 28.0885 96.5884 27.8571 96.6151C27.6256 96.6418 27.4271 96.7246 27.2615 96.8635C27.0968 96.9994 26.9768 97.2013 26.9016 97.469Z" fill="white"/>
<path d="M25.3064 100.792L30.2842 102.17L30.0295 103.077L25.0517 101.699L25.3064 100.792ZM23.2974 100.717C23.3379 100.572 23.4147 100.46 23.5278 100.382C23.6416 100.3 23.7934 100.285 23.9832 100.337C24.1729 100.39 24.2966 100.481 24.3544 100.611C24.41 100.736 24.4175 100.871 24.3769 101.016C24.3356 101.163 24.2583 101.276 24.1453 101.355C24.0301 101.43 23.8776 101.441 23.6879 101.389C23.4982 101.336 23.3751 101.249 23.3187 101.126C23.2631 101 23.256 100.864 23.2974 100.717Z" fill="white"/>
<path d="M24.6157 103.251L29.5935 104.63L29.3894 105.356L28.6719 105.294L28.658 105.343C28.8009 105.493 28.9067 105.665 28.9756 105.859C29.0444 106.053 29.0791 106.259 29.0797 106.477C29.0803 106.694 29.049 106.916 28.9856 107.141C28.8783 107.523 28.7238 107.831 28.5222 108.063C28.3214 108.293 28.069 108.44 27.7652 108.505C27.4591 108.567 27.0953 108.539 26.6738 108.422L23.417 107.52L23.673 106.608L26.8032 107.475C27.2037 107.586 27.5275 107.584 27.7744 107.467C28.0221 107.348 28.1958 107.11 28.2955 106.755C28.3926 106.41 28.4018 106.117 28.3228 105.878C28.2418 105.635 28.0825 105.434 27.845 105.274C27.6053 105.11 27.2943 104.975 26.9119 104.869L24.3597 104.162L24.6157 103.251Z" fill="white"/>
<path d="M24.7241 109.263C25.2541 109.41 25.7146 109.614 26.1055 109.874C26.4973 110.132 26.8059 110.443 27.0315 110.807C27.2549 111.167 27.3821 111.575 27.4131 112.031L29.5183 110.932L29.161 112.204L27.3168 113.05C27.3067 113.086 27.2985 113.121 27.2922 113.155C27.2859 113.189 27.2777 113.224 27.2676 113.26C27.1223 113.778 26.9142 114.206 26.6435 114.546C26.3736 114.883 26.0526 115.137 25.6805 115.306C25.3084 115.475 24.8954 115.565 24.4413 115.575C23.9881 115.583 23.507 115.516 22.9981 115.375C22.3206 115.187 21.7586 114.912 21.3122 114.548C20.8658 114.185 20.5663 113.737 20.4138 113.205C20.2592 112.669 20.279 112.056 20.4733 111.364C20.6608 110.696 20.958 110.175 21.3647 109.801C21.7715 109.428 22.2614 109.197 22.8346 109.109C23.4047 109.021 24.0345 109.072 24.7241 109.263ZM23.2796 114.407C23.8156 114.556 24.3 114.611 24.7329 114.572C25.1636 114.529 25.5289 114.384 25.8289 114.136C26.1267 113.885 26.3428 113.52 26.4771 113.041C26.6131 112.557 26.6188 112.132 26.4942 111.767C26.3665 111.401 26.1287 111.092 25.7808 110.84C25.4299 110.587 24.9864 110.386 24.4504 110.238C23.6374 110.013 22.9555 110.002 22.4049 110.206C21.8512 110.409 21.4738 110.869 21.2728 111.585C21.1376 112.066 21.1319 112.491 21.2557 112.859C21.3765 113.227 21.61 113.54 21.9562 113.798C22.2994 114.055 22.7405 114.258 23.2796 114.407Z" fill="white"/>
<path d="M59.7326 68.6929C60.0408 68.3651 60.3762 68.1498 60.7387 68.0471C61.0989 67.9422 61.4661 67.9462 61.8404 68.059C62.2147 68.1718 62.576 68.3897 62.9242 68.7128L63.3159 69.0761L60.9143 71.6304C61.3262 71.9997 61.7351 72.1851 62.1411 72.1867C62.5448 72.1861 62.9169 72.0048 63.2572 71.6429C63.4819 71.4038 63.6592 71.1697 63.7889 70.9406C63.9186 70.7114 64.0329 70.4552 64.1319 70.172L64.7127 70.7107C64.6221 70.9804 64.5063 71.2289 64.3655 71.4563C64.2291 71.6835 64.0367 71.9291 63.7884 72.1932C63.4459 72.5574 63.0719 72.8093 62.6663 72.9487C62.2628 73.0859 61.8462 73.0979 61.4164 72.9848C60.9844 72.8696 60.5576 72.6164 60.1361 72.2254C59.7191 71.8386 59.4282 71.4388 59.2633 71.0258C59.096 70.6106 59.0522 70.2034 59.1317 69.8041C59.2112 69.4048 59.4115 69.0344 59.7326 68.6929ZM60.2654 69.1936C60.0043 69.4713 59.8861 69.7794 59.911 70.1179C59.9336 70.4542 60.1005 70.7944 60.4117 71.1386L62.1519 69.2878C61.9413 69.0967 61.727 68.9597 61.509 68.8768C61.291 68.7939 61.0763 68.7759 60.865 68.8228C60.6558 68.8674 60.4559 68.991 60.2654 69.1936Z" fill="white"/>
<path d="M60.4702 74.6068C60.5622 74.5089 60.6473 74.4024 60.7255 74.2874C60.8013 74.1702 60.8598 74.0625 60.9008 73.9641L61.4299 74.455C61.3915 74.5643 61.3228 74.6944 61.2237 74.8454C61.129 74.9963 61.0185 75.1389 60.8922 75.2732C60.6996 75.4781 60.4896 75.6307 60.2624 75.731C60.0351 75.8313 59.7885 75.8518 59.5225 75.7926C59.2586 75.7311 58.9744 75.5591 58.6697 75.2764L56.5323 73.2937L56.0411 73.8161L55.7215 73.5197L55.981 72.7375L55.3911 71.7363L55.7892 71.3129L56.6483 72.1098L57.6725 71.0205L58.2051 71.5146L57.1809 72.6039L59.3079 74.5771C59.521 74.7747 59.7273 74.8723 59.9268 74.8699C60.1285 74.8652 60.3097 74.7775 60.4702 74.6068Z" fill="white"/>
<path d="M53.4943 75.3343C53.931 74.8699 54.3616 74.6194 54.7863 74.5829C55.2086 74.5442 55.6432 74.7321 56.0899 75.1464L58.6499 77.5213L58.1875 78.013L57.5125 77.6361L57.4868 77.6634C57.5258 77.8957 57.5376 78.1112 57.5222 78.31C57.5068 78.5088 57.4514 78.7046 57.356 78.8974C57.2627 79.0879 57.1154 79.2901 56.9142 79.5041C56.7001 79.7317 56.4684 79.8961 56.219 79.9971C55.9696 80.0982 55.7142 80.1235 55.4529 80.0729C55.1915 80.0179 54.9325 79.8714 54.676 79.6334C54.2911 79.2764 54.1371 78.8586 54.2139 78.3801C54.2907 77.9015 54.6004 77.3555 55.1429 76.7421L55.7254 76.0678L55.5123 75.8702C55.2168 75.596 54.9463 75.4686 54.7007 75.4881C54.4573 75.5052 54.2254 75.631 54.0049 75.8655C53.823 76.059 53.6771 76.2711 53.5675 76.5018C53.4555 76.7303 53.3614 76.9627 53.2852 77.1988L52.578 76.952C52.6533 76.6894 52.766 76.4168 52.916 76.134C53.0682 75.849 53.261 75.5824 53.4943 75.3343ZM56.1726 76.4954L55.7022 77.0436C55.3094 77.4933 55.0948 77.8674 55.0584 78.1661C55.0219 78.4604 55.1193 78.7149 55.3507 78.9295C55.5523 79.1165 55.7567 79.1933 55.9641 79.1598C56.1715 79.1262 56.3683 79.0104 56.5545 78.8124C56.8413 78.5073 56.9909 78.1772 57.0031 77.8221C57.0153 77.4625 56.8518 77.1255 56.5127 76.811L56.1726 76.4954Z" fill="white"/>
<path d="M60.219 56.6266L59.6211 56.0719L61.2457 54.3441L61.8436 54.8987L60.219 56.6266Z" fill="white"/>
<path d="M57.1968 55.3317C57.261 55.2634 57.3351 55.1936 57.4192 55.1225C57.501 55.0492 57.5744 54.9894 57.6394 54.9431L58.2145 55.6109C58.1494 55.6528 58.078 55.7059 58.0004 55.7702C57.9248 55.8323 57.8582 55.8941 57.8004 55.9555C57.6634 56.1012 57.5603 56.2656 57.4912 56.4486C57.422 56.6317 57.393 56.8222 57.4042 57.0201C57.4131 57.2159 57.4664 57.4124 57.5641 57.6095C57.6595 57.8046 57.8034 57.9913 57.9958 58.1699L59.9991 60.0283L59.3506 60.718L55.5638 57.2052L56.084 56.652L56.8448 57.2044L56.8737 57.1737C56.8091 56.9688 56.7708 56.7586 56.759 56.5431C56.7494 56.3253 56.7788 56.1138 56.8472 55.9088C56.9154 55.6993 57.032 55.507 57.1968 55.3317Z" fill="white"/>
<path d="M53.1388 59.648C53.447 59.3202 53.7824 59.1049 54.1449 59.0022C54.5051 58.8973 54.8724 58.9013 55.2467 59.0141C55.621 59.1269 55.9822 59.3448 56.3304 59.6678L56.7222 60.0312L54.3206 62.5854C54.7325 62.9548 55.1414 63.1402 55.5474 63.1417C55.9511 63.1412 56.3231 62.9599 56.6634 62.5979C56.8882 62.3589 57.0654 62.1248 57.1951 61.8956C57.3248 61.6665 57.4392 61.4103 57.5382 61.1271L58.1189 61.6658C58.0283 61.9355 57.9126 62.184 57.7717 62.4114C57.6353 62.6386 57.4429 62.8842 57.1947 63.1483C56.8522 63.5125 56.4781 63.7643 56.0725 63.9038C55.6691 64.041 55.2524 64.053 54.8227 63.9399C54.3906 63.8246 53.9638 63.5715 53.5423 63.1805C53.1254 62.7937 52.8344 62.3938 52.6695 61.9808C52.5023 61.5657 52.4584 61.1585 52.5379 60.7592C52.6175 60.3598 52.8178 59.9894 53.1388 59.648ZM53.6717 60.1487C53.4105 60.4264 53.2924 60.7345 53.3173 61.073C53.3398 61.4093 53.5067 61.7495 53.818 62.0936L55.5582 60.2429C55.3476 60.0517 55.1333 59.9147 54.9153 59.8319C54.6973 59.749 54.4826 59.731 54.2712 59.7778C54.062 59.8224 53.8622 59.946 53.6717 60.1487Z" fill="white"/>
<path d="M52.8408 67.7786C52.4084 68.2385 51.8989 68.4542 51.3124 68.4257C50.7279 68.395 50.1138 68.0811 49.4701 67.4839C48.8195 66.8804 48.4587 66.2857 48.3877 65.6998C48.3165 65.1096 48.4981 64.5834 48.9327 64.1212C49.1146 63.9277 49.3004 63.7826 49.4901 63.6857C49.6798 63.5889 49.8674 63.5285 50.0529 63.5046C50.2405 63.4783 50.4225 63.4809 50.5988 63.5124L50.6374 63.4714C50.5556 63.4169 50.4453 63.3358 50.3063 63.2282C50.1673 63.1206 50.0497 63.0221 49.9535 62.9329L48.5137 61.5973L49.159 60.9109L54.5058 65.8709L53.9953 66.4138L53.3636 66.0388L53.3348 66.0695C53.3805 66.2398 53.3989 66.421 53.3899 66.613C53.3808 66.8006 53.333 66.9928 53.2466 67.1897C53.1623 67.3842 53.027 67.5806 52.8408 67.7786ZM52.4282 67.0953C52.777 66.7243 52.9155 66.3626 52.8436 66.0103C52.7738 65.6557 52.5281 65.2808 52.1064 64.8853L51.9999 64.7865C51.5486 64.3679 51.1331 64.121 50.7535 64.0458C50.3736 63.9662 49.9997 64.1222 49.6315 64.5138C49.3318 64.8325 49.232 65.1895 49.332 65.5849C49.4298 65.9782 49.7008 66.381 50.1453 66.7932C50.5851 67.2013 51.0001 67.435 51.3903 67.4943C51.7783 67.5516 52.1242 67.4186 52.4282 67.0953Z" fill="white"/>
<path d="M48.753 68.2058C49.0646 68.4948 49.3044 68.794 49.4725 69.1033C49.6404 69.4082 49.7363 69.7167 49.7603 70.0288C49.7841 70.3365 49.739 70.6399 49.625 70.939C49.5087 71.236 49.3221 71.5211 49.0653 71.7943C48.8255 72.0493 48.5615 72.2434 48.2733 72.3766C47.9849 72.5054 47.6843 72.5697 47.3715 72.5694C47.0564 72.5669 46.7379 72.4952 46.4159 72.3541C46.0915 72.211 45.7736 71.9949 45.4621 71.7059C45.0474 71.3212 44.761 70.9234 44.6028 70.5124C44.4422 70.0992 44.4095 69.6916 44.5044 69.2895C44.5992 68.8831 44.8179 68.4977 45.1603 68.1335C45.4857 67.7875 45.8482 67.5548 46.2478 67.4353C46.6475 67.3159 47.0613 67.3183 47.4892 67.4425C47.9171 67.5667 48.3384 67.8211 48.753 68.2058ZM46.1235 71.0024C46.4144 71.2723 46.6995 71.4686 46.9787 71.5913C47.2578 71.7095 47.5252 71.7445 47.7809 71.6961C48.0387 71.6454 48.2821 71.4983 48.5111 71.2547C48.7359 71.0156 48.8649 70.7667 48.8982 70.5077C48.9315 70.2488 48.8782 69.9862 48.7382 69.72C48.5959 69.4516 48.3793 69.1825 48.0884 68.9126C47.7998 68.6449 47.5181 68.4518 47.2434 68.3334C46.9688 68.2149 46.7037 68.1821 46.4482 68.2349C46.1948 68.2855 45.9525 68.4336 45.7214 68.6795C45.3832 69.0392 45.2563 69.4159 45.3407 69.8096C45.425 70.1989 45.6859 70.5965 46.1235 71.0024Z" fill="white"/>
<path d="M43.7018 77.3614L37.9184 74.9116L37.8927 74.9389C37.993 75.0192 38.1209 75.125 38.2762 75.2563C38.4314 75.3832 38.5982 75.5252 38.7765 75.6821C38.9548 75.8347 39.1275 75.9885 39.2947 76.1437L42.2602 78.8946L41.6566 79.5366L36.6328 74.8762L37.58 73.8689L43.0628 76.1868L43.0852 76.1629L40.4182 70.8503L41.359 69.8497L46.3828 74.5101L45.747 75.1862L42.7403 72.397C42.5891 72.2568 42.4343 72.1089 42.276 71.9535C42.1153 71.7959 41.9649 71.6457 41.8247 71.5029C41.6844 71.3556 41.5693 71.234 41.4795 71.1379L41.4506 71.1686L44.2637 76.7638L43.7018 77.3614Z" fill="white"/>
<path d="M100.4 44.8029C99.7932 44.9775 99.2457 44.9026 98.7572 44.5783C98.2717 44.2531 97.9059 43.669 97.6599 42.8262C97.4113 41.9743 97.4067 41.2781 97.6461 40.7377C97.8876 40.1934 98.3132 39.8335 98.9227 39.6581C99.178 39.5846 99.4117 39.5547 99.624 39.5683C99.8364 39.582 100.028 39.6259 100.2 39.7002C100.374 39.7735 100.529 39.8688 100.664 39.986L100.718 39.9704C100.676 39.8817 100.623 39.7556 100.559 39.5919C100.495 39.4283 100.444 39.2834 100.407 39.1575L99.8572 37.2722L100.763 37.0116L102.806 44.0126L102.09 44.2188L101.74 43.5732L101.7 43.5849C101.651 43.7548 101.574 43.9201 101.468 44.0807C101.364 44.2374 101.225 44.3784 101.05 44.5036C100.878 44.6279 100.661 44.7277 100.4 44.8029ZM100.396 44.004C100.886 43.8631 101.19 43.6227 101.309 43.2828C101.431 42.9421 101.412 42.4938 101.253 41.938L101.212 41.7985C101.04 41.2076 100.81 40.7828 100.523 40.524C100.238 40.2614 99.8373 40.2044 99.3209 40.3531C98.9005 40.4741 98.6318 40.7303 98.5149 41.1216C98.3972 41.51 98.4232 41.9951 98.593 42.577C98.7611 43.1529 98.9973 43.5662 99.3015 43.8168C99.6049 44.0644 99.9697 44.1268 100.396 44.004Z" fill="white"/>
<path d="M95.6613 40.6947L97.1084 45.653L96.3832 45.8618L96.0588 45.2187L96.0093 45.233C95.9571 45.4333 95.8665 45.6138 95.7377 45.7745C95.6088 45.9352 95.4521 46.073 95.2675 46.1879C95.083 46.3028 94.8781 46.3927 94.6529 46.4575C94.2715 46.5673 93.9288 46.5977 93.6248 46.5486C93.3238 46.4987 93.0657 46.3617 92.8505 46.1375C92.6375 45.9094 92.4697 45.5854 92.3472 45.1655L91.4004 41.9214L92.3102 41.6594L93.2202 44.7775C93.3367 45.1765 93.5093 45.4503 93.7383 45.599C93.9702 45.7468 94.2633 45.7697 94.6177 45.6677C94.963 45.5683 95.2165 45.4222 95.3783 45.2293C95.5423 45.0325 95.6297 44.7911 95.6406 44.5051C95.6536 44.2152 95.6046 43.8797 95.4934 43.4988L94.7515 40.9566L95.6613 40.6947Z" fill="white"/>
<path d="M90.9089 44.7404C91.0279 45.1484 91.0802 45.5284 91.0658 45.8804C91.0535 46.2287 90.9776 46.5431 90.8382 46.8239C90.7009 47.1008 90.5067 47.3388 90.2556 47.5379C90.0036 47.734 89.6975 47.8839 89.3371 47.9877C89.0008 48.0845 88.6749 48.1166 88.3594 48.0838C88.046 48.0472 87.7552 47.9489 87.4871 47.7887C87.2182 47.6255 86.9817 47.4009 86.7778 47.1149C86.5731 46.826 86.4111 46.4775 86.2921 46.0696C86.1336 45.5266 86.0919 45.0379 86.1669 44.6033C86.241 44.1658 86.4219 43.7983 86.7094 43.5009C86.9991 43.1997 87.3841 42.9799 87.8646 42.8416C88.321 42.7102 88.7512 42.6953 89.1552 42.7968C89.5591 42.8984 89.9128 43.112 90.2161 43.4376C90.5195 43.7632 90.7504 44.1975 90.9089 44.7404ZM87.2199 45.8024C87.3311 46.1834 87.475 46.498 87.6517 46.7463C87.8304 46.9907 88.0418 47.1575 88.2859 47.2465C88.533 47.3347 88.8172 47.3326 89.1385 47.2401C89.4538 47.1493 89.6921 47.0011 89.8534 46.7953C90.0146 46.5895 90.1035 46.3363 90.1199 46.0357C90.1355 45.7321 90.0877 45.3898 89.9765 45.0088C89.8662 44.6309 89.7236 44.3208 89.5487 44.0785C89.3738 43.8362 89.1633 43.6724 88.9171 43.5872C88.6739 43.5011 88.3901 43.5048 88.0658 43.5982C87.5914 43.7348 87.2895 43.994 87.1601 44.3759C87.0328 44.754 87.0527 45.2295 87.2199 45.8024Z" fill="white"/>
<path d="M82.4921 49.861L80.5723 43.2828L81.4956 43.017L83.1817 48.7942L86.0418 47.9708L86.2755 48.7717L82.4921 49.861Z" fill="white"/>
<path d="M142.97 45.9036L142.546 47.8644C142.512 48.0202 142.474 48.1719 142.433 48.3196C142.391 48.4673 142.354 48.5903 142.32 48.6885L142.375 48.7001C142.52 48.5457 142.683 48.4269 142.864 48.3439C143.049 48.2584 143.247 48.2077 143.458 48.1918C143.673 48.1734 143.892 48.1879 144.115 48.2352C144.51 48.3187 144.829 48.4534 145.073 48.6393C145.318 48.8252 145.481 49.069 145.563 49.3706C145.645 49.6692 145.64 50.0338 145.547 50.4644L144.836 53.7538L143.923 53.5605L144.607 50.3948C144.695 49.9917 144.671 49.6705 144.538 49.4314C144.404 49.1892 144.155 49.0292 143.788 48.9515C143.439 48.8777 143.146 48.8891 142.908 48.9855C142.67 49.0789 142.478 49.2506 142.331 49.5006C142.184 49.7506 142.069 50.0711 141.984 50.462L141.429 53.0321L140.507 52.8369L142.048 45.7084L142.97 45.9036Z" fill="white"/>
<path d="M136.297 54.3022C135.621 54.1591 135.128 53.9253 134.818 53.6009C134.511 53.2771 134.405 52.8937 134.501 52.4509C134.569 52.1363 134.726 51.8901 134.972 51.7123C135.218 51.5375 135.528 51.4498 135.902 51.4492C135.78 51.3597 135.684 51.2419 135.614 51.096C135.547 50.9476 135.53 50.794 135.565 50.6352C135.605 50.4489 135.691 50.2996 135.824 50.1872C135.961 50.0724 136.149 49.9732 136.387 49.8896C136.145 49.7233 135.971 49.4963 135.863 49.2085C135.757 48.9176 135.74 48.6011 135.814 48.2591C135.893 47.8956 136.036 47.6018 136.245 47.3776C136.456 47.1541 136.721 47.0059 137.041 46.933C137.36 46.8601 137.728 46.8677 138.144 46.9558C138.235 46.9752 138.329 46.9999 138.425 47.0297C138.521 47.0566 138.612 47.087 138.698 47.1211C138.783 47.1551 138.852 47.1856 138.903 47.2125L140.646 47.5816L140.528 48.1268L139.599 48.0739C139.663 48.2087 139.705 48.3614 139.726 48.5318C139.747 48.7023 139.736 48.8822 139.696 49.0716C139.585 49.5847 139.321 49.9537 138.905 50.1785C138.492 50.401 137.977 50.4468 137.36 50.316C137.217 50.2825 137.074 50.2395 136.932 50.1871C136.784 50.2356 136.667 50.2985 136.58 50.3759C136.493 50.4502 136.437 50.5454 136.412 50.6615C136.393 50.7501 136.407 50.828 136.453 50.8953C136.502 50.9632 136.58 51.0229 136.688 51.0743C136.795 51.1227 136.93 51.1641 137.092 51.1984L137.973 51.3849C138.523 51.5014 138.92 51.7068 139.163 52.0011C139.406 52.2954 139.48 52.6655 139.383 53.1114C139.261 53.6764 138.935 54.0625 138.404 54.2695C137.874 54.4765 137.171 54.4874 136.297 54.3022ZM136.475 53.6355C136.869 53.719 137.206 53.749 137.486 53.7252C137.769 53.7022 137.994 53.6316 138.16 53.5134C138.326 53.3953 138.431 53.2355 138.475 53.0339C138.514 52.8507 138.5 52.7008 138.433 52.5843C138.368 52.4715 138.253 52.3801 138.089 52.3103C137.925 52.2404 137.718 52.1789 137.467 52.1258L136.633 51.9491C136.419 51.9037 136.225 51.8978 136.052 51.9314C135.878 51.9649 135.734 52.0349 135.618 52.1413C135.501 52.2508 135.423 52.3987 135.383 52.585C135.328 52.8385 135.395 53.0554 135.583 53.2358C135.774 53.4168 136.071 53.55 136.475 53.6355ZM137.537 49.6971C137.876 49.769 138.149 49.7341 138.355 49.5926C138.562 49.448 138.702 49.2093 138.774 48.8764C138.851 48.519 138.824 48.2321 138.691 48.0157C138.559 47.7992 138.325 47.6553 137.989 47.5841C137.662 47.5148 137.391 47.5549 137.176 47.7043C136.965 47.8513 136.822 48.1019 136.745 48.4562C136.675 48.783 136.707 49.055 136.842 49.2721C136.978 49.4861 137.21 49.6278 137.537 49.6971Z" fill="white"/>
<path d="M134.872 46.3634L133.781 51.412L132.859 51.2168L133.95 46.1681L134.872 46.3634ZM134.831 44.3568C134.977 44.3879 135.094 44.4572 135.179 44.5647C135.268 44.6729 135.291 44.8232 135.249 45.0156C135.208 45.208 135.124 45.3372 134.998 45.4031C134.875 45.4666 134.741 45.4828 134.594 45.4517C134.444 45.42 134.327 45.3504 134.241 45.2429C134.159 45.1329 134.139 44.9817 134.181 44.7893C134.223 44.5969 134.303 44.4686 134.422 44.4045C134.545 44.341 134.681 44.3251 134.831 44.3568Z" fill="white"/>
<path d="M131.171 50.8594L130.231 50.6603L130.899 47.5679L127.593 46.8676L126.925 49.96L125.985 49.7609L127.433 43.063L128.373 43.2621L127.769 46.0567L131.075 46.757L131.679 43.9624L132.619 44.1615L131.171 50.8594Z" fill="white"/>
<path d="M143.84 37.019L144.835 37.2298L145.279 40.3662C145.302 40.5275 145.321 40.6848 145.335 40.8381C145.354 40.9889 145.365 41.1351 145.37 41.2766C145.378 41.4157 145.379 41.5517 145.373 41.6845L145.405 41.6913C145.475 41.5433 145.568 41.3649 145.684 41.1562C145.799 40.9475 145.921 40.737 146.05 40.5248L147.705 37.8378L148.696 38.0476L145.267 43.3486C145.079 43.644 144.874 43.8882 144.654 44.081C144.435 44.2775 144.197 44.4122 143.938 44.4852C143.679 44.5612 143.39 44.5655 143.072 44.4982C142.925 44.4671 142.797 44.4304 142.688 44.3881C142.582 44.3495 142.491 44.3111 142.416 44.2729L142.574 43.5399C142.638 43.5694 142.716 43.6003 142.808 43.6326C142.904 43.6656 143.003 43.693 143.107 43.7151C143.3 43.7558 143.473 43.7526 143.627 43.7054C143.784 43.6619 143.926 43.5818 144.053 43.4651C144.184 43.349 144.302 43.2065 144.409 43.0374L144.767 42.4904L143.84 37.019Z" fill="white"/>
<path d="M143.121 36.771C143.212 36.7904 143.31 36.8176 143.415 36.8525C143.52 36.8843 143.609 36.9159 143.682 36.9474L143.401 37.7837C143.331 37.7498 143.249 37.7164 143.154 37.6835C143.062 37.6512 142.974 37.6263 142.892 37.6088C142.696 37.5674 142.502 37.5645 142.308 37.6003C142.115 37.636 141.936 37.7099 141.771 37.8219C141.607 37.9309 141.465 38.078 141.345 38.2634C141.226 38.4458 141.138 38.6652 141.083 38.9218L140.506 41.5927L139.579 41.3965L140.671 36.3479L141.413 36.5052L141.326 37.4402L141.368 37.4489C141.511 37.2877 141.673 37.1463 141.853 37.0246C142.035 36.9036 142.233 36.8193 142.444 36.7715C142.66 36.7213 142.885 36.7211 143.121 36.771Z" fill="white"/>
<path d="M137.326 35.5433C137.766 35.6365 138.123 35.8112 138.397 36.0672C138.672 36.3202 138.856 36.6356 138.95 37.0133C139.044 37.3909 139.041 37.8119 138.941 38.2761L138.828 38.7984L135.398 38.0719C135.29 38.6144 135.34 39.0593 135.546 39.4064C135.753 39.7505 136.1 39.974 136.586 40.077C136.907 40.145 137.199 40.175 137.463 40.167C137.727 40.159 138.006 40.1239 138.301 40.0618L138.133 40.836C137.855 40.8983 137.581 40.9283 137.313 40.9258C137.048 40.927 136.738 40.8901 136.383 40.815C135.894 40.7114 135.485 40.5227 135.158 40.2488C134.833 39.9757 134.61 39.6265 134.488 39.2013C134.366 38.7731 134.366 38.278 134.487 37.7161C134.607 37.1602 134.803 36.705 135.075 36.3505C135.347 35.993 135.676 35.7448 136.061 35.6059C136.445 35.467 136.867 35.4462 137.326 35.5433ZM137.167 36.257C136.794 36.178 136.468 36.2367 136.189 36.4331C135.91 36.6265 135.702 36.945 135.565 37.3886L138.05 37.915C138.107 37.6364 138.116 37.3827 138.076 37.1538C138.036 36.925 137.941 36.7325 137.793 36.5765C137.647 36.4211 137.439 36.3146 137.167 36.257Z" fill="white"/>
<path d="M134.892 33.399L131.069 39.5938L130.093 39.3869L129.165 32.1859L130.137 32.3918L130.697 37.0139C130.719 37.1752 130.737 37.3451 130.75 37.5234C130.763 37.6987 130.773 37.8733 130.78 38.0473C130.787 38.2213 130.79 38.38 130.788 38.5232C130.845 38.3916 130.911 38.2475 130.987 38.091C131.065 37.9352 131.148 37.7788 131.237 37.6218C131.326 37.4618 131.412 37.3109 131.497 37.1692L133.911 33.1912L134.892 33.399Z" fill="white"/>
<path d="M190.782 76.0636C191.094 76.388 191.291 76.7329 191.374 77.0982C191.458 77.4614 191.433 77.8253 191.298 78.19C191.163 78.5547 190.924 78.9005 190.579 79.2273L190.191 79.5949L187.762 77.0672C187.367 77.4544 187.157 77.8493 187.132 78.2518C187.11 78.6522 187.27 79.0315 187.615 79.3897C187.842 79.6262 188.067 79.8154 188.29 79.9571C188.513 80.0988 188.764 80.2269 189.043 80.3413L188.468 80.8863C188.202 80.781 187.959 80.652 187.739 80.4993C187.518 80.3511 187.282 80.1462 187.031 79.8849C186.685 79.5244 186.453 79.1391 186.336 78.7289C186.221 78.321 186.233 77.9072 186.372 77.4875C186.512 77.0657 186.791 76.6569 187.208 76.2614C187.621 75.8701 188.04 75.6045 188.464 75.4646C188.891 75.3225 189.303 75.3023 189.7 75.4041C190.097 75.5058 190.457 75.7256 190.782 76.0636ZM190.248 76.5633C189.984 76.2884 189.681 76.1536 189.34 76.1589C189 76.162 188.649 76.308 188.285 76.5969L190.045 78.4285C190.25 78.2306 190.4 78.026 190.495 77.8146C190.591 77.6031 190.622 77.3913 190.587 77.179C190.554 76.969 190.441 76.7638 190.248 76.5633Z" fill="white"/>
<path d="M187.09 72.2213C187.486 72.6335 187.676 73.0476 187.66 73.4635C187.648 73.8796 187.404 74.3133 186.928 74.7648L184.475 77.0899L183.829 76.4174L186.196 74.1729C186.491 73.8934 186.654 73.623 186.684 73.3616C186.717 73.1024 186.618 72.8535 186.389 72.6147C186.064 72.2767 185.726 72.1301 185.374 72.1748C185.027 72.2196 184.655 72.4301 184.259 72.8064L182.218 74.7413L181.568 74.0654L183.936 71.8209C184.133 71.6339 184.27 71.452 184.347 71.2754C184.427 71.0967 184.449 70.9232 184.413 70.7549C184.377 70.5867 184.281 70.4215 184.125 70.2593C183.902 70.0272 183.672 69.8897 183.436 69.8468C183.204 69.804 182.959 69.8445 182.701 69.9685C182.446 70.0947 182.175 70.2933 181.889 70.5641L179.961 72.3926L179.308 71.7134L183.056 68.1596L183.572 68.6969L183.15 69.2851L183.185 69.3223C183.386 69.2741 183.584 69.2654 183.778 69.2964C183.975 69.3296 184.162 69.3956 184.339 69.4944C184.519 69.5911 184.683 69.7172 184.832 69.8726C185.101 70.152 185.276 70.4358 185.358 70.724C185.44 71.0123 185.42 71.3003 185.298 71.5882L185.34 71.6322C185.666 71.5516 185.979 71.5688 186.281 71.6838C186.586 71.7988 186.856 71.9779 187.09 72.2213Z" fill="white"/>
<path d="M180.74 65.6147C181.052 65.9391 181.249 66.284 181.332 66.6493C181.416 67.0125 181.391 67.3765 181.256 67.7412C181.121 68.1059 180.882 68.4516 180.537 68.7784L180.149 69.146L177.72 66.6183C177.325 67.0056 177.115 67.4005 177.09 67.803C177.068 68.2033 177.228 68.5826 177.573 68.9408C177.8 69.1774 178.025 69.3665 178.248 69.5083C178.471 69.65 178.722 69.7781 179.001 69.8925L178.426 70.4375C178.16 70.3322 177.917 70.2032 177.697 70.0505C177.476 69.9022 177.24 69.6974 176.989 69.4361C176.643 69.0756 176.411 68.6903 176.294 68.2801C176.179 67.8721 176.191 67.4583 176.33 67.0386C176.47 66.6168 176.749 66.2081 177.166 65.8125C177.579 65.4212 177.998 65.1556 178.422 65.0157C178.849 64.8737 179.261 64.8535 179.658 64.9552C180.055 65.0569 180.415 65.2768 180.74 65.6147ZM180.206 66.1144C179.942 65.8396 179.639 65.7048 179.298 65.71C178.958 65.7132 178.607 65.8592 178.243 66.1481L180.003 67.9797C180.208 67.7818 180.358 67.5771 180.453 67.3657C180.549 67.1543 180.58 66.9424 180.545 66.7302C180.512 66.5202 180.399 66.3149 180.206 66.1144Z" fill="white"/>
<path d="M178.265 63.0396C178.33 63.1072 178.396 63.1847 178.463 63.2721C178.532 63.3574 178.588 63.4336 178.631 63.5007L177.926 64.0328C177.888 63.9658 177.839 63.892 177.778 63.8113C177.72 63.7329 177.662 63.6632 177.604 63.6024C177.465 63.4582 177.306 63.3466 177.126 63.2675C176.946 63.1884 176.756 63.1488 176.556 63.1486C176.359 63.1462 176.158 63.1878 175.955 63.2733C175.753 63.3568 175.557 63.4888 175.367 63.6694L173.384 65.5495L172.728 64.8668L176.476 61.313L177.002 61.8605L176.403 62.5833L176.432 62.6138C176.642 62.5614 176.856 62.5355 177.073 62.5361C177.292 62.539 177.503 62.5803 177.705 62.6598C177.912 62.7395 178.099 62.8661 178.265 63.0396Z" fill="white"/>
<path d="M171.96 63.1013C172.053 63.1982 172.155 63.2887 172.267 63.3728C172.38 63.4547 172.485 63.5188 172.581 63.5651L172.058 64.0617C171.95 64.0174 171.823 63.9418 171.677 63.8348C171.531 63.7323 171.394 63.6146 171.266 63.4817C171.071 63.2789 170.93 63.062 170.842 62.8309C170.754 62.5998 170.748 62.354 170.823 62.0937C170.9 61.8356 171.089 61.5635 171.39 61.2776L173.506 59.2717L173.009 58.7547L173.325 58.4548L174.097 58.7568L175.137 58.2292L175.54 58.6483L174.689 59.4545L175.725 60.5325L175.198 61.0324L174.162 59.9543L172.057 61.9505C171.846 62.1505 171.736 62.3495 171.727 62.5475C171.72 62.7478 171.798 62.9324 171.96 63.1013Z" fill="white"/>
<path d="M169.393 57.5837L170.009 54.5849L170.752 55.3587L170.252 57.5838L172.513 57.1903L173.25 57.9575L170.202 58.4252L169.567 61.5788L168.823 60.805L169.35 58.4384L166.939 58.845L166.202 58.0779L169.393 57.5837Z" fill="white"/>
<path d="M165.699 57.554L163.032 54.7796L168.005 50.0648L170.671 52.8393L170.073 53.4068L168.072 51.3252L166.592 52.728L168.473 54.6846L167.881 55.2457L166.001 53.2891L164.3 54.9015L166.301 56.9832L165.699 57.554Z" fill="white"/>
<path d="M202.27 120.217L202.018 119.305L209.054 117.384L209.306 118.297L202.27 120.217Z" fill="white"/>
<path d="M206.571 116.391L201.588 117.751L201.387 117.023L202.035 116.711L202.021 116.661C201.821 116.605 201.641 116.512 201.481 116.381C201.322 116.249 201.186 116.09 201.072 115.904C200.959 115.718 200.872 115.512 200.809 115.286C200.703 114.904 200.677 114.561 200.729 114.259C200.782 113.959 200.922 113.704 201.149 113.493C201.38 113.284 201.706 113.122 202.129 113.007L205.389 112.117L205.641 113.03L202.508 113.885C202.107 113.994 201.83 114.162 201.679 114.388C201.528 114.617 201.502 114.909 201.601 115.265C201.696 115.611 201.84 115.866 202.032 116.031C202.227 116.198 202.468 116.289 202.754 116.305C203.044 116.323 203.381 116.28 203.764 116.175L206.319 115.478L206.571 116.391Z" fill="white"/>
<path d="M204.457 111.473L204.118 110.249L199.836 111.417L199.585 110.509L203.867 109.341L203.633 108.496L204.072 108.376L204.581 109.146L204.925 109.052C205.344 108.937 205.698 108.91 205.987 108.971C206.279 109.03 206.517 109.165 206.701 109.373C206.886 109.585 207.027 109.864 207.123 110.211C207.18 110.418 207.215 110.613 207.226 110.795C207.238 110.979 207.239 111.141 207.229 111.28L206.468 111.235C206.472 111.123 206.471 111.001 206.463 110.867C206.458 110.732 206.436 110.594 206.397 110.452C206.324 110.19 206.186 110.019 205.982 109.939C205.779 109.861 205.508 109.869 205.167 109.962L204.819 110.057L205.158 111.281L204.457 111.473Z" fill="white"/>
<path d="M203.682 105.596C203.841 106.172 203.819 106.652 203.614 107.039C203.411 107.428 202.989 107.71 202.35 107.884L199.104 108.77L198.855 107.871L201.979 107.018C202.377 106.91 202.652 106.741 202.802 106.512C202.956 106.282 202.983 105.987 202.883 105.625C202.74 105.11 202.488 104.79 202.126 104.666C201.765 104.544 201.295 104.562 200.716 104.72L198.175 105.414L197.924 104.506L202.907 103.146L203.105 103.864L202.441 104.186L202.454 104.236C202.659 104.294 202.842 104.388 203.004 104.518C203.167 104.649 203.304 104.806 203.417 104.989C203.533 105.174 203.621 105.377 203.682 105.596Z" fill="white"/>
<path d="M202.478 101.596L197.495 102.956L197.244 102.048L202.227 100.688L202.478 101.596ZM204.24 100.634C204.28 100.779 204.272 100.914 204.216 101.039C204.16 101.168 204.038 101.258 203.848 101.31C203.658 101.362 203.505 101.347 203.388 101.265C203.275 101.186 203.199 101.074 203.159 100.929C203.118 100.782 203.126 100.645 203.182 100.52C203.242 100.397 203.367 100.309 203.557 100.257C203.747 100.205 203.897 100.218 204.009 100.294C204.122 100.373 204.199 100.487 204.24 100.634Z" fill="white"/>
<path d="M201.385 97.3129C201.555 97.9273 201.545 98.424 201.355 98.803C201.168 99.1812 200.78 99.4505 200.192 99.611L196.824 100.53L196.644 99.8799L197.318 99.5063L197.308 99.4702C197.089 99.381 196.898 99.2776 196.736 99.1599C196.574 99.0422 196.435 98.8922 196.32 98.7099C196.205 98.5306 196.109 98.2994 196.031 98.0164C195.947 97.7152 195.928 97.4324 195.971 97.1678C196.015 96.9033 196.126 96.6737 196.306 96.4789C196.489 96.2863 196.75 96.144 197.087 96.0518C197.594 95.9136 198.032 96.0029 198.401 96.3199C198.771 96.6368 199.077 97.1864 199.32 97.9689L199.593 98.8173L199.874 98.7408C200.263 98.6347 200.513 98.4725 200.624 98.2542C200.736 98.0389 200.75 97.7762 200.664 97.466C200.593 97.21 200.487 96.9749 200.347 96.7605C200.21 96.5454 200.06 96.3434 199.897 96.1545L200.477 95.6852C200.663 95.8872 200.838 96.1261 201.002 96.4021C201.166 96.681 201.294 96.9846 201.385 97.3129ZM198.994 98.9712L198.77 98.2842C198.59 97.7147 198.381 97.336 198.144 97.148C197.911 96.9622 197.643 96.9108 197.338 96.9939C197.073 97.0663 196.9 97.1992 196.821 97.3925C196.742 97.5859 196.738 97.8136 196.811 98.0756C196.922 98.4791 197.127 98.7795 197.425 98.9768C197.726 99.1763 198.1 99.2152 198.546 99.0934L198.994 98.9712Z" fill="white"/>
<path d="M201.377 91.2905C201.613 92.1428 201.614 92.8111 201.382 93.2956C201.151 93.7831 200.721 94.1124 200.094 94.2836C199.811 94.3609 199.529 94.3894 199.247 94.3689C198.969 94.3477 198.704 94.2614 198.451 94.1101C198.202 93.961 197.975 93.7365 197.769 93.4364C197.566 93.1356 197.397 92.7443 197.264 92.2624L197.055 91.508L194.519 92.2004L194.262 91.2743L200.873 89.47L201.377 91.2905ZM200.579 91.4305L200.352 90.6083L197.837 91.2945L198.019 91.9495C198.125 92.332 198.255 92.6412 198.412 92.8772C198.571 93.1123 198.763 93.2702 198.99 93.3509C199.217 93.4316 199.485 93.4295 199.796 93.3448C200.206 93.2329 200.476 93.0214 200.607 92.7103C200.738 92.3992 200.729 91.9726 200.579 91.4305Z" fill="white"/>
<path d="M13.7041 51.0619L15.1933 48.8505C15.8304 47.9044 16.4454 47.2778 17.0384 46.9707C17.6314 46.6637 18.2616 46.7348 18.929 47.1843C19.198 47.3654 19.4115 47.5728 19.5697 47.8065C19.73 48.0369 19.8253 48.28 19.8556 48.5359C19.8858 48.7917 19.8434 49.0504 19.7284 49.3121L19.777 49.3448C19.9849 49.141 20.2132 48.9839 20.4618 48.8734C20.7071 48.7608 20.9814 48.7242 21.2846 48.7635C21.5867 48.7974 21.9241 48.9398 22.2967 49.1908C22.7276 49.481 23.0261 49.835 23.192 50.2529C23.358 50.6708 23.3916 51.1314 23.2929 51.6347C23.193 52.1326 22.962 52.6505 22.5998 53.1883L20.8096 55.8468L13.7041 51.0619ZM17.5327 51.4502L18.1218 50.5754C18.4164 50.138 18.5523 49.7892 18.5297 49.5291C18.5038 49.2668 18.3564 49.0451 18.0875 48.864C17.8154 48.6807 17.5533 48.6503 17.3014 48.7726C17.0484 48.8895 16.7768 49.1634 16.4866 49.5944L15.9532 50.3866L17.5327 51.4502ZM18.7283 52.2554L20.58 53.5023L21.2411 52.5206C21.5466 52.067 21.6718 51.6922 21.6169 51.3961C21.5619 51.1001 21.387 50.8528 21.0922 50.6543C20.9172 50.5364 20.7371 50.4717 20.5519 50.46C20.3667 50.4483 20.1746 50.5097 19.9757 50.6442C19.779 50.7754 19.5727 51.0015 19.3567 51.3222L18.7283 52.2554Z" fill="white"/>
<path d="M17.7458 60.6072C17.3377 61.2131 16.7685 61.5479 16.038 61.6117C15.3064 61.67 14.4805 61.3894 13.5603 60.7697C12.6304 60.1435 12.0572 59.4772 11.8405 58.7709C11.6206 58.0624 11.7201 57.3972 12.1391 56.7751C12.3136 56.5159 12.5031 56.3114 12.7075 56.1618C12.9118 56.0121 13.122 55.9064 13.3379 55.8446C13.5559 55.7795 13.7733 55.7469 13.99 55.7469L14.0227 55.6983C13.9059 55.6479 13.7373 55.5696 13.5168 55.4635C13.2952 55.352 13.0775 55.2242 12.8636 55.0802L11.1237 53.9085L12.1252 52.4213L19.6875 57.5139L18.9217 58.6511L18.0239 58.4633L17.9813 58.5265C18.0671 58.7208 18.1235 58.9307 18.1507 59.1562C18.1767 59.3763 18.1599 59.6075 18.1003 59.8499C18.0407 60.0923 17.9225 60.3447 17.7458 60.6072ZM16.9149 59.2918C17.1877 58.8868 17.2598 58.521 17.1313 58.1943C17.0018 57.8622 16.6973 57.5276 16.2178 57.1906L16.0574 57.0826C15.5293 56.7269 15.0714 56.5363 14.6836 56.5106C14.2926 56.4828 13.9488 56.6892 13.652 57.1299C13.4317 57.4571 13.4002 57.808 13.5577 58.1825C13.7153 58.557 14.0597 58.9232 14.5911 59.281C15.1225 59.6389 15.5848 59.816 15.9781 59.8124C16.3736 59.8056 16.6858 59.6321 16.9149 59.2918Z" fill="white"/>
<path d="M11.9116 60.882C12.5233 61.294 13.0367 61.71 13.4519 62.1303C13.8694 62.5471 14.1748 62.9737 14.3681 63.4102C14.5636 63.8433 14.6355 64.2885 14.5837 64.7459C14.5319 65.2033 14.3431 65.6738 14.0173 66.1576C13.6077 66.7659 13.1176 67.1617 12.5471 67.345C11.9731 67.5261 11.333 67.5145 10.6267 67.3101C9.91705 67.1034 9.15615 66.7266 8.34404 66.1798C7.52502 65.6282 6.88224 65.0723 6.4157 64.512C5.94803 63.9459 5.689 63.3646 5.63863 62.7681C5.58825 62.1716 5.78065 61.5503 6.21583 60.9041C6.62309 60.2993 7.11371 59.9064 7.6877 59.7253C8.26056 59.5385 8.90301 59.5467 9.61503 59.7499C10.3236 59.9508 11.0891 60.3282 11.9116 60.882ZM9.4157 64.5884C9.99282 64.977 10.4958 65.2705 10.9248 65.469C11.3526 65.6616 11.7145 65.7471 12.0104 65.7254C12.3063 65.7036 12.545 65.558 12.7265 65.2884C12.9057 65.0224 12.9515 64.7493 12.8638 64.4692C12.775 64.1834 12.5609 63.8785 12.2215 63.5545C11.8787 63.2282 11.417 62.8696 10.8364 62.4786C10.2593 62.09 9.75513 61.7982 9.32387 61.6032C8.8926 61.4082 8.52785 61.3233 8.2296 61.3485C7.93023 61.3679 7.69094 61.5106 7.51175 61.7767C7.33023 62.0463 7.28676 62.3234 7.38135 62.6081C7.47248 62.8905 7.68946 63.1948 8.03229 63.5211C8.37745 63.844 8.83858 64.1997 9.4157 64.5884Z" fill="white"/>
<path d="M10.1818 68.2388L9.56747 69.1511L11.1381 70.2088L10.0839 71.7743L8.51326 70.7166L6.33503 73.9512L5.22054 73.2007L2.56472 66.5827L3.55959 65.1053L8.32339 68.3133L8.93776 67.401L10.1818 68.2388ZM7.26918 69.8788L5.98363 69.0131C5.86267 68.9316 5.72042 68.8333 5.55687 68.7182C5.39565 68.5995 5.23443 68.4809 5.0732 68.3623C4.91198 68.2437 4.76976 68.1379 4.64655 68.0449C4.52221 67.9461 4.43529 67.8775 4.38578 67.8391L4.35786 67.8806C4.45533 68.0417 4.54701 68.2039 4.63292 68.3672C4.71537 68.5282 4.79658 68.706 4.87657 68.9005L6.04043 71.7034L7.26918 69.8788Z" fill="white"/>
<path d="M59.1797 12.828L61.6546 11.4278C62.7134 10.8288 63.5989 10.524 64.3111 10.5137C65.0232 10.5033 65.5906 10.8716 66.0132 11.6186C66.1835 11.9195 66.2884 12.2192 66.328 12.5175C66.3712 12.8138 66.3462 13.0912 66.2531 13.3497C66.16 13.6083 65.9963 13.8349 65.7618 14.0298L65.7926 14.0842C66.0881 13.9888 66.3808 13.9477 66.6706 13.9608C66.9584 13.9703 67.2376 14.0661 67.5081 14.2481C67.7802 14.4245 68.0342 14.7211 68.2702 15.1381C68.543 15.6204 68.659 16.1005 68.6182 16.5783C68.5774 17.0562 68.39 17.5117 68.0558 17.9449C67.7233 18.3724 67.256 18.7564 66.654 19.0969L63.6788 20.7802L59.1797 12.828ZM62.6476 15.0234L63.6267 14.4695C64.1163 14.1925 64.4122 13.9245 64.5146 13.6655C64.615 13.4029 64.58 13.1211 64.4097 12.8202C64.2374 12.5156 64.0019 12.3616 63.7032 12.3583C63.4061 12.3492 63.0164 12.4811 62.5341 12.754L61.6475 13.2556L62.6476 15.0234ZM63.4047 16.3614L64.5771 18.4338L65.6759 17.8122C66.1835 17.525 66.4817 17.227 66.5704 16.9184C66.659 16.6097 66.61 16.2904 66.4233 15.9604C66.3125 15.7646 66.1716 15.617 66.0004 15.5176C65.8293 15.4181 65.6168 15.3852 65.3629 15.4187C65.1126 15.4502 64.808 15.5675 64.449 15.7706L63.4047 16.3614Z" fill="white"/>
<path d="M58.4851 23.8618C57.807 24.2455 57.1043 24.2936 56.3768 24.0063C55.651 23.7133 54.9967 23.0518 54.4141 22.022C53.8253 20.9813 53.5959 20.0723 53.7258 19.2951C53.8537 18.5143 54.2658 17.927 54.962 17.5331C55.2521 17.3689 55.5303 17.2642 55.7966 17.2188C56.063 17.1735 56.3139 17.1727 56.5493 17.2166C56.7884 17.2585 57.0113 17.331 57.2181 17.4342L57.2725 17.4034C57.1851 17.2997 57.0615 17.1447 56.9017 16.9383C56.7434 16.7263 56.5966 16.5006 56.4612 16.2612L55.3595 14.314L57.0239 13.3723L61.8122 21.8358L60.5394 22.5559L59.7723 21.9488L59.7016 21.9888C59.6908 22.2151 59.6446 22.4423 59.563 22.6704C59.483 22.8927 59.3568 23.1054 59.1843 23.3082C59.0119 23.5111 58.7788 23.6956 58.4851 23.8618ZM58.3193 22.2108C58.7726 21.9543 59.0158 21.6396 59.0489 21.2667C59.0836 20.888 58.9525 20.4237 58.6557 19.8736L58.5541 19.6941C58.2197 19.103 57.8736 18.7028 57.5159 18.4936C57.1561 18.2807 56.7296 18.3137 56.2365 18.5927C55.8702 18.7999 55.673 19.1198 55.6448 19.5522C55.6166 19.9846 55.7707 20.4981 56.1072 21.0928C56.4436 21.6875 56.8003 22.0769 57.1773 22.2609C57.5579 22.4429 57.9386 22.4262 58.3193 22.2108Z" fill="white"/>
<path d="M52.9652 21.5925C53.3283 22.2344 53.6017 22.836 53.7853 23.3975C53.9726 23.957 54.0551 24.4751 54.0329 24.952C54.0144 25.4268 53.8797 25.8572 53.629 26.2432C53.3782 26.6292 52.999 26.9658 52.4914 27.253C51.8532 27.6141 51.2379 27.7492 50.6455 27.6583C50.0511 27.5638 49.4837 27.2673 48.9432 26.7689C48.4007 26.2668 47.8884 25.5897 47.4063 24.7376C46.92 23.8782 46.5934 23.0936 46.4265 22.3839C46.261 21.6685 46.2891 21.0327 46.5106 20.4766C46.7321 19.9204 47.1819 19.4506 47.86 19.0669C48.4946 18.7079 49.1091 18.5756 49.7035 18.6702C50.2994 18.759 50.8705 19.0534 51.4166 19.5534C51.9607 20.0498 52.4769 20.7295 52.9652 21.5925ZM49.0761 23.7928C49.4187 24.3984 49.7375 24.8858 50.0326 25.255C50.3292 25.6185 50.6147 25.8567 50.8892 25.9695C51.1636 26.0823 51.4423 26.0587 51.7251 25.8987C52.0043 25.7407 52.1673 25.5168 52.214 25.2271C52.2623 24.9318 52.207 24.5633 52.0482 24.1218C51.8873 23.6767 51.6346 23.1496 51.2899 22.5404C50.9473 21.9348 50.6267 21.4484 50.328 21.0813C50.0293 20.7141 49.7409 20.4752 49.4629 20.3644C49.1864 20.248 48.9085 20.2688 48.6293 20.4267C48.3465 20.5868 48.1837 20.8152 48.1411 21.1122C48.0965 21.4055 48.1546 21.7748 48.3154 22.2199C48.4799 22.6629 48.7335 23.1873 49.0761 23.7928Z" fill="white"/>
<path d="M41.3591 28.9486C41.1006 28.4917 40.8778 28.0218 40.6908 27.5389C40.5053 27.0502 40.3841 26.5611 40.3273 26.0715C40.2684 25.5782 40.3033 25.0942 40.432 24.6193C40.5585 24.1408 40.8047 23.6832 41.1704 23.2465C41.534 22.8063 42.0458 22.3994 42.7057 22.026C42.8617 21.9378 43.0471 21.8425 43.262 21.7401C43.4785 21.632 43.6638 21.5534 43.818 21.5045L44.5781 22.848C44.4146 22.8974 44.2443 22.9602 44.0673 23.0365C43.8918 23.107 43.7224 23.1885 43.5593 23.2808C42.8993 23.6542 42.4475 24.0486 42.2039 24.4641C41.9639 24.8775 41.8752 25.313 41.9378 25.7707C42.002 26.2226 42.1609 26.7023 42.4146 27.2098L42.4853 27.1698C42.4863 26.9347 42.524 26.7052 42.5983 26.4812C42.6763 26.2552 42.8033 26.0397 42.9793 25.8348C43.1534 25.6263 43.389 25.4379 43.6864 25.2696C44.1505 25.007 44.6095 24.879 45.0632 24.8856C45.5148 24.8886 45.9388 25.0245 46.335 25.2934C46.7312 25.5623 47.0812 25.965 47.3848 26.5017C47.709 27.0746 47.8774 27.6304 47.8901 28.1689C47.9027 28.7074 47.7686 29.2022 47.4876 29.6532C47.2082 30.0985 46.7911 30.478 46.2363 30.7919C45.8301 31.0217 45.4122 31.1672 44.9825 31.2284C44.5508 31.286 44.1215 31.2464 43.6947 31.1097C43.2679 30.973 42.8571 30.7291 42.4622 30.3781C42.0653 30.0235 41.6976 29.547 41.3591 28.9486ZM45.4435 29.4669C45.7735 29.2802 45.9782 29.016 46.0577 28.6742C46.1372 28.3324 46.0416 27.9222 45.7708 27.4436C45.5513 27.0556 45.2883 26.8023 44.9818 26.6836C44.6769 26.5593 44.3432 26.5998 43.9806 26.8049C43.734 26.9444 43.5482 27.1237 43.4233 27.3428C43.2999 27.5562 43.2356 27.7769 43.2305 28.0048C43.2233 28.229 43.27 28.43 43.3706 28.6077C43.4752 28.7926 43.6042 28.9614 43.7575 29.114C43.9109 29.2665 44.0804 29.3884 44.266 29.4797C44.4516 29.5709 44.6445 29.6198 44.8444 29.6263C45.048 29.6308 45.2477 29.5777 45.4435 29.4669Z" fill="white"/>
<path d="M123.423 1.20532L126.266 1.24606C127.483 1.26349 128.401 1.44748 129.021 1.79804C129.641 2.14859 129.945 2.75296 129.932 3.61113C129.927 3.9569 129.867 4.26853 129.75 4.54604C129.638 4.8236 129.476 5.05045 129.265 5.2266C129.054 5.40275 128.799 5.51576 128.498 5.56561L128.497 5.6281C128.8 5.69495 129.074 5.8072 129.317 5.96486C129.561 6.11835 129.754 6.34195 129.895 6.63565C130.041 6.92525 130.111 7.30958 130.104 7.78866C130.096 8.34272 129.954 8.81569 129.677 9.20757C129.401 9.59945 129.009 9.89801 128.502 10.1032C127.999 10.3044 127.402 10.4 126.71 10.3901L123.292 10.3411L123.423 1.20532ZM125.308 4.85115L126.433 4.86726C126.995 4.87532 127.386 4.79342 127.605 4.62156C127.824 4.44553 127.936 4.18463 127.941 3.83886C127.946 3.48893 127.821 3.23712 127.565 3.08345C127.313 2.92567 126.91 2.84281 126.356 2.83487L125.337 2.82028L125.308 4.85115ZM125.286 6.38836L125.252 8.76916L126.514 8.78725C127.097 8.79561 127.505 8.68895 127.738 8.46727C127.97 8.2456 128.089 7.94521 128.094 7.56612C128.098 7.34116 128.05 7.14256 127.953 6.97033C127.855 6.79809 127.688 6.66237 127.452 6.56315C127.22 6.46399 126.898 6.41146 126.486 6.40555L125.286 6.38836Z" fill="white"/>
<path d="M117.254 10.3796C116.475 10.3684 115.844 10.0552 115.361 9.43995C114.882 8.82058 114.651 7.91934 114.668 6.73623C114.685 5.54062 114.946 4.64018 115.451 4.03489C115.955 3.42545 116.608 3.12645 117.407 3.13791C117.741 3.14269 118.034 3.19272 118.287 3.28801C118.539 3.3833 118.756 3.50933 118.937 3.66609C119.123 3.82292 119.279 3.99807 119.405 4.19155L119.467 4.19245C119.444 4.05878 119.416 3.86254 119.382 3.60371C119.353 3.34078 119.34 3.07185 119.344 2.7969L119.376 0.559817L121.288 0.587214L121.149 10.3104L119.686 10.2894L119.331 9.37808L119.249 9.37691C119.126 9.56681 118.971 9.7396 118.786 9.89528C118.604 10.0469 118.388 10.1667 118.137 10.2547C117.886 10.3428 117.591 10.3844 117.254 10.3796ZM117.944 8.8707C118.465 8.87816 118.834 8.72928 119.051 8.42405C119.272 8.11471 119.393 7.64769 119.414 7.02299L119.417 6.81677C119.427 6.13774 119.33 5.61759 119.127 5.25634C118.924 4.89092 118.539 4.70416 117.973 4.69604C117.552 4.69001 117.22 4.86651 116.978 5.22554C116.735 5.58457 116.609 6.10569 116.599 6.78889C116.589 7.4721 116.7 7.98829 116.933 8.33746C117.17 8.68669 117.507 8.86444 117.944 8.8707Z" fill="white"/>
<path d="M113.634 5.63393C113.624 6.37129 113.556 7.02867 113.431 7.60605C113.31 8.1835 113.12 8.67245 112.86 9.0729C112.604 9.47341 112.271 9.77697 111.859 9.98358C111.448 10.1902 110.951 10.2893 110.368 10.281C109.634 10.2705 109.035 10.0764 108.57 9.69894C108.104 9.31726 107.764 8.77488 107.549 8.07179C107.334 7.36453 107.234 6.52141 107.248 5.54243C107.262 4.55511 107.376 3.71298 107.59 3.01604C107.809 2.31499 108.154 1.78034 108.626 1.4121C109.098 1.04385 109.723 0.865311 110.502 0.876472C111.231 0.886918 111.829 1.08298 112.294 1.46465C112.764 1.84222 113.108 2.38466 113.327 3.09198C113.546 3.79513 113.648 4.64245 113.634 5.63393ZM109.166 5.56991C109.156 6.26562 109.186 6.84729 109.254 7.31495C109.326 7.7785 109.453 8.12823 109.633 8.36414C109.812 8.60006 110.065 8.72034 110.39 8.725C110.711 8.7296 110.964 8.61865 111.151 8.39215C111.342 8.16155 111.48 7.8156 111.566 7.35432C111.652 6.88888 111.7 6.30622 111.71 5.60635C111.72 4.91065 111.688 4.32894 111.616 3.86123C111.543 3.39352 111.415 3.04167 111.231 2.8057C111.051 2.56561 110.801 2.44328 110.48 2.43868C110.155 2.43402 109.899 2.54911 109.712 2.78394C109.526 3.0146 109.39 3.36266 109.304 3.8281C109.222 4.29361 109.176 4.87421 109.166 5.56991Z" fill="white"/>
<path d="M103.191 0.79663C103.716 0.804151 104.198 0.89231 104.638 1.06111C105.081 1.22996 105.434 1.48085 105.696 1.81378C105.958 2.14254 106.085 2.5527 106.078 3.04428C106.073 3.41088 105.995 3.7306 105.845 4.00346C105.7 4.27638 105.503 4.51523 105.254 4.72C105.005 4.92061 104.724 5.09574 104.409 5.2454C104.731 5.42086 105.037 5.62524 105.325 5.85854C105.614 6.08768 105.847 6.35561 106.026 6.66235C106.209 6.96915 106.298 7.32459 106.292 7.72868C106.285 8.23692 106.143 8.67656 105.867 9.04761C105.591 9.4145 105.212 9.69657 104.73 9.89383C104.248 10.0911 103.69 10.1852 103.057 10.1761C102.374 10.1663 101.794 10.0601 101.318 9.85745C100.842 9.65479 100.481 9.37045 100.236 9.00444C99.9915 8.63426 99.8728 8.19505 99.8801 7.68681C99.8861 7.27022 99.9683 6.90889 100.127 6.60283C100.29 6.29682 100.506 6.03533 100.776 5.81836C101.045 5.59722 101.342 5.4098 101.665 5.25609C101.397 5.08141 101.152 4.88414 100.93 4.66429C100.712 4.4445 100.538 4.1941 100.409 3.91307C100.284 3.63211 100.224 3.31041 100.229 2.94798C100.236 2.46474 100.377 2.06258 100.653 1.74153C100.932 1.42053 101.296 1.18198 101.744 1.0259C102.192 0.865653 102.675 0.789229 103.191 0.79663ZM101.669 7.59994C101.664 7.92904 101.777 8.20358 102.007 8.42355C102.242 8.63941 102.59 8.75065 103.052 8.75728C103.531 8.76414 103.891 8.66721 104.132 8.46649C104.372 8.26159 104.495 7.99043 104.499 7.65299C104.503 7.4197 104.437 7.21459 104.302 7.03765C104.171 6.86078 104.005 6.70214 103.803 6.56174C103.6 6.41717 103.396 6.28299 103.19 6.1592L103.022 6.0693C102.754 6.18629 102.519 6.31834 102.316 6.46544C102.118 6.61261 101.962 6.77912 101.847 6.96497C101.732 7.15083 101.672 7.36248 101.669 7.59994ZM103.159 2.20869C102.842 2.20415 102.578 2.28162 102.368 2.44111C102.157 2.60059 102.05 2.82823 102.046 3.124C102.043 3.3323 102.09 3.51631 102.188 3.67605C102.29 3.83168 102.423 3.96901 102.588 4.08804C102.757 4.20713 102.941 4.3181 103.139 4.42095C103.332 4.33205 103.513 4.23255 103.681 4.12246C103.849 4.01237 103.987 3.87892 104.093 3.7221C104.2 3.56529 104.254 3.37649 104.258 3.1557C104.262 2.85992 104.159 2.62927 103.949 2.46376C103.743 2.29831 103.479 2.21328 103.159 2.20869Z" fill="white"/>
<path d="M187.7 21.1135L190.123 22.6021C191.16 23.2389 191.855 23.8664 192.208 24.4847C192.562 25.1029 192.514 25.7777 192.065 26.5089C191.884 26.8036 191.672 27.0404 191.43 27.2193C191.192 27.4005 190.937 27.5128 190.666 27.5564C190.394 27.6 190.117 27.5664 189.833 27.4555L189.8 27.5087C190.027 27.7212 190.204 27.9574 190.333 28.2175C190.464 28.4739 190.515 28.7646 190.487 29.0894C190.464 29.4129 190.327 29.7787 190.076 30.1869C189.786 30.6591 189.422 30.9929 188.984 31.1883C188.547 31.3838 188.057 31.4401 187.516 31.3573C186.981 31.273 186.419 31.0499 185.83 30.6879L182.917 28.8983L187.7 21.1135ZM187.457 25.2107L188.415 25.7996C188.894 26.094 189.272 26.2234 189.548 26.1877C189.827 26.1485 190.056 25.9816 190.237 25.6869C190.421 25.3887 190.441 25.1081 190.3 24.8451C190.164 24.5807 189.86 24.3035 189.388 24.0134L188.52 23.4802L187.457 25.2107ZM186.652 26.5206L185.405 28.5494L186.481 29.2102C186.978 29.5155 187.383 29.6323 187.696 29.5606C188.009 29.4889 188.265 29.2915 188.463 28.9684C188.581 28.7768 188.642 28.582 188.646 28.3841C188.651 28.1862 188.577 27.9843 188.424 27.7783C188.276 27.5745 188.026 27.3647 187.674 27.1488L186.652 26.5206Z" fill="white"/>
<path d="M177.708 25.8446C177.045 25.4367 176.662 24.845 176.562 24.0693C176.467 23.2923 176.73 22.3998 177.349 21.3916C177.975 20.3728 178.659 19.7322 179.402 19.4699C180.148 19.2041 180.861 19.2806 181.543 19.6993C181.827 19.8738 182.053 20.0666 182.221 20.2777C182.39 20.4889 182.512 20.7081 182.588 20.9354C182.667 21.1649 182.711 21.3951 182.721 21.626L182.774 21.6587C182.822 21.532 182.898 21.3488 183.002 21.1091C183.111 20.868 183.237 20.6303 183.381 20.396L184.552 18.4898L186.182 19.4908L181.091 27.7762L179.845 27.0107L180.005 26.0456L179.936 26.003C179.733 26.1031 179.512 26.1726 179.273 26.2115C179.039 26.2491 178.792 26.2415 178.531 26.1887C178.27 26.1359 177.996 26.0212 177.708 25.8446ZM179.073 24.9007C179.517 25.1733 179.91 25.2339 180.252 25.0824C180.601 24.9296 180.944 24.5902 181.281 24.0643L181.389 23.8886C181.745 23.3099 181.928 22.8135 181.938 22.3991C181.95 21.9812 181.715 21.624 181.232 21.3274C180.873 21.1071 180.498 21.0892 180.106 21.2737C179.714 21.4583 179.339 21.8416 178.981 22.4238C178.624 23.006 178.455 23.5065 178.477 23.9255C178.502 24.3466 178.7 24.6717 179.073 24.9007Z" fill="white"/>
<path d="M177.023 19.9155C176.637 20.5438 176.243 21.0741 175.84 21.5065C175.441 21.941 175.028 22.264 174.6 22.4753C174.175 22.6887 173.733 22.7791 173.274 22.7464C172.815 22.7137 172.337 22.5447 171.84 22.2394C171.215 21.8555 170.799 21.3824 170.592 20.82C170.387 20.2541 170.372 19.614 170.547 18.8999C170.724 18.1822 171.069 17.4062 171.581 16.572C172.098 15.7307 172.627 15.0653 173.167 14.5758C173.713 14.0849 174.283 13.8019 174.877 13.7266C175.471 13.6514 176.1 13.8177 176.763 14.2256C177.385 14.6073 177.798 15.0811 178.003 15.647C178.213 16.2116 178.232 16.8538 178.058 17.5737C177.887 18.29 177.542 19.0706 177.023 19.9155ZM173.216 17.5764C172.852 18.1692 172.579 18.684 172.399 19.1209C172.224 19.5563 172.154 19.9214 172.188 20.2162C172.222 20.511 172.378 20.7434 172.655 20.9135C172.928 21.0814 173.203 21.1158 173.479 21.0165C173.761 20.9158 174.056 20.6892 174.366 20.3366C174.678 19.9805 175.017 19.5042 175.383 18.9079C175.747 18.315 176.018 17.7991 176.195 17.3601C176.371 16.9211 176.441 16.5531 176.403 16.2561C176.372 15.9578 176.219 15.7247 175.946 15.5568C175.669 15.3867 175.39 15.3548 175.11 15.4612C174.831 15.564 174.536 15.7935 174.224 16.1496C173.916 16.508 173.58 16.9835 173.216 17.5764Z" fill="white"/>
<path d="M170.783 16.0814C170.397 16.7097 170.003 17.24 169.6 17.6724C169.201 18.1069 168.787 18.4299 168.359 18.6411C167.935 18.8546 167.493 18.945 167.034 18.9123C166.575 18.8796 166.097 18.7106 165.6 18.4053C164.975 18.0214 164.559 17.5483 164.352 16.9859C164.147 16.42 164.132 15.7799 164.307 15.0658C164.484 14.3481 164.828 13.5721 165.341 12.7379C165.858 11.8966 166.386 11.2312 166.927 10.7417C167.473 10.2508 168.043 9.96775 168.637 9.89254C169.231 9.81732 169.859 9.98363 170.523 10.3915C171.144 10.7732 171.558 11.247 171.762 11.8129C171.973 12.3775 171.992 13.0197 171.818 13.7396C171.647 14.4559 171.302 15.2365 170.783 16.0814ZM166.976 13.7423C166.611 14.3351 166.339 14.8499 166.159 15.2867C165.984 15.7222 165.914 16.0873 165.948 16.3821C165.982 16.6768 166.137 16.9093 166.414 17.0794C166.688 17.2473 166.962 17.2817 167.238 17.1824C167.52 17.0817 167.816 16.8551 168.126 16.5025C168.437 16.1464 168.776 15.6701 169.143 15.0737C169.507 14.4809 169.778 13.965 169.954 13.526C170.131 13.087 170.201 12.719 170.163 12.422C170.131 12.1237 169.979 11.8906 169.705 11.7227C169.428 11.5526 169.15 11.5207 168.869 11.6271C168.591 11.7299 168.296 11.9594 167.984 12.3155C167.676 12.6738 167.34 13.1494 166.976 13.7423Z" fill="white"/>
<path d="M160.82 15.3217L159.174 14.3108L161.942 9.80604C162.018 9.6818 162.114 9.53024 162.229 9.35138C162.346 9.16897 162.467 8.9841 162.591 8.79677C162.719 8.60589 162.834 8.43453 162.937 8.2827C162.869 8.30486 162.74 8.33566 162.55 8.3751C162.365 8.41317 162.194 8.44496 162.036 8.47046L160.7 8.63969L160.515 7.16183L164.25 6.70591L165.603 7.53687L160.82 15.3217Z" fill="white"/>
<path d="M229.939 73.9542L231.226 76.4902C231.776 77.5752 232.04 78.4737 232.018 79.1856C231.996 79.8975 231.602 80.4475 230.837 80.8357C230.528 80.9921 230.224 81.0833 229.924 81.1092C229.626 81.1389 229.35 81.1013 229.096 80.9966C228.842 80.8918 228.623 80.7179 228.44 80.4749L228.384 80.5032C228.466 80.8027 228.493 81.0969 228.467 81.3859C228.444 81.6729 228.336 81.9475 228.142 82.2094C227.953 82.4732 227.645 82.7135 227.218 82.9302C226.724 83.1808 226.239 83.2749 225.764 83.2124C225.288 83.1499 224.842 82.9419 224.424 82.5884C224.012 82.2367 223.65 81.7525 223.337 81.1357L221.791 78.0869L229.939 73.9542ZM227.589 77.3187L228.097 78.322C228.352 78.8236 228.606 79.1315 228.86 79.2455C229.118 79.3577 229.401 79.3356 229.709 79.1792C230.021 79.0209 230.186 78.7926 230.203 78.4944C230.225 78.198 230.111 77.8027 229.861 77.3085L229.4 76.4L227.589 77.3187ZM226.217 78.0141L224.094 79.0911L224.665 80.217C224.929 80.7372 225.213 81.0486 225.517 81.1512C225.821 81.2538 226.143 81.2193 226.481 81.0479C226.681 80.9461 226.835 80.812 226.942 80.6455C227.05 80.4791 227.092 80.2683 227.07 80.0132C227.05 79.7617 226.947 79.4521 226.76 79.0842L226.217 78.0141Z" fill="white"/>
<path d="M218.949 72.7593C218.596 72.0644 218.58 71.3602 218.9 70.6466C219.226 69.9348 219.917 69.3114 220.972 68.7762C222.038 68.2353 222.957 68.0475 223.727 68.2126C224.501 68.3759 225.069 68.8143 225.431 69.5277C225.582 69.8249 225.674 70.1076 225.707 70.3758C225.74 70.6439 225.73 70.8945 225.675 71.1278C225.623 71.3647 225.54 71.5841 225.427 71.786L225.456 71.8417C225.563 71.7591 225.724 71.6427 225.937 71.4924C226.156 71.3439 226.388 71.2075 226.634 71.0832L228.629 70.0712L229.494 71.7767L220.821 76.1751L220.16 74.8709L220.801 74.1322L220.765 74.0597C220.539 74.0386 220.314 73.9822 220.09 73.8903C219.872 73.8002 219.665 73.6644 219.47 73.483C219.275 73.3015 219.101 73.0602 218.949 72.7593ZM220.606 72.6687C220.841 73.1332 221.145 73.3905 221.516 73.4405C221.892 73.4924 222.362 73.3826 222.925 73.1111L223.109 73.0178C223.715 72.7106 224.13 72.3831 224.356 72.0353C224.585 71.6855 224.571 71.258 224.315 70.7526C224.124 70.3773 223.814 70.1658 223.383 70.1179C222.953 70.0701 222.433 70.2007 221.823 70.5097C221.214 70.8188 220.809 71.1574 220.608 71.5256C220.408 71.8976 220.408 72.2786 220.606 72.6687Z" fill="white"/>
<path d="M221.467 67.348C220.809 67.6816 220.195 67.9273 219.626 68.0852C219.059 68.2468 218.537 68.3057 218.062 68.2618C217.589 68.2217 217.165 68.0676 216.791 67.7995C216.416 67.5315 216.097 67.1374 215.834 66.6172C215.502 65.9632 215.395 65.3424 215.513 64.7548C215.634 64.1653 215.956 63.612 216.479 63.0947C217.005 62.5756 217.705 62.0946 218.578 61.6517C219.458 61.2051 220.257 60.9145 220.974 60.78C221.696 60.6473 222.33 60.7043 222.875 60.9508C223.421 61.1974 223.87 61.6681 224.222 62.3629C224.552 63.0132 224.656 63.6331 224.534 64.2226C224.418 64.8139 224.098 65.371 223.574 65.8938C223.053 66.4148 222.351 66.8995 221.467 67.348ZM219.446 63.3628C218.825 63.6776 218.324 63.9739 217.941 64.2518C217.565 64.5316 217.314 64.806 217.189 65.075C217.064 65.3441 217.074 65.6235 217.221 65.9133C217.367 66.1994 217.583 66.3724 217.87 66.4322C218.163 66.4939 218.533 66.4555 218.982 66.3169C219.434 66.1764 219.972 65.9479 220.596 65.6313C221.217 65.3166 221.717 65.0184 222.097 64.7368C222.478 64.4551 222.73 64.1779 222.853 63.9052C222.982 63.6342 222.974 63.3557 222.828 63.0696C222.682 62.7798 222.461 62.6068 222.166 62.5508C221.875 62.4928 221.503 62.5341 221.051 62.6745C220.601 62.8187 220.066 63.0481 219.446 63.3628Z" fill="white"/>
<path d="M214.102 62.9266L211.213 57.2303L212.412 56.6226L215.517 57.6194C216.15 57.817 216.67 57.9687 217.079 58.0744C217.493 58.182 217.846 58.2321 218.136 58.2249C218.429 58.2214 218.709 58.1517 218.976 58.0161C219.3 57.8521 219.495 57.6386 219.563 57.3755C219.636 57.1142 219.596 56.8331 219.443 56.5321C219.283 56.2163 219.055 55.9465 218.759 55.7227C218.464 55.4989 218.1 55.2933 217.669 55.1057L218.303 53.6068C218.622 53.7391 218.937 53.8901 219.247 54.0597C219.56 54.2331 219.857 54.4652 220.14 54.7562C220.429 55.0489 220.696 55.4387 220.943 55.9254C221.215 56.4605 221.351 56.9684 221.352 57.4491C221.354 57.9335 221.241 58.3646 221.013 58.7423C220.787 59.1181 220.465 59.4125 220.045 59.6254C219.595 59.8534 219.14 59.9725 218.677 59.9826C218.215 59.9927 217.716 59.9191 217.178 59.762C216.643 59.6085 216.032 59.4042 215.347 59.1492L213.829 58.6016L213.751 58.6412L215.551 62.1916L214.102 62.9266Z" fill="white"/>
<path d="M210.06 54.9563L209.186 53.234L213.902 50.8426C214.032 50.7767 214.193 50.6975 214.384 50.6051C214.579 50.5108 214.779 50.4165 214.983 50.3222C215.191 50.226 215.379 50.1401 215.546 50.0646C215.477 50.0482 215.351 50.007 215.168 49.941C214.991 49.8768 214.828 49.8144 214.681 49.7537L213.454 49.199L214.069 47.8427L217.491 49.4079L218.209 50.8236L210.06 54.9563Z" fill="white"/>
<defs>
<linearGradient id="paint0_linear_615_970" x1="143" y1="18.5" x2="129.5" y2="76" gradientUnits="userSpaceOnUse">
<stop offset="0.307908" stop-color="#FF0000"/>
<stop offset="1" stop-color="#990000"/>
</linearGradient>
</defs>
</svg>
