<?xml version="1.0" encoding="utf-8"?>
<!-- Generator: Adobe Illustrator 27.6.1, SVG Export Plug-In . SVG Version: 6.00 Build 0)  -->
<svg version="1.1" id="Layer_1" xmlns="http://www.w3.org/2000/svg" xmlns:xlink="http://www.w3.org/1999/xlink" x="0px" y="0px"
	 viewBox="0 0 223 121" style="enable-background:new 0 0 223 121;" xml:space="preserve">
<style type="text/css">
	.st0{fill:#830D1D;}
	.st1{fill:#FB8801;}
	.st2{fill:url(#SVGID_1_);}
	.st3{fill:#E4C73B;}
	.st4{fill:#2FC016;}
	.st5{fill:#010101;}
	.st6{fill:#FFFFFF;}
</style>
<path class="st0" d="M160,92.8l20.4-11.6l16.8-9.6c2-1.1,2.6-3.6,1.4-5.5c-8.3-12.7-20-24.3-32.9-32.5c-1.8-1.2-4.2-0.6-5.4,1.3
	l-1.2,2l-8.6,14.7l-11.4,20.3c8.2,4.9,15.5,11.9,20.4,20.1L160,92.8z"/>
<path class="st1" d="M81.9,71.4c8.1-4.5,20.6-6.9,30.5-7.1c0,0-0.3-15.2-0.3-24.3c0-6,0-14.3,0-19.2c0-2.2-1.8-4.1-4.1-3.9
	C92.1,17.6,75.2,22,61.7,28.7c-2,1-2.7,3.5-1.6,5.5l9.7,16.6L81.9,71.4z"/>
<linearGradient id="SVGID_1_" gradientUnits="userSpaceOnUse" x1="138.5055" y1="105.4" x2="125.664" y2="50.7049" gradientTransform="matrix(1 0 0 -1 0 123)">
	<stop  offset="0.3079" style="stop-color:#FF0000"/>
	<stop  offset="1" style="stop-color:#990000"/>
</linearGradient>
<path class="st2" d="M112.1,64.3c9.7,0.2,19.4,3.1,27.3,7.6l11.5-20.4l9.2-16.9c1.1-1.9,0.4-4.4-1.5-5.4
	c-12.8-6.7-27.3-11-42.5-11.8c-2.2-0.1-4,1.7-4,4v19.2V64.3z"/>
<path class="st3" d="M59.8,90.8c5-8.2,14.9-15.2,23.3-20.1L70.8,50l-10-16.8c-1.1-1.9-3.7-2.6-5.6-1.4c-13.3,8.3-26.5,20.1-35.2,33
	c-1.3,1.9-0.6,4.4,1.4,5.6L38.7,80l20.5,12L59.8,90.8z"/>
<path class="st4" d="M51.3,120.8c0.2-10.1,3.4-20.9,8-29.1L38.4,79.8l-17-10.1c-1.9-1.2-4.4-0.5-5.5,1.6
	c-6.8,13.4-11,29.4-11.8,45.4c-0.1,2.3,1.7,4.2,4,4.2h19.5H51.3z"/>
<path class="st5" d="M160,92.8c4.5,8,7.7,18.3,7.8,28.2h43c2.2,0,4.1-1.8,3.9-4.1c-0.8-15.5-5.2-30.8-12-43.9c-1-2-3.5-2.6-5.4-1.5
	L180,81.4L160,92.8z"/>
<path class="st6" d="M31.3,88.5c0-0.1,0.1-0.3,0.1-0.4c0-0.1,0-0.2,0-0.3L32,88c0,0.1,0,0.2,0,0.4c0,0.2,0,0.3-0.1,0.5
	c-0.1,0.3-0.2,0.5-0.3,0.7c-0.1,0.2-0.3,0.3-0.6,0.4c-0.2,0.1-0.6,0-0.9-0.1l-2.7-0.7l-0.2,0.7l-0.4-0.1l-0.1-0.8l-0.9-0.6l0.1-0.5
	l1.1,0.3l0.4-1.4l0.7,0.2l-0.4,1.4l2.7,0.7c0.3,0.1,0.5,0.1,0.6,0C31.1,88.9,31.2,88.7,31.3,88.5z"/>
<path class="st6" d="M25.7,92.1c0.1-0.4,0.3-0.7,0.6-1c0.3-0.2,0.6-0.4,0.9-0.5c0.4-0.1,0.8,0,1.2,0.1l0.5,0.1L28,94.1
	c0.5,0.1,0.9,0.1,1.3-0.1c0.3-0.2,0.6-0.5,0.7-0.9c0.1-0.3,0.1-0.6,0.1-0.8c0-0.3,0-0.5,0-0.8l0.7,0.2c0,0.3,0.1,0.5,0,0.8
	c0,0.3-0.1,0.5-0.2,0.9c-0.1,0.5-0.3,0.8-0.6,1.1c-0.3,0.3-0.6,0.5-1,0.6c-0.4,0.1-0.9,0.1-1.4-0.1c-0.5-0.1-0.9-0.4-1.3-0.6
	c-0.3-0.3-0.5-0.6-0.6-1C25.6,93,25.6,92.6,25.7,92.1z M26.4,92.3c-0.1,0.3-0.1,0.7,0.1,0.9c0.2,0.3,0.5,0.5,0.9,0.6l0.7-2.3
	c-0.3-0.1-0.5-0.1-0.7-0.1c-0.2,0-0.4,0.1-0.6,0.2C26.6,91.9,26.4,92.1,26.4,92.3z"/>
<path class="st6" d="M24.9,95.5l4.7,1.3l-0.2,0.9l-4.7-1.3L24.9,95.5z M22.9,95.4c0-0.1,0.1-0.2,0.2-0.3c0.1-0.1,0.3-0.1,0.4,0
	c0.2,0.1,0.3,0.1,0.4,0.3c0.1,0.1,0.1,0.2,0,0.4c0,0.1-0.1,0.2-0.2,0.3c-0.1,0.1-0.3,0.1-0.4,0C23.1,96,23,95.9,23,95.8
	C22.9,95.7,22.9,95.6,22.9,95.4z"/>
<path class="st6" d="M24.2,97.8l4.7,1.3l-0.2,0.7l-0.7-0.1l0,0c0.1,0.1,0.2,0.3,0.3,0.5c0.1,0.2,0.1,0.4,0.1,0.6
	c0,0.2,0,0.4-0.1,0.6c-0.1,0.4-0.2,0.7-0.4,0.9c-0.2,0.2-0.4,0.4-0.7,0.4c-0.3,0.1-0.6,0-1-0.1l-3.1-0.9l0.2-0.9l3,0.8
	c0.4,0.1,0.7,0.1,0.9,0c0.2-0.1,0.4-0.3,0.5-0.7c0.1-0.3,0.1-0.6,0-0.8c-0.1-0.2-0.2-0.4-0.5-0.6c-0.2-0.2-0.5-0.3-0.9-0.4L24,98.7
	L24.2,97.8z"/>
<path class="st6" d="M24.3,103.5c0.5,0.1,0.9,0.3,1.3,0.6c0.4,0.2,0.7,0.5,0.9,0.9c0.2,0.3,0.3,0.7,0.4,1.2l2-1l-0.3,1.2l-1.8,0.8
	c0,0,0,0.1,0,0.1c0,0,0,0.1,0,0.1c-0.1,0.5-0.3,0.9-0.6,1.2c-0.3,0.3-0.6,0.6-0.9,0.7c-0.4,0.2-0.7,0.2-1.2,0.3
	c-0.4,0-0.9-0.1-1.4-0.2c-0.6-0.2-1.2-0.4-1.6-0.8c-0.4-0.3-0.7-0.8-0.9-1.3c-0.1-0.5-0.1-1.1,0.1-1.7c0.2-0.6,0.5-1.1,0.8-1.5
	c0.4-0.4,0.9-0.6,1.4-0.7C23,103.3,23.6,103.4,24.3,103.5z M22.9,108.4c0.5,0.1,1,0.2,1.4,0.2c0.4,0,0.8-0.2,1-0.4
	c0.3-0.2,0.5-0.6,0.6-1c0.1-0.5,0.1-0.9,0-1.2c-0.1-0.3-0.3-0.6-0.7-0.9c-0.3-0.2-0.8-0.4-1.3-0.6c-0.8-0.2-1.4-0.2-1.9,0
	c-0.5,0.2-0.9,0.6-1.1,1.3c-0.1,0.5-0.1,0.9,0,1.2c0.1,0.3,0.3,0.6,0.7,0.9C22,108.1,22.4,108.3,22.9,108.4z"/>
<path class="st6" d="M57.6,65c0.3-0.3,0.6-0.5,1-0.6c0.3-0.1,0.7-0.1,1,0c0.4,0.1,0.7,0.3,1,0.6l0.4,0.3l-2.3,2.4
	c0.4,0.4,0.8,0.5,1.2,0.5c0.4,0,0.7-0.2,1.1-0.5c0.2-0.2,0.4-0.4,0.5-0.7c0.1-0.2,0.2-0.5,0.3-0.7l0.6,0.5c-0.1,0.3-0.2,0.5-0.3,0.7
	c-0.1,0.2-0.3,0.4-0.5,0.7c-0.3,0.3-0.7,0.6-1.1,0.7c-0.4,0.1-0.8,0.1-1.2,0c-0.4-0.1-0.8-0.4-1.2-0.7c-0.4-0.4-0.7-0.7-0.8-1.1
	C57,66.8,56.9,66.4,57,66C57.1,65.7,57.3,65.3,57.6,65z M58.1,65.5c-0.2,0.3-0.4,0.6-0.3,0.9c0,0.3,0.2,0.6,0.5,1l1.7-1.8
	c-0.2-0.2-0.4-0.3-0.6-0.4c-0.2-0.1-0.4-0.1-0.6-0.1C58.5,65.1,58.3,65.3,58.1,65.5z"/>
<path class="st6" d="M58.3,70.6c0.1-0.1,0.2-0.2,0.2-0.3c0.1-0.1,0.1-0.2,0.2-0.3l0.5,0.5c0,0.1-0.1,0.2-0.2,0.4
	c-0.1,0.1-0.2,0.3-0.3,0.4c-0.2,0.2-0.4,0.3-0.6,0.4c-0.2,0.1-0.5,0.1-0.7,0.1c-0.3-0.1-0.5-0.2-0.8-0.5l-2-1.9l-0.5,0.5l-0.3-0.3
	l0.2-0.7l-0.6-1l0.4-0.4l0.8,0.8l1-1l0.5,0.5l-1,1l2,1.9c0.2,0.2,0.4,0.3,0.6,0.3C58,70.8,58.1,70.8,58.3,70.6z"/>
<path class="st6" d="M51.6,71.3c0.4-0.4,0.8-0.7,1.2-0.7c0.4,0,0.8,0.1,1.2,0.5l2.4,2.3l-0.4,0.5l-0.6-0.4l0,0c0,0.2,0,0.4,0,0.6
	c0,0.2-0.1,0.4-0.2,0.6c-0.1,0.2-0.2,0.4-0.4,0.6c-0.2,0.2-0.4,0.4-0.7,0.5c-0.2,0.1-0.5,0.1-0.7,0.1c-0.2-0.1-0.5-0.2-0.7-0.4
	c-0.4-0.3-0.5-0.7-0.4-1.2c0.1-0.5,0.4-1,0.9-1.6l0.6-0.6l-0.2-0.2c-0.3-0.3-0.5-0.4-0.8-0.4c-0.2,0-0.5,0.1-0.7,0.4
	c-0.2,0.2-0.3,0.4-0.4,0.6c-0.1,0.2-0.2,0.4-0.3,0.7l-0.7-0.2c0.1-0.2,0.2-0.5,0.3-0.8C51.2,71.8,51.4,71.5,51.6,71.3z M54.2,72.4
	l-0.4,0.5c-0.4,0.4-0.6,0.8-0.6,1.1c0,0.3,0.1,0.5,0.3,0.7c0.2,0.2,0.4,0.3,0.6,0.2c0.2,0,0.4-0.1,0.6-0.3c0.3-0.3,0.4-0.6,0.4-0.9
	c0-0.3-0.1-0.7-0.5-1L54.2,72.4z"/>
<path class="st6" d="M58,53.5L57.5,53l1.5-1.6l0.6,0.5L58,53.5z"/>
<path class="st6" d="M55.2,52.3c0.1-0.1,0.1-0.1,0.2-0.2c0.1-0.1,0.1-0.1,0.2-0.2l0.5,0.6c-0.1,0-0.1,0.1-0.2,0.2
	c-0.1,0.1-0.1,0.1-0.2,0.2c-0.1,0.1-0.2,0.3-0.3,0.5c-0.1,0.2-0.1,0.4-0.1,0.5c0,0.2,0.1,0.4,0.2,0.6c0.1,0.2,0.2,0.4,0.4,0.5
	l1.9,1.8l-0.6,0.7l-3.6-3.3l0.5-0.5l0.7,0.5l0,0c-0.1-0.2-0.1-0.4-0.1-0.6c0-0.2,0-0.4,0.1-0.6C54.9,52.6,55,52.4,55.2,52.3z"/>
<path class="st6" d="M51.3,56.4c0.3-0.3,0.6-0.5,1-0.6c0.3-0.1,0.7-0.1,1,0c0.4,0.1,0.7,0.3,1,0.6l0.4,0.3l-2.3,2.4
	c0.4,0.4,0.8,0.5,1.2,0.5c0.4,0,0.7-0.2,1.1-0.5c0.2-0.2,0.4-0.4,0.5-0.7c0.1-0.2,0.2-0.5,0.3-0.7l0.6,0.5c-0.1,0.3-0.2,0.5-0.3,0.7
	c-0.1,0.2-0.3,0.4-0.5,0.7c-0.3,0.3-0.7,0.6-1.1,0.7c-0.4,0.1-0.8,0.1-1.2,0c-0.4-0.1-0.8-0.4-1.2-0.7c-0.4-0.4-0.7-0.7-0.8-1.1
	c-0.2-0.4-0.2-0.8-0.1-1.2C50.8,57.1,51,56.7,51.3,56.4z M51.8,56.9c-0.2,0.3-0.4,0.6-0.3,0.9c0,0.3,0.2,0.6,0.5,1l1.7-1.8
	c-0.2-0.2-0.4-0.3-0.6-0.4c-0.2-0.1-0.4-0.1-0.6-0.1C52.2,56.6,52,56.7,51.8,56.9z"/>
<path class="st6" d="M51,64.1c-0.4,0.4-0.9,0.6-1.5,0.6c-0.6,0-1.1-0.3-1.8-0.9c-0.6-0.6-1-1.1-1-1.7c-0.1-0.6,0.1-1.1,0.5-1.5
	c0.2-0.2,0.3-0.3,0.5-0.4c0.2-0.1,0.4-0.1,0.5-0.2c0.2,0,0.4,0,0.5,0l0,0c-0.1-0.1-0.2-0.1-0.3-0.2c-0.1-0.1-0.2-0.2-0.3-0.3
	l-1.4-1.3l0.6-0.7l5.1,4.7l-0.5,0.5l-0.6-0.4l0,0c0,0.2,0.1,0.3,0.1,0.5c0,0.2-0.1,0.4-0.1,0.5C51.3,63.7,51.2,63.9,51,64.1z
	 M50.6,63.5c0.3-0.4,0.5-0.7,0.4-1c-0.1-0.3-0.3-0.7-0.7-1.1l-0.1-0.1c-0.4-0.4-0.8-0.6-1.2-0.7c-0.4-0.1-0.7,0.1-1.1,0.4
	c-0.3,0.3-0.4,0.6-0.3,1c0.1,0.4,0.4,0.8,0.8,1.1c0.4,0.4,0.8,0.6,1.2,0.7C50,63.9,50.3,63.8,50.6,63.5z"/>
<path class="st6" d="M47.1,64.5c0.3,0.3,0.5,0.6,0.7,0.9c0.2,0.3,0.3,0.6,0.3,0.9c0,0.3,0,0.6-0.1,0.9c-0.1,0.3-0.3,0.6-0.5,0.8
	c-0.2,0.2-0.5,0.4-0.8,0.6c-0.3,0.1-0.6,0.2-0.9,0.2c-0.3,0-0.6-0.1-0.9-0.2c-0.3-0.1-0.6-0.3-0.9-0.6c-0.4-0.4-0.7-0.7-0.8-1.1
	c-0.2-0.4-0.2-0.8-0.1-1.2c0.1-0.4,0.3-0.8,0.6-1.1c0.3-0.3,0.7-0.6,1-0.7c0.4-0.1,0.8-0.1,1.2,0C46.3,63.9,46.7,64.2,47.1,64.5z
	 M44.6,67.2c0.3,0.3,0.5,0.4,0.8,0.6c0.3,0.1,0.5,0.1,0.8,0.1c0.2,0,0.5-0.2,0.7-0.4c0.2-0.2,0.3-0.5,0.4-0.7c0-0.2,0-0.5-0.2-0.7
	c-0.1-0.3-0.3-0.5-0.6-0.8c-0.3-0.3-0.5-0.4-0.8-0.6c-0.3-0.1-0.5-0.1-0.8-0.1c-0.2,0-0.5,0.2-0.7,0.4c-0.3,0.3-0.4,0.7-0.4,1.1
	C44,66.4,44.2,66.8,44.6,67.2z"/>
<path class="st6" d="M42.3,73.2l-5.5-2.3l0,0c0.1,0.1,0.2,0.2,0.4,0.3c0.1,0.1,0.3,0.3,0.5,0.4c0.2,0.1,0.3,0.3,0.5,0.4l2.8,2.6
	l-0.6,0.6l-4.8-4.4l0.9-1l5.2,2.2l0,0l-2.5-5l0.9-1l4.8,4.4l-0.6,0.6l-2.9-2.7c-0.1-0.1-0.3-0.3-0.4-0.4c-0.2-0.1-0.3-0.3-0.4-0.4
	c-0.1-0.1-0.2-0.3-0.3-0.3l0,0l2.7,5.3L42.3,73.2z"/>
<g>
	<path class="st6" d="M96.2,42.3c-0.6,0.2-1.1,0.1-1.6-0.2c-0.5-0.3-0.8-0.9-1-1.7c-0.2-0.8-0.2-1.5,0-2c0.2-0.5,0.6-0.9,1.2-1
		c0.2-0.1,0.5-0.1,0.7-0.1c0.2,0,0.4,0.1,0.5,0.1c0.2,0.1,0.3,0.2,0.4,0.3l0.1,0c0-0.1-0.1-0.2-0.2-0.4c-0.1-0.2-0.1-0.3-0.1-0.4
		l-0.5-1.8l0.9-0.2l1.9,6.7l-0.7,0.2l-0.3-0.6l0,0c0,0.2-0.1,0.3-0.2,0.5c-0.1,0.1-0.2,0.3-0.4,0.4C96.7,42.1,96.5,42.2,96.2,42.3z
		 M96.2,41.5c0.5-0.1,0.8-0.4,0.9-0.7c0.1-0.3,0.1-0.7-0.1-1.3l0-0.1c-0.2-0.6-0.4-1-0.7-1.2c-0.3-0.2-0.7-0.3-1.1-0.2
		c-0.4,0.1-0.7,0.4-0.8,0.7c-0.1,0.4-0.1,0.8,0.1,1.4c0.2,0.5,0.4,0.9,0.7,1.2C95.5,41.6,95.8,41.6,96.2,41.5z"/>
	<path class="st6" d="M91.7,38.4l1.4,4.7l-0.7,0.2l-0.3-0.6l0,0c0,0.2-0.1,0.4-0.3,0.5c-0.1,0.2-0.3,0.3-0.4,0.4
		c-0.2,0.1-0.4,0.2-0.6,0.3c-0.4,0.1-0.7,0.1-1,0.1c-0.3,0-0.5-0.2-0.7-0.4c-0.2-0.2-0.4-0.5-0.5-0.9l-0.9-3.1l0.9-0.2l0.9,3
		c0.1,0.4,0.3,0.6,0.5,0.8c0.2,0.1,0.5,0.2,0.8,0.1c0.3-0.1,0.6-0.2,0.7-0.4c0.2-0.2,0.2-0.4,0.2-0.7c0-0.3,0-0.6-0.1-1l-0.7-2.4
		L91.7,38.4z"/>
	<path class="st6" d="M87.2,42.2c0.1,0.4,0.2,0.7,0.1,1.1c0,0.3-0.1,0.6-0.2,0.9c-0.1,0.3-0.3,0.5-0.6,0.7c-0.2,0.2-0.5,0.3-0.9,0.4
		c-0.3,0.1-0.6,0.1-0.9,0.1c-0.3,0-0.6-0.1-0.8-0.3c-0.3-0.2-0.5-0.4-0.7-0.6c-0.2-0.3-0.3-0.6-0.5-1c-0.2-0.5-0.2-1-0.1-1.4
		c0.1-0.4,0.2-0.8,0.5-1c0.3-0.3,0.6-0.5,1.1-0.6c0.4-0.1,0.8-0.1,1.2,0c0.4,0.1,0.7,0.3,1,0.6C86.8,41.3,87.1,41.7,87.2,42.2z
		 M83.7,43.2c0.1,0.4,0.2,0.7,0.4,0.9c0.2,0.2,0.4,0.4,0.6,0.5c0.2,0.1,0.5,0.1,0.8,0c0.3-0.1,0.5-0.2,0.7-0.4
		c0.2-0.2,0.2-0.4,0.3-0.7c0-0.3,0-0.6-0.1-1c-0.1-0.4-0.2-0.7-0.4-0.9c-0.2-0.2-0.4-0.4-0.6-0.5c-0.2-0.1-0.5-0.1-0.8,0
		c-0.5,0.1-0.7,0.4-0.9,0.7C83.5,42.2,83.5,42.7,83.7,43.2z"/>
	<path class="st6" d="M79.2,47.1l-1.8-6.3l0.9-0.3l1.6,5.5l2.7-0.8l0.2,0.8L79.2,47.1z"/>
</g>
<path class="st6" d="M137.5,34.9l0.9,0.2l0.4,3c0,0.2,0,0.3,0.1,0.4c0,0.1,0,0.3,0,0.4c0,0.1,0,0.3,0,0.4l0,0
	c0.1-0.1,0.2-0.3,0.3-0.5c0.1-0.2,0.2-0.4,0.3-0.6l1.6-2.6l0.9,0.2l-3.3,5c-0.2,0.3-0.4,0.5-0.6,0.7c-0.2,0.2-0.4,0.3-0.7,0.4
	c-0.2,0.1-0.5,0.1-0.8,0c-0.1,0-0.3-0.1-0.4-0.1c-0.1,0-0.2-0.1-0.3-0.1l0.2-0.7c0.1,0,0.1,0.1,0.2,0.1c0.1,0,0.2,0.1,0.3,0.1
	c0.2,0,0.3,0,0.5,0c0.1,0,0.3-0.1,0.4-0.2c0.1-0.1,0.2-0.2,0.3-0.4l0.3-0.5L137.5,34.9z"/>
<path class="st6" d="M136.8,34.6c0.1,0,0.2,0,0.3,0.1c0.1,0,0.2,0.1,0.3,0.1l-0.3,0.8c-0.1,0-0.1-0.1-0.2-0.1
	c-0.1,0-0.2-0.1-0.2-0.1c-0.2,0-0.4,0-0.6,0c-0.2,0-0.4,0.1-0.5,0.2c-0.2,0.1-0.3,0.2-0.4,0.4c-0.1,0.2-0.2,0.4-0.2,0.6l-0.5,2.5
	l-0.9-0.2l1-4.8l0.7,0.1l-0.1,0.9l0,0c0.1-0.2,0.3-0.3,0.5-0.4c0.2-0.1,0.4-0.2,0.6-0.2C136.4,34.6,136.6,34.6,136.8,34.6z"/>
<path class="st6" d="M131.3,33.5c0.4,0.1,0.8,0.3,1,0.5c0.3,0.2,0.4,0.5,0.5,0.9c0.1,0.4,0.1,0.8,0,1.2l-0.1,0.5l-3.3-0.7
	c-0.1,0.5-0.1,0.9,0.1,1.3c0.2,0.3,0.5,0.5,1,0.6c0.3,0.1,0.6,0.1,0.8,0.1c0.3,0,0.5,0,0.8-0.1l-0.2,0.7c-0.3,0.1-0.5,0.1-0.8,0.1
	c-0.3,0-0.5,0-0.9-0.1c-0.5-0.1-0.9-0.3-1.2-0.5c-0.3-0.3-0.5-0.6-0.6-1c-0.1-0.4-0.1-0.9,0-1.4c0.1-0.5,0.3-1,0.6-1.3
	c0.3-0.3,0.6-0.6,0.9-0.7C130.5,33.4,130.9,33.4,131.3,33.5z M131.2,34.1c-0.4-0.1-0.7,0-0.9,0.2c-0.3,0.2-0.5,0.5-0.6,0.9l2.4,0.5
	c0.1-0.3,0.1-0.5,0-0.7c0-0.2-0.1-0.4-0.3-0.5C131.6,34.3,131.4,34.2,131.2,34.1z"/>
<path class="st6" d="M129,31.4l-3.6,5.9l-0.9-0.2l-0.9-6.8l0.9,0.2l0.5,4.4c0,0.2,0,0.3,0.1,0.5c0,0.2,0,0.3,0,0.5
	c0,0.2,0,0.3,0,0.5c0.1-0.1,0.1-0.3,0.2-0.4c0.1-0.1,0.2-0.3,0.2-0.4c0.1-0.2,0.2-0.3,0.2-0.4l2.3-3.8L129,31.4z"/>
<path class="st6" d="M182.1,72c0.3,0.3,0.5,0.6,0.6,1c0.1,0.3,0.1,0.7-0.1,1s-0.4,0.7-0.7,1l-0.4,0.3l-2.3-2.4
	c-0.4,0.4-0.6,0.7-0.6,1.1c0,0.4,0.1,0.7,0.5,1.1c0.2,0.2,0.4,0.4,0.6,0.5c0.2,0.1,0.5,0.3,0.7,0.4l-0.5,0.5
	c-0.3-0.1-0.5-0.2-0.7-0.4c-0.2-0.1-0.4-0.3-0.7-0.6c-0.3-0.3-0.5-0.7-0.7-1.1c-0.1-0.4-0.1-0.8,0-1.2c0.1-0.4,0.4-0.8,0.8-1.2
	c0.4-0.4,0.8-0.6,1.2-0.8c0.4-0.1,0.8-0.2,1.2-0.1C181.5,71.5,181.8,71.7,182.1,72z M181.6,72.5c-0.3-0.3-0.5-0.4-0.9-0.4
	c-0.3,0-0.7,0.1-1,0.4l1.7,1.7c0.2-0.2,0.3-0.4,0.4-0.6c0.1-0.2,0.1-0.4,0.1-0.6C181.9,72.8,181.8,72.7,181.6,72.5z"/>
<path class="st6" d="M178.6,68.3c0.4,0.4,0.6,0.8,0.5,1.2c0,0.4-0.2,0.8-0.7,1.2l-2.3,2.2l-0.6-0.6l2.2-2.1c0.3-0.3,0.4-0.5,0.5-0.8
	c0-0.2-0.1-0.5-0.3-0.7c-0.3-0.3-0.6-0.5-1-0.4c-0.3,0-0.7,0.2-1.1,0.6l-1.9,1.8l-0.6-0.6l2.3-2.1c0.2-0.2,0.3-0.4,0.4-0.5
	c0.1-0.2,0.1-0.3,0.1-0.5c0-0.2-0.1-0.3-0.3-0.5c-0.2-0.2-0.4-0.4-0.7-0.4c-0.2,0-0.5,0-0.7,0.1c-0.2,0.1-0.5,0.3-0.8,0.6l-1.8,1.7
	l-0.6-0.6l3.6-3.4l0.5,0.5l-0.4,0.6l0,0c0.2,0,0.4-0.1,0.6,0c0.2,0,0.4,0.1,0.5,0.2c0.2,0.1,0.3,0.2,0.5,0.4
	c0.3,0.3,0.4,0.5,0.5,0.8c0.1,0.3,0.1,0.5-0.1,0.8l0,0c0.3-0.1,0.6-0.1,0.9,0C178.2,67.9,178.4,68.1,178.6,68.3z"/>
<path class="st6" d="M172.6,62.1c0.3,0.3,0.5,0.6,0.6,1c0.1,0.3,0.1,0.7-0.1,1c-0.1,0.3-0.4,0.7-0.7,1l-0.4,0.3l-2.3-2.4
	c-0.4,0.4-0.6,0.7-0.6,1.1c0,0.4,0.1,0.7,0.5,1.1c0.2,0.2,0.4,0.4,0.6,0.5c0.2,0.1,0.5,0.3,0.7,0.4l-0.5,0.5
	c-0.3-0.1-0.5-0.2-0.7-0.4c-0.2-0.1-0.4-0.3-0.7-0.6c-0.3-0.3-0.5-0.7-0.7-1.1c-0.1-0.4-0.1-0.8,0-1.2c0.1-0.4,0.4-0.8,0.8-1.2
	c0.4-0.4,0.8-0.6,1.2-0.8c0.4-0.1,0.8-0.2,1.2-0.1S172.3,61.7,172.6,62.1z M172.1,62.5c-0.3-0.3-0.5-0.4-0.9-0.4
	c-0.3,0-0.7,0.1-1,0.4l1.7,1.7c0.2-0.2,0.3-0.4,0.4-0.6c0.1-0.2,0.1-0.4,0.1-0.6C172.4,62.9,172.3,62.7,172.1,62.5z"/>
<path class="st6" d="M170.3,59.6c0.1,0.1,0.1,0.1,0.2,0.2c0.1,0.1,0.1,0.2,0.2,0.2l-0.7,0.5c0-0.1-0.1-0.1-0.1-0.2
	c-0.1-0.1-0.1-0.1-0.2-0.2c-0.1-0.1-0.3-0.2-0.5-0.3c-0.2-0.1-0.4-0.1-0.5-0.1c-0.2,0-0.4,0-0.6,0.1c-0.2,0.1-0.4,0.2-0.6,0.4
	l-1.9,1.8l-0.6-0.6l3.6-3.4l0.5,0.5l-0.6,0.7l0,0c0.2,0,0.4-0.1,0.6-0.1c0.2,0,0.4,0,0.6,0.1C169.9,59.3,170.1,59.4,170.3,59.6z"/>
<path class="st6" d="M164.3,59.7c0.1,0.1,0.2,0.2,0.3,0.3c0.1,0.1,0.2,0.1,0.3,0.2l-0.5,0.5c-0.1,0-0.2-0.1-0.4-0.2
	c-0.1-0.1-0.3-0.2-0.4-0.3c-0.2-0.2-0.3-0.4-0.4-0.6s-0.1-0.5,0-0.7c0.1-0.2,0.3-0.5,0.5-0.8l2-1.9l-0.5-0.5l0.3-0.3l0.7,0.3l1-0.5
	l0.4,0.4l-0.8,0.8l1,1l-0.5,0.5l-1-1l-2,1.9c-0.2,0.2-0.3,0.4-0.3,0.6C164,59.3,164.1,59.5,164.3,59.7z"/>
<path class="st6" d="M161.8,54.4l0.6-2.9l0.7,0.7l-0.5,2.1l2.1-0.4l0.7,0.7l-2.9,0.4l-0.6,3l-0.7-0.7l0.5-2.2l-2.3,0.4l-0.7-0.7
	L161.8,54.4z"/>
<path class="st6" d="M158.3,54.4l-2.5-2.6l4.7-4.5l2.5,2.6l-0.6,0.5l-1.9-2l-1.4,1.3l1.8,1.9l-0.6,0.5l-1.8-1.9l-1.6,1.5l1.9,2
	L158.3,54.4z"/>
<path class="st6" d="M193.1,114l-0.2-0.9l6.7-1.8l0.2,0.9L193.1,114z"/>
<path class="st6" d="M197.2,110.3l-4.7,1.3l-0.2-0.7l0.6-0.3l0,0c-0.2-0.1-0.4-0.1-0.5-0.3c-0.2-0.1-0.3-0.3-0.4-0.5
	c-0.1-0.2-0.2-0.4-0.2-0.6c-0.1-0.4-0.1-0.7-0.1-1c0.1-0.3,0.2-0.5,0.4-0.7c0.2-0.2,0.5-0.4,0.9-0.5l3.1-0.8l0.2,0.9l-3,0.8
	c-0.4,0.1-0.6,0.3-0.8,0.5c-0.1,0.2-0.2,0.5-0.1,0.8c0.1,0.3,0.2,0.6,0.4,0.7c0.2,0.2,0.4,0.2,0.7,0.3c0.3,0,0.6,0,1-0.1l2.4-0.7
	L197.2,110.3z"/>
<path class="st6" d="M195.1,105.6l-0.3-1.2l-4.1,1.1l-0.2-0.9l4.1-1.1l-0.2-0.8l0.4-0.1l0.5,0.7l0.3-0.1c0.4-0.1,0.7-0.1,1-0.1
	c0.3,0.1,0.5,0.2,0.7,0.4c0.2,0.2,0.3,0.5,0.4,0.8c0.1,0.2,0.1,0.4,0.1,0.6c0,0.2,0,0.3,0,0.5l-0.7,0c0-0.1,0-0.2,0-0.3
	c0-0.1,0-0.3-0.1-0.4c-0.1-0.2-0.2-0.4-0.4-0.5c-0.2-0.1-0.5-0.1-0.8,0l-0.3,0.1l0.3,1.2L195.1,105.6z"/>
<path class="st6" d="M194.4,100.1c0.2,0.5,0.1,1-0.1,1.4c-0.2,0.4-0.6,0.6-1.2,0.8l-3.1,0.8l-0.2-0.9l3-0.8c0.4-0.1,0.6-0.3,0.8-0.5
	c0.1-0.2,0.2-0.5,0.1-0.8c-0.1-0.5-0.4-0.8-0.7-0.9c-0.3-0.1-0.8-0.1-1.3,0.1l-2.4,0.7l-0.2-0.9l4.7-1.3l0.2,0.7l-0.6,0.3l0,0
	c0.2,0.1,0.4,0.1,0.5,0.3c0.2,0.1,0.3,0.3,0.4,0.4C194.3,99.7,194.4,99.9,194.4,100.1z"/>
<path class="st6" d="M193.3,96.3l-4.7,1.3l-0.2-0.9l4.7-1.3L193.3,96.3z M194.9,95.3c0,0.1,0,0.3,0,0.4c-0.1,0.1-0.2,0.2-0.3,0.3
	c-0.2,0-0.3,0-0.4,0c-0.1-0.1-0.2-0.2-0.2-0.3c0-0.1,0-0.3,0-0.4c0.1-0.1,0.2-0.2,0.4-0.2c0.2,0,0.3,0,0.4,0
	C194.8,95.1,194.9,95.2,194.9,95.3z"/>
<path class="st6" d="M192.2,92.2c0.2,0.6,0.2,1.1,0,1.4c-0.2,0.4-0.5,0.6-1.1,0.8l-3.2,0.9l-0.2-0.6l0.6-0.4l0,0
	c-0.2-0.1-0.4-0.2-0.5-0.3c-0.2-0.1-0.3-0.3-0.4-0.4c-0.1-0.2-0.2-0.4-0.3-0.7c-0.1-0.3-0.1-0.6-0.1-0.8c0-0.3,0.1-0.5,0.3-0.7
	c0.2-0.2,0.4-0.3,0.7-0.4c0.5-0.1,0.9,0,1.2,0.3c0.4,0.3,0.6,0.8,0.9,1.6l0.3,0.8l0.3-0.1c0.4-0.1,0.6-0.3,0.7-0.5
	c0.1-0.2,0.1-0.5,0-0.7c-0.1-0.2-0.2-0.5-0.3-0.7c-0.1-0.2-0.3-0.4-0.4-0.6l0.6-0.4c0.2,0.2,0.3,0.4,0.5,0.7
	C192,91.6,192.1,91.9,192.2,92.2z M190,93.8l-0.2-0.7c-0.2-0.5-0.4-0.9-0.6-1.1c-0.2-0.2-0.5-0.2-0.8-0.1c-0.3,0.1-0.4,0.2-0.5,0.4
	c-0.1,0.2-0.1,0.4,0,0.6c0.1,0.4,0.3,0.7,0.6,0.9c0.3,0.2,0.6,0.2,1.1,0.1L190,93.8z"/>
<path class="st6" d="M192.2,86.5c0.2,0.8,0.2,1.4,0,1.9c-0.2,0.5-0.6,0.8-1.2,0.9c-0.3,0.1-0.5,0.1-0.8,0.1c-0.3,0-0.5-0.1-0.8-0.2
	c-0.2-0.1-0.5-0.4-0.6-0.6c-0.2-0.3-0.4-0.7-0.5-1.1l-0.2-0.7l-2.4,0.7l-0.2-0.9l6.3-1.7L192.2,86.5z M191.5,86.6l-0.2-0.8l-2.4,0.7
	l0.2,0.6c0.1,0.4,0.2,0.7,0.4,0.9c0.2,0.2,0.3,0.4,0.5,0.5c0.2,0.1,0.5,0.1,0.8,0c0.4-0.1,0.6-0.3,0.8-0.6S191.6,87.1,191.5,86.6z"
	/>
<path class="st6" d="M13.8,48.2l1.4-2.1c0.6-0.9,1.2-1.5,1.8-1.8c0.6-0.3,1.2-0.2,1.8,0.2c0.3,0.2,0.5,0.4,0.6,0.6
	c0.2,0.2,0.2,0.5,0.3,0.7c0,0.2,0,0.5-0.1,0.7l0,0c0.2-0.2,0.4-0.3,0.7-0.4C20.5,46,20.7,46,21,46c0.3,0,0.6,0.2,1,0.4
	c0.4,0.3,0.7,0.6,0.9,1c0.2,0.4,0.2,0.8,0.1,1.3c-0.1,0.5-0.3,1-0.7,1.5l-1.7,2.5L13.8,48.2z M17.5,48.6l0.6-0.8
	c0.3-0.4,0.4-0.7,0.4-1c0-0.2-0.2-0.5-0.4-0.6c-0.3-0.2-0.5-0.2-0.7-0.1c-0.2,0.1-0.5,0.4-0.8,0.8L16,47.6L17.5,48.6z M18.6,49.4
	l1.8,1.2l0.6-0.9c0.3-0.4,0.4-0.8,0.4-1.1c-0.1-0.3-0.2-0.5-0.5-0.7c-0.2-0.1-0.3-0.2-0.5-0.2c-0.2,0-0.4,0-0.5,0.2
	c-0.2,0.1-0.4,0.3-0.6,0.6L18.6,49.4z"/>
<path class="st6" d="M17.7,57.3c-0.4,0.6-0.9,0.9-1.6,1c-0.7,0.1-1.5-0.2-2.4-0.8c-0.9-0.6-1.4-1.2-1.6-1.9
	c-0.2-0.7-0.1-1.3,0.3-1.9c0.2-0.2,0.3-0.4,0.5-0.6c0.2-0.1,0.4-0.2,0.6-0.3c0.2-0.1,0.4-0.1,0.6-0.1l0,0c-0.1,0-0.3-0.1-0.5-0.2
	c-0.2-0.1-0.4-0.2-0.6-0.4l-1.7-1.1l1-1.4l7.2,4.8l-0.7,1.1l-0.9-0.2l0,0.1c0.1,0.2,0.1,0.4,0.2,0.6c0,0.2,0,0.4,0,0.7
	C17.9,56.8,17.8,57,17.7,57.3z M16.9,56c0.3-0.4,0.3-0.7,0.2-1c-0.1-0.3-0.4-0.6-0.9-1l-0.2-0.1c-0.5-0.3-0.9-0.5-1.3-0.5
	c-0.4,0-0.7,0.2-1,0.6c-0.2,0.3-0.2,0.6-0.1,1c0.1,0.4,0.5,0.7,1,1c0.5,0.3,0.9,0.5,1.3,0.5C16.4,56.5,16.7,56.4,16.9,56z"/>
<path class="st6" d="M12.1,57.6c0.6,0.4,1.1,0.8,1.5,1.2c0.4,0.4,0.7,0.8,0.9,1.2c0.2,0.4,0.3,0.8,0.2,1.3c0,0.4-0.2,0.9-0.5,1.3
	c-0.4,0.6-0.9,1-1.4,1.1c-0.5,0.2-1.2,0.2-1.8,0c-0.7-0.2-1.4-0.6-2.2-1.1C8,62.1,7.3,61.5,6.9,61c-0.4-0.5-0.7-1.1-0.7-1.7
	c0-0.6,0.1-1.2,0.5-1.8c0.4-0.6,0.9-0.9,1.4-1.1c0.5-0.2,1.2-0.2,1.8,0C10.6,56.7,11.3,57,12.1,57.6z M9.7,61.1
	c0.5,0.4,1,0.6,1.4,0.8c0.4,0.2,0.8,0.3,1,0.2c0.3,0,0.5-0.2,0.7-0.4c0.2-0.3,0.2-0.5,0.1-0.8c-0.1-0.3-0.3-0.6-0.6-0.9
	c-0.3-0.3-0.8-0.7-1.3-1c-0.5-0.4-1-0.6-1.4-0.8c-0.4-0.2-0.8-0.3-1-0.2c-0.3,0-0.5,0.2-0.7,0.4c-0.2,0.3-0.2,0.5-0.1,0.8
	c0.1,0.3,0.3,0.6,0.6,0.9C8.8,60.4,9.2,60.7,9.7,61.1z"/>
<path class="st6" d="M10.5,64.6l-0.6,0.9l1.5,1l-1,1.5l-1.5-1L6.8,70l-1.1-0.7L3.2,63l0.9-1.4l4.5,3l0.6-0.9L10.5,64.6z M7.7,66.1
	l-1.2-0.8c-0.1-0.1-0.3-0.2-0.4-0.3c-0.2-0.1-0.3-0.2-0.5-0.3c-0.2-0.1-0.3-0.2-0.4-0.3C5.1,64.3,5,64.2,5,64.2l0,0
	c0.1,0.2,0.2,0.3,0.3,0.5c0.1,0.2,0.2,0.3,0.2,0.5l1.1,2.7L7.7,66.1z"/>
<path class="st6" d="M57.1,11.9l2.4-1.3c1-0.6,1.8-0.9,2.5-0.9c0.7,0,1.2,0.3,1.6,1.1c0.2,0.3,0.3,0.6,0.3,0.9c0,0.3,0,0.5-0.1,0.8
	c-0.1,0.2-0.2,0.5-0.5,0.6l0,0.1c0.3-0.1,0.6-0.1,0.8-0.1c0.3,0,0.5,0.1,0.8,0.3c0.3,0.2,0.5,0.4,0.7,0.8c0.3,0.5,0.4,0.9,0.3,1.4
	c0,0.5-0.2,0.9-0.5,1.3c-0.3,0.4-0.8,0.8-1.3,1.1l-2.8,1.6L57.1,11.9z M60.3,14l0.9-0.5c0.5-0.3,0.7-0.5,0.8-0.8
	c0.1-0.2,0.1-0.5-0.1-0.8c-0.2-0.3-0.4-0.4-0.7-0.4c-0.3,0-0.7,0.1-1.1,0.4l-0.8,0.5L60.3,14z M61.1,15.2l1.1,2l1-0.6
	c0.5-0.3,0.8-0.6,0.9-0.8c0.1-0.3,0-0.6-0.1-0.9c-0.1-0.2-0.2-0.3-0.4-0.4c-0.2-0.1-0.4-0.1-0.6-0.1c-0.2,0-0.5,0.1-0.9,0.3
	L61.1,15.2z"/>
<path class="st6" d="M56.4,22.4c-0.6,0.4-1.3,0.4-2,0.1c-0.7-0.3-1.3-0.9-1.9-1.9c-0.6-1-0.8-1.9-0.7-2.6c0.1-0.7,0.5-1.3,1.2-1.7
	c0.3-0.2,0.5-0.3,0.8-0.3c0.3,0,0.5,0,0.7,0c0.2,0,0.4,0.1,0.6,0.2l0.1,0c-0.1-0.1-0.2-0.2-0.4-0.4c-0.2-0.2-0.3-0.4-0.4-0.6l-1-1.9
	l1.6-0.9l4.6,8l-1.2,0.7l-0.7-0.6l-0.1,0c0,0.2-0.1,0.4-0.1,0.6c-0.1,0.2-0.2,0.4-0.4,0.6C56.9,22,56.7,22.2,56.4,22.4z M56.2,20.8
	c0.4-0.2,0.7-0.5,0.7-0.9c0-0.4-0.1-0.8-0.4-1.3l-0.1-0.2c-0.3-0.6-0.6-0.9-1-1.1c-0.3-0.2-0.7-0.2-1.2,0.1
	c-0.3,0.2-0.5,0.5-0.6,0.9c0,0.4,0.1,0.9,0.4,1.5c0.3,0.6,0.7,0.9,1,1.1C55.5,21,55.9,21,56.2,20.8z"/>
<path class="st6" d="M51.1,20.2c0.3,0.6,0.6,1.2,0.8,1.7c0.2,0.5,0.3,1,0.2,1.5c0,0.5-0.1,0.9-0.4,1.2c-0.2,0.4-0.6,0.7-1.1,1
	c-0.6,0.3-1.2,0.5-1.8,0.4c-0.6-0.1-1.1-0.4-1.6-0.8c-0.5-0.5-1-1.1-1.5-1.9c-0.5-0.8-0.8-1.6-0.9-2.2c-0.2-0.7-0.1-1.3,0.1-1.8
	c0.2-0.5,0.6-1,1.3-1.3c0.6-0.3,1.2-0.5,1.8-0.4c0.6,0.1,1.1,0.4,1.6,0.8C50.2,18.7,50.7,19.4,51.1,20.2z M47.4,22.3
	c0.3,0.6,0.6,1,0.9,1.4c0.3,0.3,0.6,0.6,0.8,0.7c0.3,0.1,0.5,0.1,0.8-0.1c0.3-0.2,0.4-0.4,0.5-0.6c0-0.3,0-0.6-0.2-1.1
	c-0.2-0.4-0.4-0.9-0.7-1.5c-0.3-0.6-0.6-1-0.9-1.4c-0.3-0.3-0.6-0.6-0.8-0.7c-0.3-0.1-0.5-0.1-0.8,0.1c-0.3,0.2-0.4,0.4-0.5,0.7
	c0,0.3,0,0.6,0.2,1.1C46.9,21.2,47.1,21.7,47.4,22.3z"/>
<path class="st6" d="M40.1,27.2c-0.2-0.4-0.5-0.9-0.6-1.3c-0.2-0.5-0.3-0.9-0.3-1.4c-0.1-0.5,0-0.9,0.1-1.4c0.1-0.5,0.4-0.9,0.7-1.3
	c0.3-0.4,0.8-0.8,1.5-1.2c0.1-0.1,0.3-0.2,0.5-0.3c0.2-0.1,0.4-0.2,0.5-0.2l0.7,1.3c-0.2,0-0.3,0.1-0.5,0.2
	c-0.2,0.1-0.3,0.1-0.5,0.2c-0.6,0.4-1.1,0.7-1.3,1.1c-0.2,0.4-0.3,0.8-0.3,1.2c0.1,0.4,0.2,0.9,0.5,1.4l0.1,0c0-0.2,0-0.4,0.1-0.7
	c0.1-0.2,0.2-0.4,0.4-0.6c0.2-0.2,0.4-0.4,0.7-0.5c0.4-0.2,0.9-0.4,1.3-0.4c0.4,0,0.8,0.1,1.2,0.4c0.4,0.3,0.7,0.6,1,1.1
	c0.3,0.5,0.5,1.1,0.5,1.6c0,0.5-0.1,1-0.4,1.4c-0.3,0.4-0.7,0.8-1.2,1.1c-0.4,0.2-0.8,0.4-1.2,0.4c-0.4,0.1-0.8,0-1.2-0.1
	c-0.4-0.1-0.8-0.4-1.2-0.7C40.8,28.2,40.4,27.8,40.1,27.2z M44,27.7c0.3-0.2,0.5-0.4,0.6-0.8c0.1-0.3,0-0.7-0.3-1.2
	c-0.2-0.4-0.5-0.6-0.7-0.7c-0.3-0.1-0.6-0.1-1,0.1c-0.2,0.1-0.4,0.3-0.5,0.5c-0.1,0.2-0.2,0.4-0.2,0.6c0,0.2,0,0.4,0.1,0.6
	c0.1,0.2,0.2,0.3,0.4,0.5c0.1,0.1,0.3,0.3,0.5,0.3c0.2,0.1,0.4,0.1,0.5,0.1C43.6,27.9,43.8,27.8,44,27.7z"/>
<path class="st6" d="M118.1,0.8l2.7,0c1.2,0,2,0.2,2.6,0.5c0.6,0.3,0.9,0.9,0.9,1.7c0,0.3-0.1,0.6-0.2,0.9c-0.1,0.3-0.3,0.5-0.5,0.6
	c-0.2,0.2-0.4,0.3-0.7,0.3l0,0.1c0.3,0.1,0.5,0.2,0.8,0.3c0.2,0.1,0.4,0.4,0.5,0.6c0.1,0.3,0.2,0.6,0.2,1.1c0,0.5-0.1,1-0.4,1.3
	c-0.3,0.4-0.6,0.7-1.1,0.9c-0.5,0.2-1,0.3-1.7,0.3l-3.2,0L118.1,0.8z M119.9,4.3l1.1,0c0.5,0,0.9-0.1,1.1-0.2
	c0.2-0.2,0.3-0.4,0.3-0.7c0-0.3-0.1-0.6-0.4-0.7c-0.2-0.1-0.6-0.2-1.1-0.2l-1,0L119.9,4.3z M119.9,5.8l0,2.3l1.2,0
	c0.6,0,0.9-0.1,1.2-0.3c0.2-0.2,0.3-0.5,0.3-0.9c0-0.2,0-0.4-0.1-0.6c-0.1-0.2-0.3-0.3-0.5-0.4c-0.2-0.1-0.5-0.1-0.9-0.1L119.9,5.8z
	"/>
<path class="st6" d="M112.3,9.6c-0.7,0-1.3-0.3-1.8-0.9c-0.5-0.6-0.7-1.4-0.7-2.6c0-1.1,0.3-2,0.7-2.6c0.5-0.6,1.1-0.9,1.9-0.9
	c0.3,0,0.6,0.1,0.8,0.1c0.2,0.1,0.4,0.2,0.6,0.4c0.2,0.1,0.3,0.3,0.4,0.5l0.1,0c0-0.1,0-0.3-0.1-0.6c0-0.2,0-0.5,0-0.8l0-2.1l1.8,0
	L116,9.5l-1.4,0l-0.3-0.9l-0.1,0c-0.1,0.2-0.3,0.3-0.4,0.5c-0.2,0.1-0.4,0.3-0.6,0.3C112.9,9.5,112.6,9.6,112.3,9.6z M112.9,8.1
	c0.5,0,0.8-0.1,1.1-0.4c0.2-0.3,0.3-0.7,0.3-1.3l0-0.2c0-0.6-0.1-1.1-0.3-1.5c-0.2-0.3-0.6-0.5-1.1-0.5c-0.4,0-0.7,0.2-0.9,0.5
	c-0.2,0.3-0.4,0.8-0.4,1.5c0,0.6,0.1,1.1,0.3,1.5C112.2,7.9,112.5,8.1,112.9,8.1z"/>
<path class="st6" d="M108.8,5c0,0.7-0.1,1.3-0.2,1.9c-0.1,0.5-0.3,1-0.5,1.4c-0.2,0.4-0.6,0.7-1,0.9c-0.4,0.2-0.9,0.3-1.4,0.3
	c-0.7,0-1.3-0.2-1.7-0.6c-0.4-0.4-0.8-0.9-1-1.5c-0.2-0.7-0.3-1.5-0.3-2.4c0-0.9,0.1-1.7,0.3-2.4c0.2-0.7,0.5-1.2,1-1.5
	c0.4-0.4,1-0.5,1.8-0.5c0.7,0,1.3,0.2,1.7,0.6c0.4,0.4,0.8,0.9,1,1.5C108.7,3.3,108.8,4.1,108.8,5z M104.6,5c0,0.7,0,1.2,0.1,1.7
	c0.1,0.4,0.2,0.8,0.4,1c0.2,0.2,0.4,0.3,0.7,0.3c0.3,0,0.5-0.1,0.7-0.3c0.2-0.2,0.3-0.5,0.4-1c0.1-0.4,0.1-1,0.1-1.7
	c0-0.7,0-1.2-0.1-1.7c-0.1-0.4-0.2-0.8-0.4-1c-0.2-0.2-0.4-0.3-0.7-0.3c-0.3,0-0.6,0.1-0.7,0.3c-0.2,0.2-0.3,0.6-0.4,1
	C104.6,3.8,104.6,4.3,104.6,5z"/>
<path class="st6" d="M98.9,0.4c0.5,0,1,0.1,1.4,0.3c0.4,0.2,0.8,0.4,1,0.7c0.2,0.3,0.4,0.7,0.4,1.2c0,0.3-0.1,0.7-0.2,0.9
	c-0.1,0.3-0.3,0.5-0.6,0.7c-0.2,0.2-0.5,0.4-0.8,0.5c0.3,0.2,0.6,0.4,0.9,0.6c0.3,0.2,0.5,0.5,0.7,0.8c0.2,0.3,0.3,0.6,0.3,1
	c0,0.5-0.1,0.9-0.4,1.3c-0.3,0.3-0.6,0.6-1.1,0.8c-0.5,0.2-1,0.3-1.6,0.3c-0.6,0-1.2-0.1-1.7-0.3c-0.5-0.2-0.8-0.5-1-0.8
	c-0.2-0.4-0.3-0.8-0.3-1.3c0-0.4,0.1-0.7,0.2-1c0.2-0.3,0.4-0.5,0.6-0.7c0.3-0.2,0.5-0.4,0.8-0.5c-0.3-0.2-0.5-0.4-0.7-0.6
	c-0.2-0.2-0.4-0.4-0.5-0.7c-0.1-0.3-0.2-0.6-0.2-0.9c0-0.5,0.1-0.8,0.4-1.1c0.3-0.3,0.6-0.5,1-0.7C97.9,0.5,98.4,0.4,98.9,0.4z
	 M97.4,6.9c0,0.3,0.1,0.6,0.3,0.8C98,7.9,98.3,8,98.8,8c0.5,0,0.8-0.1,1-0.3c0.2-0.2,0.3-0.5,0.3-0.8c0-0.2-0.1-0.4-0.2-0.6
	c-0.1-0.2-0.3-0.3-0.5-0.5c-0.2-0.1-0.4-0.3-0.6-0.4l-0.2-0.1c-0.3,0.1-0.5,0.2-0.7,0.4c-0.2,0.1-0.3,0.3-0.4,0.5
	C97.5,6.5,97.4,6.7,97.4,6.9z M98.9,1.8c-0.3,0-0.6,0.1-0.8,0.2c-0.2,0.2-0.3,0.4-0.3,0.6c0,0.2,0,0.4,0.1,0.5
	c0.1,0.1,0.2,0.3,0.4,0.4c0.2,0.1,0.3,0.2,0.5,0.3c0.2-0.1,0.4-0.2,0.5-0.3c0.2-0.1,0.3-0.2,0.4-0.4c0.1-0.1,0.2-0.3,0.2-0.5
	c0-0.3-0.1-0.5-0.3-0.7C99.4,1.9,99.2,1.8,98.9,1.8z"/>
<path class="st6" d="M179.2,19.8l2.3,1.4c1,0.6,1.6,1.2,2,1.8c0.3,0.6,0.3,1.2-0.1,1.9c-0.2,0.3-0.4,0.5-0.6,0.7
	c-0.2,0.2-0.5,0.3-0.7,0.3c-0.3,0-0.5,0-0.8-0.1l0,0.1c0.2,0.2,0.4,0.4,0.5,0.7c0.1,0.2,0.2,0.5,0.1,0.8c0,0.3-0.2,0.7-0.4,1
	c-0.3,0.4-0.6,0.8-1,1c-0.4,0.2-0.9,0.2-1.4,0.2c-0.5-0.1-1-0.3-1.6-0.6l-2.8-1.7L179.2,19.8z M179,23.6l0.9,0.6
	c0.5,0.3,0.8,0.4,1.1,0.4c0.3,0,0.5-0.2,0.7-0.5c0.2-0.3,0.2-0.6,0.1-0.8c-0.1-0.3-0.4-0.5-0.9-0.8L180,22L179,23.6z M178.2,24.9
	l-1.2,1.9l1,0.6c0.5,0.3,0.9,0.4,1.2,0.3c0.3-0.1,0.5-0.3,0.7-0.6c0.1-0.2,0.2-0.4,0.2-0.6c0-0.2-0.1-0.4-0.2-0.6
	c-0.1-0.2-0.4-0.4-0.7-0.6L178.2,24.9z"/>
<path class="st6" d="M169.7,24.3c-0.6-0.4-1-1-1.1-1.7c-0.1-0.7,0.2-1.6,0.7-2.5c0.6-1,1.2-1.6,2-1.8c0.7-0.3,1.4-0.2,2,0.2
	c0.3,0.2,0.5,0.3,0.6,0.5c0.2,0.2,0.3,0.4,0.3,0.6c0.1,0.2,0.1,0.4,0.1,0.7l0.1,0c0-0.1,0.1-0.3,0.2-0.5c0.1-0.2,0.2-0.5,0.4-0.7
	l1.1-1.8l1.5,1l-4.8,7.9l-1.2-0.7l0.2-0.9l-0.1,0c-0.2,0.1-0.4,0.2-0.6,0.2c-0.2,0-0.5,0-0.7,0C170.3,24.5,170,24.4,169.7,24.3z
	 M171,23.4c0.4,0.3,0.8,0.3,1.1,0.2c0.3-0.1,0.7-0.5,1-1l0.1-0.2c0.3-0.6,0.5-1,0.5-1.4c0-0.4-0.2-0.7-0.7-1
	c-0.3-0.2-0.7-0.2-1.1-0.1c-0.4,0.2-0.7,0.5-1.1,1.1c-0.3,0.6-0.5,1-0.5,1.4C170.5,22.8,170.7,23.1,171,23.4z"/>
<path class="st6" d="M169.1,18.6c-0.4,0.6-0.7,1.1-1.1,1.5c-0.4,0.4-0.8,0.7-1.2,0.9c-0.4,0.2-0.8,0.3-1.3,0.3
	c-0.4,0-0.9-0.2-1.4-0.5c-0.6-0.4-1-0.8-1.2-1.3c-0.2-0.5-0.2-1.1,0-1.8c0.2-0.7,0.5-1.4,1-2.2c0.5-0.8,1-1.4,1.5-1.9
	c0.5-0.5,1.1-0.7,1.6-0.8c0.6-0.1,1.2,0.1,1.8,0.5c0.6,0.4,1,0.8,1.2,1.4c0.2,0.5,0.2,1.1,0.1,1.8C169.9,17.1,169.6,17.8,169.1,18.6
	z M165.5,16.4c-0.3,0.6-0.6,1.1-0.8,1.5c-0.2,0.4-0.2,0.8-0.2,1s0.2,0.5,0.4,0.7c0.3,0.2,0.5,0.2,0.8,0.1c0.3-0.1,0.5-0.3,0.8-0.6
	c0.3-0.3,0.6-0.8,1-1.4c0.3-0.6,0.6-1.1,0.8-1.5c0.2-0.4,0.2-0.8,0.2-1c0-0.3-0.2-0.5-0.4-0.7c-0.3-0.2-0.5-0.2-0.8-0.1
	c-0.3,0.1-0.5,0.3-0.8,0.7C166.1,15.4,165.8,15.8,165.5,16.4z"/>
<path class="st6" d="M163.1,15c-0.4,0.6-0.7,1.1-1.1,1.5c-0.4,0.4-0.8,0.7-1.2,0.9c-0.4,0.2-0.8,0.3-1.3,0.3c-0.4,0-0.9-0.2-1.4-0.5
	c-0.6-0.4-1-0.8-1.2-1.3c-0.2-0.5-0.2-1.1,0-1.8c0.2-0.7,0.5-1.4,1-2.2c0.5-0.8,1-1.4,1.5-1.9c0.5-0.5,1.1-0.7,1.6-0.8
	c0.6-0.1,1.2,0.1,1.8,0.5c0.6,0.4,1,0.8,1.2,1.4c0.2,0.5,0.2,1.1,0.1,1.8C164,13.4,163.6,14.2,163.1,15z M159.5,12.7
	c-0.3,0.6-0.6,1.1-0.8,1.5c-0.2,0.4-0.2,0.8-0.2,1c0,0.3,0.2,0.5,0.4,0.7c0.3,0.2,0.5,0.2,0.8,0.1c0.3-0.1,0.5-0.3,0.8-0.6
	c0.3-0.3,0.6-0.8,1-1.4c0.3-0.6,0.6-1.1,0.8-1.5c0.2-0.4,0.2-0.8,0.2-1c0-0.3-0.2-0.5-0.4-0.7c-0.3-0.2-0.5-0.2-0.8-0.1
	c-0.3,0.1-0.5,0.3-0.8,0.7C160.2,11.7,159.9,12.2,159.5,12.7z"/>
<path class="st6" d="M153.7,14.2l-1.6-1l2.6-4.3c0.1-0.1,0.2-0.3,0.3-0.4c0.1-0.2,0.2-0.3,0.3-0.5c0.1-0.2,0.2-0.3,0.3-0.5
	c-0.1,0-0.2,0.1-0.4,0.1c-0.2,0-0.3,0.1-0.5,0.1l-1.3,0.2l-0.2-1.4l3.6-0.4l1.3,0.8L153.7,14.2z"/>
<path class="st6" d="M219.4,70l1.2,2.4c0.5,1,0.8,1.9,0.8,2.6c0,0.7-0.4,1.2-1.1,1.6c-0.3,0.1-0.6,0.2-0.9,0.3c-0.3,0-0.5,0-0.8-0.1
	c-0.2-0.1-0.4-0.3-0.6-0.5l-0.1,0c0.1,0.3,0.1,0.6,0.1,0.8c0,0.3-0.1,0.5-0.3,0.8c-0.2,0.3-0.5,0.5-0.9,0.7
	c-0.5,0.2-0.9,0.3-1.4,0.3c-0.5-0.1-0.9-0.3-1.3-0.6c-0.4-0.3-0.7-0.8-1-1.4l-1.5-2.9L219.4,70z M217.1,73.2l0.5,1
	c0.2,0.5,0.5,0.8,0.7,0.9c0.2,0.1,0.5,0.1,0.8-0.1c0.3-0.2,0.5-0.4,0.5-0.7c0-0.3-0.1-0.7-0.3-1.1l-0.4-0.9L217.1,73.2z M215.8,73.8
	l-2,1l0.5,1.1c0.3,0.5,0.5,0.8,0.8,0.9s0.6,0.1,0.9-0.1c0.2-0.1,0.3-0.2,0.4-0.4c0.1-0.2,0.1-0.4,0.1-0.6c0-0.2-0.1-0.5-0.3-0.9
	L215.8,73.8z"/>
<path class="st6" d="M208.9,68.8c-0.3-0.7-0.4-1.3,0-2c0.3-0.7,1-1.3,2-1.8c1-0.5,1.9-0.7,2.6-0.5c0.7,0.2,1.3,0.6,1.6,1.3
	c0.1,0.3,0.2,0.6,0.3,0.8c0,0.3,0,0.5,0,0.7c0,0.2-0.1,0.4-0.2,0.6l0,0.1c0.1-0.1,0.3-0.2,0.5-0.3c0.2-0.1,0.4-0.3,0.7-0.4l1.9-1
	l0.8,1.6l-8.2,4.2l-0.6-1.2l0.6-0.7l0-0.1c-0.2,0-0.4-0.1-0.6-0.2c-0.2-0.1-0.4-0.2-0.6-0.4C209.2,69.4,209.1,69.1,208.9,68.8z
	 M210.5,68.8c0.2,0.4,0.5,0.7,0.9,0.7c0.4,0,0.8-0.1,1.3-0.3l0.2-0.1c0.6-0.3,1-0.6,1.2-0.9c0.2-0.3,0.2-0.7,0-1.2
	c-0.2-0.4-0.5-0.6-0.9-0.6c-0.4,0-0.9,0.1-1.5,0.4c-0.6,0.3-1,0.6-1.2,1C210.3,68,210.3,68.4,210.5,68.8z"/>
<path class="st6" d="M211.3,63.7c-0.6,0.3-1.2,0.6-1.7,0.7c-0.5,0.2-1,0.2-1.5,0.2c-0.4,0-0.9-0.2-1.2-0.4c-0.4-0.3-0.7-0.6-0.9-1.1
	c-0.3-0.6-0.4-1.2-0.3-1.8c0.1-0.6,0.4-1.1,0.9-1.6c0.5-0.5,1.2-1,2-1.4c0.8-0.4,1.6-0.7,2.3-0.8c0.7-0.1,1.3-0.1,1.8,0.2
	c0.5,0.2,0.9,0.7,1.3,1.3c0.3,0.6,0.4,1.2,0.3,1.8c-0.1,0.6-0.4,1.1-0.9,1.6C212.8,62.8,212.2,63.3,211.3,63.7z M209.4,59.9
	c-0.6,0.3-1.1,0.6-1.4,0.8c-0.4,0.3-0.6,0.5-0.7,0.8c-0.1,0.3-0.1,0.5,0,0.8c0.1,0.3,0.3,0.4,0.6,0.5c0.3,0.1,0.6,0,1.1-0.1
	c0.4-0.1,0.9-0.4,1.5-0.7c0.6-0.3,1.1-0.6,1.4-0.9c0.4-0.3,0.6-0.5,0.7-0.8c0.1-0.3,0.1-0.5,0-0.8c-0.1-0.3-0.3-0.4-0.6-0.5
	c-0.3-0.1-0.6,0-1.1,0.1C210.5,59.4,210,59.6,209.4,59.9z"/>
<path class="st6" d="M204.3,59.5l-2.7-5.4l1.1-0.6l3,0.9c0.6,0.2,1.1,0.3,1.5,0.4c0.4,0.1,0.7,0.1,1,0.1c0.3,0,0.5-0.1,0.8-0.2
	c0.3-0.2,0.5-0.4,0.6-0.6c0.1-0.2,0-0.5-0.1-0.8c-0.2-0.3-0.4-0.6-0.7-0.8c-0.3-0.2-0.6-0.4-1-0.6l0.6-1.4c0.3,0.1,0.6,0.3,0.9,0.4
	c0.3,0.2,0.6,0.4,0.8,0.7c0.3,0.3,0.5,0.6,0.8,1.1c0.3,0.5,0.4,1,0.4,1.4c0,0.5-0.1,0.9-0.3,1.2c-0.2,0.4-0.5,0.6-0.9,0.8
	c-0.4,0.2-0.9,0.3-1.3,0.3c-0.4,0-0.9-0.1-1.4-0.2c-0.5-0.1-1.1-0.3-1.7-0.6l-1.4-0.5l-0.1,0l1.7,3.4L204.3,59.5z"/>
<path class="st6" d="M200.5,51.9l-0.8-1.6l4.5-2.3c0.1-0.1,0.3-0.1,0.5-0.2c0.2-0.1,0.4-0.2,0.6-0.3c0.2-0.1,0.4-0.2,0.5-0.2
	c-0.1,0-0.2-0.1-0.4-0.1c-0.2-0.1-0.3-0.1-0.5-0.2l-1.2-0.5l0.6-1.3l3.3,1.5l0.7,1.3L200.5,51.9z"/>
<g>
	<path class="st6" d="M136.1,48.5c-0.5-0.1-0.9-0.4-1.1-0.8c-0.2-0.4-0.3-1-0.2-1.6c0.1-0.7,0.4-1.2,0.8-1.4
		c0.4-0.3,0.8-0.3,1.3-0.2c0.2,0.1,0.4,0.1,0.5,0.2c0.2,0.1,0.3,0.2,0.4,0.3c0.1,0.1,0.2,0.2,0.2,0.4l0,0c0-0.1,0-0.2,0-0.3
		c0-0.1,0-0.3,0.1-0.4l0.3-1.5l0.8,0.2l-1.1,5.6l-0.6-0.1l0-0.6l0,0c-0.1,0.1-0.2,0.2-0.4,0.2c-0.1,0.1-0.3,0.1-0.5,0.1
		C136.5,48.6,136.3,48.6,136.1,48.5z M136.4,48c0.4,0.1,0.7,0.1,0.9-0.1c0.2-0.2,0.4-0.5,0.5-0.9l0-0.1c0.1-0.5,0.1-0.9,0-1.1
		c-0.1-0.3-0.4-0.5-0.8-0.6c-0.4-0.1-0.6,0-0.9,0.2c-0.2,0.2-0.4,0.6-0.5,1c-0.1,0.5-0.1,0.8,0.1,1.1C135.8,47.7,136,47.9,136.4,48z
		"/>
	<path class="st6" d="M134.2,43.8l-0.8,4l-0.6-0.2l0-0.6l0,0c-0.1,0.1-0.2,0.2-0.4,0.3c-0.2,0.1-0.3,0.1-0.5,0.1
		c-0.2,0-0.4,0-0.6-0.1c-0.3-0.1-0.6-0.2-0.8-0.4c-0.2-0.2-0.3-0.4-0.4-0.6c-0.1-0.2-0.1-0.5,0-0.9l0.5-2.6l0.8,0.2l-0.5,2.5
		c-0.1,0.3,0,0.6,0.1,0.8c0.1,0.2,0.3,0.3,0.6,0.4c0.3,0.1,0.5,0.1,0.7,0c0.2-0.1,0.3-0.2,0.5-0.4c0.1-0.2,0.2-0.4,0.3-0.7l0.4-2
		L134.2,43.8z"/>
	<path class="st6" d="M129.1,44.7c-0.1,0.3-0.2,0.6-0.3,0.8c-0.1,0.2-0.3,0.4-0.5,0.5c-0.2,0.1-0.4,0.2-0.7,0.2
		c-0.3,0-0.5,0-0.8-0.1c-0.3-0.1-0.5-0.2-0.8-0.3c-0.2-0.2-0.4-0.3-0.5-0.6c-0.1-0.2-0.2-0.5-0.3-0.7c0-0.3,0-0.6,0-0.9
		c0.1-0.4,0.2-0.8,0.5-1c0.2-0.3,0.5-0.4,0.8-0.5c0.3-0.1,0.7-0.1,1.1,0c0.4,0.1,0.7,0.3,1,0.5c0.3,0.2,0.4,0.5,0.5,0.9
		C129.2,43.8,129.2,44.2,129.1,44.7z M126,43.9c-0.1,0.3-0.1,0.6,0,0.8c0,0.2,0.1,0.4,0.3,0.6c0.1,0.2,0.4,0.3,0.6,0.3
		c0.3,0.1,0.5,0.1,0.7,0c0.2-0.1,0.4-0.2,0.5-0.4c0.1-0.2,0.2-0.5,0.3-0.8c0.1-0.3,0.1-0.6,0-0.8c0-0.2-0.1-0.4-0.3-0.6
		c-0.1-0.2-0.4-0.3-0.6-0.3c-0.4-0.1-0.7,0-1,0.2C126.3,43.1,126.1,43.4,126,43.9z"/>
	<path class="st6" d="M121,44.7l1-5.2l0.8,0.2l-0.9,4.6l2.4,0.6l-0.1,0.6L121,44.7z"/>
</g>
</svg>
