<svg width="246" height="128" viewBox="0 0 246 128" fill="none" xmlns="http://www.w3.org/2000/svg">
<path d="M174.5 97.9999C179.267 106.457 182.57 117.295 182.738 127.624H227.968C230.326 127.624 232.24 125.7 232.121 123.346C231.302 107.043 226.688 90.9388 219.527 77.2058C218.447 75.1343 215.858 74.4331 213.826 75.5872L195.5 86L174.5 97.9999Z" fill="#820D1D"/>
<path d="M198.112 115.727C197.79 115.815 197.495 115.809 197.228 115.711C196.964 115.614 196.735 115.431 196.54 115.16C196.345 114.889 196.19 114.543 196.073 114.121C195.976 113.772 195.92 113.463 195.904 113.196C195.886 112.929 195.898 112.679 195.941 112.447L196.745 112.228C196.701 112.476 196.678 112.756 196.676 113.068C196.675 113.379 196.713 113.673 196.789 113.95C196.897 114.339 197.036 114.602 197.207 114.74C197.379 114.881 197.57 114.922 197.781 114.865C197.905 114.831 198.004 114.767 198.078 114.672C198.156 114.576 198.217 114.429 198.262 114.228C198.311 114.03 198.353 113.753 198.387 113.397C198.423 113.048 198.472 112.743 198.533 112.483C198.595 112.227 198.697 112.016 198.839 111.85C198.982 111.685 199.191 111.565 199.469 111.489C199.9 111.372 200.276 111.454 200.597 111.735C200.922 112.019 201.163 112.444 201.319 113.01C201.403 113.311 201.451 113.603 201.464 113.884C201.478 114.169 201.464 114.448 201.423 114.721L200.641 114.619C200.674 114.376 200.69 114.133 200.687 113.887C200.687 113.641 200.654 113.399 200.588 113.161C200.502 112.851 200.386 112.627 200.241 112.488C200.097 112.353 199.937 112.309 199.762 112.356C199.627 112.394 199.524 112.462 199.454 112.562C199.386 112.665 199.332 112.819 199.295 113.023C199.261 113.227 199.227 113.499 199.195 113.838C199.164 114.173 199.118 114.468 199.055 114.721C198.993 114.978 198.89 115.191 198.745 115.36C198.601 115.529 198.39 115.651 198.112 115.727Z" fill="white"/>
<path d="M200.364 109.909L195.381 111.269L195.18 110.541L195.828 110.229L195.814 110.179C195.614 110.123 195.434 110.03 195.274 109.899C195.115 109.767 194.978 109.609 194.865 109.422C194.752 109.236 194.664 109.03 194.602 108.804C194.496 108.422 194.469 108.079 194.522 107.777C194.575 107.477 194.715 107.222 194.942 107.011C195.173 106.802 195.499 106.64 195.921 106.525L199.182 105.635L199.434 106.548L196.301 107.403C195.9 107.512 195.623 107.68 195.472 107.906C195.321 108.135 195.295 108.427 195.394 108.783C195.489 109.129 195.633 109.385 195.825 109.549C196.02 109.716 196.261 109.808 196.547 109.823C196.837 109.841 197.174 109.798 197.557 109.693L200.112 108.996L200.364 109.909Z" fill="white"/>
<path d="M196.364 105.098C195.954 105.21 195.572 105.255 195.22 105.235C194.871 105.217 194.557 105.136 194.277 104.992C194.001 104.85 193.765 104.652 193.568 104.398C193.375 104.143 193.228 103.835 193.128 103.474C193.034 103.137 193.006 102.811 193.042 102.496C193.082 102.184 193.184 101.896 193.347 101.631C193.514 101.365 193.741 101.133 194.03 100.934C194.322 100.735 194.672 100.579 195.082 100.467C195.628 100.318 196.118 100.285 196.553 100.367C196.99 100.449 197.356 100.635 197.651 100.927C197.95 101.222 198.166 101.61 198.299 102.092C198.426 102.549 198.436 102.979 198.33 103.38C198.224 103.782 198.006 104.131 197.676 104.428C197.347 104.726 196.909 104.949 196.364 105.098ZM195.34 101.398C194.957 101.502 194.64 101.641 194.39 101.813C194.143 101.987 193.973 102.195 193.882 102.437C193.791 102.682 193.79 102.966 193.879 103.288C193.966 103.605 194.112 103.845 194.317 104.009C194.521 104.174 194.774 104.267 195.075 104.288C195.379 104.309 195.722 104.267 196.105 104.163C196.485 104.059 196.797 103.922 197.042 103.751C197.286 103.581 197.452 103.374 197.541 103.129C197.629 102.888 197.629 102.605 197.539 102.28C197.407 101.804 197.151 101.498 196.77 101.362C196.392 101.229 195.916 101.241 195.34 101.398Z" fill="white"/>
<path d="M208.611 118.186C208.443 117.578 208.524 117.033 208.854 116.551C209.185 116.072 209.774 115.716 210.621 115.485C211.477 115.252 212.175 115.259 212.713 115.507C213.256 115.757 213.612 116.188 213.781 116.799C213.852 117.055 213.879 117.289 213.863 117.501C213.847 117.713 213.801 117.903 213.725 118.073C213.65 118.246 213.553 118.399 213.434 118.532L213.449 118.586C213.538 118.545 213.665 118.494 213.83 118.433C213.994 118.372 214.14 118.324 214.266 118.29L216.161 117.773L216.412 118.681L209.376 120.601L209.178 119.883L209.828 119.545L209.817 119.504C209.647 119.453 209.483 119.374 209.323 119.265C209.167 119.158 209.027 119.017 208.904 118.84C208.781 118.666 208.684 118.448 208.611 118.186ZM209.411 118.196C209.547 118.687 209.785 118.995 210.124 119.119C210.464 119.247 210.913 119.236 211.472 119.086L211.612 119.048C212.206 118.886 212.634 118.664 212.896 118.382C213.162 118.102 213.224 117.703 213.081 117.185C212.964 116.763 212.71 116.491 212.319 116.368C211.932 116.243 211.445 116.261 210.861 116.421C210.282 116.579 209.865 116.807 209.611 117.107C209.36 117.405 209.293 117.768 209.411 118.196Z" fill="white"/>
<path d="M212.886 113.565C212.911 113.655 212.932 113.755 212.949 113.864C212.969 113.972 212.982 114.065 212.988 114.145L212.116 114.281C212.114 114.203 212.106 114.115 212.091 114.015C212.078 113.919 212.06 113.83 212.037 113.748C211.984 113.556 211.897 113.382 211.776 113.227C211.655 113.072 211.507 112.947 211.332 112.852C211.16 112.757 210.964 112.699 210.744 112.678C210.527 112.656 210.292 112.68 210.039 112.749L207.403 113.468L207.15 112.556L212.133 111.196L212.336 111.927L211.466 112.281L211.477 112.322C211.686 112.375 211.886 112.453 212.077 112.557C212.269 112.663 212.434 112.799 212.574 112.965C212.718 113.133 212.822 113.333 212.886 113.565Z" fill="white"/>
<path d="M211.292 107.82C211.462 108.434 211.452 108.931 211.262 109.31C211.075 109.688 210.687 109.958 210.1 110.118L206.731 111.038L206.551 110.387L207.226 110.013L207.216 109.977C206.996 109.888 206.806 109.785 206.643 109.667C206.481 109.549 206.342 109.399 206.227 109.217C206.113 109.038 206.016 108.807 205.938 108.524C205.855 108.222 205.835 107.94 205.878 107.675C205.922 107.411 206.033 107.181 206.213 106.986C206.396 106.794 206.657 106.651 206.994 106.559C207.501 106.421 207.939 106.51 208.309 106.827C208.678 107.144 208.985 107.694 209.227 108.476L209.501 109.325L209.781 109.248C210.17 109.142 210.42 108.98 210.531 108.761C210.644 108.546 210.657 108.283 210.571 107.973C210.5 107.717 210.395 107.482 210.254 107.268C210.117 107.053 209.967 106.851 209.805 106.662L210.385 106.192C210.57 106.394 210.745 106.633 210.909 106.909C211.074 107.188 211.201 107.492 211.292 107.82ZM208.901 109.478L208.677 108.791C208.497 108.222 208.288 107.843 208.051 107.655C207.819 107.469 207.55 107.418 207.245 107.501C206.98 107.574 206.808 107.706 206.728 107.9C206.649 108.093 206.645 108.321 206.718 108.583C206.83 108.986 207.034 109.287 207.332 109.484C207.634 109.684 208.007 109.722 208.454 109.601L208.901 109.478Z" fill="white"/>
<path d="M205.387 106.181L204.362 102.477L204.941 102.319L209.364 103.93L208.684 101.472L209.39 101.28L210.352 104.758L209.71 104.933L205.356 103.348L206.088 105.99L205.387 106.181Z" fill="white"/>
<path d="M208.625 98.18C208.795 98.7943 208.785 99.291 208.595 99.6701C208.408 100.048 208.02 100.318 207.433 100.478L204.064 101.398L203.884 100.747L204.559 100.373L204.549 100.337C204.329 100.248 204.139 100.145 203.976 100.027C203.814 99.9093 203.675 99.7593 203.56 99.577C203.446 99.3977 203.349 99.1665 203.271 98.8834C203.188 98.5823 203.168 98.2994 203.211 98.0349C203.255 97.7704 203.366 97.5407 203.546 97.346C203.729 97.1534 203.99 97.011 204.327 96.9189C204.834 96.7807 205.272 96.87 205.642 97.1869C206.011 97.5038 206.318 98.0535 206.56 98.836L206.834 99.6844L207.114 99.6079C207.503 99.5017 207.753 99.3395 207.864 99.1213C207.977 98.906 207.99 98.6433 207.904 98.3331C207.833 98.0771 207.728 97.8419 207.587 97.6276C207.45 97.4124 207.3 97.2104 207.138 97.0216L207.718 96.5523C207.903 96.7543 208.078 96.9932 208.242 97.2691C208.407 97.5481 208.534 97.8517 208.625 98.18ZM206.234 99.8383L206.01 99.1512C205.83 98.5818 205.621 98.2031 205.384 98.015C205.152 97.8292 204.883 97.7779 204.578 97.861C204.313 97.9334 204.141 98.0663 204.061 98.2596C203.982 98.4529 203.978 98.6806 204.051 98.9426C204.163 99.3462 204.367 99.6466 204.665 99.8439C204.967 100.043 205.34 100.082 205.787 99.9605L206.234 99.8383Z" fill="white"/>
<path d="M202.569 95.9948L202.312 95.0687L205.364 94.2357L204.463 90.9786L201.411 91.8117L201.155 90.8856L207.766 89.0813L208.022 90.0074L205.264 90.7602L206.165 94.0172L208.923 93.2644L209.179 94.1905L202.569 95.9948Z" fill="white"/>
<path d="M174.5 97.9999L195.941 85.7651L213.624 75.6751C215.687 74.4975 216.388 71.8507 215.086 69.8633C206.315 56.4761 194.028 44.2745 180.483 35.628C178.562 34.4015 176.032 35.0211 174.808 36.9443L173.5 38.9999L164.5 54.4999L152.5 75.9999C161.145 81.1304 168.809 88.4557 174 96.9999L174.5 97.9999Z" fill="url(#paint0_linear_615_1382)"/>
<path d="M184.07 77.0525C183.827 77.2825 183.565 77.4174 183.282 77.4571C183.004 77.4969 182.715 77.4439 182.414 77.2982C182.114 77.1524 181.812 76.9219 181.509 76.6065C181.258 76.3451 181.062 76.1005 180.921 75.8725C180.777 75.6467 180.669 75.4218 180.597 75.1976L181.202 74.6236C181.281 74.8633 181.394 75.1203 181.54 75.3947C181.687 75.669 181.86 75.9098 182.059 76.117C182.339 76.4077 182.586 76.5731 182.803 76.6134C183.021 76.6559 183.21 76.6019 183.369 76.4514C183.462 76.3633 183.518 76.26 183.539 76.1415C183.562 76.0209 183.545 75.8619 183.49 75.6646C183.439 75.4674 183.344 75.2042 183.206 74.875C183.071 74.5503 182.969 74.2594 182.9 74.0023C182.833 73.7474 182.823 73.5137 182.87 73.3011C182.917 73.0886 183.045 72.8834 183.253 72.6856C183.578 72.3782 183.948 72.2723 184.365 72.3678C184.786 72.4635 185.201 72.7231 185.608 73.1467C185.824 73.372 186.005 73.6053 186.15 73.8465C186.298 74.09 186.418 74.3417 186.512 74.6016L185.774 74.8818C185.688 74.6529 185.586 74.4314 185.466 74.2172C185.349 74.0008 185.205 73.8036 185.034 73.6257C184.811 73.3936 184.603 73.2511 184.409 73.1981C184.217 73.1474 184.056 73.1844 183.924 73.3091C183.822 73.4059 183.764 73.5146 183.75 73.6355C183.738 73.7585 183.765 73.9188 183.829 74.1164C183.895 74.3117 183.995 74.5662 184.127 74.8799C184.26 75.1891 184.358 75.47 184.423 75.7226C184.491 75.9775 184.501 76.2134 184.454 76.4304C184.406 76.6473 184.279 76.8547 184.07 77.0525Z" fill="white"/>
<path d="M183.292 70.8726L179.544 74.4264L179.021 73.8824L179.444 73.3008L179.408 73.2636C179.205 73.3096 179.002 73.3126 178.799 73.2726C178.596 73.2326 178.4 73.1576 178.212 73.0475C178.024 72.9374 177.849 72.7979 177.686 72.6289C177.411 72.3428 177.225 72.0543 177.128 71.7635C177.032 71.475 177.035 71.1843 177.135 70.8915C177.239 70.5988 177.45 70.3019 177.767 70.0009L180.22 67.6758L180.876 68.3584L178.519 70.5932C178.217 70.8792 178.053 71.1573 178.027 71.4276C178.003 71.7002 178.119 71.9694 178.374 72.2352C178.623 72.4943 178.871 72.6509 179.118 72.7051C179.37 72.7594 179.626 72.7257 179.886 72.604C180.15 72.4824 180.426 72.2851 180.714 72.0121L182.636 70.19L183.292 70.8726Z" fill="white"/>
<path d="M177.479 68.5373C177.17 68.8297 176.856 69.0503 176.535 69.1993C176.219 69.3483 175.904 69.4258 175.588 69.4317C175.278 69.4377 174.976 69.3756 174.681 69.2454C174.39 69.1131 174.114 68.9118 173.854 68.6414C173.611 68.3891 173.431 68.1162 173.314 67.8227C173.201 67.5294 173.154 67.2276 173.172 66.9175C173.193 66.6052 173.283 66.2934 173.443 65.9822C173.606 65.6688 173.841 65.3659 174.15 65.0735C174.56 64.6843 174.976 64.4231 175.399 64.2897C175.823 64.1542 176.235 64.1451 176.633 64.2623C177.036 64.3795 177.411 64.6184 177.758 64.9789C178.087 65.3213 178.3 65.6941 178.397 66.0972C178.494 66.5004 178.468 66.9105 178.318 67.3278C178.169 67.745 177.889 68.1482 177.479 68.5373ZM174.819 65.7696C174.531 66.0427 174.317 66.3141 174.178 66.584C174.043 66.854 173.992 67.1171 174.026 67.3734C174.062 67.632 174.196 67.8818 174.428 68.1228C174.655 68.3594 174.898 68.5016 175.157 68.5494C175.415 68.5973 175.682 68.5594 175.958 68.4359C176.235 68.3102 176.518 68.1108 176.806 67.8378C177.092 67.5669 177.302 67.2986 177.437 67.0331C177.572 66.7675 177.62 66.5065 177.582 66.2501C177.546 65.996 177.41 65.7472 177.177 65.5039C176.835 65.148 176.463 65.0006 176.063 65.0617C175.666 65.123 175.252 65.359 174.819 65.7696Z" fill="white"/>
<path d="M200.407 72.6717C200.472 72.7393 200.538 72.8168 200.604 72.9042C200.673 72.9895 200.729 73.0657 200.772 73.1328L200.068 73.6649C200.03 73.5979 199.98 73.5241 199.92 73.4434C199.862 73.3649 199.804 73.2953 199.745 73.2345C199.607 73.0903 199.447 72.9787 199.267 72.8996C199.087 72.8205 198.898 72.7809 198.698 72.7806C198.501 72.7783 198.3 72.8199 198.096 72.9054C197.895 72.9888 197.699 73.1209 197.508 73.3014L195.525 75.1815L194.869 74.4989L198.618 70.9451L199.144 71.4926L198.545 72.2154L198.574 72.2458C198.784 72.1934 198.997 72.1676 199.214 72.1682C199.434 72.1711 199.645 72.2123 199.847 72.2919C200.054 72.3716 200.24 72.4982 200.407 72.6717Z" fill="white"/>
<path d="M196.302 68.4001C196.614 68.7245 196.811 69.0694 196.893 69.4347C196.978 69.7979 196.953 70.1619 196.818 70.5266C196.683 70.8913 196.443 71.237 196.099 71.5638L195.711 71.9314L193.281 69.4037C192.886 69.791 192.677 70.1859 192.652 70.5884C192.629 70.9887 192.79 71.368 193.134 71.7262C193.362 71.9628 193.587 72.1519 193.81 72.2937C194.033 72.4354 194.283 72.5635 194.562 72.6779L193.988 73.2229C193.722 73.1176 193.479 72.9886 193.258 72.8359C193.038 72.6876 192.802 72.4828 192.551 72.2215C192.204 71.861 191.972 71.4757 191.856 71.0655C191.741 70.6575 191.753 70.2437 191.891 69.824C192.032 69.4022 192.311 68.9935 192.728 68.5979C193.141 68.2066 193.559 67.941 193.984 67.8011C194.411 67.6591 194.823 67.6389 195.219 67.7406C195.616 67.8423 195.977 68.0622 196.302 68.4001ZM195.768 68.8998C195.504 68.625 195.201 68.4902 194.859 68.4954C194.52 68.4986 194.168 68.6446 193.805 68.9335L195.565 70.7651C195.769 70.5672 195.919 70.3625 196.015 70.1511C196.111 69.9397 196.141 69.7278 196.106 69.5156C196.073 69.3056 195.961 69.1003 195.768 68.8998Z" fill="white"/>
<path d="M186.772 69.4012C186.293 68.9033 186.017 68.4332 185.943 67.991C185.871 67.551 186 67.1751 186.328 66.8634C186.562 66.6419 186.831 66.5271 187.135 66.5187C187.436 66.5125 187.742 66.6143 188.052 66.8241C188.002 66.682 187.989 66.5308 188.013 66.3706C188.041 66.2105 188.114 66.0745 188.232 65.9627C188.37 65.8316 188.526 65.757 188.7 65.739C188.877 65.7211 189.089 65.7447 189.333 65.8099C189.227 65.5365 189.21 65.2509 189.283 64.953C189.359 64.653 189.524 64.3826 189.778 64.1418C190.048 63.886 190.332 63.7241 190.631 63.6562C190.932 63.5905 191.235 63.6173 191.54 63.7368C191.846 63.8562 192.146 64.0691 192.44 64.3755C192.505 64.4431 192.569 64.5161 192.631 64.5947C192.696 64.6711 192.754 64.7473 192.806 64.8234C192.857 64.8995 192.897 64.9632 192.924 65.0145L194.159 66.2986L193.754 66.6824L193.015 66.1168C192.992 66.2638 192.941 66.4135 192.862 66.5658C192.783 66.7182 192.673 66.861 192.532 66.9943C192.152 67.3555 191.725 67.5119 191.254 67.4635C190.787 67.4152 190.335 67.1635 189.898 66.7084C189.798 66.6004 189.705 66.4848 189.617 66.3616C189.467 66.3185 189.334 66.3044 189.218 66.3193C189.105 66.3321 189.005 66.3793 188.919 66.461C188.853 66.5234 188.821 66.5953 188.821 66.6768C188.823 66.7606 188.854 66.8538 188.914 66.9565C188.976 67.0571 189.065 67.167 189.179 67.2864L189.803 67.9353C190.193 68.3408 190.405 68.7334 190.441 69.1131C190.476 69.4927 190.329 69.8395 189.998 70.1534C189.578 70.5511 189.09 70.6863 188.534 70.5588C187.979 70.4314 187.391 70.0455 186.772 69.4012ZM187.294 68.9508C187.574 69.2414 187.836 69.4556 188.081 69.5935C188.329 69.7336 188.554 69.8016 188.758 69.7975C188.962 69.7935 189.139 69.7205 189.289 69.5786C189.425 69.4496 189.498 69.318 189.508 69.1839C189.517 69.0542 189.474 68.9144 189.378 68.7646C189.281 68.6148 189.145 68.4475 188.967 68.2628L188.376 67.6477C188.224 67.49 188.067 67.3762 187.905 67.3064C187.742 67.2365 187.583 67.213 187.427 67.2358C187.269 67.2608 187.121 67.3388 186.983 67.47C186.795 67.6484 186.728 67.8649 186.782 68.1195C186.838 68.3763 187.009 68.6534 187.294 68.9508ZM190.393 66.297C190.633 66.5471 190.879 66.6718 191.13 66.671C191.382 66.668 191.632 66.5494 191.88 66.3151C192.145 66.0635 192.284 65.8112 192.296 65.5582C192.309 65.3052 192.196 65.0548 191.958 64.807C191.726 64.5659 191.48 64.4468 191.218 64.4495C190.96 64.4523 190.7 64.5784 190.437 64.8278C190.195 65.0579 190.068 65.3005 190.058 65.5558C190.05 65.8089 190.161 66.056 190.393 66.297Z" fill="white"/>
<path d="M188.871 60.668C189.284 61.0983 189.493 61.5316 189.496 61.9678C189.501 62.4062 189.263 62.8533 188.783 63.3091L186.341 65.6246L185.694 64.9521L188.045 62.7237C188.344 62.4399 188.506 62.1617 188.53 61.8892C188.556 61.6144 188.439 61.3419 188.179 61.0716C187.809 60.6863 187.435 60.5246 187.056 60.5862C186.68 60.6502 186.274 60.8886 185.839 61.3013L183.927 63.1137L183.275 62.4345L187.023 58.8807L187.539 59.418L187.106 60.0158L187.142 60.053C187.349 60.0072 187.556 60.0031 187.761 60.041C187.966 60.0788 188.162 60.1516 188.348 60.2594C188.538 60.3674 188.713 60.5036 188.871 60.668Z" fill="white"/>
<path d="M184.678 56.3119C185.12 56.7715 185.347 57.2129 185.359 57.6361C185.374 58.0571 185.16 58.4773 184.718 58.8965L182.184 61.299L181.716 60.8124L182.134 60.1646L182.108 60.1376C181.872 60.163 181.655 60.1623 181.456 60.1357C181.257 60.109 181.063 60.0429 180.875 59.9372C180.689 59.8337 180.494 59.6761 180.29 59.4643C180.074 59.2391 179.922 58.9998 179.835 58.7467C179.747 58.4936 179.737 58.239 179.803 57.9828C179.873 57.7267 180.035 57.4783 180.289 57.2375C180.67 56.8763 181.099 56.7475 181.575 56.8511C182.052 56.9547 182.583 57.293 183.168 57.866L183.813 58.4823L184.023 58.2824C184.316 58.005 184.46 57.7441 184.454 57.4994C184.451 57.2571 184.338 57.0199 184.115 56.7878C183.931 56.5963 183.726 56.4396 183.5 56.3176C183.277 56.1935 183.049 56.0869 182.816 55.9978L183.105 55.3107C183.364 55.4004 183.632 55.5277 183.907 55.6927C184.185 55.86 184.442 56.0664 184.678 56.3119ZM183.357 58.9012L182.833 58.4034C182.404 57.9881 182.04 57.7539 181.742 57.7007C181.448 57.6477 181.187 57.7297 180.958 57.9468C180.758 58.136 180.669 58.3344 180.691 58.542C180.713 58.7495 180.818 58.9513 181.006 59.1473C181.296 59.4492 181.62 59.6164 181.976 59.6489C182.337 59.6815 182.685 59.5387 183.02 59.2205L183.357 58.9012Z" fill="white"/>
<path d="M181.07 55.1016C180.51 55.6326 179.943 55.9741 179.369 56.1259C178.798 56.2757 178.23 56.2459 177.665 56.0368C177.104 55.8277 176.558 55.4461 176.025 54.8919L174.723 53.5368L179.695 48.822L181.144 50.3292C181.629 50.8339 181.955 51.3579 182.122 51.9014C182.291 52.4428 182.291 52.9857 182.121 53.5302C181.953 54.0726 181.602 54.5964 181.07 55.1016ZM180.351 54.3944C180.777 53.9902 181.063 53.5883 181.207 53.1885C181.352 52.7888 181.363 52.3926 181.241 51.9999C181.122 51.6051 180.877 51.2151 180.507 50.8298L179.776 50.0695L175.98 53.6684L176.594 54.3071C177.207 54.9447 177.827 55.2696 178.454 55.282C179.081 55.2944 179.714 54.9985 180.351 54.3944Z" fill="white"/>
<path d="M244.773 86.521C244.938 86.8476 244.993 87.1598 244.937 87.4575C244.884 87.7539 244.719 87.9724 244.442 88.1128C244.259 88.2056 244.075 88.2315 243.89 88.1907C243.706 88.1524 243.518 88.0362 243.324 87.8421L243.277 87.866C243.353 88.159 243.347 88.4067 243.26 88.609C243.173 88.8138 243.037 88.9633 242.851 89.0574C242.535 89.2178 242.227 89.2293 241.928 89.0922C241.631 88.9537 241.359 88.6414 241.113 88.1554C241.012 87.9569 240.94 87.7601 240.897 87.5651C240.854 87.3701 240.835 87.1645 240.841 86.9483L241.589 86.5687C241.572 86.7941 241.575 87.0096 241.597 87.2152C241.619 87.4208 241.678 87.6189 241.775 87.8097C241.873 88.003 241.98 88.1262 242.096 88.1793C242.213 88.235 242.339 88.2284 242.475 88.1594C242.582 88.1051 242.655 88.0104 242.695 87.8752C242.736 87.7426 242.693 87.5496 242.564 87.2962L242.342 86.8572L242.965 86.5411L243.148 86.9017C243.285 87.1735 243.419 87.326 243.547 87.3593C243.676 87.3927 243.794 87.3822 243.901 87.3278C244 87.2775 244.066 87.2031 244.098 87.1046C244.13 87.0062 244.113 86.8903 244.045 86.7571C243.983 86.6343 243.899 86.5306 243.794 86.446C243.688 86.3614 243.546 86.2712 243.366 86.1753L243.717 85.4992C243.922 85.5989 244.115 85.7262 244.295 85.8811C244.477 86.0386 244.636 86.2519 244.773 86.521Z" fill="white"/>
<path d="M240.569 84.1392C240.821 84.6357 240.883 85.0755 240.755 85.4588C240.632 85.8434 240.289 86.1782 239.727 86.4631L236.87 87.9121L236.262 86.7128L238.821 85.4149C239.135 85.2558 239.344 85.0824 239.449 84.8944C239.554 84.7064 239.55 84.5001 239.436 84.2754C239.275 83.9592 239.048 83.7922 238.753 83.7742C238.46 83.7549 238.104 83.8519 237.683 84.0653L235.485 85.1804L234.878 83.985L237.438 82.687C237.647 82.581 237.81 82.4687 237.927 82.3501C238.044 82.2315 238.114 82.106 238.135 81.9736C238.157 81.8411 238.129 81.6991 238.052 81.5476C237.94 81.3255 237.795 81.1789 237.617 81.1078C237.444 81.0381 237.235 81.0308 236.99 81.0859C236.749 81.1423 236.474 81.2493 236.163 81.407L234.101 82.4526L233.495 81.2572L237.877 79.0349L238.34 79.9481L237.861 80.393L237.895 80.4597C238.091 80.4716 238.27 80.5204 238.432 80.606C238.595 80.6941 238.74 80.8079 238.866 80.9474C238.993 81.0869 239.099 81.2402 239.183 81.4075C239.346 81.7288 239.432 82.0271 239.44 82.3022C239.45 82.5799 239.375 82.8345 239.216 83.066L239.27 83.1718C239.561 83.1885 239.818 83.2899 240.04 83.476C240.264 83.6647 240.44 83.8858 240.569 84.1392Z" fill="white"/>
<path d="M238.887 77.685L232.074 78.4551L231.523 77.3694L238.336 76.5994L238.887 77.685Z" fill="white"/>
<path d="M228.234 75.6625C227.924 75.0511 227.793 74.5291 227.843 74.0964C227.892 73.6677 228.108 73.356 228.493 73.1612C228.756 73.0273 229.019 72.9977 229.28 73.0722C229.541 73.1467 229.791 73.3241 230.028 73.6044C230.018 73.4551 230.049 73.3049 230.12 73.1538C230.194 73.0014 230.297 72.8914 230.43 72.8239C230.598 72.739 230.761 72.7171 230.919 72.7582C231.081 72.7979 231.261 72.882 231.461 73.0106C231.444 72.7303 231.511 72.4665 231.661 72.2194C231.813 71.9748 232.038 71.777 232.336 71.6259C232.655 71.4642 232.96 71.3963 233.252 71.4222C233.549 71.4493 233.823 71.5663 234.076 71.7732C234.33 71.9827 234.554 72.2795 234.749 72.6636C234.79 72.7446 234.833 72.8413 234.877 72.9537C234.921 73.0661 234.958 73.1701 234.99 73.2656C235.024 73.3636 235.044 73.4303 235.053 73.4657L235.828 74.9942L235.22 75.3023L234.696 74.7059C234.631 74.8176 234.552 74.917 234.458 75.004C234.364 75.091 234.256 75.1656 234.133 75.2279C233.663 75.4664 233.212 75.488 232.781 75.2926C232.354 75.0985 231.993 74.7102 231.698 74.1275C231.635 73.985 231.579 73.8491 231.53 73.7197C231.453 73.6834 231.38 73.6629 231.312 73.658C231.244 73.6532 231.181 73.6653 231.123 73.6945C231.066 73.7236 231.029 73.7716 231.014 73.8386C231.003 73.9068 231.011 73.9945 231.039 74.1018C231.071 74.2103 231.124 74.3378 231.198 74.4841L231.576 75.2288C231.82 75.7095 231.902 76.1277 231.823 76.4832C231.745 76.8413 231.506 77.1218 231.107 77.3245C230.594 77.5842 230.089 77.5714 229.589 77.286C229.091 77.0032 228.639 76.4621 228.234 75.6625ZM229.039 75.3179C229.184 75.6027 229.335 75.8331 229.493 76.0091C229.65 76.189 229.806 76.3087 229.961 76.368C230.114 76.4288 230.258 76.4247 230.394 76.3558C230.503 76.3001 230.574 76.223 230.606 76.1246C230.637 76.0301 230.633 75.9109 230.593 75.767C230.554 75.6257 230.483 75.4545 230.381 75.2533L230.067 74.634C229.993 74.4877 229.903 74.3677 229.796 74.274C229.691 74.1828 229.579 74.1245 229.461 74.099C229.34 74.0748 229.224 74.0912 229.111 74.1482C228.947 74.2316 228.857 74.3756 228.843 74.5801C228.829 74.7872 228.895 75.0331 229.039 75.3179ZM232.46 73.8244C232.574 74.0491 232.727 74.1786 232.919 74.2129C233.11 74.2472 233.325 74.204 233.562 74.0834C233.826 73.9496 233.996 73.7947 234.071 73.6187C234.15 73.444 234.134 73.2482 234.024 73.0313C233.913 72.8118 233.763 72.681 233.574 72.6388C233.388 72.5954 233.162 72.6405 232.899 72.7744C232.661 72.895 232.5 73.0439 232.416 73.2213C232.333 73.4013 232.348 73.6023 232.46 73.8244Z" fill="white"/>
<path d="M233.257 69.9266L228.876 72.1488L228.416 71.2435L228.919 70.7768L228.889 70.718C228.707 70.7216 228.542 70.7016 228.395 70.6579C228.248 70.6142 228.12 70.5448 228.009 70.4498C227.898 70.3548 227.804 70.2302 227.726 70.0761C227.645 69.9167 227.601 69.7564 227.595 69.5953C227.593 69.4355 227.627 69.2853 227.697 69.1447L227.685 69.1211C227.634 69.1568 227.553 69.2064 227.44 69.2699C227.33 69.3322 227.214 69.3964 227.089 69.4626C226.964 69.5327 226.853 69.5923 226.756 69.6414L225.502 70.2774L224.896 69.082L231.206 65.8818L231.812 67.0772L229.253 68.3752C228.939 68.5342 228.732 68.7116 228.631 68.9074C228.53 69.1032 228.542 69.3239 228.666 69.5695C228.787 69.8073 228.936 69.9663 229.115 70.0465C229.298 70.128 229.511 70.1432 229.754 70.092C230 70.0395 230.279 69.9344 230.59 69.7767L232.651 68.7312L233.257 69.9266Z" fill="white"/>
<path d="M230.366 64.987C229.708 65.3206 229.095 65.5663 228.526 65.7242C227.958 65.8858 227.437 65.9447 226.962 65.9008C226.488 65.8607 226.064 65.7066 225.69 65.4386C225.316 65.1705 224.997 64.7764 224.733 64.2562C224.401 63.6022 224.294 62.9814 224.412 62.3938C224.534 61.8044 224.856 61.251 225.378 60.7337C225.904 60.2146 226.604 59.7336 227.477 59.2908C228.358 58.8442 229.156 58.5536 229.873 58.4191C230.595 58.2864 231.229 58.3433 231.774 58.5899C232.32 58.8364 232.769 59.3071 233.121 60.002C233.451 60.6522 233.555 61.2721 233.434 61.8616C233.318 62.4529 232.998 63.01 232.474 63.5328C231.953 64.0538 231.25 64.5385 230.366 64.987ZM228.345 61.0019C227.724 61.3166 227.223 61.6129 226.841 61.8909C226.464 62.1706 226.213 62.445 226.088 62.7141C225.963 62.9831 225.974 63.2625 226.121 63.5523C226.266 63.8385 226.482 64.0114 226.769 64.0713C227.062 64.133 227.433 64.0945 227.881 63.9559C228.333 63.8155 228.871 63.5869 229.495 63.2704C230.116 62.9556 230.616 62.6575 230.997 62.3758C231.377 62.0941 231.629 61.8169 231.752 61.5442C231.881 61.2733 231.873 60.9948 231.728 60.7087C231.581 60.4188 231.36 60.2459 231.065 60.1898C230.774 60.1318 230.403 60.1731 229.951 60.3136C229.501 60.4577 228.965 60.6872 228.345 61.0019Z" fill="white"/>
<path d="M226.822 55.1945C227.074 55.6924 227.204 56.1827 227.21 56.6652C227.218 57.1515 227.095 57.5994 226.84 58.0089C226.586 58.4184 226.189 58.7598 225.65 59.033C225.063 59.3308 224.494 59.4654 223.942 59.4368C223.396 59.4102 222.887 59.2128 222.415 58.8447C221.946 58.4803 221.529 57.9395 221.165 57.2224C220.948 56.7951 220.781 56.3731 220.663 55.9564C220.543 55.5453 220.486 55.1608 220.492 54.803L221.98 54.0483C221.974 54.4061 222.02 54.8083 222.115 55.2549C222.217 55.7034 222.356 56.1023 222.533 56.4516C222.706 56.7934 222.897 57.0588 223.105 57.2476C223.317 57.4346 223.547 57.5395 223.797 57.5623C224.052 57.5869 224.329 57.5239 224.626 57.3731C225.024 57.1715 225.26 56.8832 225.337 56.5082C225.413 56.1333 225.31 55.669 225.03 55.1153C224.922 54.9035 224.79 54.6928 224.632 54.4831C224.476 54.2772 224.339 54.1084 224.221 53.9768L224.241 53.1047L228.549 51.3053L230.791 55.7252L229.33 56.4658L227.855 53.5564L226.179 54.2172C226.269 54.3303 226.365 54.4546 226.466 54.5901C226.567 54.7255 226.686 54.927 226.822 55.1945Z" fill="white"/>
<path d="M219.688 54.0334L216.799 48.3371L217.998 47.7294L221.103 48.7262C221.736 48.9238 222.256 49.0755 222.665 49.1812C223.079 49.2888 223.432 49.339 223.722 49.3317C224.015 49.3282 224.295 49.2586 224.562 49.1229C224.886 48.9589 225.081 48.7454 225.148 48.4823C225.222 48.221 225.182 47.9399 225.029 47.6389C224.869 47.3231 224.641 47.0533 224.345 46.8295C224.05 46.6057 223.686 46.4001 223.255 46.2125L223.889 44.7136C224.208 44.8459 224.523 44.9969 224.833 45.1666C225.145 45.3399 225.443 45.5721 225.726 45.863C226.015 46.1557 226.282 46.5455 226.529 47.0322C226.801 47.5673 226.937 48.0752 226.938 48.5559C226.94 49.0404 226.827 49.4714 226.598 49.8491C226.373 50.2249 226.051 50.5193 225.631 50.7322C225.181 50.9602 224.725 51.0793 224.263 51.0894C223.801 51.0995 223.302 51.0259 222.764 50.8688C222.228 50.7153 221.618 50.5111 220.933 50.256L219.415 49.7085L219.337 49.748L221.137 53.2984L219.688 54.0334Z" fill="white"/>
<path d="M123 67.9999C133.45 68.166 143.943 71.2887 152.5 75.9999L165 54.4999L174.936 36.6984C176.076 34.6549 175.35 32.0666 173.267 30.9999C159.453 23.9255 143.7 19.4178 127.278 18.6223C124.923 18.5082 123 20.4218 123 22.779V42.9999V67.9999Z" fill="url(#paint1_linear_615_1382)"/>
<path d="M149.97 45.9035L149.546 47.8643C149.512 48.02 149.474 48.1718 149.433 48.3195C149.391 48.4672 149.354 48.5902 149.32 48.6884L149.375 48.7C149.52 48.5455 149.683 48.4268 149.864 48.3437C150.049 48.2583 150.247 48.2076 150.458 48.1917C150.673 48.1733 150.892 48.1878 151.115 48.235C151.51 48.3186 151.829 48.4533 152.073 48.6392C152.318 48.8251 152.481 49.0689 152.563 49.3705C152.645 49.669 152.64 50.0336 152.547 50.4643L151.836 53.7537L150.923 53.5604L151.607 50.3947C151.695 49.9915 151.671 49.6704 151.538 49.4313C151.404 49.1891 151.155 49.0291 150.788 48.9514C150.439 48.8776 150.146 48.8889 149.908 48.9854C149.67 49.0788 149.478 49.2505 149.331 49.5005C149.184 49.7505 149.069 50.071 148.984 50.4619L148.429 53.032L147.507 52.8368L149.048 45.7083L149.97 45.9035Z" fill="white"/>
<path d="M143.297 54.3022C142.621 54.1591 142.128 53.9253 141.818 53.6009C141.511 53.2771 141.405 52.8937 141.501 52.4509C141.569 52.1363 141.726 51.8901 141.972 51.7123C142.218 51.5375 142.528 51.4498 142.902 51.4492C142.78 51.3597 142.684 51.2419 142.614 51.096C142.547 50.9476 142.53 50.794 142.565 50.6352C142.605 50.4489 142.691 50.2996 142.824 50.1872C142.961 50.0724 143.149 49.9732 143.387 49.8896C143.145 49.7233 142.971 49.4963 142.863 49.2085C142.757 48.9176 142.74 48.6011 142.814 48.2591C142.893 47.8956 143.036 47.6018 143.245 47.3776C143.456 47.1541 143.721 47.0059 144.041 46.933C144.36 46.8601 144.728 46.8677 145.144 46.9558C145.235 46.9752 145.329 46.9999 145.425 47.0297C145.521 47.0566 145.612 47.087 145.698 47.1211C145.783 47.1551 145.852 47.1856 145.903 47.2125L147.646 47.5816L147.528 48.1268L146.599 48.0739C146.663 48.2087 146.705 48.3614 146.726 48.5318C146.747 48.7023 146.736 48.8822 146.696 49.0716C146.585 49.5847 146.321 49.9537 145.905 50.1785C145.492 50.401 144.977 50.4468 144.36 50.316C144.217 50.2825 144.074 50.2395 143.932 50.1871C143.784 50.2356 143.667 50.2985 143.58 50.3759C143.493 50.4502 143.437 50.5454 143.412 50.6615C143.393 50.7501 143.407 50.828 143.453 50.8953C143.502 50.9632 143.58 51.0229 143.688 51.0743C143.795 51.1227 143.93 51.1641 144.092 51.1984L144.973 51.3849C145.523 51.5014 145.92 51.7068 146.163 52.0011C146.406 52.2954 146.48 52.6655 146.383 53.1114C146.261 53.6764 145.935 54.0625 145.404 54.2695C144.874 54.4765 144.171 54.4874 143.297 54.3022ZM143.475 53.6355C143.869 53.719 144.206 53.749 144.486 53.7252C144.769 53.7022 144.994 53.6316 145.16 53.5134C145.326 53.3953 145.431 53.2355 145.475 53.0339C145.514 52.8507 145.5 52.7008 145.433 52.5843C145.368 52.4715 145.253 52.3801 145.089 52.3103C144.925 52.2404 144.718 52.1789 144.467 52.1258L143.633 51.9491C143.419 51.9037 143.225 51.8978 143.052 51.9314C142.878 51.9649 142.734 52.0349 142.618 52.1413C142.501 52.2508 142.423 52.3987 142.383 52.585C142.328 52.8385 142.395 53.0554 142.583 53.2358C142.774 53.4168 143.071 53.55 143.475 53.6355ZM144.537 49.6971C144.876 49.769 145.149 49.7341 145.355 49.5926C145.562 49.448 145.702 49.2093 145.774 48.8764C145.851 48.519 145.824 48.2321 145.691 48.0157C145.559 47.7992 145.325 47.6553 144.989 47.5841C144.662 47.5148 144.391 47.5549 144.176 47.7043C143.965 47.8513 143.822 48.1019 143.745 48.4562C143.675 48.783 143.707 49.055 143.842 49.2721C143.978 49.4861 144.21 49.6278 144.537 49.6971Z" fill="white"/>
<path d="M141.872 46.3634L140.781 51.412L139.859 51.2168L140.95 46.1681L141.872 46.3634ZM141.831 44.3568C141.977 44.3879 142.094 44.4572 142.179 44.5647C142.268 44.6729 142.291 44.8232 142.249 45.0156C142.208 45.208 142.124 45.3372 141.998 45.4031C141.875 45.4666 141.741 45.4828 141.594 45.4517C141.444 45.42 141.327 45.3504 141.241 45.2429C141.159 45.1329 141.139 44.9817 141.181 44.7893C141.223 44.5969 141.303 44.4686 141.422 44.4045C141.545 44.341 141.681 44.3251 141.831 44.3568Z" fill="white"/>
<path d="M138.171 50.8591L137.231 50.66L137.899 47.5676L134.593 46.8674L133.925 49.9598L132.985 49.7606L134.433 43.0627L135.373 43.2619L134.769 46.0565L138.075 46.7567L138.679 43.9621L139.619 44.1612L138.171 50.8591Z" fill="white"/>
<path d="M150.84 37.0188L151.835 37.2296L152.279 40.366C152.302 40.5273 152.321 40.6846 152.335 40.8378C152.354 40.9887 152.365 41.1349 152.37 41.2764C152.378 41.4155 152.379 41.5514 152.373 41.6843L152.405 41.691C152.475 41.5431 152.568 41.3647 152.684 41.156C152.799 40.9473 152.921 40.7368 153.05 40.5246L154.705 37.8376L155.696 38.0474L152.267 43.3484C152.079 43.6438 151.874 43.8879 151.654 44.0807C151.435 44.2772 151.197 44.412 150.938 44.4849C150.679 44.5609 150.39 44.5653 150.072 44.4979C149.925 44.4668 149.797 44.4302 149.688 44.3879C149.582 44.3493 149.491 44.3109 149.416 44.2727L149.574 43.5397C149.638 43.5692 149.716 43.6001 149.808 43.6324C149.904 43.6653 150.003 43.6928 150.107 43.7148C150.3 43.7556 150.473 43.7524 150.627 43.7052C150.784 43.6617 150.926 43.5815 151.053 43.4648C151.184 43.3488 151.302 43.2062 151.409 43.0372L151.767 42.4902L150.84 37.0188Z" fill="white"/>
<path d="M150.121 36.7709C150.212 36.7903 150.31 36.8175 150.415 36.8523C150.52 36.8842 150.609 36.9158 150.682 36.9473L150.401 37.7836C150.331 37.7497 150.249 37.7163 150.154 37.6834C150.062 37.6511 149.974 37.6262 149.892 37.6087C149.696 37.5673 149.502 37.5644 149.308 37.6002C149.115 37.6359 148.936 37.7098 148.771 37.8218C148.607 37.9307 148.465 38.0779 148.345 38.2633C148.226 38.4456 148.138 38.6651 148.083 38.9216L147.506 41.5925L146.579 41.3963L147.671 36.3477L148.413 36.5051L148.326 37.4401L148.368 37.4488C148.511 37.2876 148.673 37.1461 148.853 37.0245C149.035 36.9035 149.233 36.8191 149.444 36.7714C149.66 36.7212 149.885 36.721 150.121 36.7709Z" fill="white"/>
<path d="M144.326 35.5433C144.766 35.6365 145.123 35.8112 145.397 36.0672C145.672 36.3202 145.856 36.6356 145.95 37.0133C146.044 37.3909 146.041 37.8119 145.941 38.2761L145.828 38.7984L142.398 38.0719C142.29 38.6144 142.34 39.0593 142.546 39.4064C142.753 39.7505 143.1 39.974 143.586 40.077C143.907 40.145 144.199 40.175 144.463 40.167C144.727 40.159 145.006 40.1239 145.301 40.0618L145.133 40.836C144.855 40.8983 144.581 40.9283 144.313 40.9258C144.048 40.927 143.738 40.8901 143.383 40.815C142.894 40.7114 142.485 40.5227 142.158 40.2488C141.833 39.9757 141.61 39.6265 141.488 39.2013C141.366 38.7731 141.366 38.278 141.487 37.7161C141.607 37.1602 141.803 36.705 142.075 36.3505C142.347 35.993 142.676 35.7448 143.061 35.6059C143.445 35.467 143.867 35.4462 144.326 35.5433ZM144.167 36.257C143.794 36.178 143.468 36.2367 143.189 36.4331C142.91 36.6265 142.702 36.945 142.565 37.3886L145.05 37.915C145.107 37.6364 145.116 37.3827 145.076 37.1538C145.036 36.925 144.941 36.7325 144.793 36.5765C144.647 36.4211 144.439 36.3146 144.167 36.257Z" fill="white"/>
<path d="M141.892 33.3989L138.069 39.5937L137.093 39.3868L136.165 32.1858L137.137 32.3917L137.697 37.0138C137.719 37.1751 137.737 37.3449 137.75 37.5233C137.763 37.6986 137.773 37.8732 137.78 38.0472C137.787 38.2212 137.79 38.3798 137.788 38.5231C137.845 38.3915 137.911 38.2474 137.987 38.0909C138.065 37.9351 138.148 37.7786 138.237 37.6217C138.326 37.4616 138.412 37.3108 138.497 37.1691L140.911 33.1911L141.892 33.3989Z" fill="white"/>
<path d="M203.347 31.2538C203.659 31.4455 203.869 31.6828 203.977 31.9658C204.087 32.2464 204.06 32.5189 203.898 32.7835C203.79 32.9583 203.647 33.0766 203.468 33.1385C203.292 33.202 203.07 33.2017 202.803 33.1376L202.776 33.1825C202.994 33.3923 203.119 33.6064 203.15 33.8248C203.183 34.0447 203.145 34.2433 203.036 34.4205C202.851 34.7226 202.594 34.8935 202.267 34.9333C201.942 34.9705 201.547 34.8466 201.083 34.5613C200.893 34.4447 200.729 34.3146 200.59 34.171C200.451 34.0273 200.328 33.862 200.219 33.6749L200.659 32.9598C200.762 33.1608 200.877 33.3432 201.003 33.5068C201.13 33.6704 201.284 33.8082 201.466 33.9202C201.651 34.0337 201.807 34.0828 201.933 34.0675C202.062 34.0538 202.166 33.982 202.246 33.8522C202.308 33.7499 202.322 33.6307 202.285 33.4946C202.251 33.3601 202.112 33.2185 201.87 33.0697L201.451 32.8121L201.817 32.2167L202.161 32.4284C202.421 32.5879 202.614 32.6482 202.741 32.6093C202.868 32.5705 202.963 32.4999 203.026 32.3975C203.084 32.3027 203.101 32.2049 203.077 32.1041C203.053 32.0034 202.977 31.9139 202.85 31.8357C202.733 31.7636 202.607 31.7191 202.473 31.7021C202.339 31.6851 202.17 31.6828 201.967 31.6952L201.913 30.9349C202.14 30.9127 202.371 30.9204 202.605 30.9581C202.843 30.9972 203.09 31.0958 203.347 31.2538Z" fill="white"/>
<path d="M198.519 31.4231C198.993 31.7145 199.276 32.0569 199.368 32.4503C199.464 32.8427 199.347 33.3072 199.017 33.8439L197.34 36.5735L196.194 35.8696L197.697 33.4246C197.881 33.125 197.968 32.8677 197.959 32.6525C197.951 32.4374 197.839 32.2639 197.624 32.132C197.322 31.9464 197.041 31.9231 196.78 32.062C196.521 32.1985 196.268 32.4677 196.021 32.8696L194.73 34.9701L193.588 34.2685L195.091 31.8234C195.213 31.6237 195.294 31.4427 195.331 31.2803C195.369 31.1179 195.363 30.9746 195.312 30.8505C195.261 30.7263 195.163 30.6198 195.018 30.5308C194.806 30.4005 194.606 30.3514 194.418 30.3836C194.233 30.4148 194.051 30.5179 193.872 30.6929C193.696 30.8669 193.517 31.1024 193.334 31.3995L192.124 33.369L190.982 32.6673L193.554 28.4812L194.427 29.0172L194.251 29.647L194.315 29.6861C194.489 29.5935 194.667 29.5413 194.849 29.5297C195.034 29.5195 195.217 29.5408 195.398 29.5935C195.579 29.6461 195.749 29.7215 195.909 29.8197C196.216 30.0083 196.445 30.2177 196.596 30.4479C196.749 30.6797 196.819 30.9357 196.805 31.2159L196.906 31.278C197.163 31.14 197.434 31.0921 197.721 31.1343C198.011 31.1781 198.277 31.2743 198.519 31.4231Z" fill="white"/>
<path d="M193.709 26.8021L188.305 31.0225L187.268 30.3853L192.672 26.1649L193.709 26.8021Z" fill="white"/>
<path d="M183.57 30.6517C182.986 30.2928 182.602 29.916 182.419 29.5211C182.236 29.1303 182.257 28.7514 182.483 28.3845C182.637 28.1323 182.846 27.9697 183.107 27.8966C183.369 27.8235 183.674 27.8443 184.023 27.959C183.936 27.837 183.884 27.693 183.866 27.527C183.849 27.3585 183.879 27.2106 183.958 27.0833C184.056 26.9235 184.183 26.8196 184.34 26.7715C184.498 26.7209 184.696 26.6981 184.934 26.7031C184.773 26.4733 184.691 26.2137 184.69 25.9242C184.692 25.6363 184.78 25.3501 184.955 25.0655C185.142 24.761 185.367 24.5433 185.63 24.4124C185.896 24.2805 186.191 24.2367 186.515 24.2808C186.841 24.3264 187.188 24.4619 187.555 24.6874C187.632 24.7349 187.719 24.7951 187.815 24.868C187.911 24.9409 187.998 25.0096 188.075 25.0742C188.155 25.1404 188.207 25.1864 188.233 25.2123L189.693 26.1095L189.336 26.6898L188.578 26.4558C188.581 26.5849 188.565 26.7111 188.531 26.8344C188.496 26.9576 188.443 27.0779 188.371 27.1952C188.095 27.6445 187.722 27.8986 187.253 27.9575C186.787 28.0154 186.276 27.8734 185.72 27.5314C185.592 27.4426 185.473 27.3559 185.364 27.2714C185.279 27.281 185.206 27.3016 185.145 27.3332C185.085 27.3647 185.037 27.4079 185.004 27.4628C184.97 27.5177 184.964 27.5777 184.986 27.6428C185.012 27.7068 185.065 27.7772 185.145 27.854C185.229 27.9297 185.341 28.0105 185.481 28.0964L186.192 28.5335C186.652 28.8157 186.94 29.129 187.059 29.4734C187.18 29.8194 187.123 30.1833 186.888 30.5652C186.588 31.0545 186.15 31.3082 185.575 31.3262C185.002 31.3458 184.334 31.121 183.57 30.6517ZM184.077 29.9365C184.349 30.1037 184.598 30.2209 184.825 30.2881C185.053 30.3593 185.249 30.3797 185.412 30.3492C185.573 30.3213 185.694 30.2424 185.774 30.1126C185.838 30.0078 185.858 29.905 185.834 29.8042C185.811 29.7075 185.745 29.6083 185.636 29.5067C185.529 29.4066 185.379 29.2975 185.187 29.1794L184.595 28.8159C184.455 28.73 184.316 28.6751 184.176 28.651C184.038 28.6284 183.912 28.6372 183.798 28.6772C183.683 28.7197 183.592 28.7946 183.526 28.9019C183.43 29.0592 183.429 29.2287 183.523 29.4106C183.62 29.594 183.805 29.7693 184.077 29.9365ZM186.211 26.8741C186.426 27.0059 186.624 27.0364 186.805 26.9655C186.986 26.8945 187.146 26.7455 187.286 26.5183C187.441 26.2662 187.504 26.0455 187.476 25.8563C187.452 25.6661 187.336 25.5074 187.129 25.3801C186.919 25.2513 186.723 25.2183 186.54 25.2812C186.358 25.3416 186.19 25.4978 186.035 25.7499C185.896 25.9771 185.837 26.1883 185.858 26.3834C185.881 26.5802 185.999 26.7437 186.211 26.8741Z" fill="white"/>
<path d="M184.852 23.1351L182.28 27.3212L181.416 26.7898L181.6 26.1292L181.543 26.0947C181.39 26.1931 181.239 26.2621 181.091 26.3017C180.943 26.3414 180.797 26.3497 180.653 26.3265C180.509 26.3034 180.364 26.2466 180.216 26.1561C180.064 26.0626 179.943 25.9488 179.854 25.8147C179.768 25.6796 179.718 25.5339 179.704 25.3775L179.682 25.3636C179.657 25.4207 179.614 25.5056 179.551 25.6185C179.49 25.7289 179.424 25.8448 179.353 25.9662C179.283 26.0915 179.219 26.2004 179.163 26.2928L178.427 27.491L177.285 26.7893L180.988 20.761L182.13 21.4626L180.628 23.9077C180.444 24.2072 180.36 24.4668 180.376 24.6866C180.393 24.9063 180.518 25.0883 180.753 25.2325C180.98 25.372 181.191 25.4293 181.385 25.4042C181.583 25.3781 181.773 25.2796 181.953 25.1087C182.135 24.9352 182.318 24.7 182.5 24.4029L183.71 22.4334L184.852 23.1351Z" fill="white"/>
<path d="M179.803 20.4379C179.417 21.0663 179.023 21.5966 178.62 22.029C178.221 22.4635 177.808 22.7864 177.38 22.9977C176.955 23.2112 176.513 23.3016 176.054 23.2689C175.595 23.2362 175.117 23.0672 174.62 22.7618C173.995 22.378 173.58 21.9049 173.372 21.3425C173.168 20.7765 173.153 20.1365 173.327 19.4223C173.504 18.7046 173.849 17.9287 174.361 17.0945C174.878 16.2532 175.407 15.5877 175.947 15.0982C176.493 14.6074 177.063 14.3243 177.657 14.2491C178.251 14.1739 178.88 14.3402 179.544 14.748C180.165 15.1297 180.578 15.6035 180.783 16.1695C180.993 16.734 181.012 17.3763 180.839 18.0961C180.668 18.8125 180.322 19.5931 179.803 20.4379ZM175.996 18.0988C175.632 18.6916 175.36 19.2065 175.179 19.6433C175.005 20.0788 174.934 20.4439 174.968 20.7387C175.002 21.0334 175.158 21.2658 175.435 21.436C175.708 21.6039 175.983 21.6382 176.259 21.539C176.541 21.4383 176.837 21.2117 177.146 20.8591C177.458 20.5029 177.797 20.0267 178.163 19.4303C178.528 18.8375 178.798 18.3216 178.975 17.8825C179.152 17.4435 179.221 17.0755 179.184 16.7786C179.152 16.4803 178.999 16.2472 178.726 16.0792C178.449 15.9091 178.17 15.8773 177.89 15.9836C177.611 16.0865 177.316 16.3159 177.005 16.6721C176.697 17.0304 176.36 17.506 175.996 18.0988Z" fill="white"/>
<path d="M171.214 20.5225L165.772 17.179L166.476 16.0342L169.644 15.2593C170.286 15.0967 170.809 14.9536 171.213 14.83C171.622 14.7049 171.949 14.5633 172.193 14.4051C172.44 14.2491 172.642 14.0432 172.799 13.7877C172.989 13.4788 173.044 13.1946 172.964 12.9351C172.889 12.6743 172.708 12.4555 172.421 12.2788C172.119 12.0934 171.784 11.9827 171.415 11.9467C171.046 11.9107 170.628 11.9256 170.162 11.9914L169.919 10.3822C170.26 10.3279 170.608 10.2919 170.961 10.2741C171.317 10.2586 171.692 10.3008 172.086 10.4007C172.485 10.4992 172.917 10.6913 173.382 10.977C173.893 11.2911 174.275 11.6527 174.527 12.0619C174.783 12.4734 174.912 12.8999 174.915 13.3415C174.919 13.7796 174.798 14.1992 174.552 14.6003C174.288 15.0298 173.962 15.3698 173.573 15.6201C173.185 15.8704 172.72 16.0691 172.18 16.2164C171.643 16.3658 171.016 16.511 170.299 16.6521L168.719 16.9796L168.673 17.0541L172.065 19.138L171.214 20.5225Z" fill="white"/>
<path d="M163.6 15.8442L161.955 14.8333L164.722 10.3285C164.799 10.2043 164.894 10.0527 165.009 9.87384C165.126 9.69143 165.247 9.50656 165.372 9.31923C165.499 9.12835 165.614 8.95699 165.717 8.80516C165.65 8.82732 165.521 8.85812 165.33 8.89756C165.145 8.93563 164.974 8.96742 164.817 8.99292L163.481 9.16215L163.296 7.68429L167.03 7.22837L168.383 8.05933L163.6 15.8442Z" fill="white"/>
<path d="M90.9997 75.9999C99.5569 71.2887 112.549 68.0976 123 67.9315C123 67.9315 123 53.0202 123 43.4657C123 37.1187 123 28.4077 123 23.2744C123 20.9172 121.078 19.0091 118.724 19.1219C101.983 19.9241 84.212 24.5108 70.0558 31.5952C67.9339 32.6571 67.2223 35.2959 68.4192 37.3447L78.62 54.8074L90.9997 75.9999Z" fill="url(#paint2_linear_615_1382)"/>
<path d="M103.533 38.2291L104.095 40.1548C104.14 40.3078 104.179 40.4591 104.213 40.6087C104.247 40.7583 104.272 40.8843 104.289 40.9867L104.343 40.9711C104.398 40.7669 104.485 40.5858 104.605 40.4277C104.727 40.2657 104.877 40.1282 105.055 40.015C105.236 39.898 105.436 39.8079 105.655 39.7448C106.043 39.6332 106.388 39.602 106.692 39.6511C106.996 39.7001 107.256 39.8382 107.472 40.0654C107.688 40.2896 107.857 40.6132 107.98 41.0361L108.923 44.2667L108.027 44.5247L107.119 41.4157C107.004 41.0197 106.83 40.7478 106.598 40.6C106.365 40.4492 106.069 40.4256 105.708 40.5293C105.366 40.6279 105.113 40.7756 104.949 40.9723C104.784 41.1661 104.697 41.4075 104.687 41.6965C104.677 41.9856 104.728 42.3221 104.84 42.706L105.576 45.2302L104.671 45.4908L102.628 38.4897L103.533 38.2291Z" fill="white"/>
<path d="M101.659 48.7576C100.996 48.9486 100.45 48.9741 100.021 48.834C99.5962 48.6931 99.3201 48.4051 99.1932 47.9702C99.103 47.6612 99.124 47.3707 99.2561 47.0985C99.3892 46.8293 99.6204 46.6067 99.9498 46.4305C99.8002 46.4086 99.6594 46.35 99.5274 46.2546C99.3976 46.1555 99.3099 46.0279 99.2643 45.8719C99.2109 45.6889 99.216 45.5167 99.2796 45.3554C99.3453 45.1901 99.4634 45.0147 99.6338 44.8291C99.341 44.7963 99.0788 44.6783 98.847 44.4752C98.6143 44.269 98.4489 43.998 98.3509 43.662C98.2467 43.3051 98.2329 42.979 98.3095 42.6838C98.3891 42.3877 98.5523 42.1327 98.799 41.9186C99.0458 41.7044 99.3733 41.5386 99.7817 41.421C99.8718 41.3951 99.9662 41.3728 100.065 41.3541C100.163 41.3325 100.257 41.3166 100.349 41.3065C100.44 41.2965 100.515 41.2911 100.574 41.2906L102.285 40.7978L102.442 41.3332L101.598 41.7224C101.718 41.8113 101.828 41.926 101.928 42.0664C102.028 42.2068 102.104 42.37 102.159 42.556C102.306 43.0599 102.25 43.5086 101.99 43.9019C101.733 44.2915 101.301 44.5735 100.694 44.7482C100.552 44.7858 100.406 44.8148 100.256 44.8353C100.148 44.9475 100.075 45.0581 100.035 45.1671C99.9945 45.2731 99.9908 45.3831 100.024 45.4971C100.049 45.5841 100.099 45.6464 100.171 45.6839C100.247 45.7206 100.345 45.7365 100.464 45.7315C100.582 45.7235 100.72 45.6966 100.879 45.6508L101.744 45.4018C102.285 45.2462 102.732 45.2409 103.087 45.3859C103.442 45.5308 103.683 45.8223 103.811 46.2602C103.973 46.8152 103.87 47.3083 103.501 47.7397C103.132 48.171 102.518 48.5103 101.659 48.7576ZM101.498 48.0871C101.885 47.9756 102.196 47.8437 102.432 47.6913C102.67 47.5381 102.835 47.3705 102.925 47.1885C103.015 47.0065 103.031 46.8165 102.973 46.6185C102.921 46.4385 102.837 46.3131 102.722 46.2422C102.611 46.1734 102.466 46.1467 102.288 46.1621C102.111 46.1775 101.899 46.2207 101.652 46.2916L100.833 46.5276C100.622 46.5881 100.449 46.6738 100.312 46.7848C100.175 46.8957 100.081 47.0252 100.03 47.1733C99.9796 47.3243 99.9811 47.4913 100.035 47.6743C100.107 47.9233 100.269 48.0831 100.521 48.1537C100.776 48.2234 101.101 48.2012 101.498 48.0871ZM100.555 44.1201C100.888 44.0241 101.112 43.8654 101.226 43.6438C101.34 43.4193 101.349 43.1436 101.253 42.8166C101.151 42.4657 100.99 42.2259 100.77 42.0973C100.55 41.9688 100.275 41.952 99.9449 42.0471C99.6236 42.1396 99.4041 42.302 99.2863 42.5343C99.1707 42.7627 99.1637 43.0508 99.2652 43.3988C99.3589 43.7197 99.5171 43.9441 99.7399 44.0718C99.9619 44.1965 100.233 44.2126 100.555 44.1201Z" fill="white"/>
<path d="M96.6166 42.4349L98.0636 47.3932L97.1583 47.6538L95.7112 42.6955L96.6166 42.4349ZM95.6231 40.687C95.7672 40.6455 95.9026 40.652 96.0292 40.7066C96.1588 40.7604 96.2512 40.8817 96.3063 41.0707C96.3615 41.2597 96.3492 41.4128 96.2695 41.53C96.1919 41.6434 96.081 41.7208 95.9369 41.7623C95.7898 41.8047 95.6529 41.7986 95.5263 41.744C95.4018 41.6855 95.312 41.5618 95.2568 41.3728C95.2017 41.1839 95.2114 41.0331 95.286 40.9206C95.3636 40.8072 95.4759 40.7293 95.6231 40.687Z" fill="white"/>
<path d="M95.5003 48.1311L94.577 48.3969L93.6906 45.3598L90.4431 46.2947L91.3295 49.3318L90.4061 49.5977L88.4863 43.0195L89.4097 42.7537L90.2107 45.4983L93.4582 44.5634L92.6572 41.8188L93.5805 41.5529L95.5003 48.1311Z" fill="white"/>
<path d="M142.058 2.89356C142.425 2.8988 142.726 2.99542 142.964 3.18342C143.202 3.36848 143.318 3.61627 143.314 3.92678C143.311 4.13184 143.248 4.30674 143.126 4.45149C143.007 4.59628 142.816 4.70929 142.554 4.7905L142.554 4.84323C142.848 4.91192 143.065 5.03222 143.203 5.20414C143.344 5.3761 143.413 5.56607 143.41 5.77406C143.405 6.12852 143.272 6.40643 143.012 6.60779C142.751 6.80622 142.348 6.90154 141.803 6.89373C141.581 6.89054 141.373 6.86266 141.18 6.81009C140.988 6.75752 140.797 6.67861 140.608 6.57335L140.62 5.73408C140.812 5.85403 141.004 5.952 141.196 6.02801C141.388 6.10401 141.591 6.14355 141.805 6.14661C142.022 6.14972 142.181 6.11244 142.282 6.03477C142.385 5.95715 142.438 5.84217 142.44 5.68984C142.442 5.56974 142.392 5.46061 142.291 5.36248C142.193 5.26438 142.002 5.21329 141.718 5.20922L141.225 5.20217L141.235 4.50351L141.64 4.50931C141.944 4.51367 142.141 4.46668 142.231 4.36834C142.32 4.27 142.366 4.16078 142.367 4.04068C142.369 3.92936 142.334 3.83656 142.261 3.76227C142.189 3.68799 142.078 3.64978 141.929 3.64764C141.791 3.64567 141.661 3.67163 141.537 3.72552C141.413 3.77942 141.267 3.86376 141.098 3.97854L140.663 3.35262C140.847 3.21754 141.049 3.10617 141.27 3.0185C141.494 2.93088 141.757 2.88923 142.058 2.89356Z" fill="white"/>
<path d="M137.995 5.50771C138.552 5.51569 138.97 5.66525 139.25 5.9564C139.533 6.24467 139.67 6.70371 139.661 7.33352L139.615 10.5368L138.27 10.5175L138.312 7.64821C138.317 7.29668 138.26 7.03071 138.143 6.8503C138.025 6.66989 137.841 6.57787 137.589 6.57427C137.234 6.56919 136.98 6.69301 136.827 6.94572C136.674 7.19551 136.594 7.55622 136.588 8.02785L136.552 10.4929L135.212 10.4737L135.253 7.60439C135.257 7.37004 135.233 7.17339 135.183 7.01445C135.132 6.85551 135.053 6.73571 134.946 6.65507C134.839 6.57442 134.7 6.53288 134.53 6.53045C134.281 6.52688 134.084 6.58705 133.939 6.71096C133.796 6.83197 133.693 7.01361 133.628 7.25587C133.566 7.49524 133.532 7.78923 133.527 8.13782L133.494 10.4491L132.154 10.4299L132.224 5.51732L133.248 5.53199L133.419 6.16293L133.494 6.164C133.596 5.99552 133.722 5.85962 133.873 5.75631C134.027 5.65303 134.195 5.57779 134.378 5.5306C134.56 5.4834 134.745 5.46114 134.932 5.46383C135.293 5.46899 135.596 5.53195 135.844 5.65269C136.094 5.77347 136.285 5.95787 136.416 6.20587L136.535 6.20757C136.685 5.95774 136.894 5.77761 137.162 5.66718C137.433 5.5568 137.711 5.50364 137.995 5.50771Z" fill="white"/>
<path d="M131.499 3.99487L129.012 10.3847L127.795 10.3673L130.281 3.97743L131.499 3.99487Z" fill="white"/>
<path d="M124.754 12.4861C124.069 12.4763 123.546 12.3487 123.186 12.1032C122.829 11.8608 122.654 11.5243 122.66 11.0936C122.664 10.7978 122.76 10.5516 122.947 10.355C123.135 10.1585 123.408 10.0203 123.766 9.94043C123.63 9.87987 123.511 9.78294 123.41 9.64965C123.31 9.51343 123.26 9.37062 123.263 9.22122C123.265 9.03374 123.322 8.87926 123.432 8.75778C123.542 8.63337 123.7 8.51258 123.907 8.39541C123.651 8.2804 123.449 8.09877 123.3 7.85052C123.154 7.60231 123.083 7.31123 123.088 6.97728C123.093 6.6199 123.175 6.31782 123.334 6.07105C123.496 5.82139 123.727 5.63278 124.028 5.50524C124.331 5.37774 124.699 5.31708 125.129 5.32325C125.22 5.32455 125.325 5.33192 125.445 5.34536C125.565 5.3588 125.675 5.37355 125.774 5.38963C125.877 5.40574 125.945 5.41845 125.98 5.42774L127.694 5.45229L127.684 6.13337L126.912 6.32009C126.981 6.42948 127.032 6.54595 127.066 6.66949C127.099 6.79303 127.115 6.92364 127.113 7.06132C127.105 7.58861 126.915 7.99754 126.541 8.28812C126.171 8.57581 125.659 8.71498 125.006 8.70562C124.851 8.69461 124.705 8.68079 124.567 8.66417C124.499 8.71594 124.447 8.77086 124.411 8.82894C124.375 8.88703 124.356 8.94829 124.356 9.01274C124.355 9.07719 124.38 9.13176 124.432 9.17645C124.487 9.21826 124.569 9.25166 124.677 9.27665C124.788 9.29875 124.926 9.31097 125.09 9.31333L125.924 9.32529C126.463 9.33301 126.872 9.4546 127.15 9.69005C127.431 9.92554 127.568 10.2674 127.561 10.7156C127.553 11.2897 127.307 11.7316 126.822 12.0411C126.34 12.3506 125.65 12.4989 124.754 12.4861ZM124.824 11.6125C125.143 11.6171 125.417 11.5902 125.647 11.532C125.879 11.4767 126.057 11.3943 126.182 11.2847C126.307 11.1781 126.37 11.0486 126.372 10.8963C126.374 10.7733 126.339 10.6746 126.267 10.6003C126.197 10.529 126.09 10.4777 125.944 10.4463C125.8 10.4149 125.616 10.3976 125.391 10.3944L124.696 10.3845C124.532 10.3821 124.384 10.4064 124.251 10.4572C124.122 10.5081 124.018 10.5798 123.941 10.6725C123.863 10.7681 123.823 10.8788 123.822 11.0048C123.819 11.1894 123.905 11.3356 124.079 11.4436C124.256 11.5516 124.504 11.6079 124.824 11.6125ZM125.092 7.88939C125.344 7.893 125.53 7.81802 125.649 7.66444C125.769 7.51086 125.83 7.30078 125.834 7.03421C125.838 6.73834 125.78 6.51629 125.659 6.36806C125.541 6.21694 125.361 6.13964 125.118 6.13615C124.871 6.13263 124.686 6.20468 124.561 6.35232C124.436 6.49703 124.371 6.71731 124.367 7.01318C124.363 7.27976 124.42 7.49153 124.538 7.64851C124.658 7.80553 124.843 7.88582 125.092 7.88939Z" fill="white"/>
<path d="M122.012 5.37088L121.942 10.2835L120.927 10.2689L120.747 9.6071L120.681 9.60616C120.6 9.76907 120.506 9.90543 120.399 10.0152C120.292 10.125 120.17 10.2068 120.035 10.2605C119.899 10.3143 119.745 10.3399 119.572 10.3374C119.393 10.3348 119.231 10.2988 119.086 10.2294C118.943 10.157 118.826 10.0572 118.734 9.92985L118.708 9.92948C118.716 9.99112 118.722 10.0864 118.726 10.2154C118.73 10.3415 118.732 10.4748 118.733 10.6155C118.737 10.7591 118.738 10.8851 118.737 10.9935L118.716 12.3996L117.376 12.3804L117.478 5.30591L118.818 5.32511L118.777 8.19444C118.772 8.54597 118.832 8.812 118.959 8.99254C119.085 9.17308 119.286 9.26533 119.561 9.26927C119.828 9.27309 120.038 9.21457 120.192 9.09372C120.349 8.96998 120.462 8.78847 120.53 8.54918C120.597 8.30697 120.634 8.01156 120.639 7.66296L120.672 5.35168L122.012 5.37088Z" fill="white"/>
<path d="M116.295 5.63369C116.285 6.37105 116.217 7.02842 116.092 7.60581C115.971 8.18325 115.781 8.6722 115.521 9.07265C115.265 9.47316 114.932 9.77672 114.521 9.98333C114.109 10.1899 113.612 10.2891 113.029 10.2807C112.296 10.2702 111.696 10.0762 111.231 9.69869C110.765 9.31702 110.425 8.77464 110.21 8.07154C109.995 7.36429 109.895 6.52117 109.909 5.54218C109.923 4.55487 110.037 3.71274 110.252 3.01579C110.47 2.31474 110.815 1.7801 111.287 1.41185C111.759 1.04361 112.384 0.865066 113.163 0.876228C113.892 0.886674 114.49 1.08273 114.955 1.46441C115.425 1.84198 115.769 2.38442 115.988 3.09174C116.207 3.79489 116.31 4.6422 116.295 5.63369ZM111.827 5.56967C111.817 6.26537 111.847 6.84705 111.915 7.3147C111.987 7.77825 112.114 8.12798 112.294 8.3639C112.474 8.59981 112.726 8.7201 113.051 8.72476C113.372 8.72935 113.625 8.6184 113.812 8.3919C114.003 8.1613 114.141 7.81536 114.227 7.35408C114.313 6.88863 114.361 6.30598 114.371 5.60611C114.381 4.91041 114.349 4.3287 114.277 3.86099C114.205 3.39327 114.076 3.04143 113.892 2.80545C113.712 2.56537 113.462 2.44303 113.141 2.43843C112.816 2.43378 112.56 2.54887 112.374 2.7837C112.187 3.01436 112.051 3.36241 111.965 3.82786C111.883 4.29336 111.837 4.87397 111.827 5.56967Z" fill="white"/>
<path d="M108.993 4.86035C108.985 5.38525 108.938 5.90542 108.852 6.42085C108.769 6.93635 108.629 7.42185 108.431 7.87735C108.233 8.32869 107.958 8.72893 107.608 9.07807C107.257 9.42305 106.813 9.6917 106.277 9.88403C105.741 10.0763 105.094 10.1671 104.336 10.1562C104.157 10.1536 103.946 10.1423 103.705 10.1222C103.464 10.1062 103.264 10.0825 103.106 10.0511L103.128 8.50138C103.294 8.54543 103.471 8.58129 103.658 8.60898C103.845 8.63249 104.034 8.64562 104.226 8.64837C104.988 8.65929 105.578 8.5469 105.993 8.31118C106.414 8.07553 106.71 7.74436 106.883 7.31766C107.06 6.89102 107.165 6.39668 107.198 5.83464L107.123 5.83357C106.999 6.0318 106.853 6.21096 106.684 6.37104C106.519 6.52702 106.309 6.65109 106.053 6.74327C105.798 6.83127 105.474 6.87247 105.083 6.86686C104.562 6.8594 104.11 6.74042 103.725 6.50991C103.346 6.27529 103.052 5.94192 102.846 5.50979C102.644 5.07355 102.547 4.54924 102.556 3.93686C102.566 3.27448 102.699 2.70971 102.955 2.24255C103.216 1.77128 103.582 1.41192 104.052 1.16449C104.522 0.917057 105.074 0.797876 105.707 0.806949C106.174 0.813634 106.608 0.901106 107.01 1.06937C107.412 1.23346 107.762 1.48224 108.062 1.8157C108.365 2.14922 108.599 2.56924 108.762 3.07576C108.926 3.58228 109.003 4.17714 108.993 4.86035ZM105.723 2.3572C105.348 2.35182 105.04 2.47658 104.798 2.73146C104.557 2.98634 104.433 3.38873 104.425 3.93863C104.419 4.38021 104.516 4.73161 104.716 4.99282C104.916 5.25403 105.225 5.38762 105.642 5.39359C105.929 5.39771 106.18 5.3388 106.394 5.21687C106.608 5.09077 106.775 4.93274 106.895 4.74278C107.018 4.54872 107.081 4.34962 107.084 4.14549C107.087 3.93303 107.061 3.72224 107.006 3.51311C106.951 3.30398 106.866 3.11317 106.752 2.9407C106.637 2.76823 106.494 2.62867 106.32 2.52201C106.151 2.41542 105.952 2.36048 105.723 2.3572Z" fill="white"/>
<path d="M68.7202 97.4257C73.9114 88.8815 83.2347 80.821 91.88 75.6905L79.5004 54.5L69.26 36.9712C68.0785 34.9488 65.4787 34.2601 63.4986 35.5114C49.7888 44.1757 36.2762 56.4699 27.3167 69.8457C25.9942 71.82 26.6961 74.4675 28.76 75.6453L46.4416 85.7348L68.0004 98.5L68.7202 97.4257Z" fill="#33CE19"/>
<path d="M70.5403 56.2617L69.8917 56.9514L64.5449 51.9915L65.1935 51.3017L70.5403 56.2617Z" fill="white"/>
<path d="M63.6574 55.9118C64.094 55.4474 64.5247 55.1969 64.9494 55.1604C65.3717 55.1217 65.8063 55.3096 66.253 55.724L68.813 58.0988L68.3506 58.5905L67.6756 58.2136L67.6499 58.241C67.6889 58.4732 67.7007 58.6887 67.6853 58.8875C67.6699 59.0864 67.6145 59.2822 67.5191 59.4749C67.4257 59.6654 67.2785 59.8676 67.0773 60.0816C66.8632 60.3092 66.6315 60.4736 66.3821 60.5747C66.1326 60.6757 65.8773 60.701 65.616 60.6504C65.3546 60.5954 65.0956 60.4489 64.8391 60.2109C64.4542 59.8539 64.3002 59.4361 64.377 58.9576C64.4538 58.479 64.7635 57.933 65.3059 57.3196L65.8885 56.6453L65.6754 56.4477C65.3799 56.1735 65.1094 56.0462 64.8638 56.0656C64.6204 56.0827 64.3885 56.2085 64.168 56.443C63.986 56.6365 63.8402 56.8486 63.7305 57.0793C63.6186 57.3078 63.5245 57.5402 63.4482 57.7764L62.7411 57.5295C62.8164 57.2669 62.9291 56.9943 63.0791 56.7115C63.2313 56.4265 63.4241 56.1599 63.6574 55.9118ZM66.3356 57.0729L65.8653 57.6211C65.4725 58.0708 65.2579 58.445 65.2215 58.7437C65.185 59.0379 65.2824 59.2924 65.5138 59.507C65.7154 59.6941 65.9198 59.7708 66.1272 59.7373C66.3346 59.7038 66.5314 59.588 66.7176 59.3899C67.0044 59.0849 67.154 58.7548 67.1662 58.3996C67.1783 58.04 67.0149 57.703 66.6758 57.3885L66.3356 57.0729Z" fill="white"/>
<path d="M60.0355 59.7571C60.4272 59.3405 60.8326 59.1284 61.2515 59.1207C61.6704 59.1086 62.1203 59.3257 62.6014 59.7719L65.0789 62.0702L64.44 62.7498L62.0484 60.5312C61.7506 60.2549 61.4694 60.1092 61.2049 60.094C60.9426 60.0765 60.698 60.1884 60.4711 60.4297C60.15 60.7712 60.022 61.1149 60.087 61.4608C60.1519 61.8023 60.3848 62.159 60.7857 62.5309L62.8475 64.4435L62.2054 65.1264L59.8137 62.9078C59.6144 62.7229 59.4238 62.5972 59.2418 62.5307C59.0576 62.4621 58.882 62.4505 58.7149 62.4959C58.5479 62.5412 58.3873 62.6459 58.2332 62.8098C58.0127 63.0442 57.8877 63.2799 57.8581 63.5166C57.8283 63.749 57.8831 63.9895 58.0225 64.2381C58.164 64.4845 58.3791 64.7415 58.6677 65.0093L60.6161 66.8167L59.9707 67.5031L56.184 63.9903L56.6945 63.4473L57.3099 63.8328L57.3452 63.7953C57.2853 63.599 57.2653 63.4036 57.2852 63.209C57.3074 63.0122 57.363 62.823 57.4522 62.6415C57.5391 62.4578 57.6564 62.2874 57.8041 62.1304C58.0695 61.8481 58.3447 61.658 58.6297 61.5601C58.9148 61.4623 59.2055 61.4656 59.5018 61.57L59.5436 61.5256C59.444 61.2073 59.4433 60.8956 59.5416 60.5904C59.6397 60.2807 59.8043 60.003 60.0355 59.7571Z" fill="white"/>
<path d="M55.0552 65.0532C55.1194 64.9849 55.1935 64.9152 55.2776 64.844C55.3594 64.7707 55.4328 64.7109 55.4978 64.6646L56.0729 65.3324C56.0078 65.3743 55.9364 65.4274 55.8588 65.4918C55.7832 65.5539 55.7166 65.6156 55.6588 65.6771C55.5218 65.8228 55.4187 65.9872 55.3495 66.1702C55.2804 66.3532 55.2514 66.5437 55.2626 66.7416C55.2715 66.9374 55.3248 67.1339 55.4225 67.3311C55.5179 67.5261 55.6618 67.7129 55.8542 67.8914L57.8575 69.7498L57.209 70.4396L53.4222 66.9268L53.9424 66.3736L54.7032 66.926L54.7321 66.8953C54.6675 66.6904 54.6292 66.4801 54.6174 66.2646C54.6078 66.0468 54.6372 65.8354 54.7056 65.6303C54.7738 65.4209 54.8904 65.2285 55.0552 65.0532Z" fill="white"/>
<path d="M54.4132 69.6296C54.7247 69.9186 54.9645 70.2178 55.1326 70.5271C55.3005 70.8321 55.3965 71.1406 55.4204 71.4526C55.4442 71.7603 55.3992 72.0637 55.2852 72.3628C55.1689 72.6599 54.9823 72.945 54.7254 73.2181C54.4857 73.4731 54.2217 73.6672 53.9334 73.8004C53.645 73.9293 53.3444 73.9935 53.0317 73.9932C52.7166 73.9907 52.398 73.919 52.076 73.778C51.7517 73.6348 51.4338 73.4187 51.1222 73.1297C50.7076 72.7451 50.4211 72.3472 50.2629 71.9362C50.1024 71.523 50.0696 71.1154 50.1646 70.7134C50.2594 70.3069 50.478 69.9216 50.8205 69.5573C51.1459 69.2113 51.5084 68.9786 51.908 68.8592C52.3076 68.7398 52.7214 68.7422 53.1493 68.8663C53.5773 68.9905 53.9985 69.245 54.4132 69.6296ZM51.7836 72.4263C52.0746 72.6962 52.3596 72.8924 52.6389 73.0151C52.918 73.1333 53.1854 73.1683 53.441 73.1199C53.6988 73.0692 53.9423 72.9221 54.1713 72.6785C54.396 72.4395 54.5251 72.1905 54.5584 71.9316C54.5917 71.6726 54.5383 71.4101 54.3984 71.1438C54.2561 70.8755 54.0395 70.6063 53.7486 70.3365C53.4599 70.0687 53.1783 69.8756 52.9036 69.7572C52.6289 69.6388 52.3638 69.606 52.1083 69.6588C51.855 69.7093 51.6127 69.8575 51.3815 70.1033C51.0433 70.463 50.9164 70.8397 51.0009 71.2334C51.0852 71.6228 51.3461 72.0204 51.7836 72.4263Z" fill="white"/>
<path d="M52.0435 75.934L51.2536 76.774L44.7065 75.5401L44.6808 75.5674C44.8109 75.6754 44.9547 75.7938 45.1122 75.9229C45.2674 76.0498 45.4284 76.1864 45.5954 76.3327C45.7621 76.4746 45.9291 76.621 46.0961 76.7717L48.852 79.3282L48.2484 79.9702L43.2246 75.3098L44.008 74.4766L50.5249 75.7016L50.5474 75.6777C50.4423 75.5888 50.3121 75.4786 50.1568 75.3473C50.0014 75.216 49.8381 75.0773 49.6667 74.9311C49.4952 74.7805 49.335 74.6362 49.1861 74.498L46.4096 71.9224L47.0197 71.2736L52.0435 75.934Z" fill="white"/>
<path d="M76.3452 6.6688C76.6639 6.48847 76.9733 6.41948 77.2733 6.46183C77.5718 6.50163 77.7975 6.65667 77.9504 6.92696C78.0514 7.10545 78.0857 7.28802 78.0533 7.47466C78.0234 7.65986 77.916 7.85363 77.7308 8.05597L77.7568 8.10187C78.0461 8.01226 78.2938 8.00678 78.4998 8.08542C78.7084 8.16263 78.864 8.29175 78.9664 8.47279C79.141 8.78133 79.1665 9.08832 79.0431 9.39376C78.9183 9.69665 78.6187 9.98227 78.1444 10.2506C77.9506 10.3602 77.7573 10.441 77.5645 10.4929C77.3717 10.5447 77.1672 10.5729 76.9509 10.5774L76.5376 9.84689C76.7636 9.85368 76.9788 9.84133 77.1832 9.80987C77.3875 9.7784 77.5828 9.71001 77.7689 9.6047C77.9576 9.49795 78.0758 9.38562 78.1236 9.26773C78.1739 9.14839 78.1615 9.02242 78.0865 8.88983C78.0273 8.78528 77.9293 8.71618 77.7925 8.68253C77.6582 8.64743 77.4674 8.69985 77.22 8.83978L76.7916 9.08215L76.4476 8.474L76.7995 8.27492C77.0646 8.12488 77.211 7.98488 77.2384 7.8549C77.2659 7.72493 77.25 7.60767 77.1909 7.50312C77.136 7.40623 77.0587 7.34394 76.9589 7.31626C76.8591 7.28858 76.7442 7.31152 76.6141 7.3851C76.4943 7.4529 76.3945 7.54132 76.3148 7.65036C76.2351 7.7594 76.1515 7.90603 76.0638 8.09025L75.3724 7.76951C75.4627 7.56022 75.5811 7.36196 75.7276 7.17472C75.8767 6.98603 76.0826 6.81739 76.3452 6.6688Z" fill="white"/>
<path d="M74.1568 10.9766C74.6412 10.7025 75.0778 10.6205 75.4666 10.7304C75.8564 10.8364 76.2064 11.1635 76.5165 11.7117L78.094 14.5L76.9236 15.1621L75.5106 12.6645C75.3375 12.3585 75.1546 12.1574 74.9621 12.061C74.7696 11.9646 74.5636 11.9784 74.3444 12.1025C74.0358 12.277 73.8793 12.512 73.8747 12.8074C73.8688 13.1003 73.9819 13.452 74.2142 13.8625L75.4281 16.0082L74.2616 16.6682L72.8485 14.1706C72.7331 13.9666 72.6135 13.8088 72.4897 13.6971C72.3659 13.5853 72.2374 13.5217 72.1041 13.5063C71.9708 13.4908 71.8302 13.5249 71.6823 13.6086C71.4655 13.7312 71.3257 13.8827 71.2628 14.063C71.201 14.2393 71.2032 14.4485 71.2694 14.6904C71.3367 14.9284 71.4562 15.1991 71.6278 15.5025L72.7661 17.5143L71.5995 18.1743L69.1802 13.8982L70.0714 13.394L70.5377 13.8522L70.6027 13.8154C70.6057 13.6185 70.6463 13.4373 70.7244 13.272C70.805 13.1052 70.9121 12.9554 71.0457 12.8226C71.1793 12.6898 71.3277 12.5772 71.4909 12.4849C71.8045 12.3074 72.0985 12.2084 72.373 12.1878C72.65 12.1657 72.9077 12.2286 73.1462 12.3764L73.2495 12.318C73.2529 12.0266 73.3425 11.7655 73.5183 11.5348C73.6966 11.3026 73.9094 11.1166 74.1568 10.9766Z" fill="white"/>
<path d="M67.7856 12.9502L68.8648 19.7215L67.8053 20.3209L66.7261 13.5497L67.7856 12.9502Z" fill="white"/>
<path d="M66.25 23.685C65.6533 24.0226 65.1377 24.1762 64.7033 24.146C64.2728 24.1169 63.9515 23.915 63.7394 23.5401C63.5937 23.2826 63.5521 23.0217 63.6147 22.7574C63.6772 22.4931 63.8431 22.236 64.1124 21.9861C63.9637 22.0029 63.8122 21.9792 63.6581 21.9149C63.5025 21.8481 63.3879 21.7497 63.3143 21.6196C63.222 21.4564 63.1927 21.2946 63.2264 21.1341C63.2588 20.9711 63.3346 20.7868 63.4539 20.5813C63.1747 20.6114 62.9082 20.5568 62.6545 20.4176C62.4032 20.277 62.1954 20.0614 62.0309 19.7707C61.8549 19.4596 61.7732 19.1575 61.7857 18.8643C61.7993 18.5671 61.9037 18.2875 62.0989 18.0256C62.2966 17.7623 62.5829 17.5246 62.9577 17.3125C63.0368 17.2678 63.1315 17.221 63.2418 17.172C63.3521 17.1231 63.4542 17.0805 63.5481 17.0442C63.6446 17.0064 63.7103 16.9827 63.7452 16.973L65.2369 16.1291L65.5723 16.722L65.0003 17.2728C65.1149 17.3325 65.2178 17.4072 65.309 17.497C65.4002 17.5868 65.4797 17.6916 65.5475 17.8115C65.8071 18.2704 65.8492 18.7196 65.6736 19.1589C65.4991 19.5942 65.1276 19.9727 64.5589 20.2944C64.4195 20.3632 64.2862 20.4252 64.1592 20.4802C64.1265 20.5593 64.1093 20.633 64.1075 20.7013C64.1058 20.7696 64.1208 20.8318 64.1525 20.8879C64.1842 20.944 64.2339 20.9782 64.3014 20.9905C64.3701 20.9988 64.4573 20.9864 64.5632 20.9535C64.6702 20.9165 64.7951 20.8576 64.9379 20.7768L65.6646 20.3657C66.1338 20.1002 66.5478 19.999 66.9065 20.0619C67.2678 20.1234 67.5588 20.3493 67.7796 20.7394C68.0623 21.2392 68.0725 21.745 67.8101 22.257C67.5503 22.7676 67.0302 23.2435 66.25 23.685ZM65.8691 22.8957C66.147 22.7385 66.3703 22.5768 66.5389 22.4107C66.7115 22.2458 66.8239 22.0845 66.8762 21.9271C66.9299 21.7721 66.9192 21.6284 66.8442 21.4958C66.7836 21.3887 66.7034 21.3213 66.6036 21.2936C66.5078 21.267 66.3889 21.2771 66.247 21.3237C66.1076 21.3689 65.9398 21.447 65.7434 21.5581L65.1391 21.9C64.9963 21.9808 64.8805 22.0766 64.7918 22.1874C64.7055 22.2968 64.6524 22.411 64.6322 22.5301C64.6135 22.6518 64.6352 22.7674 64.6972 22.8771C64.7881 23.0377 64.936 23.1206 65.141 23.1259C65.3484 23.1297 65.5911 23.053 65.8691 22.8957ZM64.2215 19.5462C64.4408 19.4222 64.5632 19.2637 64.5887 19.0709C64.6143 18.878 64.5614 18.6656 64.4301 18.4335C64.2844 18.176 64.1219 18.0138 63.9427 17.9469C63.7646 17.876 63.5697 17.9004 63.3581 18.0201C63.1439 18.1413 63.02 18.2972 62.9865 18.4878C62.9515 18.6759 63.0069 18.8987 63.1526 19.1563C63.2839 19.3883 63.44 19.5423 63.621 19.6183C63.8046 19.6929 64.0047 19.6689 64.2215 19.5462Z" fill="white"/>
<path d="M60.2919 18.9272L62.7112 23.2034L61.8277 23.7032L61.3386 23.2226L61.2813 23.255C61.2932 23.4368 61.2807 23.6021 61.2437 23.7509C61.2067 23.8997 61.1433 24.0315 61.0534 24.1463C60.9635 24.2612 60.8434 24.3611 60.6929 24.4462C60.5374 24.5342 60.3793 24.585 60.2186 24.5985C60.059 24.6079 59.9074 24.581 59.7638 24.5175L59.7409 24.5305C59.7788 24.5797 59.8321 24.6589 59.9006 24.7682C59.9678 24.875 60.0372 24.9889 60.109 25.1098C60.1848 25.2319 60.2494 25.3401 60.3028 25.4344L60.9952 26.6584L59.8287 27.3184L56.3447 21.1604L57.5113 20.5004L58.9243 22.998C59.0975 23.304 59.2841 23.503 59.4843 23.5951C59.6845 23.6872 59.9045 23.6654 60.1441 23.5298C60.3762 23.3985 60.5282 23.2418 60.6002 23.0597C60.6733 22.8736 60.6788 22.6601 60.6166 22.4193C60.5529 22.1759 60.4353 21.9025 60.2636 21.5991L59.1254 19.5872L60.2919 18.9272Z" fill="white"/>
<path d="M55.4886 22.0404C55.8518 22.6822 56.1251 23.2839 56.3088 23.8454C56.496 24.4048 56.5786 24.923 56.5564 25.3999C56.5378 25.8747 56.4031 26.3051 56.1524 26.6911C55.9017 27.0771 55.5225 27.4137 55.0148 27.7009C54.3766 28.062 53.7613 28.1971 53.169 28.1062C52.5746 28.0116 52.0071 27.7152 51.4667 27.2167C50.9241 26.7147 50.4118 26.0376 49.9297 25.1855C49.4435 24.326 49.1169 23.5415 48.9499 22.8318C48.7845 22.1163 48.8125 21.4806 49.034 20.9244C49.2555 20.3683 49.7053 19.8984 50.3834 19.5148C51.018 19.1558 51.6325 19.0235 52.2269 19.118C52.8229 19.2069 53.3939 19.5013 53.9401 20.0013C54.4842 20.4977 55.0004 21.1774 55.4886 22.0404ZM51.5995 24.2407C51.9422 24.8463 52.261 25.3337 52.556 25.7029C52.8527 26.0664 53.1382 26.3046 53.4126 26.4174C53.6871 26.5302 53.9657 26.5066 54.2485 26.3465C54.5278 26.1886 54.6907 25.9647 54.7374 25.675C54.7857 25.3796 54.7305 25.0112 54.5716 24.5697C54.4108 24.1246 54.158 23.5974 53.8133 22.9882C53.4707 22.3827 53.1501 21.8963 52.8514 21.5291C52.5527 21.162 52.2644 20.923 51.9863 20.8123C51.7098 20.6959 51.432 20.7166 51.1527 20.8746C50.8699 21.0346 50.7072 21.2631 50.6646 21.5601C50.6199 21.8534 50.678 22.2226 50.8389 22.6678C51.0034 23.1108 51.2569 23.6351 51.5995 24.2407Z" fill="white"/>
<path d="M43.8825 29.3966C43.624 28.9397 43.4013 28.4698 43.2142 27.9869C43.0287 27.4982 42.9075 27.0091 42.8507 26.5195C42.7919 26.0262 42.8267 25.5422 42.9554 25.0673C43.082 24.5888 43.3281 24.1312 43.6938 23.6945C44.0574 23.2543 44.5692 22.8474 45.2292 22.474C45.3851 22.3858 45.5705 22.2905 45.7854 22.1881C46.0019 22.08 46.1872 22.0014 46.3414 21.9525L47.1015 23.296C46.938 23.3454 46.7678 23.4082 46.5907 23.4845C46.4152 23.555 46.2459 23.6365 46.0827 23.7288C45.4227 24.1022 44.9709 24.4966 44.7273 24.9121C44.4873 25.3255 44.3986 25.761 44.4612 26.2186C44.5255 26.6706 44.6844 27.1503 44.938 27.6578L45.0087 27.6178C45.0097 27.3827 45.0474 27.1532 45.1217 26.9292C45.1997 26.7032 45.3267 26.4877 45.5028 26.2828C45.6768 26.0743 45.9125 25.8859 46.2098 25.7176C46.674 25.455 47.1329 25.327 47.5866 25.3336C48.0382 25.3366 48.4622 25.4725 48.8584 25.7414C49.2547 26.0102 49.6046 26.413 49.9083 26.9497C50.2324 27.5226 50.4008 28.0784 50.4135 28.6169C50.4262 29.1554 50.292 29.6502 50.011 30.1012C49.7316 30.5465 49.3145 30.926 48.7597 31.2399C48.3536 31.4697 47.9356 31.6152 47.5059 31.6764C47.0742 31.734 46.6449 31.6944 46.2181 31.5577C45.7914 31.421 45.3805 31.1771 44.9857 30.8261C44.5888 30.4715 44.2211 29.995 43.8825 29.3966ZM47.967 29.9149C48.2969 29.7282 48.5017 29.464 48.5812 29.1222C48.6607 28.7804 48.565 28.3702 48.2942 27.8916C48.0747 27.5036 47.8117 27.2503 47.5053 27.1316C47.2004 27.0073 46.8666 27.0478 46.504 27.2529C46.2574 27.3924 46.0717 27.5717 45.9467 27.7908C45.8233 28.0042 45.7591 28.2249 45.7539 28.4528C45.7468 28.677 45.7935 28.878 45.894 29.0557C45.9986 29.2406 46.1276 29.4094 46.281 29.5619C46.4343 29.7145 46.6038 29.8364 46.7894 29.9277C46.9751 30.0189 47.1679 30.0678 47.3679 30.0743C47.5714 30.0788 47.7711 30.0257 47.967 29.9149Z" fill="white"/>
<path d="M59.5107 127C59.6788 116.672 63.7333 105.957 68.5002 97.5001L46.0002 85L28.1894 74.6449C26.1555 73.4624 23.5403 74.1566 22.4598 76.2464C15.3389 90.0198 10.9117 106.387 10.123 122.722C10.0093 125.077 11.9227 127 14.2802 127H34.7555H59.5107Z" fill="#59E88A"/>
<path d="M53.3157 93.1682L53.0597 94.0797L46.0312 92.1328L46.2872 91.2213L53.3157 93.1682Z" fill="white"/>
<path d="M47.0557 96.0253C47.2281 95.4116 47.4939 94.9908 47.8533 94.7629C48.2096 94.5341 48.6814 94.501 49.2686 94.6637L52.6338 95.5959L52.4513 96.2457L51.6792 96.2215L51.669 96.2576C51.8108 96.446 51.9209 96.6321 51.9991 96.8159C52.0773 96.9997 52.1186 97.1992 52.1231 97.4144C52.1284 97.6267 52.0914 97.8742 52.012 98.157C51.9275 98.4578 51.7981 98.7105 51.6238 98.9152C51.4495 99.1198 51.2349 99.2597 50.9801 99.3351C50.7231 99.4065 50.426 99.3956 50.0887 99.3021C49.5828 99.162 49.2533 98.8616 49.1003 98.4009C48.9473 97.9403 48.9694 97.3125 49.1667 96.5177L49.3713 95.6503L49.0912 95.5727C48.7028 95.4651 48.4042 95.4764 48.1956 95.6067C47.9879 95.734 47.8405 95.9525 47.7535 96.2624C47.6817 96.5181 47.6505 96.7737 47.6599 97.0292C47.6663 97.2839 47.6902 97.5337 47.7318 97.7787L46.9912 97.8848C46.9367 97.6168 46.9105 97.3226 46.9129 97.0022C46.916 96.6789 46.9637 96.3532 47.0557 96.0253ZM49.965 95.8245L49.8015 96.5282C49.6612 97.1086 49.644 97.5399 49.7497 97.8221C49.8533 98.1005 50.0572 98.2818 50.3613 98.366C50.6263 98.4394 50.8429 98.4135 51.0112 98.2883C51.1794 98.163 51.3003 97.9695 51.3738 97.7078C51.487 97.3047 51.467 96.9425 51.3138 96.6212C51.1584 96.2961 50.8579 96.0718 50.4122 95.9483L49.965 95.8245Z" fill="white"/>
<path d="M45.6234 101.11C45.7779 100.559 46.0391 100.184 46.4067 99.9844C46.7722 99.7809 47.2711 99.7667 47.9035 99.9419L51.1603 100.844L50.9081 101.742L47.7643 100.871C47.3728 100.763 47.0564 100.763 46.815 100.871C46.5745 100.976 46.4095 101.188 46.32 101.507C46.1932 101.958 46.2386 102.323 46.456 102.6C46.6713 102.874 47.0424 103.084 47.5694 103.23L50.2796 103.98L50.0262 104.883L46.8823 104.012C46.6204 103.939 46.3934 103.915 46.2015 103.94C46.0066 103.964 45.8456 104.034 45.7185 104.152C45.5915 104.269 45.4976 104.436 45.4368 104.652C45.3497 104.962 45.3478 105.229 45.4309 105.453C45.5119 105.673 45.6716 105.862 45.9099 106.019C46.1491 106.172 46.4584 106.302 46.8378 106.407L49.3989 107.116L49.1443 108.024L44.1665 106.645L44.368 105.927L45.0913 105.986L45.1053 105.937C44.9615 105.79 44.8535 105.626 44.7813 105.443C44.71 105.258 44.6719 105.065 44.667 104.862C44.6592 104.659 44.6844 104.454 44.7427 104.246C44.8474 103.873 45.0035 103.577 45.2108 103.359C45.4181 103.141 45.6772 103.01 45.988 102.967L46.0045 102.908C45.7692 102.671 45.6246 102.394 45.5707 102.078C45.5146 101.757 45.5321 101.435 45.6234 101.11Z" fill="white"/>
<path d="M43.6579 108.109C43.6833 108.019 43.7167 107.922 43.7583 107.821C43.7969 107.718 43.8343 107.631 43.8705 107.56L44.6886 107.889C44.6502 107.956 44.6115 108.036 44.5725 108.129C44.5342 108.219 44.5037 108.304 44.4809 108.385C44.4268 108.578 44.4114 108.771 44.4347 108.966C44.458 109.161 44.5203 109.343 44.6216 109.514C44.72 109.684 44.858 109.834 45.0356 109.964C45.2102 110.094 45.424 110.193 45.677 110.263L48.3104 110.993L48.0544 111.904L43.0767 110.526L43.2819 109.794L44.2112 109.935L44.2226 109.895C44.0707 109.742 43.9397 109.573 43.8297 109.387C43.7205 109.198 43.6489 108.996 43.6148 108.783C43.5785 108.565 43.5929 108.34 43.6579 108.109Z" fill="white"/>
<path d="M45.203 112.471C45.6125 112.585 45.9632 112.74 46.255 112.938C46.5446 113.132 46.7722 113.362 46.9375 113.628C47.1008 113.89 47.201 114.181 47.2382 114.499C47.2724 114.817 47.2388 115.156 47.1374 115.517C47.0428 115.854 46.8985 116.148 46.7047 116.399C46.5087 116.646 46.2721 116.842 45.9948 116.985C45.7145 117.128 45.3991 117.211 45.0487 117.234C44.6952 117.256 44.3137 117.21 43.9042 117.097C43.3591 116.946 42.9216 116.724 42.5915 116.432C42.2584 116.138 42.0411 115.791 41.9395 115.39C41.8357 114.985 41.8514 114.542 41.9866 114.061C42.115 113.604 42.3286 113.23 42.6275 112.94C42.9264 112.65 43.2941 112.461 43.7307 112.375C44.1672 112.288 44.6579 112.32 45.203 112.471ZM44.1652 116.167C44.5476 116.273 44.8909 116.316 45.195 116.297C45.4969 116.273 45.7499 116.181 45.9541 116.021C46.1591 115.857 46.3068 115.614 46.3971 115.292C46.4858 114.976 46.4851 114.696 46.395 114.45C46.3049 114.205 46.1364 113.996 45.8894 113.824C45.6394 113.651 45.3231 113.511 44.9407 113.405C44.5613 113.3 44.2225 113.258 43.9245 113.28C43.6264 113.301 43.3764 113.394 43.1744 113.558C42.9733 113.72 42.8271 113.963 42.7358 114.288C42.6024 114.763 42.664 115.156 42.9207 115.467C43.1752 115.775 43.59 116.008 44.1652 116.167Z" fill="white"/>
<path d="M40.4844 119.408C40.6458 118.834 40.9141 118.433 41.2893 118.206C41.6654 117.976 42.1727 117.95 42.8111 118.127L46.0543 119.025L45.8021 119.923L42.6809 119.059C42.2834 118.948 41.9608 118.953 41.713 119.073C41.4623 119.191 41.2862 119.431 41.1848 119.792C41.0404 120.306 41.0911 120.709 41.3369 121.001C41.5836 121.29 41.9961 121.515 42.5743 121.675L45.1128 122.378L44.8581 123.285L39.8804 121.906L40.0819 121.189L40.8187 121.252L40.8327 121.202C40.6876 121.048 40.5791 120.874 40.5073 120.679C40.4355 120.484 40.3988 120.279 40.3974 120.065C40.3937 119.847 40.4228 119.628 40.4844 119.408Z" fill="white"/>
<path d="M39.5851 93.9452L36.7704 93.9826C36.6437 93.9831 36.504 93.9834 36.3515 93.9833C36.1999 93.9802 36.0482 93.9771 35.8965 93.974C35.7449 93.9709 35.6046 93.9677 35.4757 93.9644C35.3446 93.9573 35.2393 93.9508 35.1598 93.945L35.1497 93.9811C35.2207 94.017 35.3142 94.0656 35.43 94.1268C35.5429 94.1873 35.6665 94.2556 35.8009 94.3317C35.9332 94.404 36.0661 94.4797 36.1996 94.5589C36.334 94.635 36.4549 94.7074 36.5622 94.776L38.9274 96.2872L38.6461 97.289L33.2852 97.2922L33.5449 96.3672L36.3426 96.4077C36.5299 96.411 36.7228 96.4174 36.9214 96.427C37.1199 96.4366 37.3062 96.4493 37.4803 96.4651C37.6543 96.4809 37.8022 96.4975 37.9239 96.515L37.934 96.4789C37.8599 96.4422 37.7686 96.3975 37.6601 96.3447C37.5494 96.2881 37.4347 96.2287 37.3158 96.1666C37.1939 96.1037 37.077 96.0405 36.9649 95.977C36.8538 95.9106 36.7568 95.8513 36.6741 95.7992L34.1544 94.1966L34.4307 93.2129L37.4083 93.1671C37.5518 93.1647 37.7123 93.1654 37.8897 93.1692C38.0642 93.1721 38.2358 93.1791 38.4047 93.1902C38.5736 93.2013 38.717 93.2167 38.8348 93.2364L38.8449 93.2003C38.7459 93.1599 38.6197 93.1006 38.4664 93.0225C38.3131 92.9444 38.1475 92.858 37.9696 92.7633C37.7887 92.6678 37.6147 92.5709 37.4475 92.4728L35.0351 91.0604L35.291 90.1488L39.874 92.9163L39.5851 93.9452Z" fill="white"/>
<path d="M35.6034 98.5717C36.0129 98.6851 36.3636 98.8406 36.6554 99.0382C36.945 99.2319 37.1725 99.4619 37.3379 99.7282C37.5012 99.9907 37.6014 100.281 37.6386 100.599C37.6727 100.917 37.6391 101.256 37.5378 101.617C37.4432 101.954 37.2989 102.248 37.1051 102.499C36.9091 102.746 36.6725 102.942 36.3952 103.086C36.1149 103.228 35.7995 103.311 35.4491 103.334C35.0956 103.356 34.7141 103.311 34.3046 103.197C33.7595 103.046 33.3219 102.824 32.9919 102.532C32.6588 102.239 32.4415 101.891 32.3399 101.49C32.2361 101.086 32.2518 100.642 32.387 100.161C32.5154 99.7039 32.729 99.3302 33.0279 99.0401C33.3268 98.75 33.6945 98.5617 34.131 98.4751C34.5675 98.3885 35.0583 98.4207 35.6034 98.5717ZM34.5656 102.267C34.948 102.373 35.2913 102.417 35.5954 102.397C35.8973 102.374 36.1503 102.282 36.3545 102.121C36.5595 101.957 36.7071 101.715 36.7975 101.393C36.8862 101.077 36.8855 100.796 36.7954 100.551C36.7053 100.305 36.5368 100.096 36.2898 99.9242C36.0397 99.7512 35.7235 99.6117 35.3411 99.5058C34.9616 99.4007 34.6229 99.3587 34.3249 99.3799C34.0268 99.4011 33.7768 99.494 33.5748 99.6585C33.3736 99.82 33.2275 100.063 33.1362 100.388C33.0028 100.863 33.0644 101.257 33.3211 101.568C33.5756 101.875 33.9904 102.108 34.5656 102.267Z" fill="white"/>
<path d="M36.4475 105.153L36.1915 106.064L29.1631 104.117L29.419 103.206L36.4475 105.153Z" fill="white"/>
<path d="M30.1934 107.972C30.315 107.539 30.5127 107.194 30.7864 106.935C31.0571 106.676 31.3843 106.511 31.768 106.439C32.1518 106.367 32.5725 106.394 33.0302 106.521L33.5452 106.664L32.5973 110.039C33.1329 110.178 33.5809 110.154 33.9413 109.969C34.2987 109.782 34.5445 109.45 34.6789 108.972C34.7676 108.656 34.8164 108.366 34.8255 108.103C34.8345 107.84 34.8175 107.559 34.7744 107.262L35.5378 107.473C35.5821 107.755 35.5943 108.029 35.5746 108.296C35.5587 108.561 35.5017 108.867 35.4037 109.216C35.2686 109.698 35.0535 110.094 34.7586 110.404C34.4645 110.712 34.1009 110.914 33.6679 111.012C33.2319 111.108 32.7368 111.08 32.1827 110.926C31.6347 110.774 31.1922 110.553 30.8552 110.262C30.5153 109.97 30.2883 109.628 30.1743 109.237C30.0603 108.845 30.0666 108.424 30.1934 107.972ZM30.8967 108.172C30.7937 108.539 30.8313 108.867 31.0097 109.157C31.1851 109.445 31.4902 109.671 31.9249 109.833L32.6116 107.388C32.3368 107.315 32.0836 107.292 31.8522 107.318C31.6207 107.345 31.4222 107.428 31.2566 107.567C31.0919 107.703 30.9719 107.904 30.8967 108.172Z" fill="white"/>
<path d="M26.4951 115.393L27.0293 113.491C27.2636 112.656 27.5628 112.062 27.9267 111.709C28.2907 111.355 28.7706 111.26 29.3664 111.425C29.6209 111.496 29.8354 111.605 30.01 111.754C30.1845 111.902 30.3129 112.083 30.3951 112.296C30.4773 112.509 30.5062 112.75 30.4819 113.021L30.5268 113.033C30.6473 112.776 30.7953 112.56 30.9709 112.383C31.1465 112.206 31.3588 112.087 31.608 112.027C31.855 111.963 32.1462 111.978 32.4815 112.071C32.8827 112.182 33.1976 112.371 33.4261 112.637C33.6517 112.903 33.7891 113.229 33.8384 113.617C33.8855 114.001 33.8423 114.43 33.7087 114.906L33.0611 117.212L26.4951 115.393ZM29.5154 115.239L29.8367 114.095C29.9854 113.565 30.0014 113.175 29.8849 112.923C29.7683 112.672 29.5439 112.5 29.2116 112.408C28.8672 112.312 28.5862 112.365 28.3685 112.566C28.1477 112.766 27.9635 113.129 27.8156 113.656L27.5259 114.688L29.5154 115.239ZM30.2744 115.449L32.5424 116.077L32.894 114.825C33.046 114.284 33.0468 113.873 32.8964 113.593C32.7468 113.31 32.4923 113.118 32.133 113.019C31.9055 112.956 31.6966 112.953 31.5064 113.01C31.314 113.063 31.1429 113.189 30.993 113.39C30.8432 113.59 30.715 113.88 30.6083 114.26L30.2744 115.449Z" fill="white"/>
<path d="M18.943 48.1867C19.1003 47.856 19.3139 47.6218 19.5837 47.4842C19.8509 47.3452 20.1248 47.3425 20.4052 47.4758C20.5904 47.5639 20.7234 47.6937 20.8041 47.8651C20.886 48.0338 20.9093 48.2542 20.8741 48.5261L20.9217 48.5488C21.107 48.3092 21.3066 48.1625 21.5204 48.1085C21.7355 48.0518 21.937 48.0681 22.1249 48.1575C22.445 48.3097 22.6423 48.5463 22.7167 48.8672C22.7886 49.1869 22.7074 49.5927 22.4734 50.0848C22.3778 50.2859 22.2659 50.4631 22.1379 50.6163C22.0099 50.7695 21.8587 50.9101 21.6843 51.038L20.9263 50.6775C21.1152 50.5532 21.2842 50.4195 21.4334 50.2763C21.5826 50.1332 21.7031 49.965 21.795 49.7719C21.8881 49.5761 21.9203 49.4163 21.8917 49.2923C21.8643 49.1658 21.7818 49.0698 21.6442 49.0043C21.5357 48.9527 21.4158 48.9525 21.2845 49.0036C21.1544 49.052 21.0283 49.2045 20.9063 49.4611L20.6949 49.9056L20.0639 49.6055L20.2375 49.2404C20.3684 48.9652 20.4077 48.7666 20.3555 48.6444C20.3033 48.5223 20.223 48.4354 20.1145 48.3838C20.014 48.336 19.9149 48.3294 19.8173 48.3641C19.7197 48.3988 19.6388 48.4836 19.5746 48.6185C19.5155 48.7429 19.4846 48.8726 19.482 49.0076C19.4795 49.1426 19.4952 49.3107 19.5293 49.5118L18.7791 49.6465C18.7328 49.4234 18.7158 49.1931 18.7282 48.9556C18.7418 48.7155 18.8134 48.4592 18.943 48.1867Z" fill="white"/>
<path d="M19.6267 52.9695C19.8658 52.4668 20.176 52.1488 20.5574 52.0155C20.9373 51.8783 21.4117 51.945 21.9805 52.2155L24.8736 53.5915L24.296 54.8059L21.7046 53.5733C21.3871 53.4223 21.1218 53.3627 20.9089 53.3944C20.6959 53.4261 20.5353 53.5557 20.4271 53.7832C20.2748 54.1034 20.2817 54.3856 20.4477 54.63C20.611 54.8732 20.9057 55.0961 21.3316 55.2987L23.558 56.3576L22.9823 57.568L20.3908 56.3354C20.1792 56.2347 19.9906 56.1742 19.8251 56.1539C19.6596 56.1336 19.5178 56.1554 19.3998 56.2193C19.2818 56.2832 19.1863 56.3919 19.1134 56.5453C19.0064 56.7702 18.979 56.9745 19.0311 57.1583C19.0818 57.3381 19.2037 57.5081 19.3969 57.6681C19.5887 57.8242 19.842 57.9771 20.1568 58.1268L22.2443 59.1196L21.6686 60.33L17.2318 58.2198L17.6716 57.2951L18.3165 57.4024L18.3485 57.3349C18.2379 57.1719 18.167 57.0004 18.1359 56.8201C18.1061 56.6373 18.1077 56.4531 18.1408 56.2677C18.1738 56.0823 18.2306 55.9049 18.3111 55.7356C18.4659 55.4101 18.6497 55.1602 18.8625 54.9856C19.0765 54.8084 19.3236 54.7118 19.6037 54.6958L19.6547 54.5887C19.4901 54.3482 19.4134 54.083 19.4248 53.7932C19.4374 53.5007 19.5047 53.2261 19.6267 52.9695Z" fill="white"/>
<path d="M15.5457 58.2452L20.319 63.1676L19.7961 64.2669L15.0228 59.3445L15.5457 58.2452Z" fill="white"/>
<path d="M20.4558 67.914C20.1613 68.5331 19.8276 68.9551 19.4546 69.18C19.0855 69.4035 18.7065 69.4228 18.3176 69.2378C18.0504 69.1107 17.8665 68.921 17.7659 68.6688C17.6652 68.4165 17.6533 68.1108 17.7301 67.7515C17.618 67.8507 17.4805 67.9183 17.3174 67.9542C17.1516 67.989 17.0013 67.9742 16.8664 67.9101C16.697 67.8295 16.5801 67.7139 16.5155 67.5631C16.4483 67.4111 16.4045 67.2167 16.3841 66.98C16.1729 67.165 15.9234 67.2734 15.6357 67.3053C15.3493 67.3345 15.0553 67.2774 14.7537 67.1339C14.4309 66.9804 14.1904 66.7801 14.0322 66.5329C13.8727 66.2818 13.7975 65.993 13.8068 65.6665C13.8174 65.3374 13.9151 64.9784 14.1001 64.5895C14.1391 64.5075 14.1897 64.4147 14.2519 64.3113C14.3141 64.2079 14.3732 64.1143 14.4292 64.0306C14.4864 63.9443 14.5266 63.8872 14.5496 63.8592L15.2858 62.3115L15.9009 62.6041L15.7491 63.3835C15.8772 63.3665 16.0044 63.3686 16.1306 63.3897C16.2568 63.4108 16.3821 63.451 16.5065 63.5101C16.9827 63.7366 17.2751 64.0801 17.3838 64.5405C17.4911 64.9971 17.4044 65.5203 17.1238 66.1103C17.0492 66.2468 16.9757 66.374 16.9033 66.4921C16.922 66.5756 16.9502 66.6458 16.988 66.7027C17.0258 66.7596 17.0739 66.8019 17.1321 66.8296C17.1903 66.8573 17.2505 66.8567 17.3129 66.828C17.3738 66.7953 17.4382 66.7351 17.5059 66.6473C17.5722 66.5556 17.6406 66.4356 17.7111 66.2875L18.0697 65.5334C18.3012 65.0466 18.5819 64.7259 18.9117 64.5714C19.2428 64.4141 19.6107 64.4318 20.0155 64.6243C20.5341 64.871 20.833 65.2792 20.9124 65.849C20.993 66.4161 20.8408 67.1045 20.4558 67.914ZM19.6906 67.4868C19.8277 67.1985 19.9176 66.9379 19.9602 66.7051C20.0067 66.4709 20.0061 66.2744 19.9584 66.1154C19.9134 65.9577 19.822 65.8462 19.6845 65.7808C19.5734 65.7279 19.469 65.7188 19.3714 65.7535C19.2777 65.7868 19.1862 65.8633 19.0968 65.983C19.0087 66.1001 18.9162 66.2604 18.8193 66.4642L18.521 67.0912C18.4506 67.2393 18.4108 67.3843 18.4018 67.526C18.3941 67.665 18.4162 67.7891 18.4681 67.8982C18.5227 68.0085 18.6069 68.0907 18.7207 68.1448C18.8874 68.2241 19.0561 68.207 19.2268 68.0935C19.3988 67.9775 19.5534 67.7752 19.6906 67.4868ZM16.4177 65.6918C16.5259 65.4642 16.5351 65.2642 16.4452 65.0917C16.3553 64.9192 16.19 64.7757 15.9493 64.6612C15.682 64.5341 15.4559 64.4946 15.2707 64.5428C15.0842 64.5871 14.9387 64.7191 14.8343 64.9387C14.7286 65.1609 14.7168 65.3597 14.7989 65.535C14.8783 65.709 15.0516 65.8596 15.3188 65.9867C15.5596 66.1012 15.7759 66.1375 15.9677 66.0957C16.1608 66.0513 16.3108 65.9167 16.4177 65.6918Z" fill="white"/>
<path d="M12.8454 67.4428L17.2822 69.553L16.8462 70.4698L16.1697 70.3573L16.1414 70.4168C16.2556 70.5587 16.3403 70.7012 16.3955 70.8443C16.4508 70.9873 16.4746 71.1317 16.467 71.2773C16.4594 71.4229 16.4184 71.5737 16.3442 71.7298C16.2674 71.8912 16.1672 72.0236 16.0434 72.1269C15.9182 72.2264 15.7787 72.2914 15.6246 72.3219L15.6133 72.3457C15.6726 72.3642 15.7618 72.3985 15.8807 72.4486C15.997 72.4974 16.1192 72.5507 16.2475 72.6084C16.3796 72.6648 16.4947 72.7163 16.5926 72.7628L17.8625 73.3668L17.2868 74.5772L10.8975 71.5383L11.4732 70.3279L14.0646 71.5605C14.3821 71.7115 14.6492 71.7671 14.866 71.7275C15.0827 71.6878 15.2502 71.5437 15.3685 71.295C15.483 71.0542 15.5174 70.8386 15.4717 70.6482C15.4247 70.4539 15.3065 70.276 15.1172 70.1146C14.9253 69.952 14.672 69.7958 14.3571 69.646L12.2697 68.6532L12.8454 67.4428Z" fill="white"/>
<path d="M10.7027 72.7502C11.3686 73.067 11.9381 73.4024 12.4109 73.7565C12.8856 74.1068 13.2508 74.4835 13.5066 74.8866C13.7642 75.2859 13.9013 75.7156 13.9178 76.1756C13.9343 76.6355 13.8173 77.1289 13.5668 77.6556C13.2518 78.3178 12.8258 78.7819 12.2887 79.0478C11.7479 79.3119 11.1131 79.3952 10.3844 79.2977C9.65191 79.1985 8.84359 78.9386 7.95941 78.518C7.06772 78.0939 6.34967 77.6394 5.80526 77.1544C5.25889 76.6639 4.9166 76.1274 4.7784 75.5449C4.64021 74.9625 4.73842 74.3195 5.07306 73.6159C5.38622 72.9575 5.81321 72.4962 6.35404 72.2321C6.8929 71.9624 7.52947 71.8754 8.26374 71.9708C8.99425 72.0645 9.80724 72.3243 10.7027 72.7502ZM8.78347 76.7854C9.4118 77.0843 9.95276 77.3001 10.4064 77.4328C10.858 77.5599 11.2285 77.5908 11.518 77.5255C11.8074 77.4601 12.0219 77.2807 12.1615 76.9873C12.2993 76.6976 12.3041 76.4207 12.1759 76.1568C12.0457 75.8872 11.7888 75.6174 11.4052 75.3473C11.0178 75.0754 10.508 74.7891 9.87595 74.4885C9.24763 74.1896 8.70577 73.9757 8.25037 73.8468C7.79498 73.7179 7.42167 73.688 7.13045 73.7571C6.83725 73.8206 6.62176 73.9972 6.48397 74.2869C6.34439 74.5804 6.34246 74.8609 6.47818 75.1285C6.61014 75.3942 6.86982 75.6631 7.25721 75.935C7.64639 76.2031 8.15515 76.4866 8.78347 76.7854Z" fill="white"/>
<path d="M5.14509 78.5567C5.52509 78.7375 5.81673 78.9731 6.01999 79.2635C6.22325 79.5539 6.34887 79.8767 6.39687 80.2317C6.44665 80.5829 6.43329 80.9456 6.3568 81.3199L6.39066 81.336C6.78839 80.7131 7.23045 80.3075 7.71687 80.119C8.20507 79.9268 8.72006 79.9595 9.26185 80.2172C9.74345 80.4462 10.1179 80.7696 10.3851 81.1874C10.6542 81.6014 10.7815 82.1049 10.7671 82.6978C10.7527 83.2907 10.5621 83.9728 10.1952 84.7441C9.9787 85.1993 9.73886 85.6066 9.47572 85.9659C9.21813 86.3232 8.93177 86.6391 8.61664 86.9137L7.13236 86.2077C7.48116 85.9399 7.79476 85.6346 8.07313 85.2918C8.34775 84.9473 8.56469 84.6075 8.72395 84.2727C9.02101 83.6481 9.12136 83.1607 9.02501 82.8104C8.92668 82.4545 8.68187 82.1835 8.29058 81.9974C8.06107 81.8882 7.83957 81.8544 7.62607 81.8959C7.41258 81.9373 7.19555 82.0833 6.97498 82.3336C6.75621 82.5802 6.52424 82.9612 6.27908 83.4766L5.98113 84.1031L4.64359 83.4669L4.9469 82.8292C5.18849 82.3213 5.32488 81.9132 5.35608 81.6051C5.38531 81.2915 5.33952 81.0482 5.21871 80.8754C5.09593 80.6971 4.92731 80.5569 4.71285 80.4549C4.41938 80.3153 4.14692 80.2965 3.89548 80.3983C3.64404 80.5002 3.41811 80.7618 3.21768 81.1832C3.09242 81.4466 3.01175 81.7035 2.97569 81.9539C2.93765 82.1988 2.9245 82.4301 2.93625 82.648C2.94423 82.864 2.96017 83.0584 2.98407 83.2312L1.39813 83.4666C1.31876 83.032 1.30484 82.5617 1.35637 82.0557C1.40969 81.5459 1.57951 80.99 1.86582 80.388C2.27025 79.5377 2.76176 78.9456 3.34035 78.6118C3.91894 78.278 4.52052 78.2597 5.14509 78.5567Z" fill="white"/>
<defs>
<linearGradient id="paint0_linear_615_1382" x1="205.5" y1="44.5" x2="167" y2="88" gradientUnits="userSpaceOnUse">
<stop offset="0.592504" stop-color="#FF0000"/>
<stop offset="1" stop-color="#990000"/>
</linearGradient>
<linearGradient id="paint1_linear_615_1382" x1="150" y1="18.4999" x2="142.5" y2="83.9999" gradientUnits="userSpaceOnUse">
<stop offset="0.454145" stop-color="#FA8801"/>
<stop offset="1" stop-color="#87581A"/>
</linearGradient>
<linearGradient id="paint2_linear_615_1382" x1="94.6201" y1="18.9999" x2="107.5" y2="84.5" gradientUnits="userSpaceOnUse">
<stop offset="0.439193" stop-color="#E4C73B"/>
<stop offset="1" stop-color="#7E6E21"/>
</linearGradient>
</defs>
</svg>
