<?xml version="1.0" encoding="utf-8"?>
<!-- Generator: Adobe Illustrator 27.6.1, SVG Export Plug-In . SVG Version: 6.00 Build 0)  -->
<svg version="1.1" id="Layer_1" xmlns="http://www.w3.org/2000/svg" xmlns:xlink="http://www.w3.org/1999/xlink" x="0px" y="0px"
	 viewBox="0 0 221.5 120.2" style="enable-background:new 0 0 221.5 120.2;" xml:space="preserve">
<style type="text/css">
	.st0{fill:#7D0B1B;}
	.st1{fill:#FFFFFF;}
	.st2{fill:#DB170B;}
	.st3{fill:url(#SVGID_1_);}
	.st4{fill:url(#SVGID_00000006709984262380613620000006701418368462512027_);}
	.st5{fill:url(#SVGID_00000181797533052102198070000003138619277725610648_);}
	.st6{fill:url(#SVGID_00000073706226980995383880000010282957937219153319_);}
</style>
<g>
	<path class="st0" d="M159.5,91c4.4,8.2,7.4,18.8,7.6,28.8h42.2c2.2,0,4-1.9,3.9-4.2c-0.8-15.9-5.1-31.5-11.7-44.9
		c-1-2-3.4-2.7-5.3-1.6l-17.1,10.1L159.5,91z"/>
	<path class="st1" d="M182.3,108.7c-0.3,0.1-0.6,0.1-0.8,0c-0.2-0.1-0.5-0.3-0.6-0.5c-0.2-0.3-0.3-0.6-0.4-1
		c-0.1-0.3-0.1-0.6-0.2-0.9c0-0.3,0-0.5,0-0.7l0.7-0.2c0,0.2-0.1,0.5-0.1,0.8c0,0.3,0,0.6,0.1,0.9c0.1,0.4,0.2,0.6,0.4,0.8
		c0.2,0.1,0.3,0.2,0.5,0.1c0.1,0,0.2-0.1,0.3-0.2c0.1-0.1,0.1-0.2,0.2-0.4c0-0.2,0.1-0.5,0.1-0.8c0-0.3,0.1-0.6,0.1-0.9
		c0.1-0.2,0.2-0.5,0.3-0.6c0.1-0.2,0.3-0.3,0.6-0.3c0.4-0.1,0.7,0,1,0.2c0.3,0.3,0.5,0.7,0.7,1.2c0.1,0.3,0.1,0.6,0.1,0.8
		c0,0.3,0,0.5,0,0.8l-0.7-0.1c0-0.2,0-0.5,0-0.7c0-0.2,0-0.5-0.1-0.7c-0.1-0.3-0.2-0.5-0.3-0.6c-0.1-0.1-0.3-0.2-0.4-0.1
		c-0.1,0-0.2,0.1-0.3,0.2c-0.1,0.1-0.1,0.2-0.1,0.4c0,0.2-0.1,0.5-0.1,0.8c0,0.3-0.1,0.6-0.1,0.9c-0.1,0.2-0.2,0.5-0.3,0.6
		C182.7,108.5,182.5,108.6,182.3,108.7z"/>
	<path class="st1" d="M184.4,103.1l-4.6,1.3l-0.2-0.7l0.6-0.3l0,0c-0.2-0.1-0.4-0.1-0.5-0.3c-0.1-0.1-0.3-0.3-0.4-0.5
		c-0.1-0.2-0.2-0.4-0.2-0.6c-0.1-0.4-0.1-0.7-0.1-1c0-0.3,0.2-0.5,0.4-0.7c0.2-0.2,0.5-0.4,0.9-0.5l3-0.9l0.2,0.9l-2.9,0.8
		c-0.4,0.1-0.6,0.3-0.8,0.5c-0.1,0.2-0.2,0.5-0.1,0.8c0.1,0.3,0.2,0.6,0.4,0.7c0.2,0.2,0.4,0.2,0.7,0.3c0.3,0,0.6,0,0.9-0.1l2.4-0.7
		L184.4,103.1z"/>
	<path class="st1" d="M180.7,98.4c-0.4,0.1-0.7,0.2-1.1,0.1c-0.3,0-0.6-0.1-0.9-0.2c-0.3-0.1-0.5-0.3-0.7-0.6
		c-0.2-0.2-0.3-0.5-0.4-0.9c-0.1-0.3-0.1-0.6-0.1-0.9c0-0.3,0.1-0.6,0.3-0.8c0.2-0.3,0.4-0.5,0.6-0.7c0.3-0.2,0.6-0.3,1-0.5
		c0.5-0.1,1-0.2,1.4-0.1c0.4,0.1,0.7,0.3,1,0.5c0.3,0.3,0.5,0.7,0.6,1.1c0.1,0.4,0.1,0.9,0,1.2c-0.1,0.4-0.3,0.7-0.6,1
		C181.6,98.1,181.2,98.3,180.7,98.4z M179.7,94.9c-0.4,0.1-0.6,0.2-0.9,0.4c-0.2,0.2-0.4,0.4-0.5,0.6c-0.1,0.2-0.1,0.5,0,0.8
		c0.1,0.3,0.2,0.5,0.4,0.7c0.2,0.2,0.4,0.2,0.7,0.3c0.3,0,0.6,0,1-0.1c0.4-0.1,0.6-0.2,0.9-0.4c0.2-0.2,0.4-0.4,0.5-0.6
		c0.1-0.2,0.1-0.5,0-0.8c-0.1-0.5-0.4-0.8-0.7-0.9C180.7,94.7,180.2,94.7,179.7,94.9z"/>
	<path class="st1" d="M192,111.1c-0.2-0.6-0.1-1.1,0.2-1.6c0.3-0.5,0.9-0.8,1.6-1c0.8-0.2,1.4-0.2,1.9,0c0.5,0.2,0.8,0.7,1,1.2
		c0.1,0.2,0.1,0.5,0.1,0.7c0,0.2-0.1,0.4-0.1,0.6c-0.1,0.2-0.2,0.3-0.3,0.4l0,0.1c0.1,0,0.2-0.1,0.4-0.1c0.2-0.1,0.3-0.1,0.4-0.1
		l1.8-0.5l0.2,0.9l-6.5,1.9l-0.2-0.7l0.6-0.3l0,0c-0.2,0-0.3-0.1-0.5-0.2c-0.1-0.1-0.3-0.2-0.4-0.4
		C192.2,111.5,192.1,111.3,192,111.1z M192.7,111.1c0.1,0.5,0.3,0.8,0.7,0.9c0.3,0.1,0.7,0.1,1.2,0l0.1,0c0.5-0.2,0.9-0.4,1.2-0.6
		c0.2-0.3,0.3-0.7,0.2-1.2c-0.1-0.4-0.3-0.7-0.7-0.8c-0.4-0.1-0.8-0.1-1.3,0.1c-0.5,0.2-0.9,0.4-1.2,0.7
		C192.7,110.3,192.6,110.7,192.7,111.1z"/>
	<path class="st1" d="M195.9,106.6c0,0.1,0,0.2,0.1,0.3c0,0.1,0,0.2,0,0.3l-0.8,0.1c0-0.1,0-0.2,0-0.3c0-0.1,0-0.2,0-0.3
		c0-0.2-0.1-0.4-0.2-0.5s-0.2-0.3-0.4-0.4c-0.2-0.1-0.3-0.1-0.5-0.2c-0.2,0-0.4,0-0.7,0.1l-2.4,0.7l-0.2-0.9l4.6-1.3l0.2,0.7
		l-0.8,0.3l0,0c0.2,0.1,0.4,0.1,0.6,0.2c0.2,0.1,0.3,0.2,0.5,0.4C195.8,106.2,195.9,106.4,195.9,106.6z"/>
	<path class="st1" d="M194.5,101.1c0.2,0.6,0.1,1.1,0,1.4c-0.2,0.4-0.5,0.6-1.1,0.8l-3.1,0.9l-0.2-0.6l0.6-0.4l0,0
		c-0.2-0.1-0.4-0.2-0.5-0.3c-0.1-0.1-0.3-0.3-0.4-0.4c-0.1-0.2-0.2-0.4-0.3-0.7c-0.1-0.3-0.1-0.6-0.1-0.8c0-0.3,0.1-0.5,0.3-0.7
		c0.2-0.2,0.4-0.3,0.7-0.4c0.5-0.1,0.9,0,1.2,0.3c0.3,0.3,0.6,0.8,0.8,1.6l0.3,0.8l0.3-0.1c0.4-0.1,0.6-0.3,0.7-0.5
		c0.1-0.2,0.1-0.5,0-0.8c-0.1-0.2-0.2-0.5-0.3-0.7c-0.1-0.2-0.3-0.4-0.4-0.6l0.5-0.5c0.2,0.2,0.3,0.4,0.5,0.7
		C194.3,100.5,194.4,100.7,194.5,101.1z M192.3,102.7l-0.2-0.7c-0.2-0.5-0.4-0.9-0.6-1.1c-0.2-0.2-0.5-0.2-0.7-0.1
		c-0.2,0.1-0.4,0.2-0.5,0.4c-0.1,0.2-0.1,0.4,0,0.7c0.1,0.4,0.3,0.7,0.6,0.9c0.3,0.2,0.6,0.2,1,0.1L192.3,102.7z"/>
	<path class="st1" d="M189,99.5l-0.9-3.6l0.5-0.2l4.1,1.6l-0.6-2.4l0.7-0.2l0.9,3.4l-0.6,0.2l-4-1.5l0.7,2.5L189,99.5z"/>
	<path class="st1" d="M192,91.8c0.2,0.6,0.1,1.1,0,1.4c-0.2,0.4-0.5,0.6-1.1,0.8l-3.1,0.9l-0.2-0.6l0.6-0.4l0,0
		c-0.2-0.1-0.4-0.2-0.5-0.3c-0.1-0.1-0.3-0.3-0.4-0.4c-0.1-0.2-0.2-0.4-0.3-0.7c-0.1-0.3-0.1-0.6-0.1-0.8c0-0.3,0.1-0.5,0.3-0.7
		c0.2-0.2,0.4-0.3,0.7-0.4c0.5-0.1,0.9,0,1.2,0.3c0.3,0.3,0.6,0.8,0.8,1.6l0.3,0.8l0.3-0.1c0.4-0.1,0.6-0.3,0.7-0.5
		c0.1-0.2,0.1-0.5,0-0.8c-0.1-0.2-0.2-0.5-0.3-0.7c-0.1-0.2-0.3-0.4-0.4-0.6l0.5-0.5c0.2,0.2,0.3,0.4,0.5,0.7
		C191.8,91.2,191.9,91.4,192,91.8z M189.8,93.4l-0.2-0.7c-0.2-0.5-0.4-0.9-0.6-1.1c-0.2-0.2-0.5-0.2-0.7-0.1
		c-0.2,0.1-0.4,0.2-0.5,0.4c-0.1,0.2-0.1,0.4,0,0.7c0.1,0.4,0.3,0.7,0.6,0.9c0.3,0.2,0.6,0.2,1,0.1L189.8,93.4z"/>
	<path class="st1" d="M186.4,89.7l-0.2-0.9L189,88l-0.8-3.1l-2.8,0.8l-0.2-0.9l6.1-1.7l0.2,0.9l-2.6,0.7l0.8,3.1l2.6-0.7l0.2,0.9
		L186.4,89.7z"/>
	<path class="st1" d="M131.5,1.2c0.3,0,0.6,0.1,0.8,0.3c0.2,0.2,0.3,0.4,0.3,0.7c0,0.2-0.1,0.4-0.2,0.5C132.4,2.8,132.3,3,132,3v0.1
		c0.3,0.1,0.5,0.2,0.6,0.3c0.1,0.2,0.2,0.3,0.2,0.5c0,0.3-0.1,0.6-0.4,0.8c-0.2,0.2-0.6,0.3-1.1,0.3c-0.2,0-0.4,0-0.6-0.1
		c-0.2,0-0.4-0.1-0.5-0.2l0-0.8c0.2,0.1,0.4,0.2,0.5,0.3c0.2,0.1,0.4,0.1,0.6,0.1c0.2,0,0.3,0,0.4-0.1c0.1-0.1,0.1-0.2,0.1-0.3
		c0-0.1,0-0.2-0.1-0.3c-0.1-0.1-0.3-0.1-0.5-0.1l-0.5,0l0-0.7l0.4,0c0.3,0,0.5-0.1,0.5-0.1c0.1-0.1,0.1-0.2,0.1-0.3
		c0-0.1,0-0.2-0.1-0.3c-0.1-0.1-0.2-0.1-0.3-0.1c-0.1,0-0.2,0-0.4,0.1c-0.1,0.1-0.2,0.1-0.4,0.3l-0.4-0.6c0.2-0.1,0.4-0.2,0.6-0.3
		C131,1.3,131.2,1.2,131.5,1.2z"/>
	<path class="st1" d="M127.8,3.8c0.5,0,0.9,0.1,1.2,0.4c0.3,0.3,0.4,0.7,0.4,1.3l0,3.1l-1.2,0l0-2.8c0-0.3-0.1-0.6-0.2-0.8
		c-0.1-0.2-0.3-0.3-0.5-0.3c-0.3,0-0.6,0.1-0.7,0.4c-0.1,0.2-0.2,0.6-0.2,1l0,2.4l-1.2,0l0-2.8c0-0.2,0-0.4-0.1-0.6
		c0-0.2-0.1-0.3-0.2-0.3c-0.1-0.1-0.2-0.1-0.4-0.1c-0.2,0-0.4,0.1-0.5,0.2c-0.1,0.1-0.2,0.3-0.3,0.5c-0.1,0.2-0.1,0.5-0.1,0.9l0,2.2
		l-1.2,0l0-4.7l0.9,0l0.2,0.6l0.1,0c0.1-0.2,0.2-0.3,0.3-0.4c0.1-0.1,0.3-0.2,0.5-0.2c0.2,0,0.3-0.1,0.5-0.1c0.3,0,0.6,0.1,0.8,0.2
		c0.2,0.1,0.4,0.3,0.5,0.5l0.1,0c0.1-0.2,0.3-0.4,0.6-0.5C127.3,3.9,127.5,3.8,127.8,3.8z"/>
	<path class="st1" d="M121.8,2.5l-2.2,6.2l-1.1,0l2.2-6.2L121.8,2.5z"/>
	<path class="st1" d="M115.7,10.8c-0.6,0-1.1-0.1-1.5-0.3c-0.3-0.2-0.5-0.5-0.5-1c0-0.3,0.1-0.5,0.3-0.7c0.2-0.2,0.4-0.3,0.7-0.4
		c-0.1-0.1-0.2-0.1-0.3-0.3c-0.1-0.1-0.1-0.3-0.1-0.4c0-0.2,0-0.3,0.1-0.5c0.1-0.1,0.2-0.2,0.4-0.4c-0.2-0.1-0.4-0.3-0.6-0.5
		c-0.1-0.2-0.2-0.5-0.2-0.8c0-0.3,0.1-0.6,0.2-0.9c0.1-0.2,0.4-0.4,0.6-0.6c0.3-0.1,0.6-0.2,1-0.2c0.1,0,0.2,0,0.3,0
		c0.1,0,0.2,0,0.3,0c0.1,0,0.2,0,0.2,0l1.6,0l0,0.7l-0.7,0.2c0.1,0.1,0.1,0.2,0.1,0.3s0,0.2,0.1,0.4c0,0.5-0.2,0.9-0.5,1.2
		c-0.3,0.3-0.8,0.4-1.4,0.4c-0.1,0-0.3,0-0.4,0c-0.1,0.1-0.1,0.1-0.1,0.2c0,0.1,0,0.1,0,0.2c0,0.1,0,0.1,0.1,0.2
		c0.1,0,0.1,0.1,0.2,0.1c0.1,0,0.2,0,0.4,0l0.8,0c0.5,0,0.9,0.1,1.1,0.3c0.3,0.2,0.4,0.5,0.4,1c0,0.6-0.2,1-0.7,1.3
		C117.2,10.7,116.5,10.8,115.7,10.8z M115.7,10c0.3,0,0.5,0,0.8-0.1c0.2-0.1,0.4-0.1,0.5-0.2c0.1-0.1,0.2-0.2,0.2-0.4
		c0-0.1,0-0.2-0.1-0.3c-0.1-0.1-0.2-0.1-0.3-0.1c-0.1,0-0.3,0-0.5,0l-0.6,0c-0.2,0-0.3,0-0.4,0.1c-0.1,0.1-0.2,0.1-0.3,0.2
		c-0.1,0.1-0.1,0.2-0.1,0.3c0,0.2,0.1,0.3,0.2,0.4C115.2,9.9,115.5,10,115.7,10z M115.9,6.4c0.2,0,0.4-0.1,0.5-0.2
		c0.1-0.2,0.2-0.4,0.2-0.6c0-0.3-0.1-0.5-0.2-0.6c-0.1-0.1-0.3-0.2-0.5-0.2c-0.2,0-0.4,0.1-0.5,0.2c-0.1,0.1-0.2,0.4-0.2,0.6
		c0,0.3,0.1,0.5,0.2,0.6C115.5,6.3,115.7,6.4,115.9,6.4z"/>
	<path class="st1" d="M113,4l0,4.7l-0.9,0l-0.2-0.6l-0.1,0c-0.1,0.2-0.2,0.3-0.3,0.4c-0.1,0.1-0.2,0.2-0.3,0.2
		c-0.1,0.1-0.3,0.1-0.4,0.1c-0.2,0-0.3,0-0.5-0.1c-0.1-0.1-0.2-0.2-0.3-0.3l0,0c0,0.1,0,0.2,0,0.3c0,0.1,0,0.3,0,0.4
		c0,0.1,0,0.3,0,0.4l0,1.4l-1.2,0l0-6.8l1.2,0l0,2.8c0,0.3,0.1,0.6,0.2,0.8c0.1,0.2,0.3,0.3,0.6,0.3c0.2,0,0.4-0.1,0.6-0.2
		c0.1-0.1,0.2-0.3,0.3-0.5c0.1-0.2,0.1-0.5,0.1-0.9l0-2.2L113,4z"/>
	<path class="st1" d="M107.7,4.5c0,0.7,0,1.3-0.1,1.9c-0.1,0.6-0.3,1-0.5,1.4c-0.2,0.4-0.5,0.7-0.9,0.9c-0.4,0.2-0.8,0.3-1.4,0.3
		c-0.7,0-1.2-0.2-1.6-0.5c-0.4-0.4-0.8-0.9-1-1.5c-0.2-0.7-0.3-1.5-0.3-2.4c0-0.9,0.1-1.7,0.3-2.4c0.2-0.7,0.5-1.2,0.9-1.5
		c0.4-0.4,1-0.5,1.7-0.5c0.7,0,1.2,0.2,1.6,0.5c0.4,0.3,0.8,0.9,1,1.5C107.6,2.7,107.7,3.5,107.7,4.5z M103.7,4.5
		c0,0.7,0,1.2,0.1,1.7c0.1,0.4,0.2,0.8,0.4,1c0.2,0.2,0.4,0.3,0.7,0.3c0.3,0,0.5-0.1,0.7-0.3c0.2-0.2,0.3-0.6,0.4-1
		c0.1-0.4,0.1-1,0.1-1.7c0-0.7,0-1.2-0.1-1.7c-0.1-0.4-0.2-0.8-0.4-1c-0.2-0.2-0.4-0.3-0.7-0.3c-0.3,0-0.5,0.1-0.7,0.3
		c-0.2,0.2-0.3,0.6-0.4,1C103.7,3.3,103.7,3.8,103.7,4.5z"/>
	<path class="st1" d="M98.3,3.3c0.5,0,1,0.1,1.4,0.3c0.4,0.2,0.7,0.5,0.9,0.9c0.2,0.4,0.3,0.9,0.4,1.4c0,0.6-0.1,1.2-0.4,1.6
		c-0.2,0.5-0.6,0.8-1.1,1C99,8.8,98.4,9,97.7,9c-0.4,0-0.8,0-1.2-0.1c-0.4-0.1-0.7-0.2-1-0.3l0-1.6c0.3,0.2,0.6,0.3,1,0.4
		c0.4,0.1,0.8,0.2,1.1,0.2c0.3,0,0.6-0.1,0.9-0.1c0.2-0.1,0.4-0.3,0.5-0.5c0.1-0.2,0.2-0.5,0.2-0.8c0-0.4-0.1-0.7-0.4-1
		c-0.3-0.2-0.7-0.3-1.3-0.3c-0.2,0-0.4,0-0.7,0.1c-0.2,0-0.4,0.1-0.6,0.1l-0.7-0.4l0.3-4.4l4.5,0l0,1.6l-3,0l-0.1,1.7
		c0.1,0,0.3-0.1,0.4-0.1C97.8,3.3,98.1,3.3,98.3,3.3z"/>
	<path class="st1" d="M94.5,8.9l-5.8,0l0-1.3l2.1-2.2c0.4-0.5,0.8-0.8,1-1.1C92,4,92.2,3.7,92.3,3.5c0.1-0.2,0.2-0.5,0.2-0.8
		c0-0.3-0.1-0.6-0.3-0.8c-0.2-0.2-0.4-0.3-0.7-0.3c-0.3,0-0.6,0.1-0.9,0.2c-0.3,0.2-0.6,0.4-0.9,0.7l-1-1.2c0.2-0.2,0.5-0.4,0.8-0.6
		c0.3-0.2,0.6-0.3,0.9-0.5c0.4-0.1,0.8-0.2,1.3-0.2c0.5,0,1,0.1,1.4,0.3c0.4,0.2,0.7,0.5,0.9,0.8c0.2,0.4,0.3,0.7,0.3,1.2
		c0,0.5-0.1,0.9-0.3,1.3c-0.2,0.4-0.4,0.8-0.8,1.2c-0.3,0.4-0.8,0.8-1.2,1.3l-1.1,1.1l0,0.1l3.6,0L94.5,8.9z"/>
	<path class="st2" d="M159.5,91.1l20.1-12l16.6-9.9c1.9-1.2,2.6-3.8,1.4-5.7c-8.2-13.1-19.7-25.1-32.4-33.6
		c-1.8-1.2-4.2-0.6-5.3,1.3l-1.2,2l-8.4,15.2l-11.4,20.5c8.1,5,15.5,12.9,20.3,21.3L159.5,91.1z"/>
	<path class="st1" d="M169.3,71.4c-0.2,0.2-0.5,0.4-0.7,0.4c-0.3,0-0.5,0-0.8-0.2c-0.3-0.1-0.6-0.4-0.8-0.7
		c-0.2-0.3-0.4-0.5-0.5-0.7c-0.1-0.2-0.2-0.4-0.3-0.7l0.6-0.6c0.1,0.2,0.2,0.5,0.3,0.7c0.1,0.3,0.3,0.5,0.5,0.7
		c0.3,0.3,0.5,0.4,0.7,0.5c0.2,0,0.4,0,0.5-0.2c0.1-0.1,0.1-0.2,0.2-0.3c0-0.1,0-0.3,0-0.5c0-0.2-0.1-0.4-0.3-0.8
		c-0.1-0.3-0.2-0.6-0.3-0.8c-0.1-0.2-0.1-0.5,0-0.7c0-0.2,0.2-0.4,0.4-0.6c0.3-0.3,0.6-0.4,1-0.3c0.4,0.1,0.8,0.3,1.2,0.8
		c0.2,0.2,0.4,0.4,0.5,0.7c0.1,0.2,0.2,0.5,0.3,0.7l-0.7,0.3c-0.1-0.2-0.2-0.4-0.3-0.6c-0.1-0.2-0.2-0.4-0.4-0.6
		c-0.2-0.2-0.4-0.4-0.6-0.4c-0.2,0-0.3,0-0.4,0.1c-0.1,0.1-0.1,0.2-0.2,0.3c0,0.1,0,0.3,0.1,0.5c0.1,0.2,0.2,0.4,0.3,0.7
		c0.1,0.3,0.2,0.6,0.3,0.8c0.1,0.2,0.1,0.5,0,0.7C169.6,71,169.5,71.2,169.3,71.4z"/>
	<path class="st1" d="M168.6,65.4l-3.5,3.4l-0.5-0.5l0.4-0.6l0,0c-0.2,0-0.4,0-0.6,0c-0.2,0-0.4-0.1-0.5-0.2s-0.3-0.2-0.5-0.4
		c-0.3-0.3-0.4-0.6-0.5-0.8c-0.1-0.3-0.1-0.6,0-0.8c0.1-0.3,0.3-0.6,0.6-0.9l2.3-2.2l0.6,0.7l-2.2,2.2c-0.3,0.3-0.4,0.5-0.5,0.8
		c0,0.3,0.1,0.5,0.3,0.8c0.2,0.3,0.5,0.4,0.7,0.5c0.2,0.1,0.5,0,0.7-0.1c0.2-0.1,0.5-0.3,0.8-0.6l1.8-1.8L168.6,65.4z"/>
	<path class="st1" d="M163.2,63.2c-0.3,0.3-0.6,0.5-0.9,0.6c-0.3,0.1-0.6,0.2-0.9,0.2c-0.3,0-0.6-0.1-0.8-0.2
		c-0.3-0.1-0.5-0.3-0.8-0.6c-0.2-0.2-0.4-0.5-0.5-0.8c-0.1-0.3-0.1-0.6-0.1-0.9c0-0.3,0.1-0.6,0.3-0.9c0.2-0.3,0.4-0.6,0.7-0.9
		c0.4-0.4,0.8-0.6,1.2-0.8c0.4-0.1,0.8-0.1,1.1,0c0.4,0.1,0.7,0.3,1,0.7c0.3,0.3,0.5,0.7,0.6,1.1c0.1,0.4,0.1,0.8-0.1,1.2
		C163.8,62.4,163.6,62.8,163.2,63.2z M160.7,60.5c-0.3,0.3-0.5,0.5-0.6,0.8c-0.1,0.3-0.2,0.5-0.1,0.8c0,0.2,0.2,0.5,0.4,0.7
		c0.2,0.2,0.4,0.4,0.7,0.4c0.2,0,0.5,0,0.7-0.1c0.3-0.1,0.5-0.3,0.8-0.6c0.3-0.3,0.5-0.5,0.6-0.8c0.1-0.3,0.2-0.5,0.1-0.8
		c0-0.2-0.2-0.5-0.4-0.7c-0.3-0.3-0.7-0.5-1-0.4C161.5,59.9,161.1,60.1,160.7,60.5z"/>
	<path class="st1" d="M184.4,67.2c0.1,0.1,0.1,0.1,0.2,0.2c0.1,0.1,0.1,0.2,0.2,0.2l-0.7,0.5c0-0.1-0.1-0.1-0.1-0.2
		c-0.1-0.1-0.1-0.1-0.2-0.2c-0.1-0.1-0.3-0.2-0.4-0.3c-0.2-0.1-0.3-0.1-0.5-0.1c-0.2,0-0.4,0-0.6,0.1c-0.2,0.1-0.4,0.2-0.5,0.4
		l-1.8,1.8l-0.6-0.7l3.5-3.4l0.5,0.5l-0.6,0.7l0,0c0.2-0.1,0.4-0.1,0.6-0.1c0.2,0,0.4,0,0.6,0.1C184.1,66.9,184.2,67,184.4,67.2z"/>
	<path class="st1" d="M180.6,63c0.3,0.3,0.5,0.6,0.5,1c0.1,0.4,0.1,0.7-0.1,1.1c-0.1,0.4-0.3,0.7-0.7,1l-0.4,0.4l-2.2-2.4
		c-0.4,0.4-0.6,0.8-0.6,1.1c0,0.4,0.1,0.8,0.4,1.1c0.2,0.2,0.4,0.4,0.6,0.5c0.2,0.1,0.4,0.3,0.7,0.4l-0.5,0.5
		c-0.2-0.1-0.5-0.2-0.7-0.4c-0.2-0.1-0.4-0.3-0.7-0.6c-0.3-0.3-0.5-0.7-0.6-1.1c-0.1-0.4-0.1-0.8,0-1.2c0.1-0.4,0.4-0.8,0.8-1.2
		c0.4-0.4,0.8-0.6,1.2-0.8c0.4-0.1,0.8-0.2,1.1-0.1C180,62.5,180.3,62.7,180.6,63z M180.1,63.5c-0.2-0.3-0.5-0.4-0.8-0.4
		c-0.3,0-0.6,0.1-1,0.4l1.6,1.8c0.2-0.2,0.3-0.4,0.4-0.6c0.1-0.2,0.1-0.4,0.1-0.6C180.4,63.9,180.3,63.7,180.1,63.5z"/>
	<path class="st1" d="M171.8,64c-0.4-0.5-0.7-0.9-0.8-1.4c-0.1-0.4,0.1-0.8,0.4-1.1c0.2-0.2,0.5-0.3,0.7-0.3c0.3,0,0.6,0.1,0.8,0.3
		c0-0.1-0.1-0.3,0-0.4c0-0.2,0.1-0.3,0.2-0.4c0.1-0.1,0.3-0.2,0.4-0.2c0.2,0,0.4,0,0.6,0.1c-0.1-0.3-0.1-0.5,0-0.8
		c0.1-0.3,0.2-0.6,0.5-0.8c0.2-0.2,0.5-0.4,0.8-0.5c0.3-0.1,0.6,0,0.8,0.1c0.3,0.1,0.6,0.3,0.8,0.6c0.1,0.1,0.1,0.1,0.2,0.2
		c0.1,0.1,0.1,0.1,0.2,0.2c0,0.1,0.1,0.1,0.1,0.2l1.1,1.2l-0.4,0.4l-0.7-0.5c0,0.1-0.1,0.3-0.1,0.4c-0.1,0.1-0.2,0.3-0.3,0.4
		c-0.4,0.3-0.7,0.5-1.2,0.5c-0.4,0-0.9-0.3-1.3-0.7c-0.1-0.1-0.2-0.2-0.3-0.3c-0.1,0-0.3-0.1-0.4,0c-0.1,0-0.2,0.1-0.3,0.1
		c-0.1,0.1-0.1,0.1-0.1,0.2c0,0.1,0,0.2,0.1,0.3c0.1,0.1,0.1,0.2,0.2,0.3l0.6,0.6c0.4,0.4,0.6,0.8,0.6,1.1c0,0.4-0.1,0.7-0.4,1
		c-0.4,0.4-0.8,0.5-1.4,0.4C172.9,65,172.4,64.6,171.8,64z M172.3,63.6c0.3,0.3,0.5,0.5,0.7,0.6c0.2,0.1,0.4,0.2,0.6,0.2
		c0.2,0,0.4-0.1,0.5-0.2c0.1-0.1,0.2-0.3,0.2-0.4c0-0.1,0-0.3-0.1-0.4c-0.1-0.1-0.2-0.3-0.4-0.5l-0.5-0.6c-0.1-0.2-0.3-0.3-0.4-0.3
		c-0.2-0.1-0.3-0.1-0.4-0.1c-0.1,0-0.3,0.1-0.4,0.2c-0.2,0.2-0.2,0.4-0.2,0.6C171.8,63,172,63.3,172.3,63.6z M175.1,61
		c0.2,0.2,0.4,0.4,0.7,0.4c0.2,0,0.5-0.1,0.7-0.3c0.2-0.2,0.4-0.5,0.4-0.7c0-0.2-0.1-0.5-0.3-0.7c-0.2-0.2-0.4-0.3-0.7-0.3
		c-0.2,0-0.5,0.1-0.7,0.4c-0.2,0.2-0.3,0.5-0.4,0.7C174.8,60.5,174.9,60.8,175.1,61z"/>
	<path class="st1" d="M173.7,55.6c0.4,0.4,0.6,0.8,0.6,1.3c0,0.4-0.2,0.9-0.7,1.3l-2.3,2.2l-0.6-0.6l2.2-2.2
		c0.3-0.3,0.4-0.5,0.4-0.8c0-0.3-0.1-0.5-0.3-0.8c-0.3-0.4-0.7-0.5-1-0.5c-0.3,0.1-0.7,0.3-1.1,0.7l-1.8,1.7l-0.6-0.7l3.5-3.4
		l0.5,0.5l-0.4,0.6l0,0c0.2,0,0.4,0,0.6,0c0.2,0,0.4,0.1,0.5,0.2C173.4,55.3,173.6,55.4,173.7,55.6z"/>
	<path class="st1" d="M169.9,51.4c0.4,0.4,0.6,0.9,0.6,1.3c0,0.4-0.2,0.8-0.6,1.2l-2.3,2.3l-0.4-0.5l0.4-0.6l0,0c-0.2,0-0.4,0-0.6,0
		c-0.2,0-0.4-0.1-0.5-0.2c-0.2-0.1-0.4-0.3-0.5-0.5c-0.2-0.2-0.3-0.4-0.4-0.7c-0.1-0.2-0.1-0.5,0-0.7c0.1-0.2,0.2-0.5,0.4-0.7
		c0.4-0.3,0.7-0.5,1.2-0.4c0.4,0.1,0.9,0.4,1.5,1l0.6,0.6l0.2-0.2c0.3-0.3,0.4-0.5,0.4-0.8c0-0.2-0.1-0.5-0.3-0.7
		c-0.2-0.2-0.4-0.3-0.6-0.5c-0.2-0.1-0.4-0.2-0.6-0.3l0.3-0.7c0.2,0.1,0.5,0.2,0.7,0.4C169.4,50.9,169.6,51.1,169.9,51.4z
		 M168.6,53.9l-0.5-0.5c-0.4-0.4-0.7-0.6-1-0.7c-0.3-0.1-0.5,0-0.7,0.2c-0.2,0.2-0.3,0.4-0.2,0.6c0,0.2,0.1,0.4,0.3,0.6
		c0.3,0.3,0.6,0.5,0.9,0.5c0.3,0,0.7-0.1,1-0.4L168.6,53.9z"/>
	<path class="st1" d="M166.5,50.2c-0.5,0.5-1,0.8-1.6,1c-0.5,0.1-1.1,0.1-1.6-0.1c-0.5-0.2-1-0.6-1.5-1.1l-1.2-1.3l4.6-4.5l1.3,1.5
		c0.4,0.5,0.8,1,0.9,1.5c0.2,0.5,0.2,1,0,1.6C167.3,49.2,167,49.7,166.5,50.2z M165.8,49.5c0.4-0.4,0.7-0.8,0.8-1.2
		c0.1-0.4,0.1-0.8,0-1.1c-0.1-0.4-0.3-0.8-0.7-1.1l-0.7-0.7l-3.5,3.5l0.6,0.6c0.6,0.6,1.1,0.9,1.7,0.9
		C164.7,50.4,165.3,50.1,165.8,49.5z"/>
	<path class="st1" d="M221.3,82.5c0.2,0.3,0.2,0.6,0.2,0.9c0,0.3-0.2,0.5-0.4,0.7c-0.2,0.1-0.3,0.1-0.5,0.1c-0.2,0-0.4-0.1-0.5-0.3
		l0,0c0.1,0.3,0.1,0.5,0,0.7c-0.1,0.2-0.2,0.4-0.4,0.5c-0.3,0.2-0.6,0.2-0.9,0.1c-0.3-0.1-0.5-0.4-0.8-0.9c-0.1-0.2-0.2-0.4-0.2-0.6
		c0-0.2-0.1-0.4-0.1-0.6l0.7-0.4c0,0.2,0,0.4,0,0.6c0,0.2,0.1,0.4,0.2,0.6c0.1,0.2,0.2,0.3,0.3,0.3c0.1,0,0.2,0,0.3,0
		c0.1-0.1,0.2-0.2,0.2-0.3c0-0.1,0-0.3-0.1-0.6l-0.2-0.4l0.6-0.3l0.2,0.3c0.1,0.3,0.3,0.4,0.4,0.4s0.2,0,0.3,0
		c0.1-0.1,0.1-0.1,0.2-0.2c0-0.1,0-0.2-0.1-0.3c-0.1-0.1-0.1-0.2-0.2-0.3c-0.1-0.1-0.2-0.2-0.4-0.2l0.3-0.7c0.2,0.1,0.4,0.2,0.6,0.3
		C221,82,221.1,82.2,221.3,82.5z"/>
	<path class="st1" d="M217.3,80.4c0.3,0.5,0.3,0.9,0.2,1.3c-0.1,0.4-0.4,0.7-0.9,1l-2.6,1.5l-0.6-1.1l2.3-1.4
		c0.3-0.2,0.5-0.3,0.6-0.5c0.1-0.2,0.1-0.4,0-0.6c-0.2-0.3-0.4-0.4-0.7-0.5c-0.3,0-0.6,0.1-1,0.3l-2,1.2l-0.6-1.1l2.3-1.4
		c0.2-0.1,0.3-0.2,0.4-0.3c0.1-0.1,0.2-0.2,0.2-0.4c0-0.1,0-0.3-0.1-0.4c-0.1-0.2-0.3-0.3-0.4-0.4c-0.2-0.1-0.4-0.1-0.6,0
		c-0.2,0.1-0.5,0.2-0.8,0.3l-1.9,1.1l-0.6-1.1l3.9-2.3l0.5,0.9l-0.4,0.5l0,0.1c0.2,0,0.3,0,0.5,0.1c0.2,0.1,0.3,0.2,0.4,0.3
		c0.1,0.1,0.2,0.3,0.3,0.4c0.2,0.3,0.3,0.6,0.3,0.9c0,0.3,0,0.5-0.2,0.7l0.1,0.1c0.3,0,0.5,0.1,0.7,0.3
		C217,79.9,217.1,80.1,217.3,80.4z"/>
	<path class="st1" d="M215.4,74.2l-6.3,1.1l-0.6-1l6.3-1.1L215.4,74.2z"/>
	<path class="st1" d="M205.5,72.8c-0.3-0.6-0.5-1.1-0.4-1.5c0-0.4,0.2-0.7,0.6-0.9c0.2-0.1,0.5-0.2,0.7-0.1c0.2,0.1,0.5,0.2,0.7,0.5
		c0-0.1,0-0.3,0.1-0.4c0.1-0.2,0.2-0.3,0.3-0.3c0.2-0.1,0.3-0.1,0.4-0.1c0.2,0,0.3,0.1,0.5,0.2c0-0.3,0-0.5,0.1-0.8
		c0.1-0.2,0.3-0.4,0.6-0.6c0.3-0.2,0.6-0.3,0.8-0.2c0.3,0,0.5,0.1,0.8,0.3c0.2,0.2,0.5,0.5,0.7,0.8c0,0.1,0.1,0.2,0.1,0.3
		c0,0.1,0.1,0.2,0.1,0.3c0,0.1,0.1,0.2,0.1,0.2l0.8,1.4l-0.5,0.3l-0.5-0.5c-0.1,0.1-0.1,0.2-0.2,0.3c-0.1,0.1-0.2,0.2-0.3,0.2
		c-0.4,0.3-0.8,0.3-1.2,0.1c-0.4-0.2-0.8-0.5-1.1-1.1c-0.1-0.1-0.1-0.3-0.2-0.4c-0.1,0-0.1,0-0.2,0c-0.1,0-0.1,0-0.2,0
		c-0.1,0-0.1,0.1-0.1,0.1c0,0.1,0,0.2,0,0.3c0,0.1,0.1,0.2,0.2,0.4l0.4,0.7c0.2,0.5,0.3,0.9,0.3,1.2c-0.1,0.3-0.3,0.6-0.6,0.8
		c-0.5,0.3-0.9,0.3-1.4,0C206.3,74,205.9,73.5,205.5,72.8z M206.2,72.4c0.1,0.3,0.3,0.5,0.5,0.6c0.2,0.2,0.3,0.3,0.4,0.3
		c0.1,0.1,0.3,0,0.4,0c0.1-0.1,0.2-0.1,0.2-0.2c0-0.1,0-0.2,0-0.3c0-0.1-0.1-0.3-0.2-0.5l-0.3-0.6c-0.1-0.1-0.2-0.2-0.3-0.3
		c-0.1-0.1-0.2-0.1-0.3-0.2c-0.1,0-0.2,0-0.3,0.1c-0.1,0.1-0.2,0.2-0.2,0.4C206,71.9,206.1,72.1,206.2,72.4z M209.3,70.8
		c0.1,0.2,0.3,0.3,0.4,0.4c0.2,0,0.4,0,0.6-0.2c0.2-0.1,0.4-0.3,0.4-0.5c0.1-0.2,0-0.4-0.1-0.6c-0.1-0.2-0.3-0.3-0.4-0.4
		c-0.2,0-0.4,0-0.6,0.2c-0.2,0.1-0.4,0.3-0.4,0.5C209.2,70.4,209.2,70.6,209.3,70.8z"/>
	<path class="st1" d="M209.9,67l-3.9,2.3l-0.5-0.9l0.4-0.5l0-0.1c-0.2,0-0.3,0-0.5,0c-0.1,0-0.3-0.1-0.4-0.2
		c-0.1-0.1-0.2-0.2-0.3-0.3c-0.1-0.1-0.1-0.3-0.1-0.5c0-0.2,0-0.3,0.1-0.4l0,0c0,0-0.1,0.1-0.2,0.2c-0.1,0.1-0.2,0.1-0.3,0.2
		c-0.1,0.1-0.2,0.1-0.3,0.2l-1.1,0.7l-0.6-1.1l5.7-3.4l0.6,1.1l-2.3,1.4c-0.3,0.2-0.5,0.3-0.6,0.5c-0.1,0.2-0.1,0.4,0.1,0.6
		c0.1,0.2,0.3,0.4,0.4,0.4c0.2,0.1,0.4,0.1,0.6,0c0.2-0.1,0.5-0.2,0.8-0.3l1.9-1.1L209.9,67z"/>
	<path class="st1" d="M206.9,62.4c-0.6,0.3-1.1,0.6-1.6,0.8c-0.5,0.2-1,0.3-1.4,0.2c-0.4,0-0.8-0.1-1.2-0.4
		c-0.4-0.2-0.7-0.6-0.9-1.1c-0.3-0.6-0.5-1.2-0.4-1.8c0.1-0.6,0.4-1.1,0.8-1.6c0.5-0.5,1.1-1,1.8-1.5c0.8-0.5,1.5-0.8,2.1-0.9
		c0.7-0.2,1.2-0.1,1.7,0.1c0.5,0.2,0.9,0.6,1.3,1.3c0.3,0.6,0.5,1.2,0.4,1.7c-0.1,0.6-0.3,1.1-0.8,1.6
		C208.3,61.5,207.7,62,206.9,62.4z M204.9,58.7c-0.5,0.3-1,0.6-1.3,0.9c-0.3,0.3-0.5,0.6-0.6,0.8c-0.1,0.3-0.1,0.5,0.1,0.8
		c0.1,0.3,0.3,0.4,0.6,0.5c0.3,0,0.6,0,1-0.2c0.4-0.2,0.9-0.4,1.4-0.7c0.6-0.3,1-0.6,1.3-0.9c0.3-0.3,0.5-0.6,0.6-0.8
		c0.1-0.3,0.1-0.5-0.1-0.8c-0.1-0.3-0.4-0.4-0.6-0.5c-0.3,0-0.6,0-1,0.2C205.9,58.2,205.4,58.4,204.9,58.7z"/>
	<path class="st1" d="M205.5,55c-0.3,0.2-0.7,0.3-1,0.3c-0.3,0-0.6-0.1-0.9-0.2c-0.3-0.2-0.6-0.4-0.8-0.6l0,0
		c0.3,0.6,0.3,1.2,0.2,1.7c-0.1,0.5-0.4,0.9-0.9,1.2c-0.4,0.3-0.9,0.4-1.3,0.3c-0.4,0-0.9-0.2-1.3-0.5c-0.4-0.3-0.8-0.9-1.2-1.6
		c-0.2-0.4-0.4-0.8-0.5-1.2c-0.1-0.4-0.2-0.8-0.3-1.2l1.3-0.8c0,0.4,0.1,0.8,0.2,1.2c0.1,0.4,0.3,0.8,0.4,1.1c0.3,0.6,0.6,0.9,0.9,1
		c0.3,0.1,0.6,0.1,1-0.1c0.2-0.1,0.3-0.3,0.4-0.5c0.1-0.2,0.1-0.4,0-0.7c-0.1-0.3-0.2-0.7-0.5-1.2l-0.3-0.6l1.2-0.7l0.3,0.6
		c0.3,0.5,0.5,0.8,0.7,1c0.2,0.2,0.4,0.3,0.6,0.3c0.2,0,0.4-0.1,0.6-0.2c0.3-0.2,0.4-0.4,0.5-0.6c0.1-0.3,0-0.6-0.2-1
		c-0.1-0.2-0.3-0.4-0.4-0.6c-0.2-0.2-0.3-0.3-0.5-0.4c-0.2-0.1-0.3-0.2-0.5-0.3l0.6-1.4c0.4,0.2,0.7,0.4,1.1,0.7
		c0.4,0.3,0.7,0.8,1,1.3c0.4,0.8,0.6,1.5,0.6,2.1C206.3,54.2,206,54.6,205.5,55z"/>
	<path class="st1" d="M198.3,51.8l-0.5-0.9l-1.5,0.9l-0.9-1.6l1.5-0.9l-1.8-3.2l1.1-0.6l6.5,0.5l0.8,1.5l-4.5,2.7l0.5,0.9
		L198.3,51.8z M198.1,48.7l1.2-0.7c0.1-0.1,0.3-0.1,0.4-0.2c0.2-0.1,0.3-0.2,0.5-0.3c0.2-0.1,0.3-0.2,0.4-0.2
		c0.1-0.1,0.2-0.1,0.3-0.1l0,0c-0.2,0-0.3,0-0.5,0c-0.2,0-0.3,0-0.5,0l-2.8-0.2L198.1,48.7z"/>
	
		<linearGradient id="SVGID_1_" gradientUnits="userSpaceOnUse" x1="137.601" y1="104.2817" x2="126.2427" y2="57.0528" gradientTransform="matrix(1 0 0 -1 0 120.3478)">
		<stop  offset="0.5738" style="stop-color:#E55400"/>
		<stop  offset="1" style="stop-color:#7F2F00"/>
	</linearGradient>
	<path class="st3" d="M111.5,62.1c9.6,0.2,19.3,2.4,27.1,6.8l11.3-20l9.1-16.5c1-1.9,0.4-4.3-1.5-5.3c-12.6-6.6-27-10.7-42-11.5
		c-2.2-0.1-3.9,1.7-3.9,3.9v18.8V62.1z"/>
	<path class="st1" d="M137.7,41.3l-0.4,1.9c0,0.2-0.1,0.3-0.1,0.4c0,0.1-0.1,0.3-0.1,0.4l0.1,0c0.1-0.1,0.3-0.3,0.5-0.3
		c0.2-0.1,0.4-0.1,0.5-0.1c0.2,0,0.4,0,0.6,0c0.4,0.1,0.7,0.2,0.9,0.4c0.2,0.2,0.4,0.4,0.5,0.7c0.1,0.3,0.1,0.6,0,1.1l-0.7,3.2
		l-0.8-0.2l0.6-3.1c0.1-0.4,0.1-0.7-0.1-0.9c-0.1-0.2-0.4-0.4-0.7-0.5c-0.3-0.1-0.6-0.1-0.8,0c-0.2,0.1-0.4,0.3-0.5,0.5
		c-0.1,0.2-0.2,0.6-0.3,0.9l-0.5,2.5l-0.9-0.2l1.4-6.9L137.7,41.3z"/>
	<path class="st1" d="M131.6,49.4c-0.6-0.1-1.1-0.4-1.4-0.7c-0.3-0.3-0.4-0.7-0.3-1.1c0.1-0.3,0.2-0.5,0.4-0.7
		c0.2-0.2,0.5-0.3,0.9-0.3c-0.1-0.1-0.2-0.2-0.3-0.3c-0.1-0.1-0.1-0.3,0-0.4c0-0.2,0.1-0.3,0.2-0.4c0.1-0.1,0.3-0.2,0.5-0.3
		c-0.2-0.2-0.4-0.4-0.5-0.7c-0.1-0.3-0.1-0.6,0-0.9c0.1-0.4,0.2-0.6,0.4-0.9c0.2-0.2,0.4-0.4,0.7-0.4c0.3-0.1,0.6-0.1,1,0
		c0.1,0,0.2,0,0.3,0.1c0.1,0,0.2,0.1,0.3,0.1c0.1,0,0.1,0.1,0.2,0.1l1.6,0.4l-0.1,0.5l-0.9-0.1c0.1,0.1,0.1,0.3,0.1,0.4
		c0,0.2,0,0.3,0,0.5c-0.1,0.5-0.3,0.9-0.7,1.1c-0.4,0.2-0.9,0.3-1.4,0.1c-0.1,0-0.3-0.1-0.4-0.1c-0.1,0-0.2,0.1-0.3,0.2
		c-0.1,0.1-0.1,0.2-0.2,0.3c0,0.1,0,0.2,0,0.2c0,0.1,0.1,0.1,0.2,0.2c0.1,0,0.2,0.1,0.4,0.1l0.8,0.2c0.5,0.1,0.9,0.3,1.1,0.6
		c0.2,0.3,0.3,0.6,0.2,1.1c-0.1,0.5-0.4,0.9-0.9,1.1C133,49.6,132.4,49.6,131.6,49.4z M131.7,48.8c0.4,0.1,0.7,0.1,0.9,0.1
		c0.3,0,0.5-0.1,0.6-0.2c0.2-0.1,0.3-0.3,0.3-0.5c0-0.2,0-0.3,0-0.4c-0.1-0.1-0.2-0.2-0.3-0.3c-0.2-0.1-0.3-0.1-0.6-0.2l-0.8-0.2
		c-0.2,0-0.4,0-0.5,0c-0.2,0-0.3,0.1-0.4,0.2c-0.1,0.1-0.2,0.2-0.2,0.4c-0.1,0.2,0,0.5,0.2,0.6C131.1,48.6,131.4,48.7,131.7,48.8z
		 M132.7,45c0.3,0.1,0.6,0,0.8-0.1c0.2-0.1,0.3-0.4,0.4-0.7c0.1-0.3,0-0.6-0.1-0.8c-0.1-0.2-0.3-0.3-0.6-0.4c-0.3-0.1-0.6,0-0.8,0.1
		c-0.2,0.1-0.3,0.4-0.4,0.7c-0.1,0.3,0,0.6,0.1,0.8C132.2,44.8,132.4,44.9,132.7,45z"/>
	<path class="st1" d="M130.2,41.8l-1,4.9l-0.9-0.2l1-4.9L130.2,41.8z M130.2,39.8c0.1,0,0.2,0.1,0.3,0.2c0.1,0.1,0.1,0.2,0.1,0.4
		c0,0.2-0.1,0.3-0.2,0.4c-0.1,0.1-0.2,0.1-0.4,0c-0.1,0-0.2-0.1-0.3-0.2c-0.1-0.1-0.1-0.3-0.1-0.4c0-0.2,0.1-0.3,0.2-0.4
		C129.9,39.8,130.1,39.8,130.2,39.8z"/>
	<path class="st1" d="M126.8,46.1l-0.9-0.2l0.6-3l-3.1-0.7l-0.6,3L122,45l1.3-6.5l0.9,0.2l-0.6,2.7l3.1,0.7l0.6-2.7l0.9,0.2
		L126.8,46.1z"/>
	<path class="st1" d="M138.5,32.8l0.9,0.2l0.4,3c0,0.2,0,0.3,0.1,0.5c0,0.1,0,0.3,0,0.4c0,0.1,0,0.3,0,0.4l0,0
		c0.1-0.1,0.2-0.3,0.3-0.5c0.1-0.2,0.2-0.4,0.3-0.6l1.5-2.6l0.9,0.2l-3.2,5.1c-0.2,0.3-0.4,0.5-0.6,0.7c-0.2,0.2-0.4,0.3-0.7,0.4
		c-0.2,0.1-0.5,0.1-0.8,0c-0.1,0-0.3-0.1-0.4-0.1c-0.1,0-0.2-0.1-0.3-0.1l0.1-0.7c0.1,0,0.1,0.1,0.2,0.1c0.1,0,0.2,0.1,0.3,0.1
		c0.2,0,0.3,0,0.5,0c0.1,0,0.3-0.1,0.4-0.2c0.1-0.1,0.2-0.2,0.3-0.4l0.3-0.5L138.5,32.8z"/>
	<path class="st1" d="M137.9,32.5c0.1,0,0.2,0,0.3,0.1c0.1,0,0.2,0.1,0.2,0.1l-0.3,0.8c-0.1,0-0.1-0.1-0.2-0.1
		c-0.1,0-0.2-0.1-0.2-0.1c-0.2,0-0.4,0-0.5,0c-0.2,0-0.3,0.1-0.5,0.2c-0.2,0.1-0.3,0.2-0.4,0.4c-0.1,0.2-0.2,0.4-0.2,0.6l-0.5,2.6
		l-0.9-0.2l1-4.9l0.7,0.2l-0.1,0.9l0,0c0.1-0.2,0.3-0.3,0.4-0.4c0.2-0.1,0.4-0.2,0.5-0.2C137.5,32.5,137.7,32.5,137.9,32.5z"/>
	<path class="st1" d="M132.5,31.3c0.4,0.1,0.7,0.3,1,0.5c0.3,0.2,0.4,0.5,0.5,0.9c0.1,0.4,0.1,0.8,0,1.2l-0.1,0.5l-3.2-0.7
		c-0.1,0.5-0.1,1,0.1,1.3c0.2,0.3,0.5,0.5,1,0.6c0.3,0.1,0.6,0.1,0.8,0.1c0.2,0,0.5,0,0.8-0.1l-0.2,0.7c-0.3,0.1-0.5,0.1-0.8,0.1
		c-0.2,0-0.5,0-0.9-0.1c-0.5-0.1-0.8-0.3-1.1-0.5c-0.3-0.3-0.5-0.6-0.6-1c-0.1-0.4-0.1-0.9,0-1.4c0.1-0.5,0.3-1,0.5-1.3
		c0.3-0.3,0.6-0.6,0.9-0.7C131.7,31.3,132.1,31.2,132.5,31.3z M132.4,32c-0.3-0.1-0.6,0-0.9,0.2c-0.3,0.2-0.5,0.5-0.6,0.9l2.3,0.5
		c0.1-0.3,0.1-0.5,0-0.7c0-0.2-0.1-0.4-0.3-0.6C132.8,32.2,132.6,32.1,132.4,32z"/>
	<path class="st1" d="M130.3,29.3l-3.5,6l-0.9-0.2l-0.9-6.9l0.9,0.2l0.5,4.5c0,0.2,0,0.3,0,0.5c0,0.2,0,0.3,0,0.5c0,0.2,0,0.3,0,0.5
		c0.1-0.1,0.1-0.3,0.2-0.4c0.1-0.2,0.1-0.3,0.2-0.5c0.1-0.2,0.2-0.3,0.2-0.4l2.2-3.8L130.3,29.3z"/>
	<path class="st1" d="M186.7,30.2c0.3,0.2,0.5,0.4,0.6,0.7c0.1,0.3,0.1,0.5-0.1,0.8c-0.1,0.2-0.2,0.3-0.4,0.3
		c-0.2,0.1-0.4,0.1-0.6,0l0,0c0.2,0.2,0.3,0.4,0.3,0.6c0,0.2,0,0.4-0.1,0.6c-0.2,0.3-0.4,0.5-0.7,0.5c-0.3,0-0.7-0.1-1.1-0.4
		c-0.2-0.1-0.3-0.2-0.5-0.4c-0.1-0.1-0.2-0.3-0.3-0.5l0.4-0.7c0.1,0.2,0.2,0.4,0.3,0.5c0.1,0.2,0.3,0.3,0.4,0.4
		c0.2,0.1,0.3,0.2,0.4,0.1c0.1,0,0.2-0.1,0.3-0.2c0.1-0.1,0.1-0.2,0-0.3c0-0.1-0.2-0.3-0.4-0.4l-0.4-0.3l0.3-0.6l0.3,0.2
		c0.2,0.2,0.4,0.2,0.5,0.2c0.1,0,0.2-0.1,0.3-0.2c0.1-0.1,0.1-0.2,0.1-0.3c0-0.1-0.1-0.2-0.2-0.3c-0.1-0.1-0.2-0.1-0.3-0.1
		c-0.1,0-0.3,0-0.5,0l0-0.7c0.2,0,0.4,0,0.6,0C186.3,30,186.5,30.1,186.7,30.2z"/>
	<path class="st1" d="M182.3,30.3c0.4,0.3,0.7,0.6,0.8,1c0.1,0.4,0,0.8-0.3,1.3l-1.6,2.6l-1.1-0.7l1.4-2.3c0.2-0.3,0.3-0.5,0.3-0.7
		c0-0.2-0.1-0.4-0.3-0.5c-0.3-0.2-0.5-0.2-0.8-0.1c-0.2,0.1-0.5,0.4-0.7,0.8l-1.2,2l-1-0.7l1.4-2.3c0.1-0.2,0.2-0.4,0.2-0.5
		c0-0.2,0-0.3,0-0.4c0-0.1-0.1-0.2-0.3-0.3c-0.2-0.1-0.4-0.2-0.6-0.2c-0.2,0-0.3,0.1-0.5,0.3c-0.2,0.2-0.3,0.4-0.5,0.7l-1.1,1.9
		l-1-0.7l2.4-4l0.8,0.5l-0.2,0.6l0.1,0c0.2-0.1,0.3-0.1,0.5-0.1c0.2,0,0.3,0,0.5,0.1c0.2,0.1,0.3,0.1,0.5,0.2
		c0.3,0.2,0.5,0.4,0.6,0.6c0.1,0.2,0.2,0.5,0.2,0.7l0.1,0.1c0.2-0.1,0.5-0.2,0.8-0.1C181.8,30.1,182,30.2,182.3,30.3z"/>
	<path class="st1" d="M177.9,25.8l-5.1,4l-1-0.6l5.1-4L177.9,25.8z"/>
	<path class="st1" d="M168.5,29.4c-0.5-0.4-0.9-0.7-1.1-1.1c-0.2-0.4-0.1-0.7,0.1-1.1c0.1-0.2,0.3-0.4,0.6-0.5
		c0.2-0.1,0.5,0,0.8,0.1c-0.1-0.1-0.1-0.3-0.1-0.4c0-0.2,0-0.3,0.1-0.4c0.1-0.2,0.2-0.3,0.4-0.3c0.1,0,0.3-0.1,0.6-0.1
		c-0.1-0.2-0.2-0.5-0.2-0.8c0-0.3,0.1-0.6,0.3-0.8c0.2-0.3,0.4-0.5,0.6-0.6c0.2-0.1,0.5-0.2,0.8-0.1c0.3,0,0.6,0.2,1,0.4
		c0.1,0,0.1,0.1,0.2,0.2c0.1,0.1,0.2,0.1,0.2,0.2c0.1,0.1,0.1,0.1,0.1,0.1l1.3,0.9l-0.3,0.6l-0.7-0.2c0,0.1,0,0.2,0,0.4
		c0,0.1-0.1,0.2-0.2,0.3c-0.3,0.4-0.6,0.7-1,0.7c-0.4,0-0.9-0.1-1.4-0.4c-0.1-0.1-0.2-0.2-0.3-0.3c-0.1,0-0.1,0-0.2,0.1
		c-0.1,0-0.1,0.1-0.1,0.1c0,0.1,0,0.1,0,0.2c0,0.1,0.1,0.1,0.1,0.2c0.1,0.1,0.2,0.2,0.3,0.2l0.7,0.4c0.4,0.3,0.7,0.6,0.8,0.9
		c0.1,0.3,0,0.7-0.2,1.1c-0.3,0.5-0.7,0.7-1.2,0.7C169.8,30.1,169.2,29.9,168.5,29.4z M168.9,28.7c0.2,0.2,0.5,0.3,0.7,0.3
		c0.2,0.1,0.4,0.1,0.5,0.1c0.1,0,0.3-0.1,0.3-0.2c0.1-0.1,0.1-0.2,0.1-0.3c0-0.1-0.1-0.2-0.2-0.3c-0.1-0.1-0.2-0.2-0.4-0.3l-0.5-0.4
		c-0.1-0.1-0.3-0.1-0.4-0.2c-0.1,0-0.2,0-0.3,0c-0.1,0-0.2,0.1-0.3,0.2c-0.1,0.2-0.1,0.3,0,0.5C168.5,28.4,168.7,28.5,168.9,28.7z
		 M170.9,25.8c0.2,0.1,0.4,0.2,0.5,0.1c0.2-0.1,0.3-0.2,0.5-0.4c0.1-0.2,0.2-0.5,0.2-0.6c0-0.2-0.1-0.3-0.3-0.5
		c-0.2-0.1-0.4-0.2-0.5-0.1c-0.2,0.1-0.3,0.2-0.5,0.4c-0.1,0.2-0.2,0.4-0.2,0.6C170.6,25.5,170.8,25.7,170.9,25.8z"/>
	<path class="st1" d="M169.7,22.2l-2.4,4l-0.8-0.5l0.2-0.6l-0.1,0c-0.1,0.1-0.3,0.2-0.4,0.2c-0.1,0-0.3,0-0.4,0
		c-0.1,0-0.3-0.1-0.4-0.2c-0.1-0.1-0.3-0.2-0.3-0.3c-0.1-0.1-0.1-0.3-0.1-0.4l0,0c0,0.1-0.1,0.1-0.1,0.2c-0.1,0.1-0.1,0.2-0.2,0.3
		c-0.1,0.1-0.1,0.2-0.2,0.3l-0.7,1.1l-1-0.7l3.5-5.8l1,0.7l-1.4,2.3c-0.2,0.3-0.3,0.5-0.2,0.7c0,0.2,0.1,0.4,0.3,0.5
		c0.2,0.1,0.4,0.2,0.6,0.2c0.2,0,0.4-0.1,0.5-0.3c0.2-0.2,0.3-0.4,0.5-0.7l1.1-1.9L169.7,22.2z"/>
	<path class="st1" d="M165.1,19.5c-0.4,0.6-0.7,1.1-1.1,1.5c-0.4,0.4-0.7,0.7-1.1,0.9c-0.4,0.2-0.8,0.3-1.2,0.2
		c-0.4,0-0.9-0.2-1.3-0.5c-0.6-0.4-0.9-0.8-1.1-1.4c-0.2-0.5-0.2-1.1,0-1.8c0.2-0.7,0.5-1.4,1-2.2c0.5-0.8,1-1.4,1.5-1.9
		c0.5-0.5,1-0.7,1.6-0.8c0.5-0.1,1.1,0.1,1.7,0.5c0.6,0.4,0.9,0.8,1.1,1.4c0.2,0.5,0.2,1.1,0,1.8C165.9,18,165.6,18.8,165.1,19.5z
		 M161.6,17.3c-0.3,0.6-0.6,1-0.8,1.5c-0.2,0.4-0.2,0.8-0.2,1c0,0.3,0.2,0.5,0.4,0.7c0.2,0.2,0.5,0.2,0.7,0.1
		c0.3-0.1,0.5-0.3,0.8-0.6c0.3-0.3,0.6-0.8,0.9-1.3c0.3-0.6,0.6-1,0.8-1.5c0.2-0.4,0.2-0.8,0.2-1c0-0.3-0.2-0.5-0.4-0.7
		c-0.2-0.2-0.5-0.2-0.8-0.1c-0.3,0.1-0.5,0.3-0.8,0.6C162.3,16.3,162,16.7,161.6,17.3z"/>
	<path class="st1" d="M157.7,13.3c0.4,0.3,0.8,0.6,1,1c0.2,0.4,0.3,0.8,0.3,1.3c0,0.5-0.2,0.9-0.5,1.4c-0.3,0.5-0.7,0.9-1.1,1.2
		c-0.4,0.2-0.9,0.3-1.5,0.3c-0.5-0.1-1.1-0.3-1.7-0.7c-0.4-0.2-0.7-0.5-1-0.8c-0.3-0.3-0.5-0.6-0.7-0.9l0.8-1.3
		c0.2,0.3,0.4,0.6,0.7,0.9c0.3,0.3,0.6,0.6,0.9,0.8c0.3,0.2,0.6,0.3,0.8,0.4c0.3,0,0.5,0,0.7-0.1c0.2-0.1,0.4-0.3,0.6-0.6
		c0.2-0.4,0.3-0.7,0.2-1.1c-0.1-0.3-0.4-0.7-0.9-1c-0.2-0.1-0.4-0.2-0.6-0.3c-0.2-0.1-0.4-0.2-0.6-0.2l-0.4-0.7l2.5-3.6l3.8,2.5
		l-0.8,1.3l-2.5-1.7l-1,1.4c0.1,0,0.3,0.1,0.4,0.2C157.3,13,157.5,13.1,157.7,13.3z"/>
	<path class="st1" d="M154.8,9.9c-0.2,0.3-0.5,0.6-0.7,0.7c-0.3,0.2-0.6,0.2-0.9,0.2c-0.3,0-0.6,0-1-0.2l0,0c0.5,0.4,0.8,0.9,1,1.4
		c0.1,0.5,0,1-0.3,1.4c-0.3,0.4-0.6,0.7-1,0.9c-0.4,0.2-0.9,0.3-1.4,0.2c-0.5-0.1-1.1-0.3-1.8-0.8c-0.4-0.3-0.7-0.5-1-0.8
		c-0.3-0.3-0.5-0.6-0.8-0.9l0.8-1.3c0.2,0.4,0.4,0.7,0.7,1c0.3,0.3,0.6,0.5,0.8,0.7c0.5,0.4,1,0.5,1.3,0.5c0.3-0.1,0.6-0.3,0.8-0.6
		c0.1-0.2,0.2-0.4,0.2-0.6c0-0.2-0.1-0.4-0.3-0.7c-0.2-0.2-0.5-0.5-1-0.8l-0.5-0.4l0.7-1.2l0.5,0.4c0.4,0.3,0.8,0.5,1.1,0.5
		c0.3,0.1,0.5,0,0.7,0c0.2-0.1,0.3-0.2,0.4-0.4c0.2-0.3,0.2-0.5,0.1-0.8c-0.1-0.2-0.3-0.5-0.6-0.7c-0.2-0.1-0.4-0.3-0.7-0.3
		c-0.2-0.1-0.4-0.1-0.6-0.1c-0.2,0-0.4,0-0.5,0l0-1.5c0.4,0,0.8,0,1.3,0.1c0.5,0.1,0.9,0.3,1.5,0.7c0.7,0.5,1.2,1,1.4,1.6
		C155.2,8.8,155.1,9.4,154.8,9.9z"/>
	
		<linearGradient id="SVGID_00000002366982711478333740000006836522132794921398_" gradientUnits="userSpaceOnUse" x1="84.5328" y1="102.9534" x2="92.097" y2="49.697" gradientTransform="matrix(1 0 0 -1 0 120.3478)">
		<stop  offset="0.5485" style="stop-color:#F7D014"/>
		<stop  offset="1" style="stop-color:#917A0C"/>
	</linearGradient>
	<path style="fill:url(#SVGID_00000002366982711478333740000006836522132794921398_);" d="M81.2,70.5c8-4.4,20.5-8.3,30.2-8.4
		c0,0,0-13.1,0-22c0-5.9,0-14.1,0-18.9c0-2.2-1.8-4-4-3.9C92,18,75.4,22.3,62.3,28.9c-2,1-2.6,3.5-1.5,5.4l9.5,16.4L81.2,70.5z"/>
	<path class="st1" d="M94.8,33.9l0.5,1.9c0,0.1,0.1,0.3,0.1,0.4c0,0.1,0.1,0.3,0.1,0.4l0,0c0.1-0.2,0.1-0.4,0.2-0.5
		c0.1-0.2,0.3-0.3,0.4-0.4c0.2-0.1,0.4-0.2,0.6-0.3c0.4-0.1,0.7-0.1,1-0.1c0.3,0,0.5,0.2,0.7,0.4c0.2,0.2,0.4,0.5,0.5,0.9l0.9,3.1
		L98.9,40l-0.8-3c-0.1-0.4-0.3-0.6-0.5-0.8c-0.2-0.1-0.5-0.2-0.8-0.1c-0.3,0.1-0.6,0.2-0.7,0.4c-0.2,0.2-0.2,0.4-0.2,0.7
		c0,0.3,0,0.6,0.1,1l0.7,2.4l-0.8,0.3l-1.9-6.8L94.8,33.9z"/>
	<path class="st1" d="M93,44.1c-0.6,0.2-1.1,0.2-1.5,0.1c-0.4-0.1-0.6-0.4-0.8-0.8c-0.1-0.3-0.1-0.6,0.1-0.8
		c0.1-0.3,0.3-0.5,0.6-0.6c-0.1,0-0.3-0.1-0.4-0.2c-0.1-0.1-0.2-0.2-0.2-0.4c0-0.2,0-0.3,0-0.5c0.1-0.2,0.2-0.3,0.3-0.5
		c-0.3,0-0.5-0.1-0.7-0.3c-0.2-0.2-0.4-0.5-0.5-0.8c-0.1-0.3-0.1-0.7,0-0.9c0.1-0.3,0.2-0.5,0.5-0.7c0.2-0.2,0.5-0.4,0.9-0.5
		c0.1,0,0.2,0,0.3-0.1c0.1,0,0.2,0,0.3,0c0.1,0,0.2,0,0.2,0l1.6-0.5l0.1,0.5L93,37.3c0.1,0.1,0.2,0.2,0.3,0.3
		c0.1,0.1,0.2,0.3,0.2,0.5c0.1,0.5,0.1,0.9-0.2,1.3c-0.2,0.4-0.6,0.6-1.2,0.8c-0.1,0-0.3,0.1-0.4,0.1c-0.1,0.1-0.2,0.2-0.2,0.3
		c0,0.1,0,0.2,0,0.3c0,0.1,0.1,0.1,0.1,0.2c0.1,0,0.2,0.1,0.3,0c0.1,0,0.2,0,0.4-0.1l0.8-0.2c0.5-0.2,0.9-0.2,1.2,0
		c0.3,0.1,0.6,0.4,0.7,0.8c0.1,0.5,0.1,1-0.3,1.4C94.4,43.5,93.8,43.8,93,44.1z M92.9,43.4c0.4-0.1,0.6-0.2,0.9-0.4
		c0.2-0.1,0.4-0.3,0.5-0.5c0.1-0.2,0.1-0.4,0-0.5c0-0.2-0.1-0.3-0.2-0.4c-0.1-0.1-0.2-0.1-0.4-0.1c-0.2,0-0.4,0.1-0.6,0.1l-0.8,0.2
		c-0.2,0.1-0.4,0.1-0.5,0.2c-0.1,0.1-0.2,0.2-0.3,0.4c0,0.1,0,0.3,0,0.5c0.1,0.2,0.2,0.4,0.4,0.5C92.2,43.6,92.5,43.5,92.9,43.4z
		 M92,39.6c0.3-0.1,0.5-0.2,0.6-0.5c0.1-0.2,0.1-0.5,0-0.8c-0.1-0.3-0.2-0.6-0.4-0.7c-0.2-0.1-0.5-0.1-0.8,0
		c-0.3,0.1-0.5,0.2-0.6,0.5c-0.1,0.2-0.1,0.5,0,0.8c0.1,0.3,0.2,0.5,0.4,0.6C91.5,39.7,91.7,39.7,92,39.6z"/>
	<path class="st1" d="M88.4,38l1.3,4.8L88.9,43l-1.3-4.8L88.4,38z M87.5,36.3c0.1,0,0.3,0,0.4,0c0.1,0.1,0.2,0.2,0.3,0.4
		c0.1,0.2,0,0.3,0,0.4c-0.1,0.1-0.2,0.2-0.3,0.2c-0.1,0-0.3,0-0.4,0c-0.1-0.1-0.2-0.2-0.2-0.4c-0.1-0.2,0-0.3,0-0.4
		C87.2,36.4,87.3,36.3,87.5,36.3z"/>
	<path class="st1" d="M87.3,43.5l-0.9,0.3l-0.8-2.9l-3,0.9l0.8,2.9l-0.9,0.3l-1.8-6.3l0.9-0.3l0.7,2.6l3-0.9l-0.7-2.6l0.9-0.3
		L87.3,43.5z"/>
	
		<linearGradient id="SVGID_00000147194571170791287430000005263654302819737265_" gradientUnits="userSpaceOnUse" x1="39.3382" y1="72.2395" x2="69.381" y2="29.0529" gradientTransform="matrix(1 0 0 -1 0 120.3478)">
		<stop  offset="0" style="stop-color:#33CE19"/>
		<stop  offset="0.7679" style="stop-color:#1A680D"/>
	</linearGradient>
	<path style="fill:url(#SVGID_00000147194571170791287430000005263654302819737265_);" d="M61.2,92.1c4.7-8,12.4-16.8,20.3-21.6
		L71.1,51.7l-9.3-16.5c-1.1-1.9-3.4-2.6-5.3-1.4C44,42,31.6,53.6,23.5,66.2c-1.2,1.9-0.6,4.4,1.3,5.5l16.1,9.5l19.7,12L61.2,92.1z"
		/>
	<path class="st1" d="M64.3,51.3L63.7,52l-4.9-4.8l0.6-0.7L64.3,51.3z"/>
	<path class="st1" d="M57.9,51c0.4-0.4,0.8-0.7,1.2-0.7c0.4,0,0.8,0.1,1.2,0.5l2.4,2.3l-0.4,0.5l-0.6-0.4l0,0c0,0.2,0,0.4,0,0.6
		c0,0.2-0.1,0.4-0.2,0.6c-0.1,0.2-0.2,0.4-0.4,0.6c-0.2,0.2-0.4,0.4-0.6,0.5c-0.2,0.1-0.5,0.1-0.7,0.1c-0.2-0.1-0.5-0.2-0.7-0.4
		c-0.4-0.3-0.5-0.7-0.4-1.2c0.1-0.5,0.4-1,0.9-1.6l0.5-0.7l-0.2-0.2c-0.3-0.3-0.5-0.4-0.8-0.4c-0.2,0-0.4,0.1-0.6,0.4
		c-0.2,0.2-0.3,0.4-0.4,0.6c-0.1,0.2-0.2,0.4-0.3,0.7L57,52.5c0.1-0.3,0.2-0.5,0.3-0.8C57.5,51.5,57.7,51.2,57.9,51z M60.4,52.1
		l-0.4,0.5c-0.4,0.4-0.6,0.8-0.6,1.1c0,0.3,0.1,0.5,0.3,0.7c0.2,0.2,0.4,0.3,0.6,0.2c0.2,0,0.4-0.1,0.5-0.3c0.3-0.3,0.4-0.6,0.4-1
		c0-0.3-0.1-0.7-0.5-1L60.4,52.1z"/>
	<path class="st1" d="M54.5,54.7c0.4-0.4,0.7-0.6,1.1-0.6c0.4,0,0.8,0.2,1.2,0.6l2.3,2.2l-0.6,0.7l-2.2-2.1
		c-0.3-0.3-0.5-0.4-0.8-0.4c-0.2,0-0.5,0.1-0.7,0.3c-0.3,0.3-0.4,0.7-0.4,1c0.1,0.3,0.3,0.7,0.6,1l1.9,1.8l-0.6,0.7l-2.2-2.1
		c-0.2-0.2-0.4-0.3-0.5-0.4c-0.2-0.1-0.3-0.1-0.5,0c-0.2,0-0.3,0.1-0.4,0.3c-0.2,0.2-0.3,0.5-0.3,0.7c0,0.2,0,0.5,0.2,0.7
		c0.1,0.2,0.3,0.5,0.6,0.7l1.8,1.7l-0.6,0.7L51,58.8l0.5-0.5l0.6,0.4l0,0C52,58.4,52,58.2,52,58c0-0.2,0.1-0.4,0.2-0.5
		c0.1-0.2,0.2-0.3,0.3-0.5c0.2-0.3,0.5-0.5,0.8-0.6c0.3-0.1,0.5-0.1,0.8,0l0,0c-0.1-0.3-0.1-0.6,0-0.9
		C54.2,55.2,54.3,54.9,54.5,54.7z"/>
	<path class="st1" d="M49.9,59.8c0.1-0.1,0.1-0.1,0.2-0.2c0.1-0.1,0.1-0.1,0.2-0.2l0.5,0.6c-0.1,0-0.1,0.1-0.2,0.2
		c-0.1,0.1-0.1,0.1-0.2,0.2c-0.1,0.1-0.2,0.3-0.3,0.5c-0.1,0.2-0.1,0.4-0.1,0.6c0,0.2,0.1,0.4,0.1,0.6c0.1,0.2,0.2,0.4,0.4,0.5
		l1.9,1.8L51.9,65l-3.5-3.4l0.5-0.5l0.7,0.5l0,0c-0.1-0.2-0.1-0.4-0.1-0.6c0-0.2,0-0.4,0.1-0.6C49.7,60.2,49.8,60,49.9,59.8z"/>
	<path class="st1" d="M49.3,64.2c0.3,0.3,0.5,0.6,0.7,0.9c0.2,0.3,0.2,0.6,0.3,0.9c0,0.3,0,0.6-0.1,0.9c-0.1,0.3-0.3,0.6-0.5,0.8
		c-0.2,0.2-0.5,0.4-0.7,0.6c-0.3,0.1-0.5,0.2-0.8,0.2c-0.3,0-0.6-0.1-0.9-0.2c-0.3-0.1-0.6-0.3-0.9-0.6c-0.4-0.4-0.6-0.8-0.8-1.2
		c-0.1-0.4-0.2-0.8-0.1-1.2c0.1-0.4,0.3-0.8,0.6-1.1c0.3-0.3,0.6-0.6,1-0.7c0.4-0.1,0.8-0.1,1.1,0C48.6,63.6,48.9,63.8,49.3,64.2z
		 M46.9,66.9c0.3,0.3,0.5,0.4,0.8,0.6c0.3,0.1,0.5,0.1,0.7,0.1c0.2,0,0.5-0.2,0.7-0.4c0.2-0.2,0.3-0.5,0.4-0.7c0-0.2,0-0.5-0.1-0.8
		c-0.1-0.3-0.3-0.5-0.6-0.8c-0.3-0.3-0.5-0.4-0.8-0.6s-0.5-0.1-0.7-0.1c-0.2,0-0.5,0.2-0.7,0.4c-0.3,0.3-0.4,0.7-0.4,1.1
		C46.3,66.1,46.5,66.5,46.9,66.9z"/>
	<path class="st1" d="M47.1,70.3l-0.7,0.8l-6.1-1.2l0,0c0.1,0.1,0.3,0.2,0.4,0.3c0.1,0.1,0.3,0.3,0.4,0.4c0.2,0.1,0.3,0.3,0.5,0.4
		l2.5,2.5l-0.6,0.6L39,69.7l0.7-0.8l6,1.2l0,0c-0.1-0.1-0.2-0.2-0.4-0.3c-0.1-0.1-0.3-0.3-0.5-0.4c-0.2-0.1-0.3-0.3-0.4-0.4
		l-2.6-2.5l0.6-0.6L47.1,70.3z"/>
	<path class="st1" d="M69.9,4.7c0.3-0.2,0.6-0.2,0.9-0.2c0.3,0,0.5,0.2,0.6,0.4c0.1,0.2,0.1,0.3,0.1,0.5c0,0.2-0.1,0.4-0.3,0.6l0,0
		c0.3-0.1,0.5-0.1,0.7,0c0.2,0.1,0.3,0.2,0.4,0.4c0.2,0.3,0.2,0.6,0.1,0.9c-0.1,0.3-0.4,0.6-0.8,0.8c-0.2,0.1-0.4,0.2-0.5,0.2
		c-0.2,0.1-0.4,0.1-0.6,0.1l-0.4-0.7c0.2,0,0.4,0,0.6,0c0.2,0,0.4-0.1,0.5-0.2c0.2-0.1,0.3-0.2,0.3-0.3c0-0.1,0-0.2,0-0.4
		c-0.1-0.1-0.1-0.2-0.3-0.2c-0.1,0-0.3,0-0.5,0.2L70.4,7L70,6.4l0.3-0.2c0.2-0.1,0.4-0.3,0.4-0.4c0-0.1,0-0.2,0-0.3
		c-0.1-0.1-0.1-0.2-0.2-0.2c-0.1,0-0.2,0-0.3,0.1c-0.1,0.1-0.2,0.2-0.3,0.3c-0.1,0.1-0.1,0.2-0.2,0.4L69,5.8
		c0.1-0.2,0.2-0.4,0.3-0.6C69.5,5,69.7,4.8,69.9,4.7z"/>
	<path class="st1" d="M68,8.9c0.4-0.3,0.8-0.4,1.2-0.3c0.4,0.1,0.7,0.4,1,0.9l1.5,2.7l-1.1,0.7l-1.3-2.4c-0.2-0.3-0.3-0.5-0.5-0.6
		c-0.2-0.1-0.4-0.1-0.6,0c-0.3,0.2-0.4,0.4-0.4,0.7c0,0.3,0.1,0.6,0.3,1l1.2,2.1l-1.1,0.7L66.8,12c-0.1-0.2-0.2-0.3-0.3-0.5
		c-0.1-0.1-0.2-0.2-0.4-0.2c-0.1,0-0.3,0-0.4,0.1c-0.2,0.1-0.3,0.3-0.4,0.4c-0.1,0.2,0,0.4,0,0.6c0.1,0.2,0.2,0.5,0.3,0.8l1.1,1.9
		l-1.1,0.7l-2.3-4.1l0.8-0.5l0.4,0.4l0.1,0c0-0.2,0-0.4,0.1-0.5c0.1-0.2,0.2-0.3,0.3-0.4c0.1-0.1,0.3-0.2,0.4-0.3
		c0.3-0.2,0.6-0.3,0.8-0.3c0.3,0,0.5,0,0.7,0.2l0.1-0.1c0-0.3,0.1-0.5,0.2-0.8C67.5,9.2,67.7,9,68,8.9z"/>
	<path class="st1" d="M62.1,10.9l1.1,6.5l-1,0.6l-1.1-6.5L62.1,10.9z"/>
	<path class="st1" d="M60.8,21.2c-0.5,0.3-1,0.5-1.4,0.5c-0.4,0-0.7-0.2-0.9-0.6c-0.1-0.2-0.2-0.5-0.1-0.8c0.1-0.3,0.2-0.5,0.4-0.8
		c-0.1,0-0.3,0-0.4-0.1c-0.1-0.1-0.3-0.2-0.3-0.3C58,19.1,57.9,19,58,18.8c0-0.2,0.1-0.3,0.2-0.5c-0.3,0-0.5,0-0.7-0.1
		c-0.2-0.1-0.4-0.3-0.6-0.6c-0.2-0.3-0.2-0.6-0.2-0.9c0-0.3,0.1-0.6,0.3-0.8c0.2-0.3,0.4-0.5,0.8-0.7c0.1,0,0.2-0.1,0.3-0.1
		c0.1,0,0.2-0.1,0.3-0.1c0.1,0,0.1-0.1,0.2-0.1l1.4-0.8l0.3,0.6l-0.5,0.5c0.1,0.1,0.2,0.1,0.3,0.2c0.1,0.1,0.2,0.2,0.2,0.3
		c0.2,0.4,0.3,0.9,0.1,1.3c-0.2,0.4-0.5,0.8-1,1.1c-0.1,0.1-0.3,0.1-0.4,0.2c0,0.1,0,0.1,0,0.2c0,0.1,0,0.1,0,0.2
		c0,0.1,0.1,0.1,0.1,0.1c0.1,0,0.1,0,0.2,0c0.1,0,0.2-0.1,0.3-0.2l0.7-0.4c0.4-0.3,0.8-0.4,1.1-0.3c0.3,0.1,0.6,0.3,0.8,0.6
		c0.3,0.5,0.3,1,0,1.5C62,20.3,61.5,20.8,60.8,21.2z M60.4,20.5c0.3-0.2,0.5-0.3,0.6-0.5c0.2-0.2,0.3-0.3,0.3-0.5c0-0.2,0-0.3,0-0.4
		c-0.1-0.1-0.1-0.2-0.2-0.2c-0.1,0-0.2,0-0.3,0c-0.1,0-0.3,0.1-0.5,0.2l-0.6,0.3c-0.1,0.1-0.2,0.2-0.3,0.3c-0.1,0.1-0.1,0.2-0.1,0.3
		c0,0.1,0,0.2,0.1,0.3c0.1,0.2,0.2,0.2,0.4,0.2C60,20.7,60.2,20.6,60.4,20.5z M58.9,17.3c0.2-0.1,0.3-0.3,0.3-0.5
		c0-0.2,0-0.4-0.2-0.6c-0.1-0.2-0.3-0.4-0.5-0.5c-0.2-0.1-0.3,0-0.5,0.1c-0.2,0.1-0.3,0.3-0.3,0.5c0,0.2,0,0.4,0.2,0.6
		c0.1,0.2,0.3,0.4,0.4,0.4C58.5,17.4,58.7,17.4,58.9,17.3z"/>
	<path class="st1" d="M55.2,16.7l2.3,4.1l-0.8,0.5l-0.5-0.5l-0.1,0c0,0.2,0,0.3,0,0.5c0,0.1-0.1,0.3-0.2,0.4
		c-0.1,0.1-0.2,0.2-0.3,0.3c-0.1,0.1-0.3,0.1-0.4,0.2c-0.1,0-0.3,0-0.4-0.1l0,0c0,0,0.1,0.1,0.2,0.2c0.1,0.1,0.1,0.2,0.2,0.3
		c0.1,0.1,0.1,0.2,0.2,0.3l0.7,1.2l-1.1,0.7l-3.3-5.9l1.1-0.7l1.3,2.4c0.2,0.3,0.3,0.5,0.5,0.6c0.2,0.1,0.4,0.1,0.6-0.1
		c0.2-0.1,0.4-0.3,0.4-0.5c0.1-0.2,0.1-0.4,0-0.6c-0.1-0.2-0.2-0.5-0.3-0.8l-1.1-1.9L55.2,16.7z"/>
	<path class="st1" d="M50.9,19.9c0.3,0.6,0.6,1.2,0.8,1.7c0.2,0.5,0.3,1,0.2,1.5c0,0.5-0.1,0.9-0.4,1.2c-0.2,0.4-0.6,0.7-1,1
		c-0.6,0.4-1.1,0.5-1.7,0.4c-0.5-0.1-1.1-0.4-1.6-0.8c-0.5-0.5-1-1.1-1.4-1.9c-0.5-0.8-0.8-1.5-0.9-2.2c-0.2-0.7-0.1-1.3,0.1-1.8
		c0.2-0.5,0.6-1,1.2-1.4c0.6-0.3,1.1-0.5,1.7-0.4c0.5,0.1,1.1,0.3,1.6,0.8C49.9,18.4,50.4,19.1,50.9,19.9z M47.4,22
		c0.3,0.6,0.6,1,0.9,1.4c0.3,0.3,0.5,0.6,0.8,0.7c0.3,0.1,0.5,0.1,0.8-0.1c0.3-0.2,0.4-0.4,0.4-0.6c0-0.3,0-0.6-0.2-1
		c-0.2-0.4-0.4-0.9-0.7-1.5c-0.3-0.6-0.6-1-0.9-1.4c-0.3-0.3-0.5-0.6-0.8-0.7c-0.3-0.1-0.5-0.1-0.8,0.1c-0.3,0.2-0.4,0.4-0.4,0.7
		c0,0.3,0,0.6,0.2,1C46.8,20.9,47,21.4,47.4,22z"/>
	<path class="st1" d="M45.1,23.4c0.3,0.6,0.6,1.2,0.8,1.7c0.2,0.5,0.3,1,0.2,1.5c0,0.5-0.1,0.9-0.4,1.2c-0.2,0.4-0.6,0.7-1,1
		c-0.6,0.4-1.1,0.5-1.7,0.4c-0.5-0.1-1.1-0.4-1.6-0.8c-0.5-0.5-1-1.1-1.4-1.9c-0.5-0.8-0.8-1.5-0.9-2.2c-0.2-0.7-0.1-1.3,0.1-1.8
		c0.2-0.5,0.6-1,1.2-1.4c0.6-0.3,1.1-0.5,1.7-0.4c0.5,0.1,1.1,0.3,1.6,0.8C44.2,21.9,44.7,22.6,45.1,23.4z M41.6,25.5
		c0.3,0.6,0.6,1,0.9,1.4c0.3,0.3,0.5,0.6,0.8,0.7c0.3,0.1,0.5,0.1,0.8-0.1c0.3-0.2,0.4-0.4,0.4-0.6c0-0.3,0-0.6-0.2-1
		c-0.2-0.4-0.4-0.9-0.7-1.5c-0.3-0.6-0.6-1-0.9-1.4c-0.3-0.3-0.5-0.6-0.8-0.7c-0.3-0.1-0.5-0.1-0.8,0.1c-0.3,0.2-0.4,0.4-0.4,0.7
		c0,0.3,0,0.6,0.2,1C41.1,24.5,41.3,24.9,41.6,25.5z"/>
	<path class="st1" d="M40.2,31.4l-1.5,0.9L36.3,28c-0.1-0.1-0.1-0.3-0.2-0.4c-0.1-0.2-0.2-0.4-0.3-0.6c-0.1-0.2-0.2-0.4-0.3-0.5
		c0,0.1,0,0.2-0.1,0.4c0,0.2-0.1,0.3-0.1,0.5l-0.4,1.2L33.6,28l1.2-3.3l1.2-0.8L40.2,31.4z"/>
	
		<linearGradient id="SVGID_00000110457838490463436220000002588872479019519421_" gradientUnits="userSpaceOnUse" x1="13.8754" y1="26.8117" x2="52.0517" y2="9.5858" gradientTransform="matrix(1 0 0 -1 0 120.3478)">
		<stop  offset="0" style="stop-color:#59E789"/>
		<stop  offset="0.7051" style="stop-color:#32814D"/>
	</linearGradient>
	<path style="fill:url(#SVGID_00000110457838490463436220000002588872479019519421_);" d="M53.4,120.2c0.2-9.8,3.6-20.2,8-28.3
		L40.9,80.2l-16.4-9.9c-1.9-1.1-4.3-0.5-5.3,1.5C12.7,85,8.7,100.6,7.9,116.2c-0.1,2.2,1.7,4.1,3.8,4.1h18.8H53.4z"/>
	<path class="st1" d="M45.5,86.9l-0.2,0.9l-6.5-1.9L39,85L45.5,86.9z"/>
	<path class="st1" d="M39.7,89.7c0.2-0.6,0.4-1,0.7-1.2c0.3-0.2,0.8-0.3,1.3-0.1l3.1,0.9l-0.2,0.6l-0.7,0l0,0
		c0.1,0.2,0.2,0.4,0.3,0.5c0.1,0.2,0.1,0.4,0.1,0.6c0,0.2,0,0.4-0.1,0.7c-0.1,0.3-0.2,0.5-0.4,0.7c-0.2,0.2-0.4,0.3-0.6,0.4
		c-0.2,0.1-0.5,0.1-0.8,0c-0.5-0.1-0.8-0.4-0.9-0.9c-0.1-0.4-0.1-1.1,0.1-1.8l0.2-0.8l-0.3-0.1c-0.4-0.1-0.6-0.1-0.8,0
		c-0.2,0.1-0.3,0.3-0.4,0.6c-0.1,0.2-0.1,0.5-0.1,0.7c0,0.2,0,0.5,0.1,0.7l-0.7,0.1c-0.1-0.3-0.1-0.5-0.1-0.9
		C39.6,90.3,39.7,90,39.7,89.7z M42.4,89.5l-0.2,0.7c-0.1,0.6-0.1,1,0,1.2c0.1,0.3,0.3,0.4,0.6,0.5c0.2,0.1,0.4,0,0.6-0.1
		c0.2-0.1,0.3-0.3,0.3-0.6c0.1-0.4,0.1-0.7-0.1-1c-0.1-0.3-0.4-0.5-0.8-0.6L42.4,89.5z"/>
	<path class="st1" d="M38.4,94.6c0.1-0.5,0.4-0.9,0.7-1.1c0.3-0.2,0.8-0.2,1.4,0l3,0.9l-0.2,0.9l-2.9-0.8c-0.4-0.1-0.7-0.1-0.9,0
		c-0.2,0.1-0.4,0.3-0.5,0.6c-0.1,0.4-0.1,0.8,0.1,1.1c0.2,0.3,0.5,0.5,1,0.6l2.5,0.7l-0.2,0.9l-2.9-0.8c-0.2-0.1-0.5-0.1-0.6-0.1
		c-0.2,0-0.3,0.1-0.4,0.2c-0.1,0.1-0.2,0.3-0.3,0.5c-0.1,0.3-0.1,0.6,0,0.8c0.1,0.2,0.2,0.4,0.4,0.5c0.2,0.1,0.5,0.3,0.9,0.4
		l2.4,0.7l-0.2,0.9l-4.6-1.3l0.2-0.7l0.7,0.1l0,0c-0.1-0.1-0.2-0.3-0.3-0.5c-0.1-0.2-0.1-0.4-0.1-0.6c0-0.2,0-0.4,0.1-0.6
		c0.1-0.4,0.2-0.6,0.4-0.9c0.2-0.2,0.4-0.3,0.7-0.4l0-0.1c-0.2-0.2-0.4-0.5-0.4-0.8C38.3,95.2,38.3,94.9,38.4,94.6z"/>
	<path class="st1" d="M36.6,101.3c0-0.1,0.1-0.2,0.1-0.3c0-0.1,0.1-0.2,0.1-0.3l0.8,0.3c0,0.1-0.1,0.1-0.1,0.2
		c0,0.1-0.1,0.2-0.1,0.2c-0.1,0.2-0.1,0.4,0,0.6c0,0.2,0.1,0.4,0.2,0.5c0.1,0.2,0.2,0.3,0.4,0.4c0.2,0.1,0.4,0.2,0.6,0.3l2.4,0.7
		l-0.2,0.9l-4.6-1.3l0.2-0.7l0.9,0.1l0,0c-0.1-0.1-0.3-0.3-0.4-0.5c-0.1-0.2-0.2-0.4-0.2-0.6C36.5,101.8,36.5,101.6,36.6,101.3z"/>
	<path class="st1" d="M38,105.6c0.4,0.1,0.7,0.3,1,0.5c0.3,0.2,0.5,0.4,0.6,0.7c0.2,0.3,0.2,0.5,0.3,0.8c0,0.3,0,0.6-0.1,1
		c-0.1,0.3-0.2,0.6-0.4,0.9c-0.2,0.2-0.4,0.4-0.7,0.6c-0.3,0.1-0.6,0.2-0.9,0.2c-0.3,0-0.7,0-1.1-0.1c-0.5-0.1-0.9-0.4-1.2-0.6
		c-0.3-0.3-0.5-0.6-0.6-1c-0.1-0.4-0.1-0.8,0-1.3c0.1-0.4,0.3-0.8,0.6-1.1c0.3-0.3,0.6-0.5,1-0.5C37.1,105.4,37.5,105.4,38,105.6z
		 M37.1,109.1c0.4,0.1,0.7,0.1,1,0.1c0.3,0,0.5-0.1,0.7-0.3c0.2-0.2,0.3-0.4,0.4-0.7c0.1-0.3,0.1-0.6,0-0.8
		c-0.1-0.2-0.2-0.4-0.5-0.6c-0.2-0.2-0.5-0.3-0.9-0.4c-0.4-0.1-0.7-0.1-0.9-0.1c-0.3,0-0.5,0.1-0.7,0.3c-0.2,0.2-0.3,0.4-0.4,0.7
		c-0.1,0.5-0.1,0.8,0.2,1.1C36.2,108.7,36.5,109,37.1,109.1z"/>
	<path class="st1" d="M33.7,112.2c0.1-0.6,0.4-0.9,0.7-1.2c0.3-0.2,0.8-0.2,1.4-0.1l3,0.9l-0.2,0.9l-2.9-0.8c-0.4-0.1-0.7-0.1-0.9,0
		c-0.2,0.1-0.4,0.3-0.5,0.7c-0.1,0.5-0.1,0.9,0.1,1.2c0.2,0.3,0.6,0.5,1.1,0.7l2.3,0.7l-0.2,0.9l-4.6-1.3l0.2-0.7L34,114l0,0
		c-0.1-0.1-0.2-0.3-0.3-0.5c-0.1-0.2-0.1-0.4-0.1-0.6C33.6,112.7,33.6,112.5,33.7,112.2z"/>
	<path class="st1" d="M32.8,87.7l-2.6,0c-0.1,0-0.2,0-0.4,0c-0.1,0-0.3,0-0.4,0c-0.1,0-0.3,0-0.4,0c-0.1,0-0.2,0-0.3,0l0,0
		c0.1,0,0.2,0.1,0.3,0.1c0.1,0.1,0.2,0.1,0.3,0.2c0.1,0.1,0.2,0.1,0.4,0.2c0.1,0.1,0.2,0.1,0.3,0.2l2.2,1.5l-0.3,1l-5,0l0.2-0.9
		l2.6,0c0.2,0,0.4,0,0.5,0c0.2,0,0.4,0,0.5,0c0.2,0,0.3,0,0.4,0l0,0c-0.1,0-0.2-0.1-0.3-0.1c-0.1-0.1-0.2-0.1-0.3-0.2
		c-0.1-0.1-0.2-0.1-0.3-0.2c-0.1-0.1-0.2-0.1-0.3-0.2l-2.3-1.5l0.3-0.9l2.8,0c0.1,0,0.3,0,0.4,0c0.2,0,0.3,0,0.5,0
		c0.2,0,0.3,0,0.4,0l0,0c-0.1,0-0.2-0.1-0.4-0.2c-0.1-0.1-0.3-0.2-0.5-0.3c-0.2-0.1-0.3-0.2-0.5-0.3l-2.2-1.4l0.2-0.9l4.2,2.7
		L32.8,87.7z"/>
	<path class="st1" d="M29.2,92.1c0.4,0.1,0.7,0.3,1,0.5c0.3,0.2,0.5,0.4,0.6,0.7c0.2,0.3,0.2,0.5,0.3,0.8c0,0.3,0,0.6-0.1,1
		c-0.1,0.3-0.2,0.6-0.4,0.9c-0.2,0.2-0.4,0.4-0.7,0.6c-0.3,0.1-0.6,0.2-0.9,0.2c-0.3,0-0.7,0-1.1-0.1c-0.5-0.1-0.9-0.4-1.2-0.6
		c-0.3-0.3-0.5-0.6-0.6-1c-0.1-0.4-0.1-0.8,0-1.3c0.1-0.4,0.3-0.8,0.6-1.1c0.3-0.3,0.6-0.5,1-0.5C28.2,92,28.6,92,29.2,92.1z
		 M28.2,95.7c0.4,0.1,0.7,0.1,1,0.1c0.3,0,0.5-0.1,0.7-0.3c0.2-0.2,0.3-0.4,0.4-0.7c0.1-0.3,0.1-0.6,0-0.8c-0.1-0.2-0.2-0.4-0.5-0.6
		c-0.2-0.2-0.5-0.3-0.9-0.4c-0.4-0.1-0.7-0.1-0.9-0.1c-0.3,0-0.5,0.1-0.7,0.3c-0.2,0.2-0.3,0.4-0.4,0.7c-0.1,0.5-0.1,0.8,0.2,1.1
		C27.3,95.3,27.7,95.6,28.2,95.7z"/>
	<path class="st1" d="M29.9,98.5l-0.2,0.9l-6.5-1.9l0.2-0.9L29.9,98.5z"/>
	<path class="st1" d="M24.1,101.2c0.1-0.4,0.3-0.8,0.5-1c0.3-0.2,0.6-0.4,0.9-0.5c0.4-0.1,0.7,0,1.2,0.1l0.5,0.1l-0.9,3.3
		c0.5,0.1,0.9,0.1,1.2-0.1c0.3-0.2,0.6-0.5,0.7-1c0.1-0.3,0.1-0.6,0.1-0.8c0-0.3,0-0.5,0-0.8l0.7,0.2c0,0.3,0.1,0.5,0,0.8
		c0,0.3-0.1,0.6-0.2,0.9c-0.1,0.5-0.3,0.8-0.6,1.1c-0.3,0.3-0.6,0.5-1,0.6c-0.4,0.1-0.9,0.1-1.4-0.1c-0.5-0.1-0.9-0.4-1.2-0.6
		c-0.3-0.3-0.5-0.6-0.6-1C24,102.1,24,101.6,24.1,101.2z M24.8,101.4c-0.1,0.4-0.1,0.7,0.1,1c0.2,0.3,0.4,0.5,0.8,0.7l0.6-2.4
		c-0.3-0.1-0.5-0.1-0.7-0.1c-0.2,0-0.4,0.1-0.6,0.2C25,101,24.9,101.1,24.8,101.4z"/>
	<path class="st1" d="M20.7,108.4l0.5-1.8c0.2-0.8,0.5-1.4,0.8-1.7c0.3-0.3,0.8-0.4,1.3-0.3c0.2,0.1,0.4,0.2,0.6,0.3
		c0.2,0.1,0.3,0.3,0.4,0.5c0.1,0.2,0.1,0.4,0.1,0.7l0,0c0.1-0.2,0.2-0.5,0.4-0.6c0.2-0.2,0.4-0.3,0.6-0.3c0.2-0.1,0.5,0,0.8,0
		c0.4,0.1,0.7,0.3,0.9,0.5c0.2,0.3,0.3,0.6,0.4,0.9c0,0.4,0,0.8-0.1,1.2l-0.6,2.2L20.7,108.4z M23.5,108.2l0.3-1.1
		c0.1-0.5,0.2-0.9,0-1.1c-0.1-0.2-0.3-0.4-0.6-0.5c-0.3-0.1-0.6,0-0.8,0.2c-0.2,0.2-0.4,0.5-0.5,1.1l-0.3,1L23.5,108.2z M24.2,108.4
		l2.1,0.6l0.3-1.2c0.1-0.5,0.1-0.9,0-1.2c-0.1-0.3-0.4-0.5-0.7-0.6c-0.2-0.1-0.4-0.1-0.6,0c-0.2,0.1-0.3,0.2-0.5,0.4
		c-0.1,0.2-0.3,0.5-0.4,0.8L24.2,108.4z"/>
	<path class="st1" d="M17.1,43.6c0.2-0.3,0.4-0.5,0.6-0.7c0.2-0.1,0.5-0.1,0.8,0c0.2,0.1,0.3,0.2,0.4,0.4c0.1,0.2,0.1,0.4,0.1,0.6
		l0,0c0.2-0.2,0.4-0.4,0.6-0.4c0.2-0.1,0.4,0,0.6,0.1c0.3,0.2,0.5,0.4,0.5,0.7c0.1,0.3,0,0.7-0.2,1.2c-0.1,0.2-0.2,0.4-0.3,0.5
		c-0.1,0.1-0.3,0.3-0.4,0.4l-0.7-0.4c0.2-0.1,0.3-0.2,0.5-0.4c0.1-0.1,0.3-0.3,0.3-0.5c0.1-0.2,0.1-0.3,0.1-0.5
		c0-0.1-0.1-0.2-0.2-0.3c-0.1-0.1-0.2-0.1-0.3,0c-0.1,0-0.2,0.2-0.4,0.4l-0.2,0.4L18.1,45l0.2-0.3c0.1-0.3,0.2-0.5,0.1-0.6
		c0-0.1-0.1-0.2-0.2-0.3c-0.1,0-0.2-0.1-0.3,0c-0.1,0-0.2,0.1-0.2,0.2c-0.1,0.1-0.1,0.2-0.1,0.4c0,0.1,0,0.3,0,0.5L16.9,45
		c0-0.2,0-0.4,0-0.7C16.9,44.1,16.9,43.9,17.1,43.6z"/>
	<path class="st1" d="M17.6,48.3c0.2-0.5,0.5-0.8,0.9-0.9c0.4-0.1,0.8-0.1,1.3,0.2l2.6,1.4l-0.6,1.2l-2.4-1.2
		c-0.3-0.2-0.5-0.2-0.7-0.2c-0.2,0-0.3,0.1-0.5,0.4c-0.1,0.3-0.1,0.6,0,0.8c0.1,0.2,0.4,0.5,0.8,0.7l2,1.1l-0.6,1.2l-2.4-1.2
		c-0.2-0.1-0.4-0.2-0.5-0.2c-0.2,0-0.3,0-0.4,0.1c-0.1,0.1-0.2,0.2-0.3,0.3c-0.1,0.2-0.1,0.4-0.1,0.6c0,0.2,0.2,0.3,0.3,0.5
		c0.2,0.2,0.4,0.3,0.7,0.5l1.9,1l-0.6,1.2l-4.1-2.1l0.4-0.9l0.6,0.1l0-0.1c-0.1-0.2-0.2-0.3-0.2-0.5c0-0.2,0-0.4,0-0.5
		c0-0.2,0.1-0.3,0.2-0.5c0.1-0.3,0.3-0.5,0.5-0.7c0.2-0.2,0.4-0.3,0.7-0.3l0-0.1c-0.1-0.2-0.2-0.5-0.2-0.8
		C17.4,48.8,17.5,48.5,17.6,48.3z"/>
	<path class="st1" d="M13.7,53.3l4.3,4.8l-0.5,1l-4.3-4.8L13.7,53.3z"/>
	<path class="st1" d="M18.1,62.7c-0.3,0.6-0.6,1-1,1.2c-0.3,0.2-0.7,0.2-1.1,0c-0.2-0.1-0.4-0.3-0.5-0.6c-0.1-0.2-0.1-0.5,0-0.9
		c-0.1,0.1-0.2,0.2-0.4,0.2c-0.2,0-0.3,0-0.4-0.1c-0.2-0.1-0.3-0.2-0.3-0.3c-0.1-0.1-0.1-0.3-0.1-0.6c-0.2,0.2-0.4,0.3-0.7,0.3
		c-0.3,0-0.5,0-0.8-0.2c-0.3-0.2-0.5-0.4-0.7-0.6C12,61,12,60.7,12,60.4c0-0.3,0.1-0.7,0.3-1c0-0.1,0.1-0.2,0.1-0.3
		c0.1-0.1,0.1-0.2,0.2-0.3c0.1-0.1,0.1-0.1,0.1-0.2l0.7-1.5l0.6,0.3l-0.2,0.7c0.1,0,0.2,0,0.4,0c0.1,0,0.2,0.1,0.3,0.1
		c0.4,0.2,0.7,0.6,0.8,1c0.1,0.4,0,0.9-0.3,1.5c-0.1,0.1-0.1,0.3-0.2,0.4c0,0.1,0,0.1,0.1,0.2c0,0.1,0.1,0.1,0.1,0.1
		c0.1,0,0.1,0,0.2,0c0.1,0,0.1-0.1,0.2-0.2c0.1-0.1,0.1-0.2,0.2-0.3l0.3-0.7c0.2-0.5,0.5-0.8,0.8-0.9c0.3-0.1,0.6-0.1,1,0.1
		c0.5,0.2,0.7,0.6,0.8,1.2C18.6,61.3,18.5,61.9,18.1,62.7z M17.4,62.3c0.1-0.3,0.2-0.5,0.3-0.7c0-0.2,0.1-0.4,0-0.6
		c0-0.2-0.1-0.3-0.2-0.3c-0.1-0.1-0.2-0.1-0.3,0c-0.1,0-0.2,0.1-0.3,0.2c-0.1,0.1-0.2,0.3-0.3,0.5l-0.3,0.6
		c-0.1,0.1-0.1,0.3-0.1,0.4c0,0.1,0,0.3,0.1,0.4c0,0.1,0.1,0.2,0.2,0.2c0.2,0.1,0.3,0.1,0.5,0C17.1,62.7,17.3,62.5,17.4,62.3z
		 M14.4,60.5c0.1-0.2,0.1-0.4,0-0.6c-0.1-0.2-0.2-0.3-0.5-0.4c-0.2-0.1-0.5-0.2-0.6-0.1c-0.2,0-0.3,0.2-0.4,0.4
		c-0.1,0.2-0.1,0.4,0,0.6c0.1,0.2,0.2,0.3,0.5,0.4c0.2,0.1,0.4,0.2,0.6,0.1C14.1,60.8,14.3,60.7,14.4,60.5z"/>
	<path class="st1" d="M11.1,62.1l4.1,2.1l-0.4,0.9L14.1,65l0,0.1c0.1,0.1,0.2,0.3,0.2,0.4c0,0.1,0.1,0.3,0.1,0.4
		c0,0.1-0.1,0.3-0.1,0.4c-0.1,0.2-0.2,0.3-0.3,0.4c-0.1,0.1-0.2,0.2-0.4,0.2l0,0c0.1,0,0.1,0.1,0.2,0.1c0.1,0,0.2,0.1,0.3,0.2
		c0.1,0.1,0.2,0.1,0.3,0.2l1.2,0.6L15,69.1L9.2,66l0.6-1.2l2.4,1.2c0.3,0.2,0.5,0.2,0.7,0.2c0.2,0,0.4-0.2,0.5-0.4
		c0.1-0.2,0.1-0.4,0.1-0.6c0-0.2-0.1-0.4-0.3-0.5c-0.2-0.2-0.4-0.3-0.7-0.5l-1.9-1L11.1,62.1z"/>
	<path class="st1" d="M9,67.2c0.6,0.3,1.1,0.6,1.5,1c0.4,0.3,0.8,0.7,1,1.1c0.2,0.4,0.3,0.8,0.3,1.2c0,0.4-0.1,0.9-0.3,1.4
		c-0.3,0.6-0.7,1.1-1.2,1.3c-0.5,0.2-1.1,0.3-1.7,0.2C8,73.3,7.2,73,6.4,72.6c-0.8-0.4-1.4-0.9-1.9-1.3c-0.5-0.5-0.8-1-0.9-1.5
		c-0.1-0.6,0-1.2,0.3-1.8c0.3-0.6,0.7-1,1.2-1.3c0.5-0.2,1.1-0.3,1.7-0.2C7.5,66.5,8.2,66.8,9,67.2z M7.2,71
		c0.6,0.3,1.1,0.5,1.5,0.6c0.4,0.1,0.7,0.2,1,0.1c0.3-0.1,0.5-0.2,0.6-0.5c0.1-0.3,0.1-0.5,0-0.8c-0.1-0.3-0.3-0.5-0.7-0.8
		c-0.3-0.3-0.8-0.5-1.4-0.8c-0.6-0.3-1.1-0.5-1.5-0.6C6.4,68,6,68,5.8,68.1c-0.3,0.1-0.5,0.2-0.6,0.5c-0.1,0.3-0.1,0.5,0,0.8
		c0.1,0.3,0.3,0.5,0.7,0.8C6.2,70.4,6.6,70.7,7.2,71z"/>
	<path class="st1" d="M3.8,75.4c0.2-0.5,0.5-0.8,0.9-1.1C5,74,5.4,73.8,5.8,73.8c0.4,0,0.9,0.1,1.4,0.3c0.5,0.3,0.9,0.6,1.2,1.1
		c0.3,0.4,0.4,0.9,0.4,1.5c0,0.6-0.2,1.2-0.5,1.9c-0.2,0.4-0.4,0.8-0.7,1.1c-0.2,0.3-0.5,0.6-0.8,0.8l-1.4-0.7
		c0.3-0.2,0.5-0.5,0.8-0.8c0.3-0.3,0.5-0.7,0.6-1c0.2-0.3,0.2-0.6,0.3-0.9c0-0.3,0-0.5-0.1-0.7C7,76.2,6.8,76,6.6,75.9
		c-0.4-0.2-0.7-0.2-1-0.1c-0.3,0.2-0.6,0.5-0.9,1c-0.1,0.2-0.2,0.4-0.2,0.7c-0.1,0.2-0.1,0.4-0.1,0.6l-0.6,0.5L0,76.3l2-4.2l1.3,0.7
		L2,75.5l1.4,0.9c0-0.1,0.1-0.3,0.1-0.4C3.6,75.9,3.7,75.7,3.8,75.4z"/>
</g>
</svg>
