<svg width="254" height="132" viewBox="0 0 254 132" fill="none" xmlns="http://www.w3.org/2000/svg">
<path d="M177.5 102L198.941 89.7651L216.624 79.6752C218.687 78.4976 219.388 75.8508 218.086 73.8634C209.315 60.4761 197.028 48.2746 183.483 39.6281C181.562 38.4015 179.032 39.0212 177.808 40.9444L176.5 43L167.5 58.5L155.5 80C164.145 85.1305 171.809 92.4558 177 101L177.5 102Z" fill="#DB170B"/>
<path d="M93.9995 80C102.557 75.2888 115.549 72.0977 126 71.9316C126 71.9316 126 57.0203 126 47.4658C126 41.1187 126 32.4078 126 27.2745C126 24.9173 124.078 23.0092 121.723 23.122C104.983 23.9242 87.2118 28.5108 73.0556 35.5952C70.9337 36.6571 70.2221 39.2959 71.419 41.3448L81.6199 58.8075L93.9995 80Z" fill="url(#paint0_linear_663_279)"/>
<path d="M126 72C136.45 72.1661 146.943 75.2888 155.5 80L168 58.5L177.936 40.6985C179.076 38.655 178.35 36.0666 176.267 34.9999C162.453 27.9256 146.7 23.4178 130.278 22.6224C127.923 22.5083 126 24.4219 126 26.7791V47V72Z" fill="url(#paint1_linear_663_279)"/>
<path d="M71.7198 101.426C76.911 92.8816 86.2343 84.821 94.8796 79.6906L82.5 58.5001L72.2596 40.9713C71.0781 38.9488 68.4783 38.2602 66.4982 39.5115C52.7884 48.1758 39.2758 60.47 30.3163 73.8458C28.9938 75.8201 29.6956 78.4676 31.7596 79.6454L49.4412 89.7349L71 102.5L71.7198 101.426Z" fill="url(#paint2_linear_663_279)"/>
<path d="M62.5105 131C62.6786 120.672 66.7331 109.957 71.5 101.5L49 88.9999L31.1892 78.6448C29.1553 77.4623 26.5401 78.1565 25.4596 80.2463C18.3387 94.0196 13.9114 110.387 13.1228 126.722C13.0091 129.077 14.9224 131 17.28 131H37.7552H62.5105Z" fill="url(#paint3_linear_663_279)"/>
<path d="M177.5 102C182.267 110.457 185.57 121.295 185.738 131.624H230.968C233.326 131.624 235.24 129.7 235.121 127.346C234.302 111.043 229.688 94.9389 222.527 81.2059C221.447 79.1343 218.858 78.4332 216.826 79.5873L198.5 90L177.5 102Z" fill="#7D0B1B"/>
<path d="M28.4474 119.316L28.9814 117.414C29.2156 116.58 29.5146 115.986 29.8784 115.633C30.2422 115.279 30.7218 115.185 31.3174 115.35C31.5718 115.42 31.7862 115.53 31.9607 115.678C32.1352 115.826 32.2635 116.007 32.3457 116.219C32.4278 116.432 32.4567 116.674 32.4324 116.944L32.4773 116.957C32.5978 116.7 32.7457 116.483 32.9212 116.306C33.0967 116.129 33.309 116.011 33.558 115.951C33.805 115.887 34.096 115.902 34.4312 115.995C34.8322 116.106 35.147 116.295 35.3754 116.561C35.6008 116.826 35.7382 117.153 35.7874 117.54C35.8345 117.924 35.7913 118.353 35.6578 118.829L35.0105 121.134L28.4474 119.316ZM31.4664 119.161L31.7875 118.018C31.9361 117.488 31.9522 117.098 31.8357 116.847C31.7192 116.595 31.4949 116.424 31.1627 116.332C30.8185 116.236 30.5376 116.289 30.3199 116.49C30.0993 116.69 29.9151 117.053 29.7673 117.579L29.4777 118.61L31.4664 119.161ZM32.2251 119.371L34.4921 119.999L34.8434 118.748C34.9954 118.207 34.9962 117.796 34.8458 117.516C34.6963 117.233 34.442 117.042 34.0829 116.942C33.8554 116.879 33.6466 116.876 33.4565 116.933C33.2641 116.986 33.0931 117.113 32.9434 117.313C32.7936 117.513 32.6654 117.803 32.5588 118.183L32.2251 119.371ZM32.2124 111.964C32.332 111.537 32.5265 111.197 32.7957 110.943C33.062 110.689 33.3839 110.526 33.7614 110.455C34.1389 110.384 34.5527 110.411 35.003 110.536L35.5095 110.676L34.5772 113.996C35.104 114.133 35.5446 114.11 35.8992 113.927C36.2508 113.744 36.4926 113.417 36.6247 112.947C36.712 112.636 36.7601 112.351 36.769 112.092C36.7779 111.833 36.7611 111.557 36.7187 111.265L37.4696 111.473C37.5132 111.749 37.5253 112.019 37.5059 112.282C37.4902 112.542 37.4342 112.844 37.3378 113.187C37.2048 113.661 36.9933 114.05 36.7032 114.356C36.4139 114.658 36.0562 114.857 35.6303 114.953C35.2013 115.048 34.7144 115.02 34.1693 114.869C33.6302 114.72 33.1949 114.502 32.8635 114.215C32.5291 113.928 32.3058 113.592 32.1936 113.207C32.0815 112.822 32.0877 112.407 32.2124 111.964ZM32.9043 112.16C32.8029 112.521 32.84 112.844 33.0154 113.128C33.188 113.412 33.488 113.634 33.9156 113.794L34.5912 111.388C34.3208 111.316 34.0718 111.294 33.8442 111.32C33.6165 111.346 33.4212 111.428 33.2583 111.564C33.0963 111.698 32.9782 111.897 32.9043 112.16ZM38.3645 109.19L38.1127 110.086L31.1989 108.171L31.4507 107.274L38.3645 109.19ZM37.534 102.716C37.9369 102.828 38.2818 102.981 38.5689 103.175C38.8538 103.366 39.0776 103.592 39.2403 103.854C39.4009 104.112 39.4994 104.398 39.536 104.711C39.5696 105.023 39.5366 105.357 39.4369 105.712C39.3438 106.043 39.2019 106.333 39.0112 106.58C38.8184 106.823 38.5857 107.015 38.3129 107.156C38.0372 107.297 37.727 107.378 37.3822 107.401C37.0345 107.423 36.6592 107.378 36.2564 107.266C35.7202 107.118 35.2898 106.899 34.9651 106.612C34.6375 106.323 34.4237 105.982 34.3237 105.587C34.2216 105.189 34.2371 104.753 34.37 104.28C34.4963 103.83 34.7065 103.462 35.0006 103.177C35.2946 102.892 35.6563 102.706 36.0857 102.621C36.5151 102.536 36.9978 102.568 37.534 102.716ZM36.5131 106.352C36.8893 106.456 37.227 106.498 37.5261 106.479C37.8231 106.456 38.072 106.366 38.2728 106.208C38.4745 106.047 38.6198 105.808 38.7087 105.491C38.796 105.18 38.7953 104.904 38.7066 104.663C38.618 104.421 38.4522 104.216 38.2092 104.047C37.9633 103.876 37.6522 103.739 37.276 103.635C36.9028 103.532 36.5695 103.49 36.2763 103.511C35.9831 103.532 35.7372 103.623 35.5385 103.785C35.3406 103.944 35.1968 104.183 35.1071 104.503C34.9758 104.971 35.0364 105.357 35.2889 105.663C35.5393 105.965 35.9474 106.195 36.5131 106.352ZM41.4507 98.1651L38.6819 98.2019C38.5572 98.2025 38.4199 98.2027 38.2698 98.2026C38.1206 98.1996 37.9714 98.1965 37.8222 98.1935C37.673 98.1904 37.535 98.1873 37.4083 98.184C37.2793 98.177 37.1757 98.1707 37.0975 98.1649L37.0876 98.2005C37.1575 98.2358 37.2494 98.2836 37.3634 98.3438C37.4744 98.4033 37.596 98.4705 37.7282 98.5454C37.8583 98.6165 37.989 98.691 38.1204 98.7688C38.2526 98.8437 38.3715 98.9149 38.4771 98.9825L40.8037 100.469L40.527 101.454L35.2535 101.458L35.509 100.548L38.261 100.588C38.4453 100.591 38.6351 100.597 38.8304 100.607C39.0257 100.616 39.2089 100.628 39.3802 100.644C39.5514 100.66 39.6969 100.676 39.8165 100.693L39.8265 100.658C39.7536 100.621 39.6638 100.577 39.5571 100.526C39.4482 100.47 39.3353 100.411 39.2184 100.35C39.0985 100.288 38.9834 100.226 38.8733 100.164C38.7639 100.099 38.6685 100.04 38.5871 99.9889L36.1085 98.4125L36.3803 97.4448L39.3094 97.3998C39.4505 97.3974 39.6084 97.3981 39.783 97.4018C39.9545 97.4047 40.1234 97.4116 40.2896 97.4225C40.4557 97.4334 40.5967 97.4486 40.7126 97.4679L40.7226 97.4324C40.6252 97.3927 40.5011 97.3344 40.3502 97.2575C40.1994 97.1806 40.0365 97.0957 39.8615 97.0025C39.6836 96.9086 39.5124 96.8133 39.348 96.7167L36.9749 95.3274L37.2266 94.4307L41.7349 97.1531L41.4507 98.1651ZM42.527 123.317C42.6857 122.752 42.9496 122.358 43.3188 122.135C43.6887 121.909 44.1877 121.883 44.8157 122.056L48.006 122.94L47.758 123.824L44.6876 122.973C44.2966 122.865 43.9793 122.869 43.7355 122.987C43.4889 123.103 43.3157 123.339 43.216 123.694C43.0739 124.201 43.1237 124.597 43.3656 124.884C43.6083 125.168 44.014 125.389 44.5827 125.547L47.0799 126.238L46.8294 127.131L41.9328 125.774L42.131 125.068L42.8558 125.13L42.8695 125.082C42.7268 124.93 42.6201 124.759 42.5495 124.567C42.4788 124.375 42.4428 124.174 42.4413 123.963C42.4378 123.748 42.4663 123.533 42.527 123.317ZM47.168 116.493C47.5709 116.605 47.9159 116.758 48.2029 116.952C48.4878 117.143 48.7116 117.369 48.8743 117.631C49.0349 117.889 49.1335 118.175 49.17 118.488C49.2037 118.8 49.1706 119.134 49.0709 119.489C48.9778 119.821 48.836 120.11 48.6453 120.357C48.4525 120.6 48.2197 120.792 47.9469 120.934C47.6712 121.074 47.361 121.156 47.0163 121.178C46.6685 121.2 46.2933 121.155 45.8904 121.043C45.3542 120.895 44.9238 120.677 44.5991 120.389C44.2715 120.1 44.0577 119.759 43.9577 119.364C43.8557 118.966 43.8711 118.53 44.0041 118.057C44.1304 117.607 44.3405 117.239 44.6346 116.954C44.9286 116.669 45.2903 116.483 45.7197 116.398C46.1491 116.313 46.6319 116.345 47.168 116.493ZM46.1472 120.129C46.5234 120.233 46.861 120.276 47.1602 120.256C47.4571 120.233 47.706 120.143 47.9069 119.985C48.1085 119.824 48.2538 119.585 48.3427 119.268C48.43 118.958 48.4293 118.681 48.3407 118.44C48.252 118.199 48.0862 117.993 47.8432 117.824C47.5973 117.654 47.2862 117.516 46.91 117.412C46.5368 117.309 46.2036 117.268 45.9104 117.288C45.6172 117.309 45.3712 117.401 45.1725 117.562C44.9747 117.721 44.8309 117.961 44.7411 118.28C44.6098 118.748 44.6704 119.135 44.9229 119.44C45.1733 119.743 45.5814 119.972 46.1472 120.129ZM45.6482 112.202C45.6731 112.113 45.706 112.019 45.747 111.918C45.7849 111.817 45.8217 111.732 45.8573 111.662L46.662 111.985C46.6243 112.051 46.5862 112.13 46.5478 112.221C46.5102 112.31 46.4802 112.394 46.4577 112.474C46.4046 112.663 46.3894 112.854 46.4123 113.045C46.4352 113.236 46.4965 113.416 46.5962 113.584C46.6929 113.751 46.8287 113.899 47.0034 114.027C47.1752 114.154 47.3855 114.252 47.6343 114.321L50.2248 115.039L49.973 115.935L45.0764 114.579L45.2783 113.86L46.1925 113.998L46.2037 113.958C46.0542 113.809 45.9254 113.642 45.8171 113.459C45.7098 113.273 45.6393 113.075 45.6057 112.865C45.57 112.651 45.5842 112.43 45.6482 112.202ZM47.5815 105.317C47.7335 104.775 47.9904 104.406 48.3521 104.21C48.7116 104.01 49.2024 103.996 49.8245 104.168L53.0281 105.056L52.7801 105.939L49.6875 105.082C49.3024 104.976 48.9912 104.975 48.7537 105.082C48.5171 105.185 48.3548 105.394 48.2667 105.708C48.1421 106.152 48.1867 106.51 48.4006 106.783C48.6123 107.052 48.9774 107.259 49.4958 107.402L52.1618 108.141L51.9125 109.028L48.8199 108.172C48.5622 108.1 48.339 108.077 48.1502 108.101C47.9584 108.124 47.8001 108.194 47.6751 108.309C47.5502 108.424 47.4578 108.589 47.3979 108.802C47.3123 109.106 47.3104 109.369 47.3922 109.59C47.4719 109.806 47.6289 109.992 47.8633 110.146C48.0986 110.297 48.4029 110.424 48.7761 110.528L51.2955 111.226L51.045 112.118L46.1484 110.762L46.3466 110.056L47.0581 110.114L47.0718 110.065C46.9304 109.921 46.8242 109.759 46.7532 109.58C46.683 109.398 46.6455 109.207 46.6407 109.008C46.633 108.808 46.6578 108.606 46.7152 108.402C46.8182 108.035 46.9717 107.744 47.1756 107.53C47.3796 107.315 47.6344 107.186 47.9402 107.143L47.9564 107.086C47.7249 106.853 47.5827 106.58 47.5296 106.269C47.4745 105.954 47.4917 105.637 47.5815 105.317ZM48.9907 100.315C49.1602 99.7117 49.4217 99.2978 49.7752 99.0735C50.1258 98.8485 50.5898 98.816 51.1675 98.976L54.4778 99.893L54.2983 100.532L53.5387 100.508L53.5288 100.544C53.6683 100.729 53.7765 100.912 53.8534 101.093C53.9304 101.274 53.9711 101.47 53.9755 101.682C53.9807 101.891 53.9442 102.134 53.8661 102.412C53.783 102.708 53.6557 102.957 53.4843 103.158C53.3128 103.359 53.1018 103.497 52.8511 103.571C52.5983 103.642 52.306 103.631 51.9742 103.539C51.4766 103.401 51.1525 103.105 51.002 102.652C50.8514 102.199 50.8732 101.582 51.0672 100.8L51.2685 99.9465L50.993 99.8702C50.6109 99.7643 50.3172 99.7755 50.112 99.9036C49.9077 100.029 49.7627 100.244 49.6771 100.549C49.6065 100.8 49.5758 101.052 49.585 101.303C49.5913 101.553 49.6149 101.799 49.6557 102.04L48.9272 102.145C48.8736 101.881 48.8479 101.592 48.8502 101.276C48.8533 100.958 48.9001 100.638 48.9907 100.315ZM51.8525 100.118L51.6917 100.81C51.5537 101.381 51.5367 101.805 51.6408 102.083C51.7427 102.357 51.9432 102.535 52.2424 102.618C52.5031 102.69 52.7161 102.665 52.8816 102.541C53.0471 102.418 53.166 102.228 53.2383 101.97C53.3497 101.574 53.33 101.218 53.1793 100.902C53.0265 100.582 52.7308 100.361 52.2924 100.24L51.8525 100.118ZM55.1484 97.5048L54.8966 98.4015L47.9827 96.4863L48.2345 95.5896L55.1484 97.5048Z" fill="white"/>
<path d="M57.1828 82.2804L56.3978 83.1153L49.8911 81.889L49.8655 81.9162C49.9949 82.0234 50.1378 82.1412 50.2943 82.2694C50.4485 82.3955 50.6086 82.5313 50.7745 82.6767C50.9402 82.8178 51.1061 82.9632 51.2722 83.113L54.011 85.6538L53.4111 86.2918L48.4183 81.6601L49.1969 80.8321L55.6736 82.0495L55.6959 82.0258C55.5915 81.9374 55.4621 81.8279 55.3077 81.6974C55.1534 81.5669 54.991 81.429 54.8207 81.2838C54.6503 81.1341 54.4911 80.9907 54.3431 80.8534L51.5837 78.2936L52.19 77.6488L57.1828 82.2804ZM59.5205 76.0721C59.827 76.3564 60.0629 76.6507 60.2282 76.955C60.3934 77.255 60.4878 77.5584 60.5113 77.8654C60.5348 78.168 60.4904 78.4665 60.3783 78.7608C60.2639 79.0529 60.0803 79.3334 59.8277 79.6021C59.5919 79.8529 59.3322 80.0439 59.0486 80.1749C58.7649 80.3017 58.4692 80.3649 58.1615 80.3645C57.8516 80.3621 57.5382 80.2915 57.2215 80.1528C56.9024 80.012 56.5897 79.7994 56.2832 79.5151C55.8753 79.1367 55.5936 78.7454 55.4379 78.3411C55.28 77.9347 55.2478 77.5337 55.3412 77.1382C55.4345 76.7384 55.6495 76.3593 55.9864 76.001C56.3065 75.6606 56.6631 75.4317 57.0562 75.3142C57.4493 75.1968 57.8563 75.1991 58.2773 75.3213C58.6982 75.4435 59.1126 75.6937 59.5205 76.0721ZM56.9338 78.8232C57.22 79.0886 57.5005 79.2817 57.7752 79.4024C58.0497 79.5187 58.3127 79.5531 58.5642 79.5055C58.8178 79.4556 59.0573 79.3109 59.2826 79.0713C59.5037 78.8362 59.6306 78.5912 59.6633 78.3365C59.6961 78.0818 59.6436 77.8235 59.5059 77.5616C59.366 77.2976 59.1529 77.0329 58.8667 76.7674C58.5828 76.504 58.3057 76.3141 58.0355 76.1976C57.7654 76.0811 57.5046 76.0488 57.2532 76.1008C57.004 76.1505 56.7657 76.2963 56.5383 76.5381C56.2056 76.8919 56.0808 77.2625 56.1638 77.6498C56.2468 78.0328 56.5034 78.4239 56.9338 78.8232ZM60.1523 71.5704C60.2155 71.5032 60.2884 71.4346 60.3711 71.3646C60.4516 71.2925 60.5237 71.2337 60.5876 71.1882L61.1534 71.8451C61.0894 71.8863 61.0191 71.9385 60.9427 72.0018C60.8685 72.0629 60.8029 72.1237 60.746 72.1841C60.6113 72.3274 60.5099 72.4891 60.4418 72.6692C60.3738 72.8492 60.3453 73.0366 60.3563 73.2313C60.3651 73.4239 60.4175 73.6172 60.5136 73.8111C60.6074 74.003 60.749 74.1867 60.9383 74.3623L62.9089 76.1904L62.271 76.869L58.546 73.4134L59.0576 72.8693L59.8061 73.4127L59.8345 73.3824C59.7709 73.1809 59.7333 72.9741 59.7217 72.7621C59.7122 72.5478 59.7411 72.3398 59.8084 72.1381C59.8755 71.9321 59.9902 71.7429 60.1523 71.5704ZM65.0509 66.3605C65.4362 65.9507 65.8349 65.7421 66.2471 65.7345C66.6591 65.7226 67.1017 65.9361 67.5749 66.3751L70.0121 68.6359L69.3836 69.3044L67.0309 67.122C66.738 66.8502 66.4614 66.7068 66.2012 66.6919C65.9432 66.6747 65.7025 66.7848 65.4794 67.0222C65.1635 67.3581 65.0376 67.6961 65.1016 68.0364C65.1654 68.3724 65.3945 68.7232 65.7889 69.0891L67.817 70.9705L67.1854 71.6423L64.8327 69.4598C64.6367 69.278 64.4492 69.1543 64.2702 69.0889C64.0889 69.0214 63.9162 69.01 63.7519 69.0546C63.5875 69.0992 63.4296 69.2022 63.278 69.3634C63.0611 69.5941 62.9381 69.8258 62.909 70.0588C62.8797 70.2873 62.9336 70.5239 63.0707 70.7685C63.2099 71.0108 63.4215 71.2637 63.7054 71.5271L65.622 73.305L64.9871 73.9802L61.2621 70.5247L61.7643 69.9906L62.3697 70.3698L62.4045 70.3328C62.3455 70.1398 62.3258 69.9475 62.3455 69.7561C62.3672 69.5625 62.422 69.3764 62.5097 69.1978C62.5952 69.0172 62.7106 68.8496 62.8558 68.6951C63.1169 68.4174 63.3877 68.2304 63.668 68.1342C63.9484 68.0379 64.2344 68.0411 64.5259 68.1439L64.567 68.1002C64.469 67.7871 64.4683 67.4804 64.565 67.1802C64.6615 66.8756 64.8235 66.6024 65.0509 66.3605ZM68.6137 62.578C69.0433 62.1212 69.4669 61.8748 69.8846 61.8389C70.3001 61.8008 70.7276 61.9856 71.167 62.3933L73.6852 64.7294L73.2304 65.2131L72.5664 64.8424L72.5412 64.8692C72.5795 65.0977 72.5911 65.3097 72.576 65.5053C72.5608 65.7009 72.5063 65.8935 72.4124 66.0831C72.3206 66.2704 72.1758 66.4694 71.9779 66.6799C71.7673 66.9038 71.5393 67.0655 71.294 67.1649C71.0486 67.2643 70.7974 67.2891 70.5404 67.2394C70.2833 67.1853 70.0285 67.0412 69.7761 66.8071C69.3975 66.4559 69.246 66.0449 69.3216 65.5742C69.3972 65.1034 69.7018 64.5663 70.2354 63.9629L70.8084 63.2996L70.5989 63.1052C70.3082 62.8355 70.042 62.7102 69.8005 62.7293C69.561 62.7462 69.3329 62.8699 69.116 63.1006C68.937 63.2909 68.7936 63.4996 68.6857 63.7265C68.5755 63.9513 68.483 64.1799 68.408 64.4122L67.7123 64.1694C67.7864 63.9111 67.8973 63.6429 68.0449 63.3647C68.1946 63.0844 68.3842 62.8221 68.6137 62.578ZM71.2483 63.7202L70.7856 64.2595C70.3992 64.7018 70.1881 65.0699 70.1523 65.3637C70.1164 65.6532 70.2122 65.9036 70.4398 66.1147C70.6381 66.2986 70.8393 66.3741 71.0433 66.3412C71.2473 66.3082 71.4408 66.1943 71.624 65.9995C71.9062 65.6994 72.0533 65.3747 72.0654 65.0253C72.0773 64.6716 71.9165 64.34 71.583 64.0307L71.2483 63.7202ZM75.3844 62.9222L74.7465 63.6007L69.4868 58.7216L70.1248 58.0431L75.3844 62.9222Z" fill="white"/>
<path d="M98.3389 51.5282L97.4306 51.7897L96.5587 48.8021L93.3641 49.7218L94.236 52.7094L93.3277 52.9709L91.4392 46.5L92.3475 46.2385L93.1355 48.9384L96.33 48.0187L95.5421 45.3188L96.4504 45.0573L98.3389 51.5282ZM99.4365 45.9249L100.86 50.8024L99.9694 51.0587L98.5459 46.1813L99.4365 45.9249ZM98.4592 44.2055C98.601 44.1647 98.7341 44.1711 98.8587 44.2248C98.9862 44.2777 99.077 44.397 99.1313 44.5829C99.1856 44.7688 99.1735 44.9194 99.0951 45.0348C99.0187 45.1463 98.9097 45.2225 98.7679 45.2633C98.6232 45.305 98.4885 45.299 98.364 45.2453C98.2415 45.1877 98.1532 45.066 98.0989 44.8801C98.0447 44.6943 98.0542 44.546 98.1276 44.4353C98.2039 44.3238 98.3145 44.2472 98.4592 44.2055ZM104.398 52.1445C103.745 52.3324 103.208 52.3575 102.787 52.2196C102.368 52.081 102.097 51.7977 101.972 51.3699C101.883 51.066 101.904 50.7801 102.034 50.5124C102.165 50.2476 102.392 50.0286 102.716 49.8554C102.569 49.8338 102.43 49.7761 102.301 49.6823C102.173 49.5847 102.087 49.4592 102.042 49.3058C101.989 49.1258 101.994 48.9564 102.057 48.7977C102.121 48.6352 102.238 48.4626 102.405 48.28C102.117 48.2477 101.859 48.1317 101.631 47.9319C101.402 47.7291 101.24 47.4624 101.143 47.132C101.041 46.7808 101.027 46.4601 101.103 46.1697C101.181 45.8785 101.341 45.6275 101.584 45.4169C101.827 45.2063 102.149 45.0432 102.551 44.9275C102.639 44.902 102.732 44.8801 102.829 44.8617C102.926 44.8404 103.019 44.8248 103.109 44.8149C103.199 44.805 103.272 44.7997 103.33 44.7992L105.013 44.3145L105.167 44.8412L104.338 45.224C104.456 45.3114 104.564 45.4242 104.662 45.5623C104.76 45.7005 104.836 45.861 104.889 46.044C105.034 46.5397 104.978 46.981 104.723 47.368C104.47 47.7511 104.045 48.0286 103.448 48.2004C103.309 48.2374 103.165 48.266 103.017 48.2862C102.912 48.3965 102.839 48.5053 102.8 48.6125C102.76 48.7168 102.756 48.825 102.789 48.9371C102.814 49.0227 102.862 49.0839 102.934 49.1209C103.009 49.157 103.104 49.1726 103.221 49.1677C103.338 49.1598 103.474 49.1334 103.631 49.0883L104.481 48.8434C105.013 48.6903 105.453 48.6851 105.802 48.8277C106.151 48.9703 106.389 49.257 106.514 49.6878C106.674 50.2337 106.572 50.7188 106.209 51.1431C105.846 51.5675 105.242 51.9012 104.398 52.1445ZM104.239 51.4849C104.62 51.3752 104.926 51.2454 105.158 51.0956C105.392 50.9449 105.554 50.78 105.643 50.6009C105.731 50.4219 105.747 50.235 105.69 50.0402C105.639 49.8632 105.556 49.7398 105.443 49.67C105.334 49.6024 105.191 49.5761 105.017 49.5913C104.842 49.6065 104.633 49.6489 104.391 49.7186L103.584 49.9508C103.378 50.0103 103.207 50.0947 103.072 50.2038C102.938 50.3129 102.845 50.4403 102.795 50.586C102.745 50.7345 102.747 50.8988 102.799 51.0788C102.871 51.3237 103.03 51.4809 103.278 51.5504C103.529 51.619 103.849 51.5971 104.239 51.4849ZM103.311 47.5825C103.639 47.4881 103.859 47.332 103.972 47.1141C104.083 46.8932 104.092 46.622 103.998 46.3003C103.898 45.9551 103.739 45.7193 103.523 45.5928C103.307 45.4663 103.036 45.4499 102.711 45.5434C102.395 45.6344 102.179 45.7941 102.063 46.0226C101.95 46.2473 101.943 46.5307 102.043 46.873C102.135 47.1887 102.29 47.4094 102.51 47.535C102.728 47.6577 102.995 47.6735 103.311 47.5825ZM106.24 41.7877L106.793 43.6821C106.837 43.8326 106.876 43.9814 106.909 44.1285C106.943 44.2757 106.968 44.3996 106.984 44.5004L107.037 44.4851C107.091 44.2842 107.176 44.106 107.294 43.9505C107.414 43.7912 107.562 43.6559 107.738 43.5445C107.916 43.4294 108.112 43.3408 108.328 43.2787C108.709 43.169 109.049 43.1383 109.348 43.1865C109.647 43.2348 109.903 43.3706 110.115 43.5941C110.327 43.8147 110.494 44.133 110.615 44.549L111.542 47.7269L110.661 47.9807L109.768 44.9223C109.654 44.5329 109.484 44.2654 109.255 44.12C109.026 43.9716 108.735 43.9484 108.38 44.0505C108.043 44.1474 107.794 44.2927 107.633 44.4862C107.471 44.6769 107.385 44.9143 107.375 45.1986C107.365 45.483 107.416 45.814 107.526 46.1917L108.25 48.6747L107.36 48.9311L105.35 42.0441L106.24 41.7877Z" fill="white"/>
<path d="M133.614 40.9257L129.853 47.0195L128.892 46.816L127.98 39.7324L128.936 39.935L129.487 44.4817C129.509 44.6404 129.526 44.8075 129.539 44.9829C129.552 45.1553 129.562 45.3271 129.569 45.4983C129.576 45.6694 129.578 45.8255 129.576 45.9664C129.632 45.8369 129.698 45.6952 129.772 45.5413C129.849 45.3879 129.931 45.2341 130.018 45.0797C130.105 44.9222 130.191 44.7738 130.274 44.6344L132.648 40.7213L133.614 40.9257ZM136.007 43.0351C136.44 43.1268 136.791 43.2986 137.061 43.5505C137.331 43.7994 137.512 44.1096 137.605 44.4811C137.698 44.8526 137.695 45.2667 137.596 45.7234L137.485 46.2371L134.111 45.5225C134.005 46.0562 134.053 46.4938 134.256 46.8352C134.46 47.1737 134.801 47.3936 135.279 47.4948C135.595 47.5617 135.882 47.5912 136.142 47.5834C136.401 47.5755 136.676 47.541 136.966 47.4799L136.802 48.2415C136.527 48.3028 136.258 48.3323 135.995 48.3298C135.733 48.331 135.428 48.2947 135.08 48.2208C134.598 48.1189 134.197 47.9333 133.874 47.6639C133.555 47.3952 133.335 47.0517 133.215 46.6335C133.095 46.2123 133.095 45.7252 133.215 45.1724C133.333 44.6256 133.526 44.1779 133.793 43.8292C134.061 43.4774 134.384 43.2333 134.762 43.0967C135.141 42.9601 135.556 42.9395 136.007 43.0351ZM135.851 43.7372C135.484 43.6595 135.163 43.7172 134.889 43.9104C134.615 44.1006 134.41 44.4139 134.275 44.8503L136.72 45.3682C136.776 45.0941 136.784 44.8445 136.745 44.6194C136.705 44.3942 136.613 44.2049 136.467 44.0515C136.323 43.8986 136.118 43.7938 135.851 43.7372ZM141.708 44.2427C141.799 44.2619 141.895 44.2886 141.998 44.3229C142.101 44.3542 142.189 44.3853 142.26 44.4163L141.984 45.2389C141.915 45.2056 141.834 45.1728 141.741 45.1404C141.65 45.1086 141.564 45.0841 141.483 45.0669C141.291 45.0262 141.099 45.0234 140.909 45.0585C140.719 45.0937 140.543 45.1663 140.381 45.2765C140.22 45.3837 140.08 45.5285 139.962 45.7108C139.844 45.8902 139.758 46.1061 139.704 46.3584L139.136 48.9858L138.225 48.7928L139.298 43.8265L140.029 43.9813L139.943 44.901L139.984 44.9096C140.125 44.751 140.284 44.6119 140.461 44.4922C140.641 44.3732 140.835 44.2902 141.043 44.2432C141.255 44.1939 141.477 44.1937 141.708 44.2427ZM142.415 44.4867L143.394 44.694L143.831 47.7793C143.853 47.938 143.872 48.0927 143.886 48.2435C143.904 48.3919 143.916 48.5357 143.92 48.6749C143.929 48.8117 143.929 48.9454 143.923 49.0761L143.955 49.0828C144.024 48.9372 144.115 48.7617 144.229 48.5564C144.343 48.3511 144.463 48.1441 144.59 47.9353L146.218 45.2921L147.192 45.4985L143.819 50.7131C143.634 51.0037 143.433 51.2438 143.216 51.4335C143.001 51.6268 142.766 51.7593 142.512 51.8311C142.257 51.9059 141.973 51.9101 141.66 51.8439C141.516 51.8133 141.39 51.7772 141.282 51.7356C141.177 51.6977 141.088 51.6599 141.014 51.6223L141.17 50.9013C141.233 50.9303 141.31 50.9607 141.401 50.9925C141.494 51.0249 141.592 51.0519 141.694 51.0735C141.884 51.1137 142.054 51.1105 142.206 51.0641C142.36 51.0213 142.499 50.9424 142.625 50.8276C142.753 50.7134 142.87 50.5732 142.975 50.407L143.327 49.8689L142.415 44.4867ZM151.716 44.3172L151.299 46.246C151.266 46.3992 151.229 46.5485 151.188 46.6938C151.147 46.8391 151.11 46.9601 151.077 47.0566L151.131 47.0681C151.274 46.9162 151.434 46.7993 151.612 46.7176C151.794 46.6336 151.989 46.5837 152.197 46.568C152.408 46.55 152.624 46.5642 152.843 46.6107C153.231 46.6929 153.545 46.8254 153.785 47.0083C154.026 47.1912 154.186 47.4309 154.267 47.7276C154.348 48.0213 154.343 48.38 154.251 48.8036L153.552 52.0394L152.654 51.8492L153.327 48.7351C153.413 48.3386 153.39 48.0227 153.259 47.7874C153.128 47.5492 152.882 47.3918 152.521 47.3154C152.178 47.2428 151.89 47.2539 151.655 47.3488C151.422 47.4407 151.233 47.6096 151.088 47.8555C150.944 48.1014 150.83 48.4167 150.747 48.8013L150.201 51.3295L149.294 51.1374L150.809 44.1251L151.716 44.3172ZM157.047 47.5861L155.974 52.5524L155.067 52.3604L156.141 47.3941L157.047 47.5861ZM157.007 45.6123C157.151 45.6428 157.266 45.711 157.35 45.8168C157.437 45.9232 157.46 46.0711 157.419 46.2603C157.378 46.4496 157.296 46.5767 157.171 46.6415C157.051 46.704 156.919 46.7199 156.774 46.6894C156.627 46.6581 156.511 46.5896 156.427 46.4839C156.347 46.3757 156.327 46.227 156.368 46.0377C156.409 45.8485 156.488 45.7223 156.605 45.6592C156.726 45.5967 156.86 45.5811 157.007 45.6123ZM158.449 55.3955C157.785 55.2547 157.3 55.0248 156.995 54.7056C156.692 54.3871 156.588 54.01 156.683 53.5744C156.749 53.2649 156.904 53.0227 157.146 52.8478C157.388 52.6759 157.693 52.5897 158.061 52.5891C157.941 52.501 157.847 52.3851 157.777 52.2415C157.711 52.0956 157.695 51.9445 157.729 51.7883C157.769 51.605 157.854 51.4581 157.985 51.3476C158.119 51.2347 158.304 51.1371 158.538 51.0549C158.3 50.8913 158.128 50.668 158.023 50.3848C157.918 50.0987 157.902 49.7874 157.975 49.4509C158.052 49.0934 158.193 48.8043 158.398 48.5838C158.606 48.3639 158.867 48.2182 159.181 48.1465C159.495 48.0748 159.857 48.0823 160.266 48.1689C160.356 48.188 160.448 48.2122 160.543 48.2416C160.638 48.268 160.727 48.298 160.811 48.3315C160.895 48.365 160.962 48.395 161.013 48.4214L162.727 48.7845L162.611 49.3208L161.698 49.2687C161.761 49.4014 161.802 49.5515 161.822 49.7192C161.843 49.8869 161.833 50.0639 161.793 50.2502C161.683 50.7549 161.424 51.1179 161.015 51.3391C160.609 51.5579 160.102 51.603 159.495 51.4743C159.354 51.4414 159.214 51.3991 159.074 51.3475C158.929 51.3952 158.813 51.4571 158.727 51.5332C158.642 51.6064 158.588 51.7 158.563 51.8142C158.544 51.9013 158.557 51.9779 158.603 52.0441C158.651 52.1109 158.728 52.1697 158.834 52.2203C158.94 52.2679 159.072 52.3085 159.232 52.3423L160.098 52.5257C160.639 52.6404 161.029 52.8425 161.269 53.132C161.508 53.4214 161.58 53.7855 161.486 54.2241C161.365 54.78 161.044 55.1597 160.522 55.3633C160 55.5669 159.309 55.5777 158.449 55.3955ZM158.624 54.7397C159.012 54.8219 159.344 54.8513 159.619 54.8279C159.898 54.8052 160.119 54.7358 160.282 54.6196C160.446 54.5034 160.549 54.3462 160.592 54.1479C160.631 53.9676 160.617 53.8202 160.55 53.7056C160.486 53.5946 160.374 53.5048 160.212 53.4361C160.051 53.3673 159.847 53.3069 159.601 53.2546L158.78 53.0807C158.569 53.0362 158.379 53.0303 158.208 53.0633C158.037 53.0963 157.895 53.1651 157.781 53.2699C157.667 53.3776 157.59 53.5231 157.55 53.7063C157.496 53.9557 157.562 54.1691 157.747 54.3465C157.935 54.5246 158.227 54.6556 158.624 54.7397ZM159.669 50.8655C160.003 50.9362 160.271 50.9019 160.474 50.7627C160.678 50.6205 160.815 50.3856 160.886 50.0581C160.962 49.7066 160.935 49.4244 160.805 49.2115C160.675 48.9985 160.444 48.857 160.113 48.787C159.792 48.7188 159.525 48.7582 159.314 48.9052C159.107 49.0498 158.966 49.2963 158.89 49.6449C158.821 49.9663 158.853 50.2338 158.986 50.4474C159.119 50.658 159.347 50.7973 159.669 50.8655ZM165.013 47.1338L164.596 49.0626C164.563 49.2158 164.526 49.3651 164.486 49.5104C164.445 49.6557 164.408 49.7767 164.374 49.8733L164.428 49.8847C164.571 49.7328 164.732 49.6159 164.91 49.5343C165.091 49.4502 165.286 49.4003 165.494 49.3847C165.705 49.3666 165.921 49.3808 166.14 49.4273C166.528 49.5095 166.842 49.642 167.083 49.8249C167.323 50.0078 167.484 50.2475 167.564 50.5442C167.645 50.8379 167.64 51.1966 167.549 51.6202L166.849 54.856L165.952 54.6658L166.625 51.5518C166.71 51.1552 166.687 50.8393 166.556 50.604C166.425 50.3658 166.179 50.2085 165.818 50.132C165.475 50.0594 165.187 50.0705 164.952 50.1654C164.719 50.2573 164.53 50.4262 164.385 50.6721C164.241 50.9181 164.127 51.2333 164.044 51.6179L163.498 54.1461L162.591 53.954L164.107 46.9417L165.013 47.1338Z" fill="white"/>
<path d="M184.143 59.2607C183.592 59.7831 183.035 60.119 182.471 60.2684C181.909 60.4156 181.35 60.3864 180.794 60.1807C180.243 59.975 179.705 59.5996 179.181 59.0544L177.9 57.7214L182.791 53.0835L184.216 54.5661C184.693 55.0626 185.014 55.5781 185.178 56.1127C185.345 56.6453 185.345 57.1794 185.177 57.715C185.012 58.2485 184.667 58.7637 184.143 59.2607ZM183.436 58.565C183.856 58.1674 184.136 57.772 184.279 57.3789C184.421 56.9857 184.432 56.5959 184.312 56.2096C184.195 55.8212 183.954 55.4376 183.59 55.0586L182.871 54.3106L179.137 57.8509L179.741 58.4792C180.343 59.1064 180.953 59.426 181.57 59.4382C182.188 59.4504 182.809 59.1593 183.436 58.565ZM187.692 60.4514C188.127 60.9035 188.35 61.3377 188.362 61.754C188.376 62.1682 188.166 62.5814 187.731 62.9938L185.239 65.3572L184.778 64.8785L185.189 64.2413L185.164 64.2147C184.932 64.2396 184.718 64.239 184.522 64.2128C184.327 64.1866 184.136 64.1215 183.951 64.0175C183.768 63.9158 183.576 63.7607 183.376 63.5524C183.163 63.3308 183.014 63.0955 182.928 62.8465C182.842 62.5975 182.831 62.347 182.896 62.095C182.965 61.8431 183.125 61.5987 183.375 61.3619C183.749 61.0066 184.171 60.8799 184.64 60.9818C185.109 61.0837 185.631 61.4165 186.207 61.9802L186.841 62.5864L187.048 62.3897C187.336 62.1169 187.477 61.8602 187.472 61.6196C187.469 61.3811 187.357 61.1478 187.138 60.9195C186.957 60.7312 186.756 60.577 186.534 60.457C186.314 60.3349 186.09 60.23 185.86 60.1424L186.144 59.4665C186.4 59.5547 186.663 59.68 186.934 59.8423C187.207 60.0068 187.46 60.2099 187.692 60.4514ZM186.393 62.9985L185.877 62.5088C185.455 62.1003 185.097 61.8699 184.804 61.8176C184.515 61.7654 184.258 61.8461 184.032 62.0597C183.836 62.2458 183.749 62.4409 183.77 62.6451C183.792 62.8492 183.895 63.0477 184.08 63.2405C184.366 63.5375 184.684 63.702 185.034 63.7339C185.389 63.766 185.731 63.6255 186.062 63.3125L186.393 62.9985ZM191.817 64.7365C192.224 65.1598 192.429 65.586 192.432 66.015C192.437 66.4463 192.203 66.8862 191.73 67.3345L189.328 69.6122L188.692 68.9507L191.004 66.7586C191.299 66.4795 191.458 66.2058 191.481 65.9377C191.507 65.6675 191.393 65.3994 191.137 65.1335C190.773 64.7545 190.404 64.5954 190.032 64.656C189.662 64.7189 189.263 64.9534 188.835 65.3595L186.954 67.1423L186.312 66.4741L189.999 62.9783L190.507 63.5068L190.081 64.0949L190.116 64.1315C190.32 64.0864 190.523 64.0824 190.725 64.1196C190.927 64.1568 191.12 64.2285 191.303 64.3346C191.49 64.4407 191.661 64.5747 191.817 64.7365ZM189.752 73.3271C189.282 72.8373 189.01 72.3749 188.937 71.9399C188.866 71.5071 188.993 71.1373 189.316 70.8307C189.546 70.6129 189.81 70.4998 190.109 70.4916C190.406 70.4855 190.707 70.5857 191.012 70.7921C190.963 70.6523 190.95 70.5036 190.973 70.3459C191.001 70.1884 191.073 70.0547 191.189 69.9447C191.325 69.8157 191.478 69.7423 191.649 69.7246C191.824 69.707 192.031 69.7303 192.272 69.7943C192.167 69.5254 192.151 69.2444 192.223 68.9515C192.297 68.6563 192.46 68.3904 192.709 68.1535C192.975 67.9018 193.255 67.7426 193.548 67.6757C193.844 67.6111 194.143 67.6375 194.443 67.755C194.744 67.8725 195.039 68.0819 195.328 68.3833C195.392 68.4498 195.455 68.5217 195.516 68.599C195.58 68.6741 195.637 68.7491 195.688 68.8239C195.739 68.8988 195.777 68.9614 195.805 69.0119L197.019 70.2751L196.621 70.6526L195.894 70.0962C195.871 70.2409 195.821 70.3881 195.743 70.538C195.665 70.6878 195.557 70.8283 195.419 70.9595C195.044 71.3148 194.625 71.4686 194.162 71.421C193.702 71.3735 193.258 71.1259 192.827 70.6783C192.73 70.572 192.637 70.4583 192.551 70.3371C192.403 70.2946 192.273 70.2808 192.159 70.2955C192.047 70.308 191.949 70.3545 191.865 70.4349C191.8 70.4962 191.768 70.567 191.768 70.6471C191.77 70.7295 191.801 70.8212 191.86 70.9223C191.921 71.0212 192.008 71.1294 192.121 71.2468L192.734 71.8851C193.117 72.284 193.327 72.6702 193.362 73.0437C193.396 73.4172 193.251 73.7583 192.925 74.067C192.513 74.4583 192.033 74.5912 191.486 74.4659C190.939 74.3405 190.361 73.9609 189.752 73.3271ZM190.266 72.884C190.541 73.1699 190.799 73.3806 191.04 73.5163C191.284 73.6541 191.506 73.721 191.707 73.717C191.907 73.713 192.081 73.6412 192.229 73.5016C192.362 73.3747 192.434 73.2453 192.444 73.1133C192.453 72.9857 192.411 72.8482 192.316 72.7009C192.221 72.5535 192.086 72.389 191.912 72.2072L191.33 71.6022C191.181 71.4471 191.027 71.3352 190.867 71.2665C190.707 71.1977 190.551 71.1746 190.397 71.1971C190.242 71.2216 190.096 71.2984 189.96 71.4274C189.775 71.6029 189.709 71.8159 189.762 72.0663C189.817 72.3189 189.985 72.5915 190.266 72.884ZM193.315 70.2736C193.551 70.5196 193.793 70.6422 194.039 70.6414C194.288 70.6385 194.534 70.5218 194.777 70.2913C195.038 70.0438 195.175 69.7957 195.187 69.5468C195.199 69.2979 195.088 69.0516 194.854 68.8078C194.626 68.5707 194.383 68.4535 194.126 68.4562C193.873 68.4589 193.617 68.583 193.358 68.8283C193.119 69.0546 192.995 69.2933 192.985 69.5444C192.977 69.7934 193.087 70.0364 193.315 70.2736ZM199.127 72.3424C199.434 72.6615 199.628 73.0007 199.709 73.3601C199.792 73.7174 199.767 74.0754 199.635 74.4342C199.502 74.7929 199.266 75.133 198.927 75.4545L198.546 75.8161L196.156 73.3296C195.767 73.7106 195.561 74.099 195.537 74.495C195.514 74.8888 195.673 75.2619 196.011 75.6142C196.235 75.8469 196.456 76.033 196.676 76.1724C196.895 76.3118 197.142 76.4378 197.416 76.5504L196.851 77.0865C196.589 76.9829 196.35 76.856 196.133 76.7058C195.916 76.5599 195.684 76.3585 195.437 76.1014C195.096 75.7468 194.868 75.3678 194.753 74.9643C194.641 74.563 194.652 74.1559 194.788 73.7431C194.927 73.3281 195.201 72.9261 195.611 72.5369C196.017 72.152 196.429 71.8908 196.847 71.7531C197.267 71.6134 197.672 71.5935 198.062 71.6936C198.453 71.7937 198.808 72.0099 199.127 72.3424ZM198.602 72.8339C198.342 72.5635 198.044 72.4309 197.708 72.4361C197.374 72.4392 197.028 72.5829 196.671 72.867L198.402 74.6688C198.603 74.4741 198.751 74.2728 198.845 74.0648C198.939 73.8568 198.969 73.6484 198.935 73.4396C198.902 73.2331 198.791 73.0311 198.602 72.8339ZM203.166 76.5442C203.229 76.6107 203.294 76.6869 203.36 76.773C203.428 76.8569 203.483 76.9318 203.525 76.9978L202.832 77.5212C202.794 77.4553 202.746 77.3827 202.686 77.3033C202.629 77.2262 202.572 77.1577 202.515 77.0978C202.378 76.956 202.222 76.8462 202.044 76.7684C201.867 76.6906 201.681 76.6516 201.484 76.6514C201.29 76.649 201.093 76.69 200.893 76.7741C200.694 76.8562 200.501 76.9861 200.314 77.1637L198.363 79.0131L197.718 78.3416L201.405 74.8458L201.923 75.3843L201.334 76.0954L201.362 76.1253C201.569 76.0738 201.779 76.0483 201.992 76.0489C202.208 76.0518 202.416 76.0924 202.615 76.1706C202.818 76.249 203.002 76.3735 203.166 76.5442ZM181.206 71.9126C180.902 72.2003 180.593 72.4173 180.278 72.5638C179.967 72.7104 179.656 72.7866 179.346 72.7924C179.041 72.7983 178.743 72.7373 178.454 72.6092C178.167 72.479 177.896 72.281 177.64 72.015C177.401 71.7668 177.224 71.4984 177.109 71.2097C176.998 70.9211 176.951 70.6243 176.969 70.3192C176.99 70.012 177.079 69.7053 177.236 69.3992C177.396 69.0909 177.628 68.7929 177.931 68.5053C178.335 68.1225 178.744 67.8655 179.16 67.7343C179.577 67.601 179.982 67.592 180.374 67.7073C180.771 67.8227 181.139 68.0577 181.48 68.4122C181.804 68.7491 182.014 69.1158 182.109 69.5124C182.205 69.9089 182.179 70.3124 182.032 70.7228C181.885 71.1332 181.61 71.5298 181.206 71.9126ZM178.589 69.1901C178.306 69.4587 178.096 69.7257 177.959 69.9912C177.826 70.2568 177.776 70.5156 177.81 70.7677C177.845 71.0221 177.977 71.2678 178.205 71.5049C178.429 71.7376 178.667 71.8775 178.922 71.9246C179.176 71.9716 179.438 71.9344 179.709 71.8129C179.983 71.6892 180.261 71.4931 180.544 71.2245C180.826 70.958 181.032 70.6942 181.165 70.4329C181.298 70.1717 181.345 69.9149 181.307 69.6627C181.272 69.4127 181.139 69.1681 180.909 68.9287C180.572 68.5786 180.207 68.4336 179.813 68.4938C179.423 68.554 179.015 68.7861 178.589 69.1901ZM186.925 74.21L183.237 77.7059L182.723 77.1707L183.139 76.5986L183.104 76.562C182.904 76.6072 182.704 76.6101 182.505 76.5708C182.305 76.5315 182.112 76.4577 181.927 76.3494C181.742 76.2411 181.57 76.1039 181.41 75.9376C181.14 75.6562 180.956 75.3724 180.861 75.0864C180.767 74.8025 180.769 74.5166 180.867 74.2285C180.97 73.9406 181.178 73.6486 181.49 73.3525L183.902 71.0653L184.548 71.7368L182.229 73.9352C181.932 74.2164 181.771 74.49 181.745 74.7559C181.721 75.024 181.835 75.2889 182.087 75.5504C182.332 75.8052 182.576 75.9593 182.819 76.0126C183.066 76.066 183.318 76.0329 183.574 75.9132C183.834 75.7935 184.106 75.5994 184.389 75.3308L186.279 73.5385L186.925 74.21ZM187.69 80.289C187.451 80.5153 187.193 80.648 186.915 80.687C186.641 80.7262 186.357 80.6741 186.061 80.5307C185.766 80.3873 185.469 80.1605 185.171 79.8503C184.923 79.5932 184.731 79.3525 184.592 79.1283C184.451 78.9062 184.345 78.6849 184.273 78.4644L184.869 77.8998C184.946 78.1356 185.057 78.3884 185.202 78.6582C185.346 78.9281 185.516 79.165 185.712 79.3688C185.987 79.6547 186.23 79.8175 186.443 79.8571C186.658 79.8989 186.844 79.8458 187 79.6978C187.091 79.6111 187.147 79.5094 187.167 79.3929C187.19 79.2743 187.174 79.1179 187.119 78.9238C187.069 78.7298 186.976 78.4709 186.84 78.147C186.708 77.8276 186.607 77.5415 186.539 77.2885C186.473 77.0378 186.463 76.8079 186.509 76.5989C186.555 76.3898 186.681 76.1879 186.886 75.9934C187.205 75.6909 187.57 75.5867 187.98 75.6808C188.395 75.7749 188.802 76.0303 189.202 76.4469C189.415 76.6685 189.593 76.898 189.736 77.1353C189.881 77.3749 190 77.6224 190.092 77.8781L189.366 78.1537C189.281 77.9286 189.181 77.7107 189.063 77.4999C188.948 77.2871 188.807 77.0931 188.639 76.9181C188.419 76.6898 188.214 76.5496 188.023 76.4975C187.835 76.4476 187.676 76.484 187.546 76.6067C187.446 76.7019 187.389 76.8089 187.375 76.9277C187.364 77.0488 187.389 77.2065 187.453 77.4008C187.518 77.593 187.616 77.8433 187.746 78.1518C187.876 78.456 187.974 78.7324 188.038 78.9809C188.104 79.2316 188.114 79.4636 188.067 79.6771C188.021 79.8905 187.895 80.0945 187.69 80.289Z" fill="white"/>
<path d="M205.612 100.153L205.36 99.2422L208.362 98.4227L207.476 95.2188L204.473 96.0383L204.221 95.1273L210.724 93.3524L210.976 94.2634L208.263 95.0039L209.15 98.2078L211.863 97.4673L212.115 98.3782L205.612 100.153ZM211.569 102.303C211.737 102.907 211.727 103.396 211.54 103.769C211.356 104.141 210.974 104.406 210.396 104.563L207.082 105.468L206.905 104.828L207.569 104.46L207.559 104.425C207.344 104.337 207.156 104.235 206.996 104.12C206.837 104.004 206.7 103.856 206.587 103.677C206.474 103.501 206.38 103.273 206.302 102.995C206.221 102.699 206.201 102.42 206.244 102.16C206.287 101.9 206.396 101.674 206.573 101.482C206.753 101.293 207.01 101.153 207.342 101.062C207.84 100.926 208.271 101.014 208.635 101.326C208.998 101.638 209.299 102.178 209.538 102.948L209.807 103.783L210.083 103.707C210.465 103.603 210.711 103.443 210.821 103.229C210.931 103.017 210.944 102.759 210.86 102.453C210.79 102.202 210.687 101.97 210.548 101.759C210.413 101.548 210.266 101.349 210.106 101.163L210.677 100.702C210.859 100.9 211.031 101.135 211.192 101.407C211.354 101.681 211.48 101.98 211.569 102.303ZM209.217 103.934L208.997 103.258C208.82 102.698 208.615 102.325 208.382 102.141C208.152 101.958 207.888 101.907 207.589 101.989C207.328 102.06 207.158 102.191 207.08 102.381C207.002 102.571 206.998 102.795 207.07 103.053C207.18 103.45 207.381 103.746 207.674 103.94C207.97 104.136 208.338 104.174 208.777 104.054L209.217 103.934ZM208.384 110.174L207.376 106.53L207.946 106.375L212.297 107.959L211.628 105.541L212.322 105.352L213.269 108.774L212.637 108.946L208.355 107.386L209.074 109.986L208.384 110.174ZM214.193 111.786C214.36 112.39 214.35 112.879 214.163 113.251C213.979 113.624 213.598 113.888 213.02 114.046L209.706 114.951L209.529 114.311L210.193 113.943L210.183 113.908C209.967 113.82 209.78 113.718 209.62 113.603C209.461 113.487 209.324 113.339 209.211 113.16C209.098 112.984 209.003 112.756 208.926 112.478C208.844 112.181 208.825 111.903 208.868 111.643C208.91 111.383 209.02 111.157 209.197 110.965C209.377 110.776 209.633 110.636 209.965 110.545C210.464 110.409 210.895 110.497 211.258 110.809C211.622 111.121 211.923 111.661 212.162 112.431L212.431 113.266L212.707 113.19C213.089 113.086 213.335 112.926 213.445 112.712C213.555 112.5 213.568 112.241 213.484 111.936C213.414 111.684 213.31 111.453 213.172 111.242C213.037 111.031 212.89 110.832 212.73 110.646L213.301 110.185C213.483 110.383 213.655 110.618 213.816 110.89C213.978 111.164 214.104 111.463 214.193 111.786ZM211.841 113.417L211.621 112.741C211.443 112.181 211.238 111.808 211.005 111.623C210.776 111.441 210.512 111.39 210.212 111.472C209.951 111.543 209.782 111.674 209.704 111.864C209.626 112.054 209.622 112.278 209.693 112.536C209.803 112.933 210.005 113.228 210.298 113.422C210.594 113.619 210.962 113.657 211.401 113.537L211.841 113.417ZM215.762 117.437C215.786 117.526 215.807 117.624 215.824 117.731C215.844 117.837 215.856 117.929 215.862 118.007L215.004 118.141C215.002 118.065 214.994 117.978 214.98 117.88C214.966 117.785 214.949 117.697 214.926 117.617C214.874 117.427 214.788 117.256 214.67 117.104C214.551 116.952 214.405 116.829 214.233 116.736C214.063 116.642 213.871 116.585 213.654 116.564C213.441 116.542 213.21 116.566 212.961 116.634L210.368 117.341L210.119 116.444L215.021 115.106L215.22 115.826L214.365 116.174L214.376 116.214C214.581 116.266 214.778 116.343 214.966 116.445C215.154 116.55 215.317 116.684 215.455 116.847C215.596 117.012 215.698 117.209 215.762 117.437ZM211.556 121.983C211.391 121.384 211.47 120.848 211.795 120.374C212.121 119.903 212.7 119.553 213.534 119.326C214.376 119.096 215.062 119.103 215.592 119.347C216.125 119.593 216.476 120.017 216.642 120.619C216.712 120.87 216.739 121.1 216.723 121.309C216.707 121.517 216.662 121.704 216.587 121.871C216.513 122.041 216.417 122.192 216.3 122.323L216.315 122.376C216.403 122.336 216.528 122.286 216.69 122.226C216.851 122.166 216.995 122.119 217.119 122.085L218.983 121.576L219.23 122.469L212.309 124.358L212.114 123.652L212.754 123.319L212.742 123.279C212.576 123.229 212.414 123.151 212.256 123.044C212.103 122.939 211.966 122.8 211.844 122.626C211.723 122.455 211.627 122.241 211.556 121.983ZM212.343 121.993C212.477 122.475 212.711 122.778 213.044 122.9C213.379 123.026 213.821 123.015 214.37 122.868L214.508 122.831C215.092 122.671 215.513 122.453 215.771 122.175C216.033 121.9 216.094 121.507 215.953 120.998C215.838 120.583 215.588 120.315 215.204 120.194C214.823 120.072 214.344 120.089 213.769 120.246C213.2 120.402 212.79 120.626 212.54 120.921C212.292 121.215 212.227 121.572 212.343 121.993ZM200.3 108.892C199.896 109.002 199.521 109.047 199.174 109.027C198.831 109.009 198.522 108.929 198.247 108.787C197.976 108.648 197.743 108.453 197.55 108.204C197.359 107.953 197.215 107.65 197.116 107.294C197.025 106.962 196.997 106.642 197.032 106.333C197.072 106.026 197.172 105.742 197.332 105.481C197.496 105.22 197.72 104.992 198.004 104.796C198.291 104.6 198.636 104.447 199.039 104.337C199.576 104.19 200.058 104.157 200.486 104.238C200.916 104.318 201.276 104.502 201.566 104.789C201.86 105.079 202.072 105.461 202.203 105.934C202.328 106.385 202.338 106.807 202.234 107.202C202.129 107.597 201.915 107.941 201.591 108.233C201.267 108.526 200.836 108.745 200.3 108.892ZM199.293 105.252C198.916 105.355 198.604 105.491 198.358 105.66C198.115 105.832 197.948 106.036 197.858 106.275C197.769 106.516 197.768 106.795 197.855 107.112C197.941 107.423 198.085 107.659 198.286 107.821C198.487 107.983 198.736 108.074 199.032 108.095C199.331 108.116 199.668 108.075 200.045 107.972C200.419 107.87 200.726 107.735 200.966 107.567C201.207 107.4 201.371 107.196 201.457 106.955C201.545 106.718 201.544 106.439 201.456 106.119C201.326 105.651 201.074 105.351 200.699 105.217C200.328 105.086 199.859 105.098 199.293 105.252ZM204.235 113.624L199.334 114.962L199.136 114.247L199.773 113.939L199.759 113.89C199.563 113.835 199.386 113.744 199.229 113.614C199.072 113.485 198.938 113.329 198.826 113.146C198.715 112.963 198.629 112.76 198.567 112.538C198.463 112.162 198.437 111.825 198.489 111.527C198.541 111.232 198.679 110.981 198.902 110.774C199.129 110.568 199.45 110.409 199.865 110.296L203.072 109.42L203.321 110.318L200.238 111.159C199.844 111.267 199.572 111.432 199.423 111.654C199.275 111.88 199.249 112.167 199.346 112.517C199.44 112.857 199.581 113.109 199.77 113.271C199.962 113.435 200.199 113.525 200.481 113.54C200.766 113.558 201.097 113.515 201.474 113.413L203.987 112.727L204.235 113.624ZM202.02 119.347C201.703 119.434 201.413 119.429 201.15 119.332C200.891 119.237 200.666 119.056 200.474 118.79C200.282 118.523 200.129 118.183 200.014 117.768C199.919 117.424 199.864 117.121 199.849 116.858C199.83 116.595 199.842 116.35 199.884 116.121L200.676 115.905C200.632 116.15 200.609 116.425 200.608 116.732C200.606 117.038 200.643 117.327 200.719 117.6C200.825 117.982 200.962 118.241 201.13 118.376C201.299 118.515 201.487 118.556 201.695 118.499C201.817 118.466 201.914 118.403 201.987 118.31C202.063 118.216 202.123 118.07 202.168 117.873C202.216 117.679 202.257 117.406 202.291 117.056C202.326 116.712 202.374 116.412 202.434 116.157C202.495 115.904 202.595 115.697 202.735 115.534C202.875 115.372 203.082 115.253 203.355 115.179C203.779 115.063 204.149 115.144 204.465 115.421C204.784 115.7 205.021 116.118 205.175 116.675C205.257 116.971 205.304 117.258 205.317 117.535C205.331 117.815 205.318 118.089 205.277 118.358L204.508 118.257C204.541 118.019 204.556 117.779 204.553 117.538C204.553 117.296 204.52 117.058 204.456 116.824C204.371 116.518 204.258 116.298 204.115 116.162C203.972 116.028 203.815 115.985 203.643 116.032C203.51 116.068 203.409 116.136 203.341 116.234C203.273 116.335 203.221 116.487 203.184 116.688C203.15 116.888 203.117 117.155 203.085 117.489C203.055 117.819 203.009 118.109 202.948 118.358C202.887 118.611 202.785 118.82 202.643 118.986C202.501 119.153 202.293 119.273 202.02 119.347Z" fill="white"/>
<path d="M109.873 13.2809L103.591 13.3228L103.582 12.0011L105.823 9.70534C106.275 9.2351 106.637 8.84333 106.909 8.53003C107.186 8.21261 107.385 7.92439 107.506 7.66538C107.631 7.40634 107.693 7.12928 107.691 6.8342C107.689 6.47765 107.586 6.21193 107.384 6.03704C107.187 5.85803 106.922 5.76963 106.59 5.77184C106.241 5.77416 105.904 5.85633 105.577 6.01835C105.25 6.18037 104.909 6.4101 104.555 6.70756L103.514 5.4911C103.771 5.26807 104.042 5.05724 104.327 4.85861C104.617 4.65996 104.952 4.49993 105.332 4.37854C105.717 4.25303 106.177 4.18848 106.714 4.1849C107.304 4.18097 107.811 4.28415 108.235 4.49445C108.663 4.70472 108.992 4.99351 109.224 5.36083C109.456 5.72405 109.574 6.13721 109.577 6.60032C109.58 7.09621 109.485 7.54973 109.291 7.96087C109.097 8.37201 108.813 8.77965 108.438 9.1838C108.068 9.58791 107.62 10.0356 107.095 10.5268L105.946 11.6226L105.947 11.7087L109.863 11.6826L109.873 13.2809ZM114.028 7.51126C114.577 7.5076 115.065 7.60886 115.493 7.81503C115.925 8.02117 116.265 8.32629 116.513 8.73038C116.762 9.13448 116.888 9.63365 116.892 10.2279C116.896 10.8754 116.765 11.4357 116.498 11.9089C116.234 12.3778 115.837 12.7391 115.306 12.9926C114.779 13.2462 114.12 13.3756 113.329 13.3808C112.858 13.384 112.413 13.3459 111.994 13.2668C111.58 13.1917 111.216 13.0732 110.904 12.9113L110.893 11.27C111.205 11.4318 111.579 11.5687 112.014 11.6805C112.454 11.7883 112.866 11.8408 113.251 11.8383C113.628 11.8358 113.946 11.7845 114.203 11.6844C114.461 11.5802 114.654 11.4232 114.784 11.2133C114.918 10.9993 114.984 10.7283 114.981 10.4005C114.978 9.96196 114.829 9.62688 114.532 9.39524C114.235 9.16361 113.782 9.04982 113.171 9.05389C112.938 9.05545 112.694 9.07962 112.44 9.12639C112.19 9.17314 111.982 9.21961 111.814 9.26581L111.055 8.86512L111.363 4.28303L116.238 4.25054L116.248 5.86117L113.039 5.88255L112.885 7.64797C113.024 7.61836 113.176 7.58866 113.339 7.55888C113.503 7.5291 113.733 7.51322 114.028 7.51126ZM124.204 8.69143C124.209 9.41683 124.156 10.0647 124.045 10.6352C123.938 11.2056 123.761 11.6904 123.513 12.0896C123.27 12.4887 122.948 12.7942 122.548 13.0059C122.148 13.2176 121.661 13.3253 121.087 13.3291C120.366 13.3339 119.772 13.1555 119.307 12.7938C118.841 12.4281 118.496 11.9017 118.27 11.2146C118.044 10.5235 117.928 9.6964 117.921 8.7333C117.915 7.762 118.01 6.93143 118.206 6.24158C118.406 5.5476 118.735 5.01466 119.191 4.64276C119.648 4.27085 120.259 4.08235 121.025 4.07724C121.743 4.07246 122.334 4.25295 122.8 4.61871C123.269 4.98034 123.619 5.50672 123.849 6.19783C124.079 6.88484 124.197 7.71604 124.204 8.69143ZM119.808 8.72072C119.813 9.40514 119.854 9.9766 119.931 10.4351C120.011 10.8895 120.143 11.2309 120.325 11.4592C120.507 11.6875 120.757 11.8005 121.077 11.7984C121.393 11.7963 121.64 11.682 121.819 11.4554C122.001 11.2246 122.13 10.8815 122.205 10.4261C122.28 9.96658 122.315 9.39256 122.31 8.70405C122.306 8.01963 122.263 7.44818 122.182 6.98969C122.101 6.5312 121.968 6.18782 121.782 5.95954C121.6 5.72714 121.351 5.61199 121.036 5.6141C120.716 5.61623 120.467 5.7347 120.288 5.9695C120.109 6.20021 119.982 6.54532 119.908 7.00485C119.837 7.46435 119.804 8.03631 119.808 8.72072ZM129.906 8.23421L129.939 13.1472L128.924 13.154L128.731 12.496L128.665 12.4965C128.587 12.6611 128.495 12.7994 128.391 12.9114C128.286 13.0234 128.166 13.1077 128.032 13.1643C127.898 13.2209 127.744 13.2497 127.571 13.2509C127.392 13.2521 127.23 13.2194 127.083 13.153C126.939 13.0837 126.819 12.9863 126.725 12.861L126.698 12.8612C126.708 12.9226 126.716 13.0178 126.722 13.1467C126.729 13.2726 126.734 13.4059 126.738 13.5465C126.745 13.69 126.749 13.8159 126.749 13.9243L126.759 15.3305L125.419 15.3395L125.371 8.26443L126.712 8.2555L126.731 11.1251C126.733 11.4766 126.799 11.7413 126.929 11.9192C127.06 12.097 127.262 12.185 127.538 12.1832C127.804 12.1814 128.013 12.1185 128.165 11.9944C128.319 11.8674 128.428 11.6836 128.491 11.4429C128.554 11.1993 128.584 10.9032 128.582 10.5546L128.566 8.24314L129.906 8.23421ZM132.797 15.2903C132.111 15.2949 131.586 15.1783 131.221 14.9404C130.859 14.7055 130.677 14.3728 130.674 13.9421C130.672 13.6462 130.763 13.3981 130.946 13.1976C131.129 12.9972 131.399 12.8533 131.756 12.7659C131.618 12.7083 131.497 12.6138 131.394 12.4827C131.29 12.3486 131.238 12.2069 131.237 12.0575C131.236 11.87 131.289 11.7143 131.397 11.5906C131.504 11.4639 131.66 11.3398 131.864 11.2183C131.606 11.1087 131.4 10.9314 131.246 10.6863C131.095 10.4412 131.018 10.1517 131.016 9.81767C131.013 9.46026 131.089 9.15653 131.242 8.90647C131.399 8.65347 131.626 8.46006 131.924 8.32624C132.225 8.19239 132.591 8.12404 133.021 8.12117C133.112 8.12056 133.218 8.12572 133.338 8.13663C133.458 8.14755 133.568 8.16 133.668 8.17399C133.77 8.18795 133.839 8.19921 133.875 8.20777L135.588 8.19635L135.593 8.87748L134.825 9.08036C134.896 9.18829 134.95 9.30365 134.986 9.42646C135.022 9.54927 135.04 9.67953 135.041 9.81722C135.045 10.3445 134.863 10.7574 134.496 11.0557C134.131 11.3511 133.623 11.501 132.969 11.5054C132.814 11.4976 132.667 11.4869 132.53 11.4732C132.463 11.5263 132.412 11.5823 132.377 11.6412C132.342 11.7 132.325 11.7616 132.325 11.8261C132.326 11.8905 132.353 11.9446 132.406 11.9881C132.462 12.0288 132.544 12.0605 132.652 12.0832C132.764 12.103 132.902 12.1123 133.066 12.1112L133.901 12.1056C134.44 12.102 134.851 12.215 135.133 12.4446C135.419 12.6741 135.563 13.013 135.566 13.4613C135.57 14.0355 135.333 14.4824 134.855 14.802C134.379 15.1216 133.693 15.2843 132.797 15.2903ZM132.848 14.4154C133.167 14.4133 133.441 14.3807 133.669 14.3177C133.9 14.2575 134.077 14.1714 134.199 14.0592C134.322 13.95 134.382 13.8193 134.381 13.6669C134.38 13.5439 134.343 13.446 134.269 13.3732C134.199 13.3034 134.09 13.2543 133.943 13.226C133.799 13.1976 133.615 13.1842 133.389 13.1857L132.695 13.1903C132.531 13.1914 132.383 13.2188 132.252 13.2724C132.123 13.326 132.021 13.3999 131.945 13.4942C131.87 13.5914 131.833 13.7029 131.833 13.8289C131.835 14.0135 131.923 14.1579 132.1 14.2622C132.279 14.3665 132.529 14.4176 132.848 14.4154ZM133.039 10.6875C133.291 10.6858 133.475 10.607 133.591 10.4509C133.707 10.2949 133.764 10.0835 133.762 9.81695C133.76 9.52106 133.697 9.30028 133.573 9.15462C133.452 9.00601 133.27 8.93252 133.027 8.93414C132.781 8.93578 132.597 9.01171 132.475 9.16194C132.353 9.30924 132.293 9.53084 132.295 9.82673C132.296 10.0933 132.358 10.3039 132.479 10.4583C132.603 10.6128 132.79 10.6892 133.039 10.6875ZM139.362 6.65945L137.01 13.1001L135.793 13.1082L138.145 6.66756L139.362 6.65945ZM145.888 8.03542C146.445 8.03171 146.866 8.17246 147.152 8.45767C147.441 8.73993 147.588 9.196 147.592 9.82587L147.614 13.0294L146.269 13.0384L146.25 10.1688C146.247 9.81725 146.186 9.55252 146.064 9.37461C145.943 9.19671 145.756 9.10859 145.504 9.11027C145.15 9.11263 144.899 9.24175 144.751 9.49762C144.603 9.75057 144.531 10.1129 144.534 10.5845L144.551 13.0498L143.21 13.0588L143.191 10.1892C143.19 9.95482 143.162 9.75871 143.108 9.60086C143.054 9.44301 142.973 9.3249 142.864 9.24652C142.755 9.16814 142.616 9.12952 142.446 9.13065C142.197 9.13231 142.001 9.19661 141.858 9.32354C141.718 9.44752 141.619 9.63129 141.559 9.87486C141.502 10.1155 141.474 10.4101 141.477 10.7587L141.492 13.0702L140.152 13.0791L140.119 8.16616L141.143 8.15933L141.327 8.78654L141.402 8.78604C141.501 8.61546 141.624 8.47693 141.773 8.37047C141.924 8.26399 142.091 8.18524 142.272 8.13423C142.454 8.08321 142.638 8.05708 142.825 8.05583C143.186 8.05343 143.491 8.10999 143.741 8.22552C143.993 8.34103 144.188 8.52137 144.324 8.76656L144.443 8.76577C144.588 8.51285 144.793 8.32837 145.059 8.21234C145.328 8.09629 145.604 8.03732 145.888 8.03542ZM149.896 5.33678C150.262 5.33434 150.566 5.42461 150.807 5.60757C151.049 5.78761 151.171 6.03289 151.173 6.34343C151.174 6.54851 151.115 6.72469 150.996 6.87197C150.88 7.01923 150.692 7.13621 150.431 7.2229L150.432 7.27564C150.728 7.33812 150.947 7.45385 151.089 7.62283C151.234 7.79179 151.307 7.98027 151.308 8.18828C151.31 8.54276 151.183 8.8234 150.927 9.03019C150.67 9.23405 150.27 9.3378 149.725 9.34143C149.502 9.34291 149.294 9.3194 149.1 9.27088C148.907 9.22237 148.714 9.14748 148.523 9.04621L148.518 8.20687C148.712 8.32277 148.906 8.41669 149.099 8.48864C149.293 8.5606 149.497 8.59586 149.711 8.59443C149.928 8.59299 150.086 8.55239 150.185 8.47262C150.287 8.39284 150.337 8.27678 150.336 8.12444C150.336 8.00432 150.284 7.89627 150.18 7.80027C150.08 7.70426 149.888 7.6572 149.604 7.65909L149.112 7.66237L149.107 6.96366L149.511 6.96096C149.816 6.95893 150.012 6.90782 150.099 6.80763C150.186 6.70744 150.229 6.59728 150.229 6.47717C150.228 6.36584 150.191 6.2738 150.117 6.20105C150.043 6.1283 149.932 6.09242 149.782 6.09342C149.645 6.09433 149.514 6.12303 149.392 6.17952C149.269 6.236 149.125 6.32339 148.958 6.44169L148.51 5.82503C148.691 5.68613 148.891 5.57053 149.11 5.47825C149.332 5.38595 149.594 5.33879 149.896 5.33678Z" fill="white"/>
<path d="M45.6738 40.6118L44.1117 41.6927L41.1524 37.4158C41.0708 37.2978 40.9722 37.1518 40.8567 36.9775C40.7388 36.8 40.6202 36.6178 40.501 36.4312C40.3795 36.2411 40.2708 36.0697 40.175 35.9167C40.1682 35.9862 40.1448 36.1145 40.1049 36.3016C40.066 36.483 40.0268 36.6497 39.9873 36.8016L39.6102 38.0717L38.2064 37.6526L39.2757 34.1093L40.5598 33.2208L45.6738 40.6118ZM50.3056 31.9423C50.7183 32.5388 51.0396 33.1039 51.2694 33.6377C51.5025 34.1691 51.6294 34.6694 51.65 35.1386C51.674 35.6054 51.5803 36.0391 51.369 36.4395C51.1576 36.8399 50.816 37.2033 50.3442 37.5298C49.751 37.9402 49.1602 38.1272 48.5718 38.0908C47.9811 38.051 47.3989 37.8109 46.8251 37.3706C46.249 36.927 45.687 36.3092 45.139 35.5171C44.5863 34.7184 44.1966 33.9788 43.97 33.2983C43.7444 32.6121 43.7154 31.9868 43.883 31.4223C44.0506 30.8578 44.4495 30.3575 45.0798 29.9214C45.6696 29.5133 46.2598 29.3292 46.8506 29.369C47.4423 29.4031 48.0279 29.6408 48.6074 30.0822C49.1845 30.5201 49.7506 31.1401 50.3056 31.9423ZM46.691 34.4433C47.0804 35.0061 47.4361 35.4553 47.7579 35.7908C48.0808 36.1206 48.3817 36.3285 48.6605 36.4147C48.9394 36.5008 49.2103 36.4529 49.4732 36.271C49.7327 36.0915 49.8725 35.8577 49.8925 35.5697C49.9136 35.276 49.8267 34.92 49.6319 34.5016C49.4347 34.0798 49.1403 33.5858 48.7485 33.0196C48.3591 32.4568 48.0018 32.0088 47.6766 31.6756C47.3513 31.3425 47.0476 31.134 46.7654 31.0502C46.4841 30.9607 46.2138 31.0057 45.9543 31.1853C45.6914 31.3672 45.5523 31.6055 45.5369 31.9002C45.5192 32.1915 45.6089 32.5481 45.8061 32.9699C46.0066 33.3893 46.3015 33.8804 46.691 34.4433ZM56.2305 27.8427C56.6433 28.4392 56.9645 29.0044 57.1943 29.5381C57.4275 30.0696 57.5543 30.5699 57.575 31.039C57.5989 31.5059 57.5053 31.9395 57.2939 32.3399C57.0825 32.7403 56.7409 33.1038 56.2691 33.4302C55.6759 33.8407 55.0852 34.0277 54.4968 33.9912C53.9061 33.9514 53.3238 33.7113 52.7501 33.2711C52.174 32.8274 51.6119 32.2096 51.0639 31.4176C50.5112 30.6188 50.1216 29.8792 49.895 29.1987C49.6694 28.5126 49.6404 27.8872 49.808 27.3227C49.9756 26.7582 50.3745 26.2579 51.0047 25.8219C51.5945 25.4138 52.1848 25.2296 52.7755 25.2694C53.3672 25.3035 53.9529 25.5413 54.5323 25.9826C55.1095 26.4205 55.6755 27.0406 56.2305 27.8427ZM52.6159 30.3437C53.0053 30.9065 53.361 31.3557 53.6828 31.6912C54.0057 32.021 54.3066 32.229 54.5855 32.3151C54.8644 32.4012 55.1352 32.3533 55.3981 32.1714C55.6576 31.9919 55.7974 31.7581 55.8174 31.4701C55.8385 31.1765 55.7516 30.8204 55.5568 30.402C55.3597 29.9802 55.0652 29.4863 54.6735 28.9201C54.284 28.3572 53.9267 27.9092 53.6015 27.5761C53.2763 27.2429 52.9725 27.0344 52.6903 26.9506C52.4091 26.8611 52.1387 26.9061 51.8792 27.0857C51.6163 27.2676 51.4772 27.5059 51.4618 27.8006C51.4441 28.0919 51.5338 28.4485 51.731 28.8703C51.9315 29.2897 52.2265 29.7809 52.6159 30.3437ZM60.6839 24.2516L63.4794 28.2918L62.6446 28.8694L62.1141 28.4349L62.0599 28.4724C62.0882 28.6523 62.0907 28.818 62.0673 28.9696C62.0439 29.1212 61.9926 29.2582 61.9135 29.3806C61.8343 29.5031 61.7237 29.6135 61.5816 29.7118C61.4346 29.8135 61.2817 29.8783 61.1229 29.9063C60.9648 29.9301 60.8114 29.9169 60.6627 29.8667L60.641 29.8817C60.6832 29.9273 60.7434 30.0014 60.8216 30.1041C60.8981 30.2043 60.9775 30.3115 61.06 30.4254C61.1465 30.5401 61.2205 30.6421 61.2822 30.7312L62.0824 31.8876L60.9802 32.6503L56.9544 26.832L58.0566 26.0694L59.6894 28.4292C59.8895 28.7183 60.0933 28.8997 60.301 28.9733C60.5087 29.0469 60.7258 29.0054 60.9523 28.8487C61.1715 28.697 61.3087 28.5272 61.364 28.3393C61.42 28.1474 61.4062 27.9343 61.3225 27.7001C61.2371 27.4634 61.0953 27.2018 60.8969 26.9151L59.5817 25.0142L60.6839 24.2516ZM67.0477 28.452C66.484 28.8421 65.9844 29.0417 65.549 29.0508C65.1176 29.0607 64.7794 28.8886 64.5344 28.5344C64.366 28.2911 64.301 28.035 64.3395 27.7662C64.3779 27.4973 64.5199 27.2263 64.7655 26.9531C64.6189 26.9832 64.4659 26.9733 64.3066 26.9232C64.1456 26.8707 64.0226 26.783 63.9376 26.6602C63.8309 26.506 63.7871 26.3475 63.8062 26.1846C63.8237 26.0193 63.8826 25.8289 63.9829 25.6135C63.7075 25.6686 63.4372 25.6384 63.1719 25.5227C62.909 25.4053 62.6825 25.2093 62.4925 24.9346C62.2891 24.6407 62.1804 24.3472 62.1664 24.0541C62.1532 23.7569 62.2319 23.469 62.4026 23.1906C62.5758 22.9105 62.8394 22.6479 63.1936 22.4028C63.2682 22.3512 63.3583 22.296 63.4637 22.2373C63.5692 22.1786 63.667 22.1269 63.7573 22.0823C63.8499 22.036 63.9132 22.0064 63.9471 21.9937L65.3565 21.0185L65.7441 21.5786L65.2242 22.1788C65.3437 22.2279 65.4529 22.2931 65.5518 22.3743C65.6508 22.4555 65.7394 22.5527 65.8177 22.6659C66.1178 23.0996 66.2002 23.5431 66.065 23.9964C65.9306 24.4457 65.5947 24.8563 65.0575 25.228C64.9248 25.3091 64.7977 25.3828 64.6761 25.4491C64.6507 25.5308 64.6402 25.6058 64.6446 25.674C64.649 25.7422 64.6696 25.8027 64.7063 25.8558C64.7429 25.9088 64.7955 25.9383 64.8638 25.9445C64.933 25.9465 65.0187 25.9263 65.1212 25.8839C65.2244 25.8375 65.3435 25.7675 65.4784 25.6742L66.165 25.1991C66.6083 24.8924 67.0115 24.7542 67.3744 24.7845C67.7398 24.8131 68.05 25.0117 68.3051 25.3803C68.6318 25.8525 68.6876 26.3554 68.4726 26.889C68.2599 27.4209 67.785 27.9419 67.0477 28.452ZM66.5971 27.7003C66.8597 27.5186 67.0675 27.3375 67.2204 27.1569C67.3774 26.977 67.4748 26.8063 67.5126 26.6447C67.5522 26.4856 67.5286 26.3433 67.4419 26.2181C67.3719 26.1169 67.2859 26.057 67.184 26.0385C67.0862 26.0206 66.9687 26.0414 66.8316 26.1006C66.6969 26.1582 66.5367 26.2512 66.3512 26.3795L65.7802 26.7746C65.6453 26.868 65.5387 26.9738 65.4603 27.0922C65.3843 27.2089 65.3416 27.3275 65.3323 27.4479C65.3247 27.5708 65.3567 27.684 65.4284 27.7876C65.5334 27.9394 65.6882 28.0086 65.8928 27.9953C66.0997 27.9804 66.3345 27.882 66.5971 27.7003ZM64.6538 24.5133C64.861 24.37 64.9686 24.2011 64.9766 24.0067C64.9847 23.8124 64.9128 23.6056 64.7611 23.3863C64.5928 23.143 64.4163 22.9961 64.2318 22.9457C64.048 22.8911 63.8561 22.933 63.6561 23.0714C63.4538 23.2114 63.3445 23.3779 63.3283 23.5708C63.3105 23.7612 63.3857 23.9781 63.5541 24.2215C63.7058 24.4407 63.8752 24.58 64.0623 24.6393C64.2519 24.697 64.449 24.655 64.6538 24.5133ZM67.6079 17.6224L69.294 24.2686L68.293 24.9612L66.6068 18.3151L67.6079 17.6224ZM73.7748 15.0815C74.2325 14.7648 74.6599 14.6436 75.057 14.718C75.4548 14.7884 75.8329 15.0825 76.1913 15.6005L78.0141 18.235L76.9083 19.0001L75.2755 16.6403C75.0755 16.3512 74.8752 16.1673 74.6747 16.0887C74.4743 16.0101 74.2705 16.0425 74.0633 16.1858C73.7718 16.3875 73.6371 16.6357 73.6592 16.9303C73.6797 17.2225 73.8242 17.5625 74.0925 17.9504L75.4953 19.9778L74.3931 20.7404L72.7603 18.3806C72.6269 18.1879 72.4936 18.0414 72.3602 17.9414C72.2268 17.8413 72.093 17.7895 71.9589 17.7862C71.8247 17.7828 71.6878 17.8295 71.5481 17.9261C71.3433 18.0678 71.2177 18.2313 71.1713 18.4166C71.1257 18.5978 71.1468 18.8059 71.2345 19.0408C71.323 19.2717 71.4665 19.5305 71.6648 19.8172L72.9801 21.7181L71.8779 22.4807L69.0824 18.4405L69.9244 17.8579L70.4301 18.2721L70.4915 18.2296C70.4768 18.0332 70.5008 17.8491 70.5637 17.6774C70.6289 17.504 70.7221 17.3451 70.8431 17.2008C70.9642 17.0565 71.1018 16.931 71.256 16.8243C71.5523 16.6193 71.8362 16.4941 72.1076 16.4488C72.3815 16.4018 72.6439 16.4411 72.8947 16.5668L72.9923 16.4993C72.9694 16.2088 73.0351 15.9407 73.1893 15.695C73.3459 15.4477 73.5411 15.2432 73.7748 15.0815ZM75.5648 10.5939C75.8659 10.3855 76.1678 10.2889 76.4703 10.304C76.7712 10.3166 77.01 10.4507 77.1867 10.706C77.3034 10.8747 77.3541 11.0534 77.3386 11.2422C77.3256 11.4294 77.2361 11.632 77.07 11.8503L77.1 11.8936C77.38 11.7783 77.6262 11.7505 77.8385 11.8102C78.0532 11.8682 78.2198 11.9828 78.3381 12.1538C78.5398 12.4453 78.593 12.7488 78.4977 13.0641C78.4007 13.377 78.1282 13.6885 77.68 13.9986C77.4969 14.1253 77.3117 14.2232 77.1244 14.2922C76.937 14.3613 76.7359 14.4078 76.5209 14.4319L76.0434 13.7416C76.269 13.728 76.4822 13.6963 76.6829 13.6465C76.8836 13.5967 77.0719 13.5109 77.2477 13.3892C77.426 13.2659 77.5336 13.1433 77.5705 13.0216C77.6098 12.8982 77.5862 12.7739 77.4995 12.6486C77.4311 12.5498 77.3273 12.4899 77.188 12.4687C77.051 12.4459 76.8657 12.5153 76.632 12.677L76.2273 12.9571L75.8297 12.3825L76.1622 12.1524C76.4127 11.9791 76.5458 11.8264 76.5614 11.6945C76.577 11.5626 76.5506 11.4472 76.4823 11.3484C76.4189 11.2569 76.3363 11.2018 76.2344 11.1833C76.1325 11.1647 76.0201 11.198 75.8973 11.283C75.784 11.3613 75.6927 11.4584 75.6231 11.5742C75.5536 11.69 75.4835 11.8436 75.4129 12.0349L74.6953 11.7779C74.7664 11.5614 74.8664 11.3532 74.9954 11.1535C75.1268 10.9521 75.3166 10.7656 75.5648 10.5939Z" fill="white"/>
<path d="M223.533 62.544L223.004 61.6003L221.379 62.5114L220.471 60.892L222.095 59.981L220.219 56.635L221.372 55.9886L228.361 56.5872L229.218 58.1154L224.29 60.8786L224.82 61.8224L223.533 62.544ZM223.382 59.2593L224.712 58.5136C224.837 58.4435 224.987 58.3621 225.16 58.2694C225.336 58.1803 225.511 58.0913 225.687 58.0022C225.863 57.9131 226.018 57.8351 226.155 57.7681C226.297 57.7026 226.395 57.6566 226.451 57.6302L226.427 57.5873C226.242 57.6015 226.059 57.6102 225.878 57.6133C225.7 57.6144 225.508 57.607 225.301 57.5911L222.324 57.3719L223.382 59.2593ZM231.247 65.8441C230.886 66.0465 230.531 66.1468 230.183 66.145C229.834 66.1432 229.503 66.0608 229.191 65.8976C228.881 65.738 228.597 65.5212 228.34 65.2471L228.308 65.2652C228.582 65.9384 228.657 66.5239 228.532 67.0216C228.409 67.5229 228.09 67.9178 227.575 68.2065C227.117 68.4631 226.645 68.58 226.158 68.5572C225.672 68.5381 225.196 68.3543 224.728 68.0058C224.26 67.6574 223.82 67.1167 223.409 66.3839C223.167 65.9514 222.976 65.5274 222.837 65.112C222.697 64.7021 222.606 64.2926 222.564 63.8836L223.974 63.0928C223.991 63.525 224.058 63.9503 224.175 64.3686C224.296 64.7849 224.446 65.1521 224.624 65.4703C224.957 66.0637 225.291 66.4212 225.627 66.5429C225.969 66.6661 226.325 66.6235 226.697 66.415C226.915 66.2928 227.068 66.1341 227.156 65.9391C227.244 65.7441 227.25 65.4869 227.175 65.1676C227.101 64.8518 226.927 64.449 226.652 63.9593L226.319 63.3641L227.589 62.6515L227.929 63.2574C228.2 63.74 228.45 64.0813 228.68 64.2815C228.915 64.4831 229.136 64.5846 229.344 64.5857C229.557 64.5885 229.765 64.5327 229.969 64.4185C230.247 64.2621 230.417 64.054 230.478 63.7942C230.54 63.5345 230.458 63.2044 230.233 62.804C230.093 62.5538 229.933 62.343 229.752 62.1718C229.577 62.0021 229.399 61.8601 229.217 61.7458C229.039 61.6295 228.874 61.5318 228.721 61.4528L229.434 60.0456C229.828 60.2287 230.213 60.4847 230.59 60.8136C230.969 61.1461 231.319 61.5983 231.64 62.1703C232.093 62.9781 232.289 63.7092 232.228 64.3635C232.168 65.0178 231.841 65.5113 231.247 65.8441ZM232.752 73.6059C232.12 73.9607 231.527 74.2274 230.974 74.4059C230.423 74.588 229.913 74.6673 229.444 74.6437C228.977 74.6236 228.554 74.4896 228.175 74.2415C227.796 73.9934 227.467 73.6191 227.186 73.1186C226.833 72.4895 226.703 71.8838 226.794 71.3014C226.889 70.7171 227.183 70.16 227.676 69.6302C228.171 69.0984 228.839 68.5969 229.679 68.1259C230.527 67.6508 231.3 67.3324 231.998 67.1708C232.703 67.0108 233.328 67.0408 233.874 67.2607C234.421 67.4807 234.881 67.9249 235.256 68.5933C235.607 69.2189 235.735 69.8239 235.639 70.4082C235.55 70.9942 235.258 71.5548 234.764 72.0902C234.274 72.6236 233.603 73.1288 232.752 73.6059ZM230.603 69.772C230.006 70.1068 229.525 70.4186 229.161 70.7074C228.802 70.9979 228.567 71.2778 228.455 71.5474C228.343 71.8169 228.365 72.0911 228.521 72.3699C228.676 72.6452 228.895 72.8063 229.18 72.8534C229.47 72.902 229.833 72.849 230.268 72.6944C230.706 72.5378 231.226 72.2911 231.826 71.9544C232.423 71.6196 232.903 71.306 233.265 71.0136C233.627 70.7211 233.864 70.4384 233.974 70.1653C234.089 69.8937 234.07 69.6203 233.915 69.3451C233.759 69.0662 233.535 68.9053 233.243 68.8623C232.955 68.8172 232.591 68.873 232.153 69.0296C231.716 69.1898 231.2 69.4373 230.603 69.772ZM235.909 78.3773L231.623 80.7803L231.127 79.8949L231.609 79.4077L231.577 79.3502C231.395 79.3614 231.23 79.3483 231.081 79.3108C230.933 79.2732 230.801 79.2093 230.687 79.119C230.572 79.0286 230.473 78.9081 230.388 78.7573C230.301 78.6015 230.251 78.4432 230.238 78.2824C230.229 78.1228 230.256 77.9713 230.32 77.8279L230.308 77.805C230.258 77.8427 230.179 77.8957 230.069 77.9638C229.962 78.0306 229.848 78.0996 229.727 78.1709C229.604 78.2462 229.496 78.3104 229.402 78.3634L228.175 79.0513L227.519 77.8822L233.691 74.4216L234.346 75.5907L231.843 76.9943C231.536 77.1662 231.337 77.3521 231.244 77.552C231.151 77.7518 231.172 77.9718 231.307 78.212C231.437 78.4446 231.593 78.5972 231.775 78.6699C231.961 78.7437 232.174 78.75 232.415 78.6887C232.659 78.626 232.933 78.5093 233.237 78.3388L235.253 77.2082L235.909 78.3773ZM231.128 84.3178C230.793 83.7199 230.641 83.2037 230.673 82.7693C230.704 82.339 230.907 82.0185 231.283 81.8078C231.541 81.6631 231.802 81.6225 232.066 81.686C232.33 81.7496 232.586 81.9165 232.835 82.1866C232.819 82.0379 232.843 81.8866 232.908 81.7326C232.976 81.5773 233.074 81.4631 233.205 81.39C233.368 81.2983 233.53 81.2696 233.691 81.304C233.853 81.3369 234.037 81.4134 234.242 81.5335C234.213 81.2542 234.269 80.9879 234.409 80.7347C234.551 80.484 234.767 80.277 235.059 80.1136C235.37 79.9388 235.673 79.8582 235.966 79.8719C236.263 79.8866 236.542 79.9921 236.803 80.1882C237.066 80.3869 237.302 80.6741 237.513 81.0498C237.558 81.129 237.604 81.2238 237.653 81.3343C237.701 81.4448 237.743 81.5471 237.779 81.6412C237.817 81.7378 237.84 81.8035 237.85 81.8385L238.688 83.3334L238.094 83.6665L237.545 83.0925C237.485 83.2068 237.41 83.3094 237.32 83.4003C237.23 83.4911 237.124 83.5702 237.004 83.6376C236.544 83.8955 236.095 83.9358 235.656 83.7586C235.222 83.5825 234.845 83.2095 234.525 82.6396C234.457 82.4999 234.395 82.3664 234.341 82.2391C234.262 82.2062 234.188 82.1887 234.12 82.1867C234.052 82.1847 233.989 82.1994 233.933 82.2309C233.877 82.2625 233.843 82.312 233.83 82.3795C233.822 82.4481 233.834 82.5354 233.866 82.6414C233.903 82.7485 233.961 82.8737 234.041 83.0168L234.45 83.745C234.713 84.2152 234.813 84.6296 234.749 84.9881C234.686 85.3491 234.459 85.6393 234.068 85.8585C233.567 86.1394 233.061 86.1477 232.55 85.8833C232.041 85.6216 231.567 85.0997 231.128 84.3178ZM231.919 83.9399C232.075 84.2184 232.236 84.4423 232.401 84.6115C232.566 84.7847 232.726 84.8978 232.884 84.9507C233.038 85.005 233.182 84.9949 233.315 84.9203C233.423 84.8602 233.49 84.7802 233.518 84.6805C233.545 84.5848 233.536 84.4659 233.49 84.3238C233.445 84.1842 233.367 84.0161 233.257 83.8193L232.917 83.2137C232.837 83.0706 232.742 82.9545 232.631 82.8653C232.522 82.7786 232.408 82.725 232.289 82.7044C232.168 82.6853 232.052 82.7065 231.942 82.7681C231.781 82.8584 231.698 83.006 231.692 83.2109C231.687 83.4184 231.763 83.6614 231.919 83.9399ZM235.275 82.305C235.398 82.5248 235.556 82.6478 235.749 82.6741C235.941 82.7003 236.154 82.6483 236.387 82.5179C236.645 82.3731 236.807 82.2113 236.875 82.0323C236.947 81.8545 236.923 81.6595 236.804 81.4474C236.684 81.2327 236.528 81.1083 236.338 81.0741C236.15 81.0384 235.927 81.0929 235.669 81.2376C235.436 81.368 235.282 81.5236 235.205 81.7043C235.13 81.8876 235.153 82.0878 235.275 82.305ZM241.857 85.8942L235.082 86.9476L234.486 85.8859L241.262 84.8324L241.857 85.8942ZM243.807 92.2728C244.079 92.7583 244.159 93.1952 244.048 93.5835C243.94 93.9729 243.612 94.3217 243.063 94.6298L240.268 96.1967L239.611 95.0238L242.114 93.6202C242.42 93.4483 242.622 93.2662 242.719 93.074C242.816 92.8818 242.803 92.6759 242.68 92.4561C242.507 92.1469 242.272 91.9895 241.977 91.9838C241.684 91.9767 241.332 92.0886 240.921 92.3193L238.77 93.5251L238.115 92.356L240.618 90.9524C240.822 90.8378 240.98 90.7188 241.093 90.5954C241.205 90.4721 241.269 90.3438 241.285 90.2105C241.301 90.0773 241.267 89.9366 241.184 89.7883C241.062 89.5711 240.911 89.4307 240.731 89.3671C240.555 89.3047 240.346 89.3061 240.104 89.3713C239.866 89.4377 239.594 89.5562 239.29 89.7267L237.274 90.8573L236.619 89.6882L240.904 87.2852L241.405 88.1783L240.945 88.6428L240.981 88.708C241.178 88.7117 241.359 88.753 241.524 88.8317C241.691 88.913 241.84 89.0207 241.972 89.1548C242.105 89.2888 242.217 89.4377 242.308 89.6012C242.485 89.9155 242.583 90.2099 242.602 90.4844C242.623 90.7615 242.559 91.019 242.411 91.2569L242.469 91.3604C242.76 91.3649 243.021 91.4555 243.251 91.6322C243.482 91.8114 243.668 92.0249 243.807 92.2728ZM248.106 94.477C248.285 94.7964 248.353 95.106 248.309 95.4058C248.268 95.7042 248.113 95.9293 247.842 96.0812C247.663 96.1815 247.48 96.2151 247.294 96.182C247.109 96.1515 246.915 96.0432 246.714 95.8574L246.668 95.8832C246.756 96.1728 246.761 96.4205 246.681 96.6262C246.603 96.8345 246.473 96.9896 246.292 97.0913C245.983 97.2647 245.676 97.2891 245.371 97.1646C245.068 97.0386 244.784 96.7379 244.517 96.2626C244.408 96.0684 244.328 95.8748 244.277 95.6818C244.226 95.4888 244.199 95.2841 244.195 95.0679L244.927 94.6574C244.919 94.8833 244.931 95.0986 244.962 95.303C244.992 95.5075 245.06 95.703 245.165 95.8896C245.271 96.0786 245.383 96.1973 245.5 96.2455C245.619 96.2962 245.745 96.2843 245.878 96.2098C245.983 96.1511 246.053 96.0533 246.087 95.9166C246.122 95.7825 246.071 95.5914 245.932 95.3436L245.691 94.9143L246.3 94.5725L246.498 94.9252C246.647 95.1909 246.787 95.3378 246.916 95.3657C247.046 95.3936 247.164 95.3782 247.268 95.3195C247.366 95.265 247.428 95.1879 247.456 95.0882C247.484 94.9885 247.462 94.8735 247.389 94.7432C247.321 94.6231 247.233 94.523 247.124 94.4429C247.016 94.3628 246.869 94.2786 246.686 94.1902L247.009 93.5C247.218 93.5911 247.416 93.7103 247.602 93.8575C247.79 94.0073 247.958 94.2138 248.106 94.477Z" fill="white"/>
<path d="M176.108 16.4523C175.898 16.8093 175.643 17.0749 175.341 17.2493C175.039 17.4237 174.712 17.5193 174.36 17.536C174.011 17.5548 173.657 17.5107 173.297 17.4038L173.278 17.4356C173.854 17.8786 174.214 18.3464 174.357 18.8392C174.504 19.334 174.428 19.8359 174.129 20.3449C173.864 20.7973 173.515 21.1366 173.083 21.3628C172.654 21.5912 172.15 21.6729 171.57 21.6082C170.99 21.5434 170.338 21.2984 169.613 20.873C169.186 20.622 168.807 20.3521 168.477 20.0636C168.149 19.7806 167.864 19.473 167.622 19.1408L168.44 17.7465C168.673 18.1112 168.946 18.4446 169.258 18.7466C169.572 19.0452 169.886 19.2868 170.201 19.4715C170.788 19.8159 171.257 19.9559 171.608 19.8913C171.965 19.8254 172.252 19.6086 172.468 19.241C172.594 19.0254 172.646 18.8113 172.624 18.5985C172.601 18.3857 172.477 18.1606 172.25 17.9231C172.028 17.6876 171.674 17.4278 171.19 17.1435L170.601 16.798L171.339 15.5416L171.938 15.8933C172.415 16.1734 172.803 16.3419 173.103 16.3988C173.407 16.4542 173.65 16.4301 173.829 16.3265C174.015 16.2214 174.166 16.0681 174.285 15.8666C174.447 15.591 174.488 15.3256 174.41 15.0705C174.332 14.8154 174.095 14.5716 173.699 14.3392C173.451 14.194 173.206 14.093 172.964 14.0362C172.727 13.9781 172.502 13.9454 172.287 13.9383C172.075 13.9277 171.883 13.9267 171.712 13.9354L171.616 12.3611C172.049 12.3204 172.511 12.3469 173.003 12.4407C173.498 12.5364 174.028 12.7503 174.593 13.0823C175.392 13.5512 175.93 14.0835 176.208 14.679C176.486 15.2745 176.452 15.8656 176.108 16.4523ZM179.4 19.818C179.874 20.096 180.241 20.433 180.503 20.8291C180.769 21.2272 180.904 21.6635 180.911 22.1379C180.918 22.6122 180.771 23.1057 180.47 23.6182C180.142 24.1766 179.742 24.5905 179.27 24.86C178.804 25.1281 178.278 25.235 177.692 25.1809C177.109 25.1288 176.477 24.9025 175.795 24.5021C175.388 24.2635 175.026 24.003 174.707 23.7207C174.389 23.4439 174.138 23.156 173.952 22.857L174.783 21.4415C174.969 21.7406 175.22 22.0495 175.536 22.3684C175.858 22.6859 176.185 22.9421 176.518 23.1372C176.843 23.3281 177.142 23.4465 177.414 23.4924C177.689 23.5347 177.935 23.499 178.154 23.3851C178.379 23.2698 178.574 23.0708 178.74 22.788C178.962 22.4099 179.005 22.0454 178.869 21.6945C178.733 21.3437 178.401 21.0136 177.875 20.7045C177.673 20.5862 177.451 20.4822 177.209 20.3924C176.971 20.3047 176.768 20.2378 176.6 20.1916L176.154 19.4589L178.764 15.6805L182.968 18.1486L182.153 19.5376L179.385 17.9129L178.349 19.3504C178.483 19.3962 178.629 19.4482 178.785 19.5065C178.941 19.5647 179.146 19.6686 179.4 19.818ZM187.537 26.0421C187.17 26.6676 186.792 27.197 186.405 27.6302C186.021 28.0654 185.621 28.3912 185.204 28.6074C184.791 28.8258 184.358 28.9234 183.906 28.9003C183.454 28.8772 182.98 28.7204 182.485 28.4299C181.863 28.0647 181.445 27.6076 181.23 27.0586C181.018 26.5061 180.99 25.8769 181.148 25.1711C181.308 24.4617 181.631 23.6918 182.119 22.8612C182.611 22.0236 183.117 21.3587 183.639 20.8666C184.167 20.3731 184.722 20.0834 185.304 19.9977C185.887 19.912 186.509 20.0632 187.169 20.4512C187.788 20.8143 188.203 21.2722 188.416 21.8247C188.634 22.3758 188.665 23.0071 188.509 23.7185C188.355 24.4264 188.031 25.2009 187.537 26.0421ZM183.746 23.8167C183.4 24.4069 183.142 24.9186 182.974 25.3518C182.81 25.7836 182.748 26.144 182.788 26.4333C182.827 26.7225 182.985 26.948 183.26 27.1099C183.532 27.2696 183.803 27.298 184.073 27.1949C184.348 27.0903 184.634 26.8616 184.932 26.5087C185.232 26.1523 185.556 25.6772 185.904 25.0835C186.251 24.4932 186.507 23.9805 186.672 23.5452C186.837 23.1099 186.898 22.7467 186.855 22.4554C186.818 22.1626 186.663 21.9363 186.391 21.7766C186.116 21.6147 185.841 21.5889 185.567 21.699C185.295 21.8057 185.01 22.0372 184.71 22.3936C184.414 22.7521 184.093 23.2265 183.746 23.8167ZM192.67 28.5691L190.182 32.806L189.307 32.2921L189.477 31.628L189.421 31.5946C189.269 31.696 189.12 31.768 188.973 31.8107C188.825 31.8533 188.68 31.8645 188.535 31.8442C188.391 31.824 188.244 31.7701 188.095 31.6826C187.941 31.5921 187.818 31.4808 187.725 31.3485C187.637 31.2152 187.585 31.0705 187.568 30.9144L187.545 30.901C187.521 30.9585 187.479 31.0443 187.419 31.1585C187.36 31.2701 187.297 31.3873 187.228 31.51C187.16 31.6368 187.099 31.7469 187.044 31.8404L186.332 33.0531L185.176 32.3745L188.759 26.2731L189.914 26.9517L188.462 29.4263C188.284 29.7295 188.205 29.9908 188.226 30.2102C188.246 30.4295 188.375 30.6089 188.613 30.7484C188.843 30.8833 189.055 30.9363 189.248 30.9074C189.446 30.8773 189.633 30.7751 189.811 30.6005C189.989 30.4234 190.167 30.1846 190.343 29.8839L191.514 27.8906L192.67 28.5691ZM191.539 36.1101C190.948 35.763 190.557 35.3939 190.365 35.0028C190.175 34.6157 190.188 34.2365 190.406 33.8651C190.556 33.6099 190.761 33.4431 191.021 33.3648C191.281 33.2864 191.587 33.3011 191.938 33.4088C191.849 33.2886 191.793 33.1456 191.772 32.98C191.752 32.8119 191.779 32.6634 191.855 32.5346C191.95 32.3729 192.075 32.2664 192.231 32.2152C192.388 32.1614 192.586 32.1346 192.823 32.1349C192.657 31.9084 192.571 31.6504 192.564 31.3611C192.56 31.0732 192.642 30.7852 192.812 30.4972C192.992 30.189 193.213 29.9668 193.473 29.8307C193.737 29.6935 194.031 29.6437 194.356 29.6813C194.683 29.7204 195.032 29.849 195.403 30.067C195.481 30.113 195.569 30.1714 195.667 30.2423C195.765 30.3133 195.853 30.3802 195.931 30.4433C196.012 30.5079 196.066 30.5528 196.092 30.5782L197.57 31.4459L197.225 32.0333L196.461 31.8145C196.467 31.9436 196.454 32.0701 196.422 32.194C196.39 32.3179 196.339 32.4392 196.27 32.5579C196.003 33.0127 195.635 33.2742 195.167 33.3425C194.703 33.4098 194.189 33.278 193.626 32.9472C193.496 32.861 193.376 32.7768 193.264 32.6944C193.18 32.7058 193.107 32.7278 193.047 32.7606C192.987 32.7933 192.941 32.8375 192.908 32.893C192.876 32.9486 192.871 33.0087 192.894 33.0733C192.921 33.1369 192.976 33.2062 193.057 33.2813C193.143 33.3553 193.257 33.4339 193.398 33.5169L194.118 33.9397C194.583 34.2126 194.878 34.52 195.004 34.862C195.131 35.2055 195.082 35.5705 194.855 35.957C194.564 36.4522 194.132 36.7146 193.557 36.7442C192.985 36.7753 192.313 36.5639 191.539 36.1101ZM192.031 35.3848C192.307 35.5465 192.559 35.6587 192.787 35.7213C193.016 35.7879 193.212 35.8044 193.374 35.7707C193.535 35.7395 193.654 35.6582 193.732 35.5269C193.794 35.4208 193.812 35.3176 193.786 35.2173C193.761 35.1211 193.693 35.0233 193.581 34.9238C193.472 34.8259 193.32 34.7198 193.126 34.6056L192.527 34.2541C192.386 34.171 192.245 34.1189 192.104 34.0976C191.966 34.0778 191.841 34.089 191.728 34.1313C191.613 34.1761 191.524 34.2529 191.46 34.3615C191.367 34.5207 191.369 34.6902 191.467 34.8702C191.568 35.0516 191.756 35.2232 192.031 35.3848ZM194.104 32.2802C194.321 32.4077 194.52 32.4342 194.699 32.3597C194.879 32.2851 195.036 32.1328 195.171 31.9029C195.321 31.6478 195.38 31.4259 195.348 31.2372C195.32 31.0476 195.201 30.8912 194.992 30.7681C194.779 30.6435 194.582 30.6145 194.401 30.681C194.22 30.7451 194.055 30.9047 193.905 31.1598C193.77 31.3897 193.715 31.602 193.74 31.7968C193.768 31.993 193.889 32.1541 194.104 32.2802ZM201.598 32.0578L196.28 36.3858L195.23 35.7696L200.548 31.4416L201.598 32.0578ZM206.499 36.5814C206.979 36.8632 207.269 37.1999 207.369 37.5913C207.473 37.9818 207.365 38.4486 207.046 38.9918L205.424 41.7545L204.265 41.0736L205.717 38.599C205.895 38.2958 205.978 38.0367 205.965 37.8218C205.952 37.6069 205.837 37.4356 205.619 37.3081C205.314 37.1286 205.032 37.1109 204.774 37.2551C204.517 37.3967 204.27 37.6709 204.031 38.0777L202.783 40.2037L201.627 39.5251L203.08 37.0505C203.199 36.8483 203.275 36.6657 203.31 36.5026C203.344 36.3395 203.335 36.1963 203.282 36.0733C203.228 35.9502 203.128 35.8456 202.982 35.7596C202.767 35.6335 202.566 35.5884 202.378 35.6244C202.195 35.6593 202.015 35.766 201.839 35.9446C201.666 36.1221 201.492 36.3612 201.316 36.6618L200.145 38.6552L198.989 37.9766L201.477 33.7397L202.36 34.2581L202.197 34.8913L202.261 34.9291C202.433 34.833 202.61 34.7773 202.793 34.762C202.977 34.7482 203.161 34.7658 203.343 34.8148C203.524 34.8638 203.696 34.9357 203.858 35.0307C204.169 35.2131 204.402 35.4179 204.557 35.645C204.715 35.8736 204.79 36.1282 204.782 36.4086L204.884 36.4687C205.138 36.3256 205.409 36.2723 205.696 36.3087C205.987 36.3466 206.254 36.4375 206.499 36.5814ZM211.323 36.3152C211.639 36.5006 211.854 36.7337 211.968 37.0145C212.083 37.2928 212.062 37.5658 211.905 37.8337C211.801 38.0105 211.66 38.1317 211.482 38.1972C211.307 38.2642 211.086 38.2683 210.818 38.2096L210.791 38.2551C211.014 38.4604 211.142 38.672 211.178 38.8897C211.216 39.1089 211.182 39.3082 211.076 39.4876C210.897 39.7933 210.644 39.9693 210.318 40.0157C209.993 40.0595 209.596 39.9434 209.126 39.6675C208.934 39.5548 208.767 39.428 208.626 39.2872C208.484 39.1463 208.357 38.9835 208.245 38.7987L208.67 38.0748C208.777 38.2738 208.896 38.4538 209.026 38.6148C209.155 38.7759 209.312 38.9106 209.497 39.0188C209.684 39.1286 209.84 39.1746 209.966 39.1568C210.095 39.1405 210.197 39.0667 210.274 38.9353C210.335 38.8317 210.346 38.7123 210.306 38.577C210.27 38.4432 210.129 38.3043 209.883 38.1605L209.459 37.9113L209.813 37.3087L210.161 37.5134C210.424 37.6677 210.619 37.7241 210.745 37.6827C210.871 37.6413 210.965 37.5688 211.025 37.4652C211.082 37.3692 211.097 37.2711 211.071 37.1708C211.045 37.0706 210.967 36.9826 210.838 36.907C210.72 36.8373 210.593 36.7953 210.459 36.781C210.325 36.7667 210.156 36.7678 209.952 36.7843L209.883 36.0253C210.11 35.9985 210.341 36.0015 210.576 36.0345C210.814 36.0689 211.063 36.1625 211.323 36.3152Z" fill="white"/>
<path d="M8.1754 85.6507C8.41061 85.1545 8.71392 84.7585 9.08534 84.4629C9.45852 84.1635 9.88109 83.9896 10.3531 83.9412C10.825 83.8927 11.3295 83.9958 11.8665 84.2503C12.4517 84.5276 12.8993 84.8894 13.2093 85.3357C13.5174 85.7765 13.6703 86.2912 13.6681 86.8797C13.6676 87.4645 13.4979 88.1143 13.1592 88.8291C12.9573 89.255 12.7298 89.6393 12.4767 89.9819C12.2291 90.3227 11.9645 90.5986 11.6829 90.8099L10.1997 90.1069C10.4812 89.8957 10.7669 89.6183 11.0566 89.2749C11.3444 88.926 11.5708 88.5775 11.7358 88.2294C11.8973 87.8887 11.9889 87.5806 12.0106 87.3051C12.0286 87.0279 11.9712 86.7853 11.8385 86.5773C11.7039 86.3638 11.4884 86.1868 11.1921 86.0464C10.7958 85.8586 10.429 85.848 10.0915 86.0146C9.75401 86.1812 9.45451 86.5404 9.19298 87.0922C9.09293 87.3033 9.00886 87.5333 8.94077 87.7823C8.87444 88.0275 8.82566 88.2357 8.79443 88.4068L8.10395 88.9164L4.1101 86.6493L6.19797 82.244L7.65344 82.9338L6.27908 85.8337L7.80235 86.7393C7.8361 86.6011 7.87512 86.4518 7.91941 86.2913C7.96369 86.1309 8.04903 85.9174 8.1754 85.6507ZM13.6579 76.9968C14.3134 77.3075 14.874 77.6367 15.3396 77.9844C15.807 78.3284 16.1668 78.6984 16.419 79.0946C16.6729 79.4871 16.8083 79.9095 16.8251 80.362C16.842 80.8145 16.7276 81.2999 16.4818 81.8184C16.1729 82.4702 15.7545 82.9273 15.2265 83.1896C14.6949 83.4501 14.0706 83.5329 13.3536 83.438C12.6329 83.3413 11.8374 83.0868 10.9671 82.6743C10.0894 82.2583 9.38241 81.8121 8.84623 81.3358C8.30811 80.854 7.97068 80.3267 7.83395 79.7539C7.69723 79.1811 7.79298 78.5485 8.12121 77.8559C8.42838 77.2078 8.84779 76.7535 9.37945 76.493C9.90916 76.227 10.5352 76.1405 11.2577 76.2334C11.9764 76.3246 12.7765 76.5791 13.6579 76.9968ZM11.7754 80.9688C12.3939 81.262 12.9263 81.4735 13.3727 81.6034C13.8171 81.7279 14.1817 81.7578 14.4663 81.6931C14.7509 81.6285 14.9617 81.4517 15.0986 81.1628C15.2337 80.8777 15.2381 80.6053 15.1116 80.3458C14.9832 80.0809 14.7301 79.8158 14.3524 79.5506C13.971 79.2837 13.4691 79.0027 12.847 78.7079C12.2285 78.4147 11.6952 78.2051 11.247 78.0788C10.7989 77.9526 10.4316 77.9237 10.1452 77.992C9.85692 78.055 9.64517 78.229 9.51002 78.5142C9.37311 78.803 9.37159 79.079 9.50546 79.342C9.63562 79.6032 9.89142 79.8673 10.2729 80.1343C10.6561 80.3975 11.1569 80.6757 11.7754 80.9688ZM15.7226 71.6616L20.1623 73.7657L19.7275 74.683L19.0509 74.5715L19.0227 74.6311C19.1371 74.7728 19.222 74.9152 19.2774 75.0582C19.3329 75.2011 19.3569 75.3454 19.3495 75.4911C19.342 75.6367 19.3013 75.7876 19.2273 75.9438C19.1507 76.1053 19.0507 76.2378 18.927 76.3413C18.802 76.4409 18.6625 76.5061 18.5085 76.5369L18.4972 76.5607C18.5566 76.5791 18.6458 76.6132 18.7648 76.6632C18.8811 76.7118 19.0035 76.7649 19.1318 76.8225C19.264 76.8787 19.3791 76.93 19.4771 76.9764L20.7478 77.5787L20.1738 78.7899L13.7803 75.7597L14.3543 74.5485L16.9475 75.7775C17.2652 75.9281 17.5323 75.9834 17.749 75.9435C17.9657 75.9035 18.1331 75.7591 18.251 75.5103C18.3652 75.2694 18.3993 75.0537 18.3534 74.8634C18.306 74.6691 18.1876 74.4914 17.9981 74.3303C17.806 74.1679 17.5524 74.012 17.2374 73.8627L15.1486 72.8727L15.7226 71.6616ZM23.3338 72.1224C23.0402 72.7419 22.7071 73.1643 22.3344 73.3897C21.9656 73.6137 21.5866 73.6335 21.1975 73.4491C20.9301 73.3223 20.7459 73.1329 20.6449 72.8808C20.544 72.6287 20.5316 72.323 20.6079 71.9636C20.496 72.0629 20.3585 72.1307 20.1955 72.1669C20.0298 72.2018 19.8794 72.1873 19.7444 72.1233C19.575 72.043 19.4579 71.9275 19.3931 71.7769C19.3257 71.625 19.2816 71.4306 19.2609 71.1939C19.0499 71.3792 18.8006 71.488 18.5129 71.5202C18.2266 71.5498 17.9325 71.4931 17.6307 71.3501C17.3077 71.197 17.0669 70.997 16.9084 70.75C16.7485 70.4992 16.6729 70.2105 16.6818 69.884C16.6919 69.5548 16.7892 69.1957 16.9736 68.8065C17.0125 68.7244 17.063 68.6317 17.125 68.5281C17.187 68.4246 17.246 68.331 17.3019 68.2472C17.3591 68.1608 17.3991 68.1037 17.4221 68.0756L18.1561 66.5269L18.7717 66.8186L18.621 67.5983C18.7491 67.5812 18.8762 67.5831 19.0025 67.604C19.1287 67.6249 19.2541 67.6649 19.3785 67.7239C19.855 67.9497 20.1479 68.2928 20.2572 68.7531C20.3651 69.2095 20.2792 69.7329 19.9994 70.3232C19.9249 70.4598 19.8516 70.5871 19.7794 70.7053C19.7982 70.7888 19.8265 70.8589 19.8644 70.9158C19.9023 70.9727 19.9504 71.0149 20.0086 71.0425C20.0669 71.0701 20.1271 71.0695 20.1894 71.0407C20.2503 71.0079 20.3146 70.9476 20.3822 70.8597C20.4484 70.7679 20.5166 70.6478 20.5869 70.4996L20.9445 69.7451C21.1754 69.2579 21.4556 68.9369 21.7852 68.7818C22.1161 68.6242 22.484 68.6413 22.8891 68.8333C23.408 69.0792 23.7075 69.487 23.7876 70.0567C23.869 70.6237 23.7177 71.3123 23.3338 72.1224ZM22.568 71.6962C22.7048 71.4077 22.7943 71.147 22.8366 70.9141C22.8827 70.6799 22.8819 70.4833 22.834 70.3245C22.7887 70.1668 22.6973 70.0554 22.5596 69.9902C22.4484 69.9375 22.344 69.9285 22.2465 69.9633C22.1528 69.9968 22.0614 70.0734 21.9722 70.1932C21.8842 70.3104 21.7919 70.4709 21.6953 70.6748L21.398 71.3022C21.3277 71.4504 21.2882 71.5954 21.2794 71.7372C21.2718 71.8762 21.2941 72.0002 21.3462 72.1092C21.4009 72.2195 21.4852 72.3016 21.599 72.3555C21.7658 72.4346 21.9345 72.4173 22.1051 72.3036C22.2769 72.1873 22.4312 71.9848 22.568 71.6962ZM19.2927 69.9057C19.4006 69.678 19.4095 69.4779 19.3194 69.3055C19.2293 69.1331 19.0638 68.9899 18.8229 68.8757C18.5555 68.749 18.3292 68.7098 18.1442 68.7583C17.9577 68.8028 17.8124 68.935 17.7083 69.1547C17.6029 69.3771 17.5913 69.5759 17.6737 69.751C17.7533 69.925 17.9269 70.0753 18.1942 70.202C18.4352 70.3162 18.6515 70.3523 18.8432 70.3102C19.0363 70.2655 19.1861 70.1307 19.2927 69.9057ZM18.4106 62.4604L23.1906 67.3762L22.6692 68.4762L17.8892 63.5604L18.4106 62.4604ZM22.4844 57.1791C22.7228 56.6761 23.0325 56.3577 23.4137 56.2239C23.7934 56.0861 24.2679 56.1521 24.8371 56.4219L27.732 57.7939L27.1561 59.0091L24.563 57.7801C24.2453 57.6295 23.98 57.5703 23.7671 57.6023C23.5541 57.6343 23.3937 57.7641 23.2858 57.9918C23.134 58.3121 23.1412 58.5944 23.3076 58.8386C23.4713 59.0815 23.7662 59.3039 24.1924 59.506L26.4202 60.5618L25.8462 61.773L23.2531 60.544C23.0413 60.4436 22.8526 60.3834 22.6871 60.3633C22.5215 60.3432 22.3798 60.3652 22.2619 60.4292C22.144 60.4933 22.0486 60.6021 21.9759 60.7557C21.8692 60.9807 21.8421 61.1851 21.8944 61.3687C21.9454 61.5485 22.0676 61.7183 22.261 61.878C22.4529 62.0338 22.7065 62.1864 23.0215 62.3357L25.1103 63.3257L24.5363 64.5369L20.0966 62.4327L20.5351 61.5074L21.1801 61.6138L21.2121 61.5463C21.1012 61.3835 21.0301 61.212 20.9988 61.0318C20.9688 60.849 20.9701 60.6648 21.0029 60.4793C21.0357 60.2939 21.0922 60.1164 21.1725 59.947C21.3269 59.6214 21.5103 59.3711 21.7229 59.1963C21.9367 59.0188 22.1836 58.9219 22.4637 58.9055L22.5145 58.7983C22.3496 58.558 22.2726 58.2929 22.2835 58.0031C22.2957 57.7106 22.3626 57.4359 22.4844 57.1791ZM21.7939 52.3973C21.9508 52.0664 22.164 51.8319 22.4337 51.6938C22.7007 51.5545 22.9745 51.5514 23.2552 51.6844C23.4405 51.7722 23.5736 51.9018 23.6545 52.0731C23.7367 52.2417 23.7603 52.462 23.7255 52.734L23.7731 52.7566C23.9581 52.5168 24.1575 52.3698 24.3712 52.3155C24.5863 52.2585 24.7878 52.2746 24.9757 52.3637C25.2961 52.5155 25.4937 52.7518 25.5686 53.0726C25.6408 53.3922 25.5603 53.7981 25.3269 54.2906C25.2315 54.4918 25.1199 54.6691 24.9921 54.8225C24.8643 54.9759 24.7133 55.1166 24.5391 55.2448L23.7806 54.8853C23.9693 54.7608 24.1382 54.6268 24.2872 54.4835C24.4362 54.3401 24.5564 54.1718 24.648 53.9786C24.7409 53.7826 24.7729 53.6227 24.7441 53.4989C24.7165 53.3723 24.6339 53.2764 24.4962 53.2112C24.3877 53.1597 24.2678 53.1596 24.1365 53.2109C24.0065 53.2595 23.8806 53.4122 23.7589 53.669L23.5481 54.1138L22.9167 53.8145L23.0899 53.4492C23.2204 53.1738 23.2594 52.9751 23.207 52.8531C23.1547 52.731 23.0742 52.6442 22.9657 52.5928C22.8651 52.5451 22.766 52.5387 22.6684 52.5735C22.5709 52.6083 22.4901 52.6932 22.4261 52.8282C22.3672 52.9527 22.3365 53.0824 22.3341 53.2174C22.3317 53.3524 22.3477 53.5205 22.382 53.7216L21.632 53.8573C21.5854 53.6342 21.5681 53.4039 21.5801 53.1665C21.5934 52.9264 21.6647 52.67 21.7939 52.3973Z" fill="white"/>
<defs>
<linearGradient id="paint0_linear_663_279" x1="97.6199" y1="23" x2="111.5" y2="80" gradientUnits="userSpaceOnUse">
<stop offset="0.604592" stop-color="#ECC713"/>
<stop offset="1" stop-color="#86710B"/>
</linearGradient>
<linearGradient id="paint1_linear_663_279" x1="153" y1="22.5" x2="139.5" y2="75" gradientUnits="userSpaceOnUse">
<stop offset="0.68134" stop-color="#E55400"/>
<stop offset="1" stop-color="#7F2F00"/>
</linearGradient>
<linearGradient id="paint2_linear_663_279" x1="47.5" y1="52.5" x2="85.5" y2="103" gradientUnits="userSpaceOnUse">
<stop stop-color="#33CE19"/>
<stop offset="1" stop-color="#1A680D"/>
</linearGradient>
<linearGradient id="paint3_linear_663_279" x1="13" y1="95.5" x2="75" y2="121.5" gradientUnits="userSpaceOnUse">
<stop stop-color="#54E786"/>
<stop offset="1" stop-color="#2F814B"/>
</linearGradient>
</defs>
</svg>
