<svg width="241" height="125" viewBox="0 0 241 125" fill="none" xmlns="http://www.w3.org/2000/svg">
<path d="M174.5 95.0001C179.267 103.457 182.57 114.296 182.738 124.624H227.968C230.326 124.624 232.24 122.701 232.121 120.346C231.302 104.043 226.688 87.9389 219.527 74.2059C218.447 72.1344 215.858 71.4332 213.826 72.5873L195.5 83.0001L174.5 95.0001Z" fill="#7D0B1B"/>
<path d="M198.112 112.727C197.79 112.815 197.495 112.81 197.228 112.711C196.964 112.614 196.735 112.431 196.54 112.16C196.345 111.889 196.19 111.543 196.073 111.122C195.976 110.772 195.92 110.464 195.904 110.196C195.886 109.929 195.898 109.679 195.941 109.448L196.745 109.228C196.701 109.477 196.678 109.757 196.676 110.068C196.675 110.379 196.713 110.673 196.789 110.95C196.897 111.339 197.036 111.602 197.207 111.74C197.379 111.881 197.57 111.923 197.781 111.865C197.905 111.831 198.004 111.767 198.078 111.672C198.156 111.577 198.217 111.429 198.262 111.229C198.311 111.031 198.353 110.754 198.387 110.398C198.423 110.048 198.472 109.743 198.533 109.483C198.595 109.227 198.697 109.016 198.839 108.851C198.982 108.686 199.191 108.565 199.469 108.489C199.9 108.372 200.276 108.454 200.597 108.735C200.922 109.019 201.163 109.444 201.319 110.01C201.403 110.311 201.451 110.603 201.464 110.884C201.478 111.169 201.464 111.448 201.423 111.721L200.641 111.619C200.674 111.377 200.69 111.133 200.687 110.888C200.687 110.641 200.654 110.399 200.588 110.161C200.502 109.851 200.386 109.627 200.241 109.488C200.097 109.353 199.937 109.309 199.762 109.357C199.627 109.394 199.524 109.462 199.454 109.562C199.386 109.665 199.332 109.819 199.295 110.024C199.261 110.227 199.227 110.499 199.195 110.838C199.164 111.173 199.118 111.468 199.055 111.722C198.993 111.978 198.89 112.191 198.745 112.36C198.601 112.529 198.39 112.651 198.112 112.727Z" fill="white"/>
<path d="M200.364 106.909L195.381 108.269L195.18 107.542L195.828 107.229L195.814 107.179C195.614 107.124 195.434 107.03 195.274 106.899C195.115 106.768 194.978 106.609 194.865 106.423C194.752 106.237 194.664 106.031 194.602 105.805C194.496 105.422 194.469 105.08 194.522 104.777C194.575 104.478 194.715 104.222 194.942 104.011C195.173 103.803 195.499 103.641 195.921 103.525L199.182 102.636L199.434 103.548L196.301 104.403C195.9 104.513 195.623 104.681 195.472 104.906C195.321 105.135 195.295 105.428 195.394 105.783C195.489 106.129 195.633 106.385 195.825 106.55C196.02 106.717 196.261 106.808 196.547 106.824C196.837 106.842 197.174 106.798 197.557 106.694L200.112 105.997L200.364 106.909Z" fill="white"/>
<path d="M196.364 102.098C195.954 102.21 195.572 102.256 195.22 102.235C194.871 102.217 194.557 102.136 194.277 101.992C194.001 101.85 193.765 101.652 193.568 101.398C193.375 101.144 193.228 100.836 193.128 100.474C193.034 100.137 193.006 99.811 193.042 99.4967C193.082 99.1845 193.184 98.896 193.347 98.6311C193.514 98.3655 193.741 98.1333 194.03 97.9347C194.322 97.7352 194.672 97.5795 195.082 97.4676C195.628 97.3187 196.118 97.2853 196.553 97.3676C196.99 97.449 197.356 97.6357 197.651 97.9277C197.95 98.2219 198.166 98.61 198.299 99.0918C198.426 99.5496 198.436 99.9792 198.33 100.381C198.224 100.782 198.006 101.131 197.676 101.429C197.347 101.726 196.909 101.949 196.364 102.098ZM195.34 98.3982C194.957 98.5027 194.64 98.641 194.39 98.813C194.143 98.9873 193.973 99.1955 193.882 99.4376C193.791 99.6827 193.79 99.9663 193.879 100.289C193.966 100.605 194.112 100.845 194.317 101.01C194.521 101.174 194.774 101.267 195.075 101.289C195.379 101.309 195.722 101.267 196.105 101.163C196.485 101.059 196.797 100.922 197.042 100.752C197.286 100.581 197.452 100.374 197.541 100.13C197.629 99.8884 197.629 99.6051 197.539 99.2799C197.407 98.804 197.151 98.4983 196.77 98.3627C196.392 98.2292 195.916 98.241 195.34 98.3982Z" fill="white"/>
<path d="M208.611 115.186C208.443 114.578 208.524 114.033 208.854 113.551C209.185 113.072 209.774 112.717 210.621 112.486C211.477 112.252 212.175 112.259 212.713 112.507C213.256 112.757 213.612 113.188 213.781 113.8C213.852 114.056 213.879 114.289 213.863 114.501C213.847 114.713 213.801 114.904 213.725 115.073C213.65 115.246 213.553 115.399 213.434 115.532L213.449 115.586C213.538 115.545 213.665 115.495 213.83 115.433C213.994 115.372 214.14 115.324 214.266 115.29L216.161 114.773L216.412 115.681L209.376 117.601L209.178 116.883L209.828 116.545L209.817 116.504C209.647 116.453 209.483 116.374 209.323 116.265C209.167 116.159 209.027 116.017 208.904 115.84C208.781 115.666 208.684 115.448 208.611 115.186ZM209.411 115.196C209.547 115.687 209.785 115.995 210.124 116.119C210.464 116.247 210.913 116.236 211.472 116.087L211.612 116.048C212.206 115.886 212.634 115.664 212.896 115.382C213.162 115.102 213.224 114.703 213.081 114.185C212.964 113.764 212.71 113.491 212.319 113.368C211.932 113.244 211.445 113.261 210.861 113.421C210.282 113.579 209.865 113.808 209.611 114.107C209.36 114.406 209.293 114.769 209.411 115.196Z" fill="white"/>
<path d="M212.886 110.565C212.911 110.656 212.932 110.755 212.949 110.864C212.969 110.972 212.982 111.065 212.988 111.145L212.116 111.281C212.114 111.203 212.106 111.115 212.091 111.015C212.078 110.919 212.06 110.83 212.037 110.748C211.984 110.556 211.897 110.382 211.776 110.227C211.655 110.072 211.507 109.947 211.332 109.852C211.16 109.757 210.964 109.699 210.744 109.678C210.527 109.656 210.292 109.68 210.039 109.749L207.403 110.468L207.15 109.556L212.133 108.196L212.336 108.928L211.466 109.282L211.477 109.322C211.686 109.375 211.886 109.453 212.077 109.557C212.269 109.663 212.434 109.799 212.574 109.965C212.718 110.133 212.822 110.333 212.886 110.565Z" fill="white"/>
<path d="M211.292 104.82C211.462 105.435 211.452 105.931 211.262 106.31C211.075 106.689 210.687 106.958 210.1 107.118L206.731 108.038L206.551 107.387L207.226 107.014L207.216 106.978C206.996 106.888 206.806 106.785 206.643 106.667C206.481 106.55 206.342 106.4 206.227 106.217C206.113 106.038 206.016 105.807 205.938 105.524C205.855 105.223 205.835 104.94 205.878 104.675C205.922 104.411 206.033 104.181 206.213 103.986C206.396 103.794 206.657 103.651 206.994 103.559C207.501 103.421 207.939 103.51 208.309 103.827C208.678 104.144 208.985 104.694 209.227 105.476L209.501 106.325L209.781 106.248C210.17 106.142 210.42 105.98 210.531 105.762C210.644 105.546 210.657 105.284 210.571 104.973C210.5 104.717 210.395 104.482 210.254 104.268C210.117 104.053 209.967 103.851 209.805 103.662L210.385 103.193C210.57 103.395 210.745 103.634 210.909 103.91C211.074 104.188 211.201 104.492 211.292 104.82ZM208.901 106.479L208.677 105.792C208.497 105.222 208.288 104.843 208.051 104.655C207.819 104.47 207.55 104.418 207.245 104.501C206.98 104.574 206.808 104.707 206.728 104.9C206.649 105.093 206.645 105.321 206.718 105.583C206.83 105.987 207.034 106.287 207.332 106.484C207.634 106.684 208.007 106.723 208.454 106.601L208.901 106.479Z" fill="white"/>
<path d="M205.387 103.182L204.362 99.4775L204.941 99.3195L209.364 100.93L208.684 98.4726L209.39 98.2801L210.352 101.758L209.71 101.934L205.356 100.348L206.088 102.99L205.387 103.182Z" fill="white"/>
<path d="M208.625 95.1803C208.795 95.7947 208.785 96.2914 208.595 96.6704C208.408 97.0487 208.02 97.318 207.433 97.4784L204.064 98.3979L203.884 97.7474L204.559 97.3737L204.549 97.3376C204.329 97.2484 204.139 97.145 203.976 97.0273C203.814 96.9097 203.675 96.7597 203.56 96.5774C203.446 96.3981 203.349 96.1669 203.271 95.8838C203.188 95.5826 203.168 95.2998 203.211 95.0353C203.255 94.7707 203.366 94.5411 203.546 94.3463C203.729 94.1538 203.99 94.0114 204.327 93.9193C204.834 93.781 205.272 93.8704 205.642 94.1873C206.011 94.5042 206.318 95.0539 206.56 95.8363L206.834 96.6848L207.114 96.6082C207.503 96.5021 207.753 96.3399 207.864 96.1216C207.977 95.9064 207.99 95.6436 207.904 95.3334C207.833 95.0774 207.728 94.8423 207.587 94.6279C207.45 94.4128 207.3 94.2108 207.138 94.0219L207.718 93.5526C207.903 93.7546 208.078 93.9936 208.242 94.2695C208.407 94.5485 208.534 94.8521 208.625 95.1803ZM206.234 96.8386L206.01 96.1516C205.83 95.5821 205.621 95.2034 205.384 95.0154C205.152 94.8296 204.883 94.7782 204.578 94.8613C204.313 94.9337 204.141 95.0666 204.061 95.26C203.982 95.4533 203.978 95.681 204.051 95.943C204.163 96.3466 204.367 96.647 204.665 96.8443C204.967 97.0437 205.34 97.0826 205.787 96.9608L206.234 96.8386Z" fill="white"/>
<path d="M202.569 92.995L202.312 92.069L205.364 91.2359L204.463 87.9789L201.411 88.8119L201.155 87.8859L207.766 86.0815L208.022 87.0076L205.264 87.7604L206.165 91.0175L208.923 90.2646L209.179 91.1907L202.569 92.995Z" fill="white"/>
<path d="M143.246 1.33682C143.612 1.33438 143.916 1.42464 144.158 1.60761C144.399 1.78764 144.521 2.03293 144.523 2.34347C144.524 2.54854 144.465 2.72472 144.346 2.872C144.23 3.01926 144.042 3.13624 143.782 3.22294L143.782 3.27567C144.078 3.33815 144.297 3.45388 144.439 3.62286C144.584 3.79183 144.657 3.98031 144.658 4.18831C144.661 4.5428 144.533 4.82343 144.277 5.03023C144.021 5.23409 143.62 5.33783 143.075 5.34147C142.852 5.34295 142.644 5.31943 142.45 5.27092C142.257 5.2224 142.064 5.14751 141.873 5.04624L141.868 4.20691C142.062 4.3228 142.256 4.41673 142.45 4.48868C142.644 4.56063 142.847 4.5959 143.061 4.59447C143.278 4.59303 143.436 4.55242 143.535 4.47266C143.637 4.39287 143.688 4.27681 143.687 4.12447C143.686 4.00436 143.634 3.8963 143.531 3.80031C143.43 3.7043 143.238 3.65724 142.954 3.65913L142.462 3.66241L142.457 2.96369L142.861 2.961C143.166 2.95897 143.362 2.90786 143.449 2.80767C143.536 2.70747 143.58 2.59732 143.579 2.4772C143.578 2.36588 143.541 2.27384 143.467 2.20109C143.393 2.12833 143.282 2.09246 143.132 2.09345C142.995 2.09437 142.865 2.12307 142.742 2.17955C142.619 2.23603 142.475 2.32342 142.309 2.44172L141.861 1.82507C142.041 1.68616 142.241 1.57057 142.46 1.47829C142.682 1.38599 142.944 1.33883 143.246 1.33682Z" fill="white"/>
<path d="M139.239 4.0354C139.795 4.03169 140.217 4.17244 140.503 4.45765C140.792 4.73991 140.938 5.19598 140.943 5.82585L140.964 9.02939L139.619 9.03835L139.6 6.16878C139.598 5.81723 139.536 5.5525 139.415 5.37459C139.293 5.19669 139.107 5.10857 138.855 5.11025C138.5 5.11261 138.249 5.24173 138.101 5.4976C137.954 5.75055 137.881 6.11285 137.885 6.58452L137.901 9.0498L136.561 9.05873L136.542 6.18917C136.54 5.9548 136.512 5.75869 136.458 5.60084C136.405 5.44299 136.323 5.32488 136.214 5.2465C136.105 5.16812 135.966 5.1295 135.796 5.13063C135.547 5.13229 135.351 5.19659 135.209 5.32352C135.069 5.4475 134.969 5.63127 134.909 5.87484C134.852 6.11546 134.825 6.41008 134.827 6.75871L134.842 9.07018L133.502 9.07911L133.469 4.16614L134.493 4.15931L134.678 4.78652L134.752 4.78602C134.851 4.61544 134.974 4.47691 135.123 4.37045C135.275 4.26397 135.441 4.18522 135.623 4.13421C135.804 4.08319 135.988 4.05706 136.176 4.05581C136.536 4.05341 136.841 4.10997 137.091 4.2255C137.344 4.34101 137.538 4.52135 137.675 4.76654L137.793 4.76575C137.938 4.51283 138.143 4.32835 138.409 4.21232C138.678 4.09627 138.954 4.0373 139.239 4.0354Z" fill="white"/>
<path d="M132.712 2.65946L130.36 9.10008L129.142 9.10819L131.495 2.66757L132.712 2.65946Z" fill="white"/>
<path d="M126.147 11.2903C125.461 11.2949 124.936 11.1783 124.571 10.9405C124.209 10.7056 124.027 10.3728 124.024 9.94213C124.022 9.64624 124.113 9.39807 124.296 9.19763C124.479 8.99718 124.749 8.85329 125.106 8.76595C124.968 8.70828 124.847 8.61386 124.744 8.48271C124.64 8.34863 124.588 8.20689 124.587 8.05748C124.586 7.86998 124.639 7.71435 124.747 7.59058C124.854 7.46389 125.01 7.3398 125.214 7.21832C124.956 7.10871 124.75 6.93137 124.596 6.6863C124.445 6.44121 124.368 6.15167 124.366 5.81769C124.363 5.46028 124.439 5.15655 124.593 4.90649C124.749 4.65349 124.976 4.46008 125.274 4.32625C125.575 4.19241 125.941 4.12405 126.372 4.12118C126.462 4.12058 126.568 4.12574 126.688 4.13665C126.808 4.14757 126.918 4.16002 127.018 4.17401C127.121 4.18797 127.189 4.19923 127.225 4.20779L128.938 4.19637L128.943 4.8775L128.175 5.08038C128.246 5.1883 128.3 5.30367 128.336 5.42648C128.372 5.54929 128.39 5.67954 128.391 5.81724C128.395 6.34457 128.213 6.75741 127.846 7.05576C127.481 7.35116 126.973 7.50104 126.319 7.5054C126.164 7.49764 126.017 7.4869 125.88 7.47317C125.813 7.52635 125.762 7.58236 125.727 7.64118C125.692 7.70001 125.675 7.76165 125.675 7.8261C125.676 7.89055 125.703 7.94457 125.756 7.98817C125.812 8.02881 125.894 8.06049 126.002 8.0832C126.114 8.10297 126.252 8.11231 126.416 8.11121L127.251 8.10565C127.79 8.10206 128.201 8.21504 128.483 8.44461C128.769 8.67416 128.913 9.01305 128.916 9.46128C128.92 10.0355 128.683 10.4824 128.205 10.802C127.729 11.1216 127.043 11.2843 126.147 11.2903ZM126.198 10.4154C126.517 10.4133 126.791 10.3807 127.019 10.3177C127.25 10.2576 127.427 10.1714 127.549 10.0593C127.672 9.95005 127.732 9.81927 127.731 9.66693C127.73 9.54389 127.693 9.44599 127.619 9.37324C127.549 9.3034 127.44 9.25432 127.293 9.226C127.15 9.19766 126.965 9.18424 126.739 9.18574L126.045 9.19037C125.881 9.19146 125.733 9.21881 125.602 9.27242C125.473 9.32602 125.371 9.39994 125.295 9.4942C125.22 9.59138 125.183 9.70296 125.183 9.82893C125.185 10.0135 125.274 10.1579 125.45 10.2622C125.629 10.3665 125.879 10.4176 126.198 10.4154ZM126.389 6.68753C126.641 6.68585 126.825 6.60699 126.941 6.45094C127.057 6.29489 127.114 6.08356 127.112 5.81697C127.11 5.52108 127.047 5.3003 126.923 5.15464C126.802 5.00603 126.62 4.93253 126.377 4.93415C126.131 4.93579 125.947 5.01173 125.825 5.16196C125.703 5.30926 125.643 5.53086 125.645 5.82675C125.646 6.09335 125.708 6.30388 125.829 6.45835C125.953 6.6128 126.14 6.68919 126.389 6.68753Z" fill="white"/>
<path d="M123.257 4.23424L123.289 9.14722L122.274 9.15399L122.081 8.49608L122.015 8.49652C121.937 8.66111 121.846 8.79941 121.741 8.91144C121.636 9.02347 121.517 9.10776 121.382 9.16433C121.248 9.22089 121.094 9.24974 120.921 9.25089C120.743 9.25209 120.58 9.21948 120.433 9.15307C120.289 9.08372 120.17 8.98637 120.075 8.86102L120.049 8.86119C120.058 8.92266 120.066 9.01782 120.073 9.14669C120.079 9.27262 120.085 9.40589 120.088 9.54649C120.095 9.69 120.099 9.81596 120.1 9.92435L120.109 11.3306L118.769 11.3395L118.722 4.26447L120.062 4.25553L120.081 7.1251C120.083 7.47665 120.15 7.74136 120.28 7.9192C120.41 8.09705 120.613 8.18506 120.888 8.18322C121.155 8.18145 121.364 8.11853 121.515 7.99447C121.67 7.86746 121.778 7.68363 121.841 7.44297C121.904 7.19938 121.934 6.90327 121.932 6.55465L121.916 4.24318L123.257 4.23424Z" fill="white"/>
<path d="M117.554 4.69144C117.559 5.41684 117.506 6.06475 117.395 6.63518C117.288 7.20558 117.111 7.69038 116.863 8.08958C116.62 8.48875 116.298 8.79418 115.898 9.00587C115.498 9.21756 115.011 9.32532 114.437 9.32914C113.716 9.33395 113.122 9.15552 112.657 8.79386C112.191 8.4281 111.846 7.9017 111.62 7.21466C111.394 6.52353 111.278 5.69641 111.271 4.73331C111.265 3.76202 111.36 2.93144 111.556 2.24159C111.756 1.54762 112.084 1.01468 112.541 0.64277C112.998 0.270865 113.609 0.0823592 114.375 0.0772522C115.093 0.0724729 115.684 0.252963 116.15 0.618723C116.619 0.980358 116.969 1.50673 117.199 2.19784C117.429 2.88485 117.547 3.71605 117.554 4.69144ZM113.158 4.72073C113.163 5.40515 113.204 5.97661 113.28 6.43513C113.361 6.88952 113.493 7.23087 113.675 7.45917C113.856 7.68748 114.107 7.80056 114.427 7.79843C114.742 7.79633 114.99 7.68197 115.168 7.45537C115.351 7.22463 115.48 6.88155 115.555 6.42612C115.63 5.96659 115.665 5.39257 115.66 4.70406C115.656 4.01965 115.613 3.4482 115.532 2.98971C115.451 2.53122 115.318 2.18783 115.132 1.95956C114.95 1.72716 114.701 1.61201 114.386 1.61411C114.066 1.61624 113.817 1.73471 113.638 1.96951C113.459 2.20022 113.332 2.54534 113.258 3.00486C113.187 3.46436 113.154 4.03632 113.158 4.72073Z" fill="white"/>
<path d="M107.378 3.51129C107.927 3.50763 108.415 3.60889 108.843 3.81506C109.275 4.0212 109.615 4.32632 109.863 4.73041C110.112 5.13451 110.238 5.63368 110.242 6.22793C110.247 6.87546 110.115 7.43578 109.848 7.90888C109.584 8.37786 109.187 8.73913 108.656 8.99267C108.129 9.24619 107.47 9.37559 106.679 9.38086C106.208 9.384 105.763 9.34598 105.344 9.2668C104.93 9.19169 104.566 9.07321 104.254 8.91135L104.243 7.26999C104.555 7.43184 104.929 7.5687 105.364 7.68056C105.804 7.78829 106.216 7.84087 106.601 7.8383C106.978 7.83579 107.296 7.78449 107.553 7.68441C107.811 7.58024 108.004 7.4232 108.134 7.21332C108.268 6.99931 108.334 6.72837 108.331 6.4005C108.328 5.96199 108.179 5.62691 107.882 5.39527C107.585 5.16364 107.132 5.04985 106.521 5.05392C106.288 5.05548 106.044 5.07965 105.79 5.12642C105.54 5.17317 105.332 5.21964 105.164 5.26584L104.405 4.86515L104.713 0.283058L109.588 0.250572L109.598 1.8612L106.389 1.88258L106.235 3.648C106.374 3.61839 106.526 3.58869 106.689 3.55891C106.853 3.52913 107.083 3.51326 107.378 3.51129Z" fill="white"/>
<path d="M103.223 9.28092L96.9408 9.32278L96.932 8.00108L99.1729 5.70535C99.6247 5.23511 99.9869 4.84335 100.259 4.53005C100.536 4.21262 100.735 3.9244 100.856 3.66539C100.981 3.40635 101.043 3.12929 101.041 2.83422C101.039 2.47767 100.937 2.21195 100.735 2.03706C100.537 1.85804 100.272 1.76964 99.9398 1.77185C99.5914 1.77418 99.2538 1.85635 98.927 2.01836C98.6002 2.18038 98.2595 2.41012 97.905 2.70757L96.864 1.49111C97.1207 1.26808 97.3919 1.05726 97.6775 0.858626C97.9671 0.659969 98.3021 0.499945 98.6825 0.378555C99.0669 0.253039 99.5276 0.188493 100.064 0.184915C100.655 0.180982 101.161 0.284165 101.585 0.494463C102.013 0.704734 102.342 0.993528 102.574 1.36084C102.806 1.72406 102.924 2.13723 102.927 2.60033C102.93 3.09623 102.835 3.54974 102.641 3.96088C102.447 4.37202 102.163 4.77967 101.788 5.18381C101.418 5.58793 100.97 6.0356 100.445 6.52682L99.2963 7.62261L99.2969 7.70868L103.213 7.68258L103.223 9.28092Z" fill="white"/>
<path d="M174.501 95L195.942 82.7651L213.624 72.6752C215.688 71.4976 216.389 68.8508 215.087 66.8634C206.316 53.4762 194.029 41.2746 180.484 32.6281C178.562 31.4015 176.033 32.0212 174.809 33.9444L173.501 36L164.501 51.5L152.501 73C161.146 78.1305 168.81 85.4558 174.001 94L174.501 95Z" fill="#DB170B"/>
<path d="M184.07 74.0524C183.827 74.2824 183.565 74.4173 183.282 74.457C183.004 74.4968 182.715 74.4438 182.414 74.2981C182.114 74.1523 181.812 73.9217 181.509 73.6063C181.258 73.345 181.062 73.1004 180.921 72.8724C180.777 72.6466 180.669 72.4217 180.597 72.1975L181.202 71.6235C181.281 71.8632 181.394 72.1202 181.54 72.3945C181.687 72.6689 181.86 72.9097 182.059 73.1169C182.339 73.4075 182.586 73.573 182.803 73.6133C183.021 73.6558 183.21 73.6018 183.369 73.4513C183.462 73.3632 183.518 73.2599 183.539 73.1414C183.562 73.0208 183.545 72.8618 183.49 72.6645C183.439 72.4673 183.344 72.2041 183.206 71.8749C183.071 71.5502 182.969 71.2593 182.9 71.0022C182.833 70.7473 182.823 70.5136 182.87 70.301C182.917 70.0885 183.045 69.8833 183.253 69.6855C183.578 69.3781 183.948 69.2721 184.365 69.3677C184.786 69.4634 185.201 69.723 185.608 70.1466C185.824 70.3719 186.005 70.6051 186.15 70.8464C186.298 71.0899 186.418 71.3416 186.512 71.6015L185.774 71.8817C185.688 71.6528 185.586 71.4313 185.466 71.217C185.349 71.0007 185.205 70.8035 185.034 70.6255C184.811 70.3935 184.603 70.251 184.409 70.198C184.217 70.1473 184.056 70.1843 183.924 70.309C183.822 70.4057 183.764 70.5145 183.75 70.6353C183.738 70.7584 183.765 70.9187 183.829 71.1162C183.895 71.3116 183.995 71.5661 184.127 71.8798C184.26 72.189 184.358 72.4699 184.423 72.7225C184.491 72.9774 184.501 73.2133 184.454 73.4303C184.406 73.6472 184.279 73.8546 184.07 74.0524Z" fill="white"/>
<path d="M183.292 67.8726L179.544 71.4264L179.021 70.8824L179.444 70.3008L179.408 70.2636C179.205 70.3096 179.002 70.3126 178.799 70.2726C178.596 70.2326 178.4 70.1576 178.212 70.0475C178.024 69.9374 177.849 69.7979 177.686 69.6289C177.411 69.3428 177.225 69.0543 177.128 68.7635C177.032 68.475 177.035 68.1843 177.135 67.8915C177.239 67.5988 177.45 67.3019 177.767 67.0009L180.22 64.6758L180.876 65.3584L178.519 67.5932C178.217 67.8792 178.053 68.1573 178.027 68.4276C178.003 68.7002 178.119 68.9694 178.374 69.2352C178.623 69.4943 178.871 69.6509 179.118 69.7051C179.37 69.7594 179.626 69.7257 179.886 69.604C180.15 69.4824 180.426 69.2851 180.714 69.0121L182.636 67.19L183.292 67.8726Z" fill="white"/>
<path d="M177.479 65.5372C177.17 65.8296 176.856 66.0502 176.535 66.1992C176.219 66.3482 175.904 66.4257 175.588 66.4316C175.278 66.4376 174.976 66.3755 174.681 66.2453C174.39 66.113 174.114 65.9116 173.854 65.6413C173.611 65.389 173.431 65.1161 173.314 64.8226C173.201 64.5292 173.154 64.2275 173.172 63.9173C173.193 63.605 173.283 63.2933 173.443 62.982C173.606 62.6686 173.841 62.3657 174.15 62.0734C174.56 61.6842 174.976 61.423 175.399 61.2896C175.823 61.1541 176.235 61.1449 176.633 61.2621C177.036 61.3794 177.411 61.6183 177.758 61.9788C178.087 62.3212 178.3 62.694 178.397 63.0971C178.494 63.5002 178.468 63.9104 178.318 64.3276C178.169 64.7449 177.889 65.148 177.479 65.5372ZM174.819 62.7695C174.531 63.0425 174.317 63.314 174.178 63.5839C174.043 63.8539 173.992 64.117 174.026 64.3733C174.062 64.6318 174.196 64.8816 174.428 65.1227C174.655 65.3593 174.898 65.5015 175.157 65.5493C175.415 65.5972 175.682 65.5593 175.958 65.4358C176.235 65.3101 176.518 65.1107 176.806 64.8376C177.092 64.5668 177.302 64.2985 177.437 64.0329C177.572 63.7674 177.62 63.5064 177.582 63.25C177.546 62.9958 177.41 62.7471 177.177 62.5038C176.835 62.1478 176.463 62.0004 176.063 62.0616C175.666 62.1229 175.252 62.3589 174.819 62.7695Z" fill="white"/>
<path d="M200.407 69.6715C200.472 69.7391 200.538 69.8166 200.604 69.9041C200.673 69.9894 200.729 70.0656 200.772 70.1327L200.068 70.6647C200.03 70.5978 199.98 70.5239 199.92 70.4432C199.862 70.3648 199.804 70.2952 199.745 70.2343C199.607 70.0902 199.447 69.9785 199.267 69.8995C199.087 69.8204 198.898 69.7807 198.698 69.7805C198.501 69.7781 198.3 69.8197 198.096 69.9053C197.895 69.9887 197.699 70.1207 197.508 70.3013L195.525 72.1814L194.869 71.4988L198.618 67.945L199.144 68.4924L198.545 69.2153L198.574 69.2457C198.784 69.1933 198.997 69.1674 199.214 69.1681C199.434 69.171 199.645 69.2122 199.847 69.2918C200.054 69.3715 200.24 69.4981 200.407 69.6715Z" fill="white"/>
<path d="M196.302 65.4C196.614 65.7244 196.811 66.0693 196.893 66.4346C196.978 66.7978 196.953 67.1618 196.818 67.5265C196.683 67.8912 196.443 68.2369 196.099 68.5637L195.711 68.9313L193.281 66.4036C192.886 66.7909 192.677 67.1858 192.652 67.5883C192.629 67.9886 192.79 68.3679 193.134 68.7261C193.362 68.9626 193.587 69.1518 193.81 69.2935C194.033 69.4353 194.283 69.5633 194.562 69.6778L193.988 70.2228C193.722 70.1175 193.479 69.9885 193.258 69.8358C193.038 69.6875 192.802 69.4827 192.551 69.2213C192.204 68.8609 191.972 68.4755 191.856 68.0653C191.741 67.6574 191.753 67.2436 191.891 66.8239C192.032 66.4021 192.311 65.9934 192.728 65.5978C193.141 65.2065 193.559 64.9409 193.984 64.801C194.411 64.6589 194.823 64.6388 195.219 64.7405C195.616 64.8422 195.977 65.062 196.302 65.4ZM195.768 65.8997C195.504 65.6248 195.201 65.49 194.859 65.4953C194.52 65.4985 194.168 65.6445 193.805 65.9334L195.565 67.765C195.769 67.5671 195.919 67.3624 196.015 67.151C196.111 66.9396 196.141 66.7277 196.106 66.5155C196.073 66.3054 195.961 66.1002 195.768 65.8997Z" fill="white"/>
<path d="M186.772 66.401C186.293 65.9031 186.017 65.4331 185.943 64.9909C185.871 64.5509 186 64.175 186.328 63.8633C186.562 63.6418 186.831 63.5269 187.135 63.5186C187.436 63.5124 187.742 63.6142 188.052 63.824C188.002 63.6819 187.989 63.5307 188.013 63.3705C188.041 63.2103 188.114 63.0744 188.232 62.9626C188.37 62.8314 188.526 62.7569 188.7 62.7389C188.877 62.721 189.089 62.7446 189.333 62.8098C189.227 62.5364 189.21 62.2507 189.283 61.9529C189.359 61.6529 189.524 61.3825 189.778 61.1417C190.048 60.8859 190.332 60.724 190.631 60.656C190.932 60.5903 191.235 60.6172 191.54 60.7366C191.846 60.8561 192.146 61.069 192.44 61.3754C192.505 61.4429 192.569 61.516 192.631 61.5946C192.696 61.6709 192.754 61.7472 192.806 61.8233C192.857 61.8994 192.897 61.963 192.924 62.0143L194.159 63.2985L193.754 63.6823L193.015 63.1166C192.992 63.2637 192.941 63.4134 192.862 63.5657C192.783 63.7181 192.673 63.8609 192.532 63.9942C192.152 64.3554 191.725 64.5118 191.254 64.4634C190.787 64.4151 190.335 64.1634 189.898 63.7083C189.798 63.6003 189.705 63.4847 189.617 63.3615C189.467 63.3183 189.334 63.3043 189.218 63.3192C189.105 63.332 189.005 63.3792 188.919 63.4609C188.853 63.5233 188.821 63.5952 188.821 63.6767C188.823 63.7604 188.854 63.8537 188.914 63.9564C188.976 64.0569 189.065 64.1669 189.179 64.2863L189.803 64.9351C190.193 65.3407 190.405 65.7333 190.441 66.1129C190.476 66.4926 190.329 66.8394 189.998 67.1533C189.578 67.551 189.09 67.6861 188.534 67.5587C187.979 67.4313 187.391 67.0454 186.772 66.401ZM187.294 65.9506C187.574 66.2413 187.836 66.4555 188.081 66.5933C188.329 66.7335 188.554 66.8015 188.758 66.7974C188.962 66.7933 189.139 66.7204 189.289 66.5785C189.425 66.4495 189.498 66.3179 189.508 66.1838C189.517 66.054 189.474 65.9143 189.378 65.7645C189.281 65.6147 189.145 65.4474 188.967 65.2626L188.376 64.6476C188.224 64.4899 188.067 64.3761 187.905 64.3063C187.742 64.2364 187.583 64.2129 187.427 64.2357C187.269 64.2607 187.121 64.3387 186.983 64.4699C186.795 64.6483 186.728 64.8648 186.782 65.1194C186.838 65.3762 187.009 65.6533 187.294 65.9506ZM190.393 63.2969C190.633 63.547 190.879 63.6716 191.13 63.6708C191.382 63.6679 191.632 63.5493 191.88 63.3149C192.145 63.0634 192.284 62.8111 192.296 62.5581C192.309 62.3051 192.196 62.0547 191.958 61.8069C191.726 61.5658 191.48 61.4467 191.218 61.4494C190.96 61.4522 190.7 61.5783 190.437 61.8277C190.195 62.0578 190.068 62.3004 190.058 62.5557C190.05 62.8088 190.161 63.0559 190.393 63.2969Z" fill="white"/>
<path d="M188.871 57.668C189.284 58.0983 189.493 58.5316 189.496 58.9678C189.501 59.4062 189.263 59.8533 188.783 60.3091L186.341 62.6246L185.694 61.9521L188.045 59.7237C188.344 59.4399 188.506 59.1617 188.53 58.8892C188.556 58.6144 188.439 58.3419 188.179 58.0716C187.809 57.6863 187.435 57.5246 187.056 57.5862C186.68 57.6502 186.274 57.8886 185.839 58.3013L183.927 60.1137L183.275 59.4345L187.023 55.8807L187.539 56.418L187.106 57.0158L187.142 57.053C187.349 57.0072 187.556 57.0031 187.761 57.041C187.966 57.0788 188.162 57.1516 188.348 57.2594C188.538 57.3674 188.713 57.5036 188.871 57.668Z" fill="white"/>
<path d="M184.678 53.3119C185.12 53.7715 185.347 54.2129 185.359 54.6361C185.374 55.0571 185.16 55.4773 184.718 55.8965L182.184 58.299L181.716 57.8124L182.134 57.1646L182.108 57.1376C181.872 57.163 181.655 57.1623 181.456 57.1357C181.257 57.109 181.063 57.0429 180.875 56.9372C180.689 56.8337 180.494 56.6761 180.29 56.4643C180.074 56.2391 179.922 55.9998 179.835 55.7467C179.747 55.4936 179.737 55.239 179.803 54.9828C179.873 54.7267 180.035 54.4783 180.289 54.2375C180.67 53.8763 181.099 53.7475 181.575 53.8511C182.052 53.9547 182.583 54.293 183.168 54.866L183.813 55.4823L184.023 55.2824C184.316 55.005 184.46 54.7441 184.454 54.4994C184.451 54.2571 184.338 54.0199 184.115 53.7878C183.931 53.5963 183.726 53.4396 183.5 53.3176C183.277 53.1935 183.049 53.0869 182.816 52.9978L183.105 52.3107C183.364 52.4004 183.632 52.5277 183.907 52.6927C184.185 52.86 184.442 53.0664 184.678 53.3119ZM183.357 55.9012L182.833 55.4034C182.404 54.9881 182.04 54.7539 181.742 54.7007C181.448 54.6477 181.187 54.7297 180.958 54.9468C180.758 55.136 180.669 55.3344 180.691 55.542C180.713 55.7495 180.818 55.9513 181.006 56.1473C181.296 56.4492 181.62 56.6164 181.976 56.6489C182.337 56.6815 182.685 56.5387 183.02 56.2205L183.357 55.9012Z" fill="white"/>
<path d="M181.07 52.1015C180.51 52.6326 179.943 52.974 179.369 53.1259C178.798 53.2756 178.23 53.2459 177.665 53.0367C177.104 52.8277 176.558 52.446 176.025 51.8918L174.723 50.5367L179.695 45.822L181.144 47.3291C181.629 47.8338 181.955 48.3579 182.122 48.9014C182.291 49.4427 182.291 49.9857 182.121 50.5302C181.953 51.0725 181.602 51.5963 181.07 52.1015ZM180.351 51.3943C180.777 50.9901 181.063 50.5882 181.207 50.1885C181.352 49.7888 181.363 49.3926 181.241 48.9999C181.122 48.605 180.877 48.215 180.507 47.8298L179.776 47.0694L175.98 50.6684L176.594 51.307C177.207 51.9446 177.827 52.2696 178.454 52.282C179.081 52.2943 179.714 51.9984 180.351 51.3943Z" fill="white"/>
<path d="M240.248 85.537C240.43 85.855 240.5 86.1641 240.459 86.4642C240.42 86.7629 240.266 86.9892 239.996 87.1431C239.818 87.2448 239.636 87.2798 239.449 87.2481C239.264 87.2189 239.069 87.1121 238.866 86.9278L238.821 86.9539C238.911 87.2429 238.918 87.4905 238.84 87.6969C238.763 87.9058 238.635 88.0618 238.454 88.1649C238.146 88.3406 237.839 88.3673 237.534 88.2451C237.23 88.1213 236.943 87.8229 236.673 87.3496C236.563 87.1562 236.481 86.9632 236.429 86.7706C236.376 86.578 236.347 86.3735 236.342 86.1573L237.071 85.7413C237.065 85.9673 237.078 86.1824 237.11 86.3867C237.143 86.5909 237.212 86.7859 237.318 86.9716C237.425 87.1599 237.538 87.2777 237.656 87.325C237.776 87.3749 237.902 87.3621 238.034 87.2865C238.138 87.227 238.207 87.1287 238.24 86.9918C238.275 86.8573 238.222 86.6667 238.081 86.4199L237.837 85.9924L238.444 85.6461L238.644 85.9972C238.795 86.2618 238.936 86.4076 239.066 86.4346C239.196 86.4616 239.313 86.4453 239.417 86.3857C239.514 86.3305 239.576 86.253 239.603 86.1531C239.63 86.0532 239.607 85.9383 239.533 85.8086C239.465 85.689 239.376 85.5895 239.267 85.5103C239.157 85.431 239.01 85.3479 238.826 85.2609L239.144 84.5683C239.354 84.6578 239.552 84.7755 239.74 84.9213C239.929 85.0697 240.099 85.2749 240.248 85.537Z" fill="white"/>
<path d="M235.932 83.3652C236.208 83.8486 236.292 84.2849 236.183 84.6741C236.079 85.0643 235.753 85.4155 235.206 85.7277L232.424 87.3156L231.757 86.1477L234.249 84.7253C234.555 84.5511 234.755 84.3675 234.851 84.1746C234.947 83.9817 234.932 83.7758 234.807 83.557C234.631 83.2491 234.396 83.0935 234.1 83.09C233.808 83.0852 233.456 83.1996 233.047 83.4334L230.905 84.6554L230.241 83.4913L232.733 82.0689C232.937 81.9528 233.094 81.8326 233.206 81.7083C233.317 81.5841 233.38 81.4553 233.395 81.322C233.41 81.1886 233.375 81.0482 233.291 80.9006C233.168 80.6843 233.016 80.5451 232.835 80.4828C232.659 80.4217 232.449 80.4246 232.208 80.4917C231.97 80.5599 231.7 80.6804 231.397 80.8532L229.389 81.999L228.725 80.8349L232.992 78.3996L233.5 79.2889L233.043 79.7569L233.08 79.8218C233.277 79.8241 233.458 79.8639 233.624 79.9414C233.791 80.0215 233.941 80.128 234.075 80.2611C234.208 80.3942 234.321 80.5421 234.414 80.705C234.593 81.0179 234.693 81.3116 234.714 81.586C234.738 81.8629 234.676 82.1208 234.529 82.3599L234.588 82.4629C234.879 82.4653 235.14 82.5539 235.372 82.7288C235.605 82.9063 235.791 83.1184 235.932 83.3652Z" fill="white"/>
<path d="M233.935 77.0016L227.168 78.1061L226.565 77.0489L233.332 75.9444L233.935 77.0016Z" fill="white"/>
<path d="M223.194 75.5061C222.854 74.9107 222.698 74.3957 222.727 73.9611C222.754 73.5305 222.955 73.2085 223.329 72.995C223.586 72.8483 223.847 72.8058 224.111 72.8673C224.376 72.9289 224.634 73.0938 224.885 73.3621C224.867 73.2135 224.89 73.062 224.954 72.9076C225.02 72.7517 225.118 72.6368 225.248 72.5627C225.411 72.4698 225.573 72.4399 225.733 72.473C225.896 72.5047 226.081 72.5799 226.287 72.6985C226.256 72.4194 226.309 72.1527 226.448 71.8984C226.587 71.6466 226.802 71.438 227.092 71.2724C227.403 71.0953 227.705 71.0124 227.998 71.0238C228.295 71.0363 228.575 71.1397 228.838 71.3339C229.102 71.5306 229.34 71.816 229.554 72.19C229.599 72.2689 229.646 72.3634 229.695 72.4735C229.745 72.5837 229.788 72.6856 229.824 72.7794C229.863 72.8757 229.887 72.9413 229.896 72.9762L230.746 74.4647L230.154 74.8023L229.601 74.2324C229.542 74.3472 229.468 74.4504 229.378 74.5419C229.289 74.6334 229.184 74.7133 229.065 74.7816C228.607 75.043 228.158 75.0867 227.718 74.9128C227.282 74.7399 226.902 74.3698 226.578 73.8024C226.509 73.6632 226.446 73.5301 226.391 73.4033C226.312 73.3709 226.238 73.354 226.169 73.3525C226.101 73.351 226.039 73.3662 225.983 73.3982C225.927 73.4301 225.893 73.4799 225.881 73.5475C225.873 73.6161 225.886 73.7034 225.919 73.8091C225.956 73.916 226.016 74.0406 226.097 74.1831L226.511 74.9083C226.778 75.3765 226.881 75.7901 226.819 76.1491C226.759 76.5106 226.534 76.8025 226.145 77.0246C225.646 77.3093 225.141 77.3213 224.628 77.0609C224.116 76.803 223.638 76.2847 223.194 75.5061ZM223.982 75.1222C224.14 75.3996 224.302 75.6223 224.469 75.7902C224.635 75.9622 224.796 76.074 224.954 76.1257C225.109 76.1788 225.253 76.1677 225.385 76.0921C225.492 76.0312 225.559 75.9507 225.586 75.8508C225.613 75.7549 225.602 75.636 225.555 75.4943C225.509 75.3551 225.431 75.1875 225.319 74.9916L224.975 74.3886C224.893 74.2461 224.797 74.1307 224.686 74.0423C224.576 73.9565 224.462 73.9037 224.343 73.884C224.221 73.8658 224.105 73.8879 223.996 73.9503C223.836 74.0418 223.753 74.19 223.749 74.395C223.746 74.6025 223.823 74.8449 223.982 75.1222ZM227.325 73.4621C227.45 73.6809 227.609 73.8028 227.802 73.8276C227.995 73.8524 228.207 73.7987 228.438 73.6666C228.695 73.5199 228.857 73.3568 228.923 73.1774C228.993 72.999 228.968 72.8042 228.848 72.593C228.726 72.3793 228.569 72.256 228.379 72.2232C228.19 72.1889 227.968 72.2451 227.711 72.3918C227.479 72.5239 227.326 72.6807 227.251 72.8619C227.177 73.0458 227.201 73.2458 227.325 73.4621Z" fill="white"/>
<path d="M227.93 69.5296L223.663 71.9649L223.159 71.0833L223.638 70.5924L223.606 70.5352C223.424 70.5478 223.258 70.5359 223.11 70.4995C222.961 70.4631 222.828 70.4001 222.713 70.3107C222.598 70.2212 222.498 70.1014 222.412 69.9513C222.324 69.7961 222.272 69.6382 222.258 69.4775C222.248 69.318 222.274 69.1663 222.337 69.0224L222.324 68.9995C222.275 69.0377 222.196 69.0912 222.087 69.1602C221.981 69.2277 221.867 69.2976 221.746 69.3699C221.625 69.4461 221.517 69.5111 221.422 69.5648L220.201 70.2619L219.537 69.0978L225.682 65.5908L226.346 66.7549L223.854 68.1773C223.548 68.3516 223.35 68.539 223.259 68.7395C223.167 68.94 223.19 69.1599 223.327 69.3991C223.459 69.6306 223.616 69.7821 223.798 69.8534C223.985 69.9258 224.198 69.9305 224.439 69.8674C224.682 69.8028 224.955 69.6841 225.258 69.5113L227.265 68.3656L227.93 69.5296Z" fill="white"/>
<path d="M224.738 64.7822C224.108 65.1418 223.517 65.4129 222.965 65.5956C222.416 65.7819 221.906 65.865 221.437 65.8449C220.97 65.8284 220.546 65.6975 220.165 65.4523C219.785 65.2071 219.452 64.8353 219.168 64.337C218.81 63.7105 218.675 63.1057 218.762 62.5227C218.853 61.9377 219.143 61.3784 219.631 60.8449C220.123 60.3094 220.787 59.8029 221.624 59.3255C222.467 58.8441 223.238 58.5199 223.935 58.353C224.638 58.1877 225.264 58.2129 225.812 58.4288C226.36 58.6446 226.824 59.0853 227.203 59.751C227.559 60.3739 227.691 60.9778 227.601 61.5629C227.515 62.1495 227.228 62.7123 226.738 63.2514C226.252 63.7885 225.585 64.2987 224.738 64.7822ZM222.559 60.9647C221.965 61.3039 221.486 61.6193 221.124 61.9109C220.768 62.2041 220.535 62.4858 220.425 62.7562C220.315 63.0266 220.339 63.3006 220.497 63.5782C220.654 63.8523 220.875 64.0118 221.16 64.0567C221.451 64.1031 221.813 64.0474 222.246 63.8895C222.684 63.7296 223.201 63.479 223.799 63.1377C224.394 62.7985 224.871 62.4813 225.231 62.1861C225.591 61.891 225.825 61.6064 225.933 61.3325C226.047 61.0601 226.025 60.7868 225.869 60.5128C225.71 60.2351 225.485 60.0759 225.193 60.0351C224.904 59.9922 224.541 60.0507 224.104 60.2106C223.668 60.3741 223.154 60.6254 222.559 60.9647Z" fill="white"/>
<path d="M223.174 57.032C222.814 57.2372 222.46 57.3402 222.111 57.341C221.763 57.3418 221.432 57.2618 221.118 57.101C220.806 56.9438 220.521 56.7291 220.262 56.457L220.23 56.4753C220.509 57.1464 220.588 57.7313 220.467 58.23C220.348 58.7321 220.032 59.1295 219.519 59.422C219.064 59.682 218.592 59.8025 218.105 59.7834C217.619 59.7679 217.141 59.5877 216.671 59.2428C216.2 58.8979 215.757 58.3606 215.34 57.6309C215.094 57.2002 214.9 56.7777 214.758 56.3633C214.615 55.9545 214.521 55.5458 214.476 55.137L215.88 54.3356C215.9 54.7677 215.971 55.1925 216.091 55.6099C216.215 56.0253 216.367 56.3914 216.548 56.7082C216.885 57.299 217.222 57.654 217.559 57.7732C217.902 57.8938 218.258 57.8485 218.628 57.6373C218.845 57.5133 218.997 57.3535 219.084 57.1579C219.17 56.9622 219.174 56.705 219.096 56.3862C219.02 56.071 218.843 55.6696 218.565 55.1819L218.226 54.5893L219.492 53.8671L219.836 54.4704C220.11 54.951 220.363 55.2904 220.594 55.4888C220.831 55.6887 221.053 55.7885 221.261 55.7881C221.474 55.7892 221.681 55.7319 221.884 55.6161C222.162 55.4576 222.33 55.2483 222.389 54.988C222.449 54.7278 222.364 54.3983 222.137 53.9997C221.995 53.7505 221.833 53.541 221.651 53.3711C221.474 53.2027 221.295 53.0621 221.113 52.9491C220.934 52.8342 220.768 52.7377 220.615 52.6599L221.316 51.2473C221.712 51.4275 222.099 51.6806 222.479 52.0066C222.86 52.3363 223.214 52.7858 223.539 53.3553C223.998 54.1598 224.199 54.8894 224.144 55.5441C224.088 56.1988 223.765 56.6948 223.174 57.032Z" fill="white"/>
<path d="M215.434 53.7901L214.898 52.8504L213.28 53.7737L212.36 52.1613L213.978 51.238L212.076 47.9063L213.224 47.2512L220.218 47.7971L221.086 49.3188L216.18 52.1191L216.716 53.0588L215.434 53.7901ZM215.259 50.5067L216.583 49.751C216.708 49.6799 216.857 49.5973 217.03 49.5034C217.205 49.413 217.38 49.3226 217.554 49.2322C217.729 49.1418 217.885 49.0626 218.02 48.9946C218.162 48.928 218.26 48.8813 218.316 48.8544L218.291 48.8117C218.107 48.8274 217.924 48.8374 217.742 48.8419C217.564 48.8444 217.372 48.8384 217.166 48.8241L214.187 48.6273L215.259 50.5067Z" fill="white"/>
<path d="M123 65C133.45 65.1662 143.943 68.2888 152.5 73L165 51.5L174.936 33.6986C176.076 31.655 175.35 29.0667 173.267 28C159.453 20.9257 143.7 16.4179 127.278 15.6224C124.923 15.5084 123 17.4219 123 19.7791V40V65Z" fill="url(#paint0_linear_615_509)"/>
<path d="M149.97 42.9035L149.546 44.8643C149.512 45.0201 149.474 45.1718 149.433 45.3196C149.391 45.4673 149.354 45.5902 149.32 45.6884L149.375 45.7001C149.52 45.5456 149.683 45.4268 149.864 45.3438C150.049 45.2584 150.247 45.2077 150.458 45.1917C150.673 45.1734 150.892 45.1878 151.115 45.2351C151.51 45.3186 151.829 45.4534 152.073 45.6393C152.318 45.8252 152.481 46.0689 152.563 46.3705C152.645 46.6691 152.64 47.0337 152.547 47.4643L151.836 50.7537L150.923 50.5604L151.607 47.3948C151.695 46.9916 151.671 46.6705 151.538 46.4313C151.404 46.1891 151.155 46.0292 150.788 45.9515C150.439 45.8777 150.146 45.889 149.908 45.9855C149.67 46.0789 149.478 46.2506 149.331 46.5006C149.184 46.7505 149.069 47.071 148.984 47.462L148.429 50.0321L147.507 49.8369L149.048 42.7083L149.97 42.9035Z" fill="white"/>
<path d="M143.297 51.3022C142.621 51.1591 142.128 50.9253 141.818 50.6009C141.511 50.2771 141.405 49.8937 141.501 49.4509C141.569 49.1363 141.726 48.8901 141.972 48.7123C142.218 48.5375 142.528 48.4498 142.902 48.4492C142.78 48.3597 142.684 48.2419 142.614 48.096C142.547 47.9476 142.53 47.794 142.565 47.6352C142.605 47.4489 142.691 47.2996 142.824 47.1872C142.961 47.0724 143.149 46.9732 143.387 46.8896C143.145 46.7233 142.971 46.4963 142.863 46.2085C142.757 45.9176 142.74 45.6011 142.814 45.2591C142.893 44.8956 143.036 44.6018 143.245 44.3776C143.456 44.1541 143.721 44.0059 144.041 43.933C144.36 43.8601 144.728 43.8677 145.144 43.9558C145.235 43.9752 145.329 43.9999 145.425 44.0297C145.521 44.0566 145.612 44.087 145.698 44.1211C145.783 44.1551 145.852 44.1856 145.903 44.2125L147.646 44.5816L147.528 45.1268L146.599 45.0739C146.663 45.2087 146.705 45.3614 146.726 45.5318C146.747 45.7023 146.736 45.8822 146.696 46.0716C146.585 46.5847 146.321 46.9537 145.905 47.1785C145.492 47.401 144.977 47.4468 144.36 47.316C144.217 47.2825 144.074 47.2395 143.932 47.1871C143.784 47.2356 143.667 47.2985 143.58 47.3759C143.493 47.4502 143.437 47.5454 143.412 47.6615C143.393 47.7501 143.407 47.828 143.453 47.8953C143.502 47.9632 143.58 48.0229 143.688 48.0743C143.795 48.1227 143.93 48.1641 144.092 48.1984L144.973 48.3849C145.523 48.5014 145.92 48.7068 146.163 49.0011C146.406 49.2954 146.48 49.6655 146.383 50.1114C146.261 50.6764 145.935 51.0625 145.404 51.2695C144.874 51.4765 144.171 51.4874 143.297 51.3022ZM143.475 50.6355C143.869 50.719 144.206 50.749 144.486 50.7252C144.769 50.7022 144.994 50.6316 145.16 50.5134C145.326 50.3953 145.431 50.2355 145.475 50.0339C145.514 49.8507 145.5 49.7008 145.433 49.5843C145.368 49.4715 145.253 49.3801 145.089 49.3103C144.925 49.2404 144.718 49.1789 144.467 49.1258L143.633 48.9491C143.419 48.9037 143.225 48.8978 143.052 48.9314C142.878 48.9649 142.734 49.0349 142.618 49.1413C142.501 49.2508 142.423 49.3987 142.383 49.585C142.328 49.8385 142.395 50.0554 142.583 50.2358C142.774 50.4168 143.071 50.55 143.475 50.6355ZM144.537 46.6971C144.876 46.769 145.149 46.7341 145.355 46.5926C145.562 46.448 145.702 46.2093 145.774 45.8764C145.851 45.519 145.824 45.2321 145.691 45.0157C145.559 44.7992 145.325 44.6553 144.989 44.5841C144.662 44.5148 144.391 44.5549 144.176 44.7043C143.965 44.8513 143.822 45.1019 143.745 45.4562C143.675 45.783 143.707 46.055 143.842 46.2721C143.978 46.4861 144.21 46.6278 144.537 46.6971Z" fill="white"/>
<path d="M141.872 43.3634L140.781 48.412L139.859 48.2168L140.95 43.1681L141.872 43.3634ZM141.831 41.3568C141.977 41.3879 142.094 41.4572 142.179 41.5647C142.268 41.6729 142.291 41.8232 142.249 42.0156C142.208 42.208 142.124 42.3372 141.998 42.4031C141.875 42.4666 141.741 42.4828 141.594 42.4517C141.444 42.42 141.327 42.3504 141.241 42.2429C141.159 42.1329 141.139 41.9817 141.181 41.7893C141.223 41.5969 141.303 41.4686 141.422 41.4045C141.545 41.341 141.681 41.3251 141.831 41.3568Z" fill="white"/>
<path d="M138.171 47.8594L137.231 47.6603L137.899 44.5679L134.593 43.8676L133.925 46.96L132.985 46.7609L134.433 40.063L135.373 40.2621L134.769 43.0567L138.075 43.757L138.679 40.9624L139.619 41.1615L138.171 47.8594Z" fill="white"/>
<path d="M150.84 34.019L151.835 34.2297L152.279 37.3662C152.302 37.5275 152.321 37.6848 152.335 37.838C152.354 37.9889 152.365 38.1351 152.37 38.2766C152.378 38.4157 152.379 38.5516 152.373 38.6844L152.405 38.6912C152.475 38.5432 152.568 38.3649 152.684 38.1562C152.799 37.9475 152.921 37.737 153.05 37.5248L154.705 34.8378L155.696 35.0476L152.267 40.3485C152.079 40.644 151.874 40.8881 151.654 41.0809C151.435 41.2774 151.197 41.4121 150.938 41.4851C150.679 41.5611 150.39 41.5654 150.072 41.4981C149.925 41.467 149.797 41.4303 149.688 41.3881C149.582 41.3495 149.491 41.3111 149.416 41.2729L149.574 40.5399C149.638 40.5694 149.716 40.6003 149.808 40.6326C149.904 40.6655 150.003 40.693 150.107 40.715C150.3 40.7558 150.473 40.7526 150.627 40.7054C150.784 40.6618 150.926 40.5817 151.053 40.465C151.184 40.3489 151.302 40.2064 151.409 40.0374L151.767 39.4904L150.84 34.019Z" fill="white"/>
<path d="M150.121 33.771C150.212 33.7904 150.31 33.8176 150.415 33.8525C150.52 33.8843 150.609 33.9159 150.682 33.9474L150.401 34.7837C150.331 34.7498 150.249 34.7164 150.154 34.6835C150.062 34.6512 149.974 34.6263 149.892 34.6088C149.696 34.5674 149.502 34.5645 149.308 34.6003C149.115 34.636 148.936 34.7099 148.771 34.8219C148.607 34.9309 148.465 35.078 148.345 35.2634C148.226 35.4458 148.138 35.6652 148.083 35.9218L147.506 38.5927L146.579 38.3965L147.671 33.3479L148.413 33.5052L148.326 34.4402L148.368 34.4489C148.511 34.2877 148.673 34.1463 148.853 34.0246C149.035 33.9036 149.233 33.8193 149.444 33.7715C149.66 33.7213 149.885 33.7211 150.121 33.771Z" fill="white"/>
<path d="M144.326 32.5433C144.766 32.6366 145.123 32.8112 145.397 33.0673C145.672 33.3203 145.856 33.6356 145.95 34.0133C146.044 34.391 146.041 34.812 145.941 35.2762L145.828 35.7985L142.398 35.072C142.29 35.6145 142.34 36.0593 142.546 36.4065C142.753 36.7506 143.1 36.9741 143.586 37.077C143.907 37.145 144.199 37.175 144.463 37.167C144.727 37.159 145.006 37.124 145.301 37.0618L145.133 37.8361C144.855 37.8984 144.581 37.9283 144.313 37.9259C144.048 37.9271 143.738 37.8901 143.383 37.815C142.894 37.7114 142.485 37.5227 142.158 37.2489C141.833 36.9757 141.61 36.6266 141.488 36.2014C141.366 35.7732 141.366 35.2781 141.487 34.7161C141.607 34.1603 141.803 33.7051 142.075 33.3506C142.347 32.993 142.676 32.7448 143.061 32.606C143.445 32.4671 143.867 32.4462 144.326 32.5433ZM144.167 33.2571C143.794 33.1781 143.468 33.2368 143.189 33.4332C142.91 33.6266 142.702 33.9451 142.565 34.3887L145.05 34.9151C145.107 34.6365 145.116 34.3828 145.076 34.1539C145.036 33.925 144.941 33.7326 144.793 33.5766C144.647 33.4212 144.439 33.3147 144.167 33.2571Z" fill="white"/>
<path d="M141.892 30.399L138.069 36.5938L137.093 36.3869L136.165 29.1859L137.137 29.3918L137.697 34.0139C137.719 34.1752 137.737 34.3451 137.75 34.5234C137.763 34.6987 137.773 34.8733 137.78 35.0473C137.787 35.2213 137.79 35.38 137.788 35.5232C137.845 35.3916 137.911 35.2475 137.987 35.091C138.065 34.9352 138.148 34.7788 138.237 34.6218C138.326 34.4618 138.412 34.3109 138.497 34.1692L140.911 30.1912L141.892 30.399Z" fill="white"/>
<path d="M202.933 31.4186C203.242 31.6147 203.449 31.855 203.553 32.1396C203.659 32.4216 203.628 32.6938 203.462 32.956C203.352 33.1292 203.207 33.2455 203.027 33.3049C202.85 33.3658 202.628 33.3623 202.363 33.2944L202.334 33.339C202.55 33.5519 202.671 33.7677 202.699 33.9865C202.729 34.2069 202.689 34.4049 202.577 34.5806C202.387 34.88 202.129 35.0472 201.801 35.0823C201.475 35.1149 201.082 34.9853 200.622 34.6935C200.434 34.5742 200.272 34.4418 200.135 34.2962C199.998 34.1505 199.877 33.9834 199.771 33.7948L200.221 33.086C200.321 33.2886 200.434 33.4725 200.558 33.6379C200.682 33.8033 200.834 33.9433 201.015 34.0579C201.198 34.174 201.352 34.2253 201.479 34.2119C201.608 34.2 201.713 34.1297 201.795 34.0011C201.859 33.8996 201.874 33.7806 201.839 33.6441C201.807 33.5091 201.671 33.3655 201.431 33.2133L201.015 32.9497L201.389 32.3596L201.731 32.5761C201.988 32.7393 202.18 32.8024 202.308 32.7653C202.435 32.7283 202.531 32.6591 202.596 32.5576C202.655 32.4636 202.674 32.3661 202.651 32.265C202.629 32.1639 202.554 32.0734 202.428 31.9933C202.312 31.9196 202.187 31.8733 202.053 31.8544C201.919 31.8355 201.751 31.8308 201.547 31.8403L201.504 31.0793C201.731 31.0603 201.962 31.0713 202.196 31.1123C202.432 31.1549 202.678 31.2569 202.933 31.4186Z" fill="white"/>
<path d="M198.103 31.5189C198.573 31.8171 198.851 32.1635 198.938 32.5581C199.028 32.9519 198.904 33.4147 198.567 33.9466L196.851 36.652L195.716 35.9318L197.252 33.5085C197.441 33.2116 197.532 32.9555 197.526 32.7403C197.521 32.525 197.411 32.3499 197.199 32.215C196.899 32.0251 196.618 31.9978 196.355 32.133C196.094 32.2658 195.837 32.5313 195.585 32.9296L194.264 35.0115L193.133 34.2937L194.67 31.8703C194.795 31.6724 194.878 31.4925 194.918 31.3307C194.958 31.1688 194.954 31.0255 194.905 30.9006C194.855 30.7758 194.759 30.6678 194.616 30.5768C194.405 30.4435 194.206 30.3915 194.017 30.421C193.832 30.4496 193.649 30.5501 193.467 30.7225C193.289 30.894 193.106 31.1269 192.92 31.4214L191.682 33.3734L190.55 32.6555L193.181 28.5065L194.046 29.0549L193.861 29.6821L193.924 29.7221C194.1 29.632 194.278 29.5824 194.461 29.5733C194.646 29.5659 194.829 29.5897 195.009 29.645C195.189 29.7002 195.358 29.778 195.517 29.8784C195.821 30.0714 196.047 30.2841 196.194 30.5164C196.344 30.7503 196.41 31.0073 196.392 31.2873L196.492 31.3509C196.751 31.2165 197.024 31.1725 197.31 31.2188C197.599 31.2667 197.863 31.3667 198.103 31.5189Z" fill="white"/>
<path d="M193.359 26.8298L187.896 30.9727L186.868 30.3207L192.331 26.1778L193.359 26.8298Z" fill="white"/>
<path d="M183.168 30.5343C182.589 30.1672 182.21 29.7849 182.032 29.3874C181.855 28.994 181.882 28.6155 182.113 28.2518C182.271 28.0019 182.482 27.8423 182.744 27.7729C183.007 27.7035 183.312 27.7287 183.659 27.8483C183.574 27.7251 183.524 27.5804 183.508 27.4141C183.493 27.2454 183.526 27.0979 183.606 26.9718C183.706 26.8134 183.835 26.7113 183.993 26.6655C184.152 26.6171 184.35 26.5972 184.588 26.6056C184.43 26.3735 184.352 26.1127 184.355 25.8233C184.361 25.5355 184.453 25.2505 184.632 24.9685C184.823 24.6666 185.051 24.4522 185.316 24.325C185.584 24.197 185.88 24.1573 186.203 24.206C186.529 24.2563 186.873 24.3968 187.237 24.6275C187.313 24.6761 187.399 24.7375 187.495 24.8118C187.59 24.886 187.675 24.956 187.752 25.0217C187.83 25.089 187.882 25.1358 187.907 25.162L189.355 26.0799L188.99 26.6551L188.234 26.4103C188.236 26.5395 188.218 26.6654 188.182 26.7882C188.146 26.9109 188.091 27.0304 188.017 27.1467C187.735 27.592 187.358 27.8408 186.888 27.893C186.422 27.9442 185.913 27.7949 185.361 27.445C185.235 27.3544 185.118 27.2661 185.009 27.1799C184.924 27.1884 184.851 27.2079 184.79 27.2386C184.729 27.2692 184.681 27.3118 184.646 27.3662C184.612 27.4206 184.605 27.4805 184.626 27.5459C184.651 27.6103 184.703 27.6815 184.782 27.7593C184.865 27.8363 184.976 27.9187 185.115 28.0065L185.82 28.4537C186.275 28.7425 186.559 29.0599 186.673 29.4059C186.789 29.7536 186.727 30.1167 186.487 30.4952C186.179 30.9801 185.738 31.2275 185.163 31.2374C184.59 31.2488 183.925 31.0145 183.168 30.5343ZM183.685 29.8264C183.954 29.9975 184.202 30.1182 184.428 30.1886C184.655 30.2631 184.85 30.2863 185.013 30.2582C185.175 30.2325 185.297 30.1554 185.379 30.0267C185.445 29.9228 185.466 29.8203 185.444 29.7192C185.422 29.6222 185.357 29.5221 185.249 29.4189C185.144 29.3173 184.996 29.2061 184.805 29.0852L184.219 28.7134C184.08 28.6255 183.941 28.5685 183.802 28.5424C183.664 28.5179 183.539 28.5249 183.424 28.5632C183.308 28.6041 183.216 28.6777 183.149 28.7841C183.05 28.9399 183.046 29.1095 183.138 29.2927C183.233 29.4775 183.415 29.6554 183.685 29.8264ZM185.862 26.7947C186.075 26.9297 186.272 26.963 186.455 26.8946C186.637 26.8263 186.799 26.6795 186.942 26.4544C187.1 26.2045 187.167 25.9847 187.142 25.7951C187.12 25.6046 187.007 25.4442 186.801 25.314C186.594 25.1822 186.398 25.1464 186.214 25.2067C186.031 25.2645 185.861 25.4184 185.702 25.6682C185.56 25.8934 185.497 26.1037 185.516 26.2991C185.536 26.4962 185.652 26.6614 185.862 26.7947Z" fill="white"/>
<path d="M184.556 23.0366L181.925 27.1856L181.068 26.6419L181.261 25.9841L181.206 25.9488C181.051 26.045 180.899 26.1118 180.751 26.1493C180.602 26.1869 180.456 26.193 180.312 26.1679C180.168 26.1427 180.024 26.0838 179.878 25.9912C179.727 25.8955 179.607 25.78 179.52 25.6446C179.436 25.5084 179.389 25.3619 179.377 25.2053L179.355 25.1912C179.329 25.2479 179.284 25.3322 179.22 25.4442C179.158 25.5537 179.09 25.6687 179.017 25.789C178.945 25.9133 178.88 26.0213 178.822 26.1128L178.069 27.3004L176.937 26.5825L180.727 20.6077L181.858 21.3255L180.322 23.7489C180.133 24.0458 180.046 24.3042 180.059 24.5241C180.072 24.7441 180.195 24.9278 180.427 25.0753C180.652 25.2181 180.862 25.2783 181.057 25.256C181.255 25.2328 181.446 25.137 181.629 24.9687C181.814 24.7978 182 24.5652 182.187 24.2708L183.425 22.3188L184.556 23.0366Z" fill="white"/>
<path d="M179.514 20.3349C179.125 20.9475 178.73 21.4636 178.328 21.8832C177.929 22.305 177.518 22.6168 177.094 22.8186C176.673 23.0227 176.237 23.1054 175.786 23.0668C175.335 23.0282 174.867 22.8552 174.383 22.5479C173.774 22.1616 173.371 21.6904 173.175 21.1343C172.982 20.5748 172.976 19.945 173.158 19.245C173.342 18.5416 173.692 17.7832 174.208 16.9699C174.728 16.1496 175.257 15.5025 175.796 15.0287C176.34 14.5535 176.904 14.2831 177.49 14.2174C178.075 14.1518 178.691 14.3242 179.338 14.7347C179.944 15.1188 180.343 15.5906 180.537 16.1502C180.736 16.7084 180.745 17.3404 180.565 18.046C180.386 18.7482 180.036 19.5112 179.514 20.3349ZM175.802 17.9807C175.435 18.5587 175.16 19.0612 174.976 19.4884C174.799 19.9143 174.724 20.2724 174.754 20.5628C174.783 20.8532 174.933 21.084 175.203 21.2552C175.469 21.4242 175.739 21.4619 176.012 21.3681C176.291 21.273 176.585 21.0543 176.894 20.7118C177.206 20.3659 177.546 19.9022 177.915 19.3208C178.281 18.7428 178.554 18.2391 178.735 17.8098C178.915 17.3804 178.988 17.0195 178.955 16.7269C178.928 16.433 178.781 16.2016 178.515 16.0326C178.245 15.8613 177.971 15.8261 177.694 15.9268C177.419 16.024 177.125 16.2456 176.814 16.5915C176.506 16.9396 176.168 17.4027 175.802 17.9807Z" fill="white"/>
<path d="M171.595 13.8351C172.059 14.1292 172.415 14.4787 172.663 14.8835C172.914 15.2905 173.035 15.7312 173.025 16.2055C173.016 16.6798 172.852 17.1679 172.533 17.6698C172.187 18.2166 171.773 18.6166 171.292 18.8697C170.817 19.1216 170.287 19.2104 169.703 19.1362C169.123 19.0642 168.499 18.8163 167.831 18.3927C167.433 18.1403 167.079 17.8675 166.77 17.5744C166.462 17.2869 166.221 16.9906 166.046 16.6853L166.925 15.2992C167.1 15.6044 167.34 15.9218 167.646 16.2514C167.957 16.5797 168.275 16.8471 168.6 17.0534C168.919 17.2553 169.213 17.3839 169.484 17.4392C169.757 17.4909 170.005 17.4637 170.227 17.3574C170.456 17.2499 170.658 17.0576 170.833 16.7808C171.068 16.4104 171.124 16.0476 171 15.6923C170.875 15.337 170.556 14.9958 170.04 14.6687C169.843 14.5436 169.625 14.432 169.386 14.334C169.151 14.2382 168.95 14.1643 168.784 14.1124L168.363 13.3648L171.101 9.67819L175.218 12.2892L174.355 13.6494L171.645 11.9306L170.56 13.3317C170.693 13.3821 170.837 13.4391 170.991 13.5027C171.144 13.5662 171.346 13.6771 171.595 13.8351Z" fill="white"/>
<path d="M168.42 10.3584C168.198 10.708 167.933 10.9647 167.626 11.1286C167.318 11.2925 166.988 11.3768 166.635 11.3814C166.287 11.3883 165.934 11.3321 165.578 11.2128L165.558 11.244C166.119 11.7065 166.462 12.1864 166.588 12.6838C166.718 13.1834 166.625 13.6824 166.309 14.1808C166.028 14.6238 165.667 14.9509 165.228 15.1622C164.791 15.3756 164.285 15.4401 163.707 15.3555C163.13 15.2708 162.487 15.0035 161.777 14.5536C161.358 14.288 160.989 14.0053 160.67 13.7056C160.352 13.4116 160.077 13.0944 159.847 12.754L160.712 11.3886C160.932 11.7611 161.193 12.1036 161.495 12.4162C161.799 12.7254 162.105 12.9776 162.413 13.173C162.987 13.5374 163.451 13.6933 163.805 13.6409C164.164 13.5873 164.458 13.3805 164.686 13.0205C164.82 12.8094 164.879 12.5971 164.864 12.3837C164.849 12.1703 164.732 11.941 164.514 11.6959C164.299 11.4529 163.955 11.1811 163.481 10.8803L162.905 10.5149L163.685 9.28448L164.272 9.65654C164.739 9.95287 165.121 10.1346 165.418 10.2017C165.721 10.2676 165.964 10.2518 166.147 10.1544C166.336 10.0557 166.493 9.90776 166.618 9.71048C166.789 9.44053 166.84 9.17672 166.77 8.91908C166.701 8.66143 166.472 8.40969 166.085 8.16384C165.842 8.01019 165.601 7.90086 165.361 7.83584C165.126 7.76956 164.902 7.7292 164.688 7.71475C164.476 7.69684 164.284 7.68928 164.112 7.69205L164.071 6.11543C164.505 6.08962 164.966 6.13198 165.454 6.24251C165.946 6.35523 166.468 6.5872 167.022 6.9384C167.804 7.43448 168.324 7.98487 168.581 8.58957C168.838 9.19426 168.784 9.78387 168.42 10.3584Z" fill="white"/>
<path d="M91.0007 72.9999C99.5579 68.2887 112.55 65.0977 123.001 64.9315C123.001 64.9315 123.001 50.0202 123.001 40.4658C123.001 34.1187 123.001 25.4077 123.001 20.2745C123.001 17.9173 121.079 16.0092 118.725 16.122C101.984 16.9242 84.2129 21.5108 70.0568 28.5952C67.9349 29.6571 67.2233 32.2959 68.4202 34.3448L78.621 51.8075L91.0007 72.9999Z" fill="url(#paint1_linear_615_509)"/>
<path d="M103.533 35.2292L104.095 37.155C104.14 37.3079 104.179 37.4592 104.213 37.6088C104.247 37.7584 104.272 37.8844 104.289 37.9868L104.343 37.9713C104.398 37.767 104.485 37.5859 104.605 37.4278C104.727 37.2659 104.877 37.1283 105.055 37.0151C105.236 36.8981 105.436 36.808 105.655 36.7449C106.043 36.6334 106.388 36.6021 106.692 36.6512C106.996 36.7002 107.256 36.8383 107.472 37.0655C107.688 37.2897 107.857 37.6133 107.98 38.0362L108.923 41.2668L108.027 41.5249L107.119 38.4158C107.004 38.0198 106.83 37.7479 106.598 37.6001C106.365 37.4493 106.069 37.4257 105.708 37.5295C105.366 37.628 105.113 37.7757 104.949 37.9725C104.784 38.1662 104.697 38.4076 104.687 38.6967C104.677 38.9857 104.728 39.3222 104.84 39.7061L105.576 42.2303L104.671 42.4909L102.628 35.4899L103.533 35.2292Z" fill="white"/>
<path d="M101.659 45.7576C100.996 45.9486 100.45 45.9741 100.021 45.834C99.5962 45.6931 99.3201 45.4051 99.1932 44.9702C99.103 44.6612 99.124 44.3707 99.2561 44.0985C99.3892 43.8293 99.6204 43.6067 99.9498 43.4305C99.8002 43.4086 99.6594 43.35 99.5274 43.2546C99.3976 43.1555 99.3099 43.0279 99.2643 42.8719C99.2109 42.6889 99.216 42.5167 99.2796 42.3554C99.3453 42.1901 99.4634 42.0147 99.6338 41.8291C99.341 41.7963 99.0788 41.6783 98.847 41.4752C98.6143 41.269 98.4489 40.998 98.3509 40.662C98.2467 40.3051 98.2329 39.979 98.3095 39.6838C98.3891 39.3877 98.5523 39.1327 98.799 38.9186C99.0458 38.7044 99.3733 38.5386 99.7817 38.421C99.8718 38.3951 99.9662 38.3728 100.065 38.3541C100.163 38.3325 100.257 38.3166 100.349 38.3065C100.44 38.2965 100.515 38.2911 100.574 38.2906L102.285 37.7978L102.442 38.3332L101.598 38.7224C101.718 38.8113 101.828 38.926 101.928 39.0664C102.028 39.2068 102.104 39.37 102.159 39.556C102.306 40.0599 102.25 40.5086 101.99 40.9019C101.733 41.2915 101.301 41.5735 100.694 41.7482C100.552 41.7858 100.406 41.8148 100.256 41.8353C100.148 41.9475 100.075 42.0581 100.035 42.1671C99.9945 42.2731 99.9908 42.3831 100.024 42.4971C100.049 42.5841 100.099 42.6464 100.171 42.6839C100.247 42.7206 100.345 42.7365 100.464 42.7315C100.582 42.7235 100.72 42.6966 100.879 42.6508L101.744 42.4018C102.285 42.2462 102.732 42.2409 103.087 42.3859C103.442 42.5308 103.683 42.8223 103.811 43.2602C103.973 43.8152 103.87 44.3083 103.501 44.7397C103.132 45.171 102.518 45.5103 101.659 45.7576ZM101.498 45.0871C101.885 44.9756 102.196 44.8437 102.432 44.6913C102.67 44.5381 102.835 44.3705 102.925 44.1885C103.015 44.0065 103.031 43.8165 102.973 43.6185C102.921 43.4385 102.837 43.3131 102.722 43.2422C102.611 43.1734 102.466 43.1467 102.288 43.1621C102.111 43.1775 101.899 43.2207 101.652 43.2916L100.833 43.5276C100.622 43.5881 100.449 43.6738 100.312 43.7848C100.175 43.8957 100.081 44.0252 100.03 44.1733C99.9796 44.3243 99.9811 44.4913 100.035 44.6743C100.107 44.9233 100.269 45.0831 100.521 45.1537C100.776 45.2234 101.101 45.2012 101.498 45.0871ZM100.555 41.1201C100.888 41.0241 101.112 40.8654 101.226 40.6438C101.34 40.4193 101.349 40.1436 101.253 39.8166C101.151 39.4657 100.99 39.2259 100.77 39.0973C100.55 38.9688 100.275 38.952 99.9449 39.0471C99.6236 39.1396 99.4041 39.302 99.2863 39.5343C99.1707 39.7627 99.1637 40.0508 99.2652 40.3988C99.3589 40.7197 99.5171 40.9441 99.7399 41.0718C99.9619 41.1965 100.233 41.2126 100.555 41.1201Z" fill="white"/>
<path d="M96.6166 39.4349L98.0636 44.3933L97.1583 44.6539L95.7112 39.6956L96.6166 39.4349ZM95.6231 37.687C95.7672 37.6455 95.9026 37.6521 96.0292 37.7067C96.1588 37.7604 96.2512 37.8818 96.3063 38.0708C96.3615 38.2597 96.3492 38.4128 96.2695 38.5301C96.1919 38.6435 96.081 38.7209 95.9369 38.7624C95.7898 38.8048 95.6529 38.7986 95.5263 38.744C95.4018 38.6856 95.312 38.5619 95.2568 38.3729C95.2017 38.1839 95.2114 38.0332 95.286 37.9207C95.3636 37.8073 95.4759 37.7294 95.6231 37.687Z" fill="white"/>
<path d="M95.5003 45.1311L94.577 45.3969L93.6906 42.3598L90.4431 43.2948L91.3295 46.3319L90.4061 46.5977L88.4863 40.0196L89.4097 39.7538L90.2107 42.4984L93.4582 41.5635L92.6572 38.8188L93.5805 38.553L95.5003 45.1311Z" fill="white"/>
<path d="M68.7202 94.4257C73.9114 85.8815 83.2347 77.821 91.88 72.6905L79.5004 51.5L69.26 33.9712C68.0785 31.9488 65.4787 31.2601 63.4986 32.5114C49.7888 41.1757 36.2762 53.4699 27.3167 66.8457C25.9942 68.82 26.6961 71.4675 28.76 72.6453L46.4416 82.7348L68.0004 95.5L68.7202 94.4257Z" fill="url(#paint2_linear_615_509)"/>
<path d="M70.5403 53.2617L69.8917 53.9515L64.5449 48.9915L65.1935 48.3017L70.5403 53.2617Z" fill="white"/>
<path d="M63.6574 52.9119C64.094 52.4475 64.5247 52.197 64.9494 52.1605C65.3717 52.1218 65.8063 52.3097 66.253 52.7241L68.813 55.0989L68.3506 55.5906L67.6756 55.2138L67.6499 55.2411C67.6889 55.4733 67.7007 55.6888 67.6853 55.8877C67.6699 56.0865 67.6145 56.2823 67.5191 56.475C67.4257 56.6655 67.2785 56.8677 67.0773 57.0817C66.8632 57.3094 66.6315 57.4737 66.3821 57.5748C66.1326 57.6758 65.8773 57.7011 65.616 57.6505C65.3546 57.5956 65.0956 57.4491 64.8391 57.2111C64.4542 56.854 64.3002 56.4363 64.377 55.9577C64.4538 55.4792 64.7635 54.9332 65.3059 54.3197L65.8885 53.6454L65.6754 53.4478C65.3799 53.1737 65.1094 53.0463 64.8638 53.0657C64.6204 53.0828 64.3885 53.2086 64.168 53.4431C63.986 53.6366 63.8402 53.8487 63.7305 54.0794C63.6186 54.308 63.5245 54.5403 63.4482 54.7765L62.7411 54.5296C62.8164 54.2671 62.9291 53.9944 63.0791 53.7116C63.2313 53.4266 63.4241 53.16 63.6574 52.9119ZM66.3356 54.073L65.8653 54.6212C65.4725 55.0709 65.2579 55.4451 65.2215 55.7438C65.185 56.0381 65.2824 56.2925 65.5138 56.5072C65.7154 56.6942 65.9198 56.7709 66.1272 56.7374C66.3346 56.7039 66.5314 56.5881 66.7176 56.39C67.0044 56.085 67.154 55.7549 67.1662 55.3997C67.1783 55.0402 67.0149 54.7031 66.6758 54.3886L66.3356 54.073Z" fill="white"/>
<path d="M60.0355 56.7571C60.4272 56.3405 60.8326 56.1284 61.2515 56.1207C61.6704 56.1086 62.1203 56.3257 62.6014 56.7719L65.0789 59.0702L64.44 59.7498L62.0484 57.5312C61.7506 57.2549 61.4694 57.1092 61.2049 57.094C60.9426 57.0765 60.698 57.1884 60.4711 57.4297C60.15 57.7712 60.022 58.1149 60.087 58.4608C60.1519 58.8023 60.3848 59.159 60.7857 59.5309L62.8475 61.4435L62.2054 62.1264L59.8137 59.9078C59.6144 59.7229 59.4238 59.5972 59.2418 59.5307C59.0576 59.4621 58.882 59.4505 58.7149 59.4959C58.5479 59.5412 58.3873 59.6459 58.2332 59.8098C58.0127 60.0442 57.8877 60.2799 57.8581 60.5166C57.8283 60.749 57.8831 60.9895 58.0225 61.2381C58.164 61.4845 58.3791 61.7415 58.6677 62.0093L60.6161 63.8167L59.9707 64.5031L56.184 60.9903L56.6945 60.4473L57.3099 60.8328L57.3452 60.7953C57.2853 60.599 57.2653 60.4036 57.2852 60.209C57.3074 60.0122 57.363 59.823 57.4522 59.6415C57.5391 59.4578 57.6564 59.2874 57.8041 59.1304C58.0695 58.8481 58.3447 58.658 58.6297 58.5601C58.9148 58.4623 59.2055 58.4656 59.5018 58.57L59.5436 58.5256C59.444 58.2073 59.4433 57.8956 59.5416 57.5904C59.6397 57.2807 59.8043 57.003 60.0355 56.7571Z" fill="white"/>
<path d="M55.0552 62.0534C55.1194 61.9851 55.1935 61.9153 55.2776 61.8441C55.3594 61.7708 55.4328 61.7111 55.4978 61.6648L56.0729 62.3326C56.0078 62.3745 55.9364 62.4276 55.8588 62.4919C55.7832 62.554 55.7166 62.6158 55.6588 62.6772C55.5218 62.8229 55.4187 62.9873 55.3495 63.1703C55.2804 63.3534 55.2514 63.5438 55.2626 63.7418C55.2715 63.9376 55.3248 64.134 55.4225 64.3312C55.5179 64.5262 55.6618 64.713 55.8542 64.8915L57.8575 66.7499L57.209 67.4397L53.4222 63.9269L53.9424 63.3737L54.7032 63.9261L54.7321 63.8954C54.6675 63.6905 54.6292 63.4803 54.6174 63.2647C54.6078 63.0469 54.6372 62.8355 54.7056 62.6305C54.7738 62.421 54.8904 62.2286 55.0552 62.0534Z" fill="white"/>
<path d="M54.4132 66.6296C54.7247 66.9186 54.9645 67.2178 55.1326 67.5271C55.3005 67.8321 55.3965 68.1406 55.4204 68.4526C55.4442 68.7603 55.3992 69.0637 55.2852 69.3628C55.1689 69.6599 54.9823 69.945 54.7254 70.2181C54.4857 70.4731 54.2217 70.6672 53.9334 70.8004C53.645 70.9293 53.3444 70.9935 53.0317 70.9932C52.7166 70.9907 52.398 70.919 52.076 70.778C51.7517 70.6348 51.4338 70.4187 51.1222 70.1297C50.7076 69.7451 50.4211 69.3472 50.2629 68.9362C50.1024 68.523 50.0696 68.1154 50.1646 67.7134C50.2594 67.3069 50.478 66.9216 50.8205 66.5573C51.1459 66.2113 51.5084 65.9786 51.908 65.8592C52.3076 65.7398 52.7214 65.7422 53.1493 65.8663C53.5773 65.9905 53.9985 66.245 54.4132 66.6296ZM51.7836 69.4263C52.0746 69.6962 52.3596 69.8924 52.6389 70.0151C52.918 70.1333 53.1854 70.1683 53.441 70.1199C53.6988 70.0692 53.9423 69.9221 54.1713 69.6785C54.396 69.4395 54.5251 69.1905 54.5584 68.9316C54.5917 68.6726 54.5383 68.4101 54.3984 68.1438C54.2561 67.8755 54.0395 67.6063 53.7486 67.3365C53.4599 67.0687 53.1783 66.8756 52.9036 66.7572C52.6289 66.6388 52.3638 66.606 52.1083 66.6588C51.855 66.7093 51.6127 66.8575 51.3815 67.1033C51.0433 67.463 50.9164 67.8397 51.0009 68.2334C51.0852 68.6228 51.3461 69.0204 51.7836 69.4263Z" fill="white"/>
<path d="M52.0435 72.934L51.2536 73.774L44.7065 72.5401L44.6808 72.5674C44.8109 72.6754 44.9547 72.7938 45.1122 72.9229C45.2674 73.0498 45.4284 73.1864 45.5954 73.3327C45.7621 73.4746 45.9291 73.621 46.0961 73.7717L48.852 76.3282L48.2484 76.9702L43.2246 72.3098L44.008 71.4766L50.5249 72.7016L50.5474 72.6777C50.4423 72.5888 50.3121 72.4786 50.1568 72.3473C50.0014 72.216 49.8381 72.0773 49.6667 71.9311C49.4952 71.7805 49.335 71.6362 49.1861 71.498L46.4096 68.9224L47.0197 68.2736L52.0435 72.934Z" fill="white"/>
<path d="M76.6621 4.9265C76.9781 4.74149 77.2864 4.66794 77.587 4.70586C77.8861 4.74125 78.1141 4.89294 78.2709 5.16095C78.3745 5.33793 78.4115 5.51997 78.3819 5.70707C78.3547 5.89269 78.2501 6.08802 78.068 6.29307L78.0947 6.33858C78.3826 6.24472 78.6302 6.23558 78.8374 6.31118C79.0471 6.3853 79.2045 6.51211 79.3096 6.69162C79.4887 6.99755 79.5188 7.30413 79.3999 7.61136C79.2795 7.91606 78.9842 8.20606 78.5139 8.48136C78.3218 8.59384 78.1297 8.67744 77.9377 8.73214C77.7456 8.78685 77.5416 8.81806 77.3254 8.82577L76.9014 8.10141C77.1274 8.10486 77.3424 8.08934 77.5463 8.05486C77.7502 8.02039 77.9444 7.94912 78.1289 7.84108C78.316 7.73155 78.4326 7.61749 78.4786 7.4989C78.5271 7.37884 78.5129 7.25307 78.4359 7.12159C78.3752 7.01793 78.2762 6.95029 78.1389 6.91866C78.0041 6.88554 77.8141 6.94077 77.5688 7.08434L77.1441 7.333L76.7911 6.72999L77.14 6.52574C77.4029 6.37181 77.5472 6.22966 77.5727 6.0993C77.5982 5.96893 77.5806 5.85192 77.5199 5.74826C77.4637 5.65218 77.3855 5.59104 77.2853 5.56483C77.1851 5.53863 77.0705 5.56327 76.9415 5.63875C76.8227 5.70832 76.7242 5.7982 76.6462 5.9084C76.5681 6.0186 76.4866 6.16645 76.4017 6.35195L75.7056 6.04145C75.7928 5.83085 75.9083 5.63086 76.052 5.44147C76.1983 5.25061 76.4016 5.07895 76.6621 4.9265Z" fill="white"/>
<path d="M74.5381 9.26599C75.0185 8.98477 75.4538 8.89627 75.8441 9.00047C76.2355 9.10067 76.5903 9.42256 76.9085 9.96615L78.527 12.7309L77.3665 13.4102L75.9167 10.9337C75.7391 10.6303 75.5533 10.4319 75.3594 10.3383C75.1654 10.2448 74.9597 10.2617 74.7423 10.3889C74.4364 10.568 74.2833 10.8053 74.2831 11.1008C74.2815 11.3937 74.3998 11.7437 74.6381 12.1507L75.8836 14.2783L74.7269 14.9554L73.2771 12.479C73.1587 12.2767 73.0368 12.1206 72.9114 12.0107C72.7859 11.9008 72.6565 11.8391 72.523 11.8256C72.3895 11.8121 72.2494 11.8483 72.1027 11.9342C71.8878 12.06 71.7503 12.2135 71.69 12.3947C71.6308 12.572 71.6361 12.7811 71.7058 13.022C71.7766 13.2589 71.9001 13.5278 72.0762 13.8287L73.244 15.8235L72.0873 16.5007L69.6052 12.2607L70.4889 11.7434L70.9618 12.1947L71.0263 12.1569C71.0264 11.96 71.0643 11.7782 71.14 11.6117C71.2182 11.4437 71.3231 11.2924 71.4547 11.1576C71.5862 11.0229 71.7329 10.9082 71.8948 10.8134C72.2057 10.6314 72.4983 10.528 72.7724 10.5033C73.049 10.4772 73.3077 10.5362 73.5483 10.6805L73.6507 10.6206C73.6498 10.3292 73.7356 10.0668 73.9079 9.8335C74.0828 9.59873 74.2929 9.40956 74.5381 9.26599Z" fill="white"/>
<path d="M68.1965 11.3335L69.3755 18.0881L68.3249 18.7031L67.146 11.9485L68.1965 11.3335Z" fill="white"/>
<path d="M66.8193 22.0897C66.2276 22.436 65.7144 22.5973 65.2795 22.5735C64.8486 22.5508 64.5244 22.3536 64.3068 21.9819C64.1573 21.7265 64.1119 21.4663 64.1705 21.2011C64.2292 20.9359 64.3913 20.6764 64.6568 20.4225C64.5084 20.4415 64.3566 20.42 64.2015 20.3581C64.0449 20.2936 63.9289 20.1968 63.8534 20.0679C63.7587 19.9061 63.727 19.7447 63.7584 19.5837C63.7883 19.4203 63.8614 19.2349 63.9777 19.0276C63.699 19.0618 63.4317 19.0112 63.1759 18.8758C62.9226 18.7389 62.7116 18.5263 62.5429 18.2381C62.3623 17.9296 62.2761 17.6287 62.2843 17.3354C62.2936 17.038 62.3938 16.757 62.5851 16.4922C62.7789 16.226 63.0617 15.9841 63.4333 15.7665C63.5117 15.7206 63.6057 15.6724 63.7153 15.6218C63.8249 15.5713 63.9263 15.5271 64.0197 15.4895C64.1156 15.4503 64.1809 15.4256 64.2157 15.4154L65.6948 14.5496L66.0389 15.1374L65.4751 15.6966C65.5906 15.7546 65.6945 15.8279 65.787 15.9163C65.8795 16.0047 65.9606 16.1084 66.0301 16.2272C66.2966 16.6823 66.3452 17.1308 66.1761 17.5726C66.0081 18.0104 65.6422 18.3944 65.0784 18.7245C64.9399 18.7953 64.8076 18.8592 64.6814 18.9161C64.6499 18.9957 64.6337 19.0696 64.633 19.138C64.6323 19.2063 64.6482 19.2683 64.6807 19.3239C64.7133 19.3795 64.7634 19.413 64.8311 19.4242C64.8999 19.4315 64.987 19.4179 65.0924 19.3833C65.1988 19.3448 65.3228 19.2841 65.4644 19.2012L66.185 18.7794C66.6502 18.507 67.0626 18.3997 67.4222 18.4573C67.7844 18.5135 68.0787 18.735 68.3052 19.1218C68.5953 19.6174 68.6129 20.1231 68.3581 20.6389C68.1059 21.1532 67.5929 21.6368 66.8193 22.0897ZM66.4267 21.3061C66.7023 21.1448 66.9232 20.9799 67.0893 20.8113C67.2595 20.6438 67.3695 20.481 67.4194 20.3227C67.4709 20.167 67.4581 20.0234 67.3811 19.8919C67.319 19.7858 67.2378 19.7196 67.1376 19.6933C67.0414 19.6682 66.9227 19.68 66.7814 19.7287C66.6428 19.7759 66.4761 19.8565 66.2814 19.9705L65.6822 20.3213C65.5406 20.4042 65.4262 20.5017 65.3391 20.6138C65.2545 20.7244 65.203 20.8394 65.1846 20.9588C65.1677 21.0807 65.1911 21.1961 65.2548 21.3048C65.348 21.4641 65.4971 21.5448 65.7021 21.547C65.9096 21.5478 66.1512 21.4675 66.4267 21.3061ZM64.7299 17.9813C64.9473 17.854 65.0674 17.6938 65.0901 17.5006C65.1128 17.3074 65.0568 17.0957 64.9221 16.8657C64.7726 16.6103 64.6078 16.4505 64.4276 16.3862C64.2484 16.318 64.0539 16.3453 63.8441 16.4681C63.6317 16.5924 63.5101 16.7502 63.4794 16.9413C63.4473 17.1299 63.5059 17.3518 63.6554 17.6072C63.7901 17.8373 63.9485 17.989 64.1306 18.0623C64.3152 18.1341 64.515 18.1071 64.7299 17.9813Z" fill="white"/>
<path d="M60.7908 17.4202L63.2729 21.6602L62.3968 22.1731L61.9007 21.6997L61.8439 21.733C61.8585 21.9145 61.8484 22.08 61.8136 22.2293C61.7788 22.3787 61.7174 22.5114 61.6292 22.6276C61.541 22.7437 61.4223 22.8454 61.2732 22.9327C61.1189 23.023 60.9616 23.0761 60.8011 23.0919C60.6417 23.1038 60.4897 23.079 60.3452 23.0177L60.3224 23.031C60.3611 23.0797 60.4155 23.1581 60.4857 23.2664C60.5544 23.3722 60.6255 23.485 60.6991 23.6049C60.7767 23.7258 60.8429 23.833 60.8976 23.9266L61.6081 25.1402L60.4514 25.8173L56.877 19.7114L58.0337 19.0343L59.4834 21.5108C59.661 21.8142 59.8506 22.0104 60.0521 22.0995C60.2537 22.1886 60.4733 22.1636 60.7109 22.0245C60.941 21.8898 61.0907 21.7309 61.16 21.5477C61.2303 21.3606 61.2327 21.147 61.1669 20.9072C61.0997 20.6647 60.978 20.3931 60.8019 20.0922L59.6341 18.0974L60.7908 17.4202Z" fill="white"/>
<path d="M56.0793 20.6645C56.4457 21.2905 56.7234 21.8784 56.9121 22.428C57.1044 22.9755 57.1931 23.4839 57.1782 23.9533C57.1669 24.4206 57.0407 24.8459 56.7996 25.2292C56.5586 25.6125 56.1905 25.9491 55.6954 26.239C55.0729 26.6034 54.4696 26.7452 53.8857 26.6644C53.2997 26.58 52.7373 26.2967 52.1984 25.8143C51.6575 25.3283 51.1438 24.6698 50.6572 23.8386C50.1665 23.0004 49.8338 22.2334 49.6593 21.5378C49.4862 20.8365 49.5046 20.2108 49.7144 19.6605C49.9242 19.1103 50.3598 18.6416 51.0212 18.2544C51.6401 17.8921 52.2426 17.7531 52.8286 17.8374C53.4161 17.9162 53.9821 18.1975 54.5265 18.6813C55.0689 19.1617 55.5865 19.8227 56.0793 20.6645ZM52.2859 22.8851C52.6317 23.4758 52.9524 23.9506 53.2479 24.3094C53.545 24.6627 53.8293 24.8928 54.1008 24.9998C54.3724 25.1067 54.6461 25.0795 54.922 24.918C55.1944 24.7585 55.3514 24.536 55.3932 24.2504C55.4364 23.9591 55.3767 23.5975 55.214 23.1656C55.0493 22.7301 54.7931 22.2153 54.4452 21.6211C54.0994 21.0304 53.777 20.5567 53.4779 20.1999C53.1788 19.8431 52.8917 19.6123 52.6166 19.5074C52.3429 19.3969 52.0699 19.4213 51.7976 19.5808C51.5217 19.7423 51.365 19.9694 51.3274 20.2621C51.2877 20.5512 51.3502 20.9136 51.5149 21.349C51.6832 21.7824 51.9402 22.2945 52.2859 22.8851Z" fill="white"/>
<path d="M49.8615 24.3045C50.228 24.9305 50.5056 25.5183 50.6944 26.0679C50.8867 26.6154 50.9754 27.1239 50.9605 27.5933C50.9491 28.0606 50.8229 28.4859 50.5819 28.8692C50.3408 29.2525 49.9728 29.5891 49.4776 29.8789C48.8551 30.2433 48.2519 30.3851 47.6679 30.3043C47.0819 30.22 46.5195 29.9366 45.9806 29.4542C45.4397 28.9683 44.926 28.3097 44.4394 27.4786C43.9487 26.6403 43.6161 25.8734 43.4415 25.1777C43.2685 24.4765 43.2868 23.8507 43.4966 23.3005C43.7064 22.7503 44.142 22.2816 44.8034 21.8944C45.4223 21.532 46.0248 21.393 46.6108 21.4774C47.1983 21.5561 47.7643 21.8374 48.3087 22.3213C48.8511 22.8016 49.3687 23.4627 49.8615 24.3045ZM46.0682 26.5251C46.4139 27.1158 46.7346 27.5905 47.0302 27.9494C47.3272 28.3026 47.6115 28.5327 47.8831 28.6397C48.1546 28.7467 48.4284 28.7194 48.7042 28.5579C48.9766 28.3985 49.1336 28.1759 49.1754 27.8903C49.2186 27.5991 49.1589 27.2375 48.9963 26.8055C48.8316 26.3701 48.5753 25.8552 48.2274 25.261C47.8817 24.6704 47.5592 24.1966 47.2601 23.8399C46.961 23.4831 46.6739 23.2522 46.3988 23.1473C46.1252 23.0368 45.8522 23.0613 45.5798 23.2207C45.304 23.3822 45.1472 23.6093 45.1096 23.902C45.0699 24.1912 45.1324 24.5535 45.2971 24.989C45.4654 25.4224 45.7224 25.9344 46.0682 26.5251Z" fill="white"/>
<path d="M44.5872 32.5991L42.9479 33.5588L40.3204 29.0705C40.2479 28.9467 40.1607 28.7935 40.0586 28.6111C39.9545 28.4251 39.85 28.2345 39.7453 28.0394C39.6385 27.8407 39.5431 27.6615 39.459 27.5017C39.4471 27.5705 39.4141 27.6967 39.3601 27.8802C39.3075 28.0582 39.2559 28.2214 39.2051 28.3699L38.733 29.6079L37.3649 29.0839L38.699 25.6315L40.0466 24.8427L44.5872 32.5991Z" fill="white"/>
<path d="M59.5107 124C59.6788 113.672 63.7333 102.957 68.5002 94.5L46.0002 81.9999L28.1894 71.6448C26.1555 70.4623 23.5403 71.1565 22.4598 73.2463C15.3389 87.0196 10.9117 103.387 10.123 119.722C10.0093 122.077 11.9227 124 14.2802 124H34.7555H59.5107Z" fill="url(#paint3_linear_615_509)"/>
<path d="M50.3157 90.1681L50.0597 91.0796L43.0312 89.1327L43.2872 88.2211L50.3157 90.1681Z" fill="white"/>
<path d="M44.0557 93.0253C44.2281 92.4116 44.4939 91.9908 44.8533 91.7629C45.2096 91.5341 45.6814 91.501 46.2686 91.6637L49.6338 92.5959L49.4513 93.2457L48.6792 93.2215L48.669 93.2576C48.8108 93.446 48.9209 93.6321 48.9991 93.8159C49.0773 93.9997 49.1186 94.1992 49.1231 94.4144C49.1284 94.6267 49.0914 94.8742 49.012 95.157C48.9275 95.4578 48.7981 95.7105 48.6238 95.9152C48.4495 96.1198 48.2349 96.2597 47.9801 96.3351C47.7231 96.4065 47.426 96.3956 47.0887 96.3021C46.5828 96.162 46.2533 95.8616 46.1003 95.4009C45.9473 94.9403 45.9694 94.3125 46.1667 93.5177L46.3713 92.6503L46.0912 92.5727C45.7028 92.4651 45.4042 92.4764 45.1956 92.6067C44.9879 92.734 44.8405 92.9525 44.7535 93.2624C44.6817 93.5181 44.6505 93.7737 44.6599 94.0292C44.6663 94.2839 44.6902 94.5337 44.7318 94.7787L43.9912 94.8848C43.9367 94.6168 43.9105 94.3226 43.9129 94.0022C43.916 93.6789 43.9637 93.3532 44.0557 93.0253ZM46.965 92.8245L46.8015 93.5282C46.6612 94.1086 46.644 94.5399 46.7497 94.8221C46.8533 95.1005 47.0572 95.2818 47.3613 95.366C47.6263 95.4394 47.8429 95.4135 48.0112 95.2883C48.1794 95.163 48.3003 94.9695 48.3738 94.7078C48.487 94.3047 48.467 93.9425 48.3138 93.6212C48.1584 93.2961 47.8579 93.0718 47.4122 92.9483L46.965 92.8245Z" fill="white"/>
<path d="M42.6234 98.1098C42.7779 97.5592 43.0391 97.1841 43.4067 96.9844C43.7722 96.7809 44.2711 96.7667 44.9035 96.9419L48.1603 97.844L47.9081 98.742L44.7643 97.8712C44.3728 97.7627 44.0564 97.7626 43.815 97.8708C43.5745 97.9761 43.4095 98.1881 43.32 98.507C43.1932 98.9583 43.2386 99.3226 43.456 99.6001C43.6713 99.8737 44.0424 100.084 44.5694 100.23L47.2796 100.98L47.0262 101.883L43.8823 101.012C43.6204 100.939 43.3934 100.915 43.2015 100.94C43.0066 100.964 42.8456 101.034 42.7185 101.152C42.5915 101.269 42.4976 101.436 42.4368 101.652C42.3497 101.962 42.3478 102.229 42.4309 102.453C42.5119 102.673 42.6716 102.862 42.9099 103.019C43.1491 103.172 43.4584 103.302 43.8378 103.407L46.3989 104.116L46.1443 105.024L41.1665 103.645L41.368 102.927L42.0913 102.986L42.1053 102.937C41.9615 102.79 41.8535 102.626 41.7813 102.443C41.71 102.258 41.6719 102.065 41.667 101.862C41.6592 101.659 41.6844 101.454 41.7427 101.246C41.8474 100.873 42.0035 100.577 42.2108 100.359C42.4181 100.141 42.6772 100.01 42.988 99.9665L43.0045 99.9079C42.7692 99.6709 42.6246 99.3941 42.5707 99.0776C42.5146 98.7573 42.5321 98.4347 42.6234 98.1098Z" fill="white"/>
<path d="M40.6579 105.109C40.6833 105.018 40.7167 104.922 40.7583 104.82C40.7969 104.718 40.8343 104.631 40.8705 104.56L41.6886 104.888C41.6502 104.956 41.6115 105.036 41.5725 105.129C41.5342 105.219 41.5037 105.304 41.4809 105.385C41.4268 105.578 41.4114 105.771 41.4347 105.966C41.458 106.16 41.5203 106.343 41.6216 106.514C41.72 106.684 41.858 106.834 42.0356 106.964C42.2102 107.093 42.424 107.193 42.677 107.263L45.3104 107.993L45.0544 108.904L40.0767 107.525L40.2819 106.794L41.2112 106.935L41.2226 106.894C41.0707 106.742 40.9397 106.573 40.8297 106.387C40.7205 106.198 40.6489 105.996 40.6148 105.783C40.5785 105.565 40.5929 105.34 40.6579 105.109Z" fill="white"/>
<path d="M42.203 109.471C42.6125 109.585 42.9632 109.74 43.255 109.938C43.5446 110.132 43.7722 110.362 43.9375 110.628C44.1008 110.89 44.201 111.181 44.2382 111.499C44.2724 111.817 44.2388 112.156 44.1374 112.517C44.0428 112.854 43.8985 113.148 43.7047 113.399C43.5087 113.646 43.2721 113.842 42.9948 113.985C42.7145 114.128 42.3991 114.211 42.0487 114.234C41.6952 114.256 41.3137 114.21 40.9042 114.097C40.3591 113.946 39.9216 113.724 39.5915 113.432C39.2584 113.138 39.0411 112.791 38.9395 112.39C38.8357 111.985 38.8514 111.542 38.9866 111.061C39.115 110.604 39.3286 110.23 39.6275 109.94C39.9264 109.65 40.2941 109.461 40.7307 109.375C41.1672 109.288 41.6579 109.32 42.203 109.471ZM41.1652 113.167C41.5476 113.273 41.8909 113.316 42.195 113.297C42.4969 113.273 42.7499 113.181 42.9541 113.021C43.1591 112.857 43.3068 112.614 43.3971 112.292C43.4858 111.976 43.4851 111.696 43.395 111.45C43.3049 111.205 43.1364 110.996 42.8894 110.824C42.6394 110.651 42.3231 110.511 41.9407 110.405C41.5613 110.3 41.2225 110.258 40.9245 110.28C40.6264 110.301 40.3764 110.394 40.1744 110.558C39.9733 110.72 39.8271 110.963 39.7358 111.288C39.6024 111.763 39.664 112.156 39.9207 112.467C40.1752 112.775 40.59 113.008 41.1652 113.167Z" fill="white"/>
<path d="M37.4844 116.408C37.6458 115.834 37.9141 115.433 38.2893 115.206C38.6654 114.976 39.1727 114.95 39.8111 115.127L43.0543 116.025L42.8021 116.923L39.6809 116.059C39.2834 115.948 38.9608 115.953 38.713 116.073C38.4623 116.191 38.2862 116.431 38.1848 116.792C38.0404 117.306 38.0911 117.709 38.3369 118.001C38.5836 118.29 38.9961 118.515 39.5743 118.675L42.1128 119.378L41.8581 120.285L36.8804 118.906L37.0819 118.189L37.8187 118.252L37.8327 118.202C37.6876 118.048 37.5791 117.874 37.5073 117.679C37.4355 117.484 37.3988 117.279 37.3974 117.065C37.3937 116.847 37.4228 116.628 37.4844 116.408Z" fill="white"/>
<path d="M36.5851 90.9453L33.7704 90.9827C33.6437 90.9833 33.504 90.9835 33.3515 90.9834C33.1999 90.9803 33.0482 90.9772 32.8965 90.9741C32.7449 90.971 32.6046 90.9678 32.4757 90.9645C32.3446 90.9574 32.2393 90.9509 32.1598 90.9451L32.1497 90.9812C32.2207 91.0171 32.3142 91.0657 32.43 91.127C32.5429 91.1874 32.6665 91.2557 32.8009 91.3318C32.9332 91.4041 33.0661 91.4799 33.1996 91.559C33.334 91.6351 33.4549 91.7075 33.5622 91.7762L35.9274 93.2873L35.6461 94.2891L30.2852 94.2924L30.5449 93.3673L33.3426 93.4078C33.5299 93.4111 33.7228 93.4175 33.9214 93.4271C34.1199 93.4367 34.3062 93.4494 34.4803 93.4652C34.6543 93.481 34.8022 93.4977 34.9239 93.5152L34.934 93.4791C34.8599 93.4423 34.7686 93.3976 34.6601 93.3448C34.5494 93.2882 34.4347 93.2289 34.3158 93.1668C34.1939 93.1038 34.077 93.0406 33.9649 92.9772C33.8538 92.9107 33.7568 92.8514 33.6741 92.7993L31.1544 91.1967L31.4307 90.213L34.4083 90.1672C34.5518 90.1648 34.7123 90.1655 34.8897 90.1693C35.0642 90.1722 35.2358 90.1792 35.4047 90.1904C35.5736 90.2015 35.717 90.2169 35.8348 90.2365L35.8449 90.2004C35.7459 90.16 35.6197 90.1008 35.4664 90.0226C35.3131 89.9445 35.1475 89.8581 34.9696 89.7634C34.7887 89.6679 34.6147 89.5711 34.4475 89.4729L32.0351 88.0605L32.291 87.149L36.874 89.9164L36.5851 90.9453Z" fill="white"/>
<path d="M32.6034 95.5717C33.0129 95.6851 33.3636 95.8406 33.6554 96.0382C33.945 96.2319 34.1725 96.4619 34.3379 96.7282C34.5012 96.9907 34.6014 97.281 34.6386 97.5994C34.6727 97.9169 34.6391 98.2561 34.5378 98.6171C34.4432 98.9541 34.2989 99.2481 34.1051 99.4992C33.9091 99.7464 33.6725 99.9419 33.3952 100.086C33.1149 100.228 32.7995 100.311 32.4491 100.334C32.0956 100.356 31.7141 100.311 31.3046 100.197C30.7595 100.046 30.3219 99.8244 29.9919 99.5319C29.6588 99.2386 29.4415 98.8915 29.3399 98.4904C29.2361 98.0856 29.2518 97.6425 29.387 97.1611C29.5154 96.7039 29.729 96.3302 30.0279 96.0401C30.3268 95.75 30.6945 95.5617 31.131 95.4751C31.5675 95.3885 32.0583 95.4207 32.6034 95.5717ZM31.5656 99.2675C31.948 99.3734 32.2913 99.4166 32.5954 99.3971C32.8973 99.3737 33.1503 99.2817 33.3545 99.121C33.5595 98.9573 33.7071 98.7145 33.7975 98.3926C33.8862 98.0767 33.8855 97.7961 33.7954 97.5506C33.7053 97.3052 33.5368 97.0964 33.2898 96.9242C33.0397 96.7512 32.7235 96.6117 32.3411 96.5058C31.9616 96.4007 31.6229 96.3587 31.3249 96.3799C31.0268 96.4011 30.7768 96.494 30.5748 96.6585C30.3736 96.82 30.2275 97.0632 30.1362 97.3881C30.0028 97.8635 30.0644 98.2566 30.3211 98.5677C30.5756 98.8749 30.9904 99.1081 31.5656 99.2675Z" fill="white"/>
<path d="M33.4475 102.152L33.1915 103.064L26.1631 101.117L26.419 100.206L33.4475 102.152Z" fill="white"/>
<path d="M27.1934 104.972C27.315 104.539 27.5127 104.193 27.7864 103.935C28.0571 103.676 28.3843 103.511 28.768 103.439C29.1518 103.367 29.5725 103.394 30.0302 103.521L30.5452 103.664L29.5973 107.039C30.1329 107.178 30.5809 107.154 30.9413 106.969C31.2987 106.782 31.5445 106.45 31.6789 105.972C31.7676 105.656 31.8164 105.366 31.8255 105.103C31.8345 104.839 31.8175 104.559 31.7744 104.262L32.5378 104.473C32.5821 104.755 32.5943 105.029 32.5746 105.296C32.5587 105.56 32.5017 105.867 32.4037 106.216C32.2686 106.698 32.0535 107.094 31.7586 107.404C31.4645 107.712 31.1009 107.914 30.6679 108.012C30.2319 108.108 29.7368 108.079 29.1827 107.926C28.6347 107.774 28.1922 107.553 27.8552 107.262C27.5153 106.97 27.2883 106.628 27.1743 106.236C27.0603 105.845 27.0666 105.424 27.1934 104.972ZM27.8967 105.172C27.7937 105.539 27.8313 105.867 28.0097 106.157C28.1851 106.445 28.4902 106.671 28.9249 106.833L29.6116 104.387C29.3368 104.315 29.0836 104.291 28.8522 104.318C28.6207 104.345 28.4222 104.428 28.2566 104.567C28.0919 104.702 27.9719 104.904 27.8967 105.172Z" fill="white"/>
<path d="M23.4951 112.393L24.0293 110.491C24.2636 109.656 24.5628 109.062 24.9267 108.709C25.2907 108.355 25.7706 108.26 26.3664 108.425C26.6209 108.496 26.8354 108.605 27.01 108.754C27.1845 108.902 27.3129 109.083 27.3951 109.296C27.4773 109.509 27.5062 109.75 27.4819 110.021L27.5268 110.033C27.6473 109.776 27.7953 109.56 27.9709 109.383C28.1465 109.206 28.3588 109.087 28.608 109.027C28.855 108.963 29.1462 108.978 29.4815 109.071C29.8827 109.182 30.1976 109.371 30.4261 109.637C30.6517 109.903 30.7891 110.229 30.8384 110.617C30.8855 111.001 30.8423 111.43 30.7087 111.906L30.0611 114.212L23.4951 112.393ZM26.5154 112.239L26.8367 111.095C26.9854 110.565 27.0014 110.175 26.8849 109.923C26.7683 109.672 26.5439 109.5 26.2116 109.408C25.8672 109.312 25.5862 109.365 25.3685 109.566C25.1477 109.766 24.9635 110.129 24.8156 110.656L24.5259 111.688L26.5154 112.239ZM27.2744 112.449L29.5424 113.077L29.894 111.825C30.046 111.284 30.0468 110.873 29.8964 110.593C29.7468 110.31 29.4923 110.118 29.133 110.019C28.9055 109.956 28.6966 109.953 28.5064 110.01C28.314 110.063 28.1429 110.189 27.993 110.39C27.8432 110.59 27.715 110.88 27.6083 111.26L27.2744 112.449Z" fill="white"/>
<path d="M19.5428 45.2944C19.707 44.967 19.9255 44.7374 20.1982 44.6055C20.4683 44.4722 20.7421 44.4752 21.0197 44.6145C21.203 44.7065 21.3331 44.839 21.4102 45.012C21.4886 45.1825 21.5072 45.4033 21.4662 45.6744L21.5134 45.6981C21.7037 45.4625 21.9063 45.32 22.1213 45.2705C22.3375 45.2184 22.5386 45.239 22.7245 45.3323C23.0414 45.4913 23.2336 45.732 23.3013 46.0544C23.3663 46.3755 23.2767 46.7795 23.0323 47.2666C22.9324 47.4656 22.8169 47.6403 22.6856 47.7908C22.5544 47.9413 22.4003 48.0786 22.2232 48.2029L21.473 47.8264C21.6645 47.7062 21.8363 47.576 21.9885 47.4361C22.1407 47.2961 22.2647 47.1305 22.3606 46.9394C22.4578 46.7456 22.4934 46.5865 22.4674 46.462C22.4427 46.3348 22.3623 46.2371 22.2261 46.1688C22.1187 46.1149 21.9989 46.1121 21.8665 46.1604C21.7354 46.2061 21.6061 46.3559 21.4787 46.6099L21.2579 47.0498L20.6334 46.7365L20.8147 46.3751C20.9514 46.1028 20.9949 45.905 20.9453 45.7818C20.8957 45.6585 20.8172 45.57 20.7098 45.5161C20.6103 45.4662 20.5114 45.4575 20.4131 45.4902C20.3148 45.5228 20.2321 45.6059 20.1651 45.7394C20.1034 45.8625 20.0698 45.9915 20.0643 46.1264C20.0589 46.2614 20.0711 46.4297 20.101 46.6316L19.3481 46.7504C19.3065 46.5263 19.2944 46.2957 19.3117 46.0585C19.3304 45.8188 19.4074 45.5641 19.5428 45.2944Z" fill="white"/>
<path d="M20.1258 50.0905C20.3755 49.593 20.6923 49.2816 21.0764 49.1564C21.4592 49.0272 21.932 49.1038 22.495 49.3863L25.3584 50.8231L24.7553 52.025L22.1904 50.738C21.8762 50.5804 21.6123 50.5151 21.3987 50.5423C21.1851 50.5696 21.0218 50.6958 20.9088 50.9209C20.7498 51.2378 20.7507 51.5201 20.9115 51.768C21.0697 52.0145 21.3596 52.2436 21.7812 52.4551L23.9847 53.5608L23.3836 54.7588L20.8187 53.4718C20.6092 53.3667 20.422 53.3022 20.2569 53.2784C20.0919 53.2546 19.9497 53.2734 19.8304 53.3348C19.7111 53.3962 19.6133 53.5028 19.5371 53.6547C19.4254 53.8773 19.3937 54.081 19.4419 54.2658C19.4888 54.4466 19.6071 54.6191 19.7969 54.7831C19.9853 54.9433 20.2353 55.1015 20.5469 55.2578L22.613 56.2945L22.0118 57.4925L17.6206 55.2891L18.0798 54.3739L18.7223 54.4947L18.7558 54.4279C18.6486 54.2627 18.5813 54.0896 18.5541 53.9088C18.5281 53.7253 18.5336 53.5413 18.5706 53.3566C18.6075 53.1719 18.6681 52.9957 18.7521 52.8282C18.9138 52.5061 19.1028 52.26 19.3192 52.09C19.5369 51.9174 19.786 51.826 20.0664 51.8159L20.1196 51.7099C19.9601 51.466 19.8891 51.1992 19.9065 50.9097C19.9253 50.6176 19.9984 50.3445 20.1258 50.0905Z" fill="white"/>
<path d="M15.9345 55.2788L20.6028 60.3009L20.0569 61.3889L15.3886 56.3668L15.9345 55.2788Z" fill="white"/>
<path d="M20.6394 65.0491C20.3319 65.6618 19.9894 66.0767 19.6117 66.2936C19.238 66.5093 18.8587 66.5205 18.4738 66.3274C18.2093 66.1947 18.0294 66.0012 17.9341 65.7469C17.8389 65.4926 17.8334 65.1866 17.9178 64.829C17.8036 64.9258 17.6647 64.9905 17.5008 65.023C17.3344 65.0542 17.1844 65.0363 17.0509 64.9693C16.8833 64.8852 16.7688 64.7672 16.7074 64.6151C16.6435 64.4617 16.6038 64.2664 16.5884 64.0293C16.3733 64.2098 16.1216 64.3129 15.8333 64.3387C15.5463 64.3619 15.2536 64.2986 14.9551 64.1488C14.6356 63.9885 14.3994 63.7831 14.2465 63.5326C14.0922 63.2782 14.0232 62.9879 14.0394 62.6617C14.0569 62.3329 14.1622 61.976 14.3553 61.5911C14.3961 61.5099 14.4486 61.4183 14.513 61.3162C14.5773 61.2141 14.6384 61.1218 14.6961 61.0393C14.7552 60.9542 14.7965 60.898 14.8202 60.8705L15.5888 59.3386L16.1976 59.6441L16.0295 60.4202C16.1579 60.4059 16.285 60.4107 16.4107 60.4345C16.5365 60.4582 16.6609 60.501 16.7839 60.5627C17.2553 60.7993 17.5404 61.1488 17.6393 61.6115C17.7369 62.0702 17.6392 62.5915 17.3462 63.1754C17.2687 63.3103 17.1926 63.4359 17.1177 63.5524C17.1346 63.6363 17.1614 63.7071 17.198 63.7648C17.2346 63.8225 17.2817 63.8658 17.3393 63.8947C17.3969 63.9236 17.4572 63.9244 17.5201 63.8969C17.5817 63.8656 17.6473 63.8067 17.7169 63.7203C17.7852 63.63 17.8561 63.5116 17.9297 63.3649L18.3041 62.6186C18.5459 62.1368 18.8333 61.8221 19.1663 61.6746C19.5006 61.5244 19.8681 61.5498 20.2687 61.7508C20.7819 62.0083 21.0722 62.4228 21.1395 62.9941C21.2081 63.5628 21.0414 64.2478 20.6394 65.0491ZM19.8834 64.6058C20.0266 64.3204 20.1219 64.0618 20.1694 63.8299C20.2209 63.5968 20.2244 63.4003 20.1801 63.2404C20.1384 63.0818 20.0495 62.9683 19.9133 62.9C19.8033 62.8448 19.6992 62.8335 19.6009 62.8661C19.5065 62.8975 19.4134 62.972 19.3215 63.0898C19.2309 63.205 19.135 63.3634 19.0339 63.565L18.7225 64.1856C18.6489 64.3322 18.6061 64.4763 18.5941 64.6178C18.5834 64.7566 18.6029 64.8811 18.6525 64.9912C18.7048 65.1027 18.7872 65.1867 18.8998 65.2432C19.0648 65.3259 19.2338 65.3124 19.4069 65.2026C19.5813 65.0902 19.7402 64.8912 19.8834 64.6058ZM16.6492 62.7421C16.7622 62.5169 16.7756 62.3171 16.6893 62.1427C16.6031 61.9683 16.4408 61.8214 16.2026 61.7018C15.9381 61.5691 15.7128 61.5249 15.5267 61.5692C15.3393 61.6095 15.191 61.7384 15.082 61.9557C14.9716 62.1757 14.9556 62.3741 15.034 62.5511C15.1097 62.7268 15.2798 62.881 15.5443 63.0137C15.7826 63.1332 15.998 63.1742 16.1907 63.1364C16.3847 63.0961 16.5375 62.9646 16.6492 62.7421Z" fill="white"/>
<path d="M13.0408 64.4173L17.432 66.6208L16.9768 67.5281L16.3029 67.4014L16.2733 67.4603C16.3845 67.6046 16.4661 67.7488 16.5183 67.893C16.5705 68.0372 16.5913 68.182 16.5806 68.3274C16.5699 68.4728 16.5258 68.6228 16.4483 68.7773C16.3682 68.937 16.2651 69.0672 16.1392 69.1679C16.012 69.2647 15.871 69.3267 15.7164 69.354L15.7046 69.3776C15.7635 69.3973 15.8519 69.4335 15.9697 69.4861C16.085 69.5373 16.2061 69.5932 16.3331 69.6536C16.464 69.7128 16.5779 69.7667 16.6748 69.8153L17.9317 70.4459L17.3306 71.6439L11.0068 68.4708L11.608 67.2728L14.1728 68.5598C14.487 68.7175 14.7529 68.7788 14.9705 68.7437C15.188 68.7087 15.3585 68.5681 15.482 68.3219C15.6016 68.0836 15.6405 67.8688 15.5989 67.6775C15.5559 67.4822 15.4415 67.3019 15.2557 67.1365C15.0673 66.9699 14.8173 66.8084 14.5057 66.652L12.4397 65.6153L13.0408 64.4173Z" fill="white"/>
<path d="M10.8562 69.7049C11.5046 70.0302 12.0576 70.3719 12.5153 70.73C12.9749 71.0844 13.3262 71.4624 13.5694 71.8642C13.8145 72.2622 13.9403 72.6876 13.947 73.1404C13.9537 73.5931 13.8284 74.0759 13.5711 74.5887C13.2476 75.2334 12.819 75.6809 12.2852 75.9313C11.7479 76.1798 11.1219 76.2485 10.4072 76.1376C9.68888 76.0247 8.8993 75.7524 8.03847 75.3204C7.17032 74.8848 6.47357 74.4228 5.94824 73.9346C5.42108 73.4408 5.09559 72.906 4.97177 72.3303C4.84795 71.7547 4.9579 71.1243 5.30162 70.4393C5.62327 69.7983 6.05279 69.3535 6.59017 69.105C7.12573 68.851 7.75358 68.7786 8.47374 68.8877C9.19023 68.995 9.98439 69.2674 10.8562 69.7049ZM8.8849 73.6336C9.49663 73.9405 10.0242 74.1639 10.4675 74.3039C10.9091 74.4383 11.2728 74.4764 11.5588 74.4181C11.8448 74.3599 12.0595 74.1879 12.2029 73.9022C12.3444 73.6201 12.3549 73.348 12.2343 73.0857C12.1119 72.8179 11.8648 72.5472 11.4931 72.2736C11.1178 71.9982 10.6224 71.706 10.007 71.3972C9.39529 71.0903 8.86682 70.8687 8.42163 70.7324C7.97644 70.5961 7.60993 70.559 7.32208 70.6209C7.03241 70.6773 6.81681 70.8465 6.67528 71.1286C6.53191 71.4143 6.52419 71.6901 6.65211 71.9561C6.77637 72.2202 7.02617 72.49 7.40152 72.7654C7.7787 73.0372 8.27316 73.3266 8.8849 73.6336Z" fill="white"/>
<path d="M5.18062 78.2333C5.42691 77.7424 5.73905 77.3534 6.11703 77.0662C6.49684 76.7753 6.92321 76.6109 7.39614 76.5731C7.86907 76.5353 8.37111 76.6497 8.90226 76.9162C9.48103 77.2066 9.92039 77.5784 10.2203 78.0315C10.5185 78.4791 10.6598 78.9971 10.6443 79.5854C10.6306 80.1701 10.4464 80.8159 10.0917 81.5229C9.88029 81.9442 9.64423 82.3232 9.38349 82.6601C9.12824 82.9951 8.85752 83.2651 8.5713 83.47L7.10423 82.7338C7.39044 82.529 7.68225 82.2581 7.97965 81.9213C8.27523 81.579 8.5094 81.2356 8.68218 80.8913C8.85128 80.5543 8.94977 80.2484 8.97765 79.9735C9.00187 79.6967 8.94998 79.4529 8.82198 79.2419C8.69216 79.0255 8.48072 78.8437 8.18767 78.6967C7.79572 78.5 7.42918 78.4812 7.08804 78.6401C6.7469 78.7991 6.4394 79.1515 6.16553 79.6973C6.06076 79.9061 5.97155 80.1342 5.89788 80.3815C5.82605 80.6252 5.77261 80.8322 5.73754 81.0026L5.03577 81.4965L1.0939 79.1403L3.28026 74.783L4.71986 75.5054L3.28066 78.3736L4.78319 79.3132C4.82004 79.1758 4.86241 79.0274 4.91029 78.868C4.95817 78.7086 5.04828 78.497 5.18062 78.2333Z" fill="white"/>
<defs>
<linearGradient id="paint0_linear_615_509" x1="149.237" y1="15.6176" x2="137" y2="66.5" gradientUnits="userSpaceOnUse">
<stop offset="0.573831" stop-color="#E55400"/>
<stop offset="1" stop-color="#7F2F00"/>
</linearGradient>
<linearGradient id="paint1_linear_615_509" x1="95.4207" y1="16.1172" x2="103.5" y2="72.9999" gradientUnits="userSpaceOnUse">
<stop offset="0.548468" stop-color="#F7D014"/>
<stop offset="1" stop-color="#917A0C"/>
</linearGradient>
<linearGradient id="paint2_linear_615_509" x1="49" y1="45" x2="81" y2="91" gradientUnits="userSpaceOnUse">
<stop stop-color="#33CE19"/>
<stop offset="0.767892" stop-color="#1A680D"/>
</linearGradient>
<linearGradient id="paint3_linear_615_509" x1="19.5002" y1="90" x2="60.5002" y2="108.5" gradientUnits="userSpaceOnUse">
<stop stop-color="#59E789"/>
<stop offset="0.705094" stop-color="#32814D"/>
</linearGradient>
</defs>
</svg>
