<svg width="242" height="127" viewBox="0 0 242 127" fill="none" xmlns="http://www.w3.org/2000/svg">
<path d="M171.5 96.9999C176.267 105.457 179.57 116.295 179.738 126.624H224.968C227.326 126.624 229.24 124.7 229.121 122.346C228.302 106.043 223.688 89.9388 216.527 76.2058C215.447 74.1343 212.858 73.4331 210.826 74.5872L192.5 85L171.5 96.9999Z" fill="url(#paint0_linear_615_481)"/>
<path d="M195.112 114.727C194.79 114.815 194.495 114.81 194.228 114.711C193.964 114.614 193.735 114.431 193.54 114.16C193.345 113.889 193.19 113.543 193.073 113.121C192.976 112.772 192.92 112.464 192.904 112.196C192.886 111.929 192.898 111.679 192.941 111.447L193.745 111.228C193.701 111.476 193.678 111.756 193.676 112.068C193.675 112.379 193.713 112.673 193.789 112.95C193.897 113.339 194.036 113.602 194.207 113.74C194.379 113.881 194.57 113.923 194.781 113.865C194.905 113.831 195.004 113.767 195.078 113.672C195.156 113.577 195.217 113.429 195.262 113.229C195.311 113.031 195.353 112.754 195.387 112.398C195.423 112.048 195.472 111.743 195.533 111.483C195.595 111.227 195.697 111.016 195.839 110.851C195.982 110.685 196.191 110.565 196.469 110.489C196.9 110.372 197.276 110.454 197.597 110.735C197.922 111.019 198.163 111.444 198.319 112.01C198.403 112.311 198.451 112.603 198.464 112.884C198.478 113.169 198.464 113.448 198.423 113.721L197.641 113.619C197.674 113.377 197.69 113.133 197.687 112.887C197.687 112.641 197.654 112.399 197.588 112.161C197.502 111.851 197.386 111.627 197.241 111.488C197.097 111.353 196.937 111.309 196.762 111.357C196.627 111.394 196.524 111.462 196.454 111.562C196.386 111.665 196.332 111.819 196.295 112.023C196.261 112.227 196.227 112.499 196.195 112.838C196.164 113.173 196.118 113.468 196.055 113.721C195.993 113.978 195.89 114.191 195.745 114.36C195.601 114.529 195.39 114.651 195.112 114.727Z" fill="white"/>
<path d="M197.364 108.909L192.381 110.269L192.18 109.542L192.828 109.229L192.814 109.179C192.614 109.124 192.434 109.03 192.274 108.899C192.115 108.768 191.978 108.609 191.865 108.423C191.752 108.236 191.664 108.03 191.602 107.805C191.496 107.422 191.469 107.08 191.522 106.777C191.575 106.477 191.715 106.222 191.942 106.011C192.173 105.802 192.499 105.641 192.921 105.525L196.182 104.635L196.434 105.548L193.301 106.403C192.9 106.513 192.623 106.68 192.472 106.906C192.321 107.135 192.295 107.428 192.394 107.783C192.489 108.129 192.633 108.385 192.825 108.55C193.02 108.716 193.261 108.808 193.547 108.824C193.837 108.841 194.174 108.798 194.557 108.694L197.112 107.996L197.364 108.909Z" fill="white"/>
<path d="M193.364 104.098C192.954 104.21 192.572 104.255 192.22 104.235C191.871 104.217 191.557 104.136 191.277 103.992C191.001 103.85 190.765 103.652 190.568 103.398C190.375 103.144 190.228 102.835 190.128 102.474C190.034 102.137 190.006 101.811 190.042 101.497C190.082 101.184 190.184 100.896 190.347 100.631C190.514 100.365 190.741 100.133 191.03 99.9345C191.322 99.7351 191.672 99.5794 192.082 99.4675C192.628 99.3186 193.118 99.2852 193.553 99.3675C193.99 99.4489 194.356 99.6356 194.651 99.9276C194.95 100.222 195.166 100.61 195.299 101.092C195.426 101.549 195.436 101.979 195.33 102.381C195.224 102.782 195.006 103.131 194.676 103.429C194.347 103.726 193.909 103.949 193.364 104.098ZM192.34 100.398C191.957 100.503 191.64 100.641 191.39 100.813C191.143 100.987 190.973 101.195 190.882 101.437C190.791 101.683 190.79 101.966 190.879 102.288C190.966 102.605 191.112 102.845 191.317 103.009C191.521 103.174 191.774 103.267 192.075 103.288C192.379 103.309 192.722 103.267 193.105 103.163C193.485 103.059 193.797 102.922 194.042 102.752C194.286 102.581 194.452 102.374 194.541 102.13C194.629 101.888 194.629 101.605 194.539 101.28C194.407 100.804 194.151 100.498 193.77 100.363C193.392 100.229 192.916 100.241 192.34 100.398Z" fill="white"/>
<path d="M205.611 117.186C205.443 116.578 205.524 116.033 205.854 115.551C206.185 115.072 206.774 114.717 207.621 114.485C208.477 114.252 209.175 114.259 209.713 114.507C210.256 114.757 210.612 115.188 210.781 115.8C210.852 116.056 210.879 116.289 210.863 116.501C210.847 116.713 210.801 116.903 210.725 117.073C210.65 117.246 210.553 117.399 210.434 117.532L210.449 117.586C210.538 117.545 210.665 117.494 210.83 117.433C210.994 117.372 211.14 117.324 211.266 117.29L213.161 116.773L213.412 117.681L206.376 119.601L206.178 118.883L206.828 118.545L206.817 118.504C206.647 118.453 206.483 118.374 206.323 118.265C206.167 118.159 206.027 118.017 205.904 117.84C205.781 117.666 205.684 117.448 205.611 117.186ZM206.411 117.196C206.547 117.687 206.785 117.995 207.124 118.119C207.464 118.247 207.913 118.236 208.472 118.087L208.612 118.048C209.206 117.886 209.634 117.664 209.896 117.382C210.162 117.102 210.224 116.703 210.081 116.185C209.964 115.763 209.71 115.491 209.319 115.368C208.932 115.244 208.445 115.261 207.861 115.421C207.282 115.579 206.865 115.808 206.611 116.107C206.36 116.406 206.293 116.769 206.411 117.196Z" fill="white"/>
<path d="M209.886 112.565C209.911 112.655 209.932 112.755 209.949 112.864C209.969 112.972 209.982 113.065 209.988 113.145L209.116 113.281C209.114 113.203 209.106 113.115 209.091 113.015C209.078 112.919 209.06 112.83 209.037 112.748C208.984 112.556 208.897 112.382 208.776 112.227C208.655 112.072 208.507 111.947 208.332 111.852C208.16 111.757 207.964 111.699 207.744 111.678C207.527 111.656 207.292 111.68 207.039 111.749L204.403 112.468L204.15 111.556L209.133 110.196L209.336 110.927L208.466 111.281L208.477 111.322C208.686 111.375 208.886 111.453 209.077 111.557C209.269 111.663 209.434 111.799 209.574 111.965C209.718 112.133 209.822 112.333 209.886 112.565Z" fill="white"/>
<path d="M208.292 106.82C208.462 107.435 208.452 107.931 208.262 108.31C208.075 108.689 207.687 108.958 207.1 109.118L203.731 110.038L203.551 109.387L204.226 109.014L204.216 108.977C203.996 108.888 203.806 108.785 203.643 108.667C203.481 108.55 203.342 108.4 203.227 108.217C203.113 108.038 203.016 107.807 202.938 107.524C202.855 107.223 202.835 106.94 202.878 106.675C202.922 106.411 203.033 106.181 203.213 105.986C203.396 105.794 203.657 105.651 203.994 105.559C204.501 105.421 204.939 105.51 205.309 105.827C205.678 106.144 205.985 106.694 206.227 107.476L206.501 108.325L206.781 108.248C207.17 108.142 207.42 107.98 207.531 107.762C207.644 107.546 207.657 107.284 207.571 106.973C207.5 106.717 207.395 106.482 207.254 106.268C207.117 106.053 206.967 105.851 206.805 105.662L207.385 105.193C207.57 105.395 207.745 105.633 207.909 105.909C208.074 106.188 208.201 106.492 208.292 106.82ZM205.901 108.479L205.677 107.791C205.497 107.222 205.288 106.843 205.051 106.655C204.819 106.469 204.55 106.418 204.245 106.501C203.98 106.574 203.808 106.707 203.728 106.9C203.649 107.093 203.645 107.321 203.718 107.583C203.83 107.986 204.034 108.287 204.332 108.484C204.634 108.684 205.007 108.722 205.454 108.601L205.901 108.479Z" fill="white"/>
<path d="M202.387 105.182L201.362 101.477L201.941 101.319L206.364 102.93L205.684 100.472L206.39 100.28L207.352 103.758L206.71 103.934L202.356 102.348L203.088 104.99L202.387 105.182Z" fill="white"/>
<path d="M205.625 97.1802C205.795 97.7946 205.785 98.2913 205.595 98.6703C205.408 99.0485 205.02 99.3179 204.433 99.4783L201.064 100.398L200.884 99.7472L201.559 99.3736L201.549 99.3375C201.329 99.2483 201.139 99.1449 200.976 99.0272C200.814 98.9095 200.675 98.7596 200.56 98.5772C200.446 98.3979 200.349 98.1668 200.271 97.8837C200.188 97.5825 200.168 97.2997 200.211 97.0351C200.255 96.7706 200.366 96.541 200.546 96.3462C200.729 96.1536 200.99 96.0113 201.327 95.9191C201.834 95.7809 202.272 95.8702 202.642 96.1872C203.011 96.5041 203.318 97.0538 203.56 97.8362L203.834 98.6846L204.114 98.6081C204.503 98.502 204.753 98.3398 204.864 98.1215C204.977 97.9062 204.99 97.6435 204.904 97.3333C204.833 97.0773 204.728 96.8422 204.587 96.6278C204.45 96.4127 204.3 96.2107 204.138 96.0218L204.718 95.5525C204.903 95.7545 205.078 95.9935 205.242 96.2694C205.407 96.5483 205.534 96.8519 205.625 97.1802ZM203.234 98.8385L203.01 98.1515C202.83 97.582 202.621 97.2033 202.384 97.0153C202.152 96.8295 201.883 96.7781 201.578 96.8612C201.313 96.9336 201.141 97.0665 201.061 97.2598C200.982 97.4532 200.978 97.6809 201.051 97.9429C201.163 98.3464 201.367 98.6468 201.665 98.8441C201.967 99.0436 202.34 99.0825 202.787 98.9607L203.234 98.8385Z" fill="white"/>
<path d="M199.569 94.9949L199.312 94.0689L202.364 93.2358L201.463 89.9788L198.411 90.8118L198.155 89.8858L204.766 88.0814L205.022 89.0075L202.264 89.7603L203.165 93.0174L205.923 92.2645L206.179 93.1906L199.569 94.9949Z" fill="white"/>
<path d="M171.5 96.9999L192.941 84.7651L210.624 74.6751C212.687 73.4975 213.388 70.8507 212.086 68.8633C203.315 55.4761 191.028 43.2745 177.483 34.628C175.562 33.4015 173.032 34.0211 171.808 35.9443L170.5 37.9999L161.5 53.4999L149.5 74.9999C158.145 80.1304 165.809 87.4557 171 95.9999L171.5 96.9999Z" fill="#FF0000"/>
<path d="M181.069 76.0524C180.826 76.2824 180.564 76.4173 180.281 76.457C180.003 76.4968 179.714 76.4438 179.413 76.2981C179.113 76.1523 178.811 75.9217 178.508 75.6063C178.257 75.345 178.061 75.1004 177.92 74.8724C177.776 74.6466 177.668 74.4217 177.596 74.1975L178.201 73.6235C178.28 73.8632 178.393 74.1202 178.539 74.3945C178.686 74.6689 178.859 74.9097 179.058 75.1169C179.338 75.4075 179.585 75.573 179.802 75.6133C180.02 75.6558 180.209 75.6018 180.368 75.4513C180.461 75.3632 180.517 75.2599 180.538 75.1414C180.561 75.0208 180.544 74.8618 180.489 74.6645C180.438 74.4673 180.343 74.2041 180.205 73.8749C180.07 73.5502 179.968 73.2593 179.899 73.0022C179.832 72.7473 179.822 72.5136 179.869 72.301C179.916 72.0885 180.044 71.8833 180.252 71.6855C180.577 71.3781 180.947 71.2721 181.364 71.3677C181.785 71.4634 182.2 71.723 182.607 72.1466C182.823 72.3719 183.004 72.6051 183.149 72.8464C183.297 73.0899 183.417 73.3416 183.511 73.6015L182.773 73.8817C182.687 73.6528 182.585 73.4313 182.465 73.217C182.348 73.0007 182.204 72.8035 182.033 72.6255C181.81 72.3935 181.602 72.251 181.408 72.198C181.216 72.1473 181.055 72.1843 180.923 72.309C180.821 72.4057 180.763 72.5145 180.749 72.6353C180.737 72.7584 180.764 72.9187 180.828 73.1162C180.894 73.3116 180.994 73.5661 181.126 73.8798C181.259 74.189 181.357 74.4699 181.422 74.7225C181.49 74.9774 181.5 75.2133 181.453 75.4303C181.405 75.6472 181.278 75.8546 181.069 76.0524Z" fill="white"/>
<path d="M180.291 69.8725L176.543 73.4263L176.02 72.8822L176.443 72.3007L176.407 72.2635C176.204 72.3094 176.001 72.3124 175.798 72.2725C175.595 72.2325 175.399 72.1575 175.211 72.0474C175.023 71.9373 174.848 71.7978 174.685 71.6288C174.41 71.3427 174.224 71.0542 174.127 70.7634C174.031 70.4749 174.034 70.1842 174.134 69.8914C174.238 69.5986 174.449 69.3018 174.766 69.0008L177.219 66.6757L177.875 67.3583L175.518 69.5931C175.216 69.8791 175.052 70.1572 175.026 70.4275C175.002 70.7001 175.118 70.9693 175.373 71.2351C175.622 71.4942 175.87 71.6508 176.117 71.705C176.369 71.7593 176.625 71.7256 176.885 71.6039C177.149 71.4823 177.425 71.285 177.713 71.0119L179.635 69.1899L180.291 69.8725Z" fill="white"/>
<path d="M174.478 67.537C174.169 67.8294 173.855 68.0501 173.534 68.199C173.218 68.3481 172.903 68.4255 172.588 68.4314C172.277 68.4374 171.975 68.3754 171.68 68.2452C171.389 68.1128 171.113 67.9115 170.853 67.6412C170.61 67.3888 170.43 67.1159 170.313 66.8225C170.2 66.5291 170.153 66.2274 170.171 65.9172C170.192 65.6049 170.282 65.2932 170.442 64.9819C170.605 64.6685 170.84 64.3656 171.149 64.0732C171.559 63.6841 171.975 63.4229 172.398 63.2895C172.822 63.154 173.234 63.1448 173.632 63.262C174.035 63.3793 174.41 63.6182 174.757 63.9786C175.086 64.3211 175.299 64.6939 175.396 65.097C175.493 65.5001 175.467 65.9103 175.317 66.3275C175.168 66.7447 174.888 67.1479 174.478 67.537ZM171.818 64.7694C171.53 65.0424 171.316 65.3139 171.177 65.5838C171.042 65.8537 170.991 66.1169 171.025 66.3732C171.061 66.6317 171.195 66.8815 171.427 67.1226C171.654 67.3591 171.897 67.5013 172.156 67.5492C172.414 67.597 172.681 67.5592 172.957 67.4356C173.234 67.3099 173.517 67.1106 173.805 66.8375C174.091 66.5666 174.301 66.2984 174.436 66.0328C174.571 65.7672 174.619 65.5062 174.581 65.2499C174.545 64.9957 174.41 64.747 174.176 64.5037C173.834 64.1477 173.462 64.0003 173.062 64.0615C172.665 64.1228 172.251 64.3587 171.818 64.7694Z" fill="white"/>
<path d="M197.406 71.6714C197.471 71.739 197.537 71.8165 197.603 71.904C197.672 71.9893 197.728 72.0655 197.771 72.1325L197.067 72.6646C197.029 72.5976 196.979 72.5238 196.919 72.4431C196.861 72.3647 196.803 72.2951 196.744 72.2342C196.606 72.09 196.446 71.9784 196.266 71.8993C196.086 71.8203 195.897 71.7806 195.697 71.7804C195.5 71.778 195.299 71.8196 195.095 71.9052C194.894 71.9886 194.698 72.1206 194.507 72.3012L192.524 74.1813L191.868 73.4987L195.617 69.9449L196.143 70.4923L195.544 71.2152L195.573 71.2456C195.783 71.1932 195.996 71.1673 196.213 71.168C196.433 71.1709 196.644 71.2121 196.846 71.2917C197.053 71.3714 197.239 71.4979 197.406 71.6714Z" fill="white"/>
<path d="M193.301 67.4C193.613 67.7244 193.81 68.0693 193.892 68.4346C193.977 68.7978 193.952 69.1618 193.817 69.5265C193.682 69.8912 193.442 70.2369 193.098 70.5637L192.71 70.9313L190.28 68.4036C189.885 68.7909 189.676 69.1858 189.651 69.5883C189.628 69.9886 189.789 70.3679 190.133 70.7261C190.361 70.9626 190.586 71.1518 190.809 71.2935C191.032 71.4353 191.282 71.5633 191.561 71.6778L190.987 72.2228C190.721 72.1175 190.478 71.9885 190.257 71.8358C190.037 71.6875 189.801 71.4827 189.55 71.2213C189.203 70.8609 188.971 70.4755 188.855 70.0653C188.74 69.6574 188.752 69.2436 188.89 68.8239C189.031 68.4021 189.31 67.9934 189.727 67.5978C190.14 67.2065 190.558 66.9409 190.983 66.801C191.41 66.6589 191.822 66.6388 192.218 66.7405C192.615 66.8422 192.976 67.062 193.301 67.4ZM192.767 67.8997C192.503 67.6248 192.2 67.49 191.858 67.4953C191.519 67.4985 191.167 67.6445 190.804 67.9334L192.564 69.765C192.768 69.5671 192.918 69.3624 193.014 69.151C193.11 68.9396 193.14 68.7277 193.105 68.5155C193.072 68.3054 192.96 68.1002 192.767 67.8997Z" fill="white"/>
<path d="M183.771 68.401C183.292 67.9031 183.016 67.4331 182.942 66.9909C182.87 66.5509 182.999 66.175 183.327 65.8633C183.561 65.6418 183.83 65.5269 184.134 65.5186C184.435 65.5124 184.741 65.6142 185.051 65.824C185.001 65.6819 184.988 65.5307 185.012 65.3705C185.04 65.2103 185.113 65.0744 185.231 64.9626C185.369 64.8314 185.525 64.7569 185.699 64.7389C185.876 64.721 186.088 64.7446 186.332 64.8098C186.226 64.5364 186.209 64.2507 186.282 63.9529C186.358 63.6529 186.523 63.3825 186.777 63.1417C187.047 62.8859 187.331 62.724 187.63 62.656C187.931 62.5903 188.234 62.6172 188.539 62.7366C188.845 62.8561 189.145 63.069 189.439 63.3754C189.504 63.4429 189.568 63.516 189.63 63.5946C189.695 63.6709 189.753 63.7472 189.805 63.8233C189.856 63.8994 189.896 63.963 189.923 64.0143L191.158 65.2985L190.753 65.6823L190.014 65.1166C189.991 65.2637 189.94 65.4134 189.861 65.5657C189.782 65.7181 189.672 65.8609 189.531 65.9942C189.151 66.3554 188.724 66.5118 188.253 66.4634C187.786 66.4151 187.334 66.1634 186.897 65.7083C186.797 65.6003 186.704 65.4847 186.616 65.3615C186.466 65.3183 186.333 65.3043 186.217 65.3192C186.104 65.332 186.004 65.3792 185.918 65.4609C185.852 65.5233 185.82 65.5952 185.82 65.6767C185.822 65.7604 185.853 65.8537 185.913 65.9564C185.975 66.0569 186.064 66.1669 186.178 66.2863L186.802 66.9351C187.192 67.3407 187.404 67.7333 187.44 68.1129C187.475 68.4926 187.328 68.8394 186.997 69.1533C186.577 69.551 186.089 69.6861 185.533 69.5587C184.978 69.4313 184.39 69.0454 183.771 68.401ZM184.293 67.9506C184.573 68.2413 184.835 68.4555 185.08 68.5933C185.328 68.7335 185.553 68.8015 185.757 68.7974C185.962 68.7933 186.138 68.7204 186.288 68.5785C186.424 68.4495 186.497 68.3179 186.507 68.1838C186.516 68.054 186.473 67.9143 186.377 67.7645C186.281 67.6147 186.144 67.4474 185.966 67.2626L185.375 66.6476C185.223 66.4899 185.066 66.3761 184.904 66.3063C184.741 66.2364 184.582 66.2129 184.426 66.2357C184.268 66.2607 184.12 66.3387 183.982 66.4699C183.794 66.6483 183.727 66.8648 183.781 67.1194C183.837 67.3762 184.008 67.6533 184.293 67.9506ZM187.392 65.2969C187.633 65.547 187.878 65.6716 188.129 65.6708C188.381 65.6679 188.631 65.5493 188.879 65.3149C189.144 65.0634 189.283 64.8111 189.295 64.5581C189.308 64.3051 189.195 64.0547 188.957 63.8069C188.725 63.5658 188.479 63.4467 188.217 63.4494C187.959 63.4522 187.699 63.5783 187.436 63.8277C187.194 64.0578 187.067 64.3004 187.057 64.5557C187.049 64.8088 187.16 65.0559 187.392 65.2969Z" fill="white"/>
<path d="M185.87 59.668C186.283 60.0983 186.492 60.5316 186.495 60.9678C186.5 61.4062 186.262 61.8533 185.782 62.3091L183.34 64.6246L182.693 63.9521L185.044 61.7237C185.343 61.4399 185.505 61.1617 185.529 60.8892C185.555 60.6144 185.438 60.3419 185.178 60.0716C184.808 59.6863 184.434 59.5246 184.055 59.5862C183.679 59.6502 183.273 59.8886 182.838 60.3013L180.926 62.1137L180.274 61.4345L184.022 57.8807L184.538 58.418L184.105 59.0158L184.141 59.053C184.348 59.0072 184.555 59.0031 184.76 59.041C184.965 59.0788 185.161 59.1516 185.347 59.2594C185.537 59.3674 185.712 59.5036 185.87 59.668Z" fill="white"/>
<path d="M181.676 55.3119C182.118 55.7715 182.345 56.2129 182.357 56.6361C182.372 57.0571 182.158 57.4773 181.716 57.8965L179.182 60.299L178.714 59.8124L179.132 59.1646L179.106 59.1376C178.87 59.163 178.653 59.1623 178.454 59.1357C178.255 59.109 178.061 59.0429 177.873 58.9372C177.687 58.8337 177.492 58.6761 177.288 58.4643C177.072 58.2391 176.92 57.9998 176.833 57.7467C176.745 57.4936 176.735 57.239 176.801 56.9828C176.871 56.7267 177.033 56.4783 177.287 56.2375C177.668 55.8763 178.097 55.7475 178.573 55.8511C179.05 55.9547 179.581 56.293 180.166 56.866L180.811 57.4823L181.022 57.2824C181.314 57.005 181.458 56.7441 181.452 56.4994C181.449 56.2571 181.336 56.0199 181.113 55.7878C180.929 55.5963 180.724 55.4396 180.498 55.3176C180.275 55.1935 180.047 55.0869 179.814 54.9978L180.103 54.3107C180.362 54.4004 180.63 54.5277 180.905 54.6927C181.183 54.86 181.44 55.0664 181.676 55.3119ZM180.355 57.9012L179.831 57.4034C179.402 56.9881 179.038 56.7539 178.74 56.7007C178.446 56.6477 178.185 56.7297 177.956 56.9468C177.756 57.136 177.667 57.3344 177.689 57.542C177.711 57.7495 177.816 57.9513 178.004 58.1473C178.294 58.4492 178.618 58.6164 178.974 58.6489C179.335 58.6815 179.683 58.5387 180.018 58.2205L180.355 57.9012Z" fill="white"/>
<path d="M178.069 54.1015C177.509 54.6325 176.942 54.9739 176.368 55.1258C175.797 55.2755 175.229 55.2458 174.664 55.0367C174.103 54.8276 173.557 54.446 173.024 53.8918L171.722 52.5367L176.694 47.8219L178.143 49.3291C178.628 49.8337 178.954 50.3578 179.121 50.9013C179.29 51.4427 179.29 51.9856 179.12 52.5301C178.952 53.0725 178.602 53.5962 178.069 54.1015ZM177.35 53.3943C177.776 52.9901 178.062 52.5881 178.206 52.1884C178.351 51.7887 178.362 51.3925 178.24 50.9998C178.121 50.605 177.876 50.2149 177.506 49.8297L176.775 49.0693L172.979 52.6683L173.593 53.307C174.206 53.9446 174.826 54.2695 175.453 54.2819C176.08 54.2943 176.713 53.9984 177.35 53.3943Z" fill="white"/>
<path d="M241.033 88.0512C241.215 88.3692 241.285 88.6783 241.244 88.9785C241.205 89.2771 241.051 89.5034 240.781 89.6573C240.603 89.759 240.421 89.7939 240.234 89.7622C240.049 89.733 239.854 89.6263 239.651 89.4419L239.606 89.468C239.696 89.757 239.703 90.0046 239.625 90.211C239.548 90.4199 239.42 90.5759 239.239 90.679C238.931 90.8547 238.624 90.8814 238.318 90.7591C238.015 90.6354 237.728 90.3368 237.458 89.8636C237.348 89.6702 237.266 89.4772 237.214 89.2845C237.161 89.0919 237.132 88.8875 237.127 88.6713L237.856 88.2553C237.85 88.4813 237.863 88.6964 237.895 88.9007C237.928 89.1049 237.997 89.2999 238.103 89.4857C238.21 89.674 238.323 89.7918 238.441 89.8391C238.561 89.8889 238.687 89.8761 238.819 89.8006C238.923 89.7411 238.992 89.6428 239.025 89.5058C239.06 89.3714 239.007 89.1808 238.866 88.934L238.622 88.5065L239.229 88.1602L239.429 88.5113C239.58 88.776 239.721 88.9218 239.851 88.9487C239.981 88.9757 240.098 88.9594 240.202 88.8999C240.299 88.8447 240.361 88.7672 240.388 88.6672C240.416 88.5673 240.392 88.4525 240.318 88.3227C240.25 88.2031 240.161 88.1037 240.052 88.0244C239.942 87.9451 239.795 87.862 239.611 87.775L239.929 87.0824C240.139 87.172 240.337 87.2896 240.525 87.4355C240.714 87.5838 240.884 87.7891 241.033 88.0512Z" fill="white"/>
<path d="M236.718 85.8792C236.994 86.3626 237.078 86.7989 236.969 87.188C236.865 87.5783 236.539 87.9295 235.992 88.2416L233.209 89.8294L232.543 88.6615L235.035 87.2392C235.341 87.065 235.541 86.8814 235.637 86.6885C235.732 86.4956 235.718 86.2897 235.593 86.0709C235.417 85.763 235.182 85.6073 234.886 85.6039C234.593 85.599 234.242 85.7134 233.832 85.9472L231.691 87.1691L231.027 86.0049L233.519 84.5827C233.723 84.4665 233.88 84.3464 233.992 84.2221C234.103 84.0979 234.166 83.9692 234.181 83.8358C234.196 83.7024 234.161 83.562 234.077 83.4144C233.954 83.1981 233.802 83.0588 233.621 82.9966C233.445 82.9354 233.235 82.9384 232.994 83.0055C232.756 83.0737 232.486 83.1941 232.183 83.3669L230.175 84.5126L229.511 83.3484L233.778 80.9134L234.286 81.8027L233.829 82.2707L233.866 82.3356C234.063 82.3379 234.244 82.3778 234.41 82.4553C234.577 82.5353 234.727 82.6419 234.861 82.7749C234.994 82.908 235.107 83.056 235.2 83.2188C235.379 83.5318 235.479 83.8255 235.5 84.0999C235.523 84.3768 235.462 84.6347 235.315 84.8738L235.373 84.9768C235.665 84.9792 235.926 85.0678 236.158 85.2427C236.39 85.4202 236.577 85.6324 236.718 85.8792Z" fill="white"/>
<path d="M234.721 79.5154L227.954 80.6194L227.35 79.5622L234.118 78.4581L234.721 79.5154Z" fill="white"/>
<path d="M223.981 78.0192C223.641 77.4238 223.485 76.9088 223.514 76.4742C223.541 76.0436 223.742 75.7216 224.116 75.5081C224.373 75.3615 224.634 75.3189 224.898 75.3805C225.163 75.4421 225.421 75.607 225.672 75.8754C225.654 75.7267 225.677 75.5752 225.741 75.4208C225.807 75.265 225.905 75.15 226.035 75.0759C226.198 74.983 226.36 74.9531 226.52 74.9863C226.683 75.018 226.868 75.0932 227.074 75.2117C227.043 74.9327 227.096 74.666 227.235 74.4117C227.374 74.1599 227.589 73.9513 227.879 73.7858C228.19 73.6086 228.492 73.5258 228.785 73.5372C229.082 73.5497 229.362 73.6531 229.625 73.8473C229.889 74.0441 230.127 74.3295 230.341 74.7035C230.386 74.7824 230.433 74.8769 230.482 74.987C230.532 75.0972 230.575 75.1991 230.611 75.2929C230.65 75.3892 230.673 75.4548 230.683 75.4897L231.533 76.9783L230.941 77.3159L230.388 76.7459C230.329 76.8607 230.254 76.9639 230.165 77.0554C230.076 77.1469 229.971 77.2268 229.851 77.2951C229.393 77.5564 228.944 77.6001 228.505 77.4262C228.069 77.2533 227.689 76.8831 227.365 76.3157C227.296 76.1765 227.233 76.0434 227.178 75.9166C227.098 75.8842 227.025 75.8673 226.956 75.8658C226.888 75.8643 226.826 75.8795 226.77 75.9114C226.714 75.9434 226.68 75.9931 226.668 76.0607C226.66 76.1294 226.673 76.2166 226.706 76.3224C226.743 76.4292 226.803 76.5539 226.884 76.6964L227.298 77.4216C227.565 77.8898 227.668 78.3034 227.606 78.6624C227.546 79.0239 227.321 79.3158 226.932 79.5379C226.433 79.8225 225.927 79.8346 225.414 79.5741C224.903 79.3161 224.425 78.7978 223.981 78.0192ZM224.768 77.6354C224.927 77.9128 225.089 78.1354 225.256 78.3034C225.421 78.4754 225.583 78.5872 225.741 78.6389C225.896 78.6921 226.04 78.6809 226.172 78.6054C226.279 78.5444 226.346 78.464 226.373 78.364C226.399 78.2681 226.389 78.1493 226.342 78.0075C226.296 77.8683 226.217 77.7008 226.106 77.5048L225.761 76.9018C225.68 76.7593 225.584 76.6439 225.473 76.5555C225.363 76.4697 225.249 76.4169 225.129 76.3972C225.008 76.379 224.892 76.4011 224.783 76.4635C224.622 76.555 224.54 76.7032 224.536 76.9081C224.533 77.1156 224.61 77.358 224.768 77.6354ZM228.112 75.9755C228.237 76.1943 228.396 76.3161 228.589 76.341C228.781 76.3658 228.994 76.3121 229.225 76.18C229.482 76.0334 229.644 75.8703 229.71 75.6908C229.78 75.5124 229.755 75.3176 229.635 75.1065C229.513 74.8927 229.356 74.7694 229.166 74.7366C228.977 74.7023 228.755 74.7585 228.498 74.9052C228.266 75.0373 228.113 75.194 228.038 75.3753C227.964 75.5591 227.988 75.7592 228.112 75.9755Z" fill="white"/>
<path d="M228.716 72.0431L224.449 74.4781L223.946 73.5964L224.425 73.1056L224.392 73.0483C224.211 73.061 224.045 73.049 223.896 73.0126C223.747 72.9762 223.615 72.9132 223.5 72.8238C223.385 72.7343 223.285 72.6145 223.199 72.4644C223.11 72.3092 223.059 72.1513 223.045 71.9906C223.035 71.8311 223.061 71.6794 223.124 71.5355L223.111 71.5126C223.062 71.5508 222.983 71.6043 222.874 71.6733C222.768 71.7408 222.654 71.8107 222.533 71.8829C222.411 71.9592 222.303 72.0242 222.209 72.0779L220.988 72.7749L220.324 71.6107L226.469 68.1041L227.133 69.2683L224.641 70.6905C224.335 70.8647 224.137 71.0521 224.046 71.2527C223.954 71.4532 223.977 71.6731 224.113 71.9122C224.246 72.1438 224.403 72.2952 224.585 72.3666C224.772 72.439 224.985 72.4437 225.226 72.3806C225.469 72.316 225.742 72.1974 226.045 72.0246L228.052 70.879L228.716 72.0431Z" fill="white"/>
<path d="M225.586 67.2518C224.945 67.6172 224.344 67.8928 223.784 68.0785C223.225 68.2679 222.707 68.3523 222.23 68.3318C221.755 68.315 221.324 68.182 220.937 67.9326C220.55 67.6833 220.212 67.3054 219.923 66.7988C219.56 66.1619 219.423 65.5471 219.511 64.9544C219.604 64.3597 219.898 63.7912 220.394 63.2489C220.894 62.7045 221.57 62.1897 222.42 61.7044C223.278 61.215 224.061 60.8856 224.77 60.716C225.485 60.5479 226.121 60.5736 226.678 60.7931C227.235 61.0125 227.706 61.4606 228.092 62.1373C228.454 62.7705 228.588 63.3845 228.496 63.9793C228.409 64.5756 228.117 65.1477 227.619 65.6957C227.125 66.2416 226.447 66.7603 225.586 67.2518ZM223.371 63.3708C222.767 63.7156 222.28 64.0362 221.912 64.3327C221.55 64.6306 221.313 64.917 221.201 65.1919C221.089 65.4667 221.114 65.7453 221.275 66.0275C221.434 66.3062 221.658 66.4683 221.948 66.5139C222.244 66.5612 222.612 66.5045 223.053 66.3441C223.497 66.1816 224.024 65.9269 224.632 65.58C225.236 65.2351 225.721 64.9127 226.087 64.6127C226.453 64.3126 226.691 64.0234 226.801 63.7449C226.916 63.468 226.894 63.1902 226.735 62.9116C226.574 62.6293 226.345 62.4675 226.048 62.4259C225.755 62.3824 225.386 62.4418 224.941 62.6043C224.499 62.7705 223.975 63.026 223.371 63.3708Z" fill="white"/>
<path d="M221.564 57.6452C221.841 58.1301 221.994 58.6134 222.024 59.095C222.057 59.5803 221.956 60.0337 221.721 60.4552C221.487 60.8768 221.107 61.2372 220.583 61.5366C220.011 61.8629 219.449 62.0253 218.896 62.024C218.35 62.0242 217.832 61.852 217.343 61.5076C216.855 61.1667 216.413 60.6471 216.014 59.9487C215.777 59.5326 215.589 59.1193 215.451 58.7089C215.311 58.3042 215.235 57.923 215.223 57.5654L216.672 56.7384C216.684 57.096 216.749 57.4955 216.866 57.9369C216.99 58.3799 217.148 58.7714 217.342 59.1116C217.532 59.4445 217.736 59.7002 217.953 59.8786C218.173 60.0549 218.409 60.1483 218.66 60.1588C218.916 60.1709 219.189 60.0943 219.478 59.9291C219.865 59.7081 220.088 59.4086 220.145 59.0303C220.203 58.6521 220.078 58.1934 219.77 57.6542C219.653 57.4479 219.51 57.244 219.342 57.0423C219.176 56.8443 219.031 56.6825 218.907 56.5568L218.884 55.6848L223.098 53.6758L225.554 57.9801L224.132 58.7916L222.515 55.9583L220.874 56.7006C220.969 56.8092 221.071 56.9287 221.179 57.059C221.287 57.1892 221.415 57.3847 221.564 57.6452Z" fill="white"/>
<path d="M214.382 56.8363L211.217 51.289L212.384 50.623L215.534 51.466C216.176 51.6322 216.703 51.7581 217.117 51.8436C217.536 51.9307 217.89 51.9635 218.18 51.9419C218.472 51.924 218.749 51.8407 219.009 51.6921C219.324 51.5124 219.508 51.2896 219.563 51.0234C219.623 50.7589 219.569 50.4801 219.402 50.187C219.227 49.8794 218.986 49.6211 218.679 49.4122C218.373 49.2032 218 49.0156 217.56 48.8495L218.119 47.3212C218.445 47.4377 218.767 47.573 219.085 47.7272C219.405 47.885 219.714 48.1023 220.011 48.3789C220.314 48.6571 220.6 49.0332 220.871 49.5073C221.168 50.0283 221.329 50.5289 221.354 51.009C221.38 51.4927 221.288 51.9288 221.078 52.3173C220.872 52.7037 220.564 53.0136 220.155 53.2469C219.717 53.4968 219.268 53.6381 218.807 53.6709C218.346 53.7037 217.843 53.6548 217.299 53.5243C216.756 53.3973 216.136 53.2233 215.439 53.0023L213.896 52.53L213.82 52.5734L215.793 56.031L214.382 56.8363Z" fill="white"/>
<path d="M120 67C130.45 67.1661 140.943 70.2888 149.5 75L162 53.5L171.936 35.6985C173.076 33.655 172.35 31.0666 170.267 29.9999C156.453 22.9256 140.7 18.4178 124.278 17.6223C121.923 17.5083 120 19.4219 120 21.7791V42V67Z" fill="#FB8801"/>
<path d="M146.969 44.9035L146.545 46.8643C146.511 47.02 146.473 47.1718 146.432 47.3195C146.39 47.4672 146.353 47.5902 146.319 47.6884L146.374 47.7C146.519 47.5455 146.682 47.4268 146.863 47.3437C147.048 47.2583 147.246 47.2076 147.457 47.1917C147.672 47.1733 147.891 47.1878 148.114 47.235C148.509 47.3186 148.828 47.4533 149.072 47.6392C149.317 47.8251 149.48 48.0689 149.562 48.3705C149.644 48.669 149.639 49.0336 149.546 49.4643L148.835 52.7537L147.922 52.5604L148.606 49.3947C148.694 48.9915 148.67 48.6704 148.537 48.4313C148.404 48.1891 148.154 48.0291 147.787 47.9514C147.438 47.8776 147.145 47.8889 146.907 47.9854C146.669 48.0788 146.477 48.2505 146.33 48.5005C146.183 48.7505 146.068 49.071 145.983 49.4619L145.428 52.032L144.506 51.8368L146.047 44.7083L146.969 44.9035Z" fill="white"/>
<path d="M140.296 53.3021C139.62 53.159 139.127 52.9252 138.817 52.6008C138.51 52.277 138.404 51.8937 138.5 51.4508C138.568 51.1362 138.725 50.89 138.971 50.7122C139.217 50.5374 139.527 50.4498 139.901 50.4492C139.779 50.3596 139.683 50.2418 139.613 50.0959C139.546 49.9475 139.529 49.794 139.564 49.6351C139.604 49.4488 139.69 49.2995 139.823 49.1871C139.96 49.0723 140.148 48.9732 140.386 48.8896C140.144 48.7233 139.97 48.4962 139.862 48.2084C139.756 47.9175 139.739 47.6011 139.813 47.259C139.892 46.8955 140.035 46.6017 140.244 46.3775C140.455 46.154 140.72 46.0058 141.04 45.9329C141.359 45.8601 141.727 45.8677 142.143 45.9557C142.234 45.9751 142.328 45.9998 142.424 46.0297C142.52 46.0565 142.611 46.087 142.697 46.121C142.782 46.1551 142.851 46.1855 142.902 46.2125L144.645 46.5815L144.527 47.1267L143.599 47.0738C143.662 47.2086 143.704 47.3613 143.725 47.5318C143.746 47.7022 143.735 47.8822 143.695 48.0715C143.584 48.5846 143.32 48.9536 142.904 49.1785C142.491 49.4009 141.976 49.4467 141.359 49.3159C141.216 49.2824 141.073 49.2395 140.931 49.187C140.783 49.2355 140.666 49.2985 140.579 49.3758C140.492 49.4502 140.437 49.5454 140.411 49.6614C140.392 49.75 140.406 49.8279 140.452 49.8952C140.501 49.9631 140.579 50.0228 140.687 50.0743C140.794 50.1226 140.929 50.164 141.091 50.1983L141.972 50.3848C142.522 50.5014 142.919 50.7068 143.162 51.0011C143.405 51.2953 143.479 51.6654 143.382 52.1114C143.26 52.6764 142.934 53.0624 142.403 53.2694C141.873 53.4764 141.17 53.4873 140.296 53.3021ZM140.474 52.6355C140.868 52.719 141.205 52.7489 141.485 52.7252C141.768 52.7021 141.993 52.6315 142.159 52.5134C142.325 52.3953 142.43 52.2354 142.474 52.0338C142.513 51.8506 142.499 51.7007 142.432 51.5842C142.367 51.4714 142.252 51.3801 142.088 51.3102C141.924 51.2403 141.717 51.1789 141.466 51.1258L140.632 50.949C140.418 50.9037 140.224 50.8978 140.051 50.9313C139.877 50.9648 139.733 51.0348 139.617 51.1412C139.5 51.2507 139.422 51.3986 139.382 51.585C139.327 51.8385 139.394 52.0554 139.582 52.2357C139.773 52.4167 140.07 52.55 140.474 52.6355ZM141.536 48.697C141.875 48.7689 142.148 48.7341 142.354 48.5925C142.561 48.448 142.701 48.2092 142.773 47.8763C142.85 47.519 142.823 47.232 142.69 47.0156C142.558 46.7991 142.324 46.6553 141.988 46.5841C141.661 46.5148 141.39 46.5548 141.175 46.7042C140.964 46.8512 140.821 47.1019 140.744 47.4562C140.674 47.783 140.706 48.0549 140.841 48.272C140.977 48.4861 141.209 48.6277 141.536 48.697Z" fill="white"/>
<path d="M138.871 45.3633L137.78 50.4119L136.858 50.2167L137.949 45.1681L138.871 45.3633ZM138.83 43.3567C138.976 43.3878 139.093 43.4571 139.178 43.5647C139.267 43.6728 139.29 43.8231 139.248 44.0156C139.207 44.208 139.123 44.3371 138.997 44.403C138.874 44.4666 138.74 44.4828 138.593 44.4517C138.443 44.42 138.326 44.3503 138.24 44.2428C138.159 44.1329 138.138 43.9817 138.18 43.7893C138.222 43.5968 138.302 43.4686 138.421 43.4044C138.544 43.3409 138.68 43.325 138.83 43.3567Z" fill="white"/>
<path d="M135.17 49.8593L134.23 49.6602L134.898 46.5678L131.592 45.8675L130.924 48.9599L129.984 48.7608L131.432 42.0629L132.372 42.262L131.768 45.0566L135.074 45.7569L135.678 42.9623L136.618 43.1614L135.17 49.8593Z" fill="white"/>
<path d="M147.839 36.0189L148.834 36.2297L149.278 39.3661C149.301 39.5274 149.32 39.6847 149.334 39.838C149.353 39.9888 149.364 40.135 149.369 40.2765C149.377 40.4156 149.378 40.5516 149.372 40.6844L149.404 40.6912C149.474 40.5432 149.567 40.3648 149.683 40.1561C149.798 39.9474 149.92 39.7369 150.049 39.5247L151.704 36.8377L152.695 37.0475L149.267 42.3485C149.078 42.6439 148.873 42.888 148.653 43.0808C148.434 43.2774 148.196 43.4121 147.937 43.485C147.678 43.5611 147.389 43.5654 147.071 43.498C146.924 43.467 146.797 43.4303 146.687 43.388C146.581 43.3494 146.49 43.311 146.415 43.2728L146.573 42.5398C146.637 42.5693 146.715 42.6002 146.807 42.6325C146.903 42.6654 147.002 42.6929 147.106 42.7149C147.299 42.7557 147.472 42.7525 147.626 42.7053C147.783 42.6618 147.925 42.5817 148.052 42.4649C148.183 42.3489 148.301 42.2063 148.408 42.0373L148.766 41.4903L147.839 36.0189Z" fill="white"/>
<path d="M147.12 35.7709C147.211 35.7904 147.309 35.8175 147.414 35.8524C147.519 35.8842 147.608 35.9159 147.681 35.9473L147.4 36.7836C147.33 36.7498 147.248 36.7164 147.153 36.6834C147.061 36.6511 146.973 36.6263 146.891 36.6088C146.695 36.5673 146.501 36.5645 146.307 36.6002C146.114 36.636 145.935 36.7098 145.77 36.8218C145.606 36.9308 145.464 37.078 145.344 37.2634C145.225 37.4457 145.137 37.6651 145.082 37.9217L144.505 40.5926L143.579 40.3964L144.67 35.3478L145.412 35.5051L145.325 36.4401L145.367 36.4489C145.51 36.2876 145.672 36.1462 145.852 36.0246C146.034 35.9036 146.232 35.8192 146.443 35.7714C146.659 35.7212 146.884 35.7211 147.12 35.7709Z" fill="white"/>
<path d="M141.325 34.5433C141.765 34.6365 142.122 34.8112 142.396 35.0672C142.671 35.3202 142.855 35.6356 142.949 36.0133C143.043 36.3909 143.04 36.8119 142.94 37.2761L142.827 37.7984L139.397 37.0719C139.29 37.6144 139.339 38.0593 139.545 38.4064C139.752 38.7505 140.099 38.974 140.585 39.077C140.906 39.145 141.198 39.175 141.462 39.167C141.726 39.159 142.005 39.1239 142.3 39.0618L142.133 39.836C141.854 39.8983 141.58 39.9283 141.312 39.9258C141.047 39.927 140.737 39.8901 140.382 39.815C139.893 39.7114 139.485 39.5227 139.157 39.2488C138.832 38.9757 138.609 38.6265 138.487 38.2013C138.365 37.7731 138.365 37.278 138.486 36.7161C138.606 36.1602 138.802 35.705 139.074 35.3505C139.346 34.993 139.675 34.7448 140.06 34.6059C140.445 34.467 140.866 34.4462 141.325 34.5433ZM141.166 35.257C140.793 35.178 140.467 35.2367 140.188 35.4331C139.909 35.6265 139.701 35.945 139.564 36.3886L142.049 36.915C142.106 36.6364 142.115 36.3827 142.075 36.1538C142.035 35.925 141.94 35.7325 141.792 35.5765C141.647 35.4211 141.438 35.3146 141.166 35.257Z" fill="white"/>
<path d="M138.891 32.399L135.068 38.5937L134.092 38.3869L133.164 31.1859L134.136 31.3918L134.696 36.0139C134.718 36.1752 134.736 36.345 134.749 36.5233C134.762 36.6986 134.772 36.8733 134.779 37.0473C134.786 37.2213 134.789 37.3799 134.787 37.5232C134.844 37.3915 134.91 37.2475 134.986 37.091C135.064 36.9351 135.147 36.7787 135.236 36.6217C135.325 36.4617 135.412 36.3108 135.496 36.1691L137.91 32.1911L138.891 32.399Z" fill="white"/>
<path d="M202.106 32.5168C202.403 32.7305 202.596 32.9823 202.683 33.2723C202.772 33.56 202.726 33.83 202.545 34.0822C202.426 34.2488 202.274 34.3565 202.091 34.4054C201.911 34.4561 201.69 34.4398 201.428 34.3567L201.397 34.3996C201.6 34.6245 201.709 34.847 201.724 35.0671C201.742 35.2888 201.69 35.4842 201.568 35.6531C201.362 35.9411 201.094 36.0931 200.765 36.1093C200.437 36.1231 200.052 35.9711 199.61 35.6532C199.429 35.5233 199.275 35.3818 199.147 35.2285C199.019 35.0753 198.907 34.9015 198.812 34.7071L199.302 34.0253C199.391 34.2333 199.492 34.4234 199.606 34.5957C199.721 34.768 199.865 34.9165 200.038 35.0413C200.215 35.1677 200.366 35.2279 200.493 35.2218C200.623 35.2173 200.732 35.1532 200.821 35.0295C200.891 34.9319 200.912 34.814 200.885 34.6756C200.861 34.539 200.733 34.3878 200.502 34.222L200.103 33.9349L200.51 33.3674L200.839 33.6032C201.086 33.781 201.275 33.855 201.404 33.8254C201.534 33.7957 201.633 33.7321 201.703 33.6346C201.768 33.5442 201.792 33.4478 201.776 33.3456C201.759 33.2434 201.69 33.1487 201.568 33.0616C201.457 32.9812 201.335 32.9278 201.202 32.9012C201.07 32.8747 200.901 32.8603 200.697 32.858L200.698 32.0959C200.926 32.09 201.156 32.1142 201.387 32.1686C201.621 32.2247 201.861 32.3408 202.106 32.5168Z" fill="white"/>
<path d="M197.277 32.3389C197.73 32.6636 197.987 33.0254 198.051 33.4244C198.118 33.8227 197.968 34.2777 197.601 34.7893L195.732 37.3914L194.64 36.607L196.314 34.2761C196.519 33.9906 196.625 33.7402 196.631 33.525C196.638 33.3098 196.539 33.1287 196.334 32.9817C196.046 32.7749 195.767 32.7314 195.497 32.8513C195.229 32.9688 194.957 33.2191 194.682 33.6022L193.244 35.6046L192.155 34.8228L193.829 32.492C193.966 32.3016 194.059 32.1268 194.109 31.9675C194.158 31.8083 194.162 31.6649 194.12 31.5374C194.078 31.4099 193.988 31.2966 193.85 31.1975C193.648 31.0523 193.452 30.9889 193.261 31.0075C193.075 31.0254 192.887 31.1152 192.695 31.2768C192.507 31.4377 192.311 31.6598 192.108 31.943L190.76 33.8205L189.671 33.0386L192.537 29.048L193.369 29.6453L193.148 30.2609L193.209 30.3044C193.389 30.2245 193.571 30.1853 193.753 30.1868C193.939 30.19 194.12 30.2244 194.296 30.2899C194.473 30.3554 194.637 30.4428 194.79 30.5522C195.082 30.7624 195.296 30.9877 195.429 31.2281C195.566 31.4703 195.617 31.7306 195.583 32.0091L195.679 32.0783C195.945 31.9591 196.22 31.9309 196.503 31.9936C196.788 32.058 197.047 32.1731 197.277 32.3389Z" fill="white"/>
<path d="M192.812 27.3844L187.119 31.2058L186.13 30.4957L191.823 26.6743L192.812 27.3844Z" fill="white"/>
<path d="M182.424 30.4959C181.867 30.096 181.511 29.6925 181.356 29.2855C181.202 28.8825 181.25 28.5061 181.501 28.1563C181.674 27.916 181.893 27.7688 182.159 27.7146C182.426 27.6605 182.729 27.7031 183.068 27.8426C182.991 27.7147 182.949 27.5673 182.942 27.4004C182.938 27.2311 182.979 27.0858 183.066 26.9644C183.175 26.8122 183.31 26.7177 183.47 26.6809C183.631 26.6418 183.831 26.6333 184.067 26.6554C183.923 26.4146 183.86 26.1498 183.88 25.861C183.902 25.574 184.011 25.2948 184.206 25.0236C184.414 24.7333 184.654 24.5323 184.926 24.4206C185.201 24.3082 185.499 24.2856 185.818 24.3529C186.14 24.4218 186.476 24.5819 186.826 24.8331C186.9 24.8861 186.982 24.9524 187.073 25.032C187.163 25.1116 187.245 25.1863 187.317 25.2563C187.392 25.3281 187.441 25.3777 187.465 25.4054L188.857 26.4051L188.459 26.9584L187.719 26.6704C187.713 26.7995 187.688 26.9242 187.645 27.0447C187.602 27.1651 187.54 27.2813 187.46 27.3931C187.152 27.8214 186.762 28.0481 186.29 28.0731C185.821 28.0975 185.322 27.9191 184.791 27.538C184.67 27.4403 184.558 27.3453 184.455 27.2531C184.369 27.2566 184.295 27.2719 184.233 27.299C184.17 27.3261 184.12 27.3658 184.082 27.4181C184.044 27.4705 184.034 27.5299 184.051 27.5964C184.073 27.6621 184.121 27.7362 184.195 27.8184C184.273 27.9 184.379 27.9887 184.513 28.0844L185.191 28.5714C185.629 28.8859 185.894 29.2191 185.988 29.5712C186.083 29.925 186.001 30.2839 185.739 30.6479C185.404 31.1143 184.949 31.3359 184.374 31.3126C183.802 31.2911 183.152 31.0188 182.424 30.4959ZM182.98 29.8189C183.239 30.0052 183.48 30.14 183.701 30.2233C183.924 30.3107 184.117 30.3451 184.282 30.3264C184.445 30.3102 184.571 30.2402 184.66 30.1164C184.732 30.0165 184.759 29.9154 184.743 29.8132C184.726 29.7151 184.667 29.6114 184.566 29.5021C184.466 29.3946 184.325 29.275 184.141 29.1435L183.578 28.7384C183.444 28.6427 183.309 28.5778 183.171 28.5438C183.035 28.5114 182.909 28.5111 182.793 28.5428C182.675 28.5769 182.579 28.6451 182.505 28.7474C182.398 28.8973 182.384 29.0664 182.466 29.2546C182.549 29.4445 182.721 29.6326 182.98 29.8189ZM185.329 26.9176C185.533 27.0646 185.729 27.1092 185.914 27.0515C186.1 26.9937 186.271 26.8566 186.426 26.64C186.599 26.3997 186.678 26.1841 186.664 25.9934C186.653 25.8019 186.549 25.6353 186.352 25.4935C186.152 25.3499 185.958 25.3029 185.771 25.3525C185.586 25.3997 185.407 25.5435 185.234 25.7838C185.079 26.0004 185.004 26.2067 185.011 26.4029C185.021 26.6008 185.127 26.7724 185.329 26.9176Z" fill="white"/>
<path d="M184.241 23.0906L181.375 27.0811L180.551 26.489L180.782 25.8433L180.728 25.8049C180.568 25.892 180.413 25.95 180.262 25.9789C180.112 26.0078 179.966 26.0056 179.824 25.9722C179.682 25.9388 179.541 25.8717 179.4 25.7708C179.255 25.6666 179.143 25.5444 179.063 25.4042C178.987 25.2633 178.948 25.1144 178.946 24.9574L178.924 24.942C178.895 24.9971 178.846 25.0787 178.775 25.1868C178.707 25.2926 178.632 25.4034 178.553 25.5194C178.474 25.6394 178.403 25.7434 178.339 25.8314L177.519 26.9737L176.43 26.1918L180.558 20.4451L181.646 21.2269L179.972 23.5577C179.767 23.8433 179.665 24.0962 179.665 24.3166C179.666 24.5369 179.778 24.7274 180.002 24.8881C180.218 25.0436 180.424 25.1158 180.62 25.1047C180.819 25.093 181.015 25.0084 181.208 24.8508C181.402 24.6909 181.601 24.4694 181.804 24.1862L183.153 22.3087L184.241 23.0906Z" fill="white"/>
<path d="M179.4 20.0379C178.97 20.6369 178.538 21.1375 178.106 21.5399C177.677 21.9446 177.241 22.237 176.799 22.417C176.36 22.5994 175.913 22.6579 175.457 22.5923C175.002 22.5267 174.537 22.3238 174.063 21.9835C173.468 21.5558 173.087 21.054 172.921 20.4782C172.757 19.899 172.788 19.2595 173.014 18.5598C173.242 17.8566 173.641 17.1075 174.212 16.3122C174.788 15.5102 175.363 14.8845 175.937 14.435C176.517 13.9846 177.106 13.7433 177.704 13.7109C178.302 13.6785 178.917 13.8896 179.55 14.3441C180.142 14.7694 180.52 15.2716 180.684 15.8508C180.853 16.429 180.825 17.0709 180.601 17.7765C180.379 18.4787 179.978 19.2325 179.4 20.0379ZM175.771 17.4314C175.365 17.9965 175.056 18.4904 174.845 18.9132C174.639 19.335 174.543 19.6941 174.556 19.9906C174.569 20.287 174.707 20.53 174.971 20.7196C175.232 20.9067 175.503 20.9607 175.786 20.8815C176.074 20.8014 176.385 20.5966 176.719 20.2671C177.056 19.9343 177.428 19.4836 177.837 18.9151C178.242 18.35 178.549 17.8548 178.757 17.4296C178.965 17.0044 179.061 16.6424 179.045 16.3435C179.034 16.0437 178.899 15.8002 178.638 15.6131C178.374 15.4235 178.099 15.3717 177.811 15.4577C177.526 15.5402 177.216 15.7479 176.879 16.0808C176.546 16.416 176.176 16.8662 175.771 17.4314Z" fill="white"/>
<path d="M170.826 19.5051L165.638 15.7794L166.422 14.6881L169.638 14.1428C170.29 14.0267 170.822 13.9216 171.234 13.8272C171.651 13.7319 171.987 13.6141 172.242 13.4738C172.5 13.336 172.716 13.1452 172.891 12.9016C173.103 12.6071 173.178 12.3276 173.116 12.063C173.061 11.7975 172.896 11.5663 172.622 11.3694C172.334 11.1628 172.008 11.0283 171.642 10.9659C171.277 10.9034 170.859 10.8883 170.39 10.9205L170.263 9.29795C170.607 9.26833 170.956 9.25736 171.309 9.26505C171.666 9.27517 172.037 9.34417 172.423 9.47205C172.814 9.59898 173.231 9.82163 173.674 10.14C174.161 10.49 174.516 10.8781 174.738 11.3044C174.964 11.7331 175.062 12.1678 175.033 12.6085C175.006 13.0458 174.855 13.4556 174.581 13.838C174.287 14.2475 173.937 14.5631 173.531 14.7848C173.126 15.0066 172.648 15.1715 172.099 15.2795C171.553 15.39 170.917 15.4898 170.191 15.579L168.592 15.7921L168.541 15.8632L171.774 18.1853L170.826 19.5051Z" fill="white"/>
<path d="M163.568 14.2921L162 13.1656L165.084 8.87128C165.169 8.75283 165.275 8.60854 165.402 8.43838C165.532 8.26484 165.666 8.08913 165.804 7.91126C165.944 7.73 166.072 7.56735 166.185 7.42331C166.116 7.44057 165.986 7.46203 165.793 7.48768C165.606 7.51239 165.433 7.5318 165.274 7.54592L163.929 7.61875L163.851 6.13142L167.609 5.94493L168.898 6.87089L163.568 14.2921Z" fill="white"/>
<path d="M87.9997 74.9999C96.5569 70.2887 109.549 67.0976 120 66.9315C120 66.9315 120 52.0202 120 42.4657C120 36.1187 120 27.4077 120 22.2744C120 19.9172 118.078 18.0091 115.724 18.1219C98.9831 18.9241 81.212 23.5108 67.0558 30.5952C64.9339 31.6571 64.2223 34.2959 65.4192 36.3447L75.62 53.8074L87.9997 74.9999Z" fill="url(#paint1_linear_615_481)"/>
<path d="M100.532 37.2292L101.094 39.1549C101.139 39.3079 101.178 39.4592 101.212 39.6087C101.246 39.7583 101.271 39.8843 101.288 39.9868L101.342 39.9712C101.397 39.767 101.484 39.5858 101.604 39.4277C101.726 39.2658 101.876 39.1282 102.054 39.0151C102.235 38.898 102.435 38.8079 102.654 38.7448C103.042 38.6333 103.387 38.6021 103.691 38.6511C103.995 38.7002 104.255 38.8383 104.471 39.0655C104.687 39.2897 104.856 39.6132 104.979 40.0362L105.922 43.2668L105.026 43.5248L104.118 40.4157C104.003 40.0198 103.829 39.7479 103.597 39.6001C103.364 39.4492 103.068 39.4257 102.707 39.5294C102.365 39.628 102.112 39.7756 101.948 39.9724C101.783 40.1662 101.696 40.4076 101.686 40.6966C101.676 40.9856 101.727 41.3221 101.839 41.7061L102.576 44.2302L101.67 44.4909L99.627 37.4898L100.532 37.2292Z" fill="white"/>
<path d="M98.6582 47.7575C97.9946 47.9486 97.4487 47.9741 97.0204 47.834C96.5952 47.693 96.3191 47.4051 96.1922 46.9701C96.102 46.6612 96.123 46.3706 96.2552 46.0984C96.3882 45.8293 96.6194 45.6066 96.9488 45.4305C96.7992 45.4085 96.6584 45.3499 96.5264 45.2546C96.3966 45.1554 96.3089 45.0278 96.2634 44.8718C96.21 44.6889 96.2151 44.5167 96.2786 44.3553C96.3443 44.1901 96.4624 44.0146 96.6328 43.829C96.3401 43.7962 96.0778 43.6783 95.846 43.4751C95.6133 43.269 95.4479 42.9979 95.3499 42.662C95.2457 42.305 95.2319 41.9789 95.3085 41.6837C95.3881 41.3877 95.5513 41.1326 95.7981 40.9185C96.0448 40.7044 96.3724 40.5385 96.7807 40.421C96.8708 40.395 96.9652 40.3727 97.0639 40.3541C97.1618 40.3324 97.2564 40.3165 97.3479 40.3065C97.4393 40.2964 97.5143 40.2911 97.5727 40.2905L99.2843 39.7978L99.4405 40.3332L98.5971 40.7223C98.7175 40.8112 98.8274 40.9259 98.927 41.0663C99.0266 41.2067 99.1035 41.3699 99.1578 41.5559C99.3048 42.0598 99.2486 42.5085 98.9891 42.9019C98.7317 43.2914 98.2997 43.5735 97.6931 43.7481C97.5511 43.7857 97.405 43.8148 97.2547 43.8353C97.1475 43.9475 97.074 44.058 97.0342 44.167C96.9935 44.273 96.9898 44.383 97.0231 44.497C97.0485 44.584 97.0976 44.6463 97.1704 44.6839C97.2462 44.7206 97.3436 44.7364 97.4626 44.7314C97.5807 44.7234 97.7193 44.6965 97.8785 44.6507L98.7433 44.4017C99.2838 44.2461 99.7314 44.2408 100.086 44.3858C100.441 44.5308 100.682 44.8222 100.81 45.2602C100.972 45.8151 100.869 46.3083 100.5 46.7396C100.131 47.171 99.517 47.5103 98.6582 47.7575ZM98.4967 47.087C98.8841 46.9755 99.1955 46.8436 99.431 46.6913C99.6694 46.5381 99.8337 46.3704 99.9238 46.1884C100.014 46.0064 100.03 45.8164 99.9723 45.6184C99.9198 45.4385 99.836 45.313 99.7209 45.2421C99.6097 45.1733 99.4652 45.1466 99.2874 45.1621C99.1096 45.1775 98.8976 45.2206 98.6514 45.2915L97.8316 45.5275C97.6214 45.588 97.4479 45.6738 97.311 45.7847C97.1741 45.8956 97.0801 46.0251 97.0289 46.1732C96.9786 46.3243 96.9801 46.4913 97.0335 46.6742C97.1062 46.9232 97.2684 47.083 97.5201 47.1536C97.7748 47.2233 98.1003 47.2012 98.4967 47.087ZM97.5538 43.12C97.8871 43.024 98.1109 42.8653 98.2253 42.6438C98.3388 42.4193 98.3479 42.1435 98.2524 41.8166C98.15 41.4656 97.9889 41.2258 97.7691 41.0973C97.5493 40.9687 97.2742 40.952 96.9439 41.0471C96.6226 41.1396 96.4031 41.302 96.2854 41.5342C96.1697 41.7626 96.1627 42.0508 96.2642 42.3987C96.3579 42.7197 96.5161 42.944 96.7389 43.0717C96.9609 43.1964 97.2325 43.2125 97.5538 43.12Z" fill="white"/>
<path d="M93.6156 41.4349L95.0626 46.3932L94.1573 46.6538L92.7102 41.6955L93.6156 41.4349ZM92.6221 39.687C92.7662 39.6455 92.9016 39.652 93.0282 39.7066C93.1578 39.7604 93.2502 39.8817 93.3053 40.0707C93.3605 40.2597 93.3482 40.4128 93.2685 40.53C93.1909 40.6434 93.0801 40.7208 92.9359 40.7623C92.7888 40.8047 92.6519 40.7986 92.5253 40.744C92.4008 40.6855 92.311 40.5618 92.2559 40.3728C92.2007 40.1839 92.2104 40.0331 92.285 39.9206C92.3626 39.8072 92.475 39.7293 92.6221 39.687Z" fill="white"/>
<path d="M92.4993 47.1311L91.576 47.3969L90.6896 44.3598L87.4421 45.2947L88.3285 48.3318L87.4051 48.5977L85.4854 42.0195L86.4087 41.7537L87.2097 44.4983L90.4572 43.5634L89.6562 40.8188L90.5796 40.5529L92.4993 47.1311Z" fill="white"/>
<path d="M138.412 2.89374C138.778 2.89899 139.08 2.99561 139.318 3.1836C139.555 3.36866 139.672 3.61645 139.667 3.92697C139.664 4.13202 139.602 4.30693 139.48 4.45167C139.36 4.59647 139.17 4.70947 138.908 4.79069L138.907 4.84341C139.202 4.9121 139.419 5.0324 139.557 5.20432C139.698 5.37628 139.767 5.56626 139.764 5.77424C139.759 6.1287 139.626 6.40661 139.365 6.60797C139.105 6.80641 138.702 6.90172 138.157 6.89391C137.934 6.89072 137.727 6.86284 137.534 6.81027C137.341 6.7577 137.151 6.67879 136.962 6.57353L136.974 5.73426C137.165 5.85421 137.357 5.95219 137.55 6.02819C137.742 6.10419 137.945 6.14373 138.159 6.14679C138.376 6.1499 138.534 6.11262 138.635 6.03495C138.739 5.95733 138.792 5.84235 138.794 5.69002C138.796 5.56992 138.746 5.4608 138.645 5.36266C138.546 5.26456 138.355 5.21348 138.071 5.20941L137.579 5.20235L137.589 4.5037L137.993 4.50949C138.298 4.51385 138.495 4.46687 138.584 4.36853C138.674 4.27019 138.719 4.16096 138.721 4.04086C138.722 3.92954 138.687 3.83674 138.615 3.76246C138.543 3.68817 138.432 3.64996 138.282 3.64782C138.145 3.64585 138.014 3.67181 137.89 3.72571C137.766 3.7796 137.62 3.86394 137.451 3.97872L137.017 3.3528C137.2 3.21772 137.402 3.10635 137.623 3.01869C137.847 2.93106 138.11 2.88942 138.412 2.89374Z" fill="white"/>
<path d="M134.349 5.50765C134.905 5.51563 135.323 5.66519 135.603 5.95634C135.886 6.2446 136.023 6.70365 136.014 7.33346L135.969 10.5367L134.624 10.5175L134.665 7.64815C134.67 7.29662 134.614 7.03065 134.496 6.85024C134.379 6.66983 134.194 6.57781 133.942 6.5742C133.588 6.56913 133.334 6.69294 133.181 6.94566C133.028 7.19545 132.948 7.55616 132.941 8.02779L132.906 10.4929L131.566 10.4737L131.607 7.60433C131.61 7.36998 131.587 7.17333 131.536 7.01439C131.486 6.85545 131.407 6.73565 131.3 6.65501C131.192 6.57436 131.054 6.53282 130.884 6.53039C130.635 6.52682 130.438 6.58699 130.292 6.71089C130.15 6.83191 130.046 7.01355 129.981 7.25581C129.919 7.49518 129.886 7.78916 129.881 8.13776L129.848 10.449L128.507 10.4298L128.578 5.51726L129.602 5.53193L129.773 6.16287L129.847 6.16394C129.949 5.99546 130.076 5.85956 130.227 5.75625C130.381 5.65297 130.549 5.57773 130.731 5.53054C130.913 5.48334 131.098 5.46108 131.286 5.46377C131.646 5.46893 131.95 5.53189 132.197 5.65263C132.448 5.77341 132.638 5.95781 132.77 6.2058L132.888 6.2075C133.038 5.95768 133.247 5.77755 133.516 5.66712C133.787 5.55674 134.064 5.50358 134.349 5.50765Z" fill="white"/>
<path d="M127.852 3.99499L125.365 10.3848L124.148 10.3674L126.635 3.97755L127.852 3.99499Z" fill="white"/>
<path d="M121.108 12.4862C120.422 12.4763 119.899 12.3487 119.54 12.1033C119.183 11.8609 119.007 11.5243 119.014 11.0937C119.018 10.7978 119.114 10.5516 119.301 10.3551C119.488 10.1585 119.761 10.0203 120.12 9.94049C119.983 9.87993 119.864 9.78301 119.764 9.64971C119.663 9.51349 119.614 9.37068 119.616 9.22128C119.619 9.0338 119.675 8.87932 119.785 8.75784C119.896 8.63343 120.054 8.51264 120.261 8.39548C120.005 8.28047 119.802 8.09883 119.653 7.85058C119.507 7.60237 119.437 7.31129 119.442 6.97734C119.447 6.61996 119.529 6.31788 119.688 6.07111C119.849 5.82145 120.081 5.63285 120.381 5.5053C120.685 5.3778 121.052 5.31714 121.483 5.32331C121.573 5.32461 121.679 5.33198 121.799 5.34542C121.919 5.35886 122.028 5.37361 122.128 5.38969C122.23 5.4058 122.299 5.41851 122.334 5.4278L124.047 5.45235L124.038 6.13344L123.266 6.32015C123.335 6.42955 123.386 6.54601 123.419 6.66955C123.453 6.79309 123.468 6.9237 123.466 7.06138C123.459 7.58867 123.268 7.9976 122.895 8.28818C122.525 8.57587 122.013 8.71504 121.359 8.70568C121.204 8.69467 121.058 8.68085 120.921 8.66423C120.852 8.716 120.8 8.77092 120.764 8.829C120.728 8.88709 120.71 8.94835 120.709 9.0128C120.708 9.07725 120.734 9.13182 120.786 9.17651C120.841 9.21832 120.922 9.25172 121.03 9.27671C121.141 9.29881 121.279 9.31104 121.443 9.31339L122.278 9.32535C122.817 9.33307 123.225 9.45466 123.503 9.69011C123.784 9.9256 123.921 10.2674 123.915 10.7156C123.907 11.2898 123.66 11.7316 123.175 12.0411C122.693 12.3507 122.004 12.499 121.108 12.4862ZM121.177 11.6125C121.497 11.6171 121.771 11.5903 122 11.532C122.232 11.4768 122.411 11.3944 122.536 11.2848C122.66 11.1782 122.724 11.0487 122.726 10.8964C122.727 10.7733 122.692 10.6747 122.62 10.6004C122.551 10.5291 122.443 10.4777 122.297 10.4463C122.154 10.415 121.97 10.3977 121.744 10.3945L121.05 10.3845C120.886 10.3822 120.737 10.4064 120.605 10.4573C120.475 10.5081 120.372 10.5799 120.294 10.6726C120.217 10.7681 120.177 10.8789 120.175 11.0049C120.172 11.1894 120.258 11.3357 120.432 11.4437C120.61 11.5517 120.858 11.608 121.177 11.6125ZM121.446 7.88945C121.698 7.89306 121.883 7.81808 122.003 7.6645C122.122 7.51092 122.184 7.30084 122.188 7.03427C122.192 6.7384 122.134 6.51635 122.013 6.36812C121.895 6.217 121.714 6.1397 121.471 6.13621C121.225 6.13269 121.039 6.20474 120.914 6.35238C120.789 6.49709 120.724 6.71737 120.72 7.01324C120.716 7.27982 120.773 7.49159 120.891 7.64857C121.012 7.80559 121.197 7.88589 121.446 7.88945Z" fill="white"/>
<path d="M118.366 5.37094L118.295 10.2835L117.28 10.269L117.101 9.60716L117.035 9.60622C116.953 9.76913 116.859 9.90549 116.752 10.0153C116.645 10.1251 116.524 10.2069 116.388 10.2606C116.253 10.3143 116.099 10.3399 115.926 10.3375C115.747 10.3349 115.585 10.2989 115.439 10.2294C115.297 10.1571 115.18 10.0572 115.088 9.92992L115.061 9.92954C115.069 9.99118 115.075 10.0865 115.079 10.2155C115.083 10.3415 115.086 10.4749 115.087 10.6155C115.09 10.7591 115.092 10.8851 115.09 10.9935L115.07 12.3996L113.73 12.3804L113.831 5.30597L115.171 5.32517L115.13 8.19451C115.125 8.54603 115.186 8.81207 115.312 8.9926C115.438 9.17314 115.639 9.26539 115.915 9.26933C116.181 9.27315 116.392 9.21463 116.546 9.09378C116.703 8.97004 116.815 8.78853 116.883 8.54925C116.951 8.30703 116.987 8.01162 116.992 7.66303L117.026 5.35174L118.366 5.37094Z" fill="white"/>
<path d="M112.649 5.63381C112.638 6.37117 112.571 7.02854 112.446 7.60593C112.325 8.18338 112.134 8.67232 111.875 9.07277C111.619 9.47328 111.285 9.77684 110.874 9.98346C110.463 10.1901 109.965 10.2892 109.382 10.2808C108.649 10.2703 108.05 10.0763 107.584 9.69882C107.119 9.31714 106.779 8.77476 106.564 8.07167C106.349 7.36441 106.249 6.52129 106.263 5.5423C106.277 4.55499 106.391 3.71286 106.605 3.01592C106.823 2.31487 107.169 1.78022 107.641 1.41197C108.112 1.04373 108.738 0.865188 109.517 0.87635C110.246 0.886796 110.843 1.08286 111.309 1.46453C111.778 1.8421 112.123 2.38454 112.342 3.09186C112.561 3.79501 112.663 4.64233 112.649 5.63381ZM108.181 5.56979C108.171 6.26549 108.2 6.84717 108.268 7.31483C108.341 7.77837 108.467 8.1281 108.647 8.36402C108.827 8.59994 109.08 8.72022 109.405 8.72488C109.725 8.72947 109.979 8.61852 110.166 8.39203C110.356 8.16142 110.495 7.81548 110.58 7.3542C110.666 6.88876 110.714 6.3061 110.724 5.60623C110.734 4.91053 110.703 4.32882 110.63 3.86111C110.558 3.39339 110.43 3.04155 110.246 2.80557C110.066 2.56549 109.815 2.44315 109.495 2.43856C109.17 2.4339 108.914 2.54899 108.727 2.78382C108.54 3.01448 108.404 3.36253 108.318 3.82798C108.237 4.29348 108.191 4.87409 108.181 5.56979Z" fill="white"/>
<path d="M105.346 4.86041C105.339 5.38531 105.292 5.90548 105.205 6.42091C105.123 6.93641 104.983 7.42191 104.784 7.87741C104.586 8.32875 104.312 8.72899 103.961 9.07813C103.61 9.42311 103.167 9.69177 102.631 9.88409C102.095 10.0764 101.447 10.1671 100.689 10.1563C100.51 10.1537 100.3 10.1424 100.058 10.1222C99.8171 10.1063 99.6174 10.0826 99.4595 10.0512L99.4817 8.50144C99.6477 8.54549 99.8243 8.58136 100.011 8.60904C100.199 8.63255 100.388 8.64568 100.58 8.64843C101.342 8.65935 101.931 8.54696 102.347 8.31124C102.767 8.07559 103.063 7.74442 103.236 7.31772C103.413 6.89108 103.518 6.39674 103.551 5.8347L103.476 5.83363C103.353 6.03186 103.206 6.21102 103.037 6.3711C102.873 6.52708 102.662 6.65115 102.407 6.74333C102.152 6.83133 101.828 6.87253 101.436 6.86692C100.916 6.85946 100.463 6.74048 100.079 6.50997C99.699 6.27535 99.4059 5.94198 99.1996 5.50985C98.9975 5.07361 98.9008 4.5493 98.9096 3.93692C98.9191 3.27454 99.0522 2.70977 99.3089 2.24261C99.5698 1.77134 99.9354 1.41199 100.406 1.16455C100.876 0.917118 101.428 0.797937 102.061 0.80701C102.527 0.813695 102.961 0.901167 103.363 1.06943C103.765 1.23352 104.116 1.4823 104.415 1.81576C104.719 2.14928 104.952 2.5693 105.116 3.07582C105.279 3.58234 105.356 4.1772 105.346 4.86041ZM102.076 2.35726C101.701 2.35188 101.393 2.47664 101.152 2.73152C100.911 2.98641 100.786 3.38879 100.778 3.93869C100.772 4.38028 100.869 4.73167 101.07 4.99288C101.27 5.25409 101.578 5.38768 101.995 5.39365C102.282 5.39777 102.533 5.33886 102.748 5.21693C102.962 5.09083 103.129 4.9328 103.248 4.74284C103.372 4.54878 103.435 4.34968 103.438 4.14555C103.441 3.93309 103.415 3.7223 103.359 3.51317C103.304 3.30404 103.219 3.11324 103.105 2.94076C102.991 2.76829 102.847 2.62873 102.674 2.52207C102.504 2.41548 102.305 2.36054 102.076 2.35726Z" fill="white"/>
<path d="M65.7192 96.4257C70.9104 87.8815 80.2337 79.821 88.879 74.6905L76.4994 53.5L66.259 35.9712C65.0775 33.9488 62.4777 33.2601 60.4977 34.5114C46.7878 43.1757 33.2752 55.4699 24.3157 68.8457C22.9932 70.82 23.6951 73.4675 25.759 74.6453L43.4406 84.7348L64.9994 97.5L65.7192 96.4257Z" fill="#33CE19"/>
<path d="M67.5403 55.2617L66.8917 55.9514L61.5449 50.9915L62.1935 50.3017L67.5403 55.2617Z" fill="white"/>
<path d="M60.6574 54.9118C61.094 54.4474 61.5247 54.1969 61.9494 54.1604C62.3717 54.1217 62.8063 54.3096 63.253 54.724L65.813 57.0988L65.3506 57.5905L64.6756 57.2136L64.6499 57.241C64.6889 57.4732 64.7007 57.6887 64.6853 57.8875C64.6699 58.0864 64.6145 58.2822 64.5191 58.4749C64.4257 58.6654 64.2785 58.8676 64.0773 59.0816C63.8632 59.3092 63.6315 59.4736 63.3821 59.5747C63.1326 59.6757 62.8773 59.701 62.616 59.6504C62.3546 59.5954 62.0956 59.4489 61.8391 59.2109C61.4542 58.8539 61.3002 58.4361 61.377 57.9576C61.4538 57.479 61.7635 56.933 62.3059 56.3196L62.8885 55.6453L62.6754 55.4477C62.3799 55.1735 62.1094 55.0462 61.8638 55.0656C61.6204 55.0827 61.3885 55.2085 61.168 55.443C60.986 55.6365 60.8402 55.8486 60.7305 56.0793C60.6186 56.3078 60.5245 56.5402 60.4482 56.7764L59.7411 56.5295C59.8164 56.2669 59.9291 55.9943 60.0791 55.7115C60.2313 55.4265 60.4241 55.1599 60.6574 54.9118ZM63.3356 56.0729L62.8653 56.6211C62.4725 57.0708 62.2579 57.445 62.2215 57.7437C62.185 58.0379 62.2824 58.2924 62.5138 58.507C62.7154 58.6941 62.9198 58.7708 63.1272 58.7373C63.3346 58.7038 63.5314 58.588 63.7176 58.3899C64.0044 58.0849 64.154 57.7548 64.1662 57.3996C64.1783 57.04 64.0149 56.703 63.6758 56.3885L63.3356 56.0729Z" fill="white"/>
<path d="M57.0355 58.757C57.4272 58.3404 57.8326 58.1283 58.2515 58.1206C58.6704 58.1085 59.1203 58.3255 59.6014 58.7718L62.0789 61.0701L61.44 61.7496L59.0484 59.531C58.7506 59.2548 58.4694 59.109 58.2049 59.0938C57.9426 59.0764 57.698 59.1883 57.4711 59.4296C57.15 59.7711 57.022 60.1147 57.087 60.4607C57.1519 60.8022 57.3848 61.1589 57.7857 61.5308L59.8475 63.4434L59.2054 64.1263L56.8137 61.9077C56.6144 61.7228 56.4238 61.5971 56.2418 61.5306C56.0576 61.462 55.882 61.4504 55.7149 61.4957C55.5479 61.5411 55.3873 61.6457 55.2332 61.8096C55.0127 62.0441 54.8877 62.2797 54.8581 62.5165C54.8283 62.7489 54.8831 62.9894 55.0225 63.238C55.164 63.4844 55.3791 63.7414 55.6677 64.0092L57.6161 65.8166L56.9707 66.5029L53.184 62.9901L53.6945 62.4472L54.3099 62.8327L54.3452 62.7951C54.2853 62.5989 54.2653 62.4035 54.2852 62.2089C54.3074 62.012 54.363 61.8228 54.4522 61.6413C54.5391 61.4577 54.6564 61.2873 54.8041 61.1302C55.0695 60.848 55.3447 60.6579 55.6297 60.56C55.9148 60.4621 56.2055 60.4654 56.5018 60.5699L56.5436 60.5255C56.444 60.2072 56.4433 59.8955 56.5416 59.5902C56.6397 59.2806 56.8043 59.0029 57.0355 58.757Z" fill="white"/>
<path d="M52.0552 64.0532C52.1194 63.9849 52.1935 63.9152 52.2776 63.844C52.3594 63.7707 52.4328 63.7109 52.4978 63.6646L53.0729 64.3324C53.0078 64.3743 52.9364 64.4274 52.8588 64.4918C52.7832 64.5539 52.7166 64.6156 52.6588 64.6771C52.5218 64.8228 52.4187 64.9872 52.3495 65.1702C52.2804 65.3532 52.2514 65.5437 52.2626 65.7416C52.2715 65.9374 52.3248 66.1339 52.4225 66.3311C52.5179 66.5261 52.6618 66.7129 52.8542 66.8914L54.8575 68.7498L54.209 69.4396L50.4222 65.9268L50.9424 65.3736L51.7032 65.926L51.7321 65.8953C51.6675 65.6904 51.6292 65.4801 51.6174 65.2646C51.6078 65.0468 51.6372 64.8354 51.7056 64.6303C51.7738 64.4209 51.8904 64.2285 52.0552 64.0532Z" fill="white"/>
<path d="M51.4132 68.6296C51.7247 68.9186 51.9645 69.2178 52.1326 69.5271C52.3005 69.8321 52.3965 70.1406 52.4204 70.4526C52.4442 70.7603 52.3992 71.0637 52.2852 71.3628C52.1689 71.6599 51.9823 71.945 51.7254 72.2181C51.4857 72.4731 51.2217 72.6672 50.9334 72.8004C50.645 72.9293 50.3444 72.9935 50.0317 72.9932C49.7166 72.9907 49.398 72.919 49.076 72.778C48.7517 72.6348 48.4338 72.4187 48.1222 72.1297C47.7076 71.7451 47.4211 71.3472 47.2629 70.9362C47.1024 70.523 47.0696 70.1154 47.1646 69.7134C47.2594 69.3069 47.478 68.9216 47.8205 68.5573C48.1459 68.2113 48.5084 67.9786 48.908 67.8592C49.3076 67.7398 49.7214 67.7422 50.1493 67.8663C50.5773 67.9905 50.9985 68.245 51.4132 68.6296ZM48.7836 71.4263C49.0746 71.6962 49.3596 71.8924 49.6389 72.0151C49.918 72.1333 50.1854 72.1683 50.441 72.1199C50.6988 72.0692 50.9423 71.9221 51.1713 71.6785C51.396 71.4395 51.5251 71.1905 51.5584 70.9316C51.5917 70.6726 51.5383 70.4101 51.3984 70.1438C51.2561 69.8755 51.0395 69.6063 50.7486 69.3365C50.4599 69.0687 50.1783 68.8756 49.9036 68.7572C49.6289 68.6388 49.3638 68.606 49.1083 68.6588C48.855 68.7093 48.6127 68.8575 48.3815 69.1033C48.0433 69.463 47.9164 69.8397 48.0009 70.2334C48.0852 70.6228 48.3461 71.0204 48.7836 71.4263Z" fill="white"/>
<path d="M49.0435 74.934L48.2536 75.774L41.7065 74.5401L41.6808 74.5674C41.8109 74.6754 41.9547 74.7938 42.1122 74.9229C42.2674 75.0498 42.4284 75.1864 42.5954 75.3327C42.7621 75.4746 42.9291 75.621 43.0961 75.7717L45.852 78.3282L45.2484 78.9702L40.2246 74.3098L41.008 73.4766L47.5249 74.7016L47.5474 74.6777C47.4423 74.5888 47.3121 74.4786 47.1568 74.3473C47.0014 74.216 46.8381 74.0773 46.6667 73.9311C46.4952 73.7805 46.335 73.6362 46.1861 73.498L43.4096 70.9224L44.0197 70.2736L49.0435 74.934Z" fill="white"/>
<path d="M69.7776 11.3754C70.0948 11.1923 70.4035 11.1206 70.7038 11.1603C71.0027 11.1975 71.2298 11.3506 71.385 11.6195C71.4876 11.7971 71.5235 11.9794 71.4927 12.1663C71.4645 12.3517 71.3587 12.5464 71.1753 12.7504L71.2017 12.7961C71.4902 12.7039 71.7378 12.6963 71.9446 12.7731C72.1538 12.8485 72.3105 12.9763 72.4145 13.1564C72.5917 13.4634 72.62 13.7701 72.4993 14.0767C72.3771 14.3806 72.08 14.6688 71.6081 14.9413C71.4153 15.0526 71.2227 15.1351 71.0303 15.1886C70.838 15.2422 70.6337 15.2722 70.4175 15.2786L69.9978 14.5517C70.2239 14.5565 70.439 14.5423 70.643 14.509C70.8471 14.4758 71.0417 14.4057 71.227 14.2987C71.4147 14.1903 71.5319 14.077 71.5787 13.9587C71.6279 13.8389 71.6144 13.713 71.5383 13.5811C71.4782 13.4771 71.3796 13.4088 71.2425 13.3764C71.1079 13.3425 70.9175 13.3966 70.6714 13.5387L70.2452 13.7848L69.8958 13.1796L70.2459 12.9775C70.5098 12.8251 70.6549 12.6839 70.6812 12.5536C70.7075 12.4234 70.6906 12.3063 70.6305 12.2023C70.5749 12.1059 70.497 12.0443 70.397 12.0175C70.2969 11.9907 70.1822 12.0146 70.0528 12.0893C69.9335 12.1582 69.8346 12.2475 69.7558 12.3572C69.6771 12.4669 69.5947 12.6143 69.5087 12.7993L68.8145 12.4846C68.903 12.2745 69.0196 12.0752 69.1645 11.8867C69.3119 11.6967 69.5163 11.5263 69.7776 11.3754Z" fill="white"/>
<path d="M67.6268 15.702C68.1089 15.4237 68.5447 15.3378 68.9344 15.4443C69.3251 15.5469 69.678 15.8709 69.9929 16.4164L71.5948 19.1908L70.4302 19.8632L68.9954 17.378C68.8196 17.0735 68.635 16.874 68.4416 16.7793C68.2482 16.6845 68.0425 16.7002 67.8243 16.8262C67.5173 17.0034 67.3628 17.2398 67.3608 17.5352C67.3574 17.8281 67.4736 18.1788 67.7095 18.5873L68.9422 20.7223L67.7814 21.3925L66.3466 18.9073C66.2294 18.7044 66.1084 18.5476 65.9836 18.4369C65.8589 18.3263 65.7298 18.2638 65.5963 18.2495C65.4629 18.2352 65.3226 18.2705 65.1755 18.3555C64.9598 18.48 64.8213 18.6327 64.76 18.8136C64.6997 18.9905 64.7037 19.1996 64.772 19.4409C64.8414 19.6783 64.9633 19.9479 65.1376 20.2498L66.2934 22.2516L65.1326 22.9218L62.676 18.667L63.5628 18.155L64.033 18.6092L64.0977 18.5718C64.099 18.3749 64.138 18.1934 64.2147 18.0273C64.2939 17.8598 64.3996 17.7091 64.532 17.5751C64.6645 17.4411 64.8118 17.3273 64.9742 17.2335C65.2863 17.0534 65.5795 16.9518 65.8537 16.9287C66.1305 16.9042 66.3888 16.9649 66.6285 17.1106L66.7313 17.0513C66.7322 16.7598 66.8195 16.498 66.9932 16.2657C67.1695 16.032 67.3807 15.8441 67.6268 15.702Z" fill="white"/>
<path d="M61.2738 17.7314L62.4122 24.4929L61.358 25.1016L60.2196 18.3401L61.2738 17.7314Z" fill="white"/>
<path d="M59.8314 28.4792C59.2377 28.822 58.7235 28.9802 58.2888 28.9538C57.858 28.9285 57.535 28.7293 57.3197 28.3564C57.1717 28.1001 57.1278 27.8396 57.1881 27.5748C57.2483 27.3099 57.4119 27.0514 57.679 26.7991C57.5305 26.8172 57.3788 26.7948 57.2241 26.7319C57.0679 26.6665 56.9525 26.569 56.8778 26.4397C56.784 26.2773 56.7533 26.1157 56.7857 25.9549C56.8165 25.7916 56.8908 25.6067 57.0083 25.4001C56.7294 25.4326 56.4624 25.3804 56.2074 25.2435C55.955 25.1051 55.7452 24.8912 55.5783 24.602C55.3995 24.2925 55.3152 23.9911 55.3251 23.6978C55.3361 23.4005 55.4381 23.12 55.631 22.8564C55.8264 22.5914 56.1105 22.3512 56.4835 22.1358C56.5622 22.0904 56.6564 22.0428 56.7663 21.9928C56.8762 21.9429 56.9779 21.8994 57.0715 21.8623C57.1676 21.8237 57.2331 21.7994 57.268 21.7895L58.7522 20.9325L59.0928 21.5224L58.5257 22.0782C58.6408 22.1369 58.7443 22.2108 58.8363 22.2997C58.9282 22.3887 59.0086 22.4928 59.0775 22.6121C59.3412 23.0688 59.3871 23.5175 59.2154 23.9584C59.0448 24.3952 58.6765 24.7769 58.1108 25.1036C57.9719 25.1736 57.8392 25.2367 57.7126 25.2929C57.6806 25.3723 57.664 25.4461 57.6629 25.5144C57.6618 25.5827 57.6773 25.6448 57.7095 25.7006C57.7417 25.7564 57.7917 25.7902 57.8593 25.8019C57.928 25.8096 58.0152 25.7965 58.1208 25.7626C58.2275 25.7247 58.3518 25.6647 58.4939 25.5827L59.217 25.1652C59.6838 24.8956 60.0969 24.7908 60.4562 24.8506C60.818 24.9089 61.111 25.1322 61.3351 25.5204C61.6222 26.0176 61.6369 26.5234 61.379 27.0377C61.1236 27.5504 60.6078 28.031 59.8314 28.4792ZM59.4436 27.6933C59.7202 27.5336 59.942 27.37 60.1091 27.2025C60.2803 27.036 60.3913 26.8738 60.4422 26.7159C60.4945 26.5605 60.4826 26.4168 60.4065 26.2849C60.3449 26.1783 60.2641 26.1116 60.1641 26.0848C60.068 26.0591 59.9493 26.0702 59.8078 26.118C59.6688 26.1645 59.5016 26.2441 59.3063 26.3568L58.705 26.704C58.5629 26.7861 58.4479 26.8829 58.3601 26.9945C58.2749 27.1046 58.2227 27.2193 58.2036 27.3386C58.186 27.4604 58.2087 27.5758 58.2716 27.6849C58.3639 27.8448 58.5126 27.9264 58.7175 27.9299C58.925 27.9318 59.1671 27.853 59.4436 27.6933ZM57.7667 24.3584C57.9849 24.2324 58.106 24.0729 58.1298 23.8798C58.1537 23.6867 58.0989 23.4748 57.9656 23.2439C57.8177 22.9876 57.6538 22.8268 57.474 22.7615C57.2953 22.6922 57.1006 22.7183 56.89 22.8399C56.6769 22.9629 56.5544 23.1199 56.5226 23.3108C56.4892 23.4992 56.5466 23.7215 56.6945 23.9778C56.8278 24.2087 56.9853 24.3613 57.167 24.4357C57.3512 24.5087 57.5511 24.4829 57.7667 24.3584Z" fill="white"/>
<path d="M53.8318 23.7736L56.2884 28.0284L55.4093 28.536L54.9161 28.0596L54.859 28.0926C54.8725 28.2742 54.8614 28.4396 54.8258 28.5888C54.7901 28.7379 54.7278 28.8703 54.6389 28.9859C54.5501 29.1015 54.4308 29.2025 54.2811 29.2889C54.1263 29.3783 53.9687 29.4304 53.8081 29.4453C53.6486 29.4562 53.4968 29.4305 53.3526 29.3683L53.3298 29.3815C53.3682 29.4303 53.4221 29.5091 53.4916 29.6178C53.5597 29.724 53.6302 29.8373 53.703 29.9576C53.7799 30.079 53.8454 30.1866 53.8996 30.2805L54.6027 31.4983L53.442 32.1685L49.9043 26.0413L51.065 25.3711L52.4999 27.8562C52.6757 28.1607 52.8641 28.3581 53.0651 28.4484C53.2661 28.5387 53.4858 28.515 53.7243 28.3773C53.9552 28.244 54.1058 28.086 54.1762 27.9032C54.2477 27.7165 54.2513 27.503 54.187 27.2627C54.1212 27.0199 54.0012 26.7475 53.8269 26.4456L52.6711 24.4438L53.8318 23.7736Z" fill="white"/>
<path d="M49.0563 26.9289C49.425 27.5675 49.7036 28.1668 49.8922 28.7266C50.0843 29.2844 50.1714 29.8018 50.1534 30.2789C50.139 30.7538 50.0081 31.1854 49.7607 31.5736C49.5134 31.9617 49.1371 32.3017 48.632 32.5933C47.997 32.96 47.3829 33.1004 46.7898 33.0147C46.1946 32.9254 45.6246 32.6339 45.0797 32.1402C44.5328 31.6429 44.0146 30.9703 43.5251 30.1224C43.0313 29.2673 42.6979 28.4856 42.5247 27.7774C42.353 27.0635 42.3755 26.4275 42.5921 25.8694C42.8088 25.3114 43.2544 24.8376 43.9291 24.448C44.5606 24.0835 45.1739 23.9458 45.7691 24.0352C46.3658 24.1188 46.9394 24.4082 47.4899 24.9034C48.0384 25.395 48.5605 26.0701 49.0563 26.9289ZM45.1866 29.1631C45.5345 29.7657 45.8576 30.2503 46.1558 30.6169C46.4556 30.9778 46.7432 31.2134 47.0186 31.3238C47.2941 31.4342 47.5725 31.4082 47.8539 31.2457C48.1317 31.0853 48.2927 30.86 48.3369 30.5699C48.3826 30.2741 48.3241 29.9062 48.1615 29.4661C47.9967 29.0224 47.7393 28.4975 47.3893 27.8913C47.0414 27.2888 46.7166 26.8052 46.4147 26.4407C46.1128 26.0762 45.8224 25.8398 45.5433 25.7315C45.2658 25.6175 44.9882 25.6407 44.7103 25.8011C44.4289 25.9636 44.2682 26.1935 44.2282 26.4908C44.1861 26.7845 44.2474 27.1532 44.4122 27.5969C44.5806 28.0385 44.8387 28.5606 45.1866 29.1631Z" fill="white"/>
<path d="M37.5151 34.3864C37.2526 33.9317 37.0257 33.4638 36.8344 32.9825C36.6447 32.4955 36.5192 32.0075 36.4581 31.5183C36.3949 31.0256 36.4256 30.5413 36.5501 30.0653C36.6725 29.5857 36.9146 29.126 37.2764 28.6861C37.6362 28.2427 38.1444 27.8314 38.8011 27.4522C38.9562 27.3627 39.1408 27.2657 39.3548 27.1614C39.5703 27.0514 39.755 26.9713 39.9087 26.921L40.6806 28.2578C40.5175 28.3086 40.3478 28.3729 40.1714 28.4507C39.9965 28.5228 39.8279 28.6057 39.6655 28.6995C39.0089 29.0786 38.5605 29.477 38.3206 29.8946C38.0842 30.3101 37.9993 30.7464 38.0659 31.2034C38.1341 31.6548 38.2972 32.1331 38.5553 32.6384L38.6256 32.5978C38.6246 32.3626 38.6603 32.1328 38.7326 31.9082C38.8086 31.6815 38.9337 31.4649 39.108 31.2584C39.2802 31.0484 39.5142 30.8579 39.8101 30.6871C40.2719 30.4205 40.7297 30.2885 41.1834 30.2911C41.6351 30.2901 42.0602 30.4223 42.4588 30.6877C42.8574 30.9531 43.2108 31.3528 43.5191 31.8868C43.8483 32.4568 44.0216 33.0111 44.039 33.5495C44.0564 34.0879 43.9265 34.5838 43.6495 35.0372C43.374 35.4849 42.9602 35.8682 42.4082 36.1869C42.0041 36.4202 41.5874 36.5694 41.1583 36.6343C40.7271 36.6957 40.2975 36.6599 39.8695 36.5269C39.4415 36.3939 39.0286 36.1537 38.6307 35.8061C38.2307 35.4549 37.8588 34.9817 37.5151 34.3864ZM41.6039 34.8688C41.9322 34.6793 42.1346 34.4133 42.2111 34.0708C42.2876 33.7284 42.1884 33.319 41.9134 32.8427C41.6905 32.4567 41.4253 32.2057 41.1178 32.0897C40.8119 31.9681 40.4785 32.0115 40.1177 32.2198C39.8723 32.3614 39.6881 32.5424 39.5651 32.7625C39.4436 32.977 39.3813 33.1982 39.3782 33.4261C39.373 33.6504 39.4214 33.851 39.5235 34.0278C39.6297 34.2118 39.7602 34.3794 39.9148 34.5307C40.0695 34.6819 40.2401 34.8023 40.4265 34.8919C40.613 34.9815 40.8062 35.0287 41.0062 35.0335C41.2098 35.0362 41.409 34.9813 41.6039 34.8688Z" fill="white"/>
<path d="M56.5107 126C56.6788 115.672 60.7333 104.957 65.5002 96.5L43.0002 83.9999L25.1894 73.6448C23.1555 72.4623 20.5403 73.1565 19.4598 75.2463C12.3389 89.0196 7.91167 105.387 7.12298 121.722C7.00929 124.077 8.92265 126 11.2802 126H31.7555H56.5107Z" fill="url(#paint2_linear_615_481)"/>
<path d="M47.3147 92.168L47.0587 93.0795L40.0303 91.1326L40.2862 90.221L47.3147 92.168Z" fill="white"/>
<path d="M41.0548 95.0252C41.2271 94.4115 41.4929 93.9907 41.8523 93.7627C42.2086 93.534 42.6804 93.5009 43.2676 93.6636L46.6328 94.5957L46.4503 95.2456L45.6782 95.2214L45.668 95.2574C45.8099 95.4459 45.9199 95.632 45.9981 95.8158C46.0763 95.9996 46.1177 96.1991 46.1221 96.4143C46.1274 96.6265 46.0904 96.874 46.011 97.1568C45.9265 97.4577 45.7971 97.7104 45.6228 97.915C45.4485 98.1197 45.234 98.2596 44.9791 98.3349C44.7221 98.4064 44.425 98.3954 44.0877 98.302C43.5818 98.1619 43.2524 97.8615 43.0994 97.4008C42.9463 96.9402 42.9685 96.3124 43.1657 95.5175L43.3703 94.6501L43.0903 94.5726C42.7018 94.465 42.4033 94.4763 42.1947 94.6066C41.9869 94.7338 41.8395 94.9524 41.7525 95.2623C41.6807 95.518 41.6495 95.7736 41.6589 96.0291C41.6653 96.2838 41.6893 96.5336 41.7308 96.7786L40.9902 96.8847C40.9357 96.6167 40.9096 96.3225 40.9119 96.0021C40.9151 95.6788 40.9627 95.3531 41.0548 95.0252ZM43.964 94.8243L43.8005 95.528C43.6602 96.1085 43.643 96.5398 43.7487 96.822C43.8523 97.1003 44.0562 97.2817 44.3603 97.3659C44.6253 97.4393 44.8419 97.4134 45.0102 97.2881C45.1784 97.1629 45.2993 96.9694 45.3728 96.7077C45.486 96.3046 45.466 95.9424 45.3128 95.6211C45.1574 95.296 44.8569 95.0717 44.4112 94.9482L43.964 94.8243Z" fill="white"/>
<path d="M39.6224 100.11C39.777 99.5591 40.0381 99.184 40.4057 98.9843C40.7712 98.7808 41.2702 98.7666 41.9025 98.9418L45.1593 99.8439L44.9071 100.742L41.7633 99.871C41.3718 99.7626 41.0554 99.7625 40.8141 99.8707C40.5736 99.9759 40.4085 100.188 40.319 100.507C40.1923 100.958 40.2376 101.323 40.4551 101.6C40.6703 101.874 41.0415 102.083 41.5684 102.229L44.2786 102.98L44.0252 103.883L40.8814 103.012C40.6194 102.939 40.3924 102.915 40.2005 102.94C40.0056 102.964 39.8446 103.034 39.7176 103.151C39.5905 103.269 39.4966 103.436 39.4358 103.652C39.3488 103.962 39.3468 104.229 39.43 104.453C39.5109 104.673 39.6706 104.862 39.9089 105.019C40.1481 105.172 40.4574 105.302 40.8368 105.407L43.398 106.116L43.1433 107.023L38.1655 105.645L38.367 104.927L39.0903 104.986L39.1043 104.937C38.9605 104.79 38.8525 104.625 38.7803 104.443C38.709 104.258 38.6709 104.064 38.6661 103.862C38.6582 103.659 38.6834 103.453 38.7417 103.246C38.8465 102.873 39.0025 102.577 39.2098 102.359C39.4171 102.141 39.6762 102.01 39.987 101.966L40.0035 101.908C39.7682 101.671 39.6236 101.394 39.5697 101.078C39.5136 100.757 39.5311 100.435 39.6224 100.11Z" fill="white"/>
<path d="M37.6569 107.109C37.6823 107.018 37.7158 106.922 37.7574 106.82C37.796 106.717 37.8334 106.631 37.8695 106.56L38.6876 106.888C38.6493 106.955 38.6106 107.036 38.5715 107.128C38.5332 107.218 38.5027 107.304 38.4799 107.385C38.4258 107.578 38.4105 107.771 38.4337 107.966C38.457 108.16 38.5193 108.343 38.6207 108.514C38.719 108.684 38.857 108.834 39.0346 108.964C39.2092 109.093 39.423 109.193 39.676 109.263L42.3094 109.993L42.0534 110.904L37.0757 109.525L37.281 108.794L38.2103 108.935L38.2217 108.894C38.0697 108.742 37.9387 108.573 37.8287 108.387C37.7195 108.198 37.6479 107.996 37.6138 107.782C37.5775 107.565 37.5919 107.34 37.6569 107.109Z" fill="white"/>
<path d="M39.202 111.471C39.6116 111.585 39.9622 111.74 40.254 111.938C40.5437 112.131 40.7712 112.361 40.9366 112.628C41.0998 112.89 41.2 113.181 41.2372 113.499C41.2714 113.816 41.2378 114.156 41.1364 114.517C41.0418 114.854 40.8976 115.148 40.7037 115.399C40.5077 115.646 40.2711 115.841 39.9938 115.985C39.7135 116.128 39.3982 116.211 39.0477 116.234C38.6942 116.256 38.3127 116.21 37.9032 116.097C37.3581 115.946 36.9206 115.724 36.5905 115.431C36.2574 115.138 36.0401 114.791 35.9385 114.39C35.8347 113.985 35.8504 113.542 35.9856 113.061C36.114 112.603 36.3276 112.23 36.6266 111.94C36.9255 111.65 37.2932 111.461 37.7297 111.375C38.1662 111.288 38.657 111.32 39.202 111.471ZM38.1642 115.167C38.5467 115.273 38.8899 115.316 39.194 115.297C39.4959 115.273 39.7489 115.181 39.9531 115.021C40.1581 114.857 40.3058 114.614 40.3962 114.292C40.4849 113.976 40.4842 113.696 40.3941 113.45C40.3039 113.205 40.1354 112.996 39.8884 112.824C39.6384 112.651 39.3221 112.511 38.9397 112.405C38.5603 112.3 38.2215 112.258 37.9235 112.279C37.6254 112.301 37.3754 112.394 37.1734 112.558C36.9723 112.72 36.8261 112.963 36.7349 113.288C36.6014 113.763 36.663 114.156 36.9197 114.467C37.1742 114.774 37.5891 115.008 38.1642 115.167Z" fill="white"/>
<path d="M34.4835 118.408C34.6448 117.833 34.9131 117.433 35.2884 117.206C35.6645 116.976 36.1717 116.95 36.8101 117.127L40.0533 118.025L39.8012 118.923L36.6799 118.058C36.2824 117.948 35.9598 117.953 35.7121 118.072C35.4613 118.191 35.2852 118.431 35.1839 118.792C35.0394 119.306 35.0901 119.709 35.336 120.001C35.5827 120.29 35.9951 120.514 36.5733 120.675L39.1118 121.378L38.8571 122.285L33.8794 120.906L34.0809 120.189L34.8178 120.252L34.8317 120.202C34.6866 120.048 34.5782 119.874 34.5063 119.679C34.4345 119.484 34.3979 119.279 34.3964 119.065C34.3928 118.847 34.4218 118.628 34.4835 118.408Z" fill="white"/>
<path d="M33.5841 92.9452L30.7694 92.9826C30.6427 92.9831 30.5031 92.9834 30.3506 92.9833C30.1989 92.9802 30.0472 92.9771 29.8955 92.974C29.7439 92.9709 29.6036 92.9677 29.4747 92.9644C29.3436 92.9573 29.2383 92.9508 29.1588 92.945L29.1487 92.9811C29.2197 93.017 29.3132 93.0656 29.4291 93.1268C29.5419 93.1873 29.6655 93.2556 29.8 93.3317C29.9322 93.404 30.0651 93.4797 30.1987 93.5589C30.3331 93.635 30.4539 93.7074 30.5612 93.776L32.9265 95.2872L32.6451 96.289L27.2842 96.2922L27.5439 95.3672L30.3416 95.4077C30.5289 95.411 30.7219 95.4174 30.9204 95.427C31.1189 95.4366 31.3052 95.4493 31.4793 95.4651C31.6534 95.4809 31.8012 95.4975 31.9229 95.515L31.933 95.4789C31.859 95.4422 31.7677 95.3975 31.6591 95.3447C31.5485 95.2881 31.4337 95.2287 31.3148 95.1666C31.1929 95.1037 31.076 95.0405 30.964 94.977C30.8528 94.9106 30.7559 94.8513 30.6731 94.7992L28.1534 93.1966L28.4297 92.2129L31.4074 92.1671C31.5508 92.1647 31.7113 92.1654 31.8888 92.1692C32.0632 92.1721 32.2349 92.1791 32.4037 92.1902C32.5726 92.2013 32.716 92.2167 32.8338 92.2364L32.8439 92.2003C32.7449 92.1599 32.6188 92.1006 32.4655 92.0225C32.3121 91.9444 32.1465 91.858 31.9686 91.7633C31.7877 91.6678 31.6137 91.5709 31.4465 91.4728L29.0341 90.0604L29.2901 89.1488L33.873 91.9163L33.5841 92.9452Z" fill="white"/>
<path d="M29.6024 97.5716C30.0119 97.685 30.3626 97.8405 30.6544 98.0381C30.944 98.2318 31.1716 98.4618 31.337 98.7281C31.5002 98.9905 31.6004 99.2809 31.6376 99.5993C31.6718 99.9167 31.6382 100.256 31.5368 100.617C31.4422 100.954 31.298 101.248 31.1041 101.499C30.9081 101.746 30.6715 101.942 30.3942 102.085C30.1139 102.228 29.7985 102.311 29.4481 102.334C29.0946 102.356 28.7131 102.31 28.3036 102.197C27.7585 102.046 27.321 101.824 26.9909 101.532C26.6578 101.238 26.4405 100.891 26.3389 100.49C26.2351 100.085 26.2508 99.6424 26.386 99.161C26.5144 98.7037 26.728 98.3301 27.0269 98.04C27.3259 97.7499 27.6936 97.5616 28.1301 97.475C28.5666 97.3884 29.0573 97.4206 29.6024 97.5716ZM28.5646 101.267C28.947 101.373 29.2903 101.416 29.5944 101.397C29.8963 101.374 30.1493 101.282 30.3535 101.121C30.5585 100.957 30.7062 100.714 30.7966 100.392C30.8853 100.077 30.8846 99.796 30.7944 99.5505C30.7043 99.3051 30.5358 99.0963 30.2888 98.9241C30.0388 98.7511 29.7225 98.6116 29.3401 98.5057C28.9607 98.4006 28.6219 98.3586 28.3239 98.3798C28.0258 98.401 27.7758 98.4938 27.5738 98.6584C27.3727 98.8199 27.2265 99.0631 27.1352 99.388C27.0018 99.8633 27.0634 100.257 27.3201 100.568C27.5746 100.875 27.9894 101.108 28.5646 101.267Z" fill="white"/>
<path d="M30.4465 104.152L30.1906 105.064L23.1621 103.117L23.4181 102.205L30.4465 104.152Z" fill="white"/>
<path d="M24.1924 106.972C24.314 106.539 24.5117 106.193 24.7854 105.935C25.0561 105.676 25.3833 105.511 25.7671 105.439C26.1508 105.367 26.5715 105.394 27.0292 105.521L27.5442 105.663L26.5964 109.039C27.1319 109.177 27.5799 109.154 27.9403 108.969C28.2977 108.782 28.5436 108.45 28.6779 107.972C28.7666 107.656 28.8155 107.366 28.8245 107.103C28.8335 106.839 28.8165 106.559 28.7734 106.262L29.5368 106.473C29.5811 106.755 29.5934 107.029 29.5736 107.296C29.5577 107.56 29.5007 107.867 29.4028 108.216C29.2676 108.697 29.0525 109.093 28.7576 109.404C28.4635 109.712 28.0999 109.914 27.6669 110.011C27.2309 110.108 26.7358 110.079 26.1818 109.926C25.6337 109.774 25.1912 109.553 24.8543 109.261C24.5143 108.97 24.2873 108.628 24.1733 108.236C24.0593 107.845 24.0657 107.423 24.1924 106.972ZM24.8958 107.172C24.7927 107.539 24.8304 107.867 25.0088 108.156C25.1841 108.445 25.4892 108.671 25.9239 108.833L26.6107 106.387C26.3358 106.314 26.0826 106.291 25.8512 106.318C25.6198 106.345 25.4213 106.427 25.2557 106.566C25.0909 106.702 24.9709 106.904 24.8958 107.172Z" fill="white"/>
<path d="M20.4941 114.393L21.0283 112.491C21.2627 111.656 21.5618 111.062 21.9258 110.708C22.2897 110.355 22.7696 110.26 23.3654 110.425C23.6199 110.496 23.8344 110.605 24.009 110.754C24.1836 110.902 24.3119 111.082 24.3941 111.295C24.4763 111.508 24.5052 111.75 24.4809 112.021L24.5258 112.033C24.6463 111.776 24.7944 111.559 24.9699 111.382C25.1455 111.205 25.3579 111.087 25.607 111.027C25.854 110.963 26.1452 110.978 26.4806 111.071C26.8818 111.182 27.1966 111.371 27.4252 111.637C27.6507 111.903 27.7881 112.229 27.8374 112.617C27.8845 113.001 27.8413 113.43 27.7077 113.906L27.0602 116.212L20.4941 114.393ZM23.5145 114.239L23.8357 113.094C23.9844 112.565 24.0005 112.175 23.8839 111.923C23.7674 111.672 23.5429 111.5 23.2106 111.408C22.8663 111.312 22.5852 111.365 22.3675 111.566C22.1468 111.766 21.9625 112.129 21.8147 112.655L21.5249 113.687L23.5145 114.239ZM24.2735 114.449L26.5415 115.077L26.893 113.825C27.045 113.284 27.0458 112.873 26.8954 112.593C26.7458 112.31 26.4914 112.118 26.1321 112.019C25.9045 111.956 25.6956 111.953 25.5054 112.009C25.313 112.063 25.1419 112.189 24.9921 112.39C24.8422 112.59 24.714 112.88 24.6073 113.26L24.2735 114.449Z" fill="white"/>
<path d="M19.4514 48.5028C19.6178 48.1766 19.8378 47.9484 20.1114 47.8183C20.3823 47.6868 20.6561 47.6916 20.9328 47.8327C21.1154 47.9259 21.2447 48.0593 21.3206 48.2329C21.3979 48.4038 21.4151 48.6247 21.3723 48.8956L21.4193 48.9196C21.6112 48.6853 21.8147 48.5441 22.03 48.496C22.2466 48.4453 22.4475 48.4673 22.6328 48.5618C22.9486 48.7229 23.1393 48.9648 23.2048 49.2877C23.2677 49.6092 23.1754 50.0126 22.9278 50.4981C22.8266 50.6964 22.7099 50.8704 22.5777 51.02C22.4455 51.1696 22.2904 51.3059 22.1126 51.429L21.3649 51.0476C21.5571 50.9286 21.7298 50.7996 21.8829 50.6607C22.036 50.5217 22.1611 50.3569 22.2583 50.1664C22.3568 49.9733 22.3935 49.8144 22.3683 49.6897C22.3444 49.5625 22.2646 49.4642 22.1289 49.395C22.0219 49.3404 21.902 49.3368 21.7693 49.3842C21.6379 49.429 21.5077 49.578 21.3786 49.8312L21.1549 50.2696L20.5325 49.9521L20.7162 49.592C20.8546 49.3205 20.8995 49.1231 20.8507 48.9995C20.8019 48.8759 20.724 48.7869 20.617 48.7323C20.5178 48.6817 20.4189 48.6724 20.3204 48.7044C20.2219 48.7363 20.1387 48.8189 20.0708 48.952C20.0082 49.0746 19.9738 49.2034 19.9675 49.3383C19.9611 49.4732 19.9722 49.6417 20.0007 49.8437L19.2471 49.9575C19.207 49.7331 19.1964 49.5024 19.2153 49.2654C19.2356 49.0258 19.3143 48.7716 19.4514 48.5028Z" fill="white"/>
<path d="M20.0027 53.3027C20.2556 52.8068 20.5745 52.4975 20.9594 52.3748C21.343 52.2482 21.8153 52.328 22.3764 52.6142L25.2302 54.0699L24.6192 55.2678L22.0629 53.9638C21.7498 53.8041 21.4863 53.7371 21.2725 53.7629C21.0587 53.7887 20.8946 53.9138 20.7801 54.1383C20.6191 54.4541 20.6181 54.7364 20.7773 54.9853C20.9338 55.2329 21.2222 55.4639 21.6423 55.6782L23.8385 56.7984L23.2294 57.9924L20.6732 56.6885C20.4644 56.582 20.2775 56.5163 20.1127 56.4914C19.9478 56.4664 19.8055 56.4843 19.6857 56.5449C19.566 56.6055 19.4676 56.7115 19.3904 56.8629C19.2772 57.0847 19.2441 57.2882 19.2911 57.4733C19.3368 57.6545 19.454 57.8277 19.6427 57.993C19.83 58.1544 20.079 58.3143 20.3896 58.4727L22.4487 59.523L21.8397 60.717L17.4631 58.4846L17.9283 57.5724L18.57 57.6975L18.6039 57.6309C18.4978 57.465 18.4317 57.2915 18.4057 57.1105C18.381 56.9269 18.3877 56.7428 18.4258 56.5584C18.464 56.3739 18.5257 56.1982 18.6109 56.0312C18.7746 55.7102 18.9653 55.4654 19.1828 55.2968C19.4017 55.1256 19.6514 55.0359 19.9318 55.0277L19.9857 54.922C19.8278 54.677 19.7586 54.4098 19.7779 54.1204C19.7986 53.8284 19.8735 53.5558 20.0027 53.3027Z" fill="white"/>
<path d="M15.7761 58.4632L20.4111 63.516L19.858 64.6004L15.223 59.5475L15.7761 58.4632Z" fill="white"/>
<path d="M20.4166 68.2643C20.1051 68.875 19.7598 69.2876 19.3807 69.502C19.0056 69.7152 18.6262 69.724 18.2426 69.5283C17.979 69.3938 17.8004 69.1991 17.7068 68.9442C17.6132 68.6893 17.6098 68.3833 17.6965 68.0263C17.5817 68.1223 17.4423 68.1861 17.2783 68.2175C17.1116 68.2476 16.9618 68.2287 16.8287 68.1608C16.6616 68.0756 16.548 67.9568 16.4876 67.8043C16.4246 67.6505 16.3862 67.455 16.3724 67.2177C16.1561 67.3968 15.9037 67.4983 15.6153 67.5222C15.3282 67.5434 15.0359 67.4782 14.7383 67.3264C14.4199 67.164 14.1851 66.9571 14.0338 66.7056C13.8813 66.4502 13.8142 66.1595 13.8325 65.8334C13.8522 65.5046 13.9599 65.1485 14.1556 64.7648C14.1968 64.6839 14.25 64.5926 14.315 64.491C14.38 64.3893 14.4417 64.2974 14.5 64.2153C14.5596 64.1306 14.6013 64.0746 14.6251 64.0473L15.4039 62.5206L16.0107 62.8301L15.8374 63.605C15.9659 63.5916 16.0929 63.5973 16.2185 63.6218C16.3441 63.6464 16.4682 63.69 16.5909 63.7526C17.0607 63.9922 17.3435 64.3436 17.4393 64.8069C17.5339 65.2663 17.4328 65.7869 17.1359 66.3689C17.0575 66.5032 16.9805 66.6284 16.9049 66.7444C16.9213 66.8284 16.9476 66.8994 16.9838 66.9573C17.02 67.0152 17.0668 67.0589 17.1242 67.0881C17.1816 67.1174 17.2419 67.1186 17.305 67.0916C17.3668 67.0606 17.4328 67.0022 17.503 66.9163C17.5718 66.8264 17.6435 66.7084 17.7181 66.5623L18.0975 65.8185C18.3424 65.3383 18.6319 65.0255 18.9658 64.8801C19.3011 64.7321 19.6684 64.76 20.0677 64.9637C20.5792 65.2246 20.8668 65.6409 20.9303 66.2127C20.9952 66.7819 20.8239 67.4657 20.4166 68.2643ZM19.6635 67.8161C19.8086 67.5316 19.9057 67.2736 19.9547 67.0421C20.0077 66.8093 20.0125 66.6128 19.9693 66.4526C19.9286 66.2937 19.8404 66.1797 19.7047 66.1105C19.5951 66.0546 19.4911 66.0426 19.3925 66.0746C19.298 66.1052 19.2043 66.1792 19.1117 66.2964C19.0203 66.4109 18.9234 66.5687 18.8209 66.7696L18.5054 67.3882C18.4309 67.5343 18.3872 67.6781 18.3742 67.8195C18.3626 67.9583 18.3813 68.0829 18.4302 68.1933C18.4817 68.3051 18.5636 68.3896 18.6758 68.4469C18.8402 68.5307 19.0093 68.5183 19.1831 68.4097C19.3583 68.2984 19.5184 68.1005 19.6635 67.8161ZM16.4417 65.931C16.5562 65.7065 16.5709 65.5068 16.4858 65.3319C16.4008 65.1569 16.2395 65.0089 16.002 64.8878C15.7384 64.7533 15.5134 64.7076 15.327 64.7507C15.1393 64.7898 14.9903 64.9176 14.8798 65.1342C14.7679 65.3535 14.7506 65.5518 14.8278 65.7293C14.9024 65.9055 15.0715 66.0608 15.3351 66.1953C15.5726 66.3164 15.7878 66.3587 15.9807 66.3223C16.1749 66.2832 16.3286 66.1528 16.4417 65.931Z" fill="white"/>
<path d="M12.8224 67.5822L17.199 69.8147L16.7378 70.719L16.0647 70.5878L16.0347 70.6465C16.145 70.7915 16.2257 70.9363 16.2769 71.0808C16.3282 71.2254 16.348 71.3703 16.3363 71.5156C16.3247 71.661 16.2796 71.8106 16.201 71.9646C16.1198 72.1238 16.0159 72.2533 15.8894 72.3532C15.7615 72.4492 15.6202 72.5103 15.4653 72.5365L15.4534 72.56C15.5122 72.5801 15.6003 72.6169 15.7178 72.6702C15.8327 72.7223 15.9534 72.7789 16.08 72.8402C16.2106 72.9002 16.3241 72.9548 16.4207 73.0041L17.6734 73.6431L17.0643 74.837L10.7617 71.6222L11.3707 70.4282L13.927 71.7321C14.2402 71.8919 14.5057 71.9549 14.7234 71.9213C14.9412 71.8877 15.1127 71.7482 15.2378 71.5029C15.3589 71.2654 15.3993 71.0508 15.3589 70.8592C15.3173 70.6637 15.2041 70.4826 15.0193 70.316C14.832 70.1481 14.5831 69.985 14.2725 69.8265L12.2134 68.7762L12.8224 67.5822Z" fill="white"/>
<path d="M10.5333 72.8283C11.1902 73.1633 11.7501 73.5144 12.213 73.8815C12.6777 74.2448 13.0324 74.6315 13.2769 75.0415C13.5233 75.4479 13.6484 75.8811 13.6522 76.3414C13.6559 76.8017 13.5253 77.2916 13.2603 77.8112C12.9271 78.4644 12.4884 78.9164 11.9441 79.1673C11.3962 79.4163 10.7593 79.482 10.0336 79.3644C9.30415 79.2449 8.50334 78.9627 7.63116 78.5178C6.75156 78.0691 6.04639 77.5949 5.51564 77.095C4.98308 76.5895 4.65579 76.0437 4.5338 75.4576C4.4118 74.8716 4.52781 74.2315 4.88182 73.5375C5.21311 72.888 5.65273 72.4388 6.20067 72.1898C6.7468 71.9351 7.38554 71.8657 8.11688 71.9816C8.84451 72.0955 9.64998 72.3777 10.5333 72.8283ZM8.50294 76.8087C9.12274 77.1249 9.65751 77.3556 10.1073 77.5008C10.5552 77.6404 10.9247 77.6816 11.2159 77.6243C11.507 77.567 11.7264 77.3936 11.8741 77.1041C12.0198 76.8183 12.0323 76.5417 11.9115 76.2743C11.7888 76.0013 11.5395 75.7245 11.1635 75.4438C10.7838 75.1613 10.2822 74.861 9.65868 74.5429C9.03888 74.2268 8.50315 73.9979 8.05151 73.8564C7.59987 73.7149 7.22753 73.6747 6.93451 73.7357C6.63966 73.7911 6.41935 73.9616 6.27358 74.2474C6.12592 74.5369 6.11622 74.8173 6.24447 75.0885C6.36901 75.3578 6.62113 75.6337 7.00084 75.9162C7.38244 76.1951 7.88314 76.4926 8.50294 76.8087Z" fill="white"/>
<path d="M4.81689 78.4785C5.19174 78.6697 5.47673 78.9133 5.67187 79.2092C5.867 79.5052 5.98363 79.8313 6.02176 80.1875C6.06178 80.54 6.03838 80.9022 5.95154 81.2741L5.98494 81.2912C6.39978 80.6796 6.85293 80.2864 7.34438 80.1115C7.83772 79.9328 8.35161 79.9798 8.88605 80.2524C9.36111 80.4947 9.72643 80.8284 9.98201 81.2534C10.2395 81.6747 10.3528 82.1815 10.322 82.7738C10.2911 83.3661 10.0817 84.0426 9.69356 84.8035C9.4645 85.2525 9.21346 85.653 8.94046 86.0048C8.67306 86.3548 8.37805 86.6627 8.05543 86.9284L6.59129 86.1816C6.94739 85.9236 7.26933 85.6271 7.5571 85.2922C7.84116 84.9554 8.06744 84.6218 8.23592 84.2915C8.55018 83.6754 8.66401 83.1909 8.5774 82.838C8.48898 82.4796 8.25178 82.2019 7.86579 82.005C7.6394 81.8895 7.41892 81.8496 7.20436 81.8851C6.98979 81.9207 6.7688 82.0605 6.54138 82.3046C6.31586 82.545 6.07341 82.9195 5.81406 83.4279L5.49886 84.0459L4.17946 83.3729L4.50034 82.7438C4.75591 82.2428 4.90356 81.8387 4.9433 81.5316C4.98121 81.2188 4.94218 80.9744 4.82621 80.7984C4.70842 80.6167 4.54375 80.4719 4.3322 80.364C4.04271 80.2163 3.77088 80.1899 3.51671 80.2847C3.26254 80.3796 3.02945 80.6349 2.81742 81.0505C2.6849 81.3103 2.59715 81.5649 2.55415 81.8142C2.50934 82.058 2.48978 82.2889 2.49548 82.5069C2.49747 82.7231 2.50802 82.9179 2.52712 83.0913L0.935266 83.2825C0.867968 82.846 0.867089 82.3755 0.93263 81.8711C1.00006 81.3629 1.18523 80.812 1.48812 80.2181C1.91597 79.3794 2.4237 78.8012 3.01132 78.4835C3.59895 78.1659 4.20081 78.1642 4.81689 78.4785Z" fill="white"/>
<defs>
<linearGradient id="paint0_linear_615_481" x1="178.5" y1="113.5" x2="226.5" y2="100" gradientUnits="userSpaceOnUse">
<stop stop-color="#7D0B1B"/>
<stop offset="1" stop-color="#7D0B1B"/>
</linearGradient>
<linearGradient id="paint1_linear_615_481" x1="91.6201" y1="17.9999" x2="104.5" y2="80.4999" gradientUnits="userSpaceOnUse">
<stop offset="0.492375" stop-color="#E4C73B"/>
<stop offset="1" stop-color="#7E6E21"/>
</linearGradient>
<linearGradient id="paint2_linear_615_481" x1="15.5002" y1="95.5" x2="56.5002" y2="112.5" gradientUnits="userSpaceOnUse">
<stop stop-color="#59E789"/>
<stop offset="1" stop-color="#32814D"/>
</linearGradient>
</defs>
</svg>
