<?xml version="1.0" encoding="utf-8"?>
<!-- Generator: Adobe Illustrator 27.6.1, SVG Export Plug-In . SVG Version: 6.00 Build 0)  -->
<svg version="1.1" id="Layer_1" xmlns="http://www.w3.org/2000/svg" xmlns:xlink="http://www.w3.org/1999/xlink" x="0px" y="0px"
	 viewBox="0 0 223 121" style="enable-background:new 0 0 223 121;" xml:space="preserve">
<style type="text/css">
	.st0{fill:url(#SVGID_1_);}
	.st1{fill:#FFFFFF;}
	.st2{fill:#FF0000;}
	.st3{fill:#FB8801;}
	.st4{fill:url(#SVGID_00000155843964555455252900000015063441985413833914_);}
	.st5{fill:#33CE19;}
	.st6{fill:url(#SVGID_00000141420042073090452820000002643824004314441650_);}
</style>
<linearGradient id="SVGID_1_" gradientUnits="userSpaceOnUse" x1="165.0834" y1="14.9941" x2="209.8027" y2="27.5714" gradientTransform="matrix(1 0 0 -1 0 121.5695)">
	<stop  offset="0" style="stop-color:#7D0B1B"/>
	<stop  offset="1" style="stop-color:#7D0B1B"/>
</linearGradient>
<path class="st0" d="M159.3,92.6c4.4,8.2,7.5,18.6,7.6,28.6h41.9c2.2,0,4-1.9,3.8-4.1c-0.8-15.7-5-31.3-11.7-44.5
	c-1-2-3.4-2.7-5.3-1.6l-17,10L159.3,92.6z"/>
<path class="st1" d="M180,109.9c-0.3,0.1-0.6,0.1-0.8,0c-0.2-0.1-0.5-0.3-0.6-0.5c-0.2-0.3-0.3-0.6-0.4-1c-0.1-0.3-0.1-0.6-0.2-0.9
	c0-0.3,0-0.5,0-0.7l0.7-0.2c0,0.2-0.1,0.5-0.1,0.8c0,0.3,0,0.6,0.1,0.9c0.1,0.4,0.2,0.6,0.4,0.8c0.2,0.1,0.3,0.2,0.5,0.1
	c0.1,0,0.2-0.1,0.3-0.2c0.1-0.1,0.1-0.2,0.2-0.4c0-0.2,0.1-0.5,0.1-0.8c0-0.3,0.1-0.6,0.1-0.9c0.1-0.2,0.2-0.5,0.3-0.6
	c0.1-0.2,0.3-0.3,0.6-0.3c0.4-0.1,0.7,0,1,0.2c0.3,0.3,0.5,0.7,0.7,1.2c0.1,0.3,0.1,0.6,0.1,0.8c0,0.3,0,0.5,0,0.8l-0.7-0.1
	c0-0.2,0-0.5,0-0.7c0-0.2,0-0.5-0.1-0.7c-0.1-0.3-0.2-0.5-0.3-0.6c-0.1-0.1-0.3-0.2-0.4-0.1c-0.1,0-0.2,0.1-0.3,0.2
	c-0.1,0.1-0.1,0.2-0.1,0.4c0,0.2-0.1,0.5-0.1,0.8c0,0.3-0.1,0.6-0.1,0.9c-0.1,0.2-0.2,0.5-0.3,0.6
	C180.5,109.7,180.3,109.9,180,109.9z"/>
<path class="st1" d="M182.1,104.3l-4.6,1.3l-0.2-0.7l0.6-0.3l0,0c-0.2-0.1-0.4-0.1-0.5-0.3c-0.1-0.1-0.3-0.3-0.4-0.5
	c-0.1-0.2-0.2-0.4-0.2-0.6c-0.1-0.4-0.1-0.7-0.1-1c0-0.3,0.2-0.5,0.4-0.7c0.2-0.2,0.5-0.4,0.9-0.5l3-0.9l0.2,0.9l-2.9,0.8
	c-0.4,0.1-0.6,0.3-0.8,0.5c-0.1,0.2-0.2,0.5-0.1,0.8c0.1,0.3,0.2,0.6,0.4,0.7c0.2,0.2,0.4,0.2,0.7,0.3c0.3,0,0.6,0,0.9-0.1l2.4-0.7
	L182.1,104.3z"/>
<path class="st1" d="M178.4,99.7c-0.4,0.1-0.7,0.2-1.1,0.1c-0.3,0-0.6-0.1-0.9-0.2c-0.3-0.1-0.5-0.3-0.7-0.6
	c-0.2-0.2-0.3-0.5-0.4-0.9c-0.1-0.3-0.1-0.6-0.1-0.9c0-0.3,0.1-0.6,0.3-0.8c0.2-0.3,0.4-0.5,0.6-0.7c0.3-0.2,0.6-0.3,1-0.5
	c0.5-0.1,1-0.2,1.4-0.1c0.4,0.1,0.7,0.3,1,0.5c0.3,0.3,0.5,0.7,0.6,1.1c0.1,0.4,0.1,0.9,0,1.2c-0.1,0.4-0.3,0.7-0.6,1
	C179.3,99.3,178.9,99.5,178.4,99.7z M177.5,96.1c-0.4,0.1-0.6,0.2-0.9,0.4c-0.2,0.2-0.4,0.4-0.5,0.6c-0.1,0.2-0.1,0.5,0,0.8
	c0.1,0.3,0.2,0.5,0.4,0.7c0.2,0.2,0.4,0.2,0.7,0.3c0.3,0,0.6,0,1-0.1c0.4-0.1,0.6-0.2,0.9-0.4c0.2-0.2,0.4-0.4,0.5-0.6
	c0.1-0.2,0.1-0.5,0-0.8c-0.1-0.5-0.4-0.8-0.7-0.9C178.4,96,178,96,177.5,96.1z"/>
<path class="st1" d="M189.8,112.3c-0.2-0.6-0.1-1.1,0.2-1.6c0.3-0.5,0.9-0.8,1.6-1c0.8-0.2,1.4-0.2,1.9,0c0.5,0.2,0.8,0.7,1,1.2
	c0.1,0.2,0.1,0.5,0.1,0.7c0,0.2-0.1,0.4-0.1,0.6c-0.1,0.2-0.2,0.3-0.3,0.4l0,0.1c0.1,0,0.2-0.1,0.4-0.1c0.2-0.1,0.3-0.1,0.4-0.1
	l1.8-0.5l0.2,0.9l-6.5,1.9l-0.2-0.7l0.6-0.3l0,0c-0.2,0-0.3-0.1-0.5-0.2c-0.1-0.1-0.3-0.2-0.4-0.4
	C189.9,112.8,189.8,112.6,189.8,112.3z M190.5,112.3c0.1,0.5,0.3,0.8,0.7,0.9c0.3,0.1,0.7,0.1,1.2,0l0.1,0c0.5-0.2,0.9-0.4,1.2-0.6
	c0.2-0.3,0.3-0.7,0.2-1.2c-0.1-0.4-0.3-0.7-0.7-0.8c-0.4-0.1-0.8-0.1-1.3,0.1c-0.5,0.2-0.9,0.4-1.2,0.7
	C190.4,111.6,190.4,111.9,190.5,112.3z"/>
<path class="st1" d="M193.7,107.8c0,0.1,0,0.2,0.1,0.3c0,0.1,0,0.2,0,0.3l-0.8,0.1c0-0.1,0-0.2,0-0.3c0-0.1,0-0.2,0-0.3
	c0-0.2-0.1-0.4-0.2-0.5c-0.1-0.1-0.2-0.3-0.4-0.4c-0.2-0.1-0.3-0.1-0.5-0.2c-0.2,0-0.4,0-0.7,0.1l-2.4,0.7l-0.2-0.9l4.6-1.3l0.2,0.7
	l-0.8,0.3l0,0c0.2,0.1,0.4,0.1,0.6,0.2c0.2,0.1,0.3,0.2,0.5,0.4C193.6,107.4,193.7,107.6,193.7,107.8z"/>
<path class="st1" d="M192.2,102.3c0.2,0.6,0.1,1.1,0,1.4c-0.2,0.4-0.5,0.6-1.1,0.8l-3.1,0.9l-0.2-0.6l0.6-0.4l0,0
	c-0.2-0.1-0.4-0.2-0.5-0.3c-0.1-0.1-0.3-0.3-0.4-0.4c-0.1-0.2-0.2-0.4-0.3-0.7c-0.1-0.3-0.1-0.6-0.1-0.8c0-0.3,0.1-0.5,0.3-0.7
	c0.2-0.2,0.4-0.3,0.7-0.4c0.5-0.1,0.9,0,1.2,0.3c0.3,0.3,0.6,0.8,0.8,1.6l0.3,0.8l0.3-0.1c0.4-0.1,0.6-0.3,0.7-0.5
	c0.1-0.2,0.1-0.5,0-0.8c-0.1-0.2-0.2-0.5-0.3-0.7c-0.1-0.2-0.3-0.4-0.4-0.6l0.5-0.5c0.2,0.2,0.3,0.4,0.5,0.7
	C192,101.7,192.2,102,192.2,102.3z M190,103.9l-0.2-0.7c-0.2-0.5-0.4-0.9-0.6-1.1c-0.2-0.2-0.5-0.2-0.7-0.1
	c-0.2,0.1-0.4,0.2-0.5,0.4c-0.1,0.2-0.1,0.4,0,0.7c0.1,0.4,0.3,0.7,0.6,0.9c0.3,0.2,0.6,0.2,1,0.1L190,103.9z"/>
<path class="st1" d="M186.8,100.7l-0.9-3.6l0.5-0.2l4.1,1.6l-0.6-2.4l0.7-0.2l0.9,3.4l-0.6,0.2l-4-1.5l0.7,2.5L186.8,100.7z"/>
<path class="st1" d="M189.8,93c0.2,0.6,0.1,1.1,0,1.4c-0.2,0.4-0.5,0.6-1.1,0.8l-3.1,0.9l-0.2-0.6l0.6-0.4l0,0
	c-0.2-0.1-0.4-0.2-0.5-0.3c-0.1-0.1-0.3-0.3-0.4-0.4c-0.1-0.2-0.2-0.4-0.3-0.7c-0.1-0.3-0.1-0.6-0.1-0.8c0-0.3,0.1-0.5,0.3-0.7
	c0.2-0.2,0.4-0.3,0.7-0.4c0.5-0.1,0.9,0,1.2,0.3c0.3,0.3,0.6,0.8,0.8,1.6l0.3,0.8l0.3-0.1c0.4-0.1,0.6-0.3,0.7-0.5
	c0.1-0.2,0.1-0.5,0-0.8c-0.1-0.2-0.2-0.5-0.3-0.7c-0.1-0.2-0.3-0.4-0.4-0.6l0.5-0.5c0.2,0.2,0.3,0.4,0.5,0.7
	C189.6,92.4,189.7,92.7,189.8,93z M187.6,94.6l-0.2-0.7c-0.2-0.5-0.4-0.9-0.6-1.1c-0.2-0.2-0.5-0.2-0.7-0.1
	c-0.2,0.1-0.4,0.2-0.5,0.4c-0.1,0.2-0.1,0.4,0,0.7c0.1,0.4,0.3,0.7,0.6,0.9c0.3,0.2,0.6,0.2,1,0.1L187.6,94.6z"/>
<path class="st1" d="M184.2,90.9l-0.2-0.9l2.8-0.8l-0.8-3.1l-2.8,0.8l-0.2-0.9l6.1-1.7l0.2,0.9l-2.6,0.7l0.8,3.1l2.6-0.7l0.2,0.9
	L184.2,90.9z"/>
<path class="st2" d="M159.3,92.7l19.8-11.8l16.4-9.7c1.9-1.1,2.6-3.7,1.4-5.6c-8.1-12.9-19.5-24.7-32-33c-1.8-1.2-4.1-0.6-5.3,1.3
	l-1.2,2l-8.3,14.9L139,71.5c8,4.9,15.1,12,19.9,20.3L159.3,92.7z"/>
<path class="st1" d="M167,72.6c-0.2,0.2-0.5,0.4-0.7,0.4c-0.3,0-0.5,0-0.8-0.2c-0.3-0.1-0.6-0.4-0.8-0.7c-0.2-0.3-0.4-0.5-0.5-0.7
	c-0.1-0.2-0.2-0.4-0.3-0.7l0.6-0.6c0.1,0.2,0.2,0.5,0.3,0.7c0.1,0.3,0.3,0.5,0.5,0.7c0.3,0.3,0.5,0.4,0.7,0.5c0.2,0,0.4,0,0.5-0.2
	c0.1-0.1,0.1-0.2,0.2-0.3c0-0.1,0-0.3,0-0.5c0-0.2-0.1-0.4-0.3-0.8c-0.1-0.3-0.2-0.6-0.3-0.8c-0.1-0.2-0.1-0.5,0-0.7
	c0-0.2,0.2-0.4,0.4-0.6c0.3-0.3,0.6-0.4,1-0.3c0.4,0.1,0.8,0.3,1.2,0.8c0.2,0.2,0.4,0.4,0.5,0.7c0.1,0.2,0.2,0.5,0.3,0.7l-0.7,0.3
	c-0.1-0.2-0.2-0.4-0.3-0.6c-0.1-0.2-0.2-0.4-0.4-0.6c-0.2-0.2-0.4-0.4-0.6-0.4c-0.2,0-0.3,0-0.4,0.1c-0.1,0.1-0.1,0.2-0.2,0.3
	c0,0.1,0,0.3,0.1,0.5c0.1,0.2,0.2,0.4,0.3,0.7c0.1,0.3,0.2,0.6,0.3,0.8c0.1,0.2,0.1,0.5,0,0.7C167.3,72.2,167.2,72.4,167,72.6z"/>
<path class="st1" d="M166.3,66.7l-3.5,3.4l-0.5-0.5l0.4-0.6l0,0c-0.2,0-0.4,0-0.6,0c-0.2,0-0.4-0.1-0.5-0.2s-0.3-0.2-0.5-0.4
	c-0.3-0.3-0.4-0.6-0.5-0.8c-0.1-0.3-0.1-0.6,0-0.8c0.1-0.3,0.3-0.6,0.6-0.9l2.3-2.2l0.6,0.7l-2.2,2.2c-0.3,0.3-0.4,0.5-0.5,0.8
	c0,0.3,0.1,0.5,0.3,0.8c0.2,0.2,0.5,0.4,0.7,0.5c0.2,0.1,0.5,0,0.7-0.1c0.2-0.1,0.5-0.3,0.8-0.6l1.8-1.8L166.3,66.7z"/>
<path class="st1" d="M160.9,64.4c-0.3,0.3-0.6,0.5-0.9,0.6c-0.3,0.1-0.6,0.2-0.9,0.2c-0.3,0-0.6-0.1-0.8-0.2
	c-0.3-0.1-0.5-0.3-0.8-0.6c-0.2-0.2-0.4-0.5-0.5-0.8c-0.1-0.3-0.1-0.6-0.1-0.9c0-0.3,0.1-0.6,0.3-0.9c0.2-0.3,0.4-0.6,0.7-0.9
	c0.4-0.4,0.8-0.6,1.2-0.8c0.4-0.1,0.8-0.1,1.1,0c0.4,0.1,0.7,0.3,1,0.7c0.3,0.3,0.5,0.7,0.6,1.1c0.1,0.4,0.1,0.8-0.1,1.2
	C161.6,63.7,161.3,64,160.9,64.4z M158.5,61.8c-0.3,0.3-0.5,0.5-0.6,0.8c-0.1,0.3-0.2,0.5-0.1,0.8c0,0.2,0.2,0.5,0.4,0.7
	c0.2,0.2,0.4,0.4,0.7,0.4c0.2,0,0.5,0,0.7-0.1c0.3-0.1,0.5-0.3,0.8-0.6c0.3-0.3,0.5-0.5,0.6-0.8c0.1-0.3,0.2-0.5,0.1-0.8
	c0-0.2-0.2-0.5-0.4-0.7c-0.3-0.3-0.7-0.5-1-0.4C159.3,61.1,158.9,61.4,158.5,61.8z"/>
<path class="st1" d="M182.2,68.4c0.1,0.1,0.1,0.1,0.2,0.2c0.1,0.1,0.1,0.2,0.2,0.2l-0.7,0.5c0-0.1-0.1-0.1-0.1-0.2
	c-0.1-0.1-0.1-0.1-0.2-0.2c-0.1-0.1-0.3-0.2-0.4-0.3c-0.2-0.1-0.3-0.1-0.5-0.1c-0.2,0-0.4,0-0.6,0.1c-0.2,0.1-0.4,0.2-0.5,0.4
	l-1.8,1.8l-0.6-0.7l3.5-3.4l0.5,0.5l-0.6,0.7l0,0c0.2-0.1,0.4-0.1,0.6-0.1c0.2,0,0.4,0,0.6,0.1C181.8,68.1,182,68.2,182.2,68.4z"/>
<path class="st1" d="M178.4,64.3c0.3,0.3,0.5,0.6,0.5,1c0.1,0.4,0.1,0.7-0.1,1.1c-0.1,0.4-0.3,0.7-0.7,1l-0.4,0.4l-2.2-2.4
	c-0.4,0.4-0.6,0.8-0.6,1.1c0,0.4,0.1,0.8,0.4,1.1c0.2,0.2,0.4,0.4,0.6,0.5c0.2,0.1,0.4,0.3,0.7,0.4l-0.5,0.5
	c-0.2-0.1-0.5-0.2-0.7-0.4c-0.2-0.1-0.4-0.3-0.7-0.6c-0.3-0.3-0.5-0.7-0.6-1.1c-0.1-0.4-0.1-0.8,0-1.2c0.1-0.4,0.4-0.8,0.8-1.2
	c0.4-0.4,0.8-0.6,1.2-0.8c0.4-0.1,0.8-0.2,1.1-0.1C177.7,63.8,178.1,64,178.4,64.3z M177.9,64.8c-0.2-0.3-0.5-0.4-0.8-0.4
	c-0.3,0-0.6,0.1-1,0.4l1.6,1.8c0.2-0.2,0.3-0.4,0.4-0.6c0.1-0.2,0.1-0.4,0.1-0.6C178.1,65.2,178,65,177.9,64.8z"/>
<path class="st1" d="M169.5,65.3c-0.4-0.5-0.7-0.9-0.8-1.4c-0.1-0.4,0.1-0.8,0.4-1.1c0.2-0.2,0.5-0.3,0.7-0.3c0.3,0,0.6,0.1,0.8,0.3
	c0-0.1-0.1-0.3,0-0.4c0-0.2,0.1-0.3,0.2-0.4c0.1-0.1,0.3-0.2,0.4-0.2c0.2,0,0.4,0,0.6,0.1c-0.1-0.3-0.1-0.5,0-0.8
	c0.1-0.3,0.2-0.6,0.5-0.8c0.2-0.2,0.5-0.4,0.8-0.5c0.3-0.1,0.6,0,0.8,0.1c0.3,0.1,0.6,0.3,0.8,0.6c0.1,0.1,0.1,0.1,0.2,0.2
	c0.1,0.1,0.1,0.1,0.2,0.2c0,0.1,0.1,0.1,0.1,0.2l1.1,1.2l-0.4,0.4l-0.7-0.5c0,0.1-0.1,0.3-0.1,0.4c-0.1,0.1-0.2,0.3-0.3,0.4
	c-0.4,0.3-0.7,0.5-1.2,0.5c-0.4,0-0.9-0.3-1.3-0.7c-0.1-0.1-0.2-0.2-0.3-0.3c-0.1,0-0.3-0.1-0.4,0c-0.1,0-0.2,0.1-0.3,0.1
	c-0.1,0.1-0.1,0.1-0.1,0.2c0,0.1,0,0.2,0.1,0.3c0.1,0.1,0.1,0.2,0.2,0.3l0.6,0.6c0.4,0.4,0.6,0.8,0.6,1.1c0,0.4-0.1,0.7-0.4,1
	c-0.4,0.4-0.8,0.5-1.4,0.4C170.7,66.3,170.1,65.9,169.5,65.3z M170,64.8c0.3,0.3,0.5,0.5,0.7,0.6c0.2,0.1,0.4,0.2,0.6,0.2
	c0.2,0,0.4-0.1,0.5-0.2c0.1-0.1,0.2-0.3,0.2-0.4c0-0.1,0-0.3-0.1-0.4c-0.1-0.1-0.2-0.3-0.4-0.5l-0.5-0.6c-0.1-0.2-0.3-0.3-0.4-0.3
	c-0.2-0.1-0.3-0.1-0.4-0.1c-0.1,0-0.3,0.1-0.4,0.2c-0.2,0.2-0.2,0.4-0.2,0.6C169.6,64.3,169.8,64.5,170,64.8z M172.9,62.3
	c0.2,0.2,0.4,0.4,0.7,0.4c0.2,0,0.5-0.1,0.7-0.3c0.2-0.2,0.4-0.5,0.4-0.7c0-0.2-0.1-0.5-0.3-0.7c-0.2-0.2-0.4-0.3-0.7-0.3
	c-0.2,0-0.5,0.1-0.7,0.4c-0.2,0.2-0.3,0.5-0.4,0.7C172.6,61.8,172.7,62,172.9,62.3z"/>
<path class="st1" d="M171.5,56.8c0.4,0.4,0.6,0.8,0.6,1.3c0,0.4-0.2,0.9-0.7,1.3l-2.3,2.2l-0.6-0.6l2.2-2.1c0.3-0.3,0.4-0.5,0.4-0.8
	c0-0.3-0.1-0.5-0.3-0.8c-0.3-0.4-0.7-0.5-1-0.5c-0.3,0.1-0.7,0.3-1.1,0.7l-1.8,1.7l-0.6-0.7l3.5-3.4l0.5,0.5l-0.4,0.6l0,0
	c0.2,0,0.4,0,0.6,0c0.2,0,0.4,0.1,0.5,0.2C171.2,56.5,171.3,56.7,171.5,56.8z"/>
<path class="st1" d="M167.6,52.6c0.4,0.4,0.6,0.9,0.6,1.3c0,0.4-0.2,0.8-0.6,1.2l-2.3,2.3l-0.4-0.5l0.4-0.6l0,0c-0.2,0-0.4,0-0.6,0
	c-0.2,0-0.4-0.1-0.5-0.2c-0.2-0.1-0.4-0.3-0.5-0.5c-0.2-0.2-0.3-0.4-0.4-0.7c-0.1-0.2-0.1-0.5,0-0.7c0.1-0.2,0.2-0.5,0.4-0.7
	c0.4-0.3,0.7-0.5,1.2-0.4c0.4,0.1,0.9,0.4,1.5,1l0.6,0.6l0.2-0.2c0.3-0.3,0.4-0.5,0.4-0.8c0-0.2-0.1-0.5-0.3-0.7
	c-0.2-0.2-0.4-0.3-0.6-0.5c-0.2-0.1-0.4-0.2-0.6-0.3l0.3-0.7c0.2,0.1,0.5,0.2,0.7,0.4C167.1,52.2,167.4,52.4,167.6,52.6z
	 M166.4,55.1l-0.5-0.5c-0.4-0.4-0.7-0.6-1-0.7c-0.3-0.1-0.5,0-0.7,0.2c-0.2,0.2-0.3,0.4-0.2,0.6c0,0.2,0.1,0.4,0.3,0.6
	c0.3,0.3,0.6,0.5,0.9,0.5c0.3,0,0.7-0.1,1-0.4L166.4,55.1z"/>
<path class="st1" d="M164.3,51.5c-0.5,0.5-1,0.8-1.6,1c-0.5,0.1-1.1,0.1-1.6-0.1c-0.5-0.2-1-0.6-1.5-1.1l-1.2-1.3l4.6-4.5l1.3,1.5
	c0.4,0.5,0.8,1,0.9,1.5c0.2,0.5,0.2,1,0,1.6C165.1,50.5,164.8,51,164.3,51.5z M163.6,50.8c0.4-0.4,0.7-0.8,0.8-1.2
	c0.1-0.4,0.1-0.8,0-1.1c-0.1-0.4-0.3-0.8-0.7-1.1l-0.7-0.7l-3.5,3.5l0.6,0.6c0.6,0.6,1.1,0.9,1.7,0.9
	C162.4,51.7,163,51.4,163.6,50.8z"/>
<path class="st1" d="M222.5,84.2c0.2,0.3,0.2,0.6,0.2,0.9c0,0.3-0.2,0.5-0.4,0.7c-0.2,0.1-0.3,0.1-0.5,0.1c-0.2,0-0.4-0.1-0.5-0.3
	l0,0c0.1,0.3,0.1,0.5,0,0.7c-0.1,0.2-0.2,0.4-0.4,0.5c-0.3,0.2-0.6,0.2-0.9,0.1c-0.3-0.1-0.5-0.4-0.8-0.9c-0.1-0.2-0.2-0.4-0.2-0.6
	c0-0.2-0.1-0.4-0.1-0.6l0.7-0.4c0,0.2,0,0.4,0,0.6c0,0.2,0.1,0.4,0.2,0.6c0.1,0.2,0.2,0.3,0.3,0.3c0.1,0,0.2,0,0.3,0
	c0.1-0.1,0.2-0.2,0.2-0.3c0-0.1,0-0.3-0.1-0.6l-0.2-0.4l0.6-0.3l0.2,0.3c0.1,0.3,0.3,0.4,0.4,0.4c0.1,0,0.2,0,0.3,0
	c0.1-0.1,0.1-0.1,0.2-0.2c0-0.1,0-0.2-0.1-0.3c-0.1-0.1-0.1-0.2-0.2-0.3c-0.1-0.1-0.2-0.2-0.4-0.2l0.3-0.7c0.2,0.1,0.4,0.2,0.6,0.3
	C222.2,83.8,222.4,84,222.5,84.2z"/>
<path class="st1" d="M218.5,82.1c0.3,0.5,0.3,0.9,0.2,1.3c-0.1,0.4-0.4,0.7-0.9,1l-2.6,1.5l-0.6-1.1l2.3-1.4
	c0.3-0.2,0.5-0.3,0.6-0.5c0.1-0.2,0.1-0.4,0-0.6c-0.2-0.3-0.4-0.4-0.7-0.5c-0.3,0-0.6,0.1-1,0.3l-2,1.2l-0.6-1.1l2.3-1.4
	c0.2-0.1,0.3-0.2,0.4-0.3c0.1-0.1,0.2-0.2,0.2-0.4s0-0.3-0.1-0.4c-0.1-0.2-0.3-0.3-0.4-0.4c-0.2-0.1-0.4-0.1-0.6,0
	c-0.2,0.1-0.5,0.2-0.8,0.3l-1.9,1.1l-0.6-1.1l3.9-2.3l0.5,0.9l-0.4,0.5l0,0.1c0.2,0,0.3,0,0.5,0.1c0.2,0.1,0.3,0.2,0.4,0.3
	c0.1,0.1,0.2,0.3,0.3,0.4c0.2,0.3,0.3,0.6,0.3,0.8c0,0.3,0,0.5-0.2,0.7l0.1,0.1c0.3,0,0.5,0.1,0.7,0.3
	C218.2,81.7,218.4,81.9,218.5,82.1z"/>
<path class="st1" d="M216.7,76l-6.3,1.1l-0.6-1l6.3-1.1L216.7,76z"/>
<path class="st1" d="M206.8,74.5c-0.3-0.6-0.5-1.1-0.4-1.5c0-0.4,0.2-0.7,0.6-0.9c0.2-0.1,0.5-0.2,0.7-0.1c0.2,0.1,0.5,0.2,0.7,0.5
	c0-0.1,0-0.3,0.1-0.4c0.1-0.2,0.2-0.3,0.3-0.3c0.2-0.1,0.3-0.1,0.4-0.1c0.2,0,0.3,0.1,0.5,0.2c0-0.3,0-0.5,0.1-0.8
	c0.1-0.2,0.3-0.4,0.6-0.6c0.3-0.2,0.6-0.3,0.8-0.2c0.3,0,0.5,0.1,0.8,0.3c0.2,0.2,0.5,0.5,0.7,0.8c0,0.1,0.1,0.2,0.1,0.3
	c0,0.1,0.1,0.2,0.1,0.3c0,0.1,0.1,0.2,0.1,0.2l0.8,1.4l-0.5,0.3l-0.5-0.5c-0.1,0.1-0.1,0.2-0.2,0.3c-0.1,0.1-0.2,0.2-0.3,0.2
	c-0.4,0.3-0.8,0.3-1.2,0.1c-0.4-0.2-0.8-0.5-1.1-1.1c-0.1-0.1-0.1-0.3-0.2-0.4c-0.1,0-0.1,0-0.2,0c-0.1,0-0.1,0-0.2,0
	c-0.1,0-0.1,0.1-0.1,0.1c0,0.1,0,0.2,0,0.3c0,0.1,0.1,0.2,0.2,0.4l0.4,0.7c0.2,0.5,0.3,0.9,0.3,1.2c-0.1,0.3-0.3,0.6-0.6,0.8
	c-0.5,0.3-0.9,0.3-1.4,0C207.6,75.8,207.2,75.3,206.8,74.5z M207.5,74.2c0.1,0.3,0.3,0.5,0.5,0.6c0.2,0.2,0.3,0.3,0.4,0.3
	c0.1,0.1,0.3,0,0.4,0c0.1-0.1,0.2-0.1,0.2-0.2c0-0.1,0-0.2,0-0.3c0-0.1-0.1-0.3-0.2-0.5l-0.3-0.6c-0.1-0.1-0.2-0.2-0.3-0.3
	c-0.1-0.1-0.2-0.1-0.3-0.2c-0.1,0-0.2,0-0.3,0.1c-0.1,0.1-0.2,0.2-0.2,0.4C207.3,73.7,207.3,73.9,207.5,74.2z M210.6,72.6
	c0.1,0.2,0.3,0.3,0.4,0.4c0.2,0,0.4,0,0.6-0.2c0.2-0.1,0.4-0.3,0.4-0.5c0.1-0.2,0-0.4-0.1-0.6c-0.1-0.2-0.3-0.3-0.4-0.4
	c-0.2,0-0.4,0-0.6,0.2c-0.2,0.1-0.4,0.3-0.4,0.5C210.4,72.2,210.5,72.4,210.6,72.6z"/>
<path class="st1" d="M211.1,68.8l-3.9,2.3l-0.5-0.9l0.4-0.5l0-0.1c-0.2,0-0.3,0-0.5,0c-0.1,0-0.3-0.1-0.4-0.2
	c-0.1-0.1-0.2-0.2-0.3-0.3c-0.1-0.1-0.1-0.3-0.1-0.5c0-0.2,0-0.3,0.1-0.4l0,0c0,0-0.1,0.1-0.2,0.2c-0.1,0.1-0.2,0.1-0.3,0.2
	c-0.1,0.1-0.2,0.1-0.3,0.2l-1.1,0.7l-0.6-1.1l5.7-3.4l0.6,1.1l-2.3,1.4c-0.3,0.2-0.5,0.3-0.6,0.5c-0.1,0.2-0.1,0.4,0.1,0.6
	c0.1,0.2,0.3,0.4,0.4,0.4c0.2,0.1,0.4,0.1,0.6,0c0.2-0.1,0.5-0.2,0.8-0.3l1.9-1.1L211.1,68.8z"/>
<path class="st1" d="M208.2,64.1c-0.6,0.4-1.1,0.6-1.7,0.8c-0.5,0.2-1,0.3-1.4,0.2c-0.4,0-0.8-0.1-1.2-0.4c-0.4-0.2-0.7-0.6-0.9-1.1
	c-0.3-0.6-0.5-1.2-0.4-1.8c0.1-0.6,0.4-1.1,0.8-1.6c0.5-0.5,1.1-1,1.9-1.5c0.8-0.5,1.5-0.8,2.2-1c0.7-0.2,1.3-0.1,1.8,0.1
	c0.5,0.2,1,0.6,1.3,1.3c0.3,0.6,0.5,1.2,0.4,1.8c-0.1,0.6-0.4,1.1-0.8,1.7C209.7,63.2,209,63.7,208.2,64.1z M206.2,60.4
	c-0.6,0.3-1,0.6-1.4,0.9c-0.3,0.3-0.6,0.6-0.7,0.8c-0.1,0.3-0.1,0.5,0.1,0.8c0.1,0.3,0.4,0.4,0.6,0.5c0.3,0,0.6,0,1-0.2
	c0.4-0.2,0.9-0.4,1.5-0.7c0.6-0.3,1-0.6,1.3-0.9c0.3-0.3,0.6-0.6,0.7-0.8c0.1-0.3,0.1-0.5-0.1-0.8c-0.1-0.3-0.4-0.4-0.6-0.5
	c-0.3,0-0.6,0-1,0.2C207.2,59.8,206.8,60.1,206.2,60.4z"/>
<path class="st1" d="M204.5,54.9c0.3,0.5,0.4,0.9,0.4,1.4c0,0.5-0.1,0.9-0.3,1.3c-0.2,0.4-0.6,0.8-1.1,1c-0.5,0.3-1,0.5-1.6,0.5
	c-0.5,0-1-0.2-1.4-0.5c-0.5-0.3-0.9-0.8-1.2-1.5c-0.2-0.4-0.4-0.8-0.5-1.2c-0.1-0.4-0.2-0.8-0.2-1.1L200,54c0,0.3,0.1,0.7,0.2,1.2
	c0.1,0.4,0.3,0.8,0.4,1.1c0.2,0.3,0.4,0.6,0.6,0.7c0.2,0.2,0.4,0.3,0.7,0.3c0.2,0,0.5-0.1,0.8-0.2c0.4-0.2,0.6-0.5,0.6-0.9
	c0.1-0.4-0.1-0.8-0.3-1.3c-0.1-0.2-0.2-0.4-0.4-0.6c-0.2-0.2-0.3-0.3-0.4-0.5l0-0.8l3.9-1.9l2.3,4.2l-1.3,0.8l-1.5-2.7l-1.5,0.7
	c0.1,0.1,0.2,0.2,0.3,0.3C204.3,54.4,204.4,54.6,204.5,54.9z"/>
<path class="st1" d="M197.9,54.1l-2.9-5.3l1.1-0.6l2.9,0.8c0.6,0.2,1.1,0.3,1.5,0.4c0.4,0.1,0.7,0.1,1,0.1c0.3,0,0.5-0.1,0.8-0.2
	c0.3-0.2,0.5-0.4,0.5-0.6c0.1-0.3,0-0.5-0.1-0.8c-0.2-0.3-0.4-0.5-0.7-0.7c-0.3-0.2-0.6-0.4-1-0.5l0.5-1.5c0.3,0.1,0.6,0.2,0.9,0.4
	c0.3,0.2,0.6,0.4,0.9,0.6c0.3,0.3,0.5,0.6,0.8,1.1c0.3,0.5,0.4,1,0.4,1.4c0,0.5-0.1,0.9-0.3,1.3c-0.2,0.4-0.5,0.7-0.9,0.9
	c-0.4,0.2-0.8,0.4-1.2,0.4c-0.4,0-0.9,0-1.4-0.1c-0.5-0.1-1.1-0.3-1.7-0.5l-1.4-0.5l-0.1,0l1.8,3.3L197.9,54.1z"/>
<path class="st3" d="M112.2,64c9.5,0.2,19,3.1,26.8,7.6l11.4-20.5l9-17c1-2,0.4-4.4-1.5-5.4c-12.6-6.8-26.9-11.1-41.8-11.8
	c-2.1-0.1-3.9,1.7-3.9,4v19.3V64z"/>
<path class="st1" d="M135.5,42.6l-0.4,1.9c0,0.2-0.1,0.3-0.1,0.4c0,0.1-0.1,0.3-0.1,0.4l0.1,0c0.1-0.1,0.3-0.3,0.5-0.3
	c0.2-0.1,0.4-0.1,0.5-0.1c0.2,0,0.4,0,0.6,0c0.4,0.1,0.7,0.2,0.9,0.4c0.2,0.2,0.4,0.4,0.5,0.7c0.1,0.3,0.1,0.6,0,1.1l-0.7,3.2
	l-0.8-0.2l0.6-3.1c0.1-0.4,0.1-0.7-0.1-0.9c-0.1-0.2-0.4-0.4-0.7-0.5c-0.3-0.1-0.6-0.1-0.8,0c-0.2,0.1-0.4,0.3-0.5,0.5
	s-0.2,0.6-0.3,0.9l-0.5,2.5l-0.9-0.2l1.4-6.9L135.5,42.6z"/>
<path class="st1" d="M129.3,50.7c-0.6-0.1-1.1-0.4-1.4-0.7c-0.3-0.3-0.4-0.7-0.3-1.1c0.1-0.3,0.2-0.5,0.4-0.7
	c0.2-0.2,0.5-0.3,0.9-0.3c-0.1-0.1-0.2-0.2-0.3-0.3c-0.1-0.1-0.1-0.3,0-0.4c0-0.2,0.1-0.3,0.2-0.4c0.1-0.1,0.3-0.2,0.5-0.3
	c-0.2-0.2-0.4-0.4-0.5-0.7c-0.1-0.3-0.1-0.6,0-0.9c0.1-0.4,0.2-0.6,0.4-0.9c0.2-0.2,0.4-0.4,0.7-0.4c0.3-0.1,0.6-0.1,1,0
	c0.1,0,0.2,0,0.3,0.1c0.1,0,0.2,0.1,0.3,0.1c0.1,0,0.1,0.1,0.2,0.1l1.6,0.4l-0.1,0.5l-0.9-0.1c0.1,0.1,0.1,0.3,0.1,0.4
	c0,0.2,0,0.3,0,0.5c-0.1,0.5-0.3,0.9-0.7,1.1c-0.4,0.2-0.9,0.3-1.4,0.1c-0.1,0-0.3-0.1-0.4-0.1c-0.1,0-0.2,0.1-0.3,0.2
	c-0.1,0.1-0.1,0.2-0.2,0.3c0,0.1,0,0.2,0,0.2c0,0.1,0.1,0.1,0.2,0.2c0.1,0,0.2,0.1,0.4,0.1l0.8,0.2c0.5,0.1,0.9,0.3,1.1,0.6
	c0.2,0.3,0.3,0.6,0.2,1.1c-0.1,0.5-0.4,0.9-0.9,1.1C130.8,50.9,130.1,50.9,129.3,50.7z M129.5,50.1c0.4,0.1,0.7,0.1,0.9,0.1
	c0.3,0,0.5-0.1,0.6-0.2c0.2-0.1,0.3-0.3,0.3-0.5c0-0.2,0-0.3,0-0.4c-0.1-0.1-0.2-0.2-0.3-0.3c-0.2-0.1-0.3-0.1-0.6-0.2l-0.8-0.2
	c-0.2,0-0.4,0-0.5,0c-0.2,0-0.3,0.1-0.4,0.2c-0.1,0.1-0.2,0.2-0.2,0.4c-0.1,0.2,0,0.5,0.2,0.6C128.8,49.8,129.1,50,129.5,50.1z
	 M130.4,46.3c0.3,0.1,0.6,0,0.8-0.1c0.2-0.1,0.3-0.4,0.4-0.7c0.1-0.3,0-0.6-0.1-0.8c-0.1-0.2-0.3-0.3-0.6-0.4
	c-0.3-0.1-0.6,0-0.8,0.1c-0.2,0.1-0.3,0.4-0.4,0.7c-0.1,0.3,0,0.6,0.1,0.8C129.9,46.1,130.1,46.2,130.4,46.3z"/>
<path class="st1" d="M128,43l-1,4.9l-0.9-0.2l1-4.9L128,43z M127.9,41.1c0.1,0,0.2,0.1,0.3,0.2c0.1,0.1,0.1,0.2,0.1,0.4
	c0,0.2-0.1,0.3-0.2,0.4c-0.1,0.1-0.2,0.1-0.4,0c-0.1,0-0.2-0.1-0.3-0.2c-0.1-0.1-0.1-0.3-0.1-0.4c0-0.2,0.1-0.3,0.2-0.4
	C127.7,41.1,127.8,41.1,127.9,41.1z"/>
<path class="st1" d="M124.6,47.4l-0.9-0.2l0.6-3l-3.1-0.7l-0.6,3l-0.9-0.2l1.3-6.5L122,40l-0.6,2.7l3.1,0.7l0.6-2.7l0.9,0.2
	L124.6,47.4z"/>
<path class="st1" d="M136.3,34l0.9,0.2l0.4,3c0,0.2,0,0.3,0.1,0.5c0,0.1,0,0.3,0,0.4c0,0.1,0,0.3,0,0.4l0,0c0.1-0.1,0.2-0.3,0.3-0.5
	c0.1-0.2,0.2-0.4,0.3-0.6l1.5-2.6l0.9,0.2l-3.2,5.1c-0.2,0.3-0.4,0.5-0.6,0.7c-0.2,0.2-0.4,0.3-0.7,0.4c-0.2,0.1-0.5,0.1-0.8,0
	c-0.1,0-0.3-0.1-0.4-0.1c-0.1,0-0.2-0.1-0.3-0.1l0.1-0.7c0.1,0,0.1,0.1,0.2,0.1c0.1,0,0.2,0.1,0.3,0.1c0.2,0,0.3,0,0.5,0
	c0.1,0,0.3-0.1,0.4-0.2c0.1-0.1,0.2-0.2,0.3-0.4l0.3-0.5L136.3,34z"/>
<path class="st1" d="M135.6,33.8c0.1,0,0.2,0,0.3,0.1c0.1,0,0.2,0.1,0.2,0.1l-0.3,0.8c-0.1,0-0.1-0.1-0.2-0.1
	c-0.1,0-0.2-0.1-0.2-0.1c-0.2,0-0.4,0-0.5,0c-0.2,0-0.3,0.1-0.5,0.2c-0.2,0.1-0.3,0.2-0.4,0.4c-0.1,0.2-0.2,0.4-0.2,0.6l-0.5,2.6
	l-0.9-0.2l1-4.9l0.7,0.2l-0.1,0.9l0,0c0.1-0.2,0.3-0.3,0.4-0.4c0.2-0.1,0.4-0.2,0.5-0.2C135.2,33.7,135.4,33.7,135.6,33.8z"/>
<path class="st1" d="M130.2,32.6c0.4,0.1,0.7,0.3,1,0.5c0.3,0.2,0.4,0.5,0.5,0.9c0.1,0.4,0.1,0.8,0,1.2l-0.1,0.5l-3.2-0.7
	c-0.1,0.5-0.1,1,0.1,1.3c0.2,0.3,0.5,0.5,1,0.6c0.3,0.1,0.6,0.1,0.8,0.1c0.2,0,0.5,0,0.8-0.1l-0.2,0.7c-0.3,0.1-0.5,0.1-0.8,0.1
	c-0.2,0-0.5,0-0.9-0.1c-0.5-0.1-0.8-0.3-1.1-0.5c-0.3-0.3-0.5-0.6-0.6-1c-0.1-0.4-0.1-0.9,0-1.4c0.1-0.5,0.3-1,0.5-1.3
	c0.3-0.3,0.6-0.6,0.9-0.7C129.4,32.5,129.8,32.5,130.2,32.6z M130.1,33.3c-0.3-0.1-0.6,0-0.9,0.2c-0.3,0.2-0.5,0.5-0.6,0.9l2.3,0.5
	c0.1-0.3,0.1-0.5,0-0.7c0-0.2-0.1-0.4-0.3-0.6C130.5,33.5,130.4,33.3,130.1,33.3z"/>
<path class="st1" d="M128,30.5l-3.5,6l-0.9-0.2l-0.9-6.9l0.9,0.2l0.5,4.5c0,0.2,0,0.3,0,0.5c0,0.2,0,0.3,0,0.5c0,0.2,0,0.3,0,0.5
	c0.1-0.1,0.1-0.3,0.2-0.4c0.1-0.2,0.1-0.3,0.2-0.5c0.1-0.2,0.2-0.3,0.2-0.4l2.2-3.8L128,30.5z"/>
<path class="st1" d="M186.5,30.6c0.3,0.2,0.5,0.4,0.5,0.7c0.1,0.3,0,0.5-0.1,0.8c-0.1,0.2-0.3,0.3-0.4,0.3c-0.2,0-0.4,0-0.6,0l0,0
	c0.2,0.2,0.3,0.4,0.3,0.6c0,0.2,0,0.4-0.1,0.6c-0.2,0.3-0.4,0.4-0.7,0.4c-0.3,0-0.7-0.1-1.1-0.4c-0.2-0.1-0.3-0.3-0.4-0.4
	c-0.1-0.1-0.2-0.3-0.3-0.5l0.5-0.7c0.1,0.2,0.2,0.4,0.3,0.6c0.1,0.2,0.2,0.3,0.4,0.4c0.2,0.1,0.3,0.2,0.4,0.2c0.1,0,0.2-0.1,0.3-0.2
	c0.1-0.1,0.1-0.2,0.1-0.3c0-0.1-0.1-0.3-0.4-0.4l-0.4-0.3l0.4-0.5l0.3,0.2c0.2,0.2,0.4,0.2,0.5,0.2c0.1,0,0.2-0.1,0.3-0.2
	c0.1-0.1,0.1-0.2,0.1-0.3c0-0.1-0.1-0.2-0.2-0.3c-0.1-0.1-0.2-0.1-0.3-0.2c-0.1,0-0.3,0-0.5,0l0-0.7c0.2,0,0.4,0,0.6,0.1
	C186.1,30.4,186.3,30.5,186.5,30.6z"/>
<path class="st1" d="M182,30.5c0.4,0.3,0.7,0.7,0.7,1c0.1,0.4-0.1,0.8-0.4,1.3l-1.7,2.5l-1-0.8l1.5-2.2c0.2-0.3,0.3-0.5,0.3-0.7
	c0-0.2-0.1-0.4-0.3-0.5c-0.3-0.2-0.5-0.2-0.8-0.1c-0.2,0.1-0.5,0.4-0.8,0.7l-1.3,1.9l-1-0.8l1.5-2.2c0.1-0.2,0.2-0.4,0.3-0.5
	c0-0.2,0-0.3,0-0.4c0-0.1-0.1-0.2-0.2-0.3c-0.2-0.1-0.4-0.2-0.5-0.2c-0.2,0-0.3,0.1-0.5,0.3c-0.2,0.2-0.4,0.4-0.5,0.6l-1.2,1.8
	l-1-0.8l2.7-3.8l0.8,0.6l-0.2,0.6l0.1,0c0.2-0.1,0.3-0.1,0.5-0.1c0.2,0,0.3,0,0.5,0.1c0.2,0.1,0.3,0.1,0.5,0.3
	c0.3,0.2,0.5,0.4,0.6,0.7c0.1,0.2,0.2,0.5,0.1,0.8l0.1,0.1c0.2-0.1,0.5-0.1,0.8-0.1C181.6,30.2,181.8,30.3,182,30.5z"/>
<path class="st1" d="M177.9,25.7l-5.3,3.7l-0.9-0.7L177,25L177.9,25.7z"/>
<path class="st1" d="M168.3,28.7c-0.5-0.4-0.8-0.8-1-1.2c-0.1-0.4-0.1-0.8,0.1-1.1c0.2-0.2,0.4-0.4,0.6-0.4c0.2-0.1,0.5,0,0.8,0.1
	c-0.1-0.1-0.1-0.3-0.1-0.4c0-0.2,0-0.3,0.1-0.4c0.1-0.1,0.2-0.2,0.4-0.3c0.1,0,0.3,0,0.6,0c-0.1-0.2-0.2-0.5-0.2-0.8
	c0-0.3,0.1-0.5,0.3-0.8c0.2-0.3,0.4-0.5,0.7-0.6c0.3-0.1,0.5-0.1,0.8-0.1c0.3,0.1,0.6,0.2,0.9,0.5c0.1,0.1,0.1,0.1,0.2,0.2
	c0.1,0.1,0.2,0.1,0.2,0.2c0.1,0.1,0.1,0.1,0.1,0.1l1.3,1l-0.4,0.5l-0.7-0.3c0,0.1,0,0.2-0.1,0.4c0,0.1-0.1,0.2-0.2,0.3
	c-0.3,0.4-0.6,0.6-1.1,0.7c-0.4,0-0.9-0.1-1.4-0.5c-0.1-0.1-0.2-0.2-0.3-0.3c-0.1,0-0.1,0-0.2,0c-0.1,0-0.1,0.1-0.1,0.1
	c0,0.1,0,0.1,0,0.2c0,0.1,0.1,0.1,0.1,0.2c0.1,0.1,0.2,0.2,0.3,0.3l0.6,0.5c0.4,0.3,0.7,0.6,0.7,1c0.1,0.3,0,0.7-0.2,1
	c-0.3,0.4-0.7,0.7-1.3,0.6C169.6,29.5,169,29.2,168.3,28.7z M168.8,28c0.2,0.2,0.5,0.3,0.7,0.4c0.2,0.1,0.4,0.1,0.5,0.1
	c0.2,0,0.3-0.1,0.3-0.2c0.1-0.1,0.1-0.2,0.1-0.3c0-0.1-0.1-0.2-0.2-0.3c-0.1-0.1-0.2-0.2-0.4-0.3l-0.5-0.4c-0.1-0.1-0.2-0.2-0.4-0.2
	c-0.1,0-0.2,0-0.3,0c-0.1,0-0.2,0.1-0.3,0.2c-0.1,0.1-0.1,0.3,0,0.5C168.4,27.7,168.6,27.9,168.8,28z M171,25.2
	c0.2,0.1,0.4,0.2,0.5,0.1c0.2-0.1,0.3-0.2,0.5-0.4c0.2-0.2,0.2-0.4,0.2-0.6c0-0.2-0.1-0.3-0.3-0.5c-0.2-0.1-0.4-0.2-0.5-0.1
	c-0.2,0-0.3,0.2-0.5,0.4c-0.1,0.2-0.2,0.4-0.2,0.6C170.7,24.9,170.8,25.1,171,25.2z"/>
<path class="st1" d="M170,21.6l-2.7,3.8l-0.8-0.6l0.2-0.6l0,0c-0.1,0.1-0.3,0.1-0.4,0.2c-0.1,0-0.3,0-0.4,0s-0.3-0.1-0.4-0.2
	c-0.1-0.1-0.2-0.2-0.3-0.4c-0.1-0.1-0.1-0.3-0.1-0.4l0,0c0,0.1-0.1,0.1-0.1,0.2c-0.1,0.1-0.1,0.2-0.2,0.3c-0.1,0.1-0.1,0.2-0.2,0.3
	l-0.8,1.1l-1-0.8l3.8-5.5l1,0.8L166,22c-0.2,0.3-0.3,0.5-0.3,0.7c0,0.2,0.1,0.4,0.3,0.6c0.2,0.1,0.4,0.2,0.6,0.2
	c0.2,0,0.4-0.1,0.5-0.2c0.2-0.2,0.4-0.4,0.6-0.6l1.2-1.8L170,21.6z"/>
<path class="st1" d="M165.5,18.6c-0.4,0.6-0.8,1.1-1.2,1.4c-0.4,0.4-0.8,0.7-1.2,0.8c-0.4,0.2-0.8,0.2-1.2,0.2
	c-0.4-0.1-0.9-0.3-1.3-0.6c-0.6-0.4-0.9-0.9-1.1-1.5c-0.2-0.6-0.1-1.2,0.1-1.9c0.2-0.7,0.6-1.4,1.1-2.2c0.5-0.8,1.1-1.4,1.6-1.8
	c0.5-0.4,1.1-0.7,1.6-0.7c0.6,0,1.1,0.2,1.7,0.6c0.5,0.4,0.9,0.9,1,1.5c0.2,0.6,0.1,1.2-0.1,1.9C166.4,17.1,166,17.8,165.5,18.6z
	 M162.1,16.1c-0.4,0.5-0.7,1-0.9,1.4c-0.2,0.4-0.3,0.8-0.3,1c0,0.3,0.1,0.5,0.4,0.7c0.2,0.2,0.5,0.2,0.8,0.2
	c0.3-0.1,0.6-0.3,0.9-0.6c0.3-0.3,0.7-0.8,1-1.3c0.4-0.5,0.7-1,0.9-1.4c0.2-0.4,0.3-0.8,0.3-1c0-0.3-0.1-0.5-0.4-0.7
	c-0.2-0.2-0.5-0.2-0.8-0.1c-0.3,0.1-0.6,0.3-0.9,0.6C162.9,15.1,162.5,15.6,162.1,16.1z"/>
<path class="st1" d="M157.6,18.1l-4.8-3.6l0.7-1.1l3-0.5c0.6-0.1,1.1-0.2,1.5-0.3c0.4-0.1,0.7-0.2,0.9-0.3c0.2-0.1,0.4-0.3,0.6-0.6
	c0.2-0.3,0.3-0.6,0.2-0.8c-0.1-0.3-0.2-0.5-0.5-0.7c-0.3-0.2-0.6-0.3-0.9-0.4c-0.3-0.1-0.7-0.1-1.2,0L157,8.3c0.3,0,0.6,0,1,0
	c0.3,0,0.7,0.1,1,0.2c0.4,0.1,0.7,0.3,1.2,0.6c0.5,0.3,0.8,0.7,1,1.1c0.2,0.4,0.3,0.8,0.3,1.3c0,0.4-0.2,0.8-0.4,1.2
	c-0.3,0.4-0.6,0.7-1,0.9c-0.4,0.2-0.8,0.4-1.3,0.5c-0.5,0.1-1.1,0.2-1.8,0.3l-1.5,0.2l0,0.1l3,2.2L157.6,18.1z"/>
<path class="st1" d="M150.8,13.1l-1.5-1.1l2.9-4.1c0.1-0.1,0.2-0.3,0.3-0.4c0.1-0.2,0.2-0.3,0.4-0.5c0.1-0.2,0.2-0.3,0.4-0.5
	c-0.1,0-0.2,0-0.4,0.1c-0.2,0-0.3,0-0.5,0.1l-1.2,0.1l-0.1-1.4l3.5-0.2l1.2,0.9L150.8,13.1z"/>
<linearGradient id="SVGID_00000005237661316350517720000003501433795725694617_" gradientUnits="userSpaceOnUse" x1="84.2111" y1="104.6059" x2="96.5564" y2="44.6997" gradientTransform="matrix(1 0 0 -1 0 121.5695)">
	<stop  offset="0.4924" style="stop-color:#E4C73B"/>
	<stop  offset="1" style="stop-color:#7E6E21"/>
</linearGradient>
<path style="fill:url(#SVGID_00000005237661316350517720000003501433795725694617_);" d="M82.1,71.3c8.1-4.5,20.2-7.3,30.1-7.4
	c0,0,0-14.4,0-23.6c0-6.1,0-14.5,0-19.5c0-2.3-1.8-4.1-4-4c-15.8,0.8-32.5,5.2-45.8,12c-2,1-2.7,3.6-1.5,5.5l9.6,16.8L82.1,71.3z"/>
<path class="st1" d="M92.5,35.2l0.5,1.9c0,0.1,0.1,0.3,0.1,0.4c0,0.1,0.1,0.3,0.1,0.4l0,0c0.1-0.2,0.1-0.4,0.2-0.5
	c0.1-0.2,0.3-0.3,0.4-0.4c0.2-0.1,0.4-0.2,0.6-0.3c0.4-0.1,0.7-0.1,1-0.1c0.3,0,0.5,0.2,0.7,0.4c0.2,0.2,0.4,0.5,0.5,0.9l0.9,3.1
	l-0.8,0.2l-0.8-3c-0.1-0.4-0.3-0.6-0.5-0.8c-0.2-0.1-0.5-0.2-0.8-0.1c-0.3,0.1-0.6,0.2-0.7,0.4c-0.2,0.2-0.2,0.4-0.2,0.7
	c0,0.3,0,0.6,0.1,1l0.7,2.4l-0.8,0.3l-1.9-6.8L92.5,35.2z"/>
<path class="st1" d="M90.8,45.3c-0.6,0.2-1.1,0.2-1.5,0.1c-0.4-0.1-0.6-0.4-0.8-0.8c-0.1-0.3-0.1-0.6,0.1-0.8
	c0.1-0.3,0.3-0.5,0.6-0.6c-0.1,0-0.3-0.1-0.4-0.2c-0.1-0.1-0.2-0.2-0.2-0.4c0-0.2,0-0.3,0-0.5c0.1-0.2,0.2-0.3,0.3-0.5
	c-0.3,0-0.5-0.1-0.7-0.3c-0.2-0.2-0.4-0.5-0.5-0.8c-0.1-0.3-0.1-0.7,0-0.9c0.1-0.3,0.2-0.5,0.5-0.7c0.2-0.2,0.5-0.4,0.9-0.5
	c0.1,0,0.2,0,0.3-0.1c0.1,0,0.2,0,0.3,0c0.1,0,0.2,0,0.2,0l1.6-0.5l0.1,0.5l-0.8,0.4c0.1,0.1,0.2,0.2,0.3,0.3
	c0.1,0.1,0.2,0.3,0.2,0.5c0.1,0.5,0.1,0.9-0.2,1.3c-0.2,0.4-0.6,0.6-1.2,0.8c-0.1,0-0.3,0.1-0.4,0.1c-0.1,0.1-0.2,0.2-0.2,0.3
	c0,0.1,0,0.2,0,0.3c0,0.1,0.1,0.1,0.1,0.2c0.1,0,0.2,0.1,0.3,0c0.1,0,0.2,0,0.4-0.1l0.8-0.2c0.5-0.2,0.9-0.2,1.2,0
	c0.3,0.1,0.6,0.4,0.7,0.8c0.1,0.5,0.1,1-0.3,1.4C92.1,44.8,91.5,45.1,90.8,45.3z M90.6,44.7c0.4-0.1,0.6-0.2,0.9-0.4
	c0.2-0.1,0.4-0.3,0.5-0.5c0.1-0.2,0.1-0.4,0-0.5c0-0.2-0.1-0.3-0.2-0.4c-0.1-0.1-0.2-0.1-0.4-0.1c-0.2,0-0.4,0.1-0.6,0.1L90,43.2
	c-0.2,0.1-0.4,0.1-0.5,0.2c-0.1,0.1-0.2,0.2-0.3,0.4c0,0.1,0,0.3,0,0.5c0.1,0.2,0.2,0.4,0.5,0.5C89.9,44.8,90.2,44.8,90.6,44.7z
	 M89.7,40.9c0.3-0.1,0.5-0.2,0.6-0.5c0.1-0.2,0.1-0.5,0-0.8c-0.1-0.3-0.2-0.6-0.4-0.7c-0.2-0.1-0.5-0.1-0.8,0
	c-0.3,0.1-0.5,0.2-0.6,0.5c-0.1,0.2-0.1,0.5,0,0.8c0.1,0.3,0.2,0.5,0.4,0.6C89.2,40.9,89.4,41,89.7,40.9z"/>
<path class="st1" d="M86.1,39.3l1.3,4.8l-0.8,0.3l-1.3-4.8L86.1,39.3z M85.2,37.6c0.1,0,0.3,0,0.4,0c0.1,0.1,0.2,0.2,0.3,0.4
	c0.1,0.2,0,0.3,0,0.4c-0.1,0.1-0.2,0.2-0.3,0.2c-0.1,0-0.3,0-0.4,0c-0.1-0.1-0.2-0.2-0.2-0.4c-0.1-0.2,0-0.3,0-0.4
	C84.9,37.7,85,37.6,85.2,37.6z"/>
<path class="st1" d="M85.1,44.7L84.2,45l-0.8-2.9l-3,0.9l0.8,2.9l-0.9,0.3l-1.8-6.3l0.9-0.3l0.7,2.6l3-0.9l-0.7-2.6l0.9-0.3
	L85.1,44.7z"/>
<path class="st1" d="M127.6,2.1c0.3,0,0.6,0.1,0.8,0.3c0.2,0.2,0.3,0.4,0.3,0.7c0,0.2-0.1,0.4-0.2,0.5c-0.1,0.1-0.3,0.2-0.5,0.3
	l0,0.1c0.3,0.1,0.5,0.2,0.6,0.3c0.1,0.2,0.2,0.3,0.2,0.5c0,0.3-0.1,0.6-0.4,0.8c-0.2,0.2-0.6,0.3-1.1,0.3c-0.2,0-0.4,0-0.6-0.1
	c-0.2-0.1-0.4-0.1-0.5-0.2l0-0.8c0.2,0.1,0.4,0.2,0.5,0.3c0.2,0.1,0.4,0.1,0.6,0.1c0.2,0,0.3,0,0.4-0.1c0.1-0.1,0.1-0.2,0.1-0.3
	c0-0.1,0-0.2-0.1-0.3c-0.1-0.1-0.3-0.1-0.5-0.1l-0.5,0l0-0.7l0.4,0c0.3,0,0.5,0,0.5-0.1c0.1-0.1,0.1-0.2,0.1-0.3
	c0-0.1,0-0.2-0.1-0.3c-0.1-0.1-0.2-0.1-0.3-0.1c-0.1,0-0.2,0-0.4,0.1c-0.1,0.1-0.2,0.1-0.4,0.2l-0.4-0.6c0.2-0.1,0.4-0.2,0.6-0.3
	C127,2.1,127.3,2.1,127.6,2.1z"/>
<path class="st1" d="M123.8,4.6c0.5,0,0.9,0.2,1.2,0.4c0.3,0.3,0.4,0.7,0.4,1.3l0,3.1l-1.2,0l0-2.8c0-0.3,0-0.6-0.2-0.8
	c-0.1-0.2-0.3-0.3-0.5-0.3c-0.3,0-0.6,0.1-0.7,0.4c-0.1,0.2-0.2,0.6-0.2,1l0,2.4l-1.2,0l0-2.8c0-0.2,0-0.4-0.1-0.6
	c0-0.2-0.1-0.3-0.2-0.3c-0.1-0.1-0.2-0.1-0.4-0.1c-0.2,0-0.4,0.1-0.5,0.2c-0.1,0.1-0.2,0.3-0.3,0.5c-0.1,0.2-0.1,0.5-0.1,0.9l0,2.2
	l-1.2,0l0.1-4.7l0.9,0l0.2,0.6l0.1,0c0.1-0.2,0.2-0.3,0.4-0.4c0.1-0.1,0.3-0.2,0.5-0.2c0.2,0,0.3-0.1,0.5-0.1c0.3,0,0.6,0.1,0.8,0.2
	c0.2,0.1,0.4,0.3,0.5,0.5l0.1,0c0.1-0.2,0.3-0.4,0.6-0.5C123.3,4.6,123.5,4.6,123.8,4.6z"/>
<path class="st1" d="M117.8,3.1l-2.3,6.2l-1.1,0l2.3-6.2L117.8,3.1z"/>
<path class="st1" d="M111.5,11.3c-0.6,0-1.1-0.1-1.5-0.4c-0.3-0.2-0.5-0.6-0.5-1c0-0.3,0.1-0.5,0.3-0.7c0.2-0.2,0.4-0.3,0.8-0.4
	c-0.1-0.1-0.2-0.2-0.3-0.3c-0.1-0.1-0.1-0.3-0.1-0.4c0-0.2,0.1-0.3,0.2-0.4c0.1-0.1,0.2-0.2,0.4-0.3c-0.2-0.1-0.4-0.3-0.6-0.5
	C110.1,6.6,110,6.3,110,6c0-0.3,0.1-0.6,0.2-0.9c0.1-0.2,0.4-0.4,0.6-0.5c0.3-0.1,0.6-0.2,1-0.2c0.1,0,0.2,0,0.3,0
	c0.1,0,0.2,0,0.3,0c0.1,0,0.2,0,0.2,0l1.6,0l0,0.7l-0.7,0.2c0.1,0.1,0.1,0.2,0.1,0.3c0,0.1,0,0.2,0,0.4c0,0.5-0.2,0.9-0.5,1.2
	c-0.3,0.3-0.8,0.4-1.4,0.4c-0.1,0-0.3,0-0.4,0c-0.1,0-0.1,0.1-0.1,0.2c0,0.1,0,0.1-0.1,0.2c0,0.1,0,0.1,0.1,0.2
	c0.1,0,0.1,0.1,0.2,0.1c0.1,0,0.2,0,0.4,0l0.8,0c0.5,0,0.9,0.1,1.1,0.4c0.3,0.2,0.4,0.6,0.4,1c0,0.6-0.2,1-0.7,1.3
	C113,11.2,112.4,11.3,111.5,11.3z M111.6,10.5c0.3,0,0.5,0,0.8-0.1c0.2-0.1,0.4-0.1,0.5-0.2c0.1-0.1,0.2-0.2,0.2-0.4
	c0-0.1,0-0.2-0.1-0.3c-0.1-0.1-0.2-0.1-0.3-0.1c-0.1,0-0.3,0-0.5,0l-0.6,0c-0.2,0-0.3,0-0.4,0.1c-0.1,0-0.2,0.1-0.3,0.2
	c-0.1,0.1-0.1,0.2-0.1,0.3c0,0.2,0.1,0.3,0.2,0.4C111.1,10.4,111.3,10.5,111.6,10.5z M111.8,6.9c0.2,0,0.4-0.1,0.5-0.2
	c0.1-0.1,0.2-0.4,0.2-0.6c0-0.3,0-0.5-0.2-0.6c-0.1-0.1-0.3-0.2-0.5-0.2c-0.2,0-0.4,0.1-0.5,0.2c-0.1,0.1-0.2,0.4-0.2,0.6
	c0,0.3,0,0.5,0.2,0.6C111.4,6.8,111.6,6.9,111.8,6.9z"/>
<path class="st1" d="M109,4.5l-0.1,4.7l-0.9,0l-0.2-0.6l-0.1,0c-0.1,0.2-0.2,0.3-0.3,0.4c-0.1,0.1-0.2,0.2-0.3,0.2
	c-0.1,0.1-0.3,0.1-0.4,0.1c-0.2,0-0.3,0-0.5-0.1C106.2,9.1,106,9,106,8.9l0,0c0,0.1,0,0.2,0,0.3c0,0.1,0,0.3,0,0.4
	c0,0.1,0,0.3,0,0.4l0,1.4l-1.2,0l0.1-6.8l1.2,0l0,2.8c0,0.3,0.1,0.6,0.2,0.8c0.1,0.2,0.3,0.3,0.6,0.3c0.2,0,0.4-0.1,0.6-0.2
	c0.1-0.1,0.2-0.3,0.3-0.5c0.1-0.2,0.1-0.5,0.1-0.9l0-2.2L109,4.5z"/>
<path class="st1" d="M103.7,4.7c0,0.7-0.1,1.3-0.2,1.9c-0.1,0.6-0.3,1-0.5,1.4c-0.2,0.4-0.5,0.7-0.9,0.9c-0.4,0.2-0.8,0.3-1.4,0.3
	C100,9.2,99.4,9,99,8.6c-0.4-0.4-0.7-0.9-0.9-1.6c-0.2-0.7-0.3-1.5-0.3-2.4c0-1,0.1-1.8,0.3-2.4c0.2-0.7,0.5-1.2,1-1.5
	c0.4-0.4,1-0.5,1.7-0.5c0.7,0,1.2,0.2,1.7,0.6c0.4,0.4,0.8,0.9,1,1.6C103.6,2.9,103.7,3.8,103.7,4.7z M99.6,4.7c0,0.7,0,1.2,0.1,1.7
	c0.1,0.4,0.2,0.8,0.4,1s0.4,0.3,0.7,0.3c0.3,0,0.5-0.1,0.7-0.3c0.2-0.2,0.3-0.6,0.4-1c0.1-0.4,0.1-1,0.1-1.7c0-0.7,0-1.2-0.1-1.7
	c-0.1-0.5-0.2-0.8-0.4-1c-0.2-0.2-0.4-0.3-0.7-0.4c-0.3,0-0.5,0.1-0.7,0.3c-0.2,0.2-0.3,0.6-0.4,1C99.6,3.4,99.6,4,99.6,4.7z"/>
<path class="st1" d="M96.9,4c0,0.5,0,1-0.1,1.5c-0.1,0.5-0.2,1-0.4,1.4C96.2,7.3,96,7.7,95.7,8c-0.3,0.3-0.7,0.6-1.2,0.8
	c-0.5,0.2-1.1,0.3-1.8,0.3c-0.2,0-0.4,0-0.6,0c-0.2,0-0.4,0-0.6-0.1l0-1.5c0.2,0,0.3,0.1,0.5,0.1c0.2,0,0.3,0,0.5,0
	c0.7,0,1.3-0.1,1.6-0.3c0.4-0.2,0.7-0.5,0.8-1c0.2-0.4,0.3-0.9,0.3-1.4l-0.1,0c-0.1,0.2-0.2,0.4-0.4,0.5c-0.2,0.2-0.3,0.3-0.6,0.4
	c-0.2,0.1-0.5,0.1-0.9,0.1c-0.5,0-0.9-0.1-1.3-0.3c-0.4-0.2-0.6-0.5-0.8-1C91.1,4.2,91,3.7,91,3.1c0-0.6,0.1-1.2,0.4-1.6
	c0.2-0.5,0.6-0.8,1-1c0.4-0.2,0.9-0.4,1.5-0.3c0.4,0,0.8,0.1,1.2,0.3c0.4,0.2,0.7,0.4,1,0.7c0.3,0.3,0.5,0.7,0.6,1.2
	C96.9,2.7,97,3.3,96.9,4z M93.9,1.6c-0.3,0-0.6,0.1-0.9,0.4c-0.2,0.2-0.3,0.6-0.3,1.2c0,0.4,0.1,0.8,0.3,1c0.2,0.3,0.5,0.4,0.9,0.4
	c0.3,0,0.5-0.1,0.7-0.2C94.7,4.2,94.9,4,95,3.9c0.1-0.2,0.2-0.4,0.2-0.6c0-0.2,0-0.4-0.1-0.6c-0.1-0.2-0.1-0.4-0.2-0.6
	c-0.1-0.2-0.2-0.3-0.4-0.4C94.3,1.6,94.1,1.6,93.9,1.6z"/>
<path class="st5" d="M60.3,92.3c4.8-8.2,13.8-16,21.8-21L70.2,50.9L60.8,34c-1.1-2-3.5-2.6-5.3-1.4c-12.7,8.4-25.2,20.2-33.5,33.1
	c-1.2,1.9-0.6,4.5,1.3,5.6L39.6,81l20,12.3L60.3,92.3z"/>
<path class="st1" d="M62,52.6l-0.6,0.7l-4.9-4.8l0.6-0.7L62,52.6z"/>
<path class="st1" d="M55.6,52.2c0.4-0.4,0.8-0.7,1.2-0.7c0.4,0,0.8,0.1,1.2,0.5l2.4,2.3l-0.4,0.5l-0.6-0.4l0,0c0,0.2,0,0.4,0,0.6
	c0,0.2-0.1,0.4-0.2,0.6c-0.1,0.2-0.2,0.4-0.4,0.6c-0.2,0.2-0.4,0.4-0.6,0.5c-0.2,0.1-0.5,0.1-0.7,0.1c-0.2-0.1-0.5-0.2-0.7-0.4
	c-0.4-0.3-0.5-0.7-0.4-1.2c0.1-0.5,0.4-1,0.9-1.6l0.5-0.7l-0.2-0.2c-0.3-0.3-0.5-0.4-0.8-0.4c-0.2,0-0.4,0.1-0.6,0.4
	c-0.2,0.2-0.3,0.4-0.4,0.6c-0.1,0.2-0.2,0.4-0.3,0.7l-0.7-0.2c0.1-0.3,0.2-0.5,0.3-0.8C55.2,52.7,55.4,52.5,55.6,52.2z M58.1,53.4
	l-0.4,0.5c-0.4,0.4-0.6,0.8-0.6,1.1c0,0.3,0.1,0.5,0.3,0.7c0.2,0.2,0.4,0.3,0.6,0.2c0.2,0,0.4-0.1,0.5-0.3c0.3-0.3,0.4-0.6,0.4-1
	c0-0.3-0.1-0.7-0.5-1L58.1,53.4z"/>
<path class="st1" d="M52.2,56c0.4-0.4,0.7-0.6,1.1-0.6c0.4,0,0.8,0.2,1.2,0.6l2.3,2.2l-0.6,0.7l-2.2-2.1c-0.3-0.3-0.5-0.4-0.8-0.4
	c-0.2,0-0.5,0.1-0.7,0.3c-0.3,0.3-0.4,0.7-0.4,1c0.1,0.3,0.3,0.7,0.6,1l1.9,1.8l-0.6,0.7L52,59c-0.2-0.2-0.4-0.3-0.5-0.4
	c-0.2-0.1-0.3-0.1-0.5,0c-0.2,0-0.3,0.1-0.4,0.3c-0.2,0.2-0.3,0.5-0.3,0.7c0,0.2,0,0.5,0.2,0.7c0.1,0.2,0.3,0.5,0.6,0.7l1.8,1.7
	l-0.6,0.7L48.7,60l0.5-0.5l0.6,0.4l0,0c-0.1-0.2-0.1-0.4-0.1-0.6c0-0.2,0.1-0.4,0.2-0.5c0.1-0.2,0.2-0.3,0.3-0.5
	c0.2-0.3,0.5-0.5,0.8-0.5c0.3-0.1,0.5-0.1,0.8,0l0,0c-0.1-0.3-0.1-0.6,0-0.9C51.9,56.5,52,56.2,52.2,56z"/>
<path class="st1" d="M47.6,61.1c0.1-0.1,0.1-0.1,0.2-0.2c0.1-0.1,0.1-0.1,0.2-0.2l0.5,0.6c-0.1,0-0.1,0.1-0.2,0.2
	c-0.1,0.1-0.1,0.1-0.2,0.2C48,61.8,48,62,47.9,62.1c-0.1,0.2-0.1,0.4-0.1,0.6c0,0.2,0.1,0.4,0.1,0.6c0.1,0.2,0.2,0.4,0.4,0.5
	l1.9,1.8l-0.6,0.7l-3.5-3.4l0.5-0.5l0.7,0.5l0,0c-0.1-0.2-0.1-0.4-0.1-0.6c0-0.2,0-0.4,0.1-0.6C47.4,61.4,47.5,61.2,47.6,61.1z"/>
<path class="st1" d="M47,65.5c0.3,0.3,0.5,0.6,0.7,0.9c0.2,0.3,0.2,0.6,0.3,0.9c0,0.3,0,0.6-0.1,0.9c-0.1,0.3-0.3,0.6-0.5,0.8
	c-0.2,0.2-0.5,0.4-0.7,0.6c-0.3,0.1-0.5,0.2-0.8,0.2c-0.3,0-0.6-0.1-0.9-0.2c-0.3-0.1-0.6-0.3-0.9-0.6c-0.4-0.4-0.6-0.8-0.8-1.2
	c-0.1-0.4-0.2-0.8-0.1-1.2c0.1-0.4,0.3-0.8,0.6-1.1c0.3-0.3,0.6-0.6,1-0.7c0.4-0.1,0.8-0.1,1.1,0C46.2,64.9,46.6,65.1,47,65.5z
	 M44.6,68.2c0.3,0.3,0.5,0.4,0.8,0.6c0.3,0.1,0.5,0.1,0.7,0.1c0.2,0,0.5-0.2,0.7-0.4c0.2-0.2,0.3-0.5,0.4-0.7c0-0.2,0-0.5-0.1-0.8
	c-0.1-0.3-0.3-0.5-0.6-0.8c-0.3-0.3-0.5-0.4-0.8-0.6s-0.5-0.1-0.7-0.1c-0.2,0-0.5,0.2-0.7,0.4c-0.3,0.3-0.4,0.7-0.4,1.1
	C43.9,67.4,44.2,67.8,44.6,68.2z"/>
<path class="st1" d="M44.8,71.6l-0.7,0.8L38,71.2l0,0c0.1,0.1,0.3,0.2,0.4,0.3c0.1,0.1,0.3,0.3,0.4,0.4c0.2,0.1,0.3,0.3,0.5,0.4
	l2.6,2.5l-0.6,0.6L36.7,71l0.7-0.8l6,1.2l0,0c-0.1-0.1-0.2-0.2-0.4-0.3c-0.1-0.1-0.3-0.3-0.5-0.4c-0.2-0.1-0.3-0.3-0.4-0.4l-2.6-2.5
	l0.6-0.6L44.8,71.6z"/>
<path class="st1" d="M64,10.3c0.3-0.2,0.6-0.2,0.9-0.2c0.3,0,0.5,0.2,0.6,0.4c0.1,0.2,0.1,0.3,0.1,0.5c0,0.2-0.1,0.4-0.3,0.6l0,0
	c0.3-0.1,0.5-0.1,0.7,0c0.2,0.1,0.3,0.2,0.4,0.4c0.2,0.3,0.2,0.6,0.1,0.9c-0.1,0.3-0.4,0.6-0.8,0.8c-0.2,0.1-0.4,0.2-0.5,0.2
	C65,14,64.8,14,64.6,14l-0.4-0.7c0.2,0,0.4,0,0.6,0c0.2,0,0.4-0.1,0.5-0.2c0.2-0.1,0.3-0.2,0.3-0.3c0-0.1,0-0.2,0-0.4
	c-0.1-0.1-0.1-0.2-0.3-0.2c-0.1,0-0.3,0-0.5,0.2l-0.4,0.2L64.1,12l0.3-0.2c0.2-0.1,0.4-0.3,0.4-0.4c0-0.1,0-0.2,0-0.3
	c-0.1-0.1-0.1-0.2-0.2-0.2c-0.1,0-0.2,0-0.3,0.1c-0.1,0.1-0.2,0.2-0.3,0.3c-0.1,0.1-0.1,0.2-0.2,0.4l-0.6-0.3
	c0.1-0.2,0.2-0.4,0.3-0.6C63.6,10.6,63.8,10.4,64,10.3z"/>
<path class="st1" d="M62,14.4c0.4-0.3,0.8-0.4,1.2-0.2c0.4,0.1,0.7,0.4,1,0.9l1.5,2.7l-1.1,0.6L63.3,16c-0.2-0.3-0.3-0.5-0.5-0.6
	c-0.2-0.1-0.4-0.1-0.6,0c-0.3,0.2-0.4,0.4-0.4,0.7c0,0.3,0.1,0.6,0.3,1l1.1,2.1l-1.1,0.6l-1.3-2.4c-0.1-0.2-0.2-0.3-0.3-0.5
	c-0.1-0.1-0.2-0.2-0.4-0.2c-0.1,0-0.3,0-0.4,0.1c-0.2,0.1-0.3,0.3-0.4,0.4c-0.1,0.2-0.1,0.4,0,0.6c0.1,0.2,0.2,0.5,0.3,0.8l1.1,1.9
	l-1.1,0.6l-2.3-4.1l0.8-0.5l0.4,0.4l0.1,0c0-0.2,0-0.4,0.1-0.5c0.1-0.2,0.2-0.3,0.3-0.4c0.1-0.1,0.3-0.2,0.4-0.3
	c0.3-0.2,0.6-0.3,0.8-0.3c0.3,0,0.5,0,0.7,0.2l0.1-0.1c0-0.3,0.1-0.5,0.2-0.8C61.6,14.8,61.8,14.6,62,14.4z"/>
<path class="st1" d="M56.2,16.4l1.1,6.5l-1,0.6L55.2,17L56.2,16.4z"/>
<path class="st1" d="M54.8,26.8c-0.5,0.3-1,0.5-1.4,0.5c-0.4,0-0.7-0.2-0.9-0.6c-0.1-0.2-0.2-0.5-0.1-0.8c0.1-0.3,0.2-0.5,0.5-0.7
	c-0.1,0-0.3,0-0.4-0.1c-0.1-0.1-0.3-0.2-0.3-0.3C52,24.6,52,24.5,52,24.3c0-0.2,0.1-0.3,0.2-0.5c-0.3,0-0.5,0-0.7-0.2
	c-0.2-0.1-0.4-0.3-0.6-0.6c-0.2-0.3-0.2-0.6-0.2-0.9c0-0.3,0.1-0.6,0.3-0.8c0.2-0.3,0.4-0.5,0.8-0.7c0.1,0,0.2-0.1,0.3-0.1
	c0.1,0,0.2-0.1,0.3-0.1c0.1,0,0.1-0.1,0.2-0.1l1.4-0.8l0.3,0.6l-0.5,0.5c0.1,0.1,0.2,0.1,0.3,0.2c0.1,0.1,0.2,0.2,0.2,0.3
	c0.2,0.4,0.3,0.9,0.1,1.3c-0.2,0.4-0.5,0.8-1,1.1c-0.1,0.1-0.3,0.1-0.4,0.2c0,0.1,0,0.1,0,0.2c0,0.1,0,0.1,0,0.2
	c0,0.1,0.1,0.1,0.1,0.1c0.1,0,0.1,0,0.2,0c0.1,0,0.2-0.1,0.3-0.2l0.7-0.4c0.4-0.3,0.8-0.4,1.1-0.3c0.3,0.1,0.6,0.3,0.8,0.6
	c0.3,0.5,0.3,1,0,1.5C56,25.9,55.5,26.3,54.8,26.8z M54.5,26c0.3-0.2,0.5-0.3,0.6-0.5c0.2-0.2,0.3-0.3,0.3-0.5c0-0.1,0-0.3,0-0.4
	c-0.1-0.1-0.1-0.2-0.2-0.2c-0.1,0-0.2,0-0.3,0c-0.1,0-0.3,0.1-0.5,0.2L53.8,25c-0.1,0.1-0.2,0.2-0.3,0.3c-0.1,0.1-0.1,0.2-0.1,0.3
	c0,0.1,0,0.2,0.1,0.3c0.1,0.2,0.2,0.2,0.4,0.2C54,26.2,54.2,26.2,54.5,26z M52.9,22.8c0.2-0.1,0.3-0.3,0.3-0.5c0-0.2,0-0.4-0.2-0.6
	c-0.1-0.2-0.3-0.4-0.5-0.5c-0.2-0.1-0.3,0-0.5,0.1c-0.2,0.1-0.3,0.3-0.3,0.5c0,0.2,0,0.4,0.2,0.6c0.1,0.2,0.3,0.4,0.4,0.4
	C52.5,22.9,52.7,22.9,52.9,22.8z"/>
<path class="st1" d="M49.3,22.2l2.3,4.1l-0.8,0.5l-0.5-0.5l-0.1,0c0,0.2,0,0.3,0,0.5c0,0.1-0.1,0.3-0.2,0.4
	c-0.1,0.1-0.2,0.2-0.3,0.3c-0.1,0.1-0.3,0.1-0.4,0.2c-0.1,0-0.3,0-0.4-0.1l0,0c0,0,0.1,0.1,0.1,0.2c0.1,0.1,0.1,0.2,0.2,0.3
	c0.1,0.1,0.1,0.2,0.2,0.3l0.7,1.2l-1.1,0.6l-3.3-5.9l1.1-0.6l1.3,2.4c0.2,0.3,0.3,0.5,0.5,0.6s0.4,0.1,0.6-0.1
	c0.2-0.1,0.4-0.3,0.4-0.5c0.1-0.2,0.1-0.4,0-0.6c-0.1-0.2-0.2-0.5-0.3-0.8l-1.1-1.9L49.3,22.2z"/>
<path class="st1" d="M44.8,25.3c0.3,0.6,0.6,1.2,0.8,1.7c0.2,0.5,0.3,1,0.2,1.5c0,0.5-0.1,0.9-0.4,1.2c-0.2,0.4-0.6,0.7-1,1
	c-0.6,0.4-1.2,0.5-1.7,0.4c-0.6-0.1-1.1-0.4-1.6-0.8c-0.5-0.5-1-1.1-1.4-1.9c-0.5-0.8-0.8-1.6-0.9-2.3c-0.2-0.7-0.1-1.3,0.1-1.8
	c0.2-0.5,0.6-1,1.2-1.4c0.6-0.4,1.2-0.5,1.7-0.4c0.6,0.1,1.1,0.4,1.6,0.8C43.9,23.8,44.4,24.4,44.8,25.3z M41.3,27.4
	c0.3,0.6,0.6,1,0.9,1.4c0.3,0.3,0.5,0.6,0.8,0.7c0.3,0.1,0.5,0.1,0.8-0.1c0.3-0.2,0.4-0.4,0.4-0.7c0-0.3,0-0.6-0.2-1.1
	c-0.2-0.4-0.4-0.9-0.7-1.5c-0.3-0.6-0.6-1-0.9-1.4c-0.3-0.4-0.5-0.6-0.8-0.7c-0.3-0.1-0.5-0.1-0.8,0.1c-0.3,0.2-0.4,0.4-0.4,0.7
	c0,0.3,0,0.6,0.2,1.1C40.7,26.3,40.9,26.8,41.3,27.4z"/>
<path class="st1" d="M34.2,32.5c-0.2-0.4-0.5-0.9-0.6-1.4c-0.2-0.5-0.3-0.9-0.3-1.4c-0.1-0.5,0-0.9,0.1-1.4c0.1-0.5,0.3-0.9,0.7-1.3
	c0.3-0.4,0.8-0.8,1.4-1.2c0.1-0.1,0.3-0.2,0.5-0.3c0.2-0.1,0.4-0.2,0.5-0.2l0.7,1.3c-0.2,0-0.3,0.1-0.5,0.2
	c-0.2,0.1-0.3,0.1-0.5,0.2c-0.6,0.4-1,0.7-1.2,1.2c-0.2,0.4-0.3,0.8-0.2,1.3c0.1,0.4,0.2,0.9,0.5,1.4l0.1,0c0-0.2,0-0.4,0.1-0.7
	c0.1-0.2,0.2-0.4,0.3-0.6c0.2-0.2,0.4-0.4,0.6-0.6c0.4-0.3,0.9-0.4,1.3-0.4c0.4,0,0.8,0.1,1.2,0.4c0.4,0.3,0.7,0.6,1,1.2
	c0.3,0.5,0.5,1.1,0.5,1.6c0,0.5-0.1,1-0.4,1.4c-0.3,0.4-0.6,0.8-1.1,1.1c-0.4,0.2-0.8,0.4-1.2,0.4c-0.4,0.1-0.8,0-1.2-0.1
	c-0.4-0.1-0.8-0.4-1.1-0.7C34.8,33.5,34.5,33,34.2,32.5z M37.9,32.9c0.3-0.2,0.5-0.4,0.6-0.8c0.1-0.3,0-0.7-0.3-1.2
	c-0.2-0.4-0.5-0.6-0.7-0.7c-0.3-0.1-0.6-0.1-0.9,0.1c-0.2,0.1-0.4,0.3-0.5,0.5c-0.1,0.2-0.2,0.4-0.2,0.6c0,0.2,0,0.4,0.1,0.6
	c0.1,0.2,0.2,0.3,0.4,0.5c0.1,0.1,0.3,0.3,0.5,0.3c0.2,0.1,0.4,0.1,0.5,0.1C37.6,33.1,37.8,33,37.9,32.9z"/>
<linearGradient id="SVGID_00000077299249064715432170000010007489287449819272_" gradientUnits="userSpaceOnUse" x1="12.5007" y1="27.4566" x2="50.9423" y2="11.5174" gradientTransform="matrix(1 0 0 -1 0 121.5695)">
	<stop  offset="0" style="stop-color:#59E789"/>
	<stop  offset="1" style="stop-color:#32814D"/>
</linearGradient>
<path style="fill:url(#SVGID_00000077299249064715432170000010007489287449819272_);" d="M51.7,120.8c0.2-10,3.9-20.3,8.3-28.5
	L39.2,80.3l-16.5-10c-1.9-1.1-4.3-0.5-5.3,1.5C10.9,85.1,6.8,100.9,6,116.7c-0.1,2.3,1.7,4.1,3.8,4.1h19H51.7z"/>
<path class="st1" d="M43.2,88.2L43,89.1l-6.5-1.9l0.2-0.9L43.2,88.2z"/>
<path class="st1" d="M37.4,90.9c0.2-0.6,0.4-1,0.7-1.2c0.3-0.2,0.8-0.3,1.3-0.1l3.1,0.9l-0.2,0.6l-0.7,0l0,0
	c0.1,0.2,0.2,0.4,0.3,0.5c0.1,0.2,0.1,0.4,0.1,0.6c0,0.2,0,0.4-0.1,0.7c-0.1,0.3-0.2,0.5-0.4,0.7c-0.2,0.2-0.4,0.3-0.6,0.4
	c-0.2,0.1-0.5,0.1-0.8,0c-0.5-0.1-0.8-0.4-0.9-0.9c-0.1-0.4-0.1-1,0.1-1.8l0.2-0.8l-0.3-0.1c-0.4-0.1-0.6-0.1-0.8,0
	c-0.2,0.1-0.3,0.3-0.4,0.6C38,91.4,38,91.7,38,91.9c0,0.2,0,0.5,0.1,0.7l-0.7,0.1c-0.1-0.3-0.1-0.5-0.1-0.9
	C37.3,91.6,37.3,91.3,37.4,90.9z M40.1,90.7L40,91.4c-0.1,0.6-0.1,1,0,1.2c0.1,0.3,0.3,0.4,0.6,0.5c0.2,0.1,0.4,0,0.6-0.1
	c0.2-0.1,0.3-0.3,0.3-0.6c0.1-0.4,0.1-0.7-0.1-1c-0.1-0.3-0.4-0.5-0.8-0.6L40.1,90.7z"/>
<path class="st1" d="M36.1,95.8c0.1-0.5,0.4-0.9,0.7-1.1c0.3-0.2,0.8-0.2,1.4,0l3,0.9L41,96.4l-2.9-0.8c-0.4-0.1-0.7-0.1-0.9,0
	c-0.2,0.1-0.4,0.3-0.5,0.6c-0.1,0.4-0.1,0.8,0.1,1.1c0.2,0.3,0.5,0.5,1,0.6l2.5,0.7l-0.2,0.9l-2.9-0.8c-0.2-0.1-0.5-0.1-0.6-0.1
	c-0.2,0-0.3,0.1-0.4,0.2c-0.1,0.1-0.2,0.3-0.3,0.5c-0.1,0.3-0.1,0.6,0,0.8c0.1,0.2,0.2,0.4,0.4,0.5c0.2,0.1,0.5,0.3,0.9,0.4l2.4,0.7
	l-0.2,0.9l-4.6-1.3l0.2-0.7l0.7,0.1l0,0c-0.1-0.1-0.2-0.3-0.3-0.5c-0.1-0.2-0.1-0.4-0.1-0.6c0-0.2,0-0.4,0.1-0.6
	c0.1-0.4,0.2-0.6,0.4-0.9c0.2-0.2,0.4-0.3,0.7-0.4l0-0.1c-0.2-0.2-0.4-0.5-0.4-0.8C36,96.5,36,96.2,36.1,95.8z"/>
<path class="st1" d="M34.3,102.6c0-0.1,0.1-0.2,0.1-0.3c0-0.1,0.1-0.2,0.1-0.3l0.8,0.3c0,0.1-0.1,0.1-0.1,0.2c0,0.1-0.1,0.2-0.1,0.2
	c-0.1,0.2-0.1,0.4,0,0.6c0,0.2,0.1,0.4,0.2,0.5c0.1,0.2,0.2,0.3,0.4,0.4c0.2,0.1,0.4,0.2,0.6,0.3l2.4,0.7l-0.2,0.9l-4.6-1.3l0.2-0.7
	l0.9,0.1l0,0c-0.1-0.1-0.3-0.3-0.4-0.5c-0.1-0.2-0.2-0.4-0.2-0.6C34.2,103,34.2,102.8,34.3,102.6z"/>
<path class="st1" d="M35.7,106.8c0.4,0.1,0.7,0.3,1,0.5c0.3,0.2,0.5,0.4,0.6,0.7c0.2,0.3,0.2,0.5,0.3,0.8c0,0.3,0,0.6-0.1,1
	c-0.1,0.3-0.2,0.6-0.4,0.9c-0.2,0.2-0.4,0.4-0.7,0.6c-0.3,0.1-0.6,0.2-0.9,0.2c-0.3,0-0.7,0-1.1-0.1c-0.5-0.1-0.9-0.4-1.2-0.6
	c-0.3-0.3-0.5-0.6-0.6-1c-0.1-0.4-0.1-0.8,0-1.3c0.1-0.4,0.3-0.8,0.6-1.1c0.3-0.3,0.6-0.5,1-0.5C34.8,106.6,35.2,106.6,35.7,106.8z
	 M34.8,110.4c0.4,0.1,0.7,0.1,1,0.1c0.3,0,0.5-0.1,0.7-0.3c0.2-0.2,0.3-0.4,0.4-0.7c0.1-0.3,0.1-0.6,0-0.8c-0.1-0.2-0.2-0.4-0.5-0.6
	c-0.2-0.2-0.5-0.3-0.9-0.4c-0.4-0.1-0.7-0.1-0.9-0.1c-0.3,0-0.5,0.1-0.7,0.3c-0.2,0.2-0.3,0.4-0.4,0.7c-0.1,0.5-0.1,0.8,0.2,1.1
	C33.8,110,34.2,110.2,34.8,110.4z"/>
<path class="st1" d="M31.4,113.5c0.1-0.6,0.4-0.9,0.7-1.2c0.3-0.2,0.8-0.2,1.4-0.1l3,0.9l-0.2,0.9l-2.9-0.8c-0.4-0.1-0.7-0.1-0.9,0
	c-0.2,0.1-0.4,0.3-0.5,0.7c-0.1,0.5-0.1,0.9,0.1,1.2c0.2,0.3,0.6,0.5,1.1,0.7l2.3,0.7l-0.2,0.9l-4.6-1.3l0.2-0.7l0.7,0.1l0,0
	c-0.1-0.1-0.2-0.3-0.3-0.5c-0.1-0.2-0.1-0.4-0.1-0.6C31.3,113.9,31.3,113.7,31.4,113.5z"/>
<path class="st1" d="M30.5,88.9l-2.6,0c-0.1,0-0.2,0-0.4,0c-0.1,0-0.3,0-0.4,0c-0.1,0-0.3,0-0.4,0c-0.1,0-0.2,0-0.3,0l0,0
	c0.1,0,0.2,0.1,0.3,0.1c0.1,0.1,0.2,0.1,0.3,0.2c0.1,0.1,0.2,0.1,0.4,0.2c0.1,0.1,0.2,0.1,0.3,0.2l2.2,1.5l-0.3,1l-5,0l0.2-0.9
	l2.6,0c0.2,0,0.4,0,0.5,0c0.2,0,0.4,0,0.5,0c0.2,0,0.3,0,0.4,0l0,0c-0.1,0-0.2-0.1-0.3-0.1c-0.1-0.1-0.2-0.1-0.3-0.2
	c-0.1-0.1-0.2-0.1-0.3-0.2c-0.1-0.1-0.2-0.1-0.3-0.2l-2.3-1.5l0.3-0.9l2.8,0c0.1,0,0.3,0,0.4,0c0.2,0,0.3,0,0.5,0c0.2,0,0.3,0,0.4,0
	l0,0c-0.1,0-0.2-0.1-0.4-0.2c-0.1-0.1-0.3-0.2-0.5-0.2c-0.2-0.1-0.3-0.2-0.5-0.3l-2.2-1.4l0.2-0.9l4.2,2.7L30.5,88.9z"/>
<path class="st1" d="M26.8,93.4c0.4,0.1,0.7,0.3,1,0.4c0.3,0.2,0.5,0.4,0.6,0.7c0.2,0.3,0.2,0.5,0.3,0.8c0,0.3,0,0.6-0.1,1
	c-0.1,0.3-0.2,0.6-0.4,0.9c-0.2,0.2-0.4,0.4-0.7,0.6C27.3,97.9,27,98,26.7,98c-0.3,0-0.7,0-1.1-0.1c-0.5-0.1-0.9-0.4-1.2-0.6
	c-0.3-0.3-0.5-0.6-0.6-1c-0.1-0.4-0.1-0.8,0-1.3c0.1-0.4,0.3-0.8,0.6-1.1c0.3-0.3,0.6-0.5,1-0.5S26.3,93.2,26.8,93.4z M25.9,97
	c0.4,0.1,0.7,0.1,1,0.1c0.3,0,0.5-0.1,0.7-0.3c0.2-0.2,0.3-0.4,0.4-0.7c0.1-0.3,0.1-0.6,0-0.8c-0.1-0.2-0.2-0.4-0.5-0.6
	c-0.2-0.2-0.5-0.3-0.9-0.4c-0.4-0.1-0.7-0.1-0.9-0.1c-0.3,0-0.5,0.1-0.7,0.3c-0.2,0.2-0.3,0.4-0.4,0.7c-0.1,0.5-0.1,0.8,0.2,1.1
	C25,96.6,25.3,96.8,25.9,97z"/>
<path class="st1" d="M27.6,99.7l-0.2,0.9l-6.5-1.9l0.2-0.9L27.6,99.7z"/>
<path class="st1" d="M21.8,102.5c0.1-0.4,0.3-0.8,0.5-1c0.3-0.2,0.6-0.4,0.9-0.5c0.4-0.1,0.7,0,1.2,0.1l0.5,0.1l-0.9,3.3
	c0.5,0.1,0.9,0.1,1.2-0.1c0.3-0.2,0.6-0.5,0.7-1c0.1-0.3,0.1-0.6,0.1-0.8c0-0.3,0-0.5,0-0.8l0.7,0.2c0,0.3,0.1,0.5,0,0.8
	c0,0.3-0.1,0.6-0.2,0.9c-0.1,0.5-0.3,0.8-0.6,1.1c-0.3,0.3-0.6,0.5-1,0.6c-0.4,0.1-0.9,0.1-1.4-0.1c-0.5-0.1-0.9-0.4-1.2-0.6
	c-0.3-0.3-0.5-0.6-0.6-1C21.7,103.3,21.7,102.9,21.8,102.5z M22.5,102.6c-0.1,0.4-0.1,0.7,0.1,0.9c0.2,0.3,0.4,0.5,0.8,0.7l0.6-2.4
	c-0.3-0.1-0.5-0.1-0.7-0.1c-0.2,0-0.4,0.1-0.6,0.2C22.7,102.2,22.5,102.4,22.5,102.6z"/>
<path class="st1" d="M18.4,109.6l0.5-1.8c0.2-0.8,0.5-1.4,0.8-1.7c0.3-0.3,0.8-0.4,1.3-0.3c0.2,0.1,0.4,0.2,0.6,0.3
	c0.2,0.1,0.3,0.3,0.4,0.5c0.1,0.2,0.1,0.4,0.1,0.7l0,0c0.1-0.2,0.2-0.5,0.4-0.6c0.2-0.2,0.4-0.3,0.6-0.3c0.2-0.1,0.5,0,0.8,0
	c0.4,0.1,0.7,0.3,0.9,0.5c0.2,0.3,0.3,0.6,0.4,0.9c0,0.4,0,0.8-0.1,1.2l-0.6,2.2L18.4,109.6z M21.2,109.5l0.3-1.1
	c0.1-0.5,0.2-0.9,0-1.1c-0.1-0.2-0.3-0.4-0.6-0.5c-0.3-0.1-0.6,0-0.8,0.2c-0.2,0.2-0.4,0.5-0.5,1.1l-0.3,1L21.2,109.5z M21.9,109.7
	l2.1,0.6l0.3-1.2c0.1-0.5,0.1-0.9,0-1.2c-0.1-0.3-0.4-0.5-0.7-0.6c-0.2-0.1-0.4-0.1-0.6,0c-0.2,0.1-0.3,0.2-0.5,0.4
	c-0.1,0.2-0.3,0.5-0.4,0.8L21.9,109.7z"/>
<path class="st1" d="M17.4,46.1c0.2-0.3,0.4-0.5,0.6-0.7c0.3-0.1,0.5-0.1,0.8,0c0.2,0.1,0.3,0.2,0.4,0.4c0.1,0.2,0.1,0.4,0,0.6l0,0
	c0.2-0.2,0.4-0.4,0.6-0.4c0.2,0,0.4,0,0.6,0.1c0.3,0.2,0.5,0.4,0.5,0.7c0.1,0.3,0,0.7-0.3,1.2c-0.1,0.2-0.2,0.4-0.3,0.5
	c-0.1,0.1-0.3,0.3-0.4,0.4l-0.7-0.4c0.2-0.1,0.3-0.2,0.5-0.4c0.1-0.1,0.3-0.3,0.3-0.5c0.1-0.2,0.1-0.3,0.1-0.5
	c0-0.1-0.1-0.2-0.2-0.3c-0.1-0.1-0.2-0.1-0.3,0c-0.1,0-0.2,0.2-0.4,0.4L19,47.8l-0.6-0.3l0.2-0.3c0.1-0.3,0.2-0.5,0.1-0.6
	c0-0.1-0.1-0.2-0.2-0.3c-0.1,0-0.2-0.1-0.3,0c-0.1,0-0.2,0.1-0.2,0.2c-0.1,0.1-0.1,0.2-0.1,0.4c0,0.1,0,0.3,0,0.5l-0.7,0.1
	c0-0.2,0-0.4,0-0.7C17.2,46.6,17.3,46.3,17.4,46.1z"/>
<path class="st1" d="M17.9,50.7c0.2-0.5,0.5-0.8,0.9-0.9c0.4-0.1,0.8,0,1.3,0.2l2.6,1.4l-0.6,1.2l-2.4-1.3c-0.3-0.2-0.5-0.2-0.7-0.2
	c-0.2,0-0.3,0.1-0.5,0.4c-0.1,0.3-0.1,0.6,0,0.8c0.1,0.2,0.4,0.5,0.8,0.7l2,1.1l-0.6,1.2L18.6,54c-0.2-0.1-0.4-0.2-0.5-0.2
	c-0.2,0-0.3,0-0.4,0.1c-0.1,0.1-0.2,0.2-0.3,0.3c-0.1,0.2-0.1,0.4-0.1,0.6c0,0.2,0.2,0.3,0.3,0.5c0.2,0.2,0.4,0.3,0.7,0.5l1.9,1
	l-0.6,1.2l-4.1-2.2l0.4-0.9l0.6,0.1l0-0.1c-0.1-0.2-0.2-0.3-0.2-0.5c0-0.2,0-0.4,0-0.5c0-0.2,0.1-0.3,0.2-0.5
	c0.2-0.3,0.3-0.5,0.5-0.7c0.2-0.2,0.4-0.3,0.7-0.3l0-0.1c-0.1-0.2-0.2-0.5-0.2-0.8C17.8,51.2,17.8,50.9,17.9,50.7z"/>
<path class="st1" d="M14,55.7l4.3,4.9l-0.5,1l-4.3-4.9L14,55.7z"/>
<path class="st1" d="M18.3,65.1c-0.3,0.6-0.6,1-1,1.2c-0.3,0.2-0.7,0.2-1.1,0c-0.2-0.1-0.4-0.3-0.5-0.6c-0.1-0.2-0.1-0.5,0-0.9
	c-0.1,0.1-0.2,0.2-0.4,0.2c-0.2,0-0.3,0-0.4-0.1c-0.2-0.1-0.3-0.2-0.3-0.3c-0.1-0.1-0.1-0.3-0.1-0.6c-0.2,0.2-0.4,0.3-0.7,0.3
	c-0.3,0-0.5,0-0.8-0.2c-0.3-0.2-0.5-0.4-0.7-0.6c-0.1-0.2-0.2-0.5-0.2-0.8c0-0.3,0.1-0.7,0.3-1c0-0.1,0.1-0.2,0.1-0.3
	c0.1-0.1,0.1-0.2,0.2-0.3c0.1-0.1,0.1-0.1,0.1-0.2l0.7-1.5l0.6,0.3l-0.2,0.7c0.1,0,0.2,0,0.4,0c0.1,0,0.2,0.1,0.3,0.1
	c0.4,0.2,0.7,0.6,0.8,1c0.1,0.4,0,0.9-0.3,1.5c-0.1,0.1-0.1,0.3-0.2,0.4c0,0.1,0,0.1,0.1,0.2c0,0.1,0.1,0.1,0.1,0.1
	c0.1,0,0.1,0,0.2,0c0.1,0,0.1-0.1,0.2-0.2c0.1-0.1,0.1-0.2,0.2-0.3l0.4-0.7c0.2-0.5,0.5-0.8,0.8-0.9c0.3-0.1,0.7-0.1,1,0.1
	c0.5,0.3,0.7,0.7,0.8,1.2C18.9,63.7,18.7,64.4,18.3,65.1z M17.6,64.7c0.1-0.3,0.2-0.5,0.3-0.7c0-0.2,0.1-0.4,0-0.6
	c0-0.2-0.1-0.3-0.2-0.3c-0.1-0.1-0.2-0.1-0.3,0c-0.1,0-0.2,0.1-0.3,0.2c-0.1,0.1-0.2,0.3-0.3,0.5l-0.3,0.6c-0.1,0.1-0.1,0.3-0.1,0.4
	c0,0.1,0,0.3,0.1,0.4c0,0.1,0.1,0.2,0.2,0.2c0.2,0.1,0.3,0.1,0.5,0C17.4,65.2,17.5,65,17.6,64.7z M14.7,62.9c0.1-0.2,0.1-0.4,0-0.6
	c-0.1-0.2-0.2-0.3-0.4-0.4c-0.2-0.1-0.5-0.2-0.6-0.1c-0.2,0-0.3,0.2-0.4,0.4c-0.1,0.2-0.1,0.4,0,0.6c0.1,0.2,0.2,0.3,0.5,0.4
	c0.2,0.1,0.4,0.2,0.6,0.1C14.4,63.2,14.5,63.1,14.7,62.9z"/>
<path class="st1" d="M11.3,64.5l4.1,2.2l-0.4,0.9l-0.6-0.1l0,0.1c0.1,0.1,0.2,0.3,0.2,0.4c0,0.1,0.1,0.3,0.1,0.4
	c0,0.1-0.1,0.3-0.1,0.4c-0.1,0.2-0.2,0.3-0.3,0.4c-0.1,0.1-0.2,0.2-0.4,0.2l0,0c0.1,0,0.1,0.1,0.2,0.1c0.1,0.1,0.2,0.1,0.3,0.2
	c0.1,0.1,0.2,0.1,0.3,0.2l1.2,0.6l-0.6,1.2l-5.8-3.1l0.6-1.2l2.4,1.3c0.3,0.2,0.5,0.2,0.7,0.2c0.2,0,0.4-0.2,0.5-0.4
	c0.1-0.2,0.1-0.4,0.1-0.6c0-0.2-0.1-0.4-0.3-0.5c-0.2-0.2-0.4-0.3-0.7-0.5l-1.9-1L11.3,64.5z"/>
<path class="st1" d="M9.2,69.5c0.6,0.3,1.1,0.7,1.6,1c0.4,0.4,0.8,0.7,1,1.1c0.2,0.4,0.3,0.8,0.3,1.3c0,0.4-0.1,0.9-0.4,1.4
	c-0.3,0.6-0.7,1.1-1.2,1.3c-0.5,0.2-1.1,0.3-1.8,0.2C8,75.7,7.3,75.4,6.5,75c-0.8-0.4-1.5-0.9-2-1.4c-0.5-0.5-0.8-1-0.9-1.6
	c-0.1-0.6,0-1.2,0.3-1.9c0.3-0.6,0.7-1.1,1.2-1.3c0.5-0.2,1.1-0.3,1.8-0.2C7.6,68.8,8.4,69.1,9.2,69.5z M7.3,73.4
	c0.6,0.3,1.1,0.5,1.5,0.7c0.4,0.1,0.8,0.2,1,0.1c0.3-0.1,0.5-0.2,0.6-0.5c0.1-0.3,0.1-0.5,0-0.8c-0.1-0.3-0.3-0.5-0.7-0.8
	c-0.4-0.3-0.8-0.6-1.4-0.9c-0.6-0.3-1.1-0.5-1.5-0.7c-0.4-0.1-0.8-0.2-1-0.1c-0.3,0.1-0.5,0.2-0.6,0.5c-0.1,0.3-0.1,0.5,0,0.8
	c0.1,0.3,0.3,0.5,0.7,0.8C6.3,72.8,6.7,73.1,7.3,73.4z"/>
<path class="st1" d="M3.9,75c0.3,0.2,0.6,0.4,0.8,0.7C4.9,76,5,76.3,5,76.6c0,0.3,0,0.7-0.1,1l0,0c0.4-0.6,0.8-1,1.3-1.1
	c0.5-0.2,0.9-0.1,1.4,0.1c0.4,0.2,0.8,0.6,1,1C8.9,78.1,9,78.5,9,79.1c0,0.6-0.2,1.2-0.6,2c-0.2,0.4-0.4,0.8-0.7,1.2
	c-0.2,0.3-0.5,0.6-0.8,0.9l-1.4-0.7c0.3-0.2,0.6-0.5,0.9-0.9c0.3-0.3,0.5-0.6,0.6-1c0.3-0.6,0.4-1.1,0.3-1.4
	c-0.1-0.3-0.3-0.6-0.7-0.8c-0.2-0.1-0.4-0.1-0.6-0.1c-0.2,0-0.4,0.2-0.6,0.4c-0.2,0.2-0.4,0.6-0.7,1.1l-0.3,0.6l-1.2-0.6l0.3-0.6
	C3.8,78.6,4,78.2,4,77.9c0-0.3,0-0.5-0.1-0.7c-0.1-0.2-0.3-0.3-0.5-0.4c-0.3-0.1-0.5-0.2-0.8-0.1c-0.2,0.1-0.5,0.3-0.6,0.7
	c-0.1,0.3-0.2,0.5-0.2,0.7c0,0.2-0.1,0.5-0.1,0.7c0,0.2,0,0.4,0,0.6l-1.5,0.2c-0.1-0.4-0.1-0.9,0-1.4c0.1-0.5,0.2-1,0.5-1.6
	c0.4-0.8,0.9-1.4,1.4-1.7C2.8,74.7,3.3,74.7,3.9,75z"/>
</svg>
