<?xml version="1.0" encoding="utf-8"?>
<!-- Generator: Adobe Illustrator 27.6.1, SVG Export Plug-In . SVG Version: 6.00 Build 0)  -->
<svg version="1.1" id="Layer_1" xmlns="http://www.w3.org/2000/svg" xmlns:xlink="http://www.w3.org/1999/xlink" x="0px" y="0px"
	 viewBox="0 0 223 121" style="enable-background:new 0 0 223 121;" xml:space="preserve">
<style type="text/css">
	.st0{fill:url(#SVGID_1_);}
	.st1{fill:url(#SVGID_00000017503156514877659110000005352632858033513640_);}
	.st2{fill:#08481E;}
	.st3{fill:url(#SVGID_00000036953873840804194510000004217614857790686889_);}
	.st4{fill:url(#SVGID_00000147937239011979413410000005475855480794792111_);}
	.st5{fill:#F70000;}
	.st6{fill:#FFFFFF;}
</style>
<linearGradient id="SVGID_1_" gradientUnits="userSpaceOnUse" x1="182.2083" y1="71.6693" x2="141.2082" y2="41.0319" gradientTransform="matrix(1 0 0 -1 0 122)">
	<stop  offset="0.5592" style="stop-color:#E87E01"/>
	<stop  offset="1" style="stop-color:#824701"/>
</linearGradient>
<path class="st0" d="M158,93.1l19-11l15.9-9.1c1.9-1.1,2.5-3.4,1.3-5.2c-7.9-12.1-19-23.1-31.2-30.8c-1.7-1.1-4-0.5-5.1,1.2
	l-1.2,1.9l-8.1,14l-10.8,19.4c7.8,4.6,14.8,11,19.5,18.7L158,93.1z"/>
<linearGradient id="SVGID_00000088106446008048145260000003722003639232044679_" gradientUnits="userSpaceOnUse" x1="84.4776" y1="99.4983" x2="100.1386" y2="44.5313" gradientTransform="matrix(1 0 0 -1 0 122)">
	<stop  offset="0" style="stop-color:#2FB717"/>
	<stop  offset="1" style="stop-color:#15510A"/>
</linearGradient>
<path style="fill:url(#SVGID_00000088106446008048145260000003722003639232044679_);" d="M82.8,73.1c7.7-4.2,19.6-6.8,29-7
	c0,0,0-13.4,0-22c0-5.7,0-13.6,0-18.2c0-2.1-1.7-3.8-3.9-3.7C92.9,22.8,76.9,27,64.1,33.3c-1.9,1-2.6,3.3-1.5,5.2l9.2,15.7
	L82.8,73.1z"/>
<path class="st2" d="M111.6,66.1c9.3,0.1,18.6,3,26.3,7.2L149,53.9l8.8-16c1-1.8,0.4-4.2-1.5-5.1c-12.3-6.4-26.3-10.4-40.9-11.2
	c-2.1-0.1-3.8,1.6-3.8,3.7v18.2V66.1z"/>
<linearGradient id="SVGID_00000124867997894337067090000014350444829872041112_" gradientUnits="userSpaceOnUse" x1="41.2875" y1="70.2572" x2="71.0238" y2="36.4659" gradientTransform="matrix(1 0 0 -1 0 122)">
	<stop  offset="0" style="stop-color:#1936CE"/>
	<stop  offset="1" style="stop-color:#0D1B68"/>
</linearGradient>
<path style="fill:url(#SVGID_00000124867997894337067090000014350444829872041112_);" d="M62.4,92.5c4.7-7.7,13.1-15,20.9-19.6
	L72.1,53.8L62.9,38c-1.1-1.8-3.4-2.4-5.2-1.3c-12.4,7.8-24.5,18.9-32.6,30.9c-1.2,1.8-0.6,4.2,1.3,5.2l15.9,9.1l19.4,11.5L62.4,92.5
	z"/>
<linearGradient id="SVGID_00000004540739642969102910000005624520337703362725_" gradientUnits="userSpaceOnUse" x1="8.1066" y1="27.1489" x2="54.3951" y2="23.7066" gradientTransform="matrix(1 0 0 -1 0 122)">
	<stop  offset="0" style="stop-color:#1EE4E4"/>
	<stop  offset="1" style="stop-color:#117E7E"/>
</linearGradient>
<path style="fill:url(#SVGID_00000004540739642969102910000005624520337703362725_);" d="M53.9,120.2c0.2-9.6,3.9-19.5,8.3-27.4
	L41.5,81.1l-16.3-9.6C23.4,70.4,21,71.1,20,73c-6.5,12.8-10.5,28-11.3,43.2c-0.1,2.2,1.6,4,3.8,4h18.7H53.9z"/>
<path class="st5" d="M158,93.1c4.4,7.8,7.4,17.8,7.5,27.4h41.3c2.2,0,3.9-1.8,3.8-4c-0.7-15.1-5-30-11.5-42.7
	c-1-1.9-3.3-2.6-5.2-1.5L177.1,82L158,93.1z"/>
<path class="st6" d="M44.5,97.7l-2.5,0c-0.1,0-0.2,0-0.4,0c-0.1,0-0.3,0-0.4,0c-0.1,0-0.3,0-0.4,0c-0.1,0-0.2,0-0.3,0l0,0
	c0.1,0,0.1,0.1,0.2,0.1c0.1,0.1,0.2,0.1,0.3,0.2c0.1,0.1,0.2,0.1,0.4,0.2c0.1,0.1,0.2,0.1,0.3,0.2l2.1,1.3l-0.2,0.9l-4.8,0l0.2-0.8
	l2.5,0c0.2,0,0.3,0,0.5,0c0.2,0,0.3,0,0.5,0c0.2,0,0.3,0,0.4,0l0,0c-0.1,0-0.1-0.1-0.2-0.1c-0.1,0-0.2-0.1-0.3-0.2
	c-0.1-0.1-0.2-0.1-0.3-0.2c-0.1-0.1-0.2-0.1-0.3-0.2l-2.2-1.4l0.2-0.9l2.6,0c0.1,0,0.3,0,0.4,0c0.2,0,0.3,0,0.5,0c0.1,0,0.3,0,0.4,0
	l0,0c-0.1,0-0.2-0.1-0.3-0.2c-0.1-0.1-0.3-0.1-0.4-0.2c-0.2-0.1-0.3-0.2-0.5-0.3l-2.1-1.3l0.2-0.8l4.1,2.5L44.5,97.7z"/>
<path class="st6" d="M41,101.8c0.4,0.1,0.7,0.2,0.9,0.4c0.3,0.2,0.5,0.4,0.6,0.6c0.1,0.2,0.2,0.5,0.3,0.8c0,0.3,0,0.6-0.1,0.9
	c-0.1,0.3-0.2,0.6-0.4,0.8c-0.2,0.2-0.4,0.4-0.6,0.5c-0.2,0.1-0.5,0.2-0.8,0.2c-0.3,0-0.7,0-1-0.1c-0.5-0.1-0.9-0.3-1.2-0.6
	c-0.3-0.3-0.5-0.6-0.6-0.9c-0.1-0.4-0.1-0.8,0-1.2c0.1-0.4,0.3-0.7,0.6-1c0.3-0.3,0.6-0.4,1-0.5C40,101.6,40.5,101.6,41,101.8z
	 M40,105c0.3,0.1,0.6,0.1,0.9,0.1c0.3,0,0.5-0.1,0.7-0.2c0.2-0.1,0.3-0.4,0.4-0.6c0.1-0.3,0.1-0.5,0-0.7c-0.1-0.2-0.2-0.4-0.4-0.6
	c-0.2-0.2-0.5-0.3-0.8-0.4c-0.3-0.1-0.6-0.1-0.9-0.1c-0.3,0-0.5,0.1-0.7,0.2c-0.2,0.1-0.3,0.4-0.4,0.6c-0.1,0.4-0.1,0.8,0.2,1
	C39.2,104.7,39.5,104.9,40,105z"/>
<path class="st6" d="M40.9,110.5l-5.9-1.6l0.2-0.8l5.1,1.4l0.7-2.5l0.7,0.2L40.9,110.5z"/>
<path class="st6" d="M28.4,94.6l0.2-0.9l2.8-0.2c0.1,0,0.3,0,0.4,0c0.1,0,0.3,0,0.4,0c0.1,0,0.2,0,0.4,0l0,0
	c-0.1-0.1-0.3-0.2-0.5-0.3c-0.2-0.1-0.4-0.2-0.5-0.4l-2.3-1.6l0.2-0.9l4.5,3.3c0.3,0.2,0.5,0.4,0.6,0.6c0.2,0.2,0.3,0.4,0.3,0.7
	c0.1,0.2,0,0.5,0,0.8c0,0.1-0.1,0.2-0.1,0.3c0,0.1-0.1,0.2-0.1,0.2L34.1,96c0-0.1,0.1-0.1,0.1-0.2c0-0.1,0.1-0.2,0.1-0.3
	c0-0.2,0.1-0.3,0-0.5c0-0.1-0.1-0.3-0.2-0.4c-0.1-0.1-0.2-0.2-0.4-0.3L33.3,94L28.4,94.6z"/>
<path class="st6" d="M28.2,95.2c0-0.1,0.1-0.2,0.1-0.3c0-0.1,0.1-0.2,0.1-0.2l0.7,0.3c0,0.1-0.1,0.1-0.1,0.2c0,0.1-0.1,0.2-0.1,0.2
	c0,0.2-0.1,0.3,0,0.5c0,0.2,0.1,0.3,0.2,0.5c0.1,0.2,0.2,0.3,0.4,0.4c0.2,0.1,0.3,0.2,0.6,0.3l2.3,0.6l-0.2,0.8l-4.4-1.2l0.2-0.6
	l0.8,0.1l0,0c-0.1-0.1-0.3-0.3-0.3-0.5c-0.1-0.2-0.2-0.3-0.2-0.5C28.1,95.6,28.1,95.4,28.2,95.2z"/>
<path class="st6" d="M26.8,100.2c0.1-0.4,0.3-0.7,0.5-0.9c0.2-0.2,0.5-0.4,0.9-0.4c0.3-0.1,0.7,0,1.1,0.1l0.5,0.1l-0.8,3
	c0.5,0.1,0.9,0.1,1.2-0.1c0.3-0.2,0.5-0.5,0.7-0.9c0.1-0.3,0.1-0.5,0.1-0.8c0-0.2,0-0.5,0-0.7l0.7,0.2c0,0.2,0.1,0.5,0,0.7
	c0,0.2-0.1,0.5-0.2,0.8c-0.1,0.4-0.3,0.8-0.6,1.1c-0.3,0.3-0.6,0.5-1,0.5c-0.4,0.1-0.8,0.1-1.3-0.1c-0.5-0.1-0.9-0.3-1.2-0.6
	c-0.3-0.3-0.5-0.6-0.6-0.9C26.6,101,26.6,100.6,26.8,100.2z M27.4,100.4c-0.1,0.3-0.1,0.6,0.1,0.9c0.2,0.3,0.4,0.5,0.8,0.6l0.6-2.2
	c-0.2-0.1-0.5-0.1-0.7-0.1c-0.2,0-0.4,0.1-0.5,0.2C27.6,100,27.5,100.2,27.4,100.4z"/>
<path class="st6" d="M24.7,102.3L30,106l-0.2,0.9l-6.4,0.5l0.2-0.8l4.1-0.3c0.1,0,0.3,0,0.5,0c0.2,0,0.3,0,0.5,0c0.2,0,0.3,0,0.4,0
	c-0.1-0.1-0.2-0.1-0.4-0.2c-0.1-0.1-0.3-0.2-0.4-0.2c-0.1-0.1-0.3-0.2-0.4-0.3l-3.4-2.3L24.7,102.3z"/>
<path class="st6" d="M59,65.1L56.8,64c-0.1-0.1-0.2-0.1-0.3-0.2c-0.1-0.1-0.2-0.1-0.4-0.2c-0.1-0.1-0.2-0.1-0.3-0.2
	c-0.1-0.1-0.2-0.1-0.2-0.1l0,0c0,0.1,0.1,0.1,0.2,0.2c0.1,0.1,0.1,0.2,0.2,0.3c0.1,0.1,0.1,0.2,0.2,0.3c0.1,0.1,0.1,0.2,0.2,0.3
	l1.2,2.2l-0.6,0.7l-4.2-2.2l0.6-0.6l2.2,1.2c0.1,0.1,0.3,0.2,0.4,0.3c0.2,0.1,0.3,0.2,0.4,0.3c0.1,0.1,0.2,0.2,0.3,0.2l0,0
	c0-0.1-0.1-0.1-0.2-0.2c-0.1-0.1-0.1-0.2-0.2-0.3c-0.1-0.1-0.1-0.2-0.2-0.3c-0.1-0.1-0.1-0.2-0.2-0.3l-1.3-2.3l0.6-0.7l2.4,1.2
	c0.1,0.1,0.2,0.1,0.4,0.2c0.1,0.1,0.3,0.1,0.4,0.2c0.1,0.1,0.2,0.1,0.3,0.2l0,0c-0.1-0.1-0.1-0.2-0.2-0.3c-0.1-0.1-0.2-0.3-0.3-0.4
	c-0.1-0.1-0.2-0.3-0.3-0.4L56.6,61l0.6-0.6l2.5,4L59,65.1z"/>
<path class="st6" d="M54,67.1c0.3,0.3,0.5,0.5,0.6,0.8c0.1,0.3,0.2,0.5,0.3,0.8c0,0.3,0,0.5-0.1,0.8c-0.1,0.3-0.3,0.5-0.5,0.8
	c-0.2,0.2-0.4,0.4-0.7,0.5C53.3,70.9,53,71,52.7,71c-0.3,0-0.6-0.1-0.8-0.2c-0.3-0.1-0.6-0.3-0.8-0.6c-0.4-0.3-0.6-0.7-0.8-1.1
	c-0.1-0.4-0.2-0.7-0.1-1.1c0.1-0.4,0.3-0.7,0.6-1c0.3-0.3,0.6-0.5,1-0.6c0.4-0.1,0.7-0.1,1.1,0C53.2,66.5,53.6,66.8,54,67.1z
	 M51.6,69.6c0.3,0.2,0.5,0.4,0.8,0.5c0.2,0.1,0.5,0.1,0.7,0.1c0.2,0,0.4-0.2,0.6-0.4c0.2-0.2,0.3-0.4,0.3-0.7c0-0.2,0-0.5-0.1-0.7
	c-0.1-0.2-0.3-0.5-0.6-0.7c-0.3-0.2-0.5-0.4-0.7-0.5c-0.2-0.1-0.5-0.1-0.7-0.1c-0.2,0-0.4,0.2-0.6,0.4c-0.3,0.3-0.4,0.7-0.3,1
	C51,68.9,51.2,69.2,51.6,69.6z"/>
<path class="st6" d="M49.9,74.8l-4.5-4.1l0.6-0.6l3.9,3.6l1.8-1.9l0.5,0.5L49.9,74.8z"/>
<path class="st6" d="M103.1,43.5l-0.8,0.2l-1.8-6.2l0.8-0.2L103.1,43.5z"/>
<path class="st6" d="M98,40.1c0.5-0.2,1-0.2,1.3,0c0.3,0.2,0.6,0.5,0.7,1l0.9,3l-0.6,0.2l-0.3-0.6l0,0c-0.1,0.2-0.2,0.4-0.3,0.5
	c-0.1,0.1-0.2,0.3-0.4,0.4c-0.2,0.1-0.4,0.2-0.6,0.3c-0.3,0.1-0.5,0.1-0.8,0.1c-0.2,0-0.4-0.1-0.6-0.3c-0.2-0.2-0.3-0.4-0.4-0.7
	c-0.1-0.4-0.1-0.8,0.2-1.2c0.3-0.3,0.8-0.6,1.5-0.8l0.7-0.3l-0.1-0.2c-0.1-0.3-0.2-0.6-0.4-0.7c-0.2-0.1-0.4-0.1-0.7,0
	c-0.2,0.1-0.4,0.2-0.6,0.3c-0.2,0.1-0.4,0.3-0.5,0.4L96.6,41c0.2-0.2,0.4-0.3,0.6-0.5C97.5,40.3,97.7,40.2,98,40.1z M99.5,42.2
	l-0.6,0.2c-0.5,0.2-0.8,0.4-1,0.6c-0.2,0.2-0.2,0.4-0.1,0.7c0.1,0.2,0.2,0.4,0.4,0.5c0.2,0.1,0.4,0.1,0.6,0c0.4-0.1,0.6-0.3,0.8-0.6
	c0.2-0.3,0.2-0.6,0.1-1L99.5,42.2z"/>
<path class="st6" d="M93.5,41.4c0.5-0.1,0.9-0.1,1.2,0.1c0.3,0.2,0.6,0.6,0.7,1.1l0.8,2.9l-0.8,0.2l-0.8-2.8
	c-0.1-0.3-0.2-0.6-0.4-0.7c-0.2-0.1-0.4-0.2-0.7-0.1c-0.4,0.1-0.7,0.3-0.8,0.6c-0.1,0.3-0.1,0.7,0,1.1l0.7,2.4l-0.8,0.2l-0.8-2.8
	c-0.1-0.2-0.2-0.4-0.3-0.5c-0.1-0.1-0.2-0.2-0.4-0.3c-0.1,0-0.3,0-0.5,0c-0.3,0.1-0.5,0.2-0.6,0.4C90,43.5,90,43.7,90,43.9
	c0,0.3,0,0.5,0.1,0.9l0.7,2.3L90,47.3l-1.3-4.4l0.6-0.2l0.3,0.6l0,0c0-0.2,0.1-0.3,0.2-0.5c0.1-0.1,0.2-0.3,0.4-0.4
	c0.1-0.1,0.3-0.2,0.5-0.2c0.3-0.1,0.6-0.1,0.9-0.1c0.3,0.1,0.5,0.2,0.7,0.4l0.1,0c0.1-0.3,0.2-0.5,0.4-0.7
	C93,41.7,93.2,41.5,93.5,41.4z"/>
<path class="st6" d="M87.3,43.2c0.1,0,0.2,0,0.3-0.1c0.1,0,0.2,0,0.2,0l0.1,0.8c-0.1,0-0.1,0-0.2,0c-0.1,0-0.2,0-0.2,0.1
	c-0.2,0-0.3,0.1-0.5,0.2c-0.1,0.1-0.2,0.2-0.3,0.4c-0.1,0.2-0.1,0.3-0.1,0.5c0,0.2,0,0.4,0.1,0.6l0.7,2.3l-0.8,0.2l-1.3-4.4l0.6-0.2
	l0.3,0.8l0,0c0-0.2,0.1-0.4,0.2-0.5c0.1-0.2,0.2-0.3,0.4-0.4C87,43.4,87.1,43.3,87.3,43.2z"/>
<path class="st6" d="M84.8,46.4c0.1,0.4,0.2,0.7,0.1,1c0,0.3-0.1,0.6-0.2,0.8c-0.1,0.2-0.3,0.5-0.5,0.6c-0.2,0.2-0.5,0.3-0.8,0.4
	c-0.3,0.1-0.6,0.1-0.9,0.1c-0.3,0-0.5-0.1-0.8-0.3c-0.2-0.1-0.4-0.3-0.6-0.6c-0.2-0.3-0.3-0.6-0.4-0.9c-0.1-0.5-0.2-0.9-0.1-1.3
	c0.1-0.4,0.2-0.7,0.5-1c0.3-0.3,0.6-0.5,1-0.6c0.4-0.1,0.8-0.1,1.1,0c0.4,0.1,0.7,0.3,0.9,0.6C84.4,45.5,84.6,45.9,84.8,46.4z
	 M81.5,47.4c0.1,0.3,0.2,0.6,0.4,0.8c0.2,0.2,0.3,0.4,0.6,0.4c0.2,0.1,0.5,0.1,0.8,0c0.3-0.1,0.5-0.2,0.6-0.4
	c0.1-0.2,0.2-0.4,0.2-0.7c0-0.3,0-0.6-0.1-0.9c-0.1-0.3-0.2-0.6-0.4-0.8c-0.2-0.2-0.3-0.4-0.6-0.4c-0.2-0.1-0.5-0.1-0.8,0
	c-0.4,0.1-0.7,0.4-0.8,0.7C81.3,46.4,81.3,46.8,81.5,47.4z"/>
<path class="st6" d="M80.1,50.1l-1,0.3l-4.4-3.9l0,0c0,0.1,0.1,0.3,0.2,0.5c0.1,0.2,0.1,0.3,0.2,0.5c0.1,0.2,0.1,0.4,0.2,0.6
	l0.9,3.2l-0.8,0.2l-1.7-5.8l1-0.3l4.4,3.9l0,0c0-0.1-0.1-0.3-0.1-0.4c-0.1-0.2-0.1-0.4-0.2-0.5c-0.1-0.2-0.1-0.4-0.2-0.5l-0.9-3.2
	l0.8-0.2L80.1,50.1z"/>
<path class="st6" d="M143.2,53c0.4,0.1,0.7,0.2,0.9,0.5c0.2,0.2,0.4,0.5,0.5,0.8c0.1,0.3,0.1,0.7,0,1.1l-0.1,0.4l-3.1-0.7
	c-0.1,0.5-0.1,1,0.1,1.3c0.2,0.3,0.5,0.5,1,0.6c0.3,0.1,0.5,0.1,0.8,0.1c0.2,0,0.5,0,0.7-0.1l-0.1,0.6c-0.2,0.1-0.5,0.1-0.7,0.1
	c-0.2,0-0.5,0-0.8-0.1c-0.4-0.1-0.8-0.3-1.1-0.5c-0.3-0.2-0.5-0.6-0.6-0.9c-0.1-0.4-0.1-0.8,0-1.3c0.1-0.5,0.3-0.9,0.5-1.2
	c0.2-0.3,0.5-0.5,0.9-0.7C142.4,53,142.8,52.9,143.2,53z M143,53.6c-0.4-0.1-0.7,0-0.9,0.2c-0.3,0.2-0.5,0.5-0.6,0.9l2.4,0.5
	c0.1-0.3,0.1-0.5,0-0.7c0-0.2-0.1-0.4-0.3-0.6C143.5,53.7,143.3,53.6,143,53.6z"/>
<path class="st6" d="M136.7,58.5c-0.6-0.1-1-0.3-1.3-0.6c-0.3-0.3-0.4-0.6-0.3-1c0.1-0.3,0.2-0.5,0.4-0.7c0.2-0.2,0.5-0.2,0.8-0.2
	c-0.1-0.1-0.2-0.2-0.3-0.3c-0.1-0.1-0.1-0.3,0-0.4c0-0.2,0.1-0.3,0.2-0.4c0.1-0.1,0.3-0.2,0.5-0.3c-0.2-0.1-0.4-0.3-0.5-0.6
	c-0.1-0.3-0.1-0.5,0-0.8c0.1-0.3,0.2-0.6,0.4-0.8c0.2-0.2,0.4-0.3,0.7-0.4c0.3-0.1,0.6-0.1,1,0c0.1,0,0.2,0,0.2,0.1
	c0.1,0,0.2,0,0.2,0.1c0.1,0,0.1,0.1,0.2,0.1l1.5,0.3l-0.1,0.4l-0.9-0.1c0.1,0.1,0.1,0.3,0.1,0.4c0,0.2,0,0.3,0,0.5
	c-0.1,0.4-0.3,0.8-0.7,1c-0.4,0.2-0.8,0.2-1.3,0.1c-0.1,0-0.3-0.1-0.4-0.1c-0.1,0-0.3,0.1-0.4,0.2c-0.1,0.1-0.1,0.2-0.2,0.3
	c0,0.1,0,0.2,0,0.2c0,0.1,0.1,0.1,0.2,0.2c0.1,0,0.2,0.1,0.4,0.1l0.8,0.2c0.5,0.1,0.8,0.3,1.1,0.5c0.2,0.3,0.3,0.6,0.2,1
	c-0.1,0.5-0.4,0.8-0.9,1C138.1,58.7,137.5,58.7,136.7,58.5z M136.8,58c0.4,0.1,0.7,0.1,0.9,0.1c0.3,0,0.5-0.1,0.6-0.2
	c0.2-0.1,0.3-0.3,0.3-0.5c0-0.2,0-0.3,0-0.4c-0.1-0.1-0.2-0.2-0.3-0.3c-0.2-0.1-0.3-0.1-0.6-0.2l-0.8-0.2c-0.2,0-0.4,0-0.6,0
	c-0.2,0-0.3,0.1-0.4,0.2c-0.1,0.1-0.2,0.3-0.2,0.4c-0.1,0.2,0,0.4,0.2,0.6C136.2,57.8,136.4,57.9,136.8,58z M137.8,54.5
	c0.3,0.1,0.6,0,0.8-0.1c0.2-0.1,0.3-0.4,0.4-0.7c0.1-0.3,0-0.6-0.1-0.8c-0.1-0.2-0.4-0.3-0.7-0.4c-0.3-0.1-0.6,0-0.8,0.1
	c-0.2,0.1-0.3,0.4-0.4,0.7c-0.1,0.3,0,0.6,0.1,0.8C137.2,54.3,137.5,54.4,137.8,54.5z"/>
<path class="st6" d="M133.9,51.1c0.5,0.1,0.9,0.3,1.1,0.6c0.2,0.3,0.3,0.7,0.1,1.2l-0.7,3.1l-0.5-0.1l0-0.7l0,0
	c-0.2,0.1-0.3,0.2-0.5,0.3c-0.2,0.1-0.3,0.1-0.5,0.1c-0.2,0-0.4,0-0.7-0.1c-0.3-0.1-0.5-0.2-0.7-0.3c-0.2-0.1-0.3-0.3-0.4-0.5
	c-0.1-0.2-0.1-0.5,0-0.8c0.1-0.4,0.3-0.8,0.8-0.9c0.4-0.2,1-0.2,1.7,0l0.8,0.1l0.1-0.3c0.1-0.4,0.1-0.7-0.1-0.9
	c-0.1-0.2-0.4-0.3-0.7-0.4c-0.2,0-0.5-0.1-0.7,0c-0.2,0-0.4,0.1-0.7,0.1l-0.1-0.6c0.2-0.1,0.5-0.1,0.8-0.1
	C133.3,51,133.6,51,133.9,51.1z M134.3,53.6l-0.7-0.1c-0.6-0.1-1-0.1-1.2,0c-0.3,0.1-0.4,0.3-0.5,0.6c-0.1,0.3,0,0.5,0.1,0.6
	c0.1,0.2,0.3,0.3,0.6,0.3c0.4,0.1,0.8,0,1.1-0.1s0.5-0.5,0.6-0.9L134.3,53.6z"/>
<path class="st6" d="M130.8,50.4c0.1,0,0.2,0,0.3,0.1c0.1,0,0.2,0.1,0.3,0.1l-0.2,0.6c-0.1,0-0.1-0.1-0.2-0.1
	c-0.1,0-0.2-0.1-0.3-0.1c-0.2,0-0.4,0-0.5,0c-0.2,0-0.3,0.1-0.5,0.2c-0.1,0.1-0.3,0.3-0.4,0.4c-0.1,0.2-0.2,0.4-0.2,0.6l-0.5,2.4
	l-0.7-0.1l1-4.5l0.6,0.1l-0.1,0.8l0,0c0.1-0.1,0.3-0.3,0.4-0.4c0.2-0.1,0.3-0.2,0.5-0.2C130.4,50.4,130.6,50.4,130.8,50.4z"/>
<path class="st6" d="M125.8,49.3c0.4,0.1,0.7,0.2,0.9,0.5c0.2,0.2,0.4,0.5,0.5,0.8c0.1,0.3,0.1,0.7,0,1.1l-0.1,0.4l-3.1-0.7
	c-0.1,0.5-0.1,1,0.1,1.3c0.2,0.3,0.5,0.5,1,0.6c0.3,0.1,0.5,0.1,0.8,0.1c0.2,0,0.5,0,0.7-0.1l-0.1,0.6c-0.2,0.1-0.5,0.1-0.7,0.1
	c-0.2,0-0.5,0-0.8-0.1c-0.4-0.1-0.8-0.3-1.1-0.5c-0.3-0.2-0.5-0.6-0.6-0.9c-0.1-0.4-0.1-0.8,0-1.3c0.1-0.5,0.3-0.9,0.5-1.2
	c0.2-0.3,0.5-0.5,0.9-0.7C125,49.3,125.4,49.2,125.8,49.3z M125.6,49.9c-0.4-0.1-0.7,0-0.9,0.2c-0.3,0.2-0.5,0.5-0.6,0.9l2.4,0.5
	c0.1-0.3,0.1-0.5,0-0.7c0-0.2-0.1-0.4-0.3-0.6C126.1,50,125.9,49.9,125.6,49.9z"/>
<path class="st6" d="M119.8,52.9l-0.7-4.9l0.7,0.2l0.4,2.9c0,0.2,0.1,0.4,0.1,0.7c0,0.2,0,0.4,0,0.6l0,0c0.1-0.1,0.2-0.3,0.3-0.5
	c0.1-0.2,0.2-0.4,0.3-0.6l1.6-2.5l0.7,0.2l-2.7,4.1L119.8,52.9z"/>
<path class="st6" d="M117.4,52.3l-0.3-2.1l-2.4-0.5l-1.1,1.7l-0.7-0.1l3.7-5.5l0.6,0.1l1,6.5L117.4,52.3z M117,49.6l-0.3-2
	c0-0.1,0-0.1,0-0.3c0-0.1,0-0.2,0-0.4c0-0.1,0-0.2,0-0.3c-0.1,0.1-0.1,0.2-0.2,0.3c-0.1,0.1-0.1,0.2-0.2,0.3
	c-0.1,0.1-0.1,0.2-0.1,0.2l-1.1,1.7L117,49.6z"/>
<path class="st6" d="M142,40.8c0.4,0.1,0.7,0.2,0.9,0.5c0.2,0.2,0.4,0.5,0.5,0.8c0.1,0.3,0.1,0.7,0,1.1l-0.1,0.4l-3.1-0.7
	c-0.1,0.5-0.1,1,0.1,1.3c0.2,0.3,0.5,0.5,1,0.6c0.3,0.1,0.5,0.1,0.8,0.1c0.2,0,0.5,0,0.7-0.1l-0.1,0.6c-0.2,0.1-0.5,0.1-0.7,0.1
	c-0.2,0-0.5,0-0.8-0.1c-0.4-0.1-0.8-0.3-1.1-0.5c-0.3-0.2-0.5-0.6-0.6-0.9c-0.1-0.4-0.1-0.8,0-1.3c0.1-0.5,0.3-0.9,0.5-1.2
	c0.2-0.3,0.5-0.5,0.9-0.7C141.3,40.7,141.6,40.7,142,40.8z M141.9,41.4c-0.4-0.1-0.7,0-0.9,0.2c-0.3,0.2-0.5,0.5-0.6,0.9l2.4,0.5
	c0.1-0.3,0.1-0.5,0-0.7c0-0.2-0.1-0.4-0.3-0.6C142.4,41.5,142.2,41.4,141.9,41.4z"/>
<path class="st6" d="M136.1,44.3l-0.7-4.9l0.7,0.2l0.4,2.9c0,0.2,0.1,0.4,0.1,0.7c0,0.2,0,0.4,0,0.6l0,0c0.1-0.1,0.2-0.3,0.3-0.5
	c0.1-0.2,0.2-0.4,0.3-0.6l1.6-2.5l0.7,0.2l-2.7,4.1L136.1,44.3z"/>
<path class="st6" d="M134.4,41.6c-0.1,0.4-0.2,0.7-0.4,1c-0.2,0.3-0.3,0.5-0.6,0.6c-0.2,0.2-0.5,0.3-0.8,0.3c-0.3,0.1-0.6,0-0.9,0
	c-0.3-0.1-0.6-0.2-0.8-0.3c-0.2-0.2-0.4-0.4-0.5-0.6c-0.1-0.2-0.2-0.5-0.3-0.8c0-0.3,0-0.7,0.1-1c0.1-0.5,0.3-0.9,0.5-1.2
	c0.2-0.3,0.5-0.5,0.9-0.6c0.4-0.1,0.7-0.1,1.2,0c0.4,0.1,0.7,0.3,1,0.5c0.3,0.2,0.5,0.6,0.5,0.9C134.5,40.7,134.5,41.1,134.4,41.6z
	 M131,40.9c-0.1,0.4-0.1,0.7-0.1,1c0,0.3,0.1,0.5,0.3,0.7c0.2,0.2,0.4,0.3,0.7,0.4c0.3,0.1,0.6,0,0.8-0.1c0.2-0.1,0.4-0.3,0.6-0.5
	c0.2-0.2,0.3-0.5,0.3-0.9c0.1-0.4,0.1-0.7,0.1-1c0-0.3-0.1-0.5-0.3-0.7c-0.2-0.2-0.4-0.3-0.7-0.4c-0.5-0.1-0.8,0-1.1,0.2
	C131.3,39.9,131.1,40.3,131,40.9z"/>
<path class="st6" d="M127,35.7l-0.3,1.6c0,0.2-0.1,0.4-0.1,0.5c0,0.2-0.1,0.3-0.1,0.4l0,0c0.2-0.2,0.4-0.3,0.6-0.4
	c0.3-0.1,0.6-0.1,0.9,0c0.6,0.1,1,0.4,1.2,0.9c0.3,0.5,0.3,1.1,0.1,1.8c-0.1,0.5-0.3,0.9-0.5,1.2c-0.2,0.3-0.5,0.5-0.8,0.7
	c-0.3,0.1-0.7,0.1-1,0.1c-0.4-0.1-0.6-0.2-0.8-0.4c-0.2-0.2-0.3-0.4-0.4-0.6l-0.1,0l-0.3,0.6l-0.5-0.1l1.4-6.4L127,35.7z
	 M127.8,38.4c-0.3-0.1-0.6-0.1-0.8,0c-0.2,0.1-0.4,0.2-0.5,0.5c-0.1,0.2-0.2,0.6-0.3,0.9l0,0c-0.1,0.6-0.1,1,0,1.4
	c0.1,0.3,0.4,0.6,0.9,0.7c0.4,0.1,0.8,0,1-0.3c0.3-0.3,0.5-0.7,0.6-1.2c0.1-0.6,0.1-1,0-1.4C128.5,38.7,128.2,38.5,127.8,38.4z"/>
<path class="st6" d="M123.4,41.7l-0.3-2.1l-2.4-0.5l-1.1,1.7l-0.7-0.1l3.7-5.5l0.6,0.1l1,6.5L123.4,41.7z M123,38.9l-0.3-2
	c0-0.1,0-0.1,0-0.3c0-0.1,0-0.2,0-0.4c0-0.1,0-0.2,0-0.3c-0.1,0.1-0.1,0.2-0.2,0.3c-0.1,0.1-0.1,0.2-0.2,0.3c0,0.1-0.1,0.2-0.1,0.2
	l-1.1,1.7L123,38.9z"/>
<path class="st6" d="M172.7,66.4l-1.3,1.2c-0.1,0.1-0.2,0.2-0.3,0.3c-0.1,0.1-0.2,0.2-0.3,0.2l0,0c0.2,0,0.4,0,0.5,0
	c0.2,0,0.3,0.1,0.5,0.2c0.2,0.1,0.3,0.2,0.5,0.4c0.2,0.3,0.4,0.5,0.5,0.8c0.1,0.3,0.1,0.5,0,0.8c-0.1,0.3-0.3,0.5-0.6,0.8l-2.2,2.1
	l-0.6-0.6l2.1-2c0.3-0.3,0.4-0.5,0.4-0.7c0-0.2-0.1-0.5-0.3-0.7c-0.2-0.2-0.4-0.4-0.7-0.4c-0.2-0.1-0.4,0-0.7,0.1
	c-0.2,0.1-0.5,0.3-0.7,0.5l-1.7,1.6l-0.6-0.6l4.7-4.4L172.7,66.4z"/>
<path class="st6" d="M163.6,69.2c-0.4-0.4-0.7-0.9-0.7-1.2c-0.1-0.4,0.1-0.7,0.3-1c0.2-0.2,0.4-0.3,0.7-0.3c0.3,0,0.5,0.1,0.8,0.3
	c0-0.1-0.1-0.3,0-0.4c0-0.1,0.1-0.3,0.2-0.4c0.1-0.1,0.3-0.2,0.4-0.2c0.2,0,0.3,0,0.6,0.1c-0.1-0.2-0.1-0.5,0-0.8
	c0.1-0.3,0.2-0.5,0.4-0.7c0.2-0.2,0.5-0.4,0.8-0.4c0.3-0.1,0.5,0,0.8,0.1c0.3,0.1,0.5,0.3,0.8,0.6c0.1,0.1,0.1,0.1,0.2,0.2
	c0.1,0.1,0.1,0.1,0.2,0.2c0,0.1,0.1,0.1,0.1,0.2l1.1,1.1l-0.4,0.3l-0.7-0.5c0,0.1-0.1,0.3-0.1,0.4c-0.1,0.1-0.2,0.3-0.3,0.4
	c-0.3,0.3-0.7,0.5-1.1,0.4c-0.4,0-0.8-0.3-1.2-0.7c-0.1-0.1-0.2-0.2-0.2-0.3c-0.1,0-0.3-0.1-0.4,0c-0.1,0-0.2,0.1-0.3,0.1
	c-0.1,0.1-0.1,0.1-0.1,0.2c0,0.1,0,0.2,0.1,0.2c0.1,0.1,0.1,0.2,0.2,0.3l0.6,0.6c0.3,0.4,0.5,0.7,0.6,1s-0.1,0.6-0.4,0.9
	c-0.4,0.4-0.8,0.5-1.3,0.4C164.7,70.2,164.2,69.8,163.6,69.2z M164.1,68.8c0.2,0.3,0.5,0.4,0.7,0.6c0.2,0.1,0.4,0.2,0.6,0.2
	c0.2,0,0.3-0.1,0.5-0.2c0.1-0.1,0.2-0.2,0.2-0.3c0-0.1,0-0.2-0.1-0.4c-0.1-0.1-0.2-0.3-0.4-0.4l-0.5-0.5c-0.1-0.1-0.3-0.2-0.4-0.3
	s-0.3-0.1-0.4-0.1c-0.1,0-0.3,0.1-0.4,0.2c-0.2,0.2-0.2,0.4-0.2,0.6C163.7,68.3,163.8,68.6,164.1,68.8z M166.8,66.5
	c0.2,0.2,0.4,0.3,0.7,0.3c0.2,0,0.4-0.1,0.7-0.3c0.2-0.2,0.4-0.4,0.4-0.7c0-0.2-0.1-0.4-0.3-0.7c-0.2-0.2-0.4-0.3-0.7-0.3
	c-0.2,0-0.5,0.1-0.7,0.3c-0.2,0.2-0.3,0.4-0.3,0.6C166.5,66.1,166.6,66.3,166.8,66.5z"/>
<path class="st6" d="M166.5,62.7l-3.3,3.2l-0.6-0.6l3.3-3.2L166.5,62.7z M167.5,61.2c0.1,0.1,0.1,0.2,0.2,0.3c0,0.1,0,0.2-0.2,0.4
	c-0.1,0.1-0.3,0.2-0.4,0.2c-0.1,0-0.2-0.1-0.3-0.2c-0.1-0.1-0.1-0.2-0.2-0.3c0-0.1,0.1-0.2,0.2-0.4c0.1-0.1,0.2-0.2,0.4-0.2
	C167.3,61.1,167.4,61.1,167.5,61.2z"/>
<path class="st6" d="M161.6,64.2l-0.6-0.6l2-1.9l-2.1-2.2l-2,1.9l-0.6-0.6l4.4-4.2l0.6,0.6l-1.8,1.7l2.1,2.2l1.8-1.7L166,60
	L161.6,64.2z"/>
<path class="st6" d="M183.6,107l-1.7,0.5c-0.1,0-0.3,0.1-0.4,0.1c-0.1,0-0.2,0-0.3,0.1l0,0c0.2,0.1,0.3,0.1,0.5,0.2
	c0.1,0.1,0.3,0.2,0.4,0.4c0.1,0.2,0.2,0.3,0.2,0.5c0.1,0.3,0.1,0.7,0.1,0.9c0,0.3-0.2,0.5-0.4,0.7c-0.2,0.2-0.5,0.3-0.9,0.4
	l-2.9,0.8l-0.2-0.8l2.8-0.8c0.4-0.1,0.6-0.2,0.7-0.4c0.1-0.2,0.2-0.5,0.1-0.8c-0.1-0.3-0.2-0.5-0.4-0.7c-0.2-0.1-0.4-0.2-0.6-0.2
	c-0.3,0-0.6,0-0.9,0.1l-2.2,0.6l-0.2-0.8l6.2-1.7L183.6,107z"/>
<path class="st6" d="M174.3,105.2c-0.2-0.6-0.2-1.1-0.1-1.4c0.1-0.4,0.4-0.6,0.8-0.7c0.3-0.1,0.5-0.1,0.8,0.1
	c0.2,0.1,0.4,0.3,0.6,0.6c0-0.1,0.1-0.3,0.2-0.4c0.1-0.1,0.2-0.2,0.3-0.2c0.2,0,0.3,0,0.5,0c0.1,0.1,0.3,0.2,0.5,0.3
	c0-0.3,0.1-0.5,0.3-0.7c0.2-0.2,0.4-0.3,0.7-0.4c0.3-0.1,0.6-0.1,0.9,0c0.3,0.1,0.5,0.2,0.7,0.4c0.2,0.2,0.3,0.5,0.4,0.9
	c0,0.1,0,0.2,0.1,0.3c0,0.1,0,0.2,0,0.3c0,0.1,0,0.1,0,0.2l0.4,1.5l-0.5,0.1l-0.3-0.8c-0.1,0.1-0.2,0.2-0.3,0.3
	c-0.1,0.1-0.3,0.2-0.4,0.2c-0.4,0.1-0.8,0.1-1.2-0.2c-0.3-0.2-0.6-0.6-0.7-1.2c0-0.1-0.1-0.3-0.1-0.4c-0.1-0.1-0.2-0.2-0.3-0.2
	c-0.1,0-0.2,0-0.3,0c-0.1,0-0.1,0.1-0.2,0.1c0,0.1,0,0.2,0,0.3c0,0.1,0,0.2,0.1,0.4l0.2,0.8c0.1,0.5,0.1,0.9,0,1.2
	c-0.1,0.3-0.4,0.5-0.8,0.6c-0.5,0.1-0.9,0-1.3-0.3C174.8,106.5,174.5,105.9,174.3,105.2z M174.9,105c0.1,0.3,0.2,0.6,0.3,0.8
	c0.1,0.2,0.3,0.4,0.4,0.4c0.2,0.1,0.3,0.1,0.5,0.1c0.2,0,0.3-0.1,0.3-0.2c0.1-0.1,0.1-0.2,0.1-0.4c0-0.2,0-0.3-0.1-0.6l-0.2-0.7
	c-0.1-0.2-0.1-0.3-0.2-0.5c-0.1-0.1-0.2-0.2-0.3-0.3c-0.1,0-0.3,0-0.4,0c-0.2,0.1-0.4,0.2-0.4,0.4
	C174.8,104.4,174.8,104.7,174.9,105z M178.4,104.2c0.1,0.3,0.2,0.5,0.4,0.6c0.2,0.1,0.4,0.1,0.7,0c0.3-0.1,0.5-0.2,0.6-0.4
	c0.1-0.2,0.1-0.4,0.1-0.7c-0.1-0.3-0.2-0.5-0.4-0.6c-0.2-0.1-0.5-0.1-0.8,0c-0.3,0.1-0.5,0.2-0.6,0.4
	C178.4,103.7,178.3,104,178.4,104.2z"/>
<path class="st6" d="M180,100.8l-4.4,1.2l-0.2-0.8l4.4-1.2L180,100.8z M181.5,99.9c0,0.1,0,0.2,0,0.4c0,0.1-0.2,0.2-0.3,0.2
	c-0.2,0-0.3,0-0.4,0c-0.1-0.1-0.2-0.2-0.2-0.3c0-0.1,0-0.3,0-0.4c0.1-0.1,0.2-0.2,0.3-0.2c0.2,0,0.3,0,0.4,0
	C181.4,99.7,181.5,99.8,181.5,99.9z"/>
<path class="st6" d="M174.9,99.7l-0.2-0.8l2.7-0.7l-0.8-2.9l-2.7,0.7l-0.2-0.8l5.9-1.6l0.2,0.8l-2.4,0.7l0.8,2.9l2.4-0.7l0.2,0.8
	L174.9,99.7z"/>
<path class="st6" d="M190.3,104.2l0.2,0.9l-2.3,1.6c-0.1,0.1-0.2,0.2-0.3,0.2c-0.1,0.1-0.2,0.1-0.3,0.2c-0.1,0.1-0.2,0.1-0.3,0.2
	l0,0c0.1,0,0.3,0,0.5,0c0.2,0,0.4,0,0.6,0l2.8,0.2l0.2,0.9l-5.6-0.5c-0.3,0-0.6-0.1-0.8-0.2c-0.2-0.1-0.4-0.2-0.6-0.4
	c-0.2-0.2-0.3-0.4-0.4-0.7c0-0.1-0.1-0.2-0.1-0.3c0-0.1,0-0.2,0-0.3l0.6-0.2c0,0.1,0,0.1,0,0.2c0,0.1,0,0.2,0.1,0.3
	c0,0.2,0.1,0.3,0.2,0.4c0.1,0.1,0.2,0.2,0.4,0.2c0.1,0.1,0.3,0.1,0.5,0.1l0.6,0.1L190.3,104.2z"/>
<path class="st6" d="M190.2,103.6c0,0.1,0,0.2,0.1,0.3c0,0.1,0,0.2,0,0.2l-0.8,0.1c0-0.1,0-0.1,0-0.2c0-0.1,0-0.2,0-0.2
	c0-0.2-0.1-0.3-0.2-0.5c-0.1-0.1-0.2-0.2-0.4-0.3c-0.2-0.1-0.3-0.1-0.5-0.2c-0.2,0-0.4,0-0.6,0.1l-2.3,0.6l-0.2-0.8l4.4-1.2l0.2,0.6
	l-0.8,0.3l0,0c0.2,0,0.4,0.1,0.5,0.2c0.2,0.1,0.3,0.2,0.4,0.4C190,103.2,190.1,103.3,190.2,103.6z"/>
<path class="st6" d="M188.8,98.5c0.1,0.4,0.1,0.7,0,1.1c-0.1,0.3-0.3,0.6-0.5,0.8c-0.3,0.2-0.6,0.4-1,0.5l-0.5,0.1l-0.8-3
	c-0.5,0.1-0.8,0.4-1,0.7c-0.2,0.3-0.2,0.7-0.1,1.1c0.1,0.3,0.2,0.5,0.3,0.7c0.1,0.2,0.3,0.4,0.4,0.6l-0.7,0.2
	c-0.2-0.2-0.3-0.4-0.4-0.6c-0.1-0.2-0.2-0.5-0.3-0.8c-0.1-0.4-0.1-0.8-0.1-1.2c0.1-0.4,0.3-0.7,0.6-1c0.3-0.3,0.7-0.5,1.2-0.6
	c0.5-0.1,0.9-0.2,1.3-0.1c0.4,0.1,0.7,0.2,1,0.5C188.5,97.8,188.6,98.1,188.8,98.5z M188.1,98.7c-0.1-0.3-0.3-0.6-0.5-0.7
	c-0.3-0.1-0.6-0.2-1-0.1l0.6,2.2c0.2-0.1,0.4-0.2,0.6-0.3c0.2-0.1,0.3-0.3,0.3-0.5C188.2,99.1,188.2,98.9,188.1,98.7z"/>
<path class="st6" d="M189.4,95.7l-6.4-0.5l-0.2-0.9l5.3-3.7l0.2,0.8l-3.4,2.3c-0.1,0.1-0.2,0.2-0.4,0.2c-0.1,0.1-0.3,0.2-0.4,0.2
	c-0.1,0.1-0.3,0.1-0.4,0.2c0.1,0,0.3,0,0.4,0c0.2,0,0.3,0,0.5,0c0.2,0,0.3,0,0.5,0l4.1,0.3L189.4,95.7z"/>
<path class="st6" d="M134.5,14l-0.6-1.9h-3l-0.6,1.9h-1.8l2.9-8.1h2.1l2.9,8.1H134.5z M133.5,10.6c-0.5-1.7-0.8-2.7-0.9-3
	c-0.1-0.2-0.1-0.4-0.1-0.5c-0.1,0.5-0.5,1.6-1,3.5H133.5z"/>
<path class="st6" d="M124.1,9.7h0.6c0.5,0,0.9-0.1,1.2-0.3c0.3-0.2,0.4-0.5,0.4-0.9c0-0.4-0.1-0.7-0.3-0.9c-0.2-0.2-0.6-0.3-1-0.3
	h-0.8V9.7z M128,8.4c0,0.9-0.3,1.5-0.8,2c-0.5,0.5-1.3,0.7-2.3,0.7h-0.7V14h-1.7V5.9h2.6c1,0,1.7,0.2,2.2,0.6
	C127.8,6.9,128,7.6,128,8.4z"/>
<path class="st6" d="M120.5,14h-1.7v-3.6c0-0.9-0.3-1.3-1-1.3c-0.5,0-0.8,0.2-1,0.5c-0.2,0.3-0.3,0.8-0.3,1.6V14h-1.7V5.4h1.7v1.8
	c0,0.1,0,0.5,0,1l0,0.5h0.1c0.4-0.6,1-0.9,1.8-0.9c0.7,0,1.3,0.2,1.7,0.6c0.4,0.4,0.6,1,0.6,1.7V14z"/>
<path class="st6" d="M107.9,10.5c0-1.6,0.3-2.8,1-3.6c0.7-0.8,1.7-1.2,3-1.2c0.5,0,0.8,0,1.1,0.1v1.4c-0.3-0.1-0.7-0.1-1-0.1
	c-0.6,0-1.1,0.1-1.4,0.3c-0.4,0.2-0.6,0.4-0.8,0.8c-0.2,0.3-0.3,0.8-0.3,1.5h0.1c0.4-0.6,1-0.9,1.8-0.9c0.7,0,1.3,0.2,1.7,0.7
	c0.4,0.5,0.6,1.1,0.6,1.9c0,0.9-0.2,1.5-0.7,2.1c-0.5,0.5-1.2,0.8-2,0.8c-0.6,0-1.1-0.1-1.6-0.4c-0.4-0.3-0.8-0.7-1-1.2
	C108,11.9,107.9,11.3,107.9,10.5z M110.8,12.7c0.4,0,0.6-0.1,0.8-0.4c0.2-0.2,0.3-0.6,0.3-1.1c0-0.4-0.1-0.7-0.3-0.9
	c-0.2-0.2-0.5-0.3-0.8-0.3c-0.3,0-0.6,0.1-0.9,0.3c-0.2,0.2-0.4,0.5-0.4,0.8c0,0.4,0.1,0.8,0.3,1.1
	C110.1,12.6,110.4,12.7,110.8,12.7z"/>
<path class="st6" d="M105.7,14h-1.7V9.3l0-0.8l0-0.8c-0.3,0.3-0.5,0.5-0.6,0.6L102.5,9l-0.8-1l2.6-2.1h1.4V14z"/>
<path class="st6" d="M100.6,9.9c0,1.4-0.2,2.5-0.7,3.1c-0.5,0.7-1.2,1-2.1,1c-0.9,0-1.6-0.4-2.1-1.1c-0.5-0.7-0.7-1.7-0.7-3.1
	c0-1.4,0.2-2.5,0.7-3.2c0.5-0.7,1.2-1,2.1-1c0.9,0,1.6,0.4,2.1,1.1C100.3,7.5,100.6,8.6,100.6,9.9z M96.6,9.9c0,1,0.1,1.7,0.3,2.1
	c0.2,0.4,0.5,0.6,0.9,0.6c0.4,0,0.7-0.2,0.9-0.7c0.2-0.4,0.3-1.1,0.3-2.1c0-1-0.1-1.7-0.3-2.1c-0.2-0.4-0.5-0.7-0.9-0.7
	c-0.4,0-0.7,0.2-0.9,0.7C96.7,8.2,96.6,8.9,96.6,9.9z"/>
<path class="st6" d="M92.7,14H91V9.3l0-0.8l0-0.8c-0.3,0.3-0.5,0.5-0.6,0.6L89.5,9l-0.8-1l2.6-2.1h1.4V14z"/>
<path class="st6" d="M72.8,15.6l-1.5-1.3l-2.5,1.6l0.6,1.9l-1.6,1l-2-8.4l1.8-1.1l6.8,5.3L72.8,15.6z M70.1,13.3
	c-1.4-1.2-2.2-1.8-2.4-2c-0.2-0.2-0.3-0.3-0.4-0.4c0.2,0.5,0.5,1.6,1,3.5L70.1,13.3z"/>
<path class="st6" d="M61.7,17.6l0.5-0.3c0.4-0.3,0.7-0.6,0.8-0.9c0.1-0.3,0.1-0.6-0.2-1c-0.2-0.3-0.5-0.5-0.8-0.6
	c-0.3,0-0.6,0.1-1,0.3l-0.7,0.4L61.7,17.6z M64.3,14.4c0.5,0.7,0.6,1.4,0.4,2.1c-0.2,0.7-0.7,1.3-1.6,1.8l-0.6,0.4l1.6,2.4l-1.4,0.9
	l-4.4-6.8l2.2-1.4c0.8-0.5,1.6-0.8,2.2-0.7C63.3,13.3,63.8,13.7,64.3,14.4z"/>
<path class="st6" d="M61,23.2l-1.4,0.9l-2-3c-0.5-0.8-1-0.9-1.6-0.6c-0.4,0.3-0.6,0.6-0.6,1c0,0.4,0.2,0.9,0.6,1.5l1.6,2.4l-1.4,0.9
	L51.6,19l1.4-0.9l1,1.5c0.1,0.1,0.2,0.4,0.5,0.8l0.2,0.4l0.1,0c0-0.7,0.3-1.3,1-1.7c0.6-0.4,1.2-0.5,1.7-0.4c0.5,0.1,1,0.5,1.4,1.1
	L61,23.2z"/>
<path class="st6" d="M52.6,23.1c0.9,1.3,1.2,2.5,1.1,3.5c-0.1,1-0.8,1.9-1.9,2.6c-0.4,0.3-0.7,0.4-1,0.5l-0.7-1.2
	c0.3-0.1,0.6-0.2,0.9-0.4c0.5-0.3,0.8-0.6,1.1-1c0.2-0.3,0.3-0.7,0.3-1.1c0-0.4-0.2-0.9-0.5-1.4l-0.1,0c0,0.4-0.1,0.7-0.2,1
	s-0.4,0.5-0.8,0.7c-0.6,0.4-1.2,0.5-1.8,0.3c-0.6-0.2-1.1-0.6-1.5-1.3c-0.5-0.7-0.6-1.4-0.5-2.1c0.1-0.7,0.6-1.3,1.3-1.7
	c0.5-0.3,1-0.5,1.5-0.5c0.5,0,1,0.1,1.5,0.5C51.8,22,52.2,22.5,52.6,23.1z M49,22.8c-0.3,0.2-0.5,0.4-0.5,0.8c0,0.3,0.1,0.7,0.3,1
	c0.2,0.3,0.5,0.5,0.7,0.6c0.3,0.1,0.6,0,0.9-0.2c0.3-0.2,0.5-0.4,0.6-0.8c0.1-0.3,0-0.6-0.1-0.9c-0.2-0.4-0.5-0.6-0.9-0.7
	C49.6,22.6,49.3,22.7,49,22.8z"/>
<path class="st6" d="M47.5,27.1c0.8,1.2,1.1,2.2,1.1,3c0,0.8-0.4,1.5-1.2,2c-0.8,0.5-1.6,0.6-2.3,0.3c-0.8-0.3-1.5-1.1-2.3-2.2
	c-0.8-1.2-1.2-2.2-1.1-3c0-0.8,0.4-1.5,1.2-2c0.8-0.5,1.6-0.6,2.4-0.3C46,25.2,46.8,26,47.5,27.1z M44.2,29.3c0.5,0.8,1,1.4,1.4,1.7
	c0.4,0.3,0.7,0.3,1.1,0.1c0.3-0.2,0.5-0.6,0.4-1c-0.1-0.5-0.4-1.1-0.9-1.9c-0.5-0.8-1-1.4-1.4-1.6c-0.4-0.3-0.7-0.3-1.1-0.1
	c-0.3,0.2-0.5,0.6-0.4,1C43.3,27.8,43.6,28.4,44.2,29.3z"/>
<path class="st6" d="M42.1,30.6c0.8,1.2,1.1,2.2,1.1,3c0,0.8-0.4,1.5-1.2,2c-0.8,0.5-1.6,0.6-2.3,0.3c-0.8-0.3-1.5-1.1-2.3-2.2
	c-0.8-1.2-1.2-2.2-1.1-3c0-0.8,0.4-1.5,1.2-2c0.8-0.5,1.6-0.6,2.4-0.3C40.6,28.7,41.3,29.5,42.1,30.6z M38.7,32.8
	c0.5,0.8,1,1.4,1.4,1.7c0.4,0.3,0.7,0.3,1.1,0.1c0.3-0.2,0.5-0.6,0.4-1c-0.1-0.5-0.4-1.1-0.9-1.9c-0.5-0.8-1-1.4-1.4-1.6
	c-0.4-0.3-0.7-0.3-1.1-0.1c-0.3,0.2-0.5,0.6-0.4,1C37.9,31.3,38.2,32,38.7,32.8z"/>
<path class="st6" d="M37.7,38.3l-1.4,0.9l-2.5-3.9l-0.4-0.7l-0.4-0.7c-0.1,0.4-0.1,0.7-0.2,0.8l-0.4,1.1L31,35.4l1.1-3.2l1.2-0.8
	L37.7,38.3z"/>
<path class="st6" d="M216.6,94.4l1.4-1.5l-1.4-2.6l-2,0.4l-0.9-1.6l8.5-1.5l1,1.8l-5.7,6.5L216.6,94.4z M219,91.9
	c1.3-1.3,2-2.1,2.1-2.3c0.2-0.2,0.3-0.3,0.4-0.4c-0.5,0.1-1.7,0.4-3.6,0.8L219,91.9z"/>
<path class="st6" d="M215.2,83.2l0.3,0.5c0.3,0.5,0.5,0.8,0.8,0.9c0.3,0.1,0.6,0.1,1-0.1c0.4-0.2,0.6-0.4,0.6-0.7
	c0.1-0.3,0-0.6-0.3-1l-0.4-0.7L215.2,83.2z M218.3,86c-0.8,0.4-1.5,0.5-2.1,0.3c-0.7-0.2-1.2-0.8-1.7-1.7l-0.4-0.6l-2.5,1.4
	l-0.8-1.5l7.1-4l1.3,2.3c0.5,0.9,0.7,1.6,0.5,2.3C219.4,85,219,85.6,218.3,86z"/>
<path class="st6" d="M209.7,82.2l-0.8-1.5l3.2-1.8c0.8-0.4,1-0.9,0.7-1.5c-0.2-0.4-0.5-0.6-0.9-0.7c-0.4,0-0.9,0.1-1.5,0.5l-2.5,1.4
	l-0.8-1.5l7.5-4.2l0.8,1.5l-1.5,0.9c-0.1,0.1-0.4,0.2-0.9,0.4l-0.5,0.2l0,0.1c0.7,0,1.3,0.4,1.7,1.1c0.4,0.6,0.5,1.2,0.3,1.7
	c-0.2,0.5-0.6,1-1.2,1.3L209.7,82.2z"/>
<path class="st6" d="M206.3,76.1l-2.8-4.9l1-0.6l2.8,0.8c0.8,0.2,1.4,0.4,1.7,0.4c0.3,0,0.6,0.1,0.8,0c0.2,0,0.4-0.1,0.6-0.2
	c0.3-0.2,0.4-0.4,0.5-0.6c0.1-0.2,0-0.5-0.1-0.7c-0.2-0.3-0.4-0.5-0.6-0.7c-0.3-0.2-0.6-0.4-1-0.5l0.5-1.4c0.5,0.2,0.9,0.4,1.1,0.5
	c0.3,0.2,0.5,0.4,0.7,0.6c0.2,0.2,0.4,0.5,0.6,0.9c0.2,0.4,0.4,0.9,0.4,1.3c0,0.4,0,0.8-0.2,1.2c-0.2,0.3-0.5,0.6-0.8,0.8
	c-0.3,0.2-0.7,0.3-1,0.3c-0.3,0-0.7,0-1.2,0c-0.4-0.1-1.1-0.3-2-0.5l-1.4-0.4l-0.1,0l1.7,3.1L206.3,76.1z"/>
<path class="st6" d="M208.5,67.1c-0.4,0.2-0.9,0.3-1.4,0.2c-0.5-0.1-0.9-0.3-1.3-0.8l0,0c0.2,0.6,0.3,1.1,0.2,1.6
	c-0.1,0.4-0.4,0.8-0.9,1.1c-0.7,0.4-1.3,0.4-2,0.2c-0.7-0.3-1.2-0.9-1.7-1.8c-0.4-0.8-0.7-1.5-0.8-2.3l1.3-0.7
	c0,0.4,0.1,0.7,0.2,1.1c0.1,0.4,0.2,0.7,0.4,1c0.3,0.5,0.6,0.8,0.9,1c0.3,0.1,0.6,0.1,1-0.1c0.3-0.2,0.5-0.5,0.5-0.8
	c0-0.3-0.2-0.8-0.5-1.4l-0.3-0.5l1.1-0.6l0.3,0.5c0.3,0.5,0.6,0.9,0.9,1.1c0.3,0.2,0.6,0.2,1,0c0.5-0.3,0.6-0.8,0.2-1.5
	c-0.1-0.2-0.3-0.4-0.5-0.6c-0.2-0.2-0.5-0.4-0.8-0.6l0.6-1.3c0.8,0.4,1.5,1,2,1.9c0.4,0.7,0.6,1.4,0.5,2
	C209.3,66.4,209,66.8,208.5,67.1z"/>
<path class="st6" d="M203.5,62.8c-1.2,0.7-2.3,1-3.1,0.9c-0.8-0.1-1.5-0.5-1.9-1.4c-0.5-0.8-0.5-1.6-0.1-2.4
	c0.4-0.8,1.2-1.5,2.4-2.1c1.2-0.7,2.3-1,3.1-0.9c0.8,0.1,1.5,0.5,1.9,1.4c0.5,0.8,0.5,1.6,0.1,2.4C205.5,61.4,204.7,62.1,203.5,62.8
	z M201.6,59.3c-0.9,0.5-1.4,0.9-1.7,1.3c-0.3,0.4-0.3,0.7-0.1,1.1c0.2,0.3,0.5,0.5,1,0.4c0.5-0.1,1.1-0.3,2-0.8
	c0.9-0.5,1.4-0.9,1.7-1.3c0.3-0.4,0.3-0.7,0.1-1.1c-0.2-0.4-0.5-0.5-1-0.4C203.1,58.6,202.4,58.9,201.6,59.3z"/>
<path class="st6" d="M196.1,57.9l-0.8-1.5l4.1-2.3l0.7-0.4l0.7-0.4c-0.4-0.1-0.6-0.2-0.8-0.2l-1.1-0.4l0.5-1.2l3.1,1.3l0.7,1.2
	L196.1,57.9z"/>
<path class="st6" d="M188.4,41.2l0.5-2l-2.5-1.5l-1.5,1.4l-1.6-0.9l6.6-5.6l1.8,1.1l-1.6,8.5L188.4,41.2z M189.3,37.8
	c0.4-1.8,0.7-2.8,0.7-3c0.1-0.2,0.1-0.4,0.2-0.5c-0.3,0.3-1.2,1.2-2.7,2.5L189.3,37.8z"/>
<path class="st6" d="M181.7,32.2l0.5,0.3c0.5,0.3,0.8,0.4,1.2,0.3c0.3,0,0.6-0.2,0.8-0.6c0.2-0.3,0.3-0.7,0.2-0.9
	c-0.1-0.3-0.3-0.5-0.7-0.8l-0.7-0.4L181.7,32.2z M185.7,33.1c-0.4,0.8-1,1.2-1.7,1.3c-0.7,0.1-1.5-0.1-2.4-0.6l-0.6-0.4l-1.5,2.5
	l-1.5-0.9l4.1-7l2.2,1.3c0.8,0.5,1.4,1.1,1.6,1.7C186.2,31.7,186.1,32.4,185.7,33.1z"/>
<path class="st6" d="M176.4,34.1l-1.5-0.9l1.8-3.1c0.5-0.8,0.4-1.3-0.2-1.7c-0.4-0.2-0.8-0.3-1.1-0.1c-0.3,0.2-0.7,0.6-1.1,1.2
	l-1.5,2.5l-1.5-0.9l4.4-7.4l1.5,0.9l-0.9,1.5c-0.1,0.1-0.2,0.4-0.5,0.8l-0.3,0.4l0.1,0c0.6-0.3,1.3-0.3,2,0.1c0.6,0.4,1,0.8,1.1,1.3
	c0.1,0.5,0,1.1-0.4,1.7L176.4,34.1z"/>
<path class="st6" d="M170.4,30.6l-4.9-2.9l0.6-1l2.8-0.7c0.8-0.2,1.4-0.4,1.7-0.5c0.3-0.1,0.5-0.2,0.7-0.4c0.2-0.1,0.3-0.3,0.4-0.5
	c0.2-0.3,0.2-0.5,0.1-0.8c-0.1-0.2-0.2-0.4-0.5-0.6c-0.3-0.2-0.6-0.3-0.9-0.3c-0.3,0-0.7,0-1.1,0.1l-0.2-1.4
	c0.5-0.1,0.9-0.1,1.2-0.1c0.3,0,0.6,0.1,0.9,0.2c0.3,0.1,0.6,0.2,1,0.4c0.4,0.3,0.8,0.6,1,0.9c0.2,0.4,0.4,0.7,0.4,1.1
	c0,0.4-0.1,0.8-0.3,1.1c-0.2,0.3-0.4,0.6-0.7,0.8c-0.3,0.2-0.6,0.4-1,0.6c-0.4,0.2-1.1,0.3-2,0.5l-1.4,0.3l0,0.1l3,1.8L170.4,30.6z"
	/>
<path class="st6" d="M164.8,27.3l-4.9-2.9l0.6-1l2.8-0.7c0.8-0.2,1.4-0.4,1.7-0.5c0.3-0.1,0.5-0.2,0.7-0.4c0.2-0.1,0.3-0.3,0.4-0.5
	c0.2-0.3,0.2-0.5,0.1-0.8c-0.1-0.2-0.2-0.4-0.5-0.6c-0.3-0.2-0.6-0.3-0.9-0.3c-0.3,0-0.7,0-1.1,0.1l-0.2-1.4
	c0.5-0.1,0.9-0.1,1.2-0.1c0.3,0,0.6,0.1,0.9,0.2c0.3,0.1,0.6,0.2,1,0.4c0.4,0.3,0.8,0.6,1,0.9c0.2,0.4,0.4,0.7,0.4,1.1
	c0,0.4-0.1,0.8-0.3,1.1c-0.2,0.3-0.4,0.6-0.7,0.8c-0.3,0.2-0.6,0.4-1,0.6c-0.4,0.2-1.1,0.3-2,0.5l-1.4,0.3l0,0.1l3,1.8L164.8,27.3z"
	/>
<path class="st6" d="M161.2,20.5c-0.7,1.2-1.4,2-2.2,2.4c-0.7,0.4-1.5,0.3-2.4-0.2c-0.8-0.5-1.2-1.1-1.3-2c-0.1-0.8,0.3-1.9,1-3
	c0.7-1.2,1.5-2,2.2-2.4c0.7-0.4,1.5-0.3,2.4,0.2c0.8,0.5,1.2,1.1,1.3,2C162.2,18.3,161.9,19.3,161.2,20.5z M157.8,18.5
	c-0.5,0.9-0.8,1.5-0.9,2c-0.1,0.5,0.1,0.8,0.4,1c0.3,0.2,0.7,0.2,1.1-0.1c0.4-0.3,0.8-0.9,1.3-1.7c0.5-0.9,0.8-1.5,0.8-2
	c0.1-0.5-0.1-0.8-0.4-1c-0.3-0.2-0.7-0.2-1.1,0.1C158.8,17.1,158.3,17.7,157.8,18.5z"/>
<path class="st6" d="M152.4,20l-1.5-0.9l2.4-4l0.4-0.7l0.5-0.7c-0.4,0.1-0.7,0.2-0.8,0.2l-1.2,0.2l-0.2-1.3l3.3-0.5l1.2,0.7
	L152.4,20z"/>
<path class="st6" d="M27.2,50.9l-1.9-0.5l-1.6,2.5l1.3,1.5L24,56l-5.4-6.7l1.1-1.8l8.4,1.9L27.2,50.9z M23.8,50
	c-1.8-0.5-2.8-0.7-3-0.8c-0.2-0.1-0.4-0.1-0.5-0.2c0.3,0.4,1.1,1.3,2.4,2.7L23.8,50z"/>
<path class="st6" d="M18.1,57.4l0.3-0.5c0.3-0.4,0.4-0.8,0.4-1.2c0-0.3-0.2-0.6-0.6-0.8c-0.3-0.2-0.7-0.3-0.9-0.2
	c-0.3,0.1-0.5,0.3-0.8,0.7L16,56.1L18.1,57.4z M19.1,53.4c0.7,0.5,1.2,1,1.3,1.8c0.1,0.7-0.1,1.5-0.6,2.3l-0.4,0.6l2.4,1.5l-0.9,1.5
	l-6.9-4.3l1.4-2.2c0.5-0.8,1.1-1.4,1.7-1.6C17.7,52.9,18.3,53,19.1,53.4z"/>
<path class="st6" d="M19.8,62.7l-0.9,1.4l-3.1-1.9c-0.8-0.5-1.3-0.4-1.7,0.1c-0.3,0.4-0.3,0.8-0.1,1.1c0.2,0.3,0.5,0.7,1.2,1.1
	l2.5,1.5l-0.9,1.4L9.5,63l0.9-1.4l1.5,0.9c0.1,0.1,0.4,0.3,0.8,0.5l0.4,0.3l0-0.1c-0.3-0.6-0.3-1.3,0.2-2c0.4-0.6,0.8-1,1.4-1.1
	c0.5-0.1,1.1,0,1.7,0.4L19.8,62.7z"/>
<path class="st6" d="M10.2,71.7c-1.4-0.9-2.2-1.8-2.5-2.8c-0.3-1-0.1-2.1,0.6-3.2c0.2-0.4,0.5-0.7,0.6-0.9l1.2,0.7
	c-0.2,0.2-0.4,0.5-0.6,0.8c-0.3,0.5-0.5,1-0.5,1.4c0,0.4,0,0.8,0.2,1.1c0.2,0.3,0.6,0.7,1.1,1.1l0-0.1c-0.3-0.6-0.3-1.3,0.1-2
	c0.4-0.6,0.9-1,1.5-1.1c0.6-0.1,1.2,0.1,1.9,0.5c0.7,0.5,1.2,1,1.4,1.7c0.2,0.7,0,1.4-0.4,2.1c-0.3,0.5-0.7,0.9-1.2,1.1
	c-0.5,0.2-1,0.3-1.6,0.2C11.4,72.3,10.8,72,10.2,71.7z M13.6,70.3c0.2-0.3,0.2-0.6,0.1-0.9c-0.1-0.3-0.4-0.6-0.7-0.8
	c-0.3-0.2-0.6-0.3-0.9-0.3c-0.3,0-0.5,0.2-0.7,0.5c-0.2,0.3-0.2,0.6-0.2,0.9c0.1,0.3,0.2,0.6,0.5,0.7c0.4,0.2,0.7,0.3,1.1,0.3
	C13.1,70.8,13.4,70.6,13.6,70.3z"/>
<path class="st6" d="M8.7,71.7c1.4,0.8,2.2,1.8,2.5,2.8c0.3,1,0.1,2.1-0.6,3.2c-0.3,0.4-0.5,0.7-0.6,0.9l-1.2-0.7
	C9,77.6,9.2,77.3,9.4,77c0.3-0.5,0.5-0.9,0.5-1.3c0.1-0.4,0-0.8-0.2-1.1c-0.2-0.4-0.6-0.7-1.1-1.1l0,0.1c0.2,0.4,0.3,0.7,0.2,1
	c0,0.3-0.2,0.6-0.4,1c-0.4,0.6-0.9,0.9-1.5,1.1c-0.6,0.1-1.2-0.1-1.9-0.5c-0.7-0.5-1.2-1-1.4-1.7c-0.2-0.7,0-1.4,0.4-2.1
	c0.3-0.5,0.7-0.9,1.2-1.1c0.5-0.2,1-0.3,1.6-0.2C7.5,71.1,8.1,71.3,8.7,71.7z M5.3,73c-0.2,0.3-0.2,0.6-0.1,0.9
	c0.1,0.3,0.3,0.6,0.7,0.8C6.2,74.9,6.6,75,6.8,75c0.3,0,0.5-0.2,0.7-0.5c0.2-0.3,0.2-0.6,0.2-0.9c-0.1-0.3-0.2-0.6-0.5-0.7
	c-0.4-0.2-0.7-0.3-1.1-0.3C5.8,72.5,5.5,72.7,5.3,73z"/>
<path class="st6" d="M5.3,77.2c1.4,0.8,2.2,1.8,2.5,2.8c0.3,1,0.1,2.1-0.6,3.2c-0.3,0.4-0.5,0.7-0.6,0.9l-1.2-0.7
	c0.2-0.2,0.4-0.5,0.6-0.8c0.3-0.5,0.5-0.9,0.5-1.3c0.1-0.4,0-0.8-0.2-1.1c-0.2-0.4-0.6-0.7-1.1-1.1l0,0.1c0.2,0.4,0.3,0.7,0.2,1
	c0,0.3-0.2,0.6-0.4,1c-0.4,0.6-0.9,0.9-1.5,1.1c-0.6,0.1-1.2-0.1-1.9-0.5c-0.7-0.5-1.2-1-1.4-1.7c-0.2-0.7,0-1.4,0.4-2.1
	c0.3-0.5,0.7-0.9,1.2-1.1c0.5-0.2,1-0.3,1.6-0.2C4,76.6,4.6,76.8,5.3,77.2z M1.9,78.5c-0.2,0.3-0.2,0.6-0.1,0.9
	c0.1,0.3,0.3,0.6,0.7,0.8c0.3,0.2,0.6,0.3,0.9,0.3c0.3,0,0.5-0.2,0.7-0.5c0.2-0.3,0.2-0.6,0.2-0.9c-0.1-0.3-0.2-0.6-0.5-0.7
	C3.5,78.1,3.1,78,2.7,78C2.3,78,2.1,78.2,1.9,78.5z"/>
</svg>
