<svg width="251" height="129" viewBox="0 0 251 129" fill="none" xmlns="http://www.w3.org/2000/svg">
<path d="M175.499 98.9999L196.94 86.7651L214.623 76.6751C216.686 75.4975 217.387 72.8507 216.085 70.8633C207.314 57.4761 195.027 45.2745 181.482 36.628C179.561 35.4015 177.031 36.0211 175.807 37.9443L174.499 39.9999L165.499 55.4999L153.499 76.9999C162.144 82.1304 169.808 89.4557 174.999 97.9999L175.499 98.9999Z" fill="url(#paint0_linear_663_322)"/>
<path d="M91.9997 76.9999C100.557 72.2887 113.549 69.0976 124 68.9315C124 68.9315 124 54.0202 124 44.4657C124 38.1187 124 29.4077 124 24.2744C124 21.9172 122.078 20.0091 119.724 20.1219C102.983 20.9241 85.212 25.5108 71.0558 32.5952C68.9339 33.6571 68.2223 36.2959 69.4192 38.3447L79.62 55.8074L91.9997 76.9999Z" fill="url(#paint1_linear_663_322)"/>
<path d="M123.999 68.9999C134.449 69.166 144.942 72.2887 153.499 76.9999L165.999 55.4999L175.935 37.6984C177.075 35.6549 176.349 33.0666 174.266 31.9999C160.452 24.9255 144.699 20.4178 128.277 19.6223C125.922 19.5082 123.999 21.4218 123.999 23.779V43.9999V68.9999Z" fill="#08481E"/>
<path d="M69.7192 98.4256C74.9104 89.8813 84.2337 81.8208 92.879 76.6903L80.4994 55.4998L70.259 37.9711C69.0775 35.9486 66.4777 35.26 64.4977 36.5113C50.7878 45.1756 37.2752 57.4698 28.3157 70.8455C26.9932 72.8199 27.6951 75.4674 29.759 76.6452L47.4406 86.7347L68.9994 99.4998L69.7192 98.4256Z" fill="url(#paint2_linear_663_322)"/>
<path d="M60.5097 128C60.6778 117.672 64.7323 106.957 69.4993 98.5L46.9993 85.9999L29.1884 75.6448C27.1545 74.4623 24.5393 75.1565 23.4589 77.2463C16.3379 91.0196 11.9107 107.387 11.122 123.722C11.0083 126.077 12.9217 128 15.2792 128H35.7545H60.5097Z" fill="url(#paint3_linear_663_322)"/>
<path d="M175.499 98.9999C180.266 107.457 183.569 118.295 183.737 128.624H228.967C231.325 128.624 233.239 126.7 233.12 124.346C232.301 108.043 227.687 91.9388 220.526 78.2058C219.446 76.1343 216.857 75.4331 214.825 76.5872L196.499 86.9999L175.499 98.9999Z" fill="#F70000"/>
<path d="M50.7529 103.003L47.9841 103.04C47.8594 103.04 47.7221 103.04 47.572 103.04C47.4228 103.037 47.2736 103.034 47.1244 103.031C46.9753 103.028 46.8373 103.025 46.7105 103.022C46.5815 103.015 46.478 103.008 46.3997 103.003L46.3898 103.038C46.4597 103.073 46.5516 103.121 46.6656 103.182C46.7766 103.241 46.8982 103.308 47.0304 103.383C47.1605 103.454 47.2912 103.529 47.4226 103.607C47.5548 103.681 47.6737 103.753 47.7793 103.82L50.1059 105.307L49.8292 106.292L44.5557 106.295L44.8112 105.385L47.5632 105.425C47.7475 105.428 47.9373 105.435 48.1326 105.444C48.3279 105.454 48.5111 105.466 48.6824 105.482C48.8536 105.497 48.9991 105.514 49.1187 105.531L49.1287 105.495C49.0558 105.459 48.966 105.415 48.8593 105.363C48.7504 105.308 48.6375 105.249 48.5206 105.188C48.4007 105.126 48.2856 105.064 48.1755 105.002C48.0661 104.936 47.9707 104.878 47.8894 104.827L45.4108 103.25L45.6825 102.282L48.6116 102.237C48.7528 102.235 48.9106 102.236 49.0852 102.239C49.2568 102.242 49.4256 102.249 49.5918 102.26C49.7579 102.271 49.8989 102.286 50.0148 102.306L50.0248 102.27C49.9274 102.23 49.8033 102.172 49.6525 102.095C49.5016 102.018 49.3387 101.933 49.1637 101.84C48.9858 101.746 48.8146 101.651 48.6502 101.554L46.2771 100.165L46.5288 99.2684L51.0371 101.991L50.7529 103.003Z" fill="white"/>
<path d="M46.8362 107.554C47.2391 107.665 47.584 107.818 47.8711 108.013C48.156 108.203 48.3798 108.43 48.5425 108.691C48.703 108.95 48.8016 109.235 48.8382 109.548C48.8718 109.861 48.8388 110.194 48.739 110.55C48.646 110.881 48.5041 111.17 48.3134 111.417C48.1206 111.66 47.8878 111.853 47.6151 111.994C47.3394 112.135 47.0291 112.216 46.6844 112.239C46.3367 112.26 45.9614 112.215 45.5585 112.104C45.0224 111.955 44.592 111.737 44.2673 111.449C43.9396 111.161 43.7258 110.819 43.6259 110.425C43.5238 110.027 43.5393 109.591 43.6722 109.117C43.7985 108.668 44.0087 108.3 44.3027 108.015C44.5968 107.729 44.9585 107.544 45.3879 107.459C45.8172 107.374 46.3 107.405 46.8362 107.554ZM45.8153 111.189C46.1915 111.294 46.5292 111.336 46.8283 111.317C47.1253 111.294 47.3742 111.203 47.575 111.045C47.7767 110.884 47.922 110.645 48.0109 110.329C48.0981 110.018 48.0974 109.742 48.0088 109.501C47.9202 109.259 47.7543 109.054 47.5114 108.884C47.2654 108.714 46.9544 108.577 46.5782 108.473C46.2049 108.369 45.8717 108.328 45.5785 108.349C45.2853 108.37 45.0394 108.461 44.8407 108.623C44.6428 108.782 44.499 109.021 44.4093 109.341C44.278 109.808 44.3386 110.195 44.5911 110.501C44.8415 110.803 45.2495 111.033 45.8153 111.189Z" fill="white"/>
<path d="M46.7628 117.246L40.2666 115.446L40.5221 114.536L46.2274 116.117L47.0189 113.298L47.8098 113.517L46.7628 117.246Z" fill="white"/>
<path d="M32.9463 99.568L33.2168 98.6047L36.33 98.3476C36.4901 98.3345 36.646 98.3251 36.7977 98.3193C36.9472 98.3097 37.0918 98.3066 37.2312 98.3102C37.3686 98.31 37.5024 98.3167 37.6326 98.3305L37.6413 98.2994C37.5002 98.222 37.3307 98.1208 37.1327 97.9958C36.9348 97.8708 36.7355 97.7391 36.535 97.6006L33.9971 95.8259L34.2663 94.8671L39.2627 98.5285C39.5414 98.73 39.7685 98.9444 39.9441 99.1717C40.1235 99.3968 40.2409 99.6383 40.2963 99.896C40.3546 100.155 40.3405 100.438 40.2541 100.745C40.2142 100.888 40.17 101.011 40.1215 101.115C40.0767 101.218 40.0332 101.305 39.9909 101.376L39.2799 101.179C39.313 101.118 39.3484 101.043 39.386 100.955C39.4244 100.863 39.4578 100.767 39.486 100.667C39.5384 100.48 39.5462 100.31 39.5096 100.156C39.4767 100.001 39.4069 99.857 39.3002 99.7253C39.1943 99.5907 39.0616 99.4663 38.9022 99.3519L38.3869 98.97L32.9463 99.568Z" fill="white"/>
<path d="M32.6567 100.258C32.6817 100.169 32.7146 100.075 32.7555 99.9744C32.7935 99.8733 32.8303 99.7878 32.8659 99.7179L33.6706 100.041C33.6329 100.107 33.5948 100.186 33.5564 100.278C33.5187 100.366 33.4887 100.45 33.4663 100.53C33.4131 100.72 33.398 100.91 33.4209 101.101C33.4438 101.293 33.5051 101.472 33.6047 101.64C33.7015 101.807 33.8372 101.955 34.012 102.083C34.1837 102.21 34.394 102.309 34.6429 102.377L37.2333 103.095L36.9815 103.992L32.085 102.635L32.2869 101.916L33.201 102.055L33.2123 102.015C33.0628 101.865 32.9339 101.698 32.8257 101.515C32.7183 101.329 32.6478 101.131 32.6143 100.921C32.5786 100.707 32.5927 100.486 32.6567 100.258Z" fill="white"/>
<path d="M31.0816 105.869C31.2012 105.443 31.3957 105.103 31.665 104.849C31.9312 104.594 32.2531 104.431 32.6306 104.36C33.0081 104.29 33.4219 104.316 33.8722 104.441L34.3787 104.581L33.4464 107.902C33.9732 108.038 34.4139 108.015 34.7684 107.833C35.12 107.649 35.3618 107.322 35.494 106.852C35.5812 106.541 35.6293 106.256 35.6382 105.997C35.6471 105.738 35.6303 105.462 35.5879 105.17L36.3389 105.378C36.3824 105.655 36.3945 105.924 36.3751 106.187C36.3594 106.447 36.3034 106.749 36.207 107.093C36.074 107.566 35.8625 107.956 35.5724 108.261C35.2831 108.564 34.9254 108.763 34.4995 108.859C34.0706 108.953 33.5836 108.925 33.0385 108.774C32.4994 108.625 32.0641 108.407 31.7327 108.121C31.3983 107.834 31.175 107.498 31.0628 107.112C30.9507 106.727 30.9569 106.313 31.0816 105.869ZM31.7735 106.065C31.6721 106.426 31.7092 106.749 31.8847 107.034C32.0572 107.318 32.3572 107.54 32.7849 107.699L33.4605 105.294C33.1901 105.222 32.941 105.199 32.7134 105.225C32.4857 105.252 32.2904 105.333 32.1275 105.47C31.9655 105.603 31.8475 105.802 31.7735 106.065Z" fill="white"/>
<path d="M28.8176 108.132L34.6681 112.23L34.4026 113.176L27.2607 113.676L27.525 112.735L32.1069 112.449C32.267 112.436 32.4351 112.428 32.6113 112.426C32.7846 112.423 32.957 112.423 33.1286 112.426C33.3002 112.429 33.4564 112.435 33.5972 112.446C33.4714 112.382 33.3339 112.309 33.1847 112.226C33.0364 112.14 32.8878 112.05 32.739 111.954C32.5873 111.858 32.4444 111.764 32.3104 111.673L28.5509 109.082L28.8176 108.132Z" fill="white"/>
<path d="M66.8399 66.8694L64.3623 65.6276C64.2513 65.5707 64.1291 65.5077 63.9958 65.4385C63.8646 65.3672 63.7335 65.2958 63.6023 65.2244C63.4711 65.153 63.3499 65.0867 63.2387 65.0255C63.1274 64.9599 63.0383 64.9066 62.9714 64.8656L62.9461 64.8924C62.992 64.9559 63.0516 65.0406 63.125 65.1464C63.1962 65.2502 63.2733 65.3657 63.3562 65.4929C63.4389 65.6158 63.5207 65.742 63.6015 65.8714C63.6844 65.9986 63.7571 66.1164 63.8198 66.2248L65.2008 68.6128L64.4996 69.3585L59.8115 66.934L60.459 66.2454L62.8863 67.5474C63.0486 67.6351 63.2143 67.728 63.3835 67.8263C63.5527 67.9246 63.7098 68.02 63.8548 68.1126C63.9998 68.2051 64.1215 68.2866 64.2199 68.3569L64.2452 68.3301C64.1971 68.2645 64.1376 68.1842 64.0667 68.0891C63.9957 67.9896 63.9223 67.8859 63.8466 67.778C63.7687 67.6679 63.6952 67.5599 63.6261 67.4539C63.5591 67.3456 63.5013 67.2501 63.4526 67.1672L61.9782 64.6297L62.6667 63.8974L65.2906 65.2057C65.4171 65.2686 65.5571 65.3419 65.7105 65.4255C65.8617 65.507 66.0085 65.5909 66.1511 65.677C66.2937 65.7632 66.4121 65.8415 66.5061 65.912L66.5314 65.8851C66.4632 65.8051 66.3798 65.6963 66.2813 65.5588C66.1828 65.4213 66.0773 65.271 65.9648 65.1079C65.85 64.9428 65.7419 64.7796 65.6404 64.6183L64.1732 62.2951L64.8112 61.6166L67.56 66.1036L66.8399 66.8694Z" fill="white"/>
<path d="M61.2564 69.0986C61.5628 69.3829 61.7987 69.6772 61.964 69.9815C62.1292 70.2815 62.2236 70.585 62.2472 70.8919C62.2706 71.1946 62.2263 71.493 62.1141 71.7873C61.9997 72.0795 61.8162 72.3599 61.5635 72.6286C61.3277 72.8795 61.068 73.0704 60.7844 73.2014C60.5007 73.3282 60.205 73.3914 59.8974 73.3911C59.5874 73.3886 59.2741 73.3181 58.9573 73.1793C58.6383 73.0385 58.3255 72.826 58.019 72.5416C57.6112 72.1633 57.3294 71.7719 57.1738 71.3676C57.0159 70.9612 56.9836 70.5602 57.077 70.1647C57.1703 69.7649 57.3854 69.3858 57.7223 69.0275C58.0423 68.6872 58.3989 68.4582 58.792 68.3408C59.1851 68.2233 59.5922 68.2256 60.0131 68.3478C60.4341 68.47 60.8485 68.7203 61.2564 69.0986ZM58.6697 71.8497C58.9559 72.1152 59.2363 72.3082 59.511 72.4289C59.7856 72.5452 60.0486 72.5796 60.3001 72.532C60.5537 72.4822 60.7931 72.3374 61.0184 72.0978C61.2395 71.8627 61.3664 71.6178 61.3992 71.3631C61.4319 71.1083 61.3795 70.85 61.2418 70.5882C61.1018 70.3242 60.8888 70.0594 60.6026 69.794C60.3186 69.5306 60.0416 69.3406 59.7714 69.2241C59.5012 69.1077 59.2404 69.0754 58.9891 69.1273C58.7398 69.177 58.5015 69.3228 58.2741 69.5646C57.9414 69.9185 57.8166 70.289 57.8997 70.6763C57.9826 71.0593 58.2393 71.4504 58.6697 71.8497Z" fill="white"/>
<path d="M56.7143 77.6515L51.7725 73.0671L52.4199 72.3785L56.7601 76.4047L58.7657 74.2718L59.3674 74.8299L56.7143 77.6515Z" fill="white"/>
<path d="M115.802 42.9244L114.907 43.1821L112.897 36.2952L113.792 36.0375L115.802 42.9244Z" fill="white"/>
<path d="M110.172 39.167C110.775 38.9935 111.264 38.998 111.641 39.1807C112.017 39.3603 112.289 39.7379 112.456 40.3133L113.419 43.6107L112.781 43.7943L112.401 43.1359L112.366 43.1461C112.282 43.3623 112.183 43.5506 112.07 43.7112C111.956 43.8717 111.811 44.0096 111.633 44.1247C111.458 44.239 111.232 44.3361 110.955 44.4161C110.659 44.5011 110.381 44.5237 110.119 44.4838C109.858 44.4439 109.63 44.3368 109.435 44.1627C109.242 43.9847 109.097 43.7305 109.001 43.4C108.856 42.9043 108.937 42.4732 109.243 42.1068C109.549 41.7404 110.086 41.434 110.853 41.1876L111.684 40.9098L111.604 40.6354C111.493 40.2547 111.329 40.0109 111.112 39.9038C110.898 39.7959 110.639 39.7857 110.335 39.8733C110.084 39.9456 109.854 40.0518 109.645 40.1919C109.435 40.329 109.239 40.4784 109.055 40.6399L108.583 40.0754C108.779 39.891 109.012 39.7169 109.281 39.5531C109.553 39.3884 109.85 39.2597 110.172 39.167ZM111.846 41.4966L111.173 41.724C110.615 41.9071 110.245 42.1159 110.064 42.3504C109.884 42.5811 109.838 42.8455 109.925 43.1435C110.001 43.4032 110.135 43.5709 110.327 43.6469C110.519 43.7228 110.743 43.7237 111 43.6497C111.396 43.5358 111.688 43.3316 111.878 43.0372C112.069 42.7389 112.101 42.3715 111.974 41.9347L111.846 41.4966Z" fill="white"/>
<path d="M105.177 40.6001C105.718 40.4445 106.167 40.4688 106.524 40.6729C106.884 40.8733 107.154 41.2833 107.335 41.903L108.266 45.0941L107.384 45.348L106.485 42.2675C106.373 41.8839 106.21 41.6191 105.994 41.4733C105.782 41.3265 105.519 41.2982 105.206 41.3884C104.763 41.516 104.481 41.7425 104.362 42.068C104.244 42.3897 104.261 42.8087 104.412 43.3251L105.187 45.9807L104.301 46.2358L103.402 43.1553C103.327 42.8986 103.229 42.6963 103.109 42.5485C102.988 42.3978 102.846 42.2996 102.682 42.254C102.519 42.2084 102.33 42.2163 102.118 42.2775C101.813 42.3651 101.589 42.5016 101.445 42.6871C101.302 42.8688 101.227 43.0999 101.22 43.3805C101.215 43.6601 101.267 43.9859 101.375 44.3577L102.107 46.8672L101.217 47.1236L99.7934 42.2461L100.498 42.0433L100.823 42.6791L100.871 42.665C100.92 42.4688 101.002 42.2933 101.117 42.1387C101.234 41.9832 101.377 41.851 101.544 41.7423C101.709 41.6305 101.894 41.5453 102.098 41.4866C102.464 41.3812 102.792 41.3587 103.082 41.4192C103.372 41.4797 103.616 41.6287 103.813 41.8661L103.871 41.8495C103.947 41.5301 104.104 41.2659 104.341 41.0569C104.58 40.8442 104.858 40.6919 105.177 40.6001Z" fill="white"/>
<path d="M98.3053 42.5786C98.3939 42.5531 98.4916 42.5313 98.5985 42.5134C98.7044 42.4925 98.7965 42.4787 98.8746 42.4722L99.0232 43.3267C98.9471 43.3294 98.8601 43.3385 98.7621 43.3539C98.6671 43.3684 98.5797 43.3872 98.5 43.4101C98.3109 43.4646 98.1411 43.5519 97.9904 43.672C97.8398 43.7921 97.7193 43.9388 97.6289 44.1119C97.5377 44.2821 97.4836 44.4752 97.4666 44.6912C97.4487 44.9043 97.4759 45.1347 97.5483 45.3826L98.3013 47.963L97.4063 48.2207L95.9829 43.3432L96.7006 43.1365L97.064 43.9867L97.1039 43.9752C97.1527 43.7692 97.2264 43.5721 97.3251 43.3837C97.4268 43.1945 97.5582 43.0304 97.7193 42.8912C97.8825 42.7483 98.0779 42.6441 98.3053 42.5786Z" fill="white"/>
<path d="M95.4552 46.1289C95.5723 46.5302 95.6238 46.904 95.6096 47.2504C95.5975 47.5929 95.5228 47.9022 95.3857 48.1784C95.2507 48.4508 95.0596 48.6849 94.8126 48.8808C94.5647 49.0737 94.2635 49.2212 93.9091 49.3232C93.5783 49.4185 93.2577 49.45 92.9473 49.4178C92.639 49.3818 92.353 49.285 92.0893 49.1275C91.8247 48.9669 91.5921 48.746 91.3915 48.4647C91.1901 48.1805 91.0308 47.8377 90.9137 47.4364C90.7578 46.9023 90.7168 46.4215 90.7906 45.9941C90.8635 45.5637 91.0413 45.2022 91.3242 44.9096C91.6091 44.6133 91.9879 44.3971 92.4605 44.261C92.9095 44.1318 93.3327 44.1171 93.7301 44.217C94.1275 44.3169 94.4754 44.527 94.7738 44.8473C95.0722 45.1676 95.2993 45.5948 95.4552 46.1289ZM91.8264 47.1736C91.9358 47.5484 92.0773 47.8578 92.2511 48.1021C92.4269 48.3425 92.6349 48.5066 92.875 48.5942C93.1181 48.6809 93.3976 48.6788 93.7137 48.5878C94.0238 48.4985 94.2582 48.3527 94.4169 48.1503C94.5756 47.9479 94.663 47.6988 94.6791 47.4031C94.6944 47.1044 94.6474 46.7677 94.538 46.393C94.4295 46.0212 94.2893 45.7161 94.1172 45.4777C93.9452 45.2394 93.7381 45.0783 93.4959 44.9945C93.2567 44.9099 92.9775 44.9134 92.6585 45.0053C92.1918 45.1397 91.8948 45.3947 91.7675 45.7704C91.6423 46.1423 91.6619 46.61 91.8264 47.1736Z" fill="white"/>
<path d="M90.277 50.2731L89.187 50.5869L84.2855 46.2501L84.25 46.2603C84.3054 46.4171 84.367 46.5897 84.4348 46.7781C84.5017 46.9635 84.5687 47.1601 84.6357 47.3679C84.7049 47.5719 84.7719 47.7797 84.8369 47.9913L85.8728 51.541L85.0399 51.7808L83.1514 45.3099L84.2325 44.9987L89.1129 49.3127L89.144 49.3038C89.1002 49.1757 89.0458 49.017 88.981 48.8277C88.9162 48.6385 88.8483 48.4389 88.7775 48.229C88.7087 48.0153 88.6463 47.8126 88.5903 47.6208L87.5466 44.0445L88.3885 43.8022L90.277 50.2731Z" fill="white"/>
<path d="M160.258 53.4565C160.683 53.5466 161.027 53.7179 161.29 53.9704C161.554 54.223 161.729 54.5363 161.816 54.9103C161.905 55.2814 161.9 55.693 161.802 56.1453L161.701 56.6143L158.251 55.8836C158.134 56.4713 158.183 56.9484 158.399 57.3148C158.615 57.6812 158.98 57.9188 159.494 58.0276C159.81 58.0945 160.095 58.1249 160.351 58.1187C160.606 58.1125 160.877 58.0809 161.163 58.024L161.019 58.6887C160.742 58.7476 160.474 58.7765 160.214 58.7753C159.957 58.7748 159.659 58.7388 159.322 58.6674C158.842 58.5657 158.444 58.3798 158.127 58.1096C157.815 57.837 157.6 57.49 157.485 57.0688C157.369 56.6475 157.371 56.1622 157.49 55.6128C157.606 55.0755 157.796 54.6301 158.06 54.2765C158.327 53.9205 158.648 53.671 159.022 53.5281C159.399 53.3857 159.811 53.3619 160.258 53.4565ZM160.115 54.0738C159.711 53.9882 159.36 54.052 159.063 54.2652C158.766 54.4785 158.543 54.817 158.396 55.2809L161.039 55.8408C161.1 55.5426 161.109 55.2716 161.067 55.0277C161.028 54.7814 160.931 54.5767 160.775 54.4136C160.621 54.2475 160.4 54.1342 160.115 54.0738Z" fill="white"/>
<path d="M153.08 59.5925C152.423 59.4535 151.944 59.2234 151.642 58.9022C151.339 58.5841 151.235 58.205 151.33 57.7648C151.398 57.4522 151.554 57.206 151.799 57.0262C152.048 56.8471 152.356 56.7585 152.724 56.7603C152.607 56.6719 152.514 56.557 152.446 56.4157C152.381 56.2749 152.366 56.1257 152.4 55.9678C152.439 55.7857 152.524 55.637 152.654 55.5216C152.787 55.4039 152.972 55.3034 153.21 55.2204C152.971 55.0588 152.797 54.8346 152.688 54.548C152.582 54.2589 152.565 53.9459 152.638 53.6089C152.716 53.2508 152.856 52.9615 153.059 52.7411C153.263 52.5176 153.521 52.3691 153.832 52.2954C154.144 52.2216 154.5 52.2273 154.901 52.3122C154.989 52.3309 155.076 52.3541 155.162 52.3819C155.252 52.4072 155.336 52.4362 155.415 52.4687C155.495 52.4983 155.563 52.5286 155.62 52.5596L157.333 52.9226L157.228 53.4098L156.283 53.3286C156.348 53.4663 156.393 53.625 156.418 53.8049C156.443 53.9847 156.433 54.1763 156.389 54.3796C156.281 54.8774 156.027 55.2378 155.626 55.4608C155.226 55.6808 154.731 55.7284 154.142 55.6035C154.002 55.5739 153.862 55.5315 153.721 55.4764C153.555 55.5268 153.421 55.5937 153.321 55.6772C153.223 55.7612 153.16 55.8685 153.132 55.9991C153.111 56.0962 153.123 56.1797 153.168 56.2496C153.217 56.3202 153.294 56.381 153.401 56.4321C153.508 56.4802 153.64 56.521 153.798 56.5545L154.678 56.7408C155.222 56.8559 155.613 57.0579 155.853 57.3467C156.095 57.6361 156.169 57.9994 156.075 58.4365C155.955 58.9889 155.639 59.3648 155.126 59.564C154.612 59.7631 153.93 59.7727 153.08 59.5925ZM153.23 59.0054C153.644 59.0929 153.995 59.1228 154.283 59.0951C154.574 59.0711 154.804 58.9943 154.972 58.8647C155.142 58.7389 155.25 58.5682 155.297 58.3527C155.34 58.1524 155.327 57.991 155.258 57.8684C155.189 57.749 155.07 57.6539 154.901 57.5832C154.732 57.5094 154.521 57.4455 154.265 57.3915L153.4 57.2081C153.175 57.1604 152.971 57.1538 152.789 57.1883C152.607 57.2227 152.455 57.2985 152.335 57.4158C152.217 57.5337 152.136 57.6944 152.092 57.8978C152.034 58.1679 152.104 58.3969 152.301 58.5848C152.498 58.7758 152.808 58.9159 153.23 59.0054ZM154.288 55.0584C154.65 55.135 154.941 55.1015 155.163 54.958C155.385 54.8145 155.533 54.5682 155.609 54.2191C155.689 53.8458 155.657 53.5469 155.512 53.3225C155.367 53.095 155.114 52.943 154.753 52.8664C154.406 52.7931 154.118 52.8336 153.888 52.988C153.661 53.1399 153.508 53.4011 153.428 53.7714C153.354 54.1114 153.392 54.3923 153.541 54.6144C153.69 54.8364 153.939 54.9844 154.288 55.0584Z" fill="white"/>
<path d="M149.947 51.2821C150.543 51.4082 150.956 51.6354 151.187 51.9636C151.418 52.2919 151.47 52.7489 151.343 53.3347L150.61 56.7268L150.059 56.61L150.072 55.8415L150.036 55.8338C149.857 55.9863 149.678 56.1087 149.499 56.201C149.321 56.2902 149.125 56.3455 148.911 56.3667C148.7 56.3856 148.45 56.3645 148.162 56.3033C147.858 56.239 147.599 56.1286 147.385 55.9722C147.174 55.8164 147.023 55.6163 146.933 55.3718C146.846 55.128 146.838 54.8406 146.91 54.5098C147.018 54.012 147.298 53.6713 147.75 53.4879C148.203 53.3044 148.836 53.2861 149.649 53.433L150.519 53.579L150.585 53.274C150.678 52.843 150.65 52.5213 150.502 52.309C150.354 52.0968 150.112 51.9549 149.775 51.8835C149.513 51.8281 149.256 51.8133 149.003 51.839C148.749 51.8647 148.505 51.9066 148.27 51.9648L148.162 51.3419C148.411 51.2741 148.691 51.2302 149 51.21C149.31 51.1898 149.625 51.2138 149.947 51.2821ZM150.394 54.1098L149.626 53.9805C148.998 53.8728 148.537 53.8815 148.243 54.0066C147.95 54.1316 147.767 54.358 147.696 54.6859C147.635 54.9712 147.676 55.2005 147.819 55.3738C147.963 55.547 148.178 55.6639 148.463 55.7244C148.907 55.8184 149.296 55.7723 149.632 55.5863C149.968 55.4003 150.189 55.0614 150.295 54.5697L150.394 54.1098Z" fill="white"/>
<path d="M146.532 50.5491C146.632 50.5703 146.736 50.5986 146.843 50.6339C146.95 50.6662 147.044 50.7004 147.125 50.7366L146.878 51.4175C146.801 51.3789 146.713 51.3429 146.616 51.3095C146.518 51.2762 146.425 51.2501 146.337 51.2315C146.136 51.189 145.938 51.1898 145.741 51.2338C145.548 51.2754 145.368 51.3579 145.201 51.4813C145.035 51.6018 144.891 51.7602 144.77 51.9565C144.648 52.1499 144.56 52.3756 144.504 52.6336L143.926 55.3108L143.164 55.1496L144.243 50.1594L144.872 50.2926L144.755 51.2297L144.787 51.2365C144.93 51.0732 145.091 50.9311 145.27 50.8102C145.449 50.6863 145.644 50.5991 145.855 50.5486C146.07 50.4987 146.295 50.4989 146.532 50.5491Z" fill="white"/>
<path d="M140.945 49.3656C141.371 49.4557 141.715 49.6271 141.978 49.8796C142.241 50.1321 142.416 50.4455 142.504 50.8195C142.592 51.1906 142.587 51.6022 142.49 52.0545L142.388 52.5235L138.939 51.7927C138.821 52.3805 138.87 52.8576 139.087 53.224C139.303 53.5904 139.668 53.828 140.181 53.9368C140.497 54.0037 140.783 54.0341 141.038 54.0279C141.294 54.0217 141.564 53.9901 141.85 53.9331L141.706 54.5979C141.43 54.6568 141.162 54.6856 140.901 54.6845C140.644 54.684 140.347 54.648 140.01 54.5766C139.53 54.4749 139.131 54.2889 138.815 54.0187C138.502 53.7461 138.288 53.3992 138.172 52.978C138.057 52.5567 138.059 52.0714 138.177 51.522C138.293 50.9847 138.483 50.5393 138.747 50.1857C139.015 49.8297 139.336 49.5802 139.71 49.4372C140.087 49.2949 140.499 49.271 140.945 49.3656ZM140.802 49.9829C140.398 49.8973 140.048 49.9612 139.751 50.1744C139.453 50.3877 139.231 50.7262 139.083 51.1901L141.726 51.7499C141.787 51.4518 141.797 51.1808 141.754 50.9369C141.715 50.6906 141.618 50.4859 141.463 50.3228C141.308 50.1567 141.088 50.0434 140.802 49.9829Z" fill="white"/>
<path d="M134.355 53.2837L133.538 47.892L134.349 48.0638L134.795 51.3151C134.826 51.5376 134.855 51.7817 134.88 52.0473C134.905 52.3129 134.916 52.5249 134.914 52.6831L134.946 52.6898C135.015 52.5458 135.119 52.3583 135.258 52.1274C135.398 51.8935 135.524 51.6823 135.638 51.4937L137.389 48.7076L138.2 48.8794L135.221 53.4671L134.355 53.2837Z" fill="white"/>
<path d="M131.644 52.7094L131.28 50.423L128.61 49.8574L127.337 51.7972L126.553 51.6312L130.605 45.4994L131.302 45.6471L132.446 52.8793L131.644 52.7094ZM131.196 49.6863L130.871 47.4222C130.864 47.3637 130.853 47.2678 130.838 47.1343C130.825 47.0015 130.812 46.8638 130.798 46.7212C130.784 46.5787 130.773 46.4635 130.763 46.3758C130.706 46.4938 130.646 46.6112 130.582 46.7279C130.523 46.8422 130.465 46.949 130.408 47.0481C130.352 47.1442 130.305 47.2262 130.265 47.2939L129.018 49.2249L131.196 49.6863Z" fill="white"/>
<path d="M159.013 39.9042C159.438 39.9943 159.782 40.1656 160.045 40.4182C160.308 40.6707 160.484 40.984 160.571 41.3581C160.659 41.7291 160.655 42.1408 160.557 42.5931L160.456 43.062L157.006 42.3313C156.888 42.9191 156.938 43.3962 157.154 43.7626C157.37 44.129 157.735 44.3666 158.249 44.4753C158.565 44.5423 158.85 44.5726 159.106 44.5664C159.361 44.5603 159.632 44.5287 159.917 44.4717L159.774 45.1365C159.497 45.1954 159.229 45.2242 158.969 45.2231C158.711 45.2225 158.414 45.1866 158.077 45.1151C157.597 45.0134 157.199 44.8275 156.882 44.5573C156.569 44.2847 156.355 43.9378 156.24 43.5165C156.124 43.0953 156.126 42.61 156.245 42.0606C156.361 41.5233 156.551 41.0779 156.815 40.7243C157.082 40.3683 157.403 40.1188 157.777 39.9758C158.154 39.8335 158.566 39.8096 159.013 39.9042ZM158.87 40.5215C158.466 40.4359 158.115 40.4997 157.818 40.713C157.521 40.9262 157.298 41.2648 157.15 41.7286L159.794 42.2885C159.855 41.9904 159.864 41.7194 159.822 41.4755C159.783 41.2291 159.686 41.0244 159.53 40.8614C159.375 40.6953 159.155 40.582 158.87 40.5215Z" fill="white"/>
<path d="M152.423 43.8224L151.605 38.4307L152.417 38.6025L152.862 41.8538C152.894 42.0763 152.922 42.3204 152.947 42.586C152.972 42.8516 152.984 43.0635 152.981 43.2218L153.013 43.2285C153.083 43.0845 153.187 42.897 153.326 42.6661C153.465 42.4322 153.592 42.221 153.706 42.0324L155.456 39.2463L156.267 39.4181L153.289 44.0058L152.423 43.8224Z" fill="white"/>
<path d="M150.558 40.8085C150.469 41.2183 150.337 41.5728 150.161 41.872C149.985 42.1712 149.773 42.4104 149.525 42.5895C149.276 42.7686 148.996 42.8871 148.685 42.945C148.378 43.0005 148.045 42.9903 147.686 42.9143C147.352 42.8436 147.058 42.7209 146.803 42.5463C146.552 42.3694 146.349 42.1486 146.193 41.8839C146.041 41.6198 145.943 41.315 145.9 40.9695C145.86 40.6245 145.885 40.2472 145.973 39.8374C146.091 39.291 146.284 38.8463 146.552 38.5031C146.821 38.1568 147.149 37.9199 147.535 37.7923C147.926 37.6623 148.359 37.6478 148.836 37.7488C149.292 37.8453 149.668 38.0313 149.964 38.3068C150.264 38.5829 150.466 38.9336 150.571 39.359C150.68 39.782 150.675 40.2652 150.558 40.8085ZM146.757 40.0034C146.671 40.4041 146.649 40.7629 146.691 41.0799C146.734 41.3968 146.849 41.6592 147.036 41.8671C147.223 42.0749 147.491 42.2159 147.84 42.2899C148.187 42.3632 148.488 42.343 148.745 42.2291C149.004 42.1158 149.219 41.9232 149.389 41.6513C149.559 41.3794 149.687 41.0431 149.774 40.6425C149.86 40.2448 149.881 39.8906 149.837 39.5797C149.793 39.2658 149.678 39.0064 149.49 38.8016C149.303 38.5968 149.033 38.457 148.68 38.3824C148.161 38.2723 147.742 38.3631 147.425 38.6546C147.111 38.9468 146.888 39.3964 146.757 40.0034Z" fill="white"/>
<path d="M142.283 34.2657L141.9 36.0369C141.856 36.2402 141.807 36.4362 141.754 36.6249C141.703 36.8142 141.664 36.9613 141.635 37.0663L141.676 37.075C141.861 36.8793 142.099 36.7314 142.391 36.6313C142.683 36.5312 143.029 36.5236 143.43 36.6086C144.056 36.7411 144.507 37.0637 144.784 37.5763C145.065 38.0864 145.113 38.768 144.928 39.6209C144.807 40.1825 144.62 40.638 144.366 40.9875C144.113 41.3369 143.81 41.5775 143.457 41.7091C143.105 41.8408 142.717 41.8619 142.295 41.7724C141.9 41.6888 141.591 41.5471 141.367 41.3473C141.147 41.1452 140.992 40.9234 140.901 40.682L140.842 40.6694L140.542 41.3059L139.995 41.1901L141.526 34.1055L142.283 34.2657ZM143.17 37.2154C142.809 37.1388 142.506 37.1493 142.263 37.2469C142.02 37.3415 141.821 37.5215 141.665 37.7869C141.513 38.0499 141.39 38.3984 141.296 38.8324L141.287 38.8734C141.151 39.5017 141.152 40.0051 141.289 40.3833C141.428 40.7586 141.773 41.0048 142.326 41.1219C142.791 41.2204 143.175 41.1241 143.48 40.833C143.787 40.5426 144.009 40.0817 144.146 39.4504C144.285 38.8069 144.274 38.2983 144.113 37.9246C143.956 37.5515 143.641 37.3151 143.17 37.2154Z" fill="white"/>
<path d="M138.382 40.8483L138.018 38.5619L135.348 37.9963L134.076 39.9361L133.292 39.7701L137.343 33.6383L138.04 33.786L139.184 41.0182L138.382 40.8483ZM137.935 37.8252L137.609 35.5612C137.602 35.5027 137.591 35.4067 137.576 35.2732C137.563 35.1404 137.55 35.0027 137.536 34.8602C137.523 34.7176 137.511 34.6024 137.501 34.5147C137.444 34.6327 137.384 34.7501 137.321 34.8668C137.261 34.9811 137.203 35.0879 137.146 35.187C137.091 35.2832 137.043 35.3651 137.003 35.4328L135.756 37.3638L137.935 37.8252Z" fill="white"/>
<path d="M193.045 68.3292L191.612 69.6869C191.499 69.7948 191.384 69.8972 191.268 69.9942C191.153 70.0912 191.054 70.1701 190.972 70.231L191.01 70.2709C191.214 70.2258 191.413 70.2196 191.606 70.2523C191.804 70.285 191.993 70.3533 192.174 70.4572C192.359 70.5612 192.529 70.6941 192.685 70.8558C192.96 71.1417 193.145 71.4277 193.241 71.7138C193.337 71.9998 193.334 72.2879 193.234 72.5781C193.135 72.8661 192.929 73.1593 192.615 73.4575L190.212 75.7352L189.576 75.0736L191.888 72.8816C192.183 72.6024 192.342 72.3288 192.366 72.0607C192.391 71.7904 192.277 71.5224 192.021 71.2564C191.778 71.0038 191.533 70.8507 191.286 70.7973C191.04 70.7418 190.789 70.775 190.531 70.8968C190.273 71.0186 190.001 71.2149 189.715 71.4856L187.838 73.2653L187.196 72.5971L192.402 67.661L193.045 68.3292Z" fill="white"/>
<path d="M182.956 71.4586C182.485 70.9688 182.214 70.5064 182.141 70.0714C182.07 69.6386 182.197 69.2689 182.52 68.9622C182.75 68.7444 183.014 68.6314 183.313 68.6231C183.61 68.617 183.911 68.7172 184.216 68.9236C184.167 68.7838 184.154 68.6351 184.177 68.4775C184.205 68.3199 184.277 68.1862 184.393 68.0762C184.529 67.9472 184.682 67.8739 184.853 67.8561C185.028 67.8385 185.235 67.8618 185.476 67.9259C185.371 67.6569 185.355 67.376 185.427 67.083C185.501 66.7879 185.664 66.5219 185.913 66.285C186.179 66.0334 186.458 65.8741 186.752 65.8073C187.048 65.7426 187.347 65.7691 187.647 65.8866C187.948 66.004 188.243 66.2135 188.532 66.5149C188.596 66.5814 188.659 66.6532 188.72 66.7305C188.784 66.8056 188.841 66.8806 188.892 66.9555C188.942 67.0303 188.981 67.093 189.009 67.1434L190.223 68.4066L189.824 68.7842L189.098 68.2278C189.075 68.3724 189.025 68.5197 188.947 68.6695C188.869 68.8194 188.761 68.9599 188.623 69.091C188.248 69.4463 187.829 69.6001 187.366 69.5525C186.906 69.505 186.462 69.2575 186.031 68.8098C185.934 68.7035 185.841 68.5898 185.755 68.4686C185.607 68.4262 185.477 68.4123 185.363 68.427C185.251 68.4396 185.153 68.4861 185.068 68.5664C185.004 68.6277 184.972 68.6985 184.972 68.7787C184.974 68.8611 185.005 68.9528 185.064 69.0538C185.125 69.1527 185.212 69.2609 185.324 69.3784L185.938 70.0166C186.321 70.4155 186.53 70.8017 186.565 71.1752C186.6 71.5487 186.455 71.8898 186.129 72.1986C185.717 72.5898 185.237 72.7228 184.69 72.5974C184.143 72.472 183.565 72.0924 182.956 71.4586ZM183.47 71.0156C183.745 71.3014 184.003 71.5122 184.244 71.6478C184.488 71.7856 184.71 71.8525 184.91 71.8485C185.111 71.8445 185.285 71.7727 185.432 71.6331C185.566 71.5062 185.638 71.3768 185.648 71.2449C185.657 71.1173 185.614 70.9798 185.52 70.8324C185.425 70.685 185.29 70.5205 185.116 70.3388L184.534 69.7338C184.385 69.5786 184.231 69.4667 184.071 69.398C183.911 69.3293 183.754 69.3061 183.601 69.3286C183.446 69.3531 183.3 69.4299 183.164 69.5589C182.979 69.7345 182.913 69.9474 182.966 70.1978C183.021 70.4504 183.189 70.723 183.47 71.0156ZM186.519 68.4051C186.755 68.6511 186.996 68.7737 187.243 68.7729C187.492 68.77 187.738 68.6533 187.981 68.4228C188.242 68.1754 188.378 67.9272 188.391 67.6783C188.403 67.4295 188.292 67.1831 188.058 66.9394C187.83 66.7022 187.587 66.585 187.33 66.5877C187.077 66.5905 186.821 66.7145 186.562 66.9599C186.323 67.1861 186.199 67.4248 186.189 67.6759C186.181 67.9249 186.291 68.168 186.519 68.4051Z" fill="white"/>
<path d="M186.197 64.2246L182.51 67.7204L181.868 67.0523L185.555 63.5564L186.197 64.2246ZM187.276 62.5726C187.378 62.679 187.434 62.7995 187.444 62.934C187.456 63.0708 187.392 63.2058 187.252 63.3391C187.111 63.4723 186.971 63.5308 186.832 63.5146C186.697 63.4984 186.578 63.4372 186.476 63.3308C186.372 63.2222 186.315 63.1006 186.305 62.9661C186.299 62.8316 186.367 62.6977 186.507 62.5645C186.648 62.4313 186.784 62.3716 186.917 62.3855C187.052 62.4017 187.172 62.464 187.276 62.5726Z" fill="white"/>
<path d="M180.692 65.829L180.037 65.1475L182.295 63.0062L179.991 60.6095L177.733 62.7507L177.078 62.0693L181.97 57.4314L182.625 58.1129L180.584 60.048L182.887 62.4447L184.928 60.5096L185.583 61.1911L180.692 65.829Z" fill="white"/>
<path d="M205.156 113.334L203.253 113.854C203.101 113.895 202.952 113.931 202.804 113.962C202.656 113.993 202.532 114.016 202.431 114.031L202.446 114.084C202.646 114.141 202.824 114.229 202.978 114.35C203.137 114.472 203.27 114.622 203.38 114.799C203.493 114.978 203.58 115.176 203.64 115.392C203.746 115.775 203.773 116.115 203.721 116.412C203.67 116.71 203.531 116.963 203.304 117.171C203.081 117.379 202.761 117.539 202.342 117.654L199.149 118.525L198.904 117.641L201.978 116.802C202.369 116.695 202.639 116.529 202.787 116.304C202.938 116.078 202.965 115.787 202.866 115.432C202.773 115.094 202.63 114.843 202.438 114.679C202.249 114.514 202.012 114.424 201.727 114.409C201.442 114.394 201.11 114.439 200.731 114.542L198.235 115.224L197.988 114.33L204.909 112.441L205.156 113.334Z" fill="white"/>
<path d="M194.802 111.319C194.62 110.665 194.601 110.128 194.744 109.71C194.887 109.295 195.174 109.029 195.604 108.911C195.909 108.828 196.195 108.853 196.462 108.988C196.726 109.123 196.943 109.354 197.113 109.68C197.136 109.533 197.196 109.396 197.291 109.268C197.39 109.142 197.517 109.058 197.671 109.016C197.852 108.967 198.021 108.975 198.18 109.04C198.342 109.107 198.513 109.226 198.695 109.396C198.73 109.11 198.849 108.854 199.052 108.63C199.257 108.405 199.526 108.247 199.858 108.156C200.211 108.06 200.533 108.052 200.823 108.132C201.114 108.215 201.363 108.38 201.572 108.625C201.78 108.871 201.94 109.196 202.051 109.599C202.076 109.687 202.097 109.78 202.114 109.878C202.135 109.974 202.149 110.067 202.158 110.157C202.167 110.247 202.172 110.321 202.171 110.378L202.639 112.067L202.109 112.211L201.735 111.377C201.646 111.493 201.532 111.6 201.392 111.695C201.253 111.79 201.091 111.863 200.907 111.913C200.409 112.049 199.968 111.987 199.583 111.725C199.202 111.466 198.928 111.037 198.763 110.439C198.727 110.299 198.7 110.155 198.682 110.007C198.572 109.9 198.464 109.826 198.357 109.785C198.253 109.743 198.145 109.738 198.032 109.768C197.946 109.792 197.884 109.839 197.846 109.91C197.809 109.984 197.793 110.079 197.796 110.196C197.803 110.312 197.828 110.449 197.871 110.606L198.108 111.459C198.255 111.992 198.255 112.432 198.109 112.778C197.962 113.123 197.672 113.355 197.239 113.474C196.691 113.623 196.206 113.514 195.785 113.144C195.364 112.775 195.036 112.167 194.802 111.319ZM195.464 111.172C195.57 111.554 195.696 111.862 195.844 112.096C195.992 112.332 196.156 112.497 196.334 112.588C196.513 112.68 196.7 112.699 196.895 112.645C197.073 112.597 197.198 112.516 197.269 112.405C197.338 112.297 197.366 112.155 197.352 111.98C197.339 111.806 197.299 111.597 197.232 111.354L197.008 110.545C196.951 110.338 196.868 110.166 196.76 110.03C196.652 109.893 196.526 109.799 196.38 109.746C196.232 109.694 196.067 109.693 195.886 109.742C195.64 109.809 195.481 109.966 195.409 110.212C195.337 110.461 195.356 110.781 195.464 111.172ZM199.383 110.312C199.474 110.641 199.628 110.864 199.845 110.98C200.065 111.095 200.337 111.108 200.66 111.02C201.007 110.925 201.245 110.771 201.374 110.558C201.503 110.344 201.523 110.074 201.433 109.748C201.345 109.431 201.187 109.213 200.96 109.094C200.736 108.976 200.452 108.965 200.108 109.058C199.791 109.145 199.568 109.297 199.44 109.513C199.314 109.729 199.296 109.995 199.383 110.312Z" fill="white"/>
<path d="M201.086 106.473L196.185 107.811L195.937 106.918L200.839 105.58L201.086 106.473ZM202.819 105.527C202.859 105.67 202.851 105.802 202.796 105.926C202.741 106.052 202.621 106.141 202.434 106.192C202.247 106.243 202.096 106.228 201.982 106.148C201.871 106.07 201.796 105.96 201.756 105.817C201.716 105.672 201.724 105.538 201.779 105.415C201.838 105.293 201.961 105.207 202.147 105.156C202.334 105.105 202.483 105.117 202.593 105.192C202.704 105.271 202.779 105.382 202.819 105.527Z" fill="white"/>
<path d="M195.485 105.283L195.233 104.372L198.236 103.552L197.349 100.348L194.347 101.168L194.095 100.257L200.598 98.4821L200.85 99.393L198.136 100.134L199.023 103.338L201.736 102.597L201.988 103.508L195.485 105.283Z" fill="white"/>
<path d="M212.516 110.279L212.782 111.244L210.246 113.054C210.115 113.147 209.986 113.235 209.859 113.318C209.736 113.402 209.614 113.479 209.492 113.547C209.374 113.617 209.256 113.68 209.137 113.734L209.146 113.765C209.307 113.76 209.505 113.76 209.739 113.766C209.974 113.772 210.213 113.783 210.457 113.8L213.552 114.025L213.818 114.985L207.637 114.397C207.294 114.367 206.988 114.299 206.719 114.194C206.449 114.092 206.223 113.945 206.042 113.752C205.859 113.56 205.724 113.31 205.639 113.002C205.599 112.86 205.573 112.732 205.561 112.617C205.546 112.507 205.539 112.41 205.538 112.327L206.25 112.133C206.253 112.202 206.261 112.284 206.275 112.379C206.289 112.477 206.31 112.577 206.338 112.677C206.39 112.864 206.471 113.014 206.582 113.127C206.691 113.244 206.825 113.332 206.985 113.39C207.146 113.451 207.324 113.49 207.52 113.507L208.159 113.571L212.516 110.279Z" fill="white"/>
<path d="M212.407 109.54C212.431 109.628 212.452 109.726 212.469 109.833C212.488 109.939 212.501 110.032 212.507 110.11L211.649 110.243C211.647 110.167 211.639 110.08 211.625 109.982C211.611 109.887 211.593 109.8 211.571 109.72C211.519 109.53 211.433 109.359 211.315 109.207C211.196 109.054 211.05 108.932 210.878 108.839C210.708 108.745 210.515 108.687 210.299 108.667C210.086 108.645 209.855 108.668 209.606 108.736L207.013 109.444L206.764 108.547L211.666 107.209L211.865 107.929L211.009 108.277L211.021 108.317C211.226 108.369 211.423 108.446 211.611 108.548C211.799 108.652 211.962 108.786 212.1 108.949C212.241 109.115 212.343 109.312 212.407 109.54Z" fill="white"/>
<path d="M210.852 103.923C210.971 104.349 210.98 104.74 210.88 105.096C210.784 105.45 210.592 105.754 210.305 106.008C210.018 106.261 209.649 106.45 209.199 106.573L208.691 106.711L207.772 103.387C207.249 103.539 206.883 103.784 206.674 104.122C206.467 104.459 206.429 104.862 206.559 105.333C206.645 105.645 206.752 105.913 206.878 106.14C207.005 106.367 207.162 106.595 207.35 106.824L206.598 107.029C206.417 106.814 206.267 106.589 206.148 106.354C206.027 106.122 205.918 105.835 205.823 105.491C205.692 105.017 205.672 104.575 205.762 104.165C205.854 103.758 206.057 103.404 206.373 103.105C206.692 102.804 207.124 102.579 207.67 102.43C208.209 102.283 208.696 102.248 209.128 102.324C209.564 102.399 209.929 102.574 210.225 102.847C210.52 103.12 210.73 103.478 210.852 103.923ZM210.157 104.108C210.057 103.746 209.858 103.488 209.561 103.334C209.266 103.179 208.893 103.142 208.444 103.223L209.11 105.631C209.379 105.555 209.605 105.447 209.786 105.308C209.968 105.169 210.093 105 210.162 104.799C210.232 104.602 210.23 104.371 210.157 104.108Z" fill="white"/>
<path d="M211.622 100.826L204.482 100.299L204.22 99.3525L210.086 95.2758L210.347 96.2178L206.565 98.8032C206.435 98.8962 206.294 98.9887 206.144 99.0806C205.997 99.1717 205.849 99.2598 205.701 99.345C205.552 99.4302 205.415 99.5043 205.289 99.5674C205.43 99.5576 205.585 99.5502 205.756 99.545C205.928 99.5427 206.102 99.5446 206.279 99.5504C206.459 99.5554 206.63 99.5629 206.792 99.5728L211.358 99.875L211.622 100.826Z" fill="white"/>
<path d="M150.639 10.1465L149.987 8.00711H146.711L146.059 10.1465H144.006L147.178 1.12183H149.508L152.692 10.1465H150.639ZM149.533 6.40874C148.93 4.4702 148.59 3.37389 148.512 3.11979C148.438 2.86569 148.385 2.66487 148.352 2.51733C148.217 3.04192 147.83 4.33906 147.19 6.40874H149.533Z" fill="white"/>
<path d="M139.137 5.38822H139.764C140.35 5.38822 140.789 5.27347 141.08 5.04396C141.371 4.81035 141.516 4.47223 141.516 4.02961C141.516 3.58288 141.393 3.25296 141.147 3.03985C140.906 2.82673 140.524 2.72017 140.004 2.72017H139.137L139.137 5.38822ZM143.44 3.96198C143.44 4.9292 143.137 5.66896 142.531 6.18126C141.928 6.69356 141.07 6.9497 139.955 6.9497H139.137L139.137 10.1464H137.231L137.231 1.15869H140.102C141.193 1.15869 142.02 1.39435 142.586 1.86566C143.156 2.33288 143.44 3.03165 143.44 3.96198Z" fill="white"/>
<path d="M135.154 10.1464H133.279L133.279 6.13207C133.279 5.14026 132.91 4.64436 132.172 4.64436C131.648 4.64436 131.269 4.82264 131.035 5.17919C130.801 5.53575 130.685 6.11362 130.685 6.91281L130.685 10.1464H128.81L128.81 0.580811H130.685L130.685 2.52959C130.685 2.68123 130.67 3.03779 130.642 3.59927L130.599 4.15255H130.697C131.115 3.48042 131.779 3.14435 132.689 3.14435C133.496 3.14435 134.109 3.36156 134.527 3.79599C134.945 4.23042 135.154 4.85337 135.154 5.66485L135.154 10.1464Z" fill="white"/>
<path d="M121.075 6.32882C121.075 4.55012 121.45 3.22634 122.2 2.35748C122.954 1.48863 124.081 1.0542 125.581 1.0542C126.094 1.0542 126.495 1.08494 126.786 1.14641L126.786 2.66486C126.422 2.5829 126.061 2.54191 125.704 2.54191C125.053 2.54191 124.52 2.64027 124.106 2.837C123.696 3.03372 123.389 3.3247 123.184 3.70995C122.979 4.0952 122.858 4.64233 122.821 5.35135H122.901C123.307 4.65463 123.956 4.30626 124.85 4.30626C125.653 4.30626 126.282 4.55832 126.737 5.06242C127.192 5.56652 127.419 6.26324 127.419 7.15259C127.419 8.11161 127.149 8.87186 126.608 9.43334C126.067 9.99072 125.317 10.2694 124.358 10.2694C123.694 10.2694 123.114 10.1157 122.618 9.80834C122.126 9.50096 121.745 9.05219 121.475 8.46202C121.208 7.87186 121.075 7.16079 121.075 6.32882ZM124.321 8.75096C124.727 8.75096 125.038 8.61571 125.256 8.34522C125.473 8.07063 125.581 7.68128 125.581 7.17718C125.581 6.73865 125.479 6.39439 125.274 6.14439C125.073 5.89029 124.768 5.76324 124.358 5.76324C123.973 5.76324 123.643 5.88824 123.368 6.13824C123.098 6.38824 122.962 6.67923 122.962 7.0112C122.962 7.4989 123.09 7.91079 123.344 8.24686C123.602 8.58293 123.928 8.75096 124.321 8.75096Z" fill="white"/>
<path d="M118.642 10.1464H116.742L116.742 4.9456L116.76 4.09108L116.791 3.15665C116.476 3.47223 116.256 3.6792 116.133 3.77756L115.101 4.60748L114.185 3.46403L117.08 1.15869H118.642L118.642 10.1464Z" fill="white"/>
<path d="M112.985 5.6526C112.985 7.22228 112.727 8.38417 112.21 9.13828C111.698 9.89238 110.907 10.2694 109.837 10.2694C108.801 10.2694 108.018 9.88008 107.489 9.10139C106.964 8.3227 106.702 7.1731 106.702 5.6526C106.702 4.06653 106.958 2.89849 107.471 2.14849C107.983 1.39439 108.772 1.01733 109.837 1.01733C110.874 1.01733 111.657 1.41078 112.186 2.19767C112.719 2.98456 112.985 4.1362 112.985 5.6526ZM108.589 5.6526C108.589 6.75507 108.684 7.54606 108.872 8.02557C109.065 8.50098 109.387 8.73868 109.837 8.73868C110.28 8.73868 110.6 8.49688 110.796 8.01327C110.993 7.52966 111.092 6.74277 111.092 5.6526C111.092 4.55014 110.991 3.75915 110.79 3.27964C110.594 2.79603 110.276 2.55423 109.837 2.55423C109.391 2.55423 109.071 2.79603 108.878 3.27964C108.686 3.75915 108.589 4.55014 108.589 5.6526Z" fill="white"/>
<path d="M104.256 10.1464H102.356L102.356 4.9456L102.375 4.09108L102.405 3.15665C102.09 3.47223 101.871 3.6792 101.748 3.77756L100.715 4.60748L99.7988 3.46403L102.694 1.15869H104.256L104.256 10.1464Z" fill="white"/>
<path d="M82.1196 11.9221L80.4098 10.4806L77.6594 12.2616L78.2753 14.4115L76.5518 15.5276L74.3091 6.22829L76.2648 4.96185L83.8431 10.806L82.1196 11.9221ZM79.1591 9.38619C77.5998 8.0865 76.7183 7.35118 76.5149 7.18022C76.3148 7.00703 76.1609 6.86743 76.0532 6.76141C76.2248 7.27525 76.6048 8.57455 77.1931 10.6593L79.1591 9.38619Z" fill="white"/>
<path d="M69.8791 14.1802L70.4054 13.8394C70.8973 13.5208 71.2031 13.1861 71.3225 12.8353C71.4398 12.481 71.3782 12.1182 71.1376 11.7466C70.8947 11.3717 70.6122 11.1616 70.29 11.1163C69.9712 11.0689 69.5933 11.1866 69.1564 11.4695L68.4289 11.9407L69.8791 14.1802ZM72.7159 10.644C73.2417 11.4558 73.3892 12.2416 73.1585 13.0013C72.9313 13.7588 72.3498 14.4405 71.4141 15.0464L70.7278 15.4909L72.4654 18.1741L70.8658 19.21L65.9805 11.6659L68.3902 10.1054C69.3053 9.51284 70.1283 9.26065 70.8592 9.34884C71.5913 9.43136 72.2102 9.86307 72.7159 10.644Z" fill="white"/>
<path d="M69.1213 20.3394L67.5475 21.3585L65.3655 17.989C64.8264 17.1565 64.2472 16.9407 63.628 17.3417C63.1877 17.6268 62.9664 17.9825 62.9641 18.4088C62.9618 18.8351 63.1779 19.3836 63.6123 20.0544L65.3699 22.7687L63.7961 23.7878L58.5967 15.7587L60.1705 14.7395L61.2298 16.3753C61.3122 16.5025 61.494 16.8096 61.7751 17.2965L62.0397 17.7843L62.1223 17.7309C62.1078 16.9395 62.4824 16.2965 63.2461 15.8019C63.9238 15.3631 64.5562 15.2124 65.1432 15.3498C65.7302 15.4872 66.2443 15.8965 66.6854 16.5776L69.1213 20.3394Z" fill="white"/>
<path d="M59.7992 20.2389C60.7616 21.7251 61.1669 23.0372 61.0153 24.1754C60.8637 25.3136 60.1532 26.2937 58.8839 27.1157C58.4366 27.4053 58.0822 27.6006 57.8205 27.7017L56.9918 26.422C57.3276 26.3071 57.6537 26.1472 57.9702 25.9423C58.5034 25.597 58.8919 25.2355 59.1356 24.858C59.3772 24.4769 59.4811 24.0606 59.4473 23.6088C59.4113 23.1536 59.2166 22.623 58.8632 22.0169L58.8013 22.057C58.8112 22.5096 58.7277 22.8859 58.5509 23.1859C58.3741 23.4859 58.0896 23.7629 57.6975 24.0169C57.0404 24.4424 56.3868 24.5678 55.7366 24.3931C55.0842 24.2151 54.5152 23.751 54.0295 23.0011C53.506 22.1927 53.3216 21.4064 53.4761 20.6423C53.6319 19.8725 54.1054 19.2314 54.8966 18.719C55.4539 18.3581 56.0253 18.1736 56.6109 18.1655C57.1999 18.1552 57.7677 18.3271 58.3143 18.6811C58.8587 19.0316 59.3537 19.5509 59.7992 20.2389ZM55.7563 19.9787C55.426 20.1925 55.2415 20.4731 55.2028 20.8205C55.1641 21.1678 55.2828 21.5548 55.559 21.9813C55.7952 22.346 56.0666 22.5804 56.3733 22.6845C56.6799 22.7886 57.0053 22.7293 57.3493 22.5066C57.6727 22.2972 57.8816 22.0129 57.9762 21.6538C58.0686 21.2913 58.0257 20.9724 57.8475 20.6972C57.5824 20.2878 57.2501 20.0123 56.8507 19.8705C56.4548 19.7265 56.09 19.7626 55.7563 19.9787Z" fill="white"/>
<path d="M54.1086 24.7073C54.9618 26.0248 55.3766 27.1404 55.3531 28.0541C55.3329 28.9655 54.8739 29.712 53.9761 30.2934C53.1057 30.857 52.2371 30.9557 51.37 30.5894C50.5064 30.2209 49.6614 29.3986 48.8349 28.1223C47.9728 26.791 47.5529 25.6713 47.5753 24.7633C47.5954 23.8519 48.0527 23.1066 48.9471 22.5274C49.8174 21.9638 50.6883 21.8685 51.5598 22.2417C52.4348 22.6126 53.2843 23.4344 54.1086 24.7073ZM50.4191 27.0965C51.0183 28.0218 51.5274 28.6345 51.9463 28.9345C52.3664 29.2289 52.7656 29.2535 53.144 29.0085C53.5156 28.7679 53.6525 28.3912 53.5547 27.8783C53.457 27.3655 53.1118 26.6515 52.5193 25.7365C51.92 24.8111 51.4058 24.2017 50.9766 23.9084C50.5486 23.6094 50.1506 23.5791 49.7825 23.8174C49.4075 24.0602 49.2706 24.437 49.3718 24.9476C49.4707 25.4548 49.8198 26.1711 50.4191 27.0965Z" fill="white"/>
<path d="M48.0715 28.6169C48.9247 29.9345 49.3395 31.0501 49.3159 31.9638C49.2958 32.8752 48.8368 33.6216 47.939 34.203C47.0686 34.7666 46.2 34.8653 45.3329 34.4991C44.4693 34.1306 43.6243 33.3082 42.7978 32.032C41.9357 30.7007 41.5158 29.581 41.5382 28.673C41.5583 27.7616 42.0156 27.0163 42.91 26.4371C43.7803 25.8735 44.6512 25.7782 45.5227 26.1513C46.3976 26.5222 47.2472 27.3441 48.0715 28.6169ZM44.382 31.0061C44.9812 31.9315 45.4903 32.5442 45.9092 32.8442C46.3293 33.1386 46.7285 33.1632 47.1069 32.9182C47.4785 32.6776 47.6154 32.3009 47.5176 31.788C47.4199 31.2751 47.0747 30.5612 46.4822 29.6461C45.8829 28.7207 45.3687 28.1114 44.9395 27.818C44.5115 27.519 44.1135 27.4887 43.7454 27.7271C43.3704 27.9699 43.2335 28.3466 43.3347 28.8573C43.4336 29.3645 43.7827 30.0807 44.382 31.0061Z" fill="white"/>
<path d="M43.1869 37.1339L41.5925 38.1665L38.7655 33.801L38.3165 33.0737L37.8344 32.2727C37.7411 32.7091 37.6695 33.002 37.6198 33.1514L37.204 34.4094L35.8136 33.9475L36.991 30.4386L38.3016 29.5898L43.1869 37.1339Z" fill="white"/>
<path d="M241.72 99.3513L243.267 97.7365L241.664 94.8786L239.479 95.3566L238.475 93.5657L247.898 91.9184L249.038 93.9506L242.724 101.142L241.72 99.3513ZM244.438 96.558C245.835 95.0843 246.624 94.2514 246.808 94.0592C246.994 93.8706 247.143 93.7259 247.255 93.6251C246.732 93.7637 245.411 94.0604 243.293 94.515L244.438 96.558Z" fill="white"/>
<path d="M240.244 86.9917L240.551 87.5386C240.837 88.0498 241.152 88.3762 241.494 88.5177C241.841 88.6573 242.207 88.6188 242.593 88.4023C242.982 88.1838 243.21 87.9152 243.276 87.5965C243.343 87.2813 243.25 86.8968 242.995 86.4428L242.571 85.6867L240.244 86.9917ZM243.593 90.0475C242.749 90.5206 241.956 90.6179 241.212 90.3394C240.471 90.0645 239.827 89.4409 239.282 88.4686L238.882 87.7554L236.094 89.319L235.162 87.6567L243.001 83.2607L244.405 85.7648C244.938 86.7157 245.138 87.553 245.003 88.2769C244.874 89.0023 244.404 89.5925 243.593 90.0475Z" fill="white"/>
<path d="M234.144 85.8444L233.227 84.2089L236.729 82.2455C237.594 81.7604 237.846 81.1961 237.485 80.5526C237.229 80.0951 236.888 79.8516 236.462 79.8223C236.037 79.7929 235.476 79.9737 234.779 80.3646L231.959 81.9462L231.041 80.3107L239.385 75.6321L240.302 77.2675L238.602 78.2207C238.47 78.2948 238.152 78.4567 237.648 78.7063L237.144 78.9394L237.193 79.0252C237.983 79.0611 238.601 79.4758 239.046 80.2694C239.441 80.9736 239.551 81.6143 239.377 82.1914C239.202 82.7685 238.761 83.2555 238.053 83.6524L234.144 85.8444Z" fill="white"/>
<path d="M230.363 79.0989L227.29 73.6189L228.442 72.9724L231.535 73.8248C232.459 74.0727 233.085 74.2219 233.414 74.2723C233.747 74.3207 234.034 74.3292 234.274 74.2975C234.515 74.2659 234.741 74.191 234.952 74.0727C235.266 73.8963 235.451 73.6774 235.507 73.4161C235.564 73.1583 235.512 72.8846 235.35 72.5951C235.179 72.2912 234.944 72.0354 234.644 71.8276C234.344 71.6198 233.979 71.4326 233.547 71.2659L234.109 69.7667C234.654 69.9684 235.066 70.158 235.344 70.3357C235.622 70.5133 235.881 70.7322 236.121 70.9924C236.365 71.2506 236.591 71.5655 236.799 71.9373C237.074 72.427 237.227 72.9097 237.259 73.3853C237.29 73.8608 237.204 74.2925 236.998 74.6802C236.793 75.068 236.483 75.3781 236.068 75.6106C235.707 75.8131 235.331 75.9392 234.941 75.9889C234.556 76.0402 234.122 76.025 233.64 75.9433C233.159 75.8652 232.423 75.6625 231.431 75.3353L229.916 74.8594L229.841 74.9015L231.757 78.3171L230.363 79.0989Z" fill="white"/>
<path d="M232.759 69.1068C232.269 69.3815 231.769 69.4666 231.26 69.3624C230.75 69.2581 230.281 68.974 229.851 68.5099L229.819 68.528C230.095 69.2048 230.171 69.792 230.046 70.2897C229.924 70.7854 229.605 71.1786 229.086 71.4692C228.332 71.8922 227.591 71.9485 226.862 71.6381C226.137 71.3257 225.49 70.6619 224.921 69.6467C224.444 68.7959 224.162 67.9625 224.075 67.1464L225.486 66.3556C225.502 66.7456 225.565 67.15 225.673 67.5688C225.78 67.9875 225.935 68.3756 226.135 68.7331C226.442 69.28 226.761 69.6318 227.094 69.7885C227.426 69.9453 227.797 69.9083 228.208 69.6778C228.577 69.4714 228.753 69.1749 228.739 68.7884C228.724 68.4019 228.532 67.8798 228.163 67.2221L227.83 66.6269L229.101 65.9143L229.44 66.5202C229.781 67.1279 230.108 67.5271 230.422 67.7177C230.741 67.9099 231.094 67.8977 231.48 67.6812C232.073 67.3485 232.162 66.8103 231.745 66.0668C231.6 65.8094 231.41 65.5707 231.174 65.3507C230.94 65.1343 230.626 64.9226 230.233 64.7156L230.945 63.3083C231.86 63.7346 232.596 64.4429 233.151 65.433C233.606 66.2445 233.801 66.9766 233.734 67.6293C233.67 68.2856 233.345 68.7781 232.759 69.1068Z" fill="white"/>
<path d="M227.221 64.3108C225.852 65.0785 224.713 65.4216 223.802 65.34C222.894 65.262 222.178 64.7565 221.655 63.8235C221.148 62.9191 221.105 62.0459 221.525 61.2039C221.948 60.3655 222.822 59.5745 224.148 58.8308C225.532 58.055 226.676 57.7071 227.581 57.7871C228.489 57.8651 229.204 58.3688 229.725 59.2982C230.232 60.2026 230.272 61.0778 229.844 61.9239C229.418 62.7734 228.544 63.5691 227.221 64.3108ZM225.072 60.4769C224.11 61.0161 223.466 61.4852 223.14 61.8842C222.82 62.2847 222.77 62.6816 222.99 63.0748C223.207 63.4609 223.574 63.6215 224.092 63.5565C224.61 63.4916 225.344 63.1925 226.295 62.6593C227.257 62.12 227.898 61.6456 228.218 61.2359C228.543 60.8278 228.599 60.4324 228.384 60.05C228.166 59.6603 227.799 59.4998 227.283 59.5683C226.77 59.6348 226.033 59.9377 225.072 60.4769Z" fill="white"/>
<path d="M219.032 58.8947L218.103 57.2378L222.639 54.694L223.394 54.2922L224.224 53.8619C223.794 53.741 223.506 53.651 223.36 53.5919L222.131 53.097L222.681 51.7388L226.108 53.1367L226.871 54.4987L219.032 58.8947Z" fill="white"/>
<path d="M210.51 40.3269L211.031 38.152L208.205 36.4931L206.56 38.0081L204.789 36.9686L212.094 30.792L214.103 31.9716L212.28 41.3664L210.51 40.3269ZM211.448 36.5433C211.91 34.5666 212.171 33.449 212.233 33.1904C212.298 32.9339 212.354 32.7338 212.4 32.5899C212.018 32.9739 211.027 33.8964 209.428 35.3575L211.448 36.5433Z" fill="white"/>
<path d="M202.999 30.4002L203.54 30.7177C204.045 31.0144 204.482 31.1375 204.849 31.0869C205.218 31.0327 205.515 30.8148 205.739 30.4331C205.965 30.0479 206.026 29.7011 205.922 29.3928C205.821 29.0866 205.546 28.8017 205.097 28.5382L204.35 28.0994L202.999 30.4002ZM207.432 31.349C206.943 32.1831 206.307 32.6675 205.524 32.8022C204.745 32.9389 203.875 32.7251 202.914 32.1607L202.209 31.7468L200.59 34.5036L198.947 33.5387L203.497 25.788L205.973 27.2415C206.913 27.7934 207.508 28.4157 207.757 29.1085C208.011 29.7999 207.903 30.5467 207.432 31.349Z" fill="white"/>
<path d="M197.155 32.4867L195.538 31.5374L197.57 28.0756C198.072 27.2203 198.005 26.6059 197.369 26.2324C196.917 25.9668 196.499 25.9286 196.117 26.1178C195.735 26.307 195.342 26.7462 194.938 27.4354L193.3 30.224L191.683 29.2747L196.526 21.0256L198.143 21.9749L197.157 23.6555C197.08 23.7863 196.887 24.0865 196.578 24.5562L196.261 25.0115L196.346 25.0613C197.046 24.6933 197.789 24.7396 198.574 25.2003C199.27 25.609 199.688 26.1066 199.829 26.6928C199.97 27.2791 199.834 27.9222 199.424 28.622L197.155 32.4867Z" fill="white"/>
<path d="M190.486 28.5713L185.068 25.3904L185.737 24.2506L188.837 23.426C189.76 23.174 190.376 22.9867 190.685 22.8643C190.997 22.7383 191.249 22.6009 191.441 22.4522C191.632 22.3035 191.79 22.1248 191.912 21.9163C192.095 21.6053 192.144 21.323 192.06 21.0693C191.979 20.8177 191.796 20.6079 191.51 20.4398C191.209 20.2635 190.877 20.1612 190.514 20.1331C190.15 20.1049 189.74 20.1278 189.283 20.2018L189.012 18.6239C189.584 18.5228 190.035 18.4788 190.365 18.4918C190.695 18.5048 191.029 18.5631 191.367 18.6667C191.708 18.7668 192.062 18.9247 192.429 19.1405C192.914 19.4248 193.289 19.7642 193.557 20.1588C193.824 20.5534 193.967 20.9699 193.985 21.4083C194.003 21.8468 193.892 22.271 193.652 22.681C193.442 23.0379 193.181 23.3363 192.869 23.5762C192.563 23.8146 192.181 24.0203 191.723 24.1934C191.268 24.3685 190.53 24.565 189.509 24.7828L187.961 25.1361L187.918 25.2103L191.295 27.1929L190.486 28.5713Z" fill="white"/>
<path d="M184.283 24.9298L178.865 21.7489L179.534 20.6091L182.634 19.7845C183.557 19.5325 184.173 19.3453 184.482 19.2228C184.794 19.0968 185.046 18.9595 185.237 18.8107C185.429 18.662 185.586 18.4834 185.709 18.2748C185.891 17.9638 185.941 17.6815 185.857 17.4278C185.776 17.1763 185.593 16.9664 185.307 16.7984C185.006 16.622 184.674 16.5197 184.311 16.4916C183.947 16.4634 183.537 16.4863 183.08 16.5603L182.808 14.9824C183.381 14.8813 183.832 14.8373 184.162 14.8503C184.492 14.8633 184.826 14.9217 185.164 15.0253C185.505 15.1253 185.859 15.2833 186.226 15.4991C186.711 15.7833 187.086 16.1228 187.354 16.5173C187.621 16.9119 187.764 17.3284 187.782 17.7669C187.8 18.2053 187.689 18.6295 187.448 19.0395C187.239 19.3965 186.978 19.6949 186.666 19.9347C186.36 20.1731 185.978 20.3789 185.52 20.5519C185.065 20.7271 184.327 20.9235 183.306 21.1414L181.758 21.4946L181.715 21.5688L185.092 23.5514L184.283 24.9298Z" fill="white"/>
<path d="M180.313 17.388C179.518 18.7417 178.707 19.6129 177.88 20.0018C177.056 20.3927 176.183 20.3174 175.261 19.7759C174.367 19.2509 173.889 18.5188 173.827 17.5797C173.769 16.6426 174.125 15.5184 174.894 14.2071C175.697 12.8394 176.51 11.9618 177.331 11.5744C178.155 11.1834 179.026 11.2577 179.945 11.7972C180.839 12.3221 181.315 13.0577 181.373 14.004C181.434 14.9523 181.08 16.0803 180.313 17.388ZM176.522 15.1627C175.964 16.1134 175.645 16.8432 175.564 17.3522C175.49 17.8597 175.647 18.2276 176.036 18.4558C176.417 18.6799 176.816 18.6332 177.23 18.3158C177.645 17.9983 178.128 17.3695 178.68 16.4294C179.238 15.4787 179.552 14.7457 179.621 14.2305C179.697 13.7139 179.545 13.3445 179.167 13.1225C178.782 12.8964 178.384 12.943 177.973 13.2626C177.564 13.5786 177.08 14.2119 176.522 15.1627Z" fill="white"/>
<path d="M170.51 16.8438L168.872 15.8821L171.505 11.397L171.953 10.6694L172.453 9.87918C172.021 9.99156 171.727 10.059 171.571 10.0816L170.261 10.2744L170.05 8.8246L173.714 8.30249L175.06 9.09304L170.51 16.8438Z" fill="white"/>
<path d="M31.5884 51.1134L29.4296 50.5295L27.6896 53.306L29.1564 54.9942L28.0661 56.7341L22.1034 49.2539L23.3406 47.2796L32.6788 49.3735L31.5884 51.1134ZM27.8336 50.0662C25.8711 49.5474 24.7615 49.2534 24.5048 49.1845C24.2503 49.1121 24.0518 49.0506 23.9094 49C24.2821 49.3932 25.1756 50.4102 26.5899 52.051L27.8336 50.0662Z" fill="white"/>
<path d="M21.4485 58.3331L21.7814 57.8018C22.0926 57.3052 22.2283 56.8726 22.1883 56.5042C22.1449 56.1336 21.9356 55.8307 21.5606 55.5957C21.182 55.3585 20.8372 55.2875 20.526 55.3827C20.217 55.4744 19.9243 55.7408 19.648 56.1818L19.1877 56.9163L21.4485 58.3331ZM22.525 53.9293C23.3446 54.4429 23.8104 55.0927 23.9224 55.8787C24.0366 56.6613 23.7977 57.5249 23.2058 58.4695L22.7716 59.1623L25.4804 60.8598L24.4684 62.4747L16.8525 57.702L18.377 55.2693C18.9559 54.3456 19.5952 53.7692 20.2949 53.5402C20.9933 53.3056 21.7367 53.4353 22.525 53.9293Z" fill="white"/>
<path d="M23.3651 64.2354L22.3694 65.8243L18.9678 63.6926C18.1274 63.1659 17.5113 63.2151 17.1196 63.8402C16.841 64.2847 16.7908 64.7006 16.9689 65.0879C17.1469 65.4752 17.5746 65.8811 18.2518 66.3054L20.9918 68.0225L19.9962 69.6114L11.8906 64.5319L12.8863 62.943L14.5376 63.9779C14.6661 64.0584 14.9606 64.2599 15.4212 64.5824L15.8671 64.9126L15.9194 64.8293C15.5718 64.1181 15.6396 63.3771 16.1227 62.6061C16.5515 61.922 17.0609 61.5181 17.651 61.3946C18.2411 61.2711 18.88 61.4247 19.5676 61.8557L23.3651 64.2354Z" fill="white"/>
<path d="M12.6541 74.1373C11.1469 73.1928 10.2243 72.1721 9.88632 71.0752C9.55052 69.9748 9.78089 68.7891 10.5774 67.5181C10.8495 67.084 11.0888 66.76 11.2954 66.546L12.5821 67.3523C12.3189 67.6179 12.0927 67.9017 11.9033 68.2039C11.5573 68.7561 11.3577 69.2598 11.3046 69.715C11.2537 70.1667 11.337 70.5817 11.5547 70.9599C11.7723 71.3381 12.1717 71.7311 12.7529 72.1389L12.7954 72.0711C12.4204 71.3574 12.4702 70.6219 12.9446 69.8649C13.3712 69.1842 13.9188 68.785 14.5875 68.6672C15.2563 68.5494 15.9674 68.7266 16.721 69.1989C17.5337 69.7081 18.0342 70.341 18.2227 71.0976C18.4078 71.852 18.2457 72.6355 17.7364 73.4481C17.3838 74.0107 16.9457 74.4205 16.4219 74.6775C15.9003 74.931 15.3176 75.0157 14.6739 74.9315C14.0323 74.8438 13.3591 74.5791 12.6541 74.1373ZM16.4301 72.6731C16.6456 72.3293 16.6964 71.9935 16.5825 71.6658C16.4652 71.3359 16.193 71.0372 15.7658 70.7695C15.3942 70.5366 15.0481 70.4406 14.7274 70.4815C14.4055 70.5167 14.1357 70.708 13.9181 71.0553C13.7135 71.3817 13.6442 71.7277 13.7102 72.0931C13.7784 72.4551 13.9532 72.7242 14.2345 72.9005C14.6478 73.1594 15.0642 73.2705 15.4839 73.2336C15.9058 73.1933 16.2212 73.0064 16.4301 72.6731Z" fill="white"/>
<path d="M11.0537 74.179C12.554 75.1192 13.4759 76.1371 13.8195 77.2327C14.1632 78.3283 13.9335 79.5168 13.1304 80.7983C12.8475 81.2497 12.6088 81.5766 12.4144 81.7788L11.1225 80.9692C11.3782 80.7232 11.6062 80.4404 11.8064 80.1209C12.1437 79.5826 12.3431 79.0909 12.4044 78.6457C12.4623 78.1983 12.3805 77.777 12.159 77.3818C11.934 76.9845 11.5333 76.5859 10.9568 76.1859L10.9177 76.2485C11.1179 76.6545 11.2013 77.0308 11.1678 77.3774C11.1344 77.724 10.9936 78.0953 10.7455 78.4912C10.3299 79.1545 9.7905 79.5444 9.12742 79.6609C8.46087 79.7752 7.74906 79.5952 6.99199 79.1207C6.17588 78.6093 5.67639 77.9747 5.49354 77.2168C5.30939 76.4533 5.46759 75.6722 5.96814 74.8734C6.3207 74.3108 6.76061 73.9021 7.28788 73.6473C7.81732 73.389 8.40455 73.3048 9.04957 73.3946C9.69112 73.4823 10.3592 73.7437 11.0537 74.179ZM7.27961 75.6518C7.07069 75.9851 7.02207 76.3174 7.13375 76.6486C7.24544 76.9798 7.51659 77.2803 7.94722 77.5501C8.31534 77.7808 8.66038 77.8785 8.98233 77.8433C9.30428 77.8081 9.57407 77.6168 9.7917 77.2695C9.99628 76.9431 10.0655 76.5971 9.99952 76.2317C9.93002 75.8641 9.75635 75.5932 9.47853 75.4191C9.06527 75.1602 8.64769 75.0508 8.22582 75.0912C7.80611 75.128 7.49071 75.3149 7.27961 75.6518Z" fill="white"/>
<path d="M7.2344 80.2739C8.73465 81.214 9.65659 82.2319 10.0002 83.3275C10.3438 84.4231 10.1141 85.6116 9.31106 86.8931C9.02814 87.3446 8.78946 87.6714 8.59503 87.8736L7.30315 87.064C7.55888 86.818 7.78686 86.5353 7.98708 86.2158C8.32441 85.6775 8.52375 85.1857 8.58511 84.7405C8.64299 84.2931 8.56117 83.8719 8.33965 83.4767C8.11466 83.0794 7.71394 82.6807 7.1375 82.2808L7.09833 82.3433C7.29855 82.7493 7.38194 83.1256 7.34851 83.4722C7.31508 83.8189 7.17431 84.1901 6.92621 84.5861C6.51054 85.2494 5.97116 85.6393 5.30808 85.7558C4.64153 85.8701 3.92972 85.69 3.17265 85.2156C2.35654 84.7042 1.85706 84.0695 1.6742 83.3117C1.49005 82.5481 1.64825 81.767 2.1488 80.9683C2.50136 80.4057 2.94128 79.997 3.46854 79.7422C3.99799 79.4839 4.58522 79.3996 5.23024 79.4895C5.87178 79.5771 6.53983 79.8386 7.2344 80.2739ZM3.46028 81.7466C3.25135 82.08 3.20273 82.4123 3.31442 82.7434C3.4261 83.0746 3.69726 83.3751 4.12789 83.645C4.496 83.8757 4.84104 83.9734 5.16299 83.9382C5.48495 83.9029 5.75474 83.7117 5.97237 83.3644C6.17694 83.0379 6.24621 82.692 6.18018 82.3266C6.11068 81.959 5.93702 81.6881 5.65919 81.514C5.24593 81.255 4.82836 81.1457 4.40648 81.186C3.98678 81.2229 3.67138 81.4097 3.46028 81.7466Z" fill="white"/>
<defs>
<linearGradient id="paint0_linear_663_322" x1="207.999" y1="58.4999" x2="162.499" y2="92.4999" gradientUnits="userSpaceOnUse">
<stop offset="0.559238" stop-color="#E87E01"/>
<stop offset="1" stop-color="#824701"/>
</linearGradient>
<linearGradient id="paint1_linear_663_322" x1="95.6201" y1="19.9999" x2="113" y2="80.9999" gradientUnits="userSpaceOnUse">
<stop stop-color="#2FB717"/>
<stop offset="1" stop-color="#15510A"/>
</linearGradient>
<linearGradient id="paint2_linear_663_322" x1="49.9994" y1="49.9999" x2="82.9994" y2="87.4999" gradientUnits="userSpaceOnUse">
<stop stop-color="#1936CE"/>
<stop offset="1" stop-color="#0D1B68"/>
</linearGradient>
<linearGradient id="paint3_linear_663_322" x1="9.84504" y1="107.733" x2="60.4992" y2="111.5" gradientUnits="userSpaceOnUse">
<stop stop-color="#1EE4E4"/>
<stop offset="1" stop-color="#117E7E"/>
</linearGradient>
</defs>
</svg>
