<svg width="232" height="125" viewBox="0 0 232 125" fill="none" xmlns="http://www.w3.org/2000/svg">
<path d="M168.5 95L189.941 82.7651L207.624 72.6752C209.687 71.4976 210.388 68.8507 209.086 66.8633C200.315 53.4761 188.028 41.2745 174.483 32.6281C172.562 31.4015 170.032 32.0211 168.808 33.9443L167.5 36L158.5 51.5L146.5 73C155.145 78.1305 162.809 85.4557 168 94L168.5 95Z" fill="url(#paint0_linear_678_27)"/>
<path d="M85.0007 72.9999C93.5579 68.2887 106.55 65.0977 117.001 64.9315C117.001 64.9315 117.001 50.0202 117.001 40.4658C117.001 34.1187 117.001 25.4077 117.001 20.2745C117.001 17.9173 115.079 16.0092 112.725 16.122C95.9841 16.9242 78.2129 21.5108 64.0568 28.5952C61.9349 29.6571 61.2233 32.2959 62.4202 34.3448L72.621 51.8075L85.0007 72.9999Z" fill="url(#paint1_linear_678_27)"/>
<path d="M117 65C127.45 65.1661 137.943 68.2888 146.5 73L159 51.5L168.936 33.6985C170.076 31.655 169.35 29.0666 167.267 27.9999C153.453 20.9256 137.7 16.4178 121.278 15.6223C118.923 15.5083 117 17.4219 117 19.7791V40V65Z" fill="url(#paint2_linear_678_27)"/>
<path d="M62.7202 94.4257C67.9114 85.8815 77.2347 77.821 85.88 72.6905L73.5004 51.5L63.26 33.9712C62.0785 31.9488 59.4787 31.2601 57.4986 32.5114C43.7888 41.1757 30.2762 53.4699 21.3167 66.8457C19.9942 68.82 20.6961 71.4675 22.76 72.6453L40.4416 82.7348L62.0004 95.5L62.7202 94.4257Z" fill="url(#paint3_linear_678_27)"/>
<path d="M53.5107 124C53.6788 113.672 57.7333 102.957 62.5002 94.5L40.0002 81.9999L22.1894 71.6448C20.1555 70.4623 17.5403 71.1565 16.4598 73.2463C9.3389 87.0196 4.91167 103.387 4.12298 119.722C4.00929 122.077 5.92265 124 8.2802 124H28.7555H53.5107Z" fill="#70A0FF"/>
<path d="M168.5 94.9999C173.267 103.457 176.57 114.295 176.738 124.624H221.968C224.326 124.624 226.24 122.7 226.121 120.346C225.302 104.043 220.688 87.9388 213.527 74.2058C212.447 72.1343 209.858 71.4331 207.826 72.5872L189.5 82.9999L168.5 94.9999Z" fill="url(#paint4_linear_678_27)"/>
<path d="M35.5345 95.6844C35.4173 96.1019 35.2082 96.4412 34.9073 96.7024C34.6043 96.9629 34.2337 97.1298 33.7956 97.203C33.3553 97.2755 32.8696 97.2382 32.3385 97.0911C31.8118 96.9452 31.3801 96.7284 31.0433 96.4406C30.7066 96.1528 30.4778 95.8187 30.3571 95.4384C30.2363 95.0581 30.2351 94.6571 30.3536 94.2352C30.4452 93.9091 30.572 93.6665 30.7339 93.5074C30.8943 93.3456 31.0571 93.2337 31.2223 93.1717C31.3859 93.1069 31.5192 93.0582 31.6222 93.0258L31.6405 92.9606L29.1723 92.2769L29.3884 91.5071L36.0748 93.3593L35.866 94.1029L35.0955 93.8895L35.0698 93.9808C35.1454 94.0627 35.2381 94.1751 35.3481 94.3181C35.456 94.4604 35.5371 94.6434 35.5916 94.8671C35.6439 95.0902 35.6249 95.3626 35.5345 95.6844ZM34.8717 95.3883C34.9584 95.0796 34.9511 94.7963 34.8499 94.5386C34.7465 94.2803 34.5667 94.0559 34.3105 93.8654C34.0522 93.6743 33.7336 93.5263 33.3549 93.4214C32.9806 93.3177 32.6377 93.2814 32.3264 93.3123C32.0129 93.3426 31.7479 93.4426 31.5314 93.6123C31.3126 93.7814 31.1593 94.0225 31.0714 94.3356C30.9798 94.6618 30.9873 94.9568 31.0938 95.2207C31.1988 95.4818 31.3786 95.7062 31.6332 95.8939C31.8862 96.0788 32.189 96.2201 32.5416 96.3178C32.8986 96.4166 33.2382 96.4521 33.5603 96.4242C33.881 96.3935 34.1575 96.2943 34.3899 96.1267C34.6207 95.9563 34.7813 95.7101 34.8717 95.3883Z" fill="white"/>
<path d="M27.8167 97.1049L34.5031 98.9571L34.287 99.7268L27.6006 97.8746L27.8167 97.1049Z" fill="white"/>
<path d="M33.4236 103.201C33.2966 103.653 33.0774 104.02 32.7661 104.302C32.4553 104.581 32.0794 104.763 31.6382 104.847C31.1977 104.929 30.7184 104.898 30.2004 104.755C29.678 104.61 29.2486 104.389 28.9121 104.092C28.5762 103.793 28.3482 103.444 28.2279 103.045C28.1083 102.644 28.112 102.217 28.239 101.765C28.366 101.312 28.5849 100.947 28.8956 100.667C29.207 100.385 29.584 100.204 30.0267 100.123C30.47 100.039 30.9529 100.07 31.4753 100.214C31.9933 100.358 32.4192 100.579 32.7529 100.878C33.0872 101.174 33.3141 101.523 33.4337 101.924C33.554 102.323 33.5506 102.749 33.4236 103.201ZM32.7314 103.009C32.8279 102.666 32.8191 102.358 32.7051 102.088C32.5911 101.817 32.4054 101.589 32.148 101.403C31.8906 101.217 31.5943 101.077 31.2591 100.984C30.9239 100.891 30.5966 100.858 30.2772 100.884C29.9578 100.911 29.6778 101.01 29.437 101.183C29.1962 101.355 29.0276 101.613 28.9312 101.956C28.8347 102.3 28.8445 102.607 28.9607 102.879C29.0769 103.15 29.2648 103.379 29.5244 103.566C29.784 103.752 30.0813 103.892 30.4165 103.985C30.7517 104.078 31.0779 104.111 31.3951 104.084C31.7124 104.057 31.9903 103.957 32.2289 103.784C32.4674 103.611 32.635 103.353 32.7314 103.009Z" fill="white"/>
<path d="M27.8134 105.137L27.5862 105.945C27.3399 105.929 27.1118 105.956 26.9019 106.027C26.6926 106.095 26.5043 106.198 26.337 106.334C26.1681 106.468 26.0245 106.628 25.9061 106.816C25.7878 107.003 25.6975 107.208 25.6352 107.43C25.5216 107.834 25.521 108.229 25.6334 108.614C25.7465 108.997 25.9749 109.34 26.3189 109.644C26.6635 109.946 27.1253 110.177 27.7042 110.337C28.2832 110.498 28.7987 110.537 29.2507 110.456C29.7034 110.373 30.0778 110.197 30.374 109.927C30.6708 109.655 30.876 109.317 30.9895 108.913C31.0518 108.691 31.0812 108.47 31.0776 108.248C31.0741 108.027 31.036 107.816 30.9633 107.616C30.889 107.412 30.7802 107.227 30.6369 107.061C30.492 106.892 30.3109 106.752 30.0936 106.64L30.3208 105.831C30.6454 105.987 30.92 106.182 31.1448 106.418C31.3695 106.654 31.5429 106.917 31.6651 107.209C31.7851 107.5 31.8523 107.808 31.8666 108.133C31.8815 108.456 31.8416 108.786 31.747 109.123C31.587 109.693 31.3054 110.161 30.9023 110.527C30.4991 110.893 30.005 111.133 29.4199 111.245C28.8348 111.357 28.1896 111.315 27.4844 111.12C26.7792 110.925 26.2055 110.629 25.7633 110.232C25.321 109.835 25.0229 109.376 24.8689 108.856C24.7148 108.335 24.7178 107.79 24.8778 107.22C24.9724 106.883 25.1102 106.58 25.2912 106.312C25.4728 106.041 25.6919 105.812 25.9484 105.625C26.2027 105.438 26.4874 105.301 26.8025 105.215C27.1154 105.128 27.4524 105.102 27.8134 105.137Z" fill="white"/>
<path d="M73.0363 60.838C72.6929 61.2032 72.3155 61.4431 71.9041 61.5575C71.4927 61.6687 71.0731 61.6599 70.6454 61.5312C70.2176 61.3993 69.8084 61.1521 69.4176 60.7896C69.0268 60.4271 68.749 60.0368 68.584 59.6189C68.4189 59.1977 68.3726 58.782 68.4452 58.3718C68.5176 57.9585 68.7148 57.5807 69.0366 57.2384C69.2222 57.041 69.4387 56.8767 69.6859 56.7457C69.9331 56.6146 70.2055 56.5392 70.5031 56.5195C70.799 56.4982 71.1127 56.5536 71.4443 56.6856C71.7759 56.8176 72.1197 57.0487 72.4757 57.379L72.724 57.6094L69.9764 60.5316L69.4697 60.0616L71.6604 57.7317C71.4451 57.532 71.2128 57.3966 70.9635 57.3255C70.7157 57.2527 70.4695 57.2492 70.2248 57.3149C69.9817 57.3789 69.7611 57.5163 69.5631 57.7269C69.345 57.9589 69.2142 58.2134 69.1707 58.4904C69.1272 58.7642 69.1547 59.0316 69.2534 59.2926C69.3521 59.5536 69.5066 59.7816 69.7169 59.9767L70.0547 60.2901C70.3428 60.5573 70.6334 60.7345 70.9266 60.8216C71.2197 60.9056 71.5019 60.9071 71.7733 60.8262C72.0431 60.7437 72.2886 60.5848 72.5098 60.3495C72.6537 60.1965 72.7621 60.0383 72.8351 59.875C72.908 59.7084 72.9431 59.5392 72.9404 59.3673C72.9361 59.1939 72.8909 59.021 72.8048 58.8488L73.4929 58.4335C73.6293 58.6709 73.7046 58.9271 73.7188 59.2022C73.7313 59.4757 73.6815 59.7529 73.5692 60.0338C73.4553 60.3132 73.2777 60.5813 73.0363 60.838Z" fill="white"/>
<path d="M70.4288 66.4596C70.1643 66.741 69.9004 66.9491 69.6373 67.0839C69.3758 67.2202 69.1228 67.3013 68.8784 67.3272C68.6372 67.3529 68.4132 67.3439 68.2065 67.3L68.3149 66.5318C68.434 66.5437 68.5761 66.5508 68.7413 66.5531C68.9082 66.557 69.0905 66.5197 69.2882 66.4413C69.4892 66.3627 69.6972 66.2091 69.9122 65.9804C70.2 65.6743 70.3629 65.3526 70.4011 65.0153C70.4393 64.678 70.2994 64.3619 69.9815 64.0669L69.2066 63.3481L69.1602 63.3975C69.1895 63.5047 69.2184 63.6455 69.2468 63.8197C69.2751 63.9907 69.2601 64.1863 69.2019 64.4065C69.1436 64.6235 68.9984 64.8554 68.7663 65.1022C68.4785 65.4083 68.1473 65.6155 67.7726 65.7238C67.3995 65.8305 67.0073 65.8256 66.5961 65.7091C66.1864 65.5909 65.7829 65.3475 65.3855 64.9788C64.9947 64.6163 64.7187 64.2324 64.5573 63.827C64.3943 63.4201 64.3478 63.0212 64.4178 62.6302C64.4862 62.2377 64.6705 61.8818 64.9706 61.5626C65.2027 61.3158 65.4282 61.1584 65.6471 61.0904C65.8659 61.0192 66.0638 60.9934 66.2409 61.0128C66.4178 61.029 66.5595 61.0465 66.6659 61.0652L66.7216 61.0059L66.1156 60.4437L66.6447 59.881L70.5689 63.5213C70.8968 63.8255 71.0937 64.1468 71.1598 64.4854C71.2291 64.8238 71.195 65.1618 71.0574 65.4993C70.923 65.8368 70.7135 66.1569 70.4288 66.4596ZM68.314 64.5348C68.5337 64.3011 68.6656 64.0538 68.7095 63.7927C68.7535 63.5316 68.714 63.2654 68.5909 62.9941C68.4678 62.7228 68.2655 62.4566 67.984 62.1954C67.7091 61.9405 67.4279 61.7566 67.1402 61.6438C66.8526 61.531 66.5734 61.4999 66.3025 61.5506C66.0317 61.6012 65.7849 61.745 65.5621 61.982C65.33 62.2288 65.1996 62.4928 65.1707 62.7741C65.1434 63.0537 65.197 63.333 65.3316 63.6119C65.4677 63.8891 65.6649 64.1475 65.9233 64.3871C66.1882 64.6329 66.4611 64.8091 66.7422 64.9158C67.0231 65.0192 67.2981 65.0433 67.5671 64.9879C67.8361 64.9293 68.0851 64.7783 68.314 64.5348Z" fill="white"/>
<path d="M64.9357 69.4727C64.7098 69.7129 64.4593 69.8887 64.1841 70C63.9073 70.1098 63.6278 70.1416 63.3456 70.0955C63.0618 70.0479 62.7957 69.9089 62.5473 69.6785C62.3288 69.4757 62.1918 69.2686 62.1365 69.0571C62.0795 68.844 62.0794 68.6298 62.1362 68.4145C62.193 68.1991 62.2836 67.9874 62.4079 67.7793C62.5322 67.568 62.6655 67.3636 62.8078 67.1661C62.9946 66.9081 63.1479 66.7006 63.2676 66.5436C63.3872 66.3834 63.4588 66.2528 63.4826 66.1516C63.508 66.0489 63.4735 65.9537 63.3791 65.8661L63.3592 65.8477C63.1142 65.6204 62.8611 65.5104 62.6 65.5177C62.3405 65.5234 62.0846 65.6603 61.8324 65.9285C61.571 66.2066 61.4272 66.4814 61.4012 66.7531C61.3753 67.0247 61.4016 67.2571 61.4804 67.4503L60.7619 67.8188C60.6229 67.5051 60.5662 67.206 60.5917 66.9217C60.6172 66.6341 60.6963 66.3687 60.8291 66.1252C60.9617 65.8786 61.1178 65.6599 61.2973 65.469C61.4117 65.3473 61.5582 65.2212 61.7365 65.0909C61.9147 64.9574 62.1181 64.8581 62.3468 64.793C62.577 64.7262 62.8287 64.7271 63.102 64.7958C63.3753 64.8645 63.6635 65.0394 63.9665 65.3205L66.48 67.6522L65.9323 68.2346L65.4157 67.7554L65.3879 67.785C65.4335 67.9013 65.4602 68.0493 65.468 68.229C65.4757 68.4087 65.4408 68.6058 65.3631 68.8202C65.2855 69.0347 65.143 69.2522 64.9357 69.4727ZM64.4927 68.8954C64.7093 68.665 64.8463 68.4286 64.9037 68.1862C64.9627 67.9421 64.9581 67.7129 64.8899 67.4987C64.8232 67.2828 64.7104 67.1011 64.5514 66.9536L64.0149 66.456C64.0215 66.5083 63.9978 66.5879 63.9437 66.6949C63.8895 66.7987 63.8205 66.9133 63.7366 67.0388C63.6526 67.1611 63.5693 67.2794 63.4866 67.3937C63.4038 67.5048 63.3372 67.5955 63.2867 67.6657C63.1642 67.8355 63.0634 68.007 62.9844 68.1801C62.9052 68.35 62.8716 68.516 62.8835 68.678C62.8954 68.8369 62.9758 68.9854 63.1248 69.1236C63.3285 69.3126 63.5529 69.3806 63.798 69.3276C64.043 69.2714 64.2745 69.1274 64.4927 68.8954Z" fill="white"/>
<path d="M61.3667 73.0913L57.5518 69.5523L58.0809 68.9896L58.6571 69.5241L58.6942 69.4846C58.5705 69.2404 58.5349 68.9733 58.5875 68.6832C58.6401 68.3932 58.7732 68.1346 58.9867 67.9076C59.0269 67.8648 59.078 67.8121 59.14 67.7494C59.202 67.6868 59.2501 67.6406 59.2844 67.6107L59.8805 68.1637C59.8569 68.1788 59.8069 68.2172 59.7305 68.2787C59.6539 68.3371 59.5793 68.4049 59.5066 68.4822C59.3333 68.6665 59.2175 68.8672 59.1592 69.0842C59.1007 69.298 59.0999 69.5098 59.1568 69.7197C59.2136 69.9264 59.3281 70.1096 59.5003 70.2693L61.9144 72.5088L61.3667 73.0913Z" fill="white"/>
<path d="M59.1369 75.6208C58.7935 75.9861 58.4161 76.2259 58.0047 76.3403C57.5932 76.4515 57.1737 76.4427 56.746 76.314C56.3182 76.1821 55.909 75.9349 55.5182 75.5724C55.1274 75.2099 54.8495 74.8197 54.6846 74.4017C54.5195 73.9805 54.4732 73.5649 54.5458 73.1547C54.6182 72.7413 54.8153 72.3635 55.1371 72.0213C55.3228 71.8238 55.5392 71.6596 55.7865 71.5285C56.0337 71.3974 56.3061 71.322 56.6037 71.3023C56.8996 71.281 57.2133 71.3364 57.5449 71.4684C57.8765 71.6004 58.2203 71.8315 58.5762 72.1618L58.8246 72.3922L56.077 75.3144L55.5703 74.8444L57.761 72.5145C57.5457 72.3148 57.3134 72.1794 57.0641 72.1083C56.8163 72.0356 56.5701 72.032 56.3254 72.0977C56.0823 72.1618 55.8617 72.2991 55.6637 72.5097C55.4455 72.7417 55.3148 72.9962 55.2713 73.2732C55.2277 73.547 55.2553 73.8144 55.354 74.0754C55.4527 74.3364 55.6072 74.5645 55.8175 74.7595L56.1553 75.0729C56.4434 75.3401 56.734 75.5173 57.0272 75.6045C57.3203 75.6884 57.6025 75.6899 57.8739 75.609C58.1437 75.5265 58.3891 75.3676 58.6104 75.1323C58.7543 74.9793 58.8627 74.8211 58.9357 74.6578C59.0086 74.4913 59.0437 74.3221 59.041 74.1502C59.0367 73.9767 58.9915 73.8039 58.9054 73.6316L59.5935 73.2164C59.7299 73.4538 59.8052 73.71 59.8194 73.985C59.8319 74.2585 59.7821 74.5357 59.6698 74.8167C59.5559 75.0961 59.3783 75.3641 59.1369 75.6208Z" fill="white"/>
<path d="M53.1522 74.2307L55.649 79.1715L55.092 79.7639L49.959 77.6268L50.5531 76.995L54.5771 78.7686L54.6142 78.7291L52.5581 74.8625L53.1522 74.2307Z" fill="white"/>
<path d="M50.3521 84.805L49.7487 85.4467L46.4072 78.8721L47.0013 78.2402L53.833 81.1028L53.2297 81.7445L47.5276 79.2829L47.4904 79.3224L50.3521 84.805ZM48.5879 82.7248L51.0199 80.1382L51.5664 80.6451L49.1343 83.2317L48.5879 82.7248Z" fill="white"/>
<path d="M58.7213 58.3869L53.8203 56.003L54.3958 55.3909L58.0871 57.281L58.1242 57.2415L55.9646 53.7225L56.5494 53.1005L60.2122 55.0011L60.2493 54.9616L58.1089 51.4419L58.6844 50.8298L61.4133 55.5239L60.8749 56.0965L57.1644 54.207L57.1087 54.2663L59.2597 57.8143L58.7213 58.3869Z" fill="white"/>
<path d="M55.6628 61.7975C55.341 62.1398 54.9767 62.364 54.5699 62.4703C54.1646 62.5749 53.7465 62.5629 53.3156 62.4343C52.8863 62.304 52.4746 62.0561 52.0805 61.6906C51.6831 61.3219 51.4035 60.9285 51.2418 60.5104C51.0815 60.0907 51.0401 59.6765 51.1175 59.2677C51.1965 58.8573 51.3969 58.481 51.7187 58.1388C52.0405 57.7965 52.404 57.5731 52.8093 57.4685C53.2161 57.3622 53.635 57.375 54.066 57.5067C54.4985 57.6369 54.9135 57.8863 55.3109 58.2549C55.705 58.6205 55.9813 59.0124 56.1399 59.4306C56.3 59.8471 56.3406 60.2606 56.2616 60.671C56.1842 61.0798 55.9846 61.4553 55.6628 61.7975ZM55.1362 61.3091C55.3807 61.0491 55.5147 60.773 55.5384 60.4807C55.5621 60.1885 55.5026 59.9007 55.3598 59.6173C55.2171 59.3339 55.0182 59.0739 54.7632 58.8374C54.5082 58.6009 54.2327 58.4208 53.9367 58.2971C53.6406 58.1734 53.3458 58.1325 53.0523 58.1744C52.7587 58.2163 52.4897 58.3672 52.2452 58.6272C52.0008 58.8872 51.8676 59.1641 51.8455 59.4578C51.8235 59.7516 51.8847 60.041 52.0291 60.3259C52.1735 60.6108 52.3732 60.8715 52.6282 61.1081C52.8832 61.3446 53.1579 61.524 53.4522 61.6461C53.7466 61.7682 54.0398 61.8076 54.3317 61.7641C54.6236 61.7207 54.8918 61.569 55.1362 61.3091Z" fill="white"/>
<path d="M48.0457 59.6121L53.1323 64.3307L52.5846 64.9132L47.498 60.1946L48.0457 59.6121Z" fill="white"/>
<path d="M50.3547 67.4427C50.0112 67.808 49.6338 68.0478 49.2225 68.1622C48.811 68.2734 48.3915 68.2647 47.9638 68.1359C47.536 68.004 47.1267 67.7568 46.736 67.3943C46.3452 67.0319 46.0673 66.6416 45.9023 66.2236C45.7372 65.8025 45.691 65.3868 45.7635 64.9766C45.836 64.5633 46.0331 64.1855 46.3549 63.8432C46.5406 63.6458 46.757 63.4815 47.0043 63.3504C47.2515 63.2193 47.5239 63.144 47.8214 63.1242C48.1173 63.103 48.4311 63.1584 48.7626 63.2904C49.0942 63.4224 49.438 63.6535 49.794 63.9837L50.0424 64.2141L47.2947 67.1364L46.7881 66.6664L48.9788 64.3365C48.7635 64.1368 48.5312 64.0014 48.2819 63.9303C48.0341 63.8575 47.7878 63.854 47.5432 63.9197C47.3001 63.9837 47.0795 64.121 46.8815 64.3317C46.6633 64.5637 46.5325 64.8182 46.4891 65.0952C46.4455 65.369 46.4731 65.6364 46.5718 65.8974C46.6705 66.1584 46.825 66.3864 47.0353 66.5815L47.3731 66.8948C47.6612 67.1621 47.9518 67.3393 48.245 67.4264C48.538 67.5104 48.8203 67.5119 49.0917 67.4309C49.3614 67.3485 49.6069 67.1896 49.8282 66.9543C49.972 66.8013 50.0805 66.6431 50.1535 66.4797C50.2263 66.3132 50.2614 66.144 50.2588 65.9721C50.2544 65.7986 50.2093 65.6258 50.1232 65.4536L50.8113 65.0383C50.9476 65.2757 51.0229 65.5319 51.0371 65.8069C51.0497 66.0804 50.9998 66.3577 50.8876 66.6386C50.7737 66.918 50.596 67.186 50.3547 67.4427Z" fill="white"/>
<path d="M44.6051 73.3998L39.5186 68.6812L41.1801 66.9141C41.5112 66.5619 41.8456 66.3284 42.1831 66.2133C42.5191 66.0967 42.8423 66.0777 43.1528 66.1563C43.4617 66.2333 43.7403 66.3871 43.9886 66.6175C44.2072 66.8202 44.3513 67.0263 44.421 67.2357C44.4922 67.4435 44.5105 67.6483 44.4757 67.8502C44.4424 68.0504 44.3776 68.2413 44.2812 68.423L44.3309 68.4691C44.4862 68.3236 44.6871 68.2188 44.9334 68.1547C45.1797 68.0905 45.4451 68.0918 45.7296 68.1585C46.014 68.2252 46.2904 68.383 46.5586 68.6319C46.8136 68.8684 46.9888 69.1387 47.0842 69.4428C47.1795 69.7469 47.17 70.0785 47.0556 70.4376C46.9412 70.7966 46.6968 71.1752 46.3224 71.5734L44.6051 73.3998ZM44.6342 72.2809L45.776 71.0665C46.152 70.6667 46.341 70.3107 46.3432 69.9985C46.3452 69.6831 46.2345 69.4217 46.0109 69.2143C45.8387 69.0546 45.6388 68.9507 45.4111 68.9028C45.1817 68.8533 44.9474 68.8685 44.708 68.9483C44.467 69.0266 44.2428 69.176 44.0355 69.3965L42.8659 70.6404L44.6342 72.2809ZM42.3294 70.1428L43.3969 69.0074C43.5702 68.8231 43.69 68.6232 43.7564 68.4075C43.8243 68.1902 43.833 67.9765 43.7826 67.7664C43.7337 67.5546 43.6198 67.3658 43.441 67.1999C43.2174 66.9926 42.9551 66.894 42.6541 66.9043C42.3513 66.9131 42.0422 67.0853 41.7266 67.4209L40.6405 68.576L42.3294 70.1428Z" fill="white"/>
<path d="M106.985 31.4751L108.929 38.1354L108.161 38.3566L106.217 31.6963L106.985 31.4751Z" fill="white"/>
<path d="M104.5 39.5373C104.183 39.6285 103.878 39.6517 103.585 39.6068C103.291 39.5597 103.035 39.4442 102.817 39.2603C102.598 39.0742 102.441 38.8186 102.346 38.4934C102.263 38.2072 102.251 37.959 102.312 37.7487C102.373 37.5363 102.482 37.3519 102.642 37.1956C102.801 37.0394 102.987 36.9035 103.2 36.788C103.415 36.6698 103.634 36.562 103.858 36.4648C104.15 36.3383 104.388 36.2381 104.571 36.1642C104.756 36.0876 104.884 36.0118 104.956 35.937C105.031 35.8615 105.05 35.7619 105.014 35.6384L105.006 35.6123C104.913 35.2915 104.752 35.0674 104.524 34.9403C104.299 34.8125 104.009 34.7995 103.655 34.9014C103.289 35.007 103.024 35.17 102.863 35.3904C102.701 35.6108 102.605 35.8243 102.573 36.0308L101.768 35.9805C101.81 35.6395 101.914 35.3532 102.082 35.1216C102.251 34.8872 102.455 34.6992 102.694 34.5577C102.934 34.4133 103.18 34.3049 103.432 34.2324C103.592 34.1862 103.783 34.1526 104.002 34.1316C104.224 34.1079 104.449 34.1264 104.679 34.1873C104.91 34.2475 105.126 34.377 105.325 34.5758C105.524 34.7746 105.682 35.0724 105.797 35.4692L106.758 38.7603L105.99 38.9815L105.792 38.3051L105.753 38.3163C105.733 38.4397 105.68 38.5807 105.594 38.7393C105.509 38.8979 105.378 39.0496 105.201 39.1944C105.025 39.3392 104.791 39.4535 104.5 39.5373ZM104.416 38.8141C104.72 38.7266 104.959 38.5932 105.132 38.414C105.308 38.2341 105.421 38.0346 105.473 37.8154C105.526 37.5955 105.523 37.3815 105.462 37.1734L105.257 36.4709C105.236 36.5193 105.174 36.5757 105.073 36.6401C104.974 36.7017 104.856 36.765 104.719 36.8301C104.585 36.8924 104.452 36.9516 104.323 37.0077C104.195 37.061 104.091 37.1049 104.012 37.1395C103.82 37.223 103.646 37.319 103.489 37.4275C103.334 37.5333 103.22 37.6589 103.147 37.8044C103.076 37.9472 103.069 38.1161 103.126 38.3112C103.204 38.5779 103.361 38.7511 103.599 38.8308C103.838 38.9078 104.11 38.9022 104.416 38.8141Z" fill="white"/>
<path d="M95.0266 42.1378L93.5688 37.1426L94.3111 36.9289L94.5388 37.7094L94.604 37.6906C94.6303 37.394 94.7381 37.1385 94.9273 36.9242C95.1159 36.7077 95.3729 36.5526 95.6985 36.4589C96.0284 36.3639 96.3247 36.3597 96.5876 36.4462C96.852 36.5299 97.085 36.6873 97.2865 36.9183L97.3386 36.9033C97.3914 36.6085 97.5237 36.3483 97.7355 36.1228C97.9466 35.8951 98.2313 35.7297 98.5894 35.6266C99.0365 35.4979 99.443 35.5325 99.809 35.7303C100.174 35.926 100.443 36.3176 100.614 36.9051L101.59 40.2483L100.822 40.4695L99.8458 37.1263C99.7383 36.7577 99.5605 36.5234 99.3124 36.4232C99.0644 36.323 98.8036 36.3123 98.5302 36.3911C98.1786 36.4923 97.9372 36.6769 97.806 36.945C97.6742 37.2109 97.6555 37.5054 97.7498 37.8285L98.6989 41.0806L97.9176 41.3055L96.9191 37.8843C96.8362 37.6003 96.6772 37.3981 96.4421 37.2778C96.2064 37.1553 95.9431 37.1359 95.6523 37.2196C95.4526 37.2771 95.2814 37.3839 95.1388 37.5402C94.9984 37.6958 94.9025 37.8832 94.8512 38.1024C94.8014 38.3189 94.8123 38.5496 94.8838 38.7946L95.7949 41.9166L95.0266 42.1378Z" fill="white"/>
<path d="M91.6154 43.1198L90.1575 38.1246L90.8998 37.9109L91.12 38.6654L91.1721 38.6504C91.1911 38.377 91.2975 38.1289 91.4914 37.9063C91.6852 37.6836 91.9318 37.5291 92.2313 37.4429C92.2878 37.4267 92.3586 37.4074 92.4439 37.3852C92.5292 37.363 92.5942 37.3479 92.6388 37.3397L92.8666 38.1202C92.8387 38.1212 92.7761 38.1286 92.679 38.1425C92.5834 38.1536 92.4846 38.1738 92.3826 38.2031C92.1395 38.2731 91.9374 38.3866 91.7761 38.5434C91.6164 38.6975 91.5072 38.8794 91.4483 39.0891C91.3911 39.2959 91.3953 39.5121 91.4612 39.7376L92.3837 42.8986L91.6154 43.1198Z" fill="white"/>
<path d="M88.2076 44.2139C87.7562 44.3438 87.3288 44.3505 86.9254 44.234C86.5242 44.1168 86.1718 43.8928 85.8681 43.5619C85.5667 43.2303 85.3407 42.8065 85.1901 42.2905C85.0382 41.7702 85.0001 41.2888 85.0756 40.8463C85.1534 40.4033 85.3302 40.0257 85.6061 39.7136C85.8842 39.4008 86.249 39.1795 86.7004 39.0495C87.1519 38.9195 87.5782 38.9131 87.9794 39.0303C88.3828 39.1468 88.7355 39.372 89.0376 39.7057C89.3419 40.0388 89.5699 40.4655 89.7218 40.9859C89.8724 41.5019 89.9085 41.9803 89.8301 42.4212C89.7539 42.8615 89.5768 43.238 89.2987 43.5507C89.0227 43.8629 88.6591 44.0839 88.2076 44.2139ZM88.0064 43.5244C88.3493 43.4257 88.6059 43.2567 88.776 43.0173C88.9461 42.778 89.0426 42.4999 89.0654 42.1831C89.0882 41.8663 89.0509 41.5409 88.9535 41.207C88.856 40.8732 88.7121 40.5774 88.5216 40.3196C88.3311 40.0619 88.0992 39.876 87.8259 39.7619C87.5527 39.6479 87.2446 39.6402 86.9016 39.739C86.5587 39.8377 86.3025 40.0078 86.133 40.2493C85.9635 40.4908 85.8677 40.7711 85.8455 41.09C85.8233 41.409 85.8609 41.7354 85.9584 42.0693C86.0558 42.4032 86.1995 42.6979 86.3893 42.9535C86.5792 43.2091 86.8105 43.3928 87.0831 43.5047C87.3557 43.6166 87.6635 43.6231 88.0064 43.5244Z" fill="white"/>
<path d="M82.6903 38.4695L84.6341 45.1298L83.8528 45.3547L78.6934 41.1713L78.6283 41.1901L80.1545 46.4195L79.3471 46.6519L77.4033 39.9916L78.1847 39.7666L83.3608 43.9593L83.426 43.9406L81.896 38.6981L82.6903 38.4695Z" fill="white"/>
<path d="M151.918 55.7645C151.428 55.6606 151.028 55.4628 150.719 55.1711C150.413 54.8777 150.206 54.5152 150.098 54.0838C149.993 53.6506 149.997 53.1735 150.109 52.6525C150.222 52.1315 150.416 51.6925 150.692 51.3354C150.97 50.9765 151.305 50.7219 151.696 50.5715C152.089 50.4193 152.516 50.3919 152.975 50.4892C153.24 50.5454 153.493 50.645 153.732 50.7881C153.971 50.9311 154.176 51.1245 154.345 51.3681C154.514 51.6095 154.627 51.9058 154.683 52.257C154.739 52.6082 154.715 53.0211 154.613 53.4957L154.541 53.8268L150.617 52.9956L150.763 52.3201L153.892 52.9828C153.954 52.6958 153.952 52.4276 153.886 52.1781C153.822 51.929 153.699 51.7172 153.517 51.5425C153.337 51.3682 153.106 51.2512 152.823 51.1912C152.512 51.1253 152.226 51.1454 151.965 51.2517C151.706 51.3563 151.49 51.5183 151.315 51.7376C151.141 51.9569 151.023 52.2067 150.963 52.4871L150.866 52.9374C150.782 53.3215 150.778 53.6612 150.853 53.9564C150.931 54.2498 151.074 54.4914 151.282 54.681C151.491 54.8684 151.754 54.9956 152.07 55.0625C152.275 55.106 152.467 55.1166 152.645 55.0943C152.826 55.0703 152.99 55.0126 153.137 54.9214C153.284 54.8279 153.41 54.6999 153.514 54.5373L154.224 54.9093C154.089 55.1486 153.907 55.3454 153.677 55.4999C153.448 55.6522 153.183 55.7531 152.884 55.8028C152.585 55.8503 152.263 55.8375 151.918 55.7645Z" fill="white"/>
<path d="M145.739 56.4503C145.361 56.3703 145.047 56.2529 144.796 56.0982C144.545 55.9457 144.345 55.7719 144.198 55.5768C144.053 55.3844 143.946 55.1886 143.878 54.9896L144.596 54.6844C144.646 54.7921 144.713 54.917 144.795 55.0592C144.877 55.2035 145.003 55.3398 145.171 55.4678C145.342 55.5986 145.581 55.6965 145.888 55.7616C146.299 55.8486 146.659 55.8211 146.97 55.6791C147.28 55.537 147.481 55.2541 147.572 54.8302L147.796 53.7971L147.729 53.783C147.652 53.8636 147.545 53.9611 147.41 54.0755C147.277 54.1881 147.101 54.2766 146.881 54.3409C146.664 54.4035 146.39 54.3997 146.059 54.3295C145.648 54.2424 145.3 54.0671 145.015 53.8036C144.732 53.5405 144.535 53.2034 144.426 52.7923C144.318 52.3817 144.321 51.9114 144.436 51.3816C144.549 50.8607 144.738 50.4264 145.005 50.0789C145.273 49.7293 145.593 49.4831 145.965 49.3404C146.339 49.1956 146.74 49.1685 147.168 49.2593C147.5 49.3295 147.751 49.4404 147.921 49.592C148.095 49.7418 148.218 49.8972 148.292 50.0583C148.368 50.2176 148.426 50.3475 148.464 50.448L148.544 50.4649L148.718 49.6569L149.474 49.817L148.343 55.0489C148.249 55.486 148.072 55.8203 147.814 56.0519C147.558 56.2862 147.249 56.432 146.888 56.4894C146.528 56.5495 146.145 56.5364 145.739 56.4503ZM146.316 53.6499C146.63 53.7164 146.911 53.7008 147.158 53.6032C147.406 53.5056 147.615 53.334 147.786 53.0886C147.957 52.8431 148.083 52.5327 148.164 52.1575C148.243 51.791 148.258 51.4559 148.208 51.1521C148.158 50.8484 148.042 50.5941 147.86 50.3893C147.678 50.1845 147.428 50.0484 147.109 49.981C146.778 49.9108 146.484 49.9362 146.226 50.0571C145.971 50.1786 145.758 50.3689 145.587 50.628C145.417 50.8877 145.295 51.1897 145.221 51.5341C145.145 51.8873 145.132 52.2113 145.184 52.5063C145.239 52.7995 145.359 53.0465 145.544 53.2474C145.732 53.4465 145.989 53.5807 146.316 53.6499Z" fill="white"/>
<path d="M140.333 53.3244C140.01 53.256 139.73 53.1333 139.494 52.9562C139.258 52.7769 139.087 52.555 138.983 52.2904C138.878 52.0236 138.862 51.7247 138.934 51.3936C138.997 51.1022 139.105 50.8781 139.259 50.7214C139.414 50.5626 139.598 50.4516 139.813 50.3886C140.028 50.3255 140.256 50.2932 140.499 50.2915C140.745 50.2882 140.989 50.2961 141.233 50.3152C141.55 50.341 141.808 50.3644 142.004 50.3852C142.203 50.4043 142.353 50.3978 142.452 50.3658C142.554 50.3342 142.618 50.2555 142.645 50.1297L142.651 50.1032C142.722 49.7765 142.687 49.5036 142.547 49.2847C142.409 49.0662 142.161 48.9189 141.8 48.8426C141.427 48.7635 141.117 48.7832 140.869 48.9016C140.622 49.02 140.435 49.1628 140.309 49.33L139.624 48.9078C139.823 48.6269 140.052 48.4237 140.31 48.2983C140.571 48.1712 140.84 48.1012 141.118 48.0885C141.398 48.074 141.666 48.0939 141.923 48.1482C142.086 48.1828 142.27 48.2425 142.473 48.3272C142.68 48.4101 142.869 48.5322 143.042 48.6935C143.218 48.8553 143.345 49.0706 143.426 49.3393C143.507 49.608 143.503 49.9443 143.416 50.3483L142.692 53.6994L141.91 53.5337L142.058 52.845L142.019 52.8365C141.942 52.9357 141.828 53.0351 141.677 53.1347C141.526 53.2343 141.338 53.3065 141.114 53.3513C140.889 53.3961 140.629 53.3871 140.333 53.3244ZM140.604 52.6476C140.913 52.7132 141.187 52.7077 141.425 52.6312C141.666 52.5552 141.861 52.4326 142.011 52.2635C142.163 52.0948 142.262 51.9045 142.307 51.6926L142.462 50.9774C142.42 51.0101 142.339 51.0311 142.22 51.0403C142.102 51.0478 141.968 51.0483 141.817 51.0417C141.669 51.0333 141.524 51.0235 141.384 51.0121C141.245 50.999 141.133 50.9891 141.047 50.9823C140.838 50.9658 140.638 50.9686 140.449 50.9907C140.262 51.0112 140.102 51.0684 139.968 51.1625C139.837 51.2548 139.75 51.4003 139.707 51.599C139.649 51.8705 139.705 52.0971 139.876 52.2788C140.05 52.4587 140.292 52.5817 140.604 52.6476Z" fill="white"/>
<path d="M135.388 52.1523L136.488 47.0661L137.243 47.2262L137.077 47.9944L137.13 48.0056C137.278 47.7736 137.49 47.605 137.767 47.4997C138.043 47.3945 138.334 47.3741 138.639 47.4387C138.697 47.4509 138.768 47.4672 138.854 47.4877C138.94 47.5081 139.004 47.5253 139.047 47.539L138.876 48.3337C138.851 48.3215 138.792 48.2987 138.7 48.2653C138.61 48.2302 138.514 48.2017 138.41 48.1797C138.162 48.1273 137.93 48.1323 137.713 48.1949C137.499 48.2557 137.316 48.3647 137.164 48.5219C137.015 48.6773 136.916 48.8698 136.866 49.0994L136.171 52.318L135.388 52.1523Z" fill="white"/>
<path d="M132.068 51.5597C131.577 51.4558 131.177 51.258 130.868 50.9664C130.562 50.6729 130.355 50.3105 130.247 49.879C130.142 49.4458 130.146 48.9688 130.259 48.4478C130.371 47.9268 130.565 47.4877 130.841 47.1306C131.12 46.7718 131.454 46.5171 131.845 46.3667C132.238 46.2146 132.665 46.1872 133.125 46.2845C133.39 46.3407 133.642 46.4403 133.881 46.5833C134.121 46.7264 134.325 46.9197 134.494 47.1633C134.664 47.4047 134.777 47.701 134.832 48.0522C134.888 48.4034 134.865 48.8163 134.762 49.2909L134.691 49.6221L130.767 48.7909L130.913 48.1154L134.041 48.7781C134.103 48.4911 134.101 48.2228 134.035 47.9733C133.971 47.7243 133.848 47.5124 133.666 47.3377C133.487 47.1635 133.256 47.0464 132.973 46.9865C132.661 46.9205 132.375 46.9407 132.114 47.047C131.856 47.1516 131.639 47.3135 131.465 47.5328C131.29 47.7521 131.173 48.002 131.112 48.2823L131.015 48.7327C130.932 49.1168 130.928 49.4564 131.003 49.7516C131.08 50.0451 131.223 50.2866 131.432 50.4762C131.641 50.6636 131.903 50.7908 132.219 50.8577C132.425 50.9013 132.617 50.9119 132.795 50.8896C132.976 50.8656 133.139 50.8079 133.286 50.7166C133.433 50.6232 133.559 50.4952 133.664 50.3326L134.374 50.7046C134.239 50.9438 134.056 51.1407 133.827 51.2951C133.597 51.4474 133.333 51.5484 133.033 51.5981C132.734 51.6455 132.412 51.6328 132.068 51.5597Z" fill="white"/>
<path d="M130.205 45.7354L127.223 50.4229L126.428 50.2544L125.645 44.7694L126.493 44.9492L127.022 49.2999L127.075 49.3111L129.356 45.5557L130.205 45.7354Z" fill="white"/>
<path d="M119.659 48.8205L118.797 48.638L122.755 42.3843L123.603 42.564L124.63 49.8735L123.768 49.691L122.974 43.5526L122.921 43.5414L119.659 48.8205ZM120.549 46.2388L124.023 46.9746L123.865 47.7031L120.392 46.9673L120.549 46.2388Z" fill="white"/>
<path d="M150.439 43.1849C149.948 43.081 149.548 42.8832 149.239 42.5915C148.933 42.2981 148.726 41.9356 148.618 41.5042C148.513 41.071 148.517 40.5939 148.63 40.0729C148.742 39.5519 148.936 39.1129 149.212 38.7558C149.491 38.3969 149.826 38.1423 150.216 37.9919C150.61 37.8397 151.036 37.8123 151.496 37.9097C151.761 37.9658 152.013 38.0654 152.252 38.2085C152.492 38.3515 152.696 38.5449 152.865 38.7885C153.035 39.0299 153.148 39.3262 153.204 39.6774C153.259 40.0286 153.236 40.4415 153.133 40.9161L153.062 41.2472L149.138 40.416L149.284 39.7405L152.412 40.4032C152.474 40.1162 152.472 39.848 152.406 39.5985C152.342 39.3495 152.219 39.1376 152.037 38.9629C151.858 38.7886 151.627 38.6716 151.344 38.6117C151.032 38.5457 150.746 38.5658 150.485 38.6722C150.227 38.7767 150.01 38.9387 149.836 39.158C149.661 39.3773 149.544 39.6271 149.483 39.9075L149.386 40.3578C149.303 40.7419 149.299 41.0816 149.374 41.3768C149.451 41.6702 149.594 41.9118 149.803 42.1014C150.012 42.2888 150.274 42.416 150.59 42.4829C150.796 42.5264 150.988 42.537 151.166 42.5147C151.347 42.4907 151.51 42.4331 151.657 42.3418C151.804 42.2483 151.93 42.1203 152.035 41.9578L152.745 42.3297C152.61 42.569 152.427 42.7658 152.198 42.9203C151.968 43.0726 151.704 43.1736 151.404 43.2232C151.105 43.2707 150.783 43.2579 150.439 43.1849Z" fill="white"/>
<path d="M148.576 37.3606L145.594 42.048L144.799 41.8795L144.016 36.3946L144.864 36.5743L145.393 40.925L145.446 40.9363L147.728 37.1809L148.576 37.3606Z" fill="white"/>
<path d="M139.973 40.9681C139.513 40.8707 139.134 40.6761 138.834 40.384C138.537 40.0925 138.333 39.7296 138.224 39.2955C138.116 38.8618 138.12 38.3823 138.233 37.8569C138.348 37.3271 138.544 36.885 138.821 36.5305C139.101 36.1766 139.437 35.9268 139.829 35.7813C140.223 35.6362 140.65 35.6124 141.109 35.7097C141.569 35.8071 141.948 36.0015 142.245 36.2931C142.545 36.5851 142.748 36.949 142.855 37.3849C142.964 37.8212 142.961 38.3043 142.846 38.8341C142.733 39.3595 142.536 39.7981 142.257 40.1499C141.98 40.5021 141.644 40.7507 141.25 40.8958C140.858 41.0413 140.433 41.0654 139.973 40.9681ZM140.125 40.2661C140.474 40.34 140.78 40.3115 141.044 40.1804C141.308 40.0493 141.526 39.8496 141.697 39.5811C141.868 39.3126 141.991 39.0084 142.064 38.6685C142.138 38.3285 142.152 38.0002 142.107 37.6837C142.063 37.3672 141.947 37.0945 141.761 36.8658C141.575 36.637 141.307 36.4857 140.958 36.4117C140.609 36.3378 140.302 36.3674 140.037 36.5007C139.773 36.634 139.555 36.836 139.383 37.1066C139.211 37.3773 139.089 37.6826 139.015 38.0226C138.942 38.3626 138.928 38.6897 138.973 39.004C139.018 39.3184 139.134 39.5888 139.321 39.8154C139.508 40.0419 139.776 40.1921 140.125 40.2661Z" fill="white"/>
<path d="M132.237 39.2187L133.703 32.4371L134.485 32.6028L133.944 35.1061L134.011 35.1202C134.087 35.0441 134.191 34.9483 134.322 34.833C134.456 34.7159 134.631 34.6236 134.846 34.5562C135.065 34.487 135.34 34.4875 135.671 34.5577C136.1 34.6485 136.454 34.8356 136.735 35.119C137.016 35.4024 137.205 35.76 137.304 36.1918C137.402 36.6236 137.394 37.1066 137.278 37.6408C137.162 38.1794 136.969 38.6269 136.701 38.9832C136.432 39.3373 136.112 39.5881 135.741 39.7357C135.37 39.881 134.972 39.9087 134.548 39.8189C134.221 39.7496 133.971 39.6401 133.797 39.4903C133.625 39.3382 133.5 39.1814 133.424 39.0199C133.349 38.8562 133.292 38.7218 133.255 38.6169L133.162 38.5973L132.993 39.3788L132.237 39.2187ZM133.556 36.8385C133.473 37.2226 133.456 37.5734 133.505 37.8909C133.555 38.2061 133.67 38.4695 133.851 38.6809C134.032 38.8901 134.28 39.028 134.593 39.0944C134.92 39.1637 135.212 39.1354 135.468 39.0095C135.727 38.8819 135.943 38.683 136.117 38.4128C136.293 38.1409 136.421 37.8239 136.499 37.4619C136.576 37.1042 136.591 36.7702 136.542 36.4599C136.497 36.1477 136.381 35.8844 136.197 35.6698C136.015 35.4535 135.758 35.3102 135.426 35.24C135.108 35.1726 134.824 35.1966 134.572 35.3119C134.321 35.425 134.11 35.6133 133.937 35.8769C133.765 36.1382 133.638 36.4588 133.556 36.8385Z" fill="white"/>
<path d="M126.209 37.9417L125.347 37.7592L129.305 31.5055L130.153 31.6852L131.18 38.9948L130.318 38.8122L129.524 32.6739L129.471 32.6626L126.209 37.9417ZM127.099 35.3601L130.573 36.0958L130.415 36.8243L126.942 36.0886L127.099 35.3601Z" fill="white"/>
<path d="M172.06 74.2984C171.793 74.0199 171.599 73.7464 171.478 73.4777C171.356 73.2106 171.289 72.9551 171.277 72.7113C171.265 72.4706 171.287 72.249 171.343 72.0466L172.109 72.1981C172.09 72.3154 172.075 72.456 172.063 72.6197C172.05 72.7849 172.077 72.9679 172.144 73.1684C172.212 73.3722 172.354 73.5872 172.572 73.8136C172.863 74.1164 173.177 74.2965 173.514 74.3536C173.85 74.4108 174.176 74.2902 174.491 73.9919L175.258 73.2646L175.211 73.2158C175.101 73.2387 174.958 73.2593 174.782 73.2775C174.608 73.2957 174.412 73.2697 174.194 73.1993C173.98 73.1291 173.755 72.9718 173.52 72.7276C173.229 72.4247 173.04 72.0844 172.952 71.7066C172.867 71.3305 172.894 70.9419 173.035 70.5408C173.177 70.1413 173.445 69.7551 173.838 69.3822C174.225 69.0155 174.627 68.7637 175.044 68.6269C175.462 68.4886 175.866 68.4653 176.255 68.5571C176.645 68.6474 176.992 68.8505 177.296 69.1664C177.531 69.4107 177.676 69.6433 177.732 69.8643C177.791 70.0853 177.805 70.2831 177.776 70.4575C177.749 70.632 177.723 70.7715 177.699 70.876L177.755 70.9346L178.355 70.3659L178.89 70.9228L175.006 74.6056C174.681 74.9133 174.347 75.0902 174.003 75.1363C173.659 75.1857 173.321 75.1324 172.989 74.9767C172.658 74.8241 172.348 74.598 172.06 74.2984ZM174.116 72.3116C174.339 72.5428 174.58 72.6877 174.84 72.7463C175.1 72.8048 175.369 72.7809 175.649 72.6743C175.929 72.5678 176.208 72.3825 176.487 72.1183C176.759 71.8603 176.96 71.592 177.09 71.3132C177.22 71.0344 177.267 70.7593 177.232 70.4879C177.196 70.2164 177.066 69.9634 176.84 69.7289C176.606 69.4847 176.348 69.3402 176.067 69.2955C175.787 69.2523 175.503 69.2895 175.215 69.407C174.929 69.5261 174.658 69.7069 174.402 69.9493C174.14 70.1979 173.947 70.4585 173.824 70.7311C173.704 71.0037 173.664 71.275 173.704 71.545C173.747 71.815 173.885 72.0706 174.116 72.3116Z" fill="white"/>
<path d="M171.058 65.766L168.786 67.9198L168.232 67.3433L172.008 63.7631L172.544 64.32L171.954 64.8794L172.001 64.9282C172.277 64.8344 172.559 64.8218 172.848 64.8906C173.138 64.9579 173.419 65.1331 173.692 65.4165C173.936 65.6705 174.097 65.9425 174.175 66.2325C174.255 66.5209 174.24 66.8182 174.13 67.1245C174.022 67.4293 173.808 67.7339 173.486 68.0385L171.087 70.3135L170.533 69.737L172.893 67.4994C173.19 67.2181 173.347 66.9225 173.366 66.6125C173.386 66.3009 173.267 66.0116 173.011 65.7445C172.834 65.5605 172.636 65.4341 172.416 65.3654C172.198 65.2982 171.972 65.2961 171.738 65.3592C171.504 65.4222 171.278 65.5578 171.058 65.766Z" fill="white"/>
<path d="M166.664 65.7111L170.44 62.1309L170.994 62.7073L167.218 66.2876L166.664 65.7111ZM171.351 61.8273C171.243 61.7149 171.188 61.5815 171.187 61.427C171.187 61.2742 171.242 61.1465 171.35 61.044C171.458 60.9414 171.589 60.8935 171.743 60.9003C171.898 60.9086 172.03 60.969 172.138 61.0814C172.246 61.1937 172.299 61.3263 172.299 61.4791C172.3 61.6336 172.247 61.7621 172.139 61.8647C172.03 61.9672 171.899 62.0143 171.743 62.0059C171.59 61.9992 171.459 61.9396 171.351 61.8273Z" fill="white"/>
<path d="M189.42 72.071L193.196 68.4907L193.731 69.0476L193.161 69.5884L193.198 69.6274C193.451 69.5187 193.721 69.4987 194.01 69.5675C194.298 69.6363 194.551 69.783 194.767 70.0078C194.807 70.0501 194.857 70.1038 194.917 70.1688C194.976 70.2339 195.02 70.2843 195.048 70.32L194.458 70.8794C194.444 70.8552 194.408 70.8034 194.351 70.724C194.297 70.6448 194.233 70.5669 194.159 70.4903C193.984 70.308 193.789 70.1817 193.574 70.1114C193.363 70.0412 193.15 70.0283 192.936 70.0727C192.725 70.1171 192.534 70.2202 192.363 70.3818L189.974 72.6474L189.42 72.071Z" fill="white"/>
<path d="M187.005 69.7152C186.658 69.3537 186.439 68.9657 186.347 68.5513C186.259 68.1369 186.292 67.7213 186.446 67.3046C186.603 66.888 186.875 66.4963 187.262 66.1296C187.649 65.7629 188.057 65.5097 188.486 65.37C188.919 65.2304 189.34 65.2083 189.748 65.3038C190.159 65.3993 190.528 65.6164 190.853 65.9551C191.041 66.1505 191.194 66.3745 191.311 66.6272C191.429 66.8799 191.489 67.1543 191.491 67.4505C191.496 67.7451 191.422 68.0531 191.27 68.3743C191.119 68.6955 190.867 69.0232 190.514 69.3573L190.268 69.5904L187.489 66.6984L187.99 66.2229L190.207 68.5287C190.42 68.3267 190.569 68.1041 190.655 67.8609C190.742 67.6194 190.76 67.3754 190.708 67.129C190.658 66.8843 190.532 66.6577 190.332 66.4493C190.111 66.2197 189.863 66.0754 189.587 66.0164C189.314 65.9576 189.044 65.9696 188.776 66.0525C188.508 66.1354 188.27 66.2756 188.062 66.4729L187.727 66.7899C187.442 67.0603 187.247 67.3384 187.143 67.6241C187.042 67.9099 187.024 68.1897 187.09 68.4634C187.157 68.7357 187.303 68.9882 187.527 69.221C187.672 69.3725 187.825 69.4891 187.985 69.5708C188.148 69.6526 188.316 69.6971 188.489 69.7043C188.664 69.7099 188.84 69.675 189.018 69.5996L189.396 70.3056C189.149 70.4273 188.888 70.4873 188.61 70.4856C188.335 70.4824 188.059 70.4171 187.783 70.2897C187.509 70.1607 187.249 69.9692 187.005 69.7152Z" fill="white"/>
<path d="M188.554 63.6606L188.062 64.1267L186.193 62.1825L186.685 61.7163L188.554 63.6606ZM188.134 61.4252L188.689 62.0016L185.089 65.4141C184.925 65.5695 184.825 65.7096 184.789 65.8345C184.755 65.9595 184.761 66.0727 184.805 66.174C184.852 66.2754 184.916 66.3684 184.998 66.4531C185.059 66.5166 185.112 66.5656 185.158 66.6001C185.205 66.6331 185.243 66.6594 185.272 66.6792L184.863 67.2906C184.811 67.2655 184.744 67.2249 184.661 67.1689C184.578 67.1144 184.484 67.0334 184.381 66.9259C184.224 66.7631 184.106 66.5701 184.027 66.347C183.948 66.1255 183.932 65.895 183.978 65.6557C184.025 65.418 184.158 65.195 184.378 64.9868L188.134 61.4252Z" fill="white"/>
<path d="M187.229 59.7797L182.194 64.5534L181.64 63.977L186.675 59.2033L187.229 59.7797Z" fill="white"/>
<path d="M179.226 61.6212C178.879 61.2597 178.659 60.8718 178.568 60.4573C178.48 60.0429 178.513 59.6274 178.667 59.2107C178.824 58.794 179.096 58.4023 179.482 58.0356C179.869 57.6689 180.277 57.4157 180.707 57.276C181.14 57.1364 181.56 57.1144 181.968 57.2098C182.38 57.3053 182.748 57.5224 183.074 57.8611C183.262 58.0565 183.414 58.2806 183.532 58.5333C183.649 58.7859 183.709 59.0604 183.712 59.3565C183.717 59.6512 183.643 59.9591 183.491 60.2803C183.339 60.6016 183.087 60.9293 182.735 61.2633L182.489 61.4964L179.71 58.6045L180.211 58.129L182.427 60.4347C182.64 60.2327 182.79 60.0101 182.876 59.7669C182.963 59.5254 182.981 59.2814 182.929 59.0351C182.878 58.7903 182.753 58.5637 182.553 58.3553C182.332 58.1257 182.084 57.9814 181.808 57.9225C181.535 57.8636 181.265 57.8756 180.997 57.9586C180.729 58.0415 180.49 58.1816 180.282 58.379L179.948 58.696C179.663 58.9664 179.468 59.2444 179.364 59.5301C179.262 59.8159 179.245 60.0957 179.31 60.3695C179.378 60.6417 179.523 60.8942 179.747 61.1271C179.893 61.2785 180.046 61.3951 180.206 61.4768C180.369 61.5586 180.537 61.6031 180.71 61.6103C180.884 61.616 181.061 61.5811 181.239 61.5056L181.617 62.2117C181.37 62.3333 181.108 62.3933 180.831 62.3916C180.555 62.3884 180.28 62.3231 180.004 62.1957C179.729 62.0667 179.47 61.8753 179.226 61.6212Z" fill="white"/>
<path d="M173.361 55.3627L176.038 50.6393L176.62 51.2451L174.509 54.7972L174.546 54.8362L178.207 52.8963L178.799 53.5118L176.678 57.035L176.716 57.0741L180.376 55.1532L180.959 55.7589L176.084 58.1961L175.539 57.6294L177.651 54.0582L177.595 53.9996L173.905 55.9294L173.361 55.3627Z" fill="white"/>
<path d="M174.809 49.3601C175.03 49.0946 175.109 48.7923 175.047 48.4534C174.984 48.1144 174.807 47.7935 174.516 47.4906C174.303 47.2692 174.081 47.1096 173.849 47.0118C173.619 46.9158 173.396 46.8811 173.181 46.908C172.967 46.9364 172.78 47.0268 172.619 47.1791C172.485 47.3065 172.4 47.4478 172.364 47.603C172.331 47.7583 172.332 47.9167 172.365 48.0782C172.4 48.2382 172.45 48.393 172.515 48.5426C172.582 48.6906 172.648 48.8227 172.713 48.9388L173.063 49.5774C173.154 49.7403 173.246 49.9303 173.339 50.1474C173.433 50.3661 173.498 50.5984 173.534 50.8444C173.573 51.0905 173.558 51.3385 173.488 51.5884C173.418 51.8383 173.265 52.0752 173.029 52.2989C172.757 52.5569 172.443 52.7192 172.087 52.7857C171.733 52.8539 171.361 52.8142 170.972 52.6667C170.584 52.5208 170.206 52.2556 169.836 51.8714C169.492 51.5131 169.252 51.1477 169.116 50.7753C168.982 50.4044 168.947 50.0454 169.012 49.6982C169.077 49.3527 169.239 49.0396 169.495 48.759L170.096 49.3843C169.922 49.5808 169.825 49.7935 169.807 50.0224C169.792 50.2513 169.837 50.4799 169.94 50.7084C170.047 50.937 170.196 51.1506 170.387 51.3492C170.609 51.5805 170.847 51.7523 171.099 51.8649C171.353 51.9758 171.599 52.0206 171.839 51.9991C172.08 51.976 172.292 51.8775 172.475 51.7034C172.643 51.5449 172.734 51.3695 172.75 51.1773C172.765 50.985 172.733 50.7821 172.653 50.5685C172.573 50.3549 172.473 50.1368 172.353 49.9143L171.939 49.131C171.676 48.633 171.54 48.1705 171.531 47.7437C171.522 47.3168 171.687 46.9425 172.026 46.6208C172.308 46.3536 172.627 46.1962 172.982 46.1487C173.34 46.1013 173.702 46.1511 174.065 46.2981C174.432 46.4451 174.769 46.6782 175.076 46.9974C175.385 47.3198 175.603 47.6615 175.727 48.0226C175.854 48.3822 175.887 48.73 175.828 49.0661C175.771 49.4039 175.619 49.6973 175.372 49.9463L174.809 49.3601Z" fill="white"/>
<path d="M186.713 110.1C186.61 109.727 186.569 109.394 186.591 109.1C186.611 108.807 186.673 108.55 186.778 108.329C186.882 108.111 187.007 107.926 187.152 107.774L187.753 108.27C187.681 108.365 187.601 108.482 187.513 108.621C187.422 108.76 187.359 108.934 187.323 109.143C187.286 109.354 187.309 109.612 187.393 109.914C187.505 110.319 187.695 110.626 187.964 110.836C188.233 111.046 188.577 111.094 188.995 110.98L190.015 110.701L189.997 110.636C189.89 110.604 189.754 110.555 189.59 110.487C189.429 110.421 189.269 110.306 189.111 110.14C188.955 109.977 188.833 109.732 188.742 109.405C188.63 109 188.626 108.611 188.728 108.236C188.831 107.864 189.04 107.534 189.354 107.247C189.669 106.962 190.088 106.748 190.611 106.606C191.125 106.465 191.598 106.433 192.029 106.51C192.463 106.586 192.829 106.756 193.127 107.022C193.427 107.286 193.636 107.629 193.753 108.052C193.843 108.378 193.86 108.652 193.804 108.873C193.751 109.096 193.67 109.278 193.561 109.417C193.455 109.559 193.366 109.67 193.295 109.75L193.316 109.828L194.114 109.611L194.32 110.355L189.156 111.765C188.725 111.882 188.347 111.88 188.022 111.758C187.696 111.639 187.425 111.432 187.207 111.138C186.989 110.846 186.824 110.5 186.713 110.1ZM189.464 109.321C189.55 109.63 189.693 109.872 189.893 110.046C190.094 110.221 190.343 110.327 190.639 110.366C190.936 110.404 191.269 110.373 191.639 110.272C192.001 110.173 192.305 110.032 192.552 109.847C192.798 109.663 192.971 109.443 193.069 109.187C193.166 108.93 193.172 108.646 193.085 108.332C192.995 108.006 192.837 107.756 192.611 107.584C192.386 107.413 192.119 107.312 191.81 107.279C191.501 107.249 191.177 107.28 190.837 107.373C190.489 107.468 190.195 107.606 189.957 107.788C189.722 107.972 189.558 108.192 189.465 108.449C189.375 108.708 189.375 108.998 189.464 109.321Z" fill="white"/>
<path d="M189.885 102.101L186.865 102.925L186.652 102.154L191.672 100.784L191.878 101.529L191.094 101.743L191.112 101.808C191.399 101.856 191.653 101.979 191.874 102.176C192.097 102.372 192.261 102.66 192.366 103.039C192.46 103.379 192.473 103.695 192.404 103.987C192.337 104.28 192.182 104.535 191.94 104.753C191.701 104.971 191.367 105.138 190.94 105.254L187.75 106.125L187.537 105.354L190.675 104.498C191.069 104.39 191.348 104.204 191.511 103.939C191.677 103.674 191.711 103.363 191.612 103.006C191.544 102.76 191.43 102.555 191.269 102.39C191.109 102.228 190.912 102.119 190.676 102.064C190.441 102.009 190.177 102.021 189.885 102.101Z" fill="white"/>
<path d="M186.048 99.9725L191.068 98.6024L191.281 99.3729L186.261 100.743L186.048 99.9725ZM192.013 98.7658C191.972 98.6156 191.987 98.4721 192.059 98.3353C192.132 98.2007 192.241 98.1138 192.384 98.0745C192.528 98.0353 192.666 98.055 192.798 98.1337C192.93 98.2146 193.017 98.3302 193.059 98.4804C193.101 98.6306 193.085 98.773 193.012 98.9076C192.94 99.0444 192.832 99.1324 192.688 99.1716C192.544 99.2109 192.406 99.1901 192.273 99.1092C192.141 99.0305 192.055 98.916 192.013 98.7658Z" fill="white"/>
<path d="M205.371 113.07L202.351 113.894L202.138 113.123L208.831 111.296L209.044 112.067L206.587 112.738L206.605 112.803C206.896 112.85 207.151 112.97 207.369 113.163C207.589 113.358 207.754 113.653 207.863 114.047C207.957 114.389 207.971 114.707 207.905 115.001C207.841 115.295 207.688 115.551 207.446 115.769C207.207 115.989 206.872 116.158 206.441 116.275L203.251 117.146L203.038 116.375L206.175 115.519C206.574 115.41 206.853 115.223 207.014 114.956C207.178 114.692 207.209 114.378 207.108 114.014C207.039 113.762 206.923 113.55 206.76 113.379C206.599 113.21 206.4 113.095 206.163 113.036C205.927 112.979 205.663 112.99 205.371 113.07Z" fill="white"/>
<path d="M201.176 110.053C201.046 109.583 201.045 109.148 201.173 108.748C201.302 108.347 201.536 108.003 201.875 107.713C202.214 107.424 202.635 107.211 203.136 107.074C203.646 106.935 204.121 106.906 204.563 106.987C205.008 107.069 205.387 107.249 205.7 107.526C206.016 107.805 206.237 108.171 206.362 108.624C206.46 108.976 206.483 109.312 206.43 109.631C206.378 109.949 206.259 110.231 206.074 110.476C205.888 110.721 205.645 110.908 205.343 111.037L205.13 110.266C205.342 110.145 205.509 109.959 205.629 109.709C205.753 109.46 205.767 109.165 205.673 108.826C205.59 108.525 205.439 108.283 205.219 108.1C205.003 107.918 204.735 107.802 204.417 107.753C204.102 107.706 203.754 107.734 203.375 107.838C202.987 107.943 202.666 108.097 202.413 108.297C202.159 108.5 201.984 108.735 201.887 109.002C201.791 109.272 201.785 109.559 201.869 109.864C201.924 110.064 202.01 110.237 202.124 110.381C202.239 110.525 202.378 110.636 202.54 110.713C202.702 110.791 202.881 110.829 203.077 110.827L203.291 111.597C202.982 111.634 202.685 111.6 202.4 111.492C202.118 111.387 201.868 111.213 201.651 110.97C201.437 110.729 201.279 110.423 201.176 110.053Z" fill="white"/>
<path d="M199.813 104.719L204.833 103.349L205.039 104.093L204.28 104.3L204.295 104.352C204.569 104.376 204.816 104.486 205.037 104.684C205.258 104.881 205.41 105.13 205.493 105.43C205.509 105.487 205.527 105.558 205.548 105.643C205.57 105.729 205.584 105.794 205.592 105.838L204.807 106.053C204.807 106.025 204.8 105.962 204.787 105.865C204.777 105.769 204.758 105.67 204.73 105.568C204.662 105.324 204.551 105.121 204.395 104.957C204.243 104.795 204.062 104.683 203.852 104.621C203.646 104.56 203.429 104.561 203.203 104.622L200.026 105.489L199.813 104.719Z" fill="white"/>
<path d="M198.753 101.299C198.628 100.846 198.626 100.419 198.747 100.019C198.869 99.6201 199.097 99.2722 199.432 98.9748C199.767 98.6795 200.194 98.4612 200.713 98.3196C201.236 98.1769 201.719 98.147 202.161 98.2299C202.604 98.315 202.98 98.4979 203.29 98.7786C203.6 99.0615 203.818 99.4293 203.943 99.8821C204.068 100.335 204.07 100.76 203.949 101.159C203.827 101.56 203.598 101.908 203.26 102.204C202.923 102.502 202.493 102.722 201.97 102.865C201.452 103.006 200.972 103.034 200.531 102.948C200.091 102.865 199.716 102.682 199.406 102.399C199.096 102.118 198.879 101.751 198.753 101.299ZM199.446 101.11C199.541 101.453 199.708 101.712 199.946 101.886C200.184 102.06 200.461 102.161 200.778 102.189C201.095 102.217 201.422 102.186 201.757 102.094C202.093 102.003 202.391 101.864 202.651 101.678C202.911 101.492 203.1 101.264 203.217 100.993C203.334 100.722 203.346 100.415 203.25 100.071C203.155 99.7273 202.988 99.4687 202.747 99.2954C202.507 99.1221 202.228 99.0217 201.908 98.9942C201.589 98.9666 201.262 98.9986 200.926 99.0902C200.591 99.1818 200.294 99.3201 200.036 99.5053C199.778 99.6905 199.591 99.9181 199.476 100.188C199.361 100.459 199.351 100.766 199.446 101.11Z" fill="white"/>
<path d="M197.332 96.1626C197.202 95.6924 197.201 95.2572 197.33 94.857C197.458 94.4568 197.692 94.112 198.031 93.8227C198.371 93.5334 198.791 93.3204 199.292 93.1836C199.802 93.0444 200.278 93.0152 200.72 93.096C201.164 93.1783 201.543 93.3582 201.857 93.6355C202.173 93.9144 202.393 94.2802 202.519 94.733C202.616 95.0856 202.639 95.4213 202.586 95.7399C202.534 96.0586 202.415 96.3404 202.23 96.5853C202.044 96.8302 201.801 97.0172 201.499 97.1464L201.286 96.3758C201.499 96.2546 201.665 96.0687 201.786 95.8181C201.909 95.569 201.923 95.2747 201.829 94.9352C201.746 94.6348 201.595 94.3928 201.376 94.2092C201.159 94.0273 200.891 93.9118 200.573 93.8629C200.258 93.8155 199.911 93.8436 199.531 93.947C199.144 94.0529 198.823 94.206 198.569 94.4064C198.316 94.609 198.14 94.8441 198.043 95.1117C197.947 95.3815 197.941 95.6688 198.025 95.9735C198.081 96.1738 198.166 96.346 198.281 96.4902C198.396 96.6345 198.534 96.7453 198.696 96.8228C198.858 96.9003 199.037 96.9381 199.234 96.936L199.447 97.7066C199.138 97.7439 198.842 97.709 198.557 97.6019C198.274 97.4963 198.025 97.3222 197.807 97.0794C197.593 96.8383 197.435 96.5327 197.332 96.1626Z" fill="white"/>
<path d="M201.312 90.6246C201.632 90.495 201.845 90.2659 201.951 89.9373C202.057 89.6088 202.054 89.242 201.942 88.8372C201.86 88.5411 201.741 88.2952 201.583 88.0993C201.427 87.9056 201.247 87.7696 201.045 87.6914C200.844 87.6153 200.636 87.6063 200.423 87.6646C200.244 87.7134 200.102 87.7978 199.997 87.9177C199.895 88.0393 199.82 88.1792 199.772 88.3373C199.727 88.4949 199.697 88.6551 199.684 88.818C199.672 88.9803 199.667 89.1279 199.669 89.2609L199.674 89.99C199.676 90.1766 199.667 90.3876 199.645 90.6229C199.624 90.8604 199.571 91.0962 199.486 91.3301C199.403 91.5657 199.272 91.7771 199.092 91.9644C198.912 92.1517 198.665 92.2882 198.351 92.3738C197.989 92.4725 197.636 92.467 197.292 92.3574C196.948 92.2498 196.64 92.0389 196.368 91.7246C196.097 91.4124 195.89 90.9994 195.748 90.4857C195.615 90.0068 195.578 89.571 195.636 89.1784C195.694 88.7879 195.834 88.4547 196.055 88.1789C196.277 87.9053 196.567 87.7055 196.926 87.5795L197.157 88.4154C196.911 88.5061 196.725 88.6481 196.6 88.8413C196.479 89.0361 196.409 89.2588 196.392 89.5093C196.377 89.7615 196.406 90.0203 196.48 90.2859C196.565 90.595 196.692 90.8589 196.861 91.0775C197.031 91.2955 197.227 91.4517 197.447 91.546C197.67 91.6397 197.903 91.6532 198.147 91.5866C198.37 91.526 198.533 91.4146 198.638 91.2524C198.743 91.0903 198.812 90.8961 198.843 90.6699C198.874 90.4437 198.89 90.2041 198.89 89.9512L198.898 89.0641C198.903 88.5007 199.004 88.0285 199.198 87.6476C199.393 87.2668 199.715 87.0148 200.167 86.8917C200.541 86.7894 200.896 86.8014 201.231 86.9277C201.569 87.0556 201.862 87.2704 202.112 87.5721C202.365 87.8754 202.55 88.2404 202.668 88.667C202.788 89.098 202.816 89.5022 202.754 89.8797C202.695 90.2565 202.559 90.5792 202.347 90.8476C202.136 91.1183 201.863 91.3051 201.529 91.4082L201.312 90.6246Z" fill="white"/>
<path d="M10.3736 61.3966C11.0312 61.7028 11.594 62.0282 12.062 62.3727C12.5318 62.7134 12.8941 63.081 13.1489 63.4755C13.4055 63.8662 13.5438 64.2877 13.5638 64.7401C13.5837 65.1924 13.4726 65.6786 13.2304 66.1988C12.9259 66.8527 12.5106 67.3126 11.9845 67.5785C11.4546 67.8426 10.8309 67.9297 10.1133 67.8397C9.39198 67.748 8.59476 67.4989 7.72164 67.0923C6.84109 66.6823 6.13111 66.241 5.59169 65.7683C5.05028 65.2902 4.70926 64.7652 4.56863 64.1934C4.42799 63.6216 4.51942 62.9883 4.84291 62.2935C5.14564 61.6433 5.56194 61.1862 6.09181 60.922C6.61969 60.6524 7.24515 60.5616 7.9682 60.6496C8.68753 60.7359 9.48933 60.9849 10.3736 61.3966ZM8.51826 65.3814C9.13873 65.6703 9.6726 65.8782 10.1199 66.005C10.5651 66.1265 10.9299 66.1539 11.214 66.0873C11.4982 66.0207 11.7078 65.8425 11.8427 65.5527C11.9759 65.2666 11.9784 64.9942 11.8502 64.7356C11.72 64.4715 11.4651 64.2082 11.0855 63.9456C10.7023 63.6812 10.1986 63.4038 9.57437 63.1131C8.9539 62.8242 8.41917 62.6182 7.97018 62.4951C7.52119 62.3719 7.15373 62.3455 6.86783 62.4158C6.57993 62.4807 6.36939 62.6562 6.23618 62.9422C6.10125 63.232 6.10161 63.508 6.23728 63.7701C6.36922 64.0304 6.62682 64.2928 7.01008 64.5571C7.39507 64.8177 7.89779 65.0925 8.51826 65.3814Z" fill="white"/>
<path d="M11.4272 69.7805L8.77527 75.4762L7.57706 74.9184L6.46176 71.9103C6.23022 71.3007 6.03122 70.8057 5.86475 70.4253C5.6963 70.0395 5.52099 69.7363 5.33882 69.5159C5.15837 69.2917 4.9344 69.1173 4.66689 68.9928C4.34365 68.8423 4.05977 68.8209 3.81524 68.9285C3.56873 69.0308 3.37541 69.2323 3.23529 69.5333C3.08825 69.8491 3.01798 70.1894 3.02449 70.554C3.03099 70.9187 3.09275 71.325 3.20976 71.7728L1.66478 72.1927C1.57313 71.8652 1.49868 71.5299 1.44144 71.1868C1.38592 70.84 1.38473 70.4687 1.43787 70.073C1.48902 69.6719 1.6279 69.2279 1.85452 68.7412C2.10362 68.2062 2.41387 67.7923 2.78525 67.4996C3.15836 67.2031 3.56054 67.0287 3.9918 66.9764C4.41935 66.9223 4.84304 66.993 5.26288 67.1884C5.71244 67.3977 6.08148 67.6781 6.36998 68.0294C6.65848 68.3807 6.90522 68.8121 7.11017 69.3234C7.31686 69.8311 7.52969 70.4274 7.74866 71.1126L8.24727 72.6196L8.32529 72.6559L9.97822 69.1059L11.4272 69.7805Z" fill="white"/>
<path d="M10.8137 57.3444C10.6977 57.5395 10.5446 57.7099 10.3631 57.846C10.1817 57.982 9.97545 58.081 9.75622 58.1373C9.537 58.1937 9.30906 58.2062 9.08542 58.1742C8.86179 58.1423 8.64684 58.0664 8.45284 57.951C8.25885 57.8356 8.08961 57.6829 7.95478 57.5017C7.81996 57.3204 7.72219 57.1141 7.66707 56.8946C7.61194 56.675 7.60053 56.4466 7.6335 56.2222C7.66647 55.9978 7.74315 55.7819 7.85919 55.5869C8.09354 55.1929 8.47393 54.9077 8.91667 54.7939C9.35942 54.6802 9.82826 54.7472 10.2201 54.9803C10.6118 55.2133 10.8945 55.5933 11.0058 56.0367C11.1172 56.4801 11.0481 56.9505 10.8137 57.3444ZM9.96956 56.8423C10.07 56.6734 10.0996 56.4718 10.0519 56.2818C10.0042 56.0918 9.88305 55.9289 9.71514 55.829C9.54723 55.7292 9.34629 55.7004 9.15655 55.7492C8.9668 55.7979 8.80377 55.9202 8.70334 56.089C8.60291 56.2579 8.57329 56.4595 8.621 56.6495C8.66871 56.8395 8.78985 57.0023 8.95776 57.1022C9.12567 57.2021 9.32661 57.2308 9.51635 57.1821C9.7061 57.1333 9.86913 57.0111 9.96956 56.8423ZM15.2317 49.9175L14.7268 50.7663C14.2791 50.5 13.7432 50.4234 13.2372 50.5534C12.7312 50.6834 12.2965 51.0093 12.0287 51.4596C11.7609 51.9098 11.6819 52.4474 11.8091 52.9541C11.9363 53.4608 12.2594 53.8951 12.7071 54.1615L14.8175 55.4169C15.2653 55.6832 15.8011 55.7598 16.3071 55.6298C16.8131 55.4998 17.2478 55.1739 17.5156 54.7236C17.7835 54.2734 17.8625 53.7358 17.7352 53.2291C17.608 52.7224 17.285 52.2881 16.8372 52.0217L17.3421 51.1729C18.0137 51.5725 18.4983 52.2239 18.6891 52.984C18.88 53.7441 18.7615 54.5504 18.3598 55.2258C17.9581 55.9011 17.306 56.3901 16.547 56.5851C15.7879 56.7801 14.9842 56.6652 14.3126 56.2657L12.2022 55.0103C11.5306 54.6107 11.046 53.9593 10.8552 53.1992C10.6643 52.4391 10.7828 51.6328 11.1845 50.9574C11.5863 50.2821 12.2384 49.7931 12.9974 49.5981C13.7564 49.4031 14.5601 49.518 15.2317 49.9175Z" fill="white"/>
<path d="M53.1496 21.4706C53.6201 21.1874 54.0919 21.0255 54.5649 20.9848C55.0414 20.9421 55.4896 21.0311 55.9095 21.252C56.3294 21.4728 56.6925 21.8379 56.9989 22.3471C57.3328 22.9019 57.5053 23.451 57.5165 23.9943C57.5292 24.532 57.3717 25.0452 57.0441 25.5342C56.72 26.021 56.219 26.4683 55.5413 26.8761C55.1374 27.1191 54.7353 27.3132 54.3349 27.4585C53.94 27.6052 53.5669 27.6886 53.2155 27.7088L52.3692 26.3024C52.7206 26.2822 53.112 26.2093 53.5434 26.0837C53.9762 25.9524 54.3577 25.7874 54.6878 25.5888C55.0108 25.3944 55.2576 25.1885 55.4282 24.9711C55.5966 24.7502 55.6831 24.5164 55.6877 24.2697C55.6937 24.0173 55.6122 23.7507 55.4431 23.4698C55.217 23.094 54.9173 22.8821 54.5441 22.8341C54.1708 22.7861 53.7225 22.9195 53.1993 23.2343C52.9991 23.3548 52.8018 23.4998 52.6073 23.6695C52.4163 23.837 52.2605 23.9834 52.1398 24.1087L51.2827 24.1509L49.211 20.0523L53.3881 17.5388L54.2186 18.9188L51.4689 20.5734L52.2364 22.1707C52.341 22.0743 52.4561 21.9715 52.5818 21.8624C52.7075 21.7533 52.8967 21.6227 53.1496 21.4706Z" fill="white"/>
<path d="M52.518 28.5521L47.1347 31.7914L46.4532 30.6589L47.2105 27.5414C47.3594 26.9065 47.4711 26.3849 47.5458 25.9764C47.6219 25.5623 47.6461 25.213 47.6183 24.9283C47.594 24.6416 47.5058 24.3718 47.3537 24.119C47.1699 23.8134 46.9465 23.637 46.6835 23.5895C46.422 23.5364 46.149 23.5954 45.8646 23.7666C45.5661 23.9462 45.3176 24.189 45.1191 24.495C44.9205 24.801 44.7446 25.1724 44.5912 25.609L43.0755 25.0933C43.1827 24.7706 43.3084 24.4509 43.4528 24.1345C43.6007 23.8159 43.8073 23.5074 44.0726 23.2091C44.3393 22.9051 44.7027 22.6147 45.1627 22.3379C45.6684 22.0336 46.157 21.8639 46.6286 21.8289C47.1037 21.7917 47.5346 21.872 47.9215 22.0697C48.3062 22.2639 48.6179 22.5594 48.8567 22.9563C49.1124 23.3812 49.2616 23.8199 49.3044 24.2725C49.3471 24.7251 49.3105 25.2207 49.1945 25.7592C49.082 26.2956 48.925 26.9091 48.7234 27.5996L48.2942 29.1278L48.3386 29.2015L51.6939 27.1825L52.518 28.5521Z" fill="white"/>
<path d="M58.5318 18.0825C58.3312 18.1887 58.1118 18.2546 57.8861 18.2764C57.6603 18.2982 57.4327 18.2755 57.2162 18.2095C56.9996 18.1436 56.7985 18.0357 56.6241 17.8921C56.4497 17.7484 56.3056 17.5718 56.2 17.3724C56.0943 17.1729 56.0292 16.9544 56.0084 16.7295C55.9875 16.5046 56.0114 16.2775 56.0785 16.0613C56.1456 15.8452 56.2547 15.6441 56.3996 15.4696C56.5445 15.2952 56.7223 15.1507 56.9229 15.0445C57.3279 14.8299 57.8012 14.7842 58.2385 14.9174C58.6758 15.0506 59.0413 15.3517 59.2547 15.7546C59.468 16.1574 59.5117 16.629 59.3762 17.0656C59.2406 17.5022 58.9369 17.8679 58.5318 18.0825ZM58.0721 17.2145C58.2457 17.1225 58.3759 16.9658 58.434 16.7787C58.4921 16.5916 58.4733 16.3895 58.3819 16.2168C58.2905 16.0442 58.1338 15.9151 57.9464 15.858C57.759 15.8009 57.5562 15.8205 57.3826 15.9125C57.209 16.0044 57.0788 16.1612 57.0207 16.3483C56.9626 16.5354 56.9813 16.7375 57.0727 16.9101C57.1642 17.0828 57.3209 17.2119 57.5083 17.2689C57.6957 17.326 57.8985 17.3064 58.0721 17.2145ZM66.1685 14.038L65.2958 14.5002C65.0519 14.0398 64.6342 13.6957 64.1344 13.5435C63.6346 13.3913 63.0938 13.4435 62.6308 13.6887C62.1679 13.9339 61.8208 14.3519 61.6658 14.8508C61.5109 15.3498 61.5608 15.8887 61.8047 16.3491L62.9539 18.5191C63.1978 18.9796 63.6155 19.3237 64.1153 19.4759C64.6151 19.6281 65.1559 19.5759 65.6189 19.3307C66.0818 19.0855 66.4289 18.6675 66.5838 18.1685C66.7388 17.6696 66.6889 17.1307 66.445 16.6702L67.3178 16.208C67.6835 16.8986 67.7585 17.7071 67.526 18.4555C67.2937 19.2039 66.773 19.8309 66.0786 20.1987C65.3841 20.5665 64.5729 20.6448 63.8232 20.4165C63.0735 20.1882 62.4469 19.672 62.0812 18.9814L60.9319 16.8114C60.5662 16.1207 60.4912 15.3123 60.7237 14.5639C60.956 13.8155 61.4767 13.1885 62.1711 12.8207C62.8656 12.4529 63.6768 12.3746 64.4265 12.6029C65.1762 12.8311 65.8028 13.3474 66.1685 14.038Z" fill="white"/>
<path d="M118.998 6.51298C119.003 7.23838 118.95 7.88629 118.839 8.45671C118.732 9.02711 118.555 9.51191 118.308 9.91111C118.064 10.3103 117.743 10.6157 117.342 10.8274C116.942 11.0391 116.455 11.1469 115.881 11.1507C115.16 11.1555 114.567 10.9771 114.101 10.6154C113.636 10.2496 113.29 9.72323 113.064 9.0362C112.838 8.34506 112.722 7.51794 112.715 6.55484C112.709 5.58355 112.804 4.75298 113 4.06313C113.2 3.36915 113.529 2.83621 113.985 2.4643C114.442 2.0924 115.053 1.90389 115.82 1.89879C116.537 1.89401 117.128 2.0745 117.594 2.44026C118.064 2.80189 118.413 3.32826 118.643 4.01937C118.873 4.70638 118.992 5.53758 118.998 6.51298ZM114.603 6.54227C114.607 7.22668 114.648 7.79815 114.725 8.25667C114.806 8.71106 114.937 9.0524 115.119 9.28071C115.301 9.50901 115.552 9.6221 115.871 9.61996C116.187 9.61786 116.434 9.50351 116.613 9.2769C116.796 9.04617 116.925 8.70308 116.999 8.24766C117.074 7.78813 117.109 7.21411 117.105 6.52559C117.1 5.84118 117.057 5.26973 116.976 4.81124C116.896 4.35275 116.762 4.00937 116.576 3.78109C116.394 3.54869 116.146 3.43354 115.83 3.43564C115.51 3.43777 115.261 3.55624 115.082 3.79105C114.904 4.02175 114.777 4.36687 114.702 4.8264C114.631 5.2859 114.598 5.85785 114.603 6.54227Z" fill="white"/>
<path d="M111.476 4.07944C111.479 4.49337 111.395 4.85254 111.225 5.15696C111.055 5.46138 110.823 5.71089 110.529 5.90547C110.239 6.10003 109.913 6.24361 109.548 6.3362L109.549 6.37308C110.271 6.45844 110.819 6.6761 111.194 7.02607C111.574 7.37601 111.765 7.84606 111.769 8.43621C111.773 8.96079 111.647 9.43091 111.391 9.84655C111.14 10.2622 110.749 10.5906 110.218 10.8319C109.686 11.0731 109.001 11.1965 108.161 11.2021C107.665 11.2054 107.201 11.1675 106.771 11.0884C106.344 11.0134 105.941 10.8952 105.563 10.7338L105.552 9.117C105.939 9.31115 106.344 9.45805 106.766 9.55769C107.189 9.65324 107.583 9.6998 107.948 9.69737C108.628 9.69283 109.103 9.57286 109.372 9.33746C109.645 9.09793 109.78 8.76505 109.777 8.33883C109.775 8.08883 109.71 7.8782 109.582 7.70691C109.454 7.53563 109.232 7.40596 108.916 7.3179C108.603 7.22982 108.167 7.18764 107.605 7.19138L106.923 7.19593L106.913 5.73899L107.608 5.73436C108.161 5.73067 108.581 5.67665 108.867 5.57228C109.157 5.46378 109.353 5.31903 109.454 5.13802C109.56 4.95289 109.612 4.74352 109.61 4.50992C109.608 4.19025 109.508 3.94091 109.31 3.7619C109.112 3.58288 108.784 3.49491 108.325 3.49797C108.038 3.49988 107.776 3.53851 107.538 3.61386C107.305 3.68509 107.095 3.77256 106.907 3.87627C106.719 3.97589 106.554 4.07331 106.411 4.16852L105.523 2.86498C105.874 2.60853 106.284 2.39473 106.754 2.22356C107.229 2.05236 107.794 1.96458 108.45 1.96021C109.376 1.95403 110.111 2.13562 110.654 2.50496C111.197 2.8743 111.471 3.39912 111.476 4.07944Z" fill="white"/>
<path d="M121.856 4.31432C121.63 4.30337 121.407 4.24812 121.202 4.15173C120.997 4.05534 120.813 3.91968 120.66 3.75251C120.507 3.58535 120.389 3.38994 120.313 3.17745C120.236 2.96496 120.202 2.73955 120.213 2.51409C120.224 2.28862 120.279 2.06753 120.376 1.86341C120.473 1.6593 120.609 1.47617 120.777 1.32449C120.945 1.1728 121.142 1.05552 121.355 0.979355C121.569 0.903188 121.796 0.869619 122.022 0.880565C122.48 0.902672 122.91 1.10476 123.219 1.44237C123.527 1.77997 123.688 2.22545 123.666 2.6808C123.644 3.13614 123.441 3.56405 123.101 3.8704C122.762 4.17674 122.314 4.33643 121.856 4.31432ZM121.904 3.33325C122.1 3.34272 122.292 3.27428 122.437 3.14299C122.583 3.01171 122.67 2.82831 122.679 2.63317C122.689 2.43802 122.62 2.2471 122.488 2.10241C122.355 1.95772 122.171 1.87111 121.975 1.86164C121.779 1.85216 121.587 1.9206 121.441 2.05189C121.296 2.18318 121.209 2.36657 121.199 2.56172C121.19 2.75686 121.259 2.94779 121.391 3.09247C121.523 3.23716 121.708 3.32377 121.904 3.33325ZM130.488 4.73109L129.502 4.68346C129.527 4.16306 129.343 3.65395 128.991 3.26811C128.638 2.88227 128.147 2.65132 127.623 2.62605C127.1 2.60079 126.588 2.78328 126.201 3.13339C125.813 3.4835 125.581 3.97254 125.556 4.49293L125.437 6.94562C125.412 7.46603 125.596 7.97513 125.948 8.36095C126.3 8.74681 126.792 8.97776 127.315 9.00302C127.839 9.02829 128.35 8.84581 128.738 8.49567C129.126 8.14559 129.358 7.65655 129.383 7.13614L130.37 7.18377C130.332 7.96436 129.984 8.69791 129.402 9.22307C128.821 9.74827 128.053 10.022 127.268 9.9841C126.483 9.9462 125.745 9.59978 125.217 9.02099C124.689 8.44224 124.413 7.67857 124.451 6.89799L124.569 4.4453C124.607 3.66471 124.955 2.93115 125.536 2.40599C126.118 1.88082 126.886 1.60708 127.671 1.64498C128.456 1.68288 129.193 2.02931 129.722 2.60807C130.25 3.18683 130.526 3.9505 130.488 4.73109Z" fill="white"/>
<path d="M220.476 67.3324C219.855 67.7072 219.271 67.9926 218.724 68.1887C218.179 68.3883 217.672 68.4838 217.202 68.4751C216.735 68.47 216.308 68.3495 215.921 68.1136C215.535 67.8777 215.193 67.5142 214.897 67.0229C214.524 66.4054 214.374 65.8041 214.447 65.2191C214.524 64.632 214.8 64.0659 215.275 63.5206C215.753 62.9733 216.405 62.4508 217.23 61.9532C218.061 61.4513 218.824 61.1085 219.517 60.9246C220.216 60.7422 220.842 60.7522 221.395 60.9546C221.948 61.1571 222.422 61.5864 222.818 62.2425C223.189 62.8566 223.336 63.4572 223.259 64.0443C223.188 64.6328 222.915 65.2024 222.438 65.7533C221.965 66.302 221.311 66.8284 220.476 67.3324ZM218.205 63.569C217.619 63.9227 217.148 64.2496 216.793 64.55C216.444 64.8517 216.218 65.139 216.115 65.412C216.011 65.685 216.042 65.9583 216.207 66.232C216.37 66.5022 216.595 66.6563 216.881 66.6942C217.173 66.7335 217.534 66.669 217.963 66.5006C218.397 66.3301 218.908 66.067 219.498 65.7112C220.084 65.3576 220.553 65.0289 220.906 64.725C221.258 64.4212 221.485 64.131 221.587 63.8545C221.693 63.5795 221.665 63.3068 221.502 63.0366C221.337 62.7629 221.108 62.6092 220.815 62.5755C220.525 62.5397 220.164 62.6071 219.73 62.7776C219.299 62.9516 218.791 63.2154 218.205 63.569Z" fill="white"/>
<path d="M214.63 62.7389L214.071 61.8126L212.477 62.775L211.517 61.1854L213.112 60.223L211.13 56.9386L212.262 56.2557L219.267 56.6311L220.172 58.1312L215.335 61.0502L215.894 61.9766L214.63 62.7389ZM214.375 59.4607L215.681 58.673C215.804 58.5988 215.95 58.5127 216.121 58.4146C216.293 58.32 216.466 58.2253 216.639 58.1307C216.811 58.0361 216.965 57.9531 217.099 57.8818C217.239 57.8118 217.336 57.7627 217.391 57.7345L217.365 57.6924C217.181 57.7125 216.998 57.727 216.817 57.7359C216.639 57.7427 216.447 57.7415 216.24 57.7321L213.257 57.608L214.375 59.4607Z" fill="white"/>
<path d="M223.443 68.3573C223.316 68.1693 223.227 67.9582 223.181 67.7361C223.135 67.514 223.134 67.2853 223.176 67.0629C223.218 66.8405 223.304 66.6289 223.428 66.4402C223.552 66.2514 223.712 66.0892 223.899 65.9628C224.086 65.8363 224.296 65.7482 224.518 65.7033C224.739 65.6585 224.968 65.6578 225.19 65.7013C225.412 65.7449 225.623 65.8318 225.812 65.9571C226.001 66.0825 226.164 66.2437 226.291 66.4318C226.548 66.8115 226.644 67.2771 226.559 67.7262C226.473 68.1752 226.213 68.571 225.835 68.8263C225.458 69.0816 224.994 69.1757 224.545 69.0877C224.096 68.9998 223.7 68.737 223.443 68.3573ZM224.257 67.8071C224.367 67.9699 224.537 68.0825 224.729 68.1202C224.921 68.1579 225.12 68.1176 225.282 68.0082C225.444 67.8987 225.556 67.7291 225.592 67.5367C225.629 67.3442 225.588 67.1447 225.478 66.9819C225.368 66.8192 225.198 66.7066 225.006 66.6689C224.813 66.6312 224.614 66.6715 224.452 66.7809C224.291 66.8904 224.179 67.06 224.142 67.2524C224.106 67.4449 224.147 67.6444 224.257 67.8071ZM228.284 75.5161L227.731 74.698C228.162 74.4062 228.459 73.9539 228.557 73.4407C228.655 72.9275 228.545 72.3954 228.252 71.9614C227.958 71.5274 227.505 71.2271 226.993 71.1266C226.48 71.0261 225.949 71.1336 225.518 71.4254L223.484 72.8008C223.052 73.0926 222.755 73.5448 222.657 74.0581C222.559 74.5713 222.669 75.1034 222.963 75.5374C223.256 75.9714 223.709 76.2716 224.222 76.3721C224.734 76.4727 225.265 76.3652 225.696 76.0734L226.249 76.8915C225.602 77.3293 224.806 77.4905 224.037 77.3397C223.268 77.1889 222.589 76.7385 222.149 76.0875C221.709 75.4366 221.544 74.6384 221.69 73.8686C221.837 73.0987 222.283 72.4203 222.93 71.9826L224.965 70.6072C225.612 70.1695 226.408 70.0083 227.177 70.1591C227.946 70.3099 228.625 70.7603 229.065 71.4112C229.505 72.0622 229.67 72.8604 229.524 73.6302C229.377 74.4 228.931 75.0784 228.284 75.5161Z" fill="white"/>
<path d="M177.407 19.8319C177.88 20.111 178.247 20.449 178.508 20.8456C178.772 21.2444 178.907 21.681 178.912 22.1554C178.918 22.6298 178.769 23.1229 178.467 23.6346C178.138 24.1923 177.737 24.6053 177.265 24.8736C176.798 25.1405 176.271 25.2462 175.686 25.1907C175.103 25.1372 174.471 24.9094 173.79 24.5073C173.384 24.2677 173.022 24.0064 172.704 23.7233C172.387 23.4458 172.136 23.1573 171.951 22.8578L172.786 21.4443C172.971 21.7438 173.221 22.0534 173.537 22.373C173.858 22.6913 174.185 22.9483 174.516 23.1441C174.841 23.3358 175.14 23.4549 175.412 23.5015C175.686 23.5445 175.933 23.5094 176.152 23.396C176.377 23.2813 176.573 23.0827 176.74 22.8004C176.963 22.4227 177.006 22.0583 176.871 21.7071C176.736 21.356 176.405 21.0251 175.879 20.7147C175.678 20.596 175.457 20.4914 175.215 20.4011C174.977 20.3128 174.774 20.2454 174.606 20.1988L174.161 19.465L176.781 15.6928L180.979 18.1711L180.16 19.5581L177.397 17.9268L176.357 19.3618C176.491 19.4079 176.636 19.4603 176.792 19.5189C176.948 19.5775 177.153 19.6819 177.407 19.8319Z" fill="white"/>
<path d="M174.123 16.4583C173.913 16.8148 173.657 17.0798 173.354 17.2535C173.052 17.4272 172.724 17.5219 172.372 17.5378C172.024 17.5558 171.67 17.5108 171.31 17.4031L171.291 17.4348C171.866 17.8792 172.225 18.3479 172.367 18.841C172.513 19.3362 172.435 19.8379 172.135 20.3461C171.869 20.7979 171.519 21.1363 171.086 21.3615C170.657 21.5888 170.152 21.6694 169.573 21.6033C168.993 21.5371 168.342 21.2905 167.618 20.8634C167.191 20.6113 166.813 20.3406 166.484 20.0512C166.157 19.7675 165.872 19.4592 165.631 19.1264L166.453 17.734C166.685 18.0993 166.956 18.4333 167.268 18.7362C167.581 19.0354 167.895 19.2778 168.209 19.4632C168.795 19.8091 169.264 19.9502 169.615 19.8865C169.973 19.8214 170.26 19.6053 170.476 19.2383C170.603 19.023 170.656 18.8089 170.634 18.5961C170.612 18.3833 170.488 18.1579 170.262 17.9198C170.04 17.6838 169.687 17.4231 169.203 17.1377L168.616 16.7908L169.356 15.5361L169.955 15.8892C170.431 16.1705 170.819 16.3399 171.118 16.3975C171.423 16.4537 171.665 16.4302 171.845 16.327C172.031 16.2223 172.183 16.0694 172.301 15.8683C172.464 15.593 172.506 15.3277 172.429 15.0724C172.351 14.8171 172.114 14.5728 171.719 14.3394C171.472 14.1936 171.227 14.092 170.985 14.0347C170.749 13.9759 170.523 13.9428 170.309 13.9352C170.096 13.924 169.904 13.9226 169.733 13.9308L169.642 12.3563C170.074 12.3167 170.536 12.3443 171.028 12.4392C171.522 12.5362 172.052 12.7513 172.617 13.0847C173.414 13.5555 173.951 14.0891 174.228 14.6852C174.504 15.2814 174.469 15.8724 174.123 16.4583Z" fill="white"/>
<path d="M182.252 22.7666C182.058 22.6485 181.889 22.4936 181.755 22.3106C181.621 22.1277 181.524 21.9205 181.47 21.7006C181.416 21.4808 181.406 21.2527 181.441 21.0295C181.475 20.8062 181.553 20.5921 181.671 20.3993C181.788 20.2066 181.943 20.039 182.125 19.9062C182.308 19.7733 182.515 19.6778 182.736 19.6251C182.956 19.5723 183.184 19.5634 183.408 19.5988C183.632 19.6342 183.847 19.7132 184.041 19.8314C184.433 20.07 184.714 20.4534 184.823 20.8974C184.932 21.3413 184.859 21.8094 184.622 22.1987C184.385 22.5879 184.002 22.8664 183.557 22.9729C183.113 23.0795 182.643 23.0053 182.252 22.7666ZM182.763 21.928C182.931 22.0303 183.132 22.0621 183.322 22.0164C183.513 21.9708 183.677 21.8514 183.779 21.6846C183.881 21.5178 183.911 21.3171 183.865 21.1269C183.818 20.9366 183.698 20.7723 183.53 20.67C183.362 20.5678 183.161 20.536 182.97 20.5816C182.78 20.6273 182.616 20.7466 182.514 20.9134C182.412 21.0803 182.381 21.2809 182.428 21.4711C182.475 21.6614 182.595 21.8257 182.763 21.928ZM189.63 27.2649L188.787 26.7509C189.058 26.306 189.141 25.7711 189.016 25.2637C188.891 24.7563 188.57 24.3181 188.123 24.0454C187.676 23.7727 187.139 23.6879 186.631 23.8096C186.123 23.9313 185.685 24.2496 185.414 24.6945L184.136 26.7911C183.864 27.236 183.782 27.7709 183.907 28.2783C184.031 28.7857 184.352 29.2239 184.8 29.4966C185.247 29.7693 185.784 29.8541 186.292 29.7324C186.8 29.6107 187.238 29.2923 187.509 28.8475L188.352 29.3616C187.945 30.0288 187.289 30.5063 186.526 30.6889C185.764 30.8715 184.959 30.7443 184.288 30.3353C183.617 29.9262 183.136 29.2689 182.949 28.5078C182.762 27.7467 182.886 26.9443 183.292 26.277L184.571 24.1804C184.977 23.5131 185.634 23.0357 186.396 22.8531C187.158 22.6705 187.963 22.7977 188.634 23.2067C189.305 23.6158 189.787 24.2731 189.974 25.0342C190.161 25.7953 190.037 26.5977 189.63 27.2649Z" fill="white"/>
<defs>
<linearGradient id="paint0_linear_678_27" x1="195" y1="41.5" x2="157.5" y2="85.5" gradientUnits="userSpaceOnUse">
<stop offset="0.453367" stop-color="#E55400"/>
<stop offset="1" stop-color="#7F2F00"/>
</linearGradient>
<linearGradient id="paint1_linear_678_27" x1="86.5007" y1="16" x2="101.001" y2="68" gradientUnits="userSpaceOnUse">
<stop offset="0.395944" stop-color="#21B954"/>
<stop offset="1" stop-color="#0F5326"/>
</linearGradient>
<linearGradient id="paint2_linear_678_27" x1="144" y1="15.5" x2="131" y2="66.5" gradientUnits="userSpaceOnUse">
<stop offset="0.414027" stop-color="#FCE800"/>
<stop offset="1" stop-color="#968A00"/>
</linearGradient>
<linearGradient id="paint3_linear_678_27" x1="45.0004" y1="58.5" x2="70.5004" y2="85.5" gradientUnits="userSpaceOnUse">
<stop stop-color="#1B49A4"/>
<stop offset="1" stop-color="#0A1C3E"/>
</linearGradient>
<linearGradient id="paint4_linear_678_27" x1="222" y1="93" x2="174.5" y2="111.5" gradientUnits="userSpaceOnUse">
<stop offset="0.29726" stop-color="#D1160B"/>
<stop offset="1" stop-color="#6B0B06"/>
</linearGradient>
</defs>
</svg>
