<svg width="229" height="128" viewBox="0 0 229 128" fill="none" xmlns="http://www.w3.org/2000/svg">
<path d="M166.5 97.9999L187.941 85.7651L205.624 75.6751C207.687 74.4975 208.388 71.8507 207.086 69.8633C198.315 56.4761 186.028 44.2745 172.483 35.628C170.562 34.4015 168.032 35.0211 166.808 36.9443L165.5 38.9999L156.5 54.4999L144.5 75.9999C153.145 81.1304 160.809 88.4557 166 96.9999L166.5 97.9999Z" fill="#E8633A"/>
<path d="M83.0007 75.9999C91.5579 71.2887 104.55 68.0976 115.001 67.9315C115.001 67.9315 115.001 53.0202 115.001 43.4657C115.001 37.1187 115.001 28.4077 115.001 23.2744C115.001 20.9172 113.079 19.0091 110.725 19.1219C93.9841 19.9241 76.2129 24.5108 62.0568 31.5952C59.9349 32.6571 59.2233 35.2959 60.4202 37.3447L70.621 54.8074L83.0007 75.9999Z" fill="#EAC737"/>
<path d="M115 67.9999C125.45 68.166 135.943 71.2887 144.5 75.9999L157 54.4999L166.936 36.6984C168.076 34.6549 167.35 32.0666 165.267 30.9999C151.453 23.9255 135.7 19.4178 119.278 18.6223C116.923 18.5082 115 20.4218 115 22.779V42.9999V67.9999Z" fill="#ED9B2E"/>
<path d="M60.7202 97.4257C65.9114 88.8815 75.2347 80.821 83.88 75.6905L71.5004 54.5L61.26 36.9712C60.0785 34.9488 57.4787 34.2601 55.4986 35.5114C41.7888 44.1757 28.2762 56.4699 19.3167 69.8457C17.9942 71.82 18.6961 74.4675 20.76 75.6453L38.4416 85.7348L60.0004 98.5L60.7202 97.4257Z" fill="#BBCF4C"/>
<path d="M51.5107 127C51.6788 116.672 55.7333 105.957 60.5002 97.4998L38.0002 84.9998L20.1894 74.6447C18.1555 73.4622 15.5403 74.1563 14.4598 76.2462C7.3389 90.0195 2.91167 106.387 2.12298 122.722C2.00929 125.077 3.92265 127 6.2802 127H26.7555H51.5107Z" fill="#6ECD59"/>
<path d="M166.5 97.9999C171.267 106.457 174.57 117.295 174.738 127.624H219.968C222.326 127.624 224.24 125.7 224.121 123.346C223.302 107.043 218.688 90.9388 211.527 77.2058C210.447 75.1343 207.858 74.4331 205.826 75.5872L187.5 86L166.5 97.9999Z" fill="#D63636"/>
<path d="M42.8693 101.844L40.0707 101.881C39.9447 101.882 39.8059 101.882 39.6543 101.882C39.5035 101.879 39.3527 101.876 39.2019 101.873C39.0511 101.87 38.9116 101.866 38.7834 101.863C38.6531 101.856 38.5484 101.85 38.4694 101.844L38.4593 101.88C38.5299 101.915 38.6229 101.964 38.7381 102.025C38.8503 102.085 38.9732 102.153 39.1068 102.228C39.2383 102.3 39.3705 102.375 39.5032 102.454C39.6369 102.53 39.757 102.602 39.8637 102.67L42.2154 104.173L41.9357 105.169L36.6055 105.172L36.8637 104.252L39.6454 104.292C39.8316 104.296 40.0234 104.302 40.2208 104.312C40.4182 104.321 40.6035 104.334 40.7765 104.349C40.9496 104.365 41.0966 104.382 41.2176 104.399L41.2277 104.363C41.154 104.327 41.0633 104.282 40.9554 104.23C40.8453 104.173 40.7312 104.114 40.613 104.053C40.4918 103.99 40.3755 103.927 40.2642 103.864C40.1537 103.798 40.0573 103.739 39.975 103.687L37.4697 102.094L37.7444 101.116L40.705 101.07C40.8477 101.068 41.0072 101.069 41.1837 101.072C41.3571 101.075 41.5278 101.082 41.6957 101.093C41.8636 101.104 42.0062 101.12 42.1233 101.139L42.1334 101.103C42.0349 101.063 41.9095 101.004 41.757 100.927C41.6046 100.849 41.44 100.763 41.2631 100.669C41.0832 100.574 40.9102 100.478 40.744 100.38L38.3454 98.9757L38.5999 98.0694L43.1565 100.821L42.8693 101.844Z" fill="white"/>
<path d="M38.9103 106.444C39.3175 106.557 39.6662 106.711 39.9563 106.908C40.2443 107.1 40.4705 107.329 40.6349 107.594C40.7972 107.855 40.8969 108.143 40.9338 108.46C40.9678 108.775 40.9344 109.113 40.8336 109.472C40.7395 109.807 40.5961 110.099 40.4034 110.349C40.2085 110.595 39.9733 110.789 39.6976 110.932C39.4189 111.074 39.1053 111.156 38.7569 111.179C38.4054 111.201 38.0261 111.155 37.6189 111.043C37.077 110.892 36.6419 110.672 36.3138 110.381C35.9826 110.09 35.7665 109.744 35.6655 109.346C35.5623 108.943 35.5779 108.503 35.7123 108.024C35.84 107.569 36.0524 107.198 36.3496 106.909C36.6468 106.621 37.0124 106.434 37.4464 106.348C37.8804 106.262 38.3684 106.294 38.9103 106.444ZM37.8785 110.118C38.2587 110.224 38.6 110.267 38.9023 110.247C39.2025 110.224 39.4541 110.132 39.6571 109.973C39.8609 109.81 40.0077 109.569 40.0976 109.248C40.1858 108.934 40.1851 108.655 40.0955 108.411C40.0059 108.167 39.8383 107.96 39.5927 107.788C39.3442 107.616 39.0298 107.478 38.6495 107.372C38.2723 107.268 37.9355 107.226 37.6391 107.247C37.3428 107.268 37.0942 107.361 36.8933 107.524C36.6934 107.685 36.548 107.927 36.4573 108.25C36.3246 108.722 36.3858 109.113 36.6411 109.423C36.8941 109.728 37.3066 109.96 37.8785 110.118Z" fill="white"/>
<path d="M38.8365 116.24L32.2705 114.421L32.5288 113.501L38.2954 115.099L39.0954 112.249L39.8948 112.471L38.8365 116.24Z" fill="white"/>
<path d="M25.0068 98.4094L25.2802 97.4358L28.4269 97.1759C28.5887 97.1627 28.7463 97.1532 28.8996 97.1473C29.0508 97.1376 29.1969 97.1345 29.3378 97.1381C29.4767 97.1379 29.6119 97.1447 29.7435 97.1586L29.7523 97.1272C29.6097 97.049 29.4384 96.9467 29.2383 96.8204C29.0382 96.694 28.8368 96.5609 28.6341 96.4209L26.0689 94.6271L26.3411 93.658L31.3912 97.3587C31.6728 97.5624 31.9024 97.7792 32.0799 98.0089C32.2612 98.2364 32.3799 98.4804 32.4358 98.7409C32.4947 99.0023 32.4805 99.2885 32.3932 99.5996C32.3529 99.7431 32.3082 99.8678 32.2591 99.9735C32.2139 100.077 32.1699 100.165 32.1271 100.237L31.4086 100.038C31.442 99.976 31.4777 99.9005 31.5157 99.8111C31.5546 99.7187 31.5883 99.6216 31.6169 99.5199C31.6698 99.3315 31.6777 99.1596 31.6407 99.0043C31.6074 98.8468 31.5369 98.7015 31.429 98.5685C31.322 98.4324 31.1879 98.3066 31.0268 98.1911L30.5059 97.805L25.0068 98.4094Z" fill="white"/>
<path d="M24.7136 99.1069C24.7388 99.0172 24.7721 98.9216 24.8135 98.8202C24.8519 98.718 24.889 98.6316 24.925 98.561L25.7384 98.8879C25.7003 98.9547 25.6618 99.0343 25.6229 99.1267C25.5849 99.2161 25.5546 99.3012 25.5319 99.3819C25.4781 99.5734 25.4628 99.7658 25.486 99.9592C25.5091 100.153 25.5711 100.334 25.6718 100.504C25.7696 100.673 25.9068 100.822 26.0834 100.952C26.257 101.08 26.4696 101.179 26.7211 101.249L29.3394 101.974L29.0849 102.881L24.1357 101.51L24.3398 100.783L25.2638 100.923L25.2751 100.882C25.124 100.731 24.9938 100.563 24.8844 100.378C24.7759 100.19 24.7046 99.9893 24.6707 99.7769C24.6347 99.5605 24.649 99.3372 24.7136 99.1069Z" fill="white"/>
<path d="M23.1214 104.778C23.2424 104.347 23.4389 104.004 23.711 103.747C23.9802 103.489 24.3055 103.325 24.6871 103.253C25.0686 103.182 25.4869 103.209 25.942 103.335L26.454 103.477L25.5116 106.833C26.0441 106.971 26.4895 106.947 26.8479 106.763C27.2032 106.578 27.4477 106.247 27.5812 105.772C27.6694 105.457 27.718 105.17 27.727 104.908C27.736 104.646 27.719 104.367 27.6762 104.072L28.4352 104.282C28.4792 104.562 28.4915 104.834 28.4718 105.099C28.456 105.363 28.3994 105.668 28.3019 106.015C28.1675 106.493 27.9537 106.887 27.6605 107.196C27.3681 107.502 27.0066 107.703 26.576 107.8C26.1425 107.896 25.6503 107.867 25.0994 107.715C24.5545 107.564 24.1145 107.344 23.7795 107.054C23.4415 106.764 23.2158 106.424 23.1025 106.035C22.9891 105.646 22.9954 105.227 23.1214 104.778ZM23.8208 104.977C23.7183 105.341 23.7557 105.668 23.9331 105.955C24.1075 106.242 24.4108 106.467 24.843 106.628L25.5258 104.196C25.2525 104.124 25.0008 104.101 24.7707 104.127C24.5406 104.154 24.3432 104.236 24.1786 104.374C24.0148 104.51 23.8955 104.71 23.8208 104.977Z" fill="white"/>
<path d="M20.8334 107.065L26.7468 111.208L26.4784 112.164L19.2598 112.669L19.5269 111.718L24.158 111.429C24.3198 111.416 24.4898 111.408 24.6679 111.406C24.843 111.403 25.0173 111.403 25.1907 111.406C25.3642 111.409 25.522 111.415 25.6643 111.426C25.5372 111.361 25.3982 111.287 25.2474 111.204C25.0975 111.117 24.9473 111.025 24.7969 110.929C24.6436 110.832 24.4991 110.737 24.3637 110.645L20.5637 108.025L20.8334 107.065Z" fill="white"/>
<path d="M56.6196 64.0044L54.1153 62.7492C54.0031 62.6917 53.8796 62.628 53.7449 62.5581C53.6123 62.4859 53.4797 62.4138 53.3471 62.3416C53.2145 62.2695 53.0921 62.2025 52.9797 62.1406C52.8671 62.0743 52.7771 62.0205 52.7095 61.979L52.6839 62.0061C52.7302 62.0703 52.7905 62.1558 52.8647 62.2628C52.9367 62.3677 53.0146 62.4845 53.0984 62.613C53.182 62.7372 53.2647 62.8648 53.3463 62.9956C53.4301 63.1242 53.5037 63.2433 53.5669 63.3528L54.9628 65.7664L54.2541 66.5202L49.5156 64.0696L50.17 63.3736L52.6234 64.6896C52.7875 64.7782 52.955 64.8722 53.126 64.9715C53.297 65.0708 53.4558 65.1673 53.6024 65.2608C53.7489 65.3544 53.8719 65.4368 53.9714 65.5078L53.9969 65.4807C53.9484 65.4144 53.8882 65.3332 53.8166 65.2371C53.7448 65.1366 53.6706 65.0318 53.5941 64.9227C53.5153 64.8114 53.441 64.7022 53.3712 64.5951C53.3035 64.4857 53.2451 64.3891 53.1959 64.3053L51.7055 61.7405L52.4015 61.0004L55.0536 62.3228C55.1815 62.3863 55.3229 62.4604 55.478 62.5449C55.6308 62.6273 55.7793 62.712 55.9234 62.7991C56.0675 62.8862 56.1871 62.9654 56.2822 63.0366L56.3077 63.0095C56.2388 62.9286 56.1545 62.8186 56.0549 62.6796C55.9554 62.5406 55.8487 62.3887 55.735 62.2239C55.619 62.057 55.5097 61.8921 55.4071 61.7291L53.9242 59.3809L54.569 58.6951L57.3474 63.2303L56.6196 64.0044Z" fill="white"/>
<path d="M50.9769 66.2574C51.2866 66.5448 51.5251 66.8423 51.6922 67.1498C51.8591 67.453 51.9545 67.7597 51.9783 68.07C52.002 68.3759 51.9572 68.6776 51.8438 68.975C51.7282 69.2703 51.5427 69.5538 51.2873 69.8254C51.049 70.0789 50.7865 70.2719 50.4999 70.4044C50.2131 70.5325 49.9143 70.5963 49.6033 70.596C49.29 70.5936 48.9733 70.5222 48.6531 70.382C48.3306 70.2397 48.0145 70.0248 47.7048 69.7375C47.2925 69.355 47.0077 68.9595 46.8504 68.5508C46.6908 68.14 46.6582 67.7347 46.7526 67.335C46.8469 66.9309 47.0643 66.5477 47.4048 66.1856C47.7283 65.8415 48.0887 65.6101 48.486 65.4914C48.8834 65.3727 49.2948 65.3751 49.7203 65.4985C50.1457 65.622 50.5646 65.875 50.9769 66.2574ZM48.3624 69.0381C48.6516 69.3064 48.9351 69.5016 49.2128 69.6235C49.4903 69.7411 49.7561 69.7758 50.0103 69.7277C50.2666 69.6773 50.5086 69.531 50.7364 69.2889C50.9598 69.0512 51.0881 68.8036 51.1212 68.5462C51.1543 68.2888 51.1013 68.0277 50.9621 67.763C50.8207 67.4961 50.6053 67.2286 50.3161 66.9602C50.0291 66.694 49.749 66.502 49.4759 66.3843C49.2028 66.2666 48.9393 66.2339 48.6852 66.2864C48.4333 66.3367 48.1924 66.484 47.9626 66.7284C47.6263 67.0861 47.5002 67.4606 47.5841 67.8521C47.6679 68.2392 47.9273 68.6345 48.3624 69.0381Z" fill="white"/>
<path d="M46.3856 74.9024L41.3906 70.2688L42.045 69.5728L46.4319 73.6423L48.459 71.4864L49.0672 72.0505L46.3856 74.9024Z" fill="white"/>
<path d="M97.0883 49.2637C97.5207 49.1392 97.9187 49.1254 98.2823 49.2224C98.645 49.3163 98.9579 49.5075 99.2211 49.7959C99.4843 50.0843 99.6824 50.4565 99.8155 50.9124L99.9652 51.4253L96.5961 52.3953C96.76 52.9236 97.0157 53.2923 97.3631 53.5011C97.7097 53.707 98.1217 53.7412 98.5991 53.6038C98.9144 53.513 99.1864 53.4022 99.4151 53.2713C99.6438 53.1404 99.8732 52.9785 100.103 52.7854L100.325 53.5458C100.109 53.7315 99.8826 53.8862 99.6453 54.0098C99.4118 54.1356 99.1209 54.2486 98.7726 54.3489C98.2922 54.4872 97.8422 54.5127 97.4229 54.4253C97.0065 54.337 96.643 54.1344 96.3324 53.8174C96.0209 53.4974 95.7847 53.0614 95.6236 52.5095C95.4643 51.9635 95.4197 51.4707 95.49 51.031C95.5593 50.5884 95.7305 50.2155 96.0034 49.9126C96.2763 49.6097 96.6379 49.3934 97.0883 49.2637ZM97.2887 49.9669C96.9223 50.0724 96.6631 50.2771 96.5109 50.581C96.3579 50.882 96.3266 51.26 96.4171 51.7152L98.8584 51.0124C98.7757 50.7403 98.6621 50.5128 98.5177 50.3301C98.3732 50.1473 98.1983 50.0221 97.993 49.9544C97.7907 49.8858 97.5559 49.89 97.2887 49.9669Z" fill="white"/>
<path d="M94.6899 54.7294C94.819 54.6922 94.9466 54.6441 95.0725 54.5851C95.1977 54.5231 95.303 54.4602 95.3886 54.3966L95.5908 55.0895C95.5019 55.1639 95.3762 55.2407 95.2138 55.32C95.0552 55.4014 94.8874 55.4676 94.7102 55.5186C94.44 55.5964 94.1817 55.6203 93.9354 55.5905C93.689 55.5606 93.467 55.4522 93.2692 55.2652C93.0744 55.0775 92.9188 54.7841 92.8024 54.3851L91.9856 51.5865L91.2965 51.7849L91.1743 51.3665L91.7978 50.826L91.8051 49.6631L92.3636 49.5023L92.6919 50.6272L94.1287 50.2135L94.3323 50.9109L92.8954 51.3246L93.7083 54.1097C93.7897 54.3887 93.9166 54.5781 94.089 54.6781C94.2644 54.7771 94.4647 54.7943 94.6899 54.7294Z" fill="white"/>
<path d="M88.3337 51.7891C88.9463 51.6127 89.444 51.6173 89.827 51.803C90.2091 51.9856 90.4854 52.3694 90.6562 52.9544L91.6344 56.3064L90.9858 56.4931L90.6001 55.8238L90.564 55.8342C90.4784 56.0539 90.3781 56.2454 90.263 56.4086C90.1478 56.5718 89.9999 56.7119 89.8193 56.829C89.6416 56.9452 89.4116 57.0439 89.1294 57.1252C88.8291 57.2116 88.5461 57.2346 88.2803 57.194C88.0146 57.1535 87.7827 57.0446 87.5845 56.8676C87.3885 56.6866 87.2415 56.4282 87.1434 56.0922C86.9963 55.5883 87.0784 55.1501 87.3896 54.7776C87.7008 54.4051 88.2463 54.0936 89.026 53.8431L89.8713 53.5608L89.7898 53.2818C89.6769 52.8949 89.5102 52.647 89.2896 52.5381C89.0721 52.4284 88.8086 52.4181 88.4994 52.5071C88.2441 52.5806 88.0103 52.6886 87.798 52.831C87.5848 52.9704 87.385 53.1222 87.1985 53.2865L86.7186 52.7125C86.9178 52.5251 87.1542 52.3481 87.4278 52.1816C87.7045 52.0141 88.0064 51.8833 88.3337 51.7891ZM90.0356 54.1573L89.3511 54.3885C88.7837 54.5746 88.4079 54.7869 88.2236 55.0253C88.0414 55.2598 87.9945 55.5286 88.0829 55.8315C88.1599 56.0955 88.296 56.266 88.491 56.3432C88.6861 56.4204 88.9142 56.4214 89.1754 56.3461C89.5778 56.2303 89.8753 56.0227 90.0679 55.7234C90.2626 55.4202 90.2951 55.0467 90.1656 54.6027L90.0356 54.1573Z" fill="white"/>
<path d="M101.755 39.6879L101.526 38.905L103.805 38.2489L104.034 39.0318L101.755 39.6879Z" fill="white"/>
<path d="M98.0063 37.5528C98.4387 37.4283 98.8367 37.4145 99.2002 37.5114C99.5629 37.6054 99.8759 37.7965 100.139 38.085C100.402 38.3734 100.6 38.7455 100.733 39.2015L100.883 39.7144L97.5141 40.6844C97.678 41.2127 97.9337 41.5813 98.2811 41.7902C98.6276 41.9961 99.0396 42.0303 99.5171 41.8929C99.8324 41.8021 100.104 41.6913 100.333 41.5604C100.562 41.4295 100.791 41.2675 101.021 41.0745L101.243 41.8349C101.027 42.0206 100.801 42.1753 100.563 42.2989C100.33 42.4246 100.039 42.5376 99.6906 42.6379C99.2101 42.7762 98.7602 42.8017 98.3409 42.7143C97.9245 42.6261 97.561 42.4235 97.2504 42.1064C96.9389 41.7864 96.7026 41.3504 96.5416 40.7985C96.3822 40.2526 96.3377 39.7598 96.4079 39.3201C96.4773 38.8774 96.6484 38.5046 96.9213 38.2017C97.1942 37.8987 97.5559 37.6824 98.0063 37.5528ZM98.2066 38.256C97.8403 38.3614 97.5811 38.5661 97.4289 38.8701C97.2758 39.171 97.2446 39.5491 97.3351 40.0043L99.7764 39.3014C99.6937 39.0293 99.5801 38.8019 99.4356 38.6191C99.2911 38.4364 99.1163 38.3111 98.911 38.2434C98.7087 38.1749 98.4739 38.179 98.2066 38.256Z" fill="white"/>
<path d="M93.5834 44.3962C92.9768 44.5709 92.4293 44.496 91.9408 44.1717C91.4552 43.8465 91.0895 43.2624 90.8435 42.4195C90.5949 41.5676 90.5903 40.8715 90.8297 40.3311C91.0712 39.7868 91.4968 39.4269 92.1063 39.2514C92.3615 39.178 92.5953 39.1481 92.8076 39.1617C93.0199 39.1754 93.2118 39.2193 93.3832 39.2935C93.5576 39.3669 93.7123 39.4622 93.8474 39.5793L93.9015 39.5638C93.8593 39.4751 93.8062 39.349 93.7422 39.1853C93.6782 39.0216 93.6278 38.8768 93.591 38.7508L93.0408 36.8656L93.9461 36.6049L95.9894 43.606L95.2732 43.8122L94.9237 43.1666L94.8831 43.1783C94.8351 43.3482 94.758 43.5134 94.6519 43.6741C94.5479 43.8308 94.4084 43.9718 94.2333 44.097C94.0613 44.2213 93.8446 44.321 93.5834 44.3962ZM93.5797 43.5974C94.0692 43.4565 94.3734 43.2161 94.4922 42.8762C94.6141 42.5355 94.5956 42.0872 94.4367 41.5314L94.396 41.3919C94.2235 40.801 93.9937 40.3761 93.7066 40.1174C93.4217 39.8548 93.0209 39.7978 92.5045 39.9465C92.0841 40.0675 91.8154 40.3237 91.6985 40.715C91.5807 41.1034 91.6068 41.5885 91.7766 42.1704C91.9447 42.7463 92.1808 43.1596 92.4851 43.4102C92.7885 43.6577 93.1533 43.7202 93.5797 43.5974Z" fill="white"/>
<path d="M89.8581 42.6739C89.9771 43.0818 90.0294 43.4618 90.015 43.8139C90.0027 44.1621 89.9269 44.4766 89.7874 44.7574C89.6502 45.0343 89.456 45.2723 89.2048 45.4714C88.9528 45.6675 88.6467 45.8174 88.2863 45.9212C87.95 46.018 87.6241 46.05 87.3086 46.0173C86.9952 45.9807 86.7044 45.8823 86.4364 45.7221C86.1674 45.559 85.931 45.3344 85.7271 45.0484C85.5223 44.7594 85.3604 44.411 85.2413 44.003C85.0829 43.4601 85.0411 42.9714 85.1161 42.5368C85.1902 42.0993 85.3711 41.7318 85.6586 41.4344C85.9483 41.1332 86.3333 40.9134 86.8138 40.7751C87.2702 40.6436 87.7004 40.6287 88.1044 40.7303C88.5083 40.8318 88.862 41.0454 89.1654 41.3711C89.4687 41.6967 89.6996 42.1309 89.8581 42.6739ZM86.1692 43.7359C86.2803 44.1169 86.4242 44.4315 86.6009 44.6798C86.7796 44.9242 86.991 45.091 87.2351 45.18C87.4822 45.2682 87.7664 45.2661 88.0877 45.1736C88.403 45.0828 88.6413 44.9345 88.8026 44.7288C88.9639 44.523 89.0527 44.2698 89.0692 43.9692C89.0847 43.6655 89.0369 43.3233 88.9257 42.9423C88.8154 42.5644 88.6728 42.2542 88.4979 42.0119C88.3231 41.7696 88.1125 41.6059 87.8663 41.5207C87.6231 41.4346 87.3394 41.4383 87.0151 41.5316C86.5406 41.6682 86.2387 41.9275 86.1093 42.3094C85.982 42.6875 86.002 43.163 86.1692 43.7359Z" fill="white"/>
<path d="M80.8329 47.9696L77.1284 42.9052L77.0924 42.9156C77.1373 43.036 77.1927 43.1923 77.2586 43.3847C77.3266 43.5732 77.3969 43.7806 77.4694 44.0069C77.5441 44.2292 77.6134 44.4499 77.6773 44.6689L78.8105 48.5519L77.9637 48.7957L76.0439 42.2175L77.3727 41.835L80.8869 46.6323L80.9184 46.6232L81.3543 40.6887L82.6741 40.3087L84.5939 46.8869L83.702 47.1436L82.553 43.2066C82.4953 43.0087 82.4383 42.8023 82.3822 42.5876C82.3251 42.3699 82.2731 42.1638 82.2261 41.9692C82.1812 41.7708 82.1449 41.6073 82.1171 41.4787L82.0766 41.4904L81.6211 47.7427L80.8329 47.9696Z" fill="white"/>
<path d="M145.199 39.4888L144.611 41.4067C144.564 41.5591 144.514 41.7071 144.46 41.8508C144.406 41.9944 144.358 42.1138 144.316 42.2087L144.369 42.225C144.527 42.0834 144.7 41.9788 144.887 41.9114C145.079 41.8419 145.28 41.8081 145.492 41.8101C145.708 41.81 145.925 41.8429 146.143 41.9089C146.529 42.0255 146.836 42.1868 147.063 42.3927C147.291 42.5986 147.433 42.8552 147.489 43.1627C147.546 43.4672 147.51 43.83 147.381 44.2512L146.394 47.4687L145.501 47.1989L146.451 44.1025C146.572 43.7081 146.576 43.3862 146.463 43.1366C146.351 42.884 146.115 42.7035 145.756 42.595C145.415 42.492 145.122 42.4785 144.876 42.5544C144.632 42.6274 144.426 42.7822 144.258 43.0189C144.091 43.2556 143.949 43.5651 143.831 43.9475L143.061 46.4615L142.159 46.189L144.297 39.2163L145.199 39.4888Z" fill="white"/>
<path d="M137.84 47.293C137.179 47.0933 136.707 46.8186 136.425 46.4691C136.147 46.1205 136.074 45.7296 136.207 45.2964C136.301 44.9887 136.478 44.7567 136.739 44.6003C136.998 44.447 137.314 44.3858 137.687 44.4169C137.574 44.3173 137.488 44.1919 137.43 44.0405C137.376 43.887 137.372 43.7326 137.42 43.5772C137.476 43.395 137.575 43.2535 137.717 43.1528C137.863 43.05 138.058 42.967 138.303 42.9039C138.076 42.7177 137.921 42.4767 137.838 42.1809C137.757 41.882 137.767 41.5653 137.87 41.2307C137.979 40.8752 138.147 40.5946 138.373 40.3888C138.603 40.184 138.88 40.0588 139.204 40.0132C139.529 39.9676 139.894 40.0062 140.301 40.1292C140.391 40.1563 140.482 40.1888 140.575 40.2266C140.669 40.2615 140.757 40.2996 140.839 40.3407C140.921 40.3819 140.987 40.418 141.036 40.4492L142.741 40.9644L142.578 41.4976L141.657 41.3664C141.709 41.5061 141.738 41.6618 141.744 41.8334C141.751 42.005 141.725 42.1834 141.669 42.3686C141.515 42.8705 141.221 43.2159 140.787 43.4047C140.357 43.5915 139.84 43.5936 139.236 43.411C139.096 43.3655 138.958 43.3107 138.821 43.2464C138.669 43.2822 138.547 43.335 138.453 43.4047C138.361 43.4715 138.298 43.5616 138.263 43.6751C138.236 43.7618 138.243 43.8406 138.283 43.9115C138.327 43.9834 138.4 44.0494 138.502 44.1098C138.605 44.1671 138.736 44.2197 138.895 44.2676L139.756 44.5279C140.295 44.6906 140.673 44.9288 140.89 45.2426C141.108 45.5564 141.15 45.9314 141.016 46.3676C140.846 46.9203 140.489 47.2773 139.942 47.4387C139.396 47.6 138.695 47.5515 137.84 47.293ZM138.073 46.6438C138.459 46.7604 138.792 46.8187 139.073 46.8187C139.357 46.8197 139.587 46.7683 139.763 46.6647C139.938 46.5611 140.056 46.4107 140.117 46.2135C140.172 46.0343 140.171 45.8837 140.113 45.7619C140.058 45.644 139.952 45.5433 139.794 45.4598C139.637 45.3764 139.435 45.2976 139.19 45.2235L138.373 44.9767C138.164 44.9135 137.971 44.8912 137.796 44.9099C137.62 44.9287 137.47 44.9862 137.346 45.0824C137.221 45.1817 137.13 45.3225 137.074 45.5047C136.998 45.7526 137.046 45.9744 137.218 46.17C137.393 46.3666 137.678 46.5245 138.073 46.6438ZM139.465 42.8093C139.797 42.9096 140.071 42.898 140.289 42.7744C140.508 42.6479 140.667 42.4218 140.767 42.0962C140.874 41.7466 140.871 41.4584 140.757 41.2316C140.644 41.0047 140.423 40.8415 140.094 40.7421C139.774 40.6454 139.5 40.6624 139.274 40.7932C139.051 40.9218 138.887 41.1594 138.781 41.5059C138.683 41.8256 138.692 42.0993 138.808 42.3271C138.926 42.5518 139.145 42.7126 139.465 42.8093Z" fill="white"/>
<path d="M137.092 39.2622L135.578 44.2004L134.676 43.9279L136.19 38.9897L137.092 39.2622ZM137.221 37.2593C137.364 37.3027 137.474 37.3816 137.55 37.4959C137.629 37.6112 137.64 37.763 137.582 37.9512C137.524 38.1394 137.43 38.261 137.299 38.316C137.171 38.3689 137.036 38.3737 136.892 38.3303C136.746 38.286 136.634 38.2067 136.558 38.0923C136.486 37.9758 136.479 37.8235 136.537 37.6353C136.594 37.4471 136.685 37.3261 136.81 37.2723C136.937 37.2193 137.074 37.215 137.221 37.2593Z" fill="white"/>
<path d="M133.024 43.4289L132.104 43.151L133.031 40.1262L129.796 39.1488L128.869 42.1736L127.949 41.8957L129.958 35.3442L130.878 35.6221L130.04 38.3556L133.275 39.3331L134.113 36.5996L135.033 36.8775L133.024 43.4289Z" fill="white"/>
<path d="M178.991 71.9053L177.535 73.2856C177.419 73.3952 177.303 73.4993 177.185 73.5979C177.067 73.6965 176.967 73.7768 176.883 73.8387L176.922 73.8792C177.13 73.8334 177.332 73.8271 177.528 73.8603C177.729 73.8936 177.922 73.963 178.106 74.0686C178.294 74.1743 178.467 74.3094 178.625 74.4739C178.904 74.7645 179.093 75.0552 179.19 75.346C179.288 75.6368 179.285 75.9297 179.183 76.2247C179.083 76.5175 178.873 76.8155 178.554 77.1186L176.111 79.4341L175.465 78.7616L177.815 76.5332C178.115 76.2494 178.276 75.9712 178.301 75.6987C178.327 75.424 178.21 75.1514 177.95 74.8811C177.703 74.6242 177.454 74.4687 177.203 74.4144C176.953 74.3579 176.698 74.3916 176.435 74.5155C176.173 74.6394 175.897 74.8389 175.606 75.1141L173.698 76.9232L173.045 76.244L178.338 71.2261L178.991 71.9053Z" fill="white"/>
<path d="M168.735 75.0865C168.256 74.5886 167.98 74.1185 167.906 73.6763C167.834 73.2363 167.962 72.8604 168.291 72.5487C168.525 72.3273 168.794 72.2124 169.098 72.204C169.399 72.1978 169.705 72.2996 170.015 72.5095C169.965 72.3673 169.952 72.2161 169.976 72.0559C170.004 71.8958 170.077 71.7598 170.195 71.648C170.333 71.5169 170.489 71.4423 170.663 71.4243C170.84 71.4064 171.052 71.43 171.296 71.4952C171.189 71.2218 171.173 70.9362 171.246 70.6383C171.322 70.3383 171.487 70.0679 171.741 69.8271C172.011 69.5713 172.295 69.4094 172.594 69.3415C172.895 69.2758 173.198 69.3026 173.503 69.4221C173.809 69.5415 174.109 69.7544 174.403 70.0608C174.468 70.1284 174.532 70.2014 174.594 70.28C174.659 70.3564 174.717 70.4326 174.769 70.5087C174.82 70.5848 174.86 70.6485 174.887 70.6998L176.122 71.9839L175.717 72.3677L174.978 71.8021C174.955 71.9491 174.904 72.0988 174.825 72.2511C174.746 72.4035 174.636 72.5463 174.495 72.6796C174.114 73.0408 173.688 73.1972 173.217 73.1488C172.75 73.1005 172.298 72.8488 171.861 72.3937C171.761 72.2857 171.668 72.1701 171.579 72.0469C171.43 72.0038 171.297 71.9897 171.181 72.0046C171.068 72.0174 170.968 72.0646 170.882 72.1463C170.816 72.2087 170.783 72.2806 170.784 72.3621C170.786 72.4459 170.817 72.5391 170.877 72.6418C170.939 72.7424 171.027 72.8523 171.142 72.9717L171.766 73.6206C172.156 74.0261 172.368 74.4187 172.404 74.7984C172.439 75.178 172.291 75.5248 171.96 75.8387C171.541 76.2364 171.053 76.3716 170.497 76.2441C169.941 76.1167 169.354 75.7308 168.735 75.0865ZM169.257 74.6361C169.537 74.9267 169.799 75.1409 170.044 75.2788C170.291 75.4189 170.517 75.4869 170.721 75.4828C170.925 75.4788 171.102 75.4058 171.252 75.2639C171.388 75.1349 171.461 75.0033 171.471 74.8692C171.48 74.7395 171.437 74.5997 171.341 74.4499C171.244 74.3001 171.107 74.1328 170.93 73.9481L170.339 73.333C170.187 73.1753 170.03 73.0615 169.868 72.9917C169.705 72.9218 169.546 72.8983 169.39 72.9211C169.232 72.9461 169.084 73.0241 168.946 73.1553C168.758 73.3337 168.69 73.5502 168.744 73.8048C168.801 74.0616 168.972 74.3387 169.257 74.6361ZM172.356 71.9823C172.596 72.2324 172.842 72.3571 173.092 72.3563C173.345 72.3533 173.595 72.2347 173.843 72.0004C174.108 71.7488 174.247 71.4965 174.259 71.2435C174.272 70.9905 174.159 70.7401 173.921 70.4923C173.689 70.2512 173.442 70.1321 173.181 70.1348C172.923 70.1376 172.663 70.2638 172.4 70.5131C172.158 70.7432 172.031 70.9858 172.021 71.2411C172.013 71.4942 172.124 71.7413 172.356 71.9823Z" fill="white"/>
<path d="M172.029 67.7327L168.281 71.2865L167.628 70.6073L171.376 67.0535L172.029 67.7327ZM173.126 66.0534C173.23 66.1615 173.287 66.284 173.297 66.4208C173.309 66.5598 173.244 66.6971 173.101 66.8325C172.958 66.968 172.816 67.0274 172.674 67.0109C172.537 66.9945 172.417 66.9323 172.313 66.8241C172.207 66.7137 172.149 66.5901 172.139 66.4533C172.133 66.3166 172.201 66.1806 172.344 66.0451C172.487 65.9097 172.626 65.849 172.761 65.8632C172.898 65.8796 173.02 65.943 173.126 66.0534Z" fill="white"/>
<path d="M166.432 69.3634L165.766 68.6707L168.062 66.4939L165.72 64.0574L163.425 66.2342L162.759 65.5414L167.731 60.8267L168.397 61.5194L166.322 63.4866L168.664 65.9231L170.739 63.9559L171.405 64.6487L166.432 69.3634Z" fill="white"/>
<path d="M184.718 65.061L185.423 65.7944L184.023 68.6329C183.951 68.7788 183.877 68.9192 183.803 69.054C183.734 69.189 183.661 69.3161 183.585 69.4355C183.513 69.555 183.438 69.6677 183.358 69.7738L183.38 69.7975C183.522 69.7149 183.699 69.6199 183.912 69.5125C184.126 69.4051 184.345 69.3001 184.572 69.1974L187.456 67.9098L188.157 68.6398L182.332 71.0881C182.01 71.2259 181.703 71.3124 181.412 71.3475C181.12 71.387 180.847 71.3641 180.592 71.2789C180.334 71.1958 180.093 71.0371 179.868 70.8028C179.764 70.6947 179.678 70.5925 179.612 70.4962C179.545 70.4044 179.492 70.3217 179.451 70.248L179.996 69.7321C180.032 69.7924 180.079 69.8617 180.137 69.9402C180.197 70.0209 180.264 70.0995 180.338 70.1761C180.474 70.318 180.619 70.4128 180.774 70.4605C180.928 70.5125 181.09 70.5262 181.262 70.5015C181.435 70.4791 181.614 70.4282 181.797 70.3488L182.402 70.0985L184.718 65.061Z" fill="white"/>
<path d="M184.262 64.4524C184.327 64.52 184.393 64.5975 184.46 64.685C184.529 64.7703 184.585 64.8465 184.628 64.9135L183.923 65.4456C183.885 65.3787 183.836 65.3048 183.775 65.2241C183.717 65.1457 183.659 65.0761 183.601 65.0152C183.462 64.871 183.303 64.7594 183.123 64.6803C182.943 64.6013 182.753 64.5616 182.553 64.5614C182.356 64.559 182.156 64.6006 181.952 64.6862C181.75 64.7696 181.554 64.9016 181.364 65.0822L179.381 66.9623L178.725 66.2797L182.473 62.7259L182.999 63.2733L182.4 63.9962L182.429 64.0266C182.639 63.9742 182.853 63.9483 183.07 63.949C183.289 63.9519 183.5 63.9931 183.702 64.0727C183.909 64.1524 184.096 64.279 184.262 64.4524Z" fill="white"/>
<path d="M180.157 60.1809C180.469 60.5053 180.666 60.8502 180.749 61.2155C180.833 61.5787 180.808 61.9426 180.673 62.3073C180.538 62.672 180.299 63.0178 179.954 63.3446L179.566 63.7122L177.137 61.1845C176.742 61.5718 176.532 61.9666 176.507 62.3691C176.485 62.7695 176.645 63.1488 176.99 63.507C177.217 63.7435 177.442 63.9327 177.665 64.0744C177.888 64.2162 178.139 64.3442 178.418 64.4586L177.843 65.0036C177.577 64.8983 177.334 64.7694 177.114 64.6167C176.893 64.4684 176.657 64.2636 176.406 64.0022C176.06 63.6418 175.828 63.2564 175.711 62.8462C175.596 62.4383 175.608 62.0245 175.747 61.6048C175.887 61.183 176.166 60.7743 176.583 60.3787C176.996 59.9874 177.415 59.7218 177.839 59.5819C178.266 59.4398 178.678 59.4196 179.075 59.5214C179.472 59.6231 179.832 59.8429 180.157 60.1809ZM179.623 60.6806C179.359 60.4057 179.056 60.2709 178.715 60.2762C178.375 60.2793 178.024 60.4253 177.66 60.7142L179.42 62.5458C179.625 62.348 179.775 62.1433 179.87 61.9319C179.966 61.7204 179.997 61.5086 179.962 61.2963C179.929 61.0863 179.816 60.8811 179.623 60.6806Z" fill="white"/>
<path d="M179.352 57.0433L172.696 60.0076L172.005 59.2878L175.295 52.8225L175.983 53.5389L173.842 57.6686C173.77 57.8145 173.689 57.9646 173.598 58.1189C173.511 58.271 173.421 58.4209 173.329 58.5685C173.236 58.7162 173.149 58.8485 173.067 58.9655C173.188 58.8891 173.324 58.8074 173.475 58.7206C173.627 58.6361 173.785 58.5538 173.946 58.4739C174.11 58.3918 174.267 58.3161 174.417 58.2469L178.657 56.3201L179.352 57.0433Z" fill="white"/>
<path d="M205.1 120.702C205.209 121.139 205.208 121.536 205.097 121.894C204.989 122.251 204.786 122.554 204.487 122.803C204.188 123.052 203.808 123.231 203.346 123.343L202.826 123.468L201.982 120.065C201.447 120.204 201.068 120.441 200.845 120.778C200.626 121.113 200.576 121.522 200.696 122.004C200.775 122.323 200.876 122.599 200.998 122.833C201.12 123.067 201.274 123.303 201.459 123.542L200.689 123.727C200.511 123.503 200.364 123.27 200.25 123.028C200.132 122.789 200.03 122.494 199.943 122.142C199.823 121.657 199.814 121.208 199.917 120.794C200.022 120.383 200.238 120.03 200.568 119.736C200.9 119.44 201.346 119.225 201.905 119.091C202.457 118.957 202.953 118.936 203.391 119.027C203.831 119.117 204.198 119.305 204.492 119.591C204.785 119.877 204.988 120.247 205.1 120.702ZM204.388 120.869C204.297 120.499 204.101 120.231 203.803 120.065C203.507 119.899 203.13 119.85 202.67 119.919L203.282 122.384C203.558 122.315 203.79 122.212 203.978 122.077C204.167 121.941 204.299 121.773 204.374 121.572C204.451 121.373 204.455 121.139 204.388 120.869Z" fill="white"/>
<path d="M203.817 115.53C203.955 116.085 203.913 116.539 203.691 116.891C203.474 117.245 203.046 117.5 202.408 117.653L199.122 118.445L198.898 117.539L202.069 116.775C202.464 116.68 202.74 116.527 202.897 116.316C203.054 116.107 203.093 115.843 203.014 115.521C202.901 115.066 202.681 114.77 202.354 114.634C202.031 114.499 201.604 114.496 201.072 114.624L198.338 115.283L198.112 114.373L201.284 113.609C201.548 113.546 201.758 113.456 201.913 113.342C202.071 113.227 202.176 113.087 202.229 112.923C202.282 112.76 202.281 112.569 202.227 112.35C202.149 112.038 202.019 111.804 201.836 111.649C201.656 111.496 201.424 111.409 201.138 111.388C200.854 111.37 200.52 111.407 200.137 111.499L197.554 112.121L197.327 111.207L202.348 109.997L202.528 110.721L201.868 111.019L201.88 111.069C202.078 111.128 202.254 111.219 202.407 111.343C202.561 111.47 202.69 111.62 202.794 111.794C202.902 111.968 202.981 112.159 203.033 112.368C203.126 112.744 203.137 113.078 203.064 113.368C202.991 113.659 202.83 113.899 202.581 114.087L202.595 114.147C202.918 114.239 203.181 114.411 203.384 114.66C203.592 114.913 203.736 115.202 203.817 115.53Z" fill="white"/>
<path d="M201.611 106.636C201.72 107.073 201.718 107.47 201.607 107.828C201.5 108.185 201.296 108.488 200.997 108.737C200.699 108.985 200.318 109.165 199.857 109.277L199.337 109.402L198.493 105.999C197.957 106.137 197.579 106.375 197.356 106.711C197.137 107.047 197.087 107.456 197.207 107.938C197.286 108.257 197.386 108.533 197.509 108.767C197.631 109.001 197.785 109.237 197.969 109.476L197.199 109.661C197.021 109.437 196.875 109.204 196.76 108.962C196.643 108.723 196.541 108.428 196.454 108.076C196.333 107.591 196.325 107.141 196.428 106.728C196.532 106.317 196.749 105.964 197.078 105.669C197.411 105.374 197.856 105.159 198.415 105.024C198.968 104.891 199.464 104.87 199.901 104.961C200.342 105.05 200.709 105.238 201.002 105.525C201.295 105.811 201.498 106.181 201.611 106.636ZM200.899 106.803C200.807 106.433 200.612 106.165 200.313 105.999C200.018 105.832 199.64 105.784 199.181 105.852L199.793 108.318C200.068 108.248 200.3 108.146 200.489 108.011C200.677 107.875 200.81 107.707 200.885 107.505C200.962 107.307 200.966 107.073 200.899 106.803Z" fill="white"/>
<path d="M200.751 103.17C200.774 103.261 200.792 103.361 200.807 103.47C200.824 103.578 200.834 103.672 200.838 103.752L199.962 103.861C199.962 103.784 199.956 103.696 199.944 103.596C199.933 103.499 199.917 103.409 199.897 103.327C199.849 103.133 199.767 102.957 199.65 102.799C199.534 102.64 199.389 102.511 199.216 102.412C199.046 102.311 198.852 102.247 198.632 102.22C198.416 102.191 198.18 102.208 197.925 102.269L195.269 102.909L195.041 101.99L200.062 100.781L200.245 101.518L199.365 101.845L199.375 101.886C199.583 101.945 199.781 102.03 199.969 102.139C200.158 102.251 200.32 102.392 200.456 102.561C200.595 102.734 200.694 102.936 200.751 103.17Z" fill="white"/>
<path d="M195.256 100.077C195.289 100.208 195.332 100.337 195.386 100.465C195.444 100.593 195.503 100.701 195.563 100.789L194.862 100.958C194.79 100.866 194.718 100.737 194.645 100.572C194.569 100.41 194.509 100.239 194.465 100.06C194.397 99.7875 194.383 99.529 194.422 99.2849C194.462 99.0409 194.579 98.8246 194.773 98.6363C194.969 98.451 195.269 98.3097 195.673 98.2124L198.507 97.5297L198.334 96.8337L198.758 96.7316L199.276 97.3783L200.44 97.44L200.58 98.0041L199.441 98.2785L199.801 99.7297L199.095 99.8999L198.735 98.4487L195.914 99.1281C195.632 99.1961 195.437 99.3137 195.33 99.4808C195.225 99.6509 195.2 99.8497 195.256 100.077Z" fill="white"/>
<path d="M195.786 94.0152L197.815 91.7232L198.074 92.765L196.529 94.4435L198.685 95.2307L198.942 96.2634L196.067 95.1479L193.943 97.5639L193.684 96.5221L195.322 94.7343L193.03 93.8836L192.773 92.8509L195.786 94.0152Z" fill="white"/>
<path d="M192.599 92.1457L191.672 88.4108L198.334 86.8062L199.261 90.5411L198.459 90.7342L197.763 87.9319L195.781 88.4094L196.435 91.0434L195.642 91.2343L194.988 88.6003L192.71 89.1491L193.405 91.9515L192.599 92.1457Z" fill="white"/>
<path d="M11.6145 68.5003L8.06738 73.7676L6.95927 73.0214L6.32092 69.8423C6.18605 69.1971 6.06556 68.6715 5.95946 68.2654C5.85223 67.8536 5.72509 67.5233 5.57803 67.2744C5.4333 67.0221 5.23723 66.8127 4.98984 66.6461C4.69091 66.4448 4.41088 66.3786 4.14976 66.4474C3.88751 66.5106 3.66268 66.6813 3.47526 66.9596C3.27858 67.2516 3.15469 67.5802 3.10359 67.9453C3.05248 68.3105 3.04998 68.7258 3.09606 69.1913L1.48734 69.3665C1.44756 69.0251 1.4262 68.6786 1.42324 68.327C1.4226 67.972 1.48005 67.6012 1.59559 67.2145C1.71001 66.8221 1.91878 66.4009 2.22189 65.9507C2.55508 65.456 2.93018 65.0918 3.34717 64.8582C3.76648 64.6212 4.19554 64.5106 4.63436 64.5264C5.06973 64.5399 5.48155 64.6774 5.86982 64.9389C6.28557 65.2188 6.60972 65.557 6.84225 65.9533C7.07478 66.3496 7.25298 66.8192 7.37683 67.3621C7.503 67.9015 7.62128 68.5305 7.73168 69.2491L7.99143 70.8324L8.06358 70.8809L10.2745 67.5979L11.6145 68.5003Z" fill="white"/>
<path d="M54.0679 19.2062C54.274 19.5704 54.3767 19.9287 54.3762 20.2812C54.3758 20.6336 54.2937 20.968 54.1299 21.2844C53.9698 21.5986 53.7518 21.8862 53.4758 22.1471L53.4941 22.1795C54.1736 21.8998 54.765 21.8222 55.2685 21.9466C55.7757 22.0691 56.1761 22.3898 56.4698 22.909C56.7309 23.3705 56.8509 23.8476 56.8298 24.3402C56.8123 24.8309 56.6283 25.3133 56.2779 25.7876C55.9275 26.2619 55.3828 26.7081 54.6437 27.1263C54.2074 27.3731 53.7796 27.5675 53.3602 27.7096C52.9465 27.8532 52.533 27.9468 52.1197 27.9902L51.315 26.5679C51.7518 26.5492 52.1814 26.4799 52.6038 26.3599C53.0241 26.2363 53.3947 26.0838 53.7156 25.9023C54.3141 25.5636 54.6742 25.2243 54.7958 24.8841C54.9191 24.5384 54.8747 24.178 54.6625 23.803C54.5381 23.5831 54.3772 23.429 54.1797 23.3408C53.9823 23.2526 53.7223 23.2474 53.3998 23.3252C53.0809 23.4009 52.6745 23.5784 52.1806 23.8579L51.5803 24.1975L50.8551 22.9158L51.4662 22.5701C51.953 22.2947 52.297 22.0405 52.4984 21.8076C52.7014 21.5691 52.803 21.345 52.8034 21.1353C52.8054 20.92 52.7482 20.7096 52.6319 20.5041C52.4728 20.2229 52.2619 20.0519 51.9991 19.9912C51.7362 19.9305 51.4029 20.0143 50.9991 20.2428C50.7468 20.3856 50.5344 20.5486 50.362 20.7318C50.1911 20.9094 50.0483 21.0901 49.9334 21.2741C49.8165 21.4544 49.7185 21.6218 49.6392 21.7761L48.2141 21.0617C48.3977 20.6628 48.655 20.2721 48.986 19.8897C49.3206 19.5052 49.7763 19.1498 50.3532 18.8235C51.168 18.3625 51.9062 18.1614 52.5677 18.2202C53.2293 18.2791 53.7293 18.6077 54.0679 19.2062Z" fill="white"/>
<path d="M116.294 4.2503C116.849 4.25825 117.34 4.37094 117.768 4.58835C118.2 4.80583 118.537 5.12137 118.78 5.53499C119.023 5.94861 119.14 6.45572 119.131 7.05631C119.122 7.71075 118.977 8.27418 118.697 8.74659C118.421 9.21492 118.012 9.57156 117.469 9.81651C116.932 10.0615 116.263 10.1783 115.463 10.1668C114.987 10.16 114.538 10.1122 114.117 10.0233C113.7 9.93857 113.335 9.81113 113.023 9.64094L113.046 7.98206C113.359 8.15225 113.734 8.29848 114.171 8.42075C114.613 8.53893 115.028 8.60081 115.417 8.60639C115.799 8.61185 116.12 8.56675 116.383 8.47108C116.645 8.37127 116.844 8.21669 116.98 8.00735C117.119 7.79392 117.192 7.52153 117.196 7.19017C117.203 6.74697 117.059 6.40519 116.764 6.16482C116.469 5.92445 116.013 5.79985 115.396 5.79101C115.16 5.78762 114.913 5.80687 114.655 5.84875C114.402 5.8907 114.19 5.93323 114.02 5.97636L113.261 5.55535L113.669 0.93155L118.596 1.00214L118.573 2.62995L115.33 2.58349L115.136 4.36422C115.278 4.33724 115.431 4.31044 115.597 4.28382C115.764 4.2572 115.996 4.24603 116.294 4.2503Z" fill="white"/>
<path d="M171.516 24.2921L178.333 19.7142L174.516 17.3689L175.361 15.9924L180.915 19.4046L180.284 20.4316L173.232 25.346L171.516 24.2921Z" fill="white"/>
<path d="M224.093 72.7549C223.439 73.0866 222.829 73.3309 222.263 73.4879C221.699 73.6486 221.181 73.7071 220.708 73.6635C220.237 73.6236 219.816 73.4704 219.444 73.2039C219.072 72.9374 218.755 72.5455 218.493 72.0283C218.163 71.378 218.056 70.7608 218.173 70.1766C218.294 69.5905 218.614 69.0403 219.134 68.526C219.657 68.0099 220.353 67.5316 221.221 67.0913C222.097 66.6472 222.891 66.3583 223.603 66.2246C224.321 66.0927 224.951 66.1493 225.494 66.3944C226.036 66.6396 226.482 67.1076 226.833 67.7984C227.161 68.445 227.264 69.0613 227.143 69.6474C227.028 70.2353 226.71 70.7892 226.189 71.3091C225.671 71.827 224.973 72.309 224.093 72.7549ZM222.084 68.7926C221.467 69.1055 220.968 69.4001 220.588 69.6765C220.214 69.9547 219.964 70.2275 219.84 70.495C219.715 70.7625 219.726 71.0403 219.872 71.3285C220.017 71.6129 220.232 71.7849 220.517 71.8444C220.808 71.9057 221.177 71.8675 221.623 71.7297C222.072 71.5901 222.607 71.3629 223.228 71.0481C223.845 70.7352 224.342 70.4387 224.72 70.1587C225.099 69.8786 225.349 69.603 225.472 69.3318C225.6 69.0625 225.592 68.7855 225.447 68.5011C225.301 68.2129 225.082 68.0409 224.789 67.9852C224.499 67.9275 224.13 67.9686 223.681 68.1082C223.233 68.2516 222.701 68.4797 222.084 68.7926Z" fill="white"/>
<path d="M216.045 66.9292L215.177 65.2168L219.865 62.8391C219.994 62.7735 220.154 62.6948 220.344 62.603C220.538 62.5092 220.737 62.4155 220.94 62.3217C221.147 62.226 221.334 62.1406 221.5 62.0656C221.431 62.0493 221.306 62.0083 221.124 61.9427C220.948 61.8789 220.786 61.8168 220.64 61.7565L219.419 61.2049L220.031 59.8564L223.433 61.4126L224.147 62.8202L216.045 66.9292Z" fill="white"/>
</svg>
